<svg xmlns="http://www.w3.org/2000/svg" viewBox="0 0 493.26 326.66">
    <defs>
        <style>.cls-1{fill:#ebe9d8;}.cls-2{fill:none;}.cls-3{fill:#082f40;}.cls-4{fill:#ed535e;}.cls-5{fill:#2dbfc7;}.cls-6{fill:#d9283c;}</style>
    </defs>
    <title>Asset 8HowdyHack_finalFrontPage</title>
    <g id="Layer_2" data-name="Layer 2">
        <g id="Layer_2-2" data-name="Layer 2">
            <path class="cls-3" d="M146.88,162.83C71,132.53,20.55,8.72,17.08,0H0V28s9.89-3.44,18.88,19c0,0,13.22,31.74,29.09,48.67a297.59,297.59,0,0,0,27.39,25.57,39.87,39.87,0,0,1,9.49,11.13c3.53,6.21,4.8,12.5-12,3.77-27.51-14.28-54-18.78-62.95-25.39C2.64,105.46,0,89.89,0,89.89v33.52c92.28,14.48,164.77,84.67,176.51,131.78,11.27,45.28,49.34,71.47,49.34,71.47h13.71c-33.86-23.48-39.15-46.05-39.95-53.47a11,11,0,0,1,.68-5.3c4.47-11.11,14.83,15.78,14.83,15.78s10.43,22.82,25.42,23.14,22.16,19.85,22.16,19.85H291C280.31,305.56,220,192,146.88,162.83Z"/>
            <path class="cls-4" d="M206.76,147.13C41.93,86,46.32,0,46.32,0H17.08C20.55,8.72,71,132.53,146.88,162.83,220,192,280.31,305.56,291,326.66h37.83C237.9,216.41,371.58,208.25,206.76,147.13Zm-15.58,6.09s45.57,25.65,64.15,31,31,16.37,26.54,34.51,8.4,44.67-4.87,38.48-46.69-38.7-52.44-51.53-20.34-29.17-30.72-34.29C180.74,164.89,162.2,137.74,191.18,153.22Z"/>
</g>
    </g>
</svg>