<svg xmlns="http://www.w3.org/2000/svg" viewBox="0 0 493.26 326.66">
    <defs>
        <style>.cls-1{fill:#ebe9d8;}.cls-2{fill:none;}.cls-3{fill:#082f40;}.cls-4{fill:#ed535e;}.cls-5{fill:#2dbfc7;}.cls-6{fill:#d9283c;}</style>
    </defs>
    <title>Asset 8HowdyHack_finalFrontPage</title>
    <g id="Layer_2" data-name="Layer 2">
        <g id="Layer_2-2" data-name="Layer 2">
            <rect class="cls-1" width="493.26" height="326.66"/>
            <polygon class="cls-2" points="0 172.37 0 172.37 0 172.37 0 172.37"/>
            <polygon class="cls-2" points="0 144.27 0 144.27 0 144.27 0 144.27"/>
            <path class="cls-2" d="M71.87,255.61A79.83,79.83,0,0,0,88,297.09,297,297,0,0,1,71.87,255.61Z"/>
            <path class="cls-2" d="M114.33,0s-16.56,15.24,6.54,51.45C139.06,80,199.56,113.22,235.7,127.68a394.32,394.32,0,0,1,59.3,30.5c33.84,21.32,50.6,58.7,49.63,96.62-1.1,42.86,15.18,63.16,25.95,71.86H493.26V0Z"/>
            <path class="cls-3" d="M146.88,162.83C71,132.53,20.55,8.72,17.08,0H0V28s9.89-3.44,18.88,19c0,0,13.22,31.74,29.09,48.67a297.59,297.59,0,0,0,27.39,25.57,39.87,39.87,0,0,1,9.49,11.13c3.53,6.21,4.8,12.5-12,3.77-27.51-14.28-54-18.78-62.95-25.39C2.64,105.46,0,89.89,0,89.89v33.52c92.28,14.48,164.77,84.67,176.51,131.78,11.27,45.28,49.34,71.47,49.34,71.47h13.71c-33.86-23.48-39.15-46.05-39.95-53.47a11,11,0,0,1,.68-5.3c4.47-11.11,14.83,15.78,14.83,15.78s10.43,22.82,25.42,23.14,22.16,19.85,22.16,19.85H291C280.31,305.56,220,192,146.88,162.83Z"/>
            <path class="cls-4" d="M206.76,147.13C41.93,86,46.32,0,46.32,0H17.08C20.55,8.72,71,132.53,146.88,162.83,220,192,280.31,305.56,291,326.66h37.83C237.9,216.41,371.58,208.25,206.76,147.13Zm-15.58,6.09s45.57,25.65,64.15,31,31,16.37,26.54,34.51,8.4,44.67-4.87,38.48-46.69-38.7-52.44-51.53-20.34-29.17-30.72-34.29C180.74,164.89,162.2,137.74,191.18,153.22Z"/>
            <path class="cls-5" d="M176.51,255.19C164.77,208.08,92.28,137.89,0,123.41v20.86H0c55.53-2.73,151.2,66.95,154.68,115.46,3,41.79,18.51,66.93,18.51,66.93h52.66S187.78,300.47,176.51,255.19Z"/>
            <path class="cls-1" d="M0,144.27H0v28.1H0s63.7-.05,71.87,83.24A297,297,0,0,0,88,297.09c9.94,13,23.34,22.59,37.31,29.57h47.93s-15.52-25.14-18.51-66.93C151.2,211.22,55.53,141.54,0,144.27Zm82.21,59C69.79,204.9,60,177.51,45.94,176.77a15.58,15.58,0,0,1-9.4-3.56c-3.47-3-6.87-6.62-3.59-7.32a5,5,0,0,1,3.49.61c4.2,2.4,18.47,10.19,27.87,10.7,0,0,22.32,1.58,22.74,14.21S89.78,202.33,82.21,203.3Zm46.18,72.53a30.12,30.12,0,0,1-21.48-14.55C102.51,254,99.44,246,100,236.5c.87-13.92-6.83-28.4-6.83-28.4s-3.77-9.67,2.41-6.06a39.84,39.84,0,0,0,4.36,2.24c7.23,3,28.85,14.63,39.25,47.42C146.14,273.54,137.54,277.07,128.39,275.83Z"/>
            <path class="cls-4" d="M88,297.09a79.83,79.83,0,0,1-16.08-41.48C63.7,172.32,0,172.37,0,172.37H0V326.66H125.26C111.29,319.68,97.89,310.12,88,297.09Z"/>
            <path class="cls-6" d="M344.63,254.8c1-37.92-15.79-75.3-49.63-96.62a394.32,394.32,0,0,0-59.3-30.5C199.56,113.22,139.06,80,120.87,51.45,97.77,15.24,114.33,0,114.33,0h-68S41.93,86,206.76,147.13s31.14,69.28,122.07,179.53h41.75C359.81,318,343.53,297.66,344.63,254.8Z"/>
            <path class="cls-1" d="M9.89,110.79c9,6.61,35.44,11.11,63,25.39,16.81,8.73,15.54,2.44,12-3.77a39.87,39.87,0,0,0-9.49-11.13A297.59,297.59,0,0,1,48,95.71C32.1,78.78,18.88,47,18.88,47,9.89,24.56,0,28,0,28V89.89S2.64,105.46,9.89,110.79Z"/>
            <path class="cls-5" d="M193.84,171.35c10.38,5.12,25,21.46,30.72,34.29S263.73,251,277,257.17s.44-20.35,4.87-38.48-8-29.2-26.54-34.51-64.15-31-64.15-31C162.2,137.74,180.74,164.89,193.84,171.35Z"/>
            <path class="cls-4" d="M64.31,177.2c-9.4-.51-23.67-8.3-27.87-10.7a5,5,0,0,0-3.49-.61c-3.28.7.12,4.35,3.59,7.32a15.58,15.58,0,0,0,9.4,3.56c14.05.74,23.85,28.13,36.27,26.53,7.57-1,5.26.74,4.84-11.89S64.31,177.2,64.31,177.2Z"/>
            <path class="cls-4" d="M100,204.28A39.84,39.84,0,0,1,95.61,202c-6.18-3.61-2.41,6.06-2.41,6.06s7.7,14.48,6.83,28.4c-.59,9.49,2.48,17.46,6.88,24.78a30.12,30.12,0,0,0,21.48,14.55c9.15,1.24,17.75-2.29,10.83-24.13C128.82,218.91,107.2,207.32,100,204.28Z"/>
            <path class="cls-1" d="M240.54,306.81c-15-.32-25.42-23.14-25.42-23.14s-10.36-26.89-14.83-15.78a11,11,0,0,0-.68,5.3c.8,7.42,6.09,30,39.95,53.47H262.7S255.53,307.14,240.54,306.81Z"/>
</g>
    </g>
</svg>