<svg width="701" height="303" viewBox="0 0 701 303" fill="black" xmlns="http://www.w3.org/2000/svg">
<path d="M701 172.703H696.084V169.836H694.445V148.948H693.079V169.836H684.202V148.538H697.176V143.214H694.035V139.801V132.292H683.519V134.613H637.769V132.292H625.615V134.203H448.077V131.882H427.183V131.746L427.319 129.834H427.183H426.773V116.728H433.055V108.537H432.645H428.958V101.574H426.09V99.253H425.271V90.5155H402.6V71.5386H405.468H405.742V67.4429V61.982V58.8419H405.468H402.737V49.5583H399.733C399.323 28.6701 383.481 11.3315 362.177 6.55316V0H361.494H339.506H338.824V6.55316C317.519 11.3315 301.541 28.6701 301.268 49.5583H298.263V58.8419H295.532H295.259V61.982V67.4429V71.5386H295.532H298.4V90.5155H275.729V99.253H274.91V101.574H272.042V108.537H268.355H267.945V116.728H274.227V129.834H273.817H273.681L273.817 131.746V131.882H252.923V134.203H75.2486V132.292H63.0941V134.613H17.344V132.292H6.82837V139.801V143.214H3.68732V148.538H16.6612V169.836H7.9209V148.948H6.55523V169.836H4.91642V172.703H0V178.027H4.91642V268.543V279.465V347.863H23.6261V348H30.1814H50.6665H56.5389V347.863H75.2486V334.894H102.699H106.796H134.382H138.479H166.066H170.163H197.749H201.846H229.433H233.53H261.117H285.699V347.863H285.972H299.492H299.765H306.184H306.594H326.669H327.079H332.951H333.224H333.907H334.18H340.326H340.735H360.538H360.947H367.093H367.366H368.049H368.322H374.194H374.604H394.68H395.089H401.508H401.781H415.301H415.574V334.894H440.156H467.743H471.84H499.427H503.524H531.11H535.207H562.794H566.891H594.068H598.165H625.615V347.863H644.325V348H650.197H670.682H677.237V347.863H695.947V279.465V268.543V178.027H700.864V172.703H701ZM682.837 172.703H637.769V169.836V150.996H638.179V148.538H682.837V172.703ZM694.581 266.086H684.066V261.444H694.581V266.086ZM682.7 267.451V268.543H680.925V191.543C681.607 191.407 682.29 191.134 682.7 190.724V260.078V261.444V266.086H682.563V267.451H682.7ZM682.7 278.1H669.863V269.908H670.682H680.788H682.563V278.1H682.7ZM684.066 269.908H694.581V278.1H684.066V269.908ZM599.531 329.433H624.249V333.528H599.531V329.433ZM567.847 333.528V329.433H592.702V333.528H567.847ZM536.163 333.528V329.433H560.882V333.528H536.163ZM504.48 333.528V329.433H529.198V333.528H504.48ZM472.796 333.528V329.433H497.515V333.528H472.796ZM441.249 333.528V329.433H465.968V333.528H441.249ZM235.032 333.528V329.433H259.751V333.528H235.032ZM203.349 333.528V329.433H228.067V333.528H203.349ZM171.665 333.528V329.433H196.384V333.528H171.665ZM139.982 333.528V329.433H164.7V333.528H139.982ZM108.298 333.528V329.433H133.017V333.528H108.298ZM6.2821 285.882H73.8829V289.977H6.2821V285.882ZM18.1635 279.465H32.3665V268.543H30.1814V267.041H49.5739V268.543H48.0717V279.465H62.1381V284.516H18.1635V279.465ZM18.1635 269.908H19.9388H30.0448H30.8642V278.1H18.0269V269.908H18.1635ZM16.7978 278.1H6.2821V269.908H16.7978V278.1ZM18.1635 266.086V261.444V260.078V190.724C18.7097 191.134 19.256 191.543 19.9388 191.543V268.543H18.1635V267.451H18.3V266.086H18.1635ZM6.2821 182.533H16.7978V187.038H6.2821V182.533ZM448.077 145.262H625.751V172.703H448.624L448.077 147.719V145.262ZM447.258 172.703H413.116V169.426H412.98H287.611H287.474V172.703H253.332L253.879 148.402H293.62V160.006L287.338 163.146V150.313H264.531V170.655H287.338V166.832H287.474H288.43H295.941H297.034H310.964H311.92H389.08H390.036H403.966H405.059H412.57H413.526H413.662V170.655H436.469V150.313H413.662V163.146L407.38 160.006V148.402H446.848L447.258 172.703ZM639.272 187.721C639.272 186.355 640.364 185.263 641.73 185.263H642.686V190.315H641.73C641.593 190.315 641.457 190.315 641.457 190.315V188.949H639.545C639.272 188.54 639.272 188.13 639.272 187.721ZM649.924 229.634V232.637H649.787V267.178H649.924V268.68H642.549V191.816H642.822H649.787H650.06V195.366H649.924V229.634ZM670.819 229.634V232.637H651.426V229.634H670.819ZM651.426 227.995V196.595H670.682V227.995H651.426ZM672.184 195.093V191.543H672.457H679.422H679.696V268.406H672.321V266.905H672.457V232.364H672.321V229.361H672.457L672.184 195.093ZM694.581 194.274H684.066V190.315H694.581V194.274ZM694.581 223.217H684.066V218.439H694.581V223.217ZM694.581 188.949H684.066V188.403H694.581V188.949ZM680.242 190.178H679.286V185.127H680.242C681.607 185.127 682.7 186.219 682.7 187.584C682.7 188.949 681.607 190.178 680.242 190.178ZM673.687 186.219H677.92V190.178H673.687V186.219ZM672.321 190.178H671.365C669.999 190.178 668.907 189.086 668.907 187.721C668.907 186.355 669.999 185.263 671.365 185.263H672.321V190.178ZM670.682 234.002V265.403H651.426V234.002H670.682ZM626.981 269.908H637.36V278.1H626.981V269.908ZM638.862 269.908H641.184H651.29H651.426V278.1H638.725V269.908H638.862ZM626.981 255.3H637.36V259.942H626.981V255.3ZM638.862 247.655V243.013H641.184V253.662H638.862V249.02H641.184V247.518H638.862V247.655ZM626.981 190.315H637.36V194.274H626.981V190.315ZM638.862 190.315C639.408 190.997 640.228 191.407 641.047 191.543V194.274H638.725L638.862 190.315ZM626.981 224.719H637.36V229.361H626.981V224.719ZM641.184 204.786H638.862V201.237H641.184V204.786ZM626.981 201.237H637.36V204.786H626.981V201.237ZM641.184 199.735H638.862V195.776H641.184V199.735ZM637.496 199.735H627.117V195.776H637.496V199.735ZM626.981 206.288H637.36V210.247H626.981V206.288ZM638.862 206.288H641.184V210.247H638.862V206.288ZM641.184 211.749V216.937H638.862V211.749H641.184ZM641.184 218.439V223.08H638.862V218.439H641.184ZM641.184 224.719V229.361H638.862V224.719H641.184ZM626.981 230.862H637.36V235.504H626.981V230.862ZM638.862 230.862H641.184V235.504H638.862V230.862ZM626.981 211.749H637.36V216.937H626.981V211.749ZM637.496 218.439V223.08H627.117V218.439H637.496ZM626.981 237.006H637.36V241.648H626.981V237.006ZM638.862 237.006H641.184V241.648H638.862V237.006ZM641.184 255.3V259.942H638.862V255.3H641.184ZM626.981 261.444H637.36V266.086H626.981V261.444ZM638.862 261.444H641.184V266.086H638.862V261.444ZM641.184 267.587V268.543H638.862V267.587H641.184ZM644.051 186.219H648.285V190.178H644.051V186.219ZM650.607 190.178H649.651V185.127H650.607C651.972 185.127 653.065 186.219 653.065 187.584C653.065 188.949 651.972 190.178 650.607 190.178ZM637.496 188.813H627.117V188.403H637.496V188.813ZM626.981 243.013H637.36V247.655H626.981V243.013ZM637.496 249.157V253.798H627.117V249.157H637.496ZM626.981 267.587H637.36V268.543H626.981V267.587ZM637.496 279.465V284.516H627.117V279.465H637.496ZM694.581 300.899H675.872C675.189 299.397 674.369 298.032 673.413 296.803H694.581V300.899ZM675.872 307.316V307.589H670.682C670.682 305.678 670.136 303.903 669.18 302.401H674.916C675.599 303.766 675.872 305.541 675.872 307.316ZM694.581 314.142H677.237V308.954H694.581V314.142ZM675.872 314.142H670.682V308.954H675.872V314.142ZM444.117 328.067V311.138C444.117 306.77 447.258 303.084 451.355 302.264H454.906C459.003 303.084 462.144 306.77 462.144 311.138V328.067H444.117ZM73.8829 307.589H56.5389V307.316C56.5389 305.541 56.2657 303.903 55.7195 302.264H73.8829V307.589ZM6.2821 308.954H23.6261V314.142H6.2821V308.954ZM25.1284 308.954H30.3179V314.142H25.1284V308.954ZM25.9478 302.264H31.6836C30.7276 303.766 30.1814 305.541 30.1814 307.452H24.9918V307.179C25.1284 305.541 25.4015 303.766 25.9478 302.264ZM30.1814 295.984L33.459 300.08C33.1859 300.353 32.9127 300.626 32.7762 300.899H26.6306C27.45 298.988 28.6791 297.35 30.1814 295.984ZM63.5038 279.465H73.8829V284.516H63.5038V279.465ZM50.9396 267.041L51.0762 232.501H50.9396V229.497H51.0762V194.956H50.9396V191.407H51.2127H58.1777H58.4508V268.27H51.0762V267.041H50.9396ZM30.1814 232.501V229.497H49.5739V232.501H30.1814ZM49.5739 234.002V265.403H30.3179V234.002H49.5739ZM28.8157 267.041V268.543H21.4411V191.68H21.7142H28.6791H28.9523V195.23H28.6791V229.77H28.8157V232.774H28.6791L28.8157 267.041ZM6.2821 211.749H16.7978V217.073H6.2821V211.749ZM29.6351 190.178H28.6791V185.127H29.6351C31.0008 185.127 32.0933 186.219 32.0933 187.584C32.0933 188.949 31.0008 190.178 29.6351 190.178ZM23.0799 186.219H27.3135V190.178H23.0799V186.219ZM21.7142 190.178H20.7582C19.3926 190.178 18.3 189.086 18.3 187.721C18.3 186.355 19.3926 185.263 20.7582 185.263H21.7142V190.178ZM30.3179 227.995V196.595H49.5739V227.995H30.3179ZM62.1381 190.315V194.274H59.8165V191.543C60.6359 191.407 61.4553 190.997 62.1381 190.315ZM62.1381 249.157V253.798H59.8165V243.013H62.1381V247.655H59.8165V249.157H62.1381ZM59.8165 195.776H62.1381V199.735H59.8165V195.776ZM73.8829 210.247H63.5038V206.288H73.8829V210.247ZM73.8829 204.786H63.5038V201.237H73.8829V204.786ZM73.8829 199.735H63.5038V195.776H73.8829V199.735ZM59.8165 201.237H62.1381V204.786H59.8165V201.237ZM59.8165 206.288H62.1381V210.247H59.8165V206.288ZM59.8165 211.749H62.1381V216.937H59.8165V211.749ZM59.8165 218.439H62.1381V223.08H59.8165V218.439ZM59.8165 230.862H62.1381V235.504H59.8165V230.862ZM63.5038 230.862H73.8829V235.504H63.5038V230.862ZM73.8829 229.361H63.5038V224.719H73.8829V229.361ZM62.1381 229.361H59.8165V224.719H62.1381V229.361ZM59.8165 261.444H62.1381V266.086H59.8165V261.444ZM63.5038 261.444H73.8829V266.086H63.5038V261.444ZM73.8829 259.942H63.5038V255.3H73.8829V259.942ZM62.1381 259.942H59.8165V255.3H62.1381V259.942ZM59.8165 241.511V236.869H62.1381V241.511H59.8165ZM63.5038 237.006H73.8829V241.648H63.5038V237.006ZM73.8829 223.217H63.5038V218.439H73.8829V223.217ZM63.5038 216.937V211.749H73.8829V216.937H63.5038ZM73.8829 194.274H63.5038V190.315H73.8829V194.274ZM59.8165 267.587H62.1381V268.543H59.8165V267.587ZM63.5038 267.587H73.8829V268.543H63.5038V267.587ZM73.8829 253.798H63.5038V249.157H73.8829V253.798ZM63.5038 247.655V243.013H73.8829V247.655H63.5038ZM73.8829 188.813H63.5038V188.403H73.8829V188.813ZM61.4553 188.813H59.5434V190.178C59.4068 190.178 59.2702 190.178 59.2702 190.178H58.3142V185.127H59.2702C60.6359 185.127 61.7284 186.219 61.7284 187.584C61.7284 188.13 61.5919 188.54 61.4553 188.813ZM52.715 186.219H56.9486V190.178H52.715V186.219ZM51.3493 190.178H50.3933C49.0277 190.178 47.9351 189.086 47.9351 187.721C47.9351 186.355 49.0277 185.263 50.3933 185.263H51.3493V190.178ZM59.8165 269.908H62.1381V278.1H49.4374V269.908H49.5739H59.8165ZM63.5038 269.908H73.8829V278.1H63.5038V269.908ZM288.294 178.027V179.393H287.747V188.949H252.24V178.027H288.294ZM448.624 280.83H434.967V275.915H448.624V280.83ZM415.301 284.516V282.741H415.711V275.915H431.962V244.105H433.738V284.38H415.301V284.516ZM663.717 297.896L664.4 292.708C666.312 293.117 667.951 294.073 669.59 295.165L666.448 299.261C665.629 298.715 664.673 298.169 663.717 297.896ZM658.391 297.623L657.298 292.708C658.391 292.435 659.62 292.298 660.849 292.298C661.669 292.298 662.488 292.435 663.171 292.435L662.488 297.623C661.942 297.486 661.396 297.486 660.713 297.486H660.303C659.62 297.35 659.074 297.486 658.391 297.623ZM655.933 293.117L657.025 298.032C656.069 298.305 655.113 298.851 654.294 299.397L651.016 295.984C652.519 294.619 654.157 293.663 655.933 293.117ZM650.197 296.803L653.475 300.217C653.201 300.49 653.065 300.626 652.792 300.899H647.329C648.012 299.397 648.968 297.896 650.197 296.803ZM645.69 300.899H626.981V296.803H648.148C647.193 298.032 646.373 299.397 645.69 300.899ZM624.386 309.091V311.821H621.791V311.138C621.791 309.91 621.518 308.818 621.108 307.725H624.249C624.249 308.135 624.386 308.545 624.386 309.091ZM621.654 318.511H624.249V322.607H621.654V318.511ZM621.654 317.146V313.05H624.249V317.146H621.654ZM620.425 306.36C620.016 305.678 619.606 304.995 619.06 304.449L621.654 301.582C622.747 302.947 623.566 304.585 623.976 306.36H620.425ZM601.579 317.146H599.531V313.05H601.442V317.146H601.579ZM571.125 306.36H568.257C568.53 304.858 569.213 303.493 570.032 302.264H570.988L572.763 304.039C572.081 304.722 571.534 305.541 571.125 306.36ZM569.895 317.146H567.983V313.05H569.895V317.146ZM569.895 311.138V311.821H567.983V309.091C567.983 308.681 567.983 308.135 568.12 307.725H570.578C570.032 308.818 569.895 309.91 569.895 311.138ZM557.741 307.725H560.882C560.882 308.135 561.019 308.681 561.019 309.091V311.821H558.424V311.138C558.287 309.91 558.151 308.818 557.741 307.725ZM538.212 317.146H536.3V313.05H538.212V317.146ZM524.009 304.449L526.057 302.264H527.15C527.969 303.493 528.516 304.858 528.925 306.36H525.375C525.101 305.678 524.555 304.995 524.009 304.449ZM506.528 317.146H504.616V313.05H506.528V317.146ZM492.325 304.449L494.374 302.264H495.466C496.286 303.493 496.832 304.858 497.242 306.36H493.691C493.418 305.678 492.871 304.995 492.325 304.449ZM474.845 317.146H472.933V313.05H474.845V317.146ZM442.478 300.899H415.165V296.803H447.395C445.483 297.759 443.844 299.124 442.478 300.899ZM439.747 317.146H415.165V313.05H439.747V317.146ZM358.08 300.49L360.674 296.94C361.903 298.032 362.996 299.397 363.815 300.899H358.489C358.353 300.763 358.216 300.626 358.08 300.49ZM261.117 313.186H285.699V317.282H261.117V313.186ZM253.469 296.803H285.699V300.899H258.385C257.156 299.124 255.381 297.759 253.469 296.803ZM237.627 317.146H235.032V313.05H237.627V317.146ZM207.173 306.36H203.622C203.895 304.858 204.578 303.493 205.397 302.264H206.49L208.538 304.449C207.992 304.995 207.582 305.678 207.173 306.36ZM205.944 317.146H203.349V313.05H205.944V317.146ZM175.489 306.36H171.938C172.211 304.858 172.894 303.493 173.714 302.264H174.806L176.855 304.449C176.308 304.995 175.899 305.678 175.489 306.36ZM174.26 317.146H171.665V313.05H174.26V317.146ZM142.576 311.138V311.821H139.982V309.091C139.982 308.681 139.982 308.135 140.118 307.725H143.259C142.849 308.818 142.576 309.91 142.576 311.138ZM131.105 313.186H133.017V317.282H131.105V313.186ZM131.105 311.821V311.138C131.105 309.91 130.831 308.818 130.422 307.725H132.88C132.88 308.135 133.017 308.681 133.017 309.091V311.821H131.105ZM128.237 304.039L130.012 302.264H130.968C131.787 303.493 132.334 304.858 132.743 306.36H129.876C129.466 305.541 128.783 304.722 128.237 304.039ZM110.893 317.146H108.298V313.05H110.893V317.146ZM47.5254 300.217L50.803 296.803C52.0322 298.032 52.9881 299.397 53.671 300.899H48.2083C48.0717 300.626 47.7986 300.353 47.5254 300.217ZM38.512 297.623L37.8291 292.435C38.6486 292.298 39.3314 292.298 40.1508 292.298C41.3799 292.298 42.609 292.435 43.7015 292.708L42.609 297.623C42.0627 297.486 41.3799 297.486 40.8336 297.486H40.4239C39.6045 297.35 39.0583 297.486 38.512 297.623ZM44.9306 293.117C46.706 293.663 48.3448 294.619 49.8471 295.848L46.5695 299.261C45.75 298.715 44.7941 298.169 43.8381 297.896L44.9306 293.117ZM52.715 296.803H73.8829V300.899H55.1732C54.6269 299.397 53.671 298.032 52.715 296.803ZM252.376 190.315H266.033V193.728H252.376V190.315ZM410.931 182.942H411.341V188.949H402.6H373.238H364.362H336.912H328.035H298.673H289.932V182.942H290.342H410.931ZM415.165 200.144H430.46V230.589H415.165V200.144ZM431.826 231.818V200.144H433.601V241.511H412.024L411.75 200.144H413.936V231.818H431.826ZM374.058 306.36H369.688C369.824 304.995 370.234 303.63 370.78 302.264H375.56C374.741 303.493 374.194 304.858 374.058 306.36ZM377.472 302.264H391.402C392.221 303.493 392.904 304.858 393.041 306.36H375.833C375.97 304.858 376.653 303.357 377.472 302.264ZM394.816 306.36C394.68 304.858 394.133 303.493 393.45 302.264H398.777C399.323 303.493 399.733 304.858 399.869 306.36H394.816ZM394.953 296.803C396.182 298.032 397.274 299.397 398.094 300.899H392.494C392.221 300.49 391.812 300.217 391.402 299.807L393.86 296.803H394.953ZM390.173 300.899H378.701C380.203 299.534 382.252 298.715 384.437 298.715C386.622 298.715 388.671 299.534 390.173 300.899ZM376.38 300.899H371.327C372.146 299.397 373.238 298.032 374.468 296.94L376.926 300.353C376.789 300.49 376.653 300.626 376.38 300.899ZM365.591 308.135V311.821H360.811V307.862H365.591C365.591 307.998 365.591 307.998 365.591 308.135ZM367.23 307.862H367.912C367.912 307.998 367.912 307.998 367.912 308.135V311.821H367.23V308.135C367.23 307.998 367.23 307.998 367.23 307.862ZM369.551 308.135C369.551 307.998 369.551 307.998 369.551 307.862H374.058V311.821H369.551V308.135ZM375.833 307.725H393.177V311.821H375.833V307.725ZM394.953 307.862H400.006C400.006 307.998 400.006 307.998 400.006 308.135V311.821H394.953V307.862ZM401.508 307.862H413.662V311.821H401.508V308.135C401.508 307.998 401.508 307.998 401.508 307.862ZM413.662 306.36H401.371C401.235 304.995 400.825 303.63 400.415 302.264H413.662V306.36ZM393.177 295.438H388.397L388.807 293.39C390.446 293.8 391.812 294.483 393.177 295.438ZM392.221 296.803L390.446 298.988C389.627 298.442 388.807 298.032 387.988 297.759L388.261 296.803H392.221ZM386.486 297.486C385.939 297.35 385.393 297.35 384.847 297.35H384.437H384.027C383.481 297.35 382.935 297.35 382.388 297.486L382.252 296.803H386.622L386.486 297.486ZM381.023 297.759C379.93 298.169 378.838 298.715 377.882 299.397L375.97 296.803H380.886L381.023 297.759ZM376.243 295.438C377.472 294.619 378.838 293.936 380.34 293.527L380.75 295.438H376.243ZM368.049 306.36H367.23C367.093 304.995 366.683 303.63 366.274 302.264H369.141C368.595 303.493 368.185 304.858 368.049 306.36ZM360.947 313.186H365.727V317.282H360.947V313.186ZM367.23 313.186H367.912V317.282H367.23V313.186ZM369.551 313.186H374.058V317.282H369.551V313.186ZM375.833 313.186H393.177V317.282H375.833V313.186ZM394.953 313.186H400.006V317.282H394.953V313.186ZM401.508 313.186H413.662V317.282H401.508V313.186ZM333.634 308.135V311.821H332.951V308.135C332.951 307.998 332.951 307.998 332.951 307.862H333.634C333.634 307.998 333.634 307.998 333.634 308.135ZM326.806 306.36C326.669 304.858 326.123 303.493 325.44 302.264H330.22C330.766 303.493 331.176 304.858 331.312 306.36H326.806ZM323.528 302.264C324.347 303.493 325.03 304.858 325.167 306.36H307.959C308.096 304.858 308.779 303.493 309.598 302.264H323.528ZM306.047 306.36H301.131C301.268 304.995 301.677 303.63 302.223 302.264H307.55C306.73 303.493 306.32 304.858 306.047 306.36ZM287.338 307.862H299.492C299.492 307.998 299.492 307.998 299.492 308.135V311.821H287.338V307.862ZM300.994 308.135C300.994 307.998 300.994 307.998 300.994 307.862H306.047V311.821H300.994V308.135ZM307.823 307.725H325.167V311.821H307.823V307.725ZM326.942 307.862H331.449C331.449 307.998 331.449 307.998 331.449 308.135V311.821H326.942V307.862ZM329.537 300.899H324.484C324.347 300.763 324.211 300.49 323.938 300.353L326.396 296.94C327.762 298.032 328.718 299.397 329.537 300.899ZM322.162 300.899H310.691C312.193 299.534 314.241 298.715 316.426 298.715C318.748 298.715 320.66 299.534 322.162 300.899ZM308.506 300.899H302.906C303.726 299.397 304.818 298.032 306.047 296.803H307.003L309.462 299.807C309.052 300.217 308.779 300.49 308.506 300.899ZM287.338 313.186H299.492V317.282H287.338V313.186ZM300.994 313.186H306.047V317.282H300.994V313.186ZM307.823 313.186H325.167V317.282H307.823V313.186ZM326.942 313.186H331.449V317.282H326.942V313.186ZM332.951 313.186H333.634V317.282H332.951V313.186ZM335.273 313.186H340.053V317.282H335.273V313.186ZM333.771 306.36H332.951C332.815 304.995 332.405 303.63 331.995 302.264H334.863C334.317 303.493 333.907 304.858 333.771 306.36ZM324.621 295.438H320.25L320.66 293.527C322.026 293.936 323.391 294.619 324.621 295.438ZM324.894 296.803L322.982 299.397C322.026 298.715 321.07 298.169 319.841 297.759L319.977 296.803H324.894ZM318.475 297.486C317.929 297.35 317.382 297.35 316.836 297.35H316.426H316.017C315.47 297.35 314.924 297.35 314.378 297.486L314.241 296.803H318.612L318.475 297.486ZM313.012 297.759C312.056 298.032 311.237 298.442 310.554 298.988L308.779 296.803H312.876L313.012 297.759ZM307.686 295.438C309.052 294.483 310.418 293.8 312.056 293.39L312.466 295.438H307.686ZM299.492 306.36H287.201V302.264H300.448C300.038 303.493 299.629 304.858 299.492 306.36ZM267.262 200.144H269.038V231.818H286.928V200.144H289.113L288.84 241.511H267.262V200.144ZM270.403 200.144H285.699V230.589H270.403V200.144ZM289.523 190.315H290.479V195.366H289.523C288.157 195.366 287.065 194.274 287.065 192.909C287.065 191.543 288.157 190.315 289.523 190.315ZM410.385 196.731V272.366V273.731H412.98V280.148H400.962V273.731H403.966V272.366L403.556 196.731H410.385ZM288.976 244.242V244.515V244.242ZM290.615 196.731H297.444L297.034 272.366V273.731H300.038V280.148H288.02V273.731H290.615V272.366V196.731ZM291.981 191.27H296.215V195.23H291.981V191.27ZM302.77 275.233H323.528V277.963H302.77V275.233ZM328.854 273.731V272.366V196.731H335.682L335.273 272.366V273.731H338.277V273.867H337.048V280.148H326.123V273.731H328.854ZM330.22 191.27H334.453V195.23H330.22V191.27ZM362.586 273.731H365.591V272.366L365.181 196.731H372.009V272.366V273.731H374.604V280.148H363.679V273.867H362.45L362.586 273.731ZM366.547 191.27H370.78V195.23H366.547V191.27ZM359.855 273.048C359.855 273.185 359.718 273.458 359.718 273.594V273.731H351.115V244.788H352.344H352.48H359.855V273.048ZM349.749 273.867H341.145V273.731C341.145 273.458 341.145 273.321 341.009 273.185V245.061H348.383H348.52H349.749V273.867ZM341.145 275.233H359.855V278.236H341.145V275.233ZM377.335 275.233H398.094V277.963H377.335V275.233ZM412.024 244.515V244.242V244.515ZM409.019 195.366H404.786V191.407H409.019V195.366ZM403.42 195.366H402.464C401.098 195.366 400.006 194.274 400.006 192.909C400.006 191.543 401.098 190.451 402.464 190.451H403.42V195.366ZM402.054 196.595L401.235 270.864H400.825C399.323 270.864 398.094 272.093 398.094 273.594V273.731H377.335V273.594C377.335 272.093 376.106 270.864 374.604 270.864H373.785L373.375 196.595C375.287 196.458 376.926 194.82 376.926 192.772C376.926 191.816 376.516 190.997 375.97 190.315H399.596C399.05 190.997 398.64 191.816 398.64 192.772C398.64 194.82 400.142 196.458 402.054 196.595ZM375.56 192.772C375.56 194.137 374.468 195.23 373.102 195.23H372.146V190.178H373.102C374.468 190.315 375.56 191.407 375.56 192.772ZM365.181 195.366H364.225C362.859 195.366 361.767 194.274 361.767 192.909C361.767 191.543 362.859 190.451 364.225 190.451H365.181V195.366ZM363.815 196.595L362.996 270.864H362.586C362.177 270.864 361.767 271 361.494 271.137V244.788H362.723H362.859V243.423H362.723H361.494H361.357H352.617H352.344H351.115H350.978H349.749H349.612H348.383H348.247H339.506H339.37H338.141H338.004V244.788H338.141H339.37V271.137C339.097 271 338.687 270.864 338.277 270.864H337.868L337.048 196.595C338.96 196.458 340.599 194.82 340.599 192.772C340.599 191.816 340.189 190.997 339.643 190.315H361.221C360.674 190.997 360.265 191.816 360.265 192.772C360.265 194.82 361.903 196.458 363.815 196.595ZM339.233 192.772C339.233 194.137 338.141 195.23 336.775 195.23H335.819V190.178H336.775C338.141 190.315 339.233 191.407 339.233 192.772ZM328.854 195.366H327.898C326.532 195.366 325.44 194.274 325.44 192.909C325.44 191.543 326.532 190.451 327.898 190.451H328.854V195.366ZM327.488 196.595L327.079 270.864H326.259C324.757 270.864 323.528 272.093 323.528 273.594V273.731H302.77V273.594C302.77 272.093 301.541 270.864 300.038 270.864H299.629L298.809 196.595C300.721 196.458 302.36 194.82 302.36 192.772C302.36 191.816 301.95 190.997 301.404 190.315H325.03C324.484 190.997 324.074 191.816 324.074 192.772C323.938 194.82 325.576 196.458 327.488 196.595ZM300.994 192.772C300.994 194.137 299.902 195.23 298.536 195.23H297.58V190.178H298.536C299.902 190.315 300.994 191.407 300.994 192.772ZM270.403 244.242H287.611V271C286.245 271.137 285.289 272.366 285.289 273.731V274.687H270.403V244.242ZM302.77 279.328H323.528V282.059H302.77V279.328ZM341.145 279.601H359.855V282.195H341.145V279.601ZM377.335 279.328H398.094V282.059H377.335V279.328ZM413.389 271V244.242H430.597V274.687H415.711V273.731C415.711 272.229 414.618 271.137 413.389 271ZM411.341 195.366H410.385V190.315H411.341C412.706 190.315 413.799 191.407 413.799 192.772C413.799 194.137 412.706 195.366 411.341 195.366ZM409.565 181.714H291.298V175.16H409.565V181.714ZM289.25 196.595V197.277H267.399V190.178H286.791C286.245 190.861 285.835 191.68 285.835 192.636C285.699 194.82 287.201 196.458 289.25 196.595ZM252.376 195.093H266.033V200.008H252.376V195.093ZM252.376 201.373H266.033V206.288H252.376V201.373ZM252.376 207.517H266.033V212.432H252.376V207.517ZM252.376 213.797H266.033V218.712H252.376V213.797ZM252.376 219.94H266.033V224.855H252.376V219.94ZM252.376 226.22H266.033V231.135H252.376V226.22ZM252.376 232.364H266.033V237.279H252.376V232.364ZM252.376 238.644H266.033V243.559H252.376V238.644ZM252.376 244.924H266.033V249.839H252.376V244.924ZM252.376 251.068H266.033V255.983H252.376V251.068ZM252.376 257.348H266.033V262.263H252.376V257.348ZM252.376 263.492H266.033V268.406H252.376V263.492ZM252.376 269.772H266.033V274.687H252.376V269.772ZM252.376 275.915H266.033V280.83H252.376V275.915ZM267.262 244.242H269.038V276.052H285.289V282.878H285.699V284.653H267.399V244.242H267.262ZM285.699 295.438H247.87C247.733 295.438 247.597 295.438 247.46 295.438H247.187C247.05 295.438 246.914 295.438 246.777 295.438H216.186C216.049 295.438 215.913 295.438 215.776 295.438H215.503C215.367 295.438 215.23 295.438 215.094 295.438H184.502C184.366 295.438 184.229 295.438 184.093 295.438H183.82C183.683 295.438 183.546 295.438 183.41 295.438H152.819C152.682 295.438 152.546 295.438 152.409 295.438H152.136C151.999 295.438 151.863 295.438 151.726 295.438H121.135C120.999 295.438 120.862 295.438 120.726 295.438H120.452C120.316 295.438 120.179 295.438 120.043 295.438H89.4516C89.315 295.438 89.1785 295.438 89.0419 295.438H88.7688C88.6322 295.438 88.4956 295.438 88.3591 295.438H75.112V291.342H285.562V295.438H285.699ZM233.53 311.821H229.433V309.091C229.433 308.681 229.433 308.135 229.297 307.725H233.53C233.53 308.135 233.394 308.681 233.394 309.091V311.821H233.53ZM229.16 306.36C228.887 304.858 228.341 303.493 227.658 302.264H235.442C234.759 303.493 234.213 304.858 233.94 306.36H229.16ZM201.983 311.821H197.886V309.091C197.886 308.681 197.886 308.135 197.749 307.725H201.983C201.983 308.135 201.846 308.681 201.846 309.091V311.821H201.983ZM197.476 306.36C197.203 304.858 196.657 303.493 195.974 302.264H203.758C203.076 303.493 202.529 304.858 202.256 306.36H197.476ZM170.299 311.821H166.202V309.091C166.202 308.681 166.202 308.135 166.066 307.725H170.299C170.299 308.135 170.163 308.681 170.163 309.091V311.821H170.299ZM165.793 306.36C165.52 304.858 164.973 303.493 164.29 302.264H172.075C171.392 303.493 170.846 304.858 170.573 306.36H165.793ZM106.932 311.821H102.835V309.091C102.835 308.681 102.835 308.135 102.699 307.725H106.932C106.932 308.135 106.796 308.681 106.796 309.091V311.821H106.932ZM102.425 306.36C102.152 304.858 101.606 303.493 100.923 302.264H108.708C108.025 303.493 107.478 304.858 107.205 306.36H102.425ZM95.0508 296.803H114.58C112.668 297.759 110.893 299.124 109.664 300.899H100.104C98.7382 299.124 96.9628 297.759 95.0508 296.803ZM77.9799 300.899H75.2486V296.803H82.8964C80.9844 297.759 79.209 299.124 77.9799 300.899ZM219.327 297.35L217.961 300.899H214.274L212.772 297.213C213.728 296.94 214.684 296.803 215.64 296.803H215.913C217.005 296.803 218.235 296.94 219.327 297.35ZM204.714 300.899H195.155C193.926 299.124 192.15 297.759 190.238 296.803H209.767C207.719 297.759 205.944 299.124 204.714 300.899ZM187.643 297.35L186.278 300.899H182.59L181.088 297.213C182.044 296.94 183 296.803 183.956 296.803H184.229C185.322 296.803 186.551 296.94 187.643 297.35ZM173.031 300.899H163.471C162.242 299.124 160.467 297.759 158.555 296.803H178.084C176.035 297.759 174.26 299.124 173.031 300.899ZM155.96 297.35L154.594 300.899H150.907L149.405 297.213C150.361 296.94 151.317 296.803 152.273 296.803H152.546C153.638 296.803 154.867 296.94 155.96 297.35ZM141.347 300.899H131.787C130.558 299.124 128.783 297.759 126.871 296.803H146.4C144.352 297.759 142.576 299.124 141.347 300.899ZM124.276 297.35L122.911 300.899H119.223L117.721 297.213C118.677 296.94 119.633 296.803 120.589 296.803H120.862C121.955 296.803 123.184 296.94 124.276 297.35ZM111.712 300.49C112.941 299.261 114.443 298.169 116.219 297.623L117.584 300.899H112.122L111.712 300.49ZM125.505 297.759C127.008 298.442 128.373 299.397 129.602 300.626L129.329 300.899H124.276L125.505 297.759ZM140.391 302.264C139.708 303.493 139.162 304.858 138.889 306.36H134.246C133.973 304.858 133.426 303.493 132.743 302.264H140.391ZM143.396 300.49C144.625 299.261 146.127 298.169 147.902 297.623L149.268 300.899H143.805L143.396 300.49ZM157.189 297.759C158.691 298.442 160.057 299.397 161.286 300.626L161.013 300.899H155.96L157.189 297.759ZM175.079 300.49C176.308 299.261 177.811 298.169 179.586 297.623L180.952 300.899H175.489L175.079 300.49ZM188.873 297.759C190.375 298.442 191.741 299.397 192.97 300.626L192.696 300.899H187.643L188.873 297.759ZM206.763 300.49C207.992 299.261 209.494 298.169 211.27 297.623L212.635 300.899H207.173L206.763 300.49ZM220.556 297.759C222.058 298.442 223.424 299.397 224.653 300.626L224.38 300.899H219.327L220.556 297.759ZM238.447 300.49C239.676 299.261 241.178 298.169 242.953 297.623L244.319 300.899H238.856L238.447 300.49ZM236.398 300.899H226.838C225.609 299.124 223.834 297.759 221.922 296.803H241.451C239.266 297.759 237.627 299.124 236.398 300.899ZM77.024 302.264C76.3411 303.493 75.7949 304.858 75.5217 306.36H75.2486V302.264H77.024ZM79.209 317.146H76.6143V313.05H79.209V317.146ZM76.6143 318.511H79.209V322.607H76.6143V318.511ZM79.209 311.138V311.821H76.6143V309.091C76.6143 308.681 76.6143 308.135 76.7508 307.725H79.8919C79.4822 308.818 79.209 309.91 79.209 311.138ZM80.4382 306.36H76.8874C77.2971 304.585 78.1165 302.947 79.209 301.582L81.8038 304.449C81.2576 304.995 80.8479 305.678 80.4382 306.36ZM82.7598 303.493L80.0285 300.626C81.2576 299.397 82.7598 298.305 84.5352 297.759L86.174 301.718C84.9449 301.991 83.8523 302.674 82.7598 303.493ZM87.5396 301.172L85.9008 297.077C86.8568 296.803 87.8128 296.667 88.7688 296.667H89.0419C90.271 296.667 91.3635 296.803 92.4561 297.213L90.9538 301.036C90.4076 300.899 89.8613 300.899 89.315 300.899C88.7688 301.036 88.0859 301.172 87.5396 301.172ZM93.8217 297.759C95.324 298.442 96.6897 299.397 97.9188 300.626L95.4606 303.22C94.5046 302.537 93.5486 301.991 92.3195 301.582L93.8217 297.759ZM98.8747 301.582C99.9673 302.947 100.65 304.585 101.06 306.224H98.1919C97.7822 305.404 97.2359 304.585 96.5531 304.039L98.8747 301.582ZM101.333 307.725C101.333 308.135 101.47 308.681 101.47 309.091V311.821H99.5576V311.138C99.5576 309.91 99.2844 308.818 98.8747 307.725H101.333ZM99.421 313.186H101.333V317.282H99.421V313.186ZM102.699 313.186H106.796V317.282H102.699V313.186ZM110.893 311.138V311.821H108.298V309.091C108.298 308.681 108.298 308.135 108.434 307.725H111.575C111.166 308.818 110.893 309.91 110.893 311.138ZM112.122 306.36H108.571C108.844 304.858 109.527 303.493 110.346 302.264H111.439L113.487 304.449C112.941 304.995 112.531 305.678 112.122 306.36ZM114.443 303.493L113.351 302.264H116.219C115.673 302.537 114.99 302.947 114.443 303.493ZM128.1 302.264L127.281 303.22C126.871 302.811 126.325 302.537 125.915 302.264H128.1ZM134.382 307.725H138.616C138.616 308.135 138.479 308.681 138.479 309.091V311.821H134.382V309.091C134.382 308.545 134.382 308.135 134.382 307.725ZM140.255 306.36C140.528 304.858 141.211 303.493 142.03 302.264H143.123L145.171 304.449C144.625 304.995 144.215 305.678 143.805 306.36V306.224H140.255V306.36ZM146.127 303.493L145.034 302.264H147.902C147.356 302.537 146.673 302.947 146.127 303.493ZM159.784 302.264L158.964 303.22C158.555 302.811 158.008 302.537 157.599 302.264H159.784ZM161.559 302.264H162.515C163.335 303.493 163.881 304.858 164.29 306.36H161.696V306.906C161.149 305.951 160.603 304.995 159.784 304.176L161.559 302.264ZM164.564 307.725C164.564 308.135 164.7 308.681 164.7 309.091V311.821H162.788V311.138C162.788 309.91 162.515 308.818 162.105 307.725H164.564ZM162.788 313.186H164.7V317.282H162.788V313.186ZM166.066 313.186H170.163V317.282H166.066V313.186ZM174.26 311.138V311.821H171.665V309.091C171.665 308.681 171.665 308.135 171.802 307.725H174.943C174.533 308.818 174.26 309.91 174.26 311.138ZM177.811 303.493L176.718 302.264H179.586C179.04 302.537 178.357 302.947 177.811 303.493ZM191.467 302.264L190.648 303.22C190.238 302.811 189.692 302.537 189.282 302.264H191.467ZM193.243 302.264H194.199C195.018 303.493 195.564 304.858 195.974 306.36H193.106C192.696 305.541 192.15 304.722 191.467 304.176L193.243 302.264ZM196.247 307.725C196.247 308.135 196.384 308.681 196.384 309.091V311.821H194.472V311.138C194.472 309.91 194.199 308.818 193.789 307.725H196.247ZM194.472 313.186H196.384V317.282H194.472V313.186ZM197.749 313.186H201.846V317.282H197.749V313.186ZM205.944 311.138V311.821H203.349V309.091C203.349 308.681 203.349 308.135 203.485 307.725H206.626C206.217 308.818 205.944 309.91 205.944 311.138ZM209.494 303.493L208.402 302.264H211.27C210.723 302.537 210.041 302.947 209.494 303.493ZM223.151 302.264L222.332 303.22C221.922 302.811 221.376 302.537 220.966 302.264H223.151ZM224.926 302.264H225.882C226.702 303.493 227.248 304.858 227.658 306.36H224.79C224.38 305.541 223.834 304.722 223.151 304.176L224.926 302.264ZM227.931 307.725C227.931 308.135 228.067 308.681 228.067 309.091V311.821H226.155V311.138C226.155 309.91 225.882 308.818 225.473 307.725H227.931ZM226.155 313.186H228.067V317.282H226.155V313.186ZM229.433 313.186H233.53V317.282H229.433V313.186ZM237.627 311.138V311.821H235.032V309.091C235.032 308.681 235.032 308.135 235.169 307.725H238.31C237.9 308.818 237.627 309.91 237.627 311.138ZM238.856 306.36H235.305C235.579 304.858 236.261 303.493 237.081 302.264H238.173L240.222 304.449C239.676 304.995 239.266 305.678 238.856 306.36ZM241.178 303.493L240.085 302.264H242.953C242.407 302.537 241.724 302.947 241.178 303.493ZM245.821 300.899L244.319 297.213C245.275 296.94 246.231 296.803 247.187 296.803H247.46C248.689 296.803 249.782 296.94 250.874 297.35L249.508 300.899H245.821ZM287.338 318.511H299.492V322.607H287.338V318.511ZM300.994 318.511H306.047V322.607H300.994V318.511ZM307.823 318.511H325.167V322.607H307.823V318.511ZM326.942 318.511H331.449V322.607H326.942V318.511ZM332.951 318.511H333.634V322.607H332.951V318.511ZM335.273 318.511H340.053V322.607H335.273V318.511ZM335.273 311.821V308.135C335.273 307.998 335.273 307.998 335.273 307.862H340.053V311.821H335.273ZM341.828 295.575C343.057 294.619 344.559 293.936 346.062 293.527L346.881 297.896C346.062 298.169 345.379 298.578 344.696 298.988L341.828 295.575ZM335.409 300.899H331.449C330.766 299.397 329.81 298.032 328.718 296.803H338.277C337.048 298.032 336.092 299.397 335.409 300.899ZM319.294 293.117L318.885 295.438H313.968L313.422 293.117C314.378 292.981 315.197 292.844 316.153 292.844C317.246 292.844 318.338 292.981 319.294 293.117ZM301.131 300.899H287.338V296.803H303.862C302.77 298.032 301.814 299.397 301.131 300.899ZM287.338 283.561H413.662V289.977H287.338V283.561ZM413.662 300.899H399.869C399.186 299.397 398.23 298.032 397.138 296.803H413.662V300.899ZM387.578 293.117L387.032 295.438H382.115L381.706 293.117C382.662 292.844 383.754 292.844 384.71 292.844C385.666 292.844 386.622 292.844 387.578 293.117ZM369.551 300.899H365.591C364.908 299.397 363.952 298.032 362.859 296.803H372.419C371.327 298.032 370.371 299.397 369.551 300.899ZM354.802 293.39C356.304 293.8 357.806 294.619 359.035 295.438L356.168 298.851C355.485 298.442 354.802 298.032 353.983 297.759L354.802 293.39ZM364.498 302.264C365.044 303.493 365.454 304.858 365.591 306.36H360.947C360.811 304.858 360.265 303.493 359.582 302.264H364.498ZM360.947 318.511H365.727V322.607H360.947V318.511ZM367.23 318.511H367.912V322.607H367.23V318.511ZM369.551 318.511H374.058V322.607H369.551V318.511ZM375.833 318.511H393.177V322.607H375.833V318.511ZM394.953 318.511H400.006V322.607H394.953V318.511ZM401.508 318.511H413.662V322.607H401.508V318.511ZM600.896 300.899H591.336C590.107 299.124 588.332 297.759 586.42 296.803H605.949C603.901 297.759 602.262 299.124 600.896 300.899ZM598.165 311.821H594.068V309.091C594.068 308.681 594.068 308.135 593.931 307.725H598.165C598.165 308.135 598.028 308.681 598.028 309.091V311.821H598.165ZM593.795 306.36C593.522 304.858 592.975 303.493 592.292 302.264H600.077C599.394 303.493 598.848 304.858 598.575 306.36H593.795ZM534.798 311.821H530.701V309.091C530.701 308.681 530.701 308.135 530.564 307.725H534.798C534.798 308.135 534.661 308.681 534.661 309.091V311.821H534.798ZM530.427 306.36C530.154 304.858 529.608 303.493 528.925 302.264H536.71C536.027 303.493 535.48 304.858 535.207 306.36H530.427ZM503.114 311.821H499.017V309.091C499.017 308.681 499.017 308.135 498.88 307.725H503.114C503.114 308.135 502.977 308.681 502.977 309.091V311.821H503.114ZM498.744 306.36C498.471 304.858 497.924 303.493 497.242 302.264H505.026C504.343 303.493 503.797 304.858 503.524 306.36H498.744ZM471.43 311.821H467.333V309.091C467.333 308.681 467.333 308.135 467.197 307.725H471.43C471.43 308.135 471.294 308.681 471.294 309.091V311.821H471.43ZM467.06 306.36C466.787 304.858 466.241 303.493 465.558 302.264H473.342C472.659 303.493 472.113 304.858 471.84 306.36H467.06ZM462.417 300.49L462.144 300.899H456.681L458.047 297.623C459.686 298.169 461.188 299.261 462.417 300.49ZM476.347 300.626C477.439 299.397 478.942 298.442 480.444 297.759L481.673 300.899H476.62L476.347 300.626ZM481.673 297.35C482.765 297.077 483.858 296.803 485.087 296.803H485.36C486.316 296.803 487.409 296.94 488.228 297.213L486.726 300.899H483.039L481.673 297.35ZM489.594 297.623C491.369 298.305 492.871 299.261 494.101 300.49L493.827 300.899H488.365L489.594 297.623ZM507.894 300.626C508.986 299.397 510.489 298.442 511.991 297.759L513.22 300.899H508.167L507.894 300.626ZM513.357 297.35C514.449 297.077 515.542 296.803 516.771 296.803H517.044C518 296.803 519.092 296.94 519.912 297.213L518.41 300.899H514.722L513.357 297.35ZM521.277 297.623C523.053 298.305 524.555 299.261 525.784 300.49L525.511 300.899H520.048L521.277 297.623ZM539.577 300.626C540.67 299.397 542.172 298.442 543.674 297.759L544.904 300.899H539.851L539.577 300.626ZM545.04 297.35C546.133 297.077 547.225 296.803 548.454 296.803H548.727C549.683 296.803 550.776 296.94 551.595 297.213L550.093 300.899H546.406L545.04 297.35ZM552.961 297.623C554.736 298.305 556.239 299.261 557.468 300.49L557.195 300.899H551.732L552.961 297.623ZM571.261 300.626C572.354 299.397 573.856 298.442 575.358 297.759L576.587 300.899H571.534L571.261 300.626ZM576.724 297.35C577.816 297.077 578.909 296.803 580.138 296.803H580.411C581.367 296.803 582.46 296.94 583.279 297.213L581.777 300.899H578.089L576.724 297.35ZM584.645 297.623C586.42 298.305 587.922 299.261 589.151 300.49L588.878 300.899H583.416L584.645 297.623ZM569.213 300.899H559.653C558.424 299.124 556.648 297.759 554.736 296.803H574.266C572.217 297.759 570.578 299.124 569.213 300.899ZM568.393 302.264C567.71 303.493 567.164 304.858 566.891 306.36H562.248C561.975 304.858 561.428 303.493 560.745 302.264H568.393ZM537.529 300.899H527.969C526.74 299.124 524.965 297.759 523.053 296.803H542.582C540.533 297.759 538.895 299.124 537.529 300.899ZM505.845 300.899H496.286C495.057 299.124 493.281 297.759 491.369 296.803H510.898C508.85 297.759 507.211 299.124 505.845 300.899ZM474.162 300.899H464.602C463.373 299.124 461.598 297.759 459.686 296.803H479.215C477.166 297.759 475.527 299.124 474.162 300.899ZM453.404 296.803H453.677C454.633 296.803 455.725 296.94 456.545 297.213L455.042 300.899H451.355L449.989 297.35C451.082 296.94 452.174 296.803 453.404 296.803ZM460.915 302.264L459.822 303.493C459.276 303.084 458.73 302.674 458.047 302.264H460.915ZM462.69 302.264H463.783C464.602 303.493 465.148 304.858 465.558 306.36H462.007C461.598 305.678 461.188 304.995 460.642 304.449L462.69 302.264ZM465.831 307.725C465.831 308.135 465.968 308.681 465.968 309.091V311.821H463.373V311.138C463.373 309.91 463.1 308.818 462.69 307.725H465.831ZM463.236 313.186H465.831V317.282H463.236V313.186ZM467.333 313.186H471.43V317.282H467.333V313.186ZM474.845 311.138V311.821H472.933V309.091C472.933 308.681 472.933 308.135 473.069 307.725H475.527C474.981 308.818 474.845 309.91 474.845 311.138ZM476.074 306.36H473.206C473.479 304.858 474.162 303.493 474.981 302.264H475.937L477.712 304.039C477.03 304.722 476.483 305.541 476.074 306.36ZM478.668 303.22L477.849 302.264H480.171C479.624 302.537 479.215 302.811 478.668 303.22ZM492.598 302.264L491.506 303.493C490.96 303.084 490.413 302.674 489.73 302.264H492.598ZM497.515 307.725C497.515 308.135 497.651 308.681 497.651 309.091V311.821H495.057V311.138C495.057 309.91 494.783 308.818 494.374 307.725H497.515ZM494.92 313.186H497.515V317.282H494.92V313.186ZM499.017 313.186H503.114V317.282H499.017V313.186ZM506.528 311.138V311.821H504.616V309.091C504.616 308.681 504.616 308.135 504.753 307.725H507.211C506.665 308.818 506.528 309.91 506.528 311.138ZM507.757 306.36H504.889C505.163 304.858 505.845 303.493 506.665 302.264H507.621L509.396 304.039C508.713 304.722 508.167 305.541 507.757 306.36ZM510.352 303.22L509.533 302.264H511.854C511.308 302.537 510.898 302.811 510.352 303.22ZM524.145 302.264L523.053 303.493C522.507 303.084 521.96 302.674 521.277 302.264H524.145ZM529.198 307.725C529.198 308.135 529.335 308.681 529.335 309.091V311.821H526.74V311.138C526.74 309.91 526.467 308.818 526.057 307.725H529.198ZM526.604 313.186H529.198V317.282H526.604V313.186ZM530.701 313.186H534.798V317.282H530.701V313.186ZM538.212 311.138V311.821H536.3V309.091C536.3 308.681 536.3 308.135 536.436 307.725H538.895C538.348 308.818 538.212 309.91 538.212 311.138ZM536.573 306.36C536.846 304.858 537.529 303.493 538.348 302.264H539.304L541.08 304.039C540.26 304.858 539.714 305.814 539.168 306.77V306.224H536.573V306.36ZM542.036 303.22L541.216 302.264H543.538C542.992 302.537 542.582 302.811 542.036 303.22ZM555.829 302.264L554.736 303.493C554.19 303.084 553.644 302.674 552.961 302.264H555.829ZM557.741 302.264H558.833C559.653 303.493 560.199 304.858 560.609 306.36H557.195V306.497C556.785 305.814 556.375 305.131 555.829 304.585L557.741 302.264ZM562.248 307.725H566.481C566.481 308.135 566.345 308.681 566.345 309.091V311.821H562.248V309.091C562.384 308.545 562.384 308.135 562.248 307.725ZM573.719 303.22L572.9 302.264H575.222C574.675 302.537 574.266 302.811 573.719 303.22ZM587.513 302.264L586.42 303.493C585.874 303.084 585.328 302.674 584.645 302.264H587.513ZM589.425 302.264H590.517C591.336 303.493 591.883 304.858 592.292 306.36H588.742C588.332 305.678 587.922 304.995 587.376 304.449L589.425 302.264ZM592.566 307.725C592.566 308.135 592.702 308.681 592.702 309.091V311.821H589.971V311.138C589.971 309.91 589.698 308.818 589.288 307.725H592.566ZM589.971 313.186H592.566V317.282H589.971V313.186ZM594.068 313.186H598.165V317.282H594.068V313.186ZM601.579 311.138V311.821H599.531V309.091C599.531 308.681 599.531 308.135 599.667 307.725H602.125C601.716 308.818 601.579 309.91 601.579 311.138ZM602.808 306.36H599.94C600.35 304.585 601.033 303.084 602.125 301.718L604.447 304.176C603.764 304.722 603.218 305.541 602.808 306.36ZM605.403 303.22L602.945 300.626C604.037 299.397 605.539 298.442 607.042 297.759L608.544 301.445C607.451 301.855 606.359 302.401 605.403 303.22ZM609.91 301.172L608.407 297.35C609.5 297.077 610.592 296.803 611.822 296.803H612.095C613.051 296.803 614.143 296.94 614.963 297.213L613.324 301.309C612.778 301.172 612.095 301.172 611.548 301.172C611.002 301.036 610.456 301.172 609.91 301.172ZM616.328 297.623C618.104 298.305 619.606 299.261 620.835 300.49L618.104 303.357C617.148 302.537 615.919 301.855 614.69 301.445L616.328 297.623ZM618.104 296.803H625.751V300.899H623.02C621.654 299.124 620.016 297.759 618.104 296.803ZM625.615 295.438H612.368C612.231 295.438 612.095 295.438 611.958 295.438H611.822C611.685 295.438 611.548 295.438 611.412 295.438H580.821C580.684 295.438 580.548 295.438 580.411 295.438H580.138C580.001 295.438 579.865 295.438 579.728 295.438H549.137C549.001 295.438 548.864 295.438 548.727 295.438H548.454C548.318 295.438 548.181 295.438 548.045 295.438H517.454C517.317 295.438 517.18 295.438 517.044 295.438H516.771C516.634 295.438 516.498 295.438 516.361 295.438H485.77C485.633 295.438 485.497 295.438 485.36 295.438H485.087C484.951 295.438 484.814 295.438 484.677 295.438H454.086C453.95 295.438 453.813 295.438 453.677 295.438H453.404C453.267 295.438 453.13 295.438 452.994 295.438H415.165V291.342H625.615V295.438ZM448.624 274.55H434.967V269.635H448.624V274.55ZM448.624 268.406H434.967V263.492H448.624V268.406ZM448.624 262.126H434.967V257.211H448.624V262.126ZM448.624 255.983H434.967V251.068H448.624V255.983ZM448.624 249.703H434.967V244.788H448.624V249.703ZM448.624 243.559H434.967V238.644H448.624V243.559ZM448.624 237.279H434.967V232.364H448.624V237.279ZM448.624 230.999H434.967V226.084H448.624V230.999ZM448.624 224.855H434.967V219.94H448.624V224.855ZM448.624 218.575H434.967V213.66H448.624V218.575ZM448.624 212.432H434.967V207.517H448.624V212.432ZM448.624 206.151H434.967V201.237H448.624V206.151ZM448.624 200.008H434.967V195.093H448.624V200.008ZM448.624 193.728H434.967V190.315H448.624V193.728ZM433.601 197.414H411.75V196.731C413.662 196.595 415.301 194.956 415.301 192.909C415.301 191.953 414.892 191.134 414.345 190.451H433.738V197.414H433.601ZM252.376 282.195H266.033V284.516H252.376V282.195ZM285.699 285.882V289.977H75.2486V285.882H285.699ZM73.8829 295.438H51.6224V295.575C49.5739 293.527 46.9792 292.025 43.9747 291.342H73.8829V295.438ZM36.4635 292.708L37.1463 297.896C36.1903 298.169 35.2344 298.715 34.415 299.261L31.2739 295.165C32.7762 294.073 34.5515 293.254 36.4635 292.708ZM30.1814 315.507V320.149H24.9918V315.507H30.1814ZM30.1814 321.378V326.02H24.9918V321.378H30.1814ZM31.5471 307.452C31.5471 302.674 35.5075 298.715 40.2874 298.715H40.6971C45.4769 298.715 49.4374 302.674 49.4374 307.452V346.498H31.6836V307.452H31.5471ZM49.1642 302.264H54.2172C54.7635 303.903 55.0366 305.541 55.0366 307.316V307.589H50.5299C50.6665 305.541 50.1202 303.766 49.1642 302.264ZM76.6143 323.972H79.209V328.067H76.6143V323.972ZM80.3016 328.067V311.138C80.3016 306.087 84.3986 302.128 89.315 302.128C94.368 302.128 98.3285 306.224 98.3285 311.138V328.067H80.3016ZM99.421 318.511H101.333V322.607H99.421V318.511ZM102.699 318.511H106.796V322.607H102.699V318.511ZM108.298 318.511H110.893V322.607H108.298V318.511ZM111.985 328.067V311.138C111.985 306.77 115.126 303.084 119.223 302.264H122.774C125.642 302.811 127.964 304.722 129.193 307.316V307.725H129.329C129.739 308.818 130.012 309.91 130.012 311.138V328.067H111.985ZM131.105 318.511H133.017V322.607H131.105V318.511ZM134.382 318.511H138.479V322.607H134.382V318.511ZM134.382 317.146V313.05H138.479V317.146H134.382ZM139.982 313.186H142.576V317.282H139.982V313.186ZM143.669 328.067V311.138C143.669 306.77 146.81 303.084 150.907 302.264H154.458C158.555 303.084 161.696 306.77 161.696 311.138V328.067H143.669ZM162.788 318.511H164.7V322.607H162.788V318.511ZM166.066 318.511H170.163V322.607H166.066V318.511ZM171.665 318.511H174.26V322.607H171.665V318.511ZM175.352 328.067V311.138C175.352 309.91 175.626 308.818 176.035 307.725H176.445V306.906C177.674 304.585 179.996 302.811 182.59 302.264H186.141C190.238 303.084 193.379 306.77 193.379 311.138V328.067H175.352ZM194.472 318.511H196.384V322.607H194.472V318.511ZM197.749 318.511H201.846V322.607H197.749V318.511ZM203.349 318.511H205.944V322.607H203.349V318.511ZM207.036 328.067V311.138C207.036 309.91 207.309 308.818 207.719 307.725H207.855V307.589C209.085 304.858 211.406 302.947 214.411 302.264H217.961C222.058 303.084 225.199 306.77 225.199 311.138V328.067H207.036ZM226.155 318.511H228.067V322.607H226.155V318.511ZM229.433 318.511H233.53V322.607H229.433V318.511ZM235.032 318.511H237.627V322.607H235.032V318.511ZM256.747 328.067H238.583V311.138C238.583 306.77 241.724 303.084 245.821 302.264H249.372C253.469 303.084 256.61 306.77 256.61 311.138V328.067H256.747ZM253.879 303.22C253.469 302.811 252.923 302.537 252.513 302.264H254.835L253.879 303.22ZM251.011 300.899L252.24 297.759C253.742 298.442 255.108 299.397 256.337 300.626L256.064 300.899H251.011ZM285.699 302.264V306.497L260.844 306.36C260.57 304.858 260.024 303.493 259.341 302.264H285.699ZM285.699 307.862V311.821H261.117V309.091C261.117 308.681 261.117 308.135 260.98 307.725L285.699 307.862ZM261.117 318.511H285.699V322.607H261.117V318.511ZM287.338 323.972H299.492V328.067H287.338V323.972ZM300.994 323.972H306.047V328.067H300.994V323.972ZM307.823 323.972H325.167V328.067H307.823V323.972ZM326.942 323.972H331.449V328.067H326.942V323.972ZM332.951 323.972H333.634V328.067H332.951V323.972ZM335.273 323.972H340.053V328.067H335.273V323.972ZM335.409 306.36C335.546 304.995 335.956 303.63 336.502 302.264H341.555C340.872 303.493 340.326 304.858 340.189 306.36H335.409ZM337.048 300.899C337.868 299.397 338.96 298.032 340.189 296.94L342.784 300.49C342.647 300.626 342.511 300.763 342.374 300.899H337.048ZM350.295 291.479C346.198 291.479 342.374 292.981 339.506 295.438H327.079C324.211 292.981 320.387 291.479 316.29 291.479H316.153H316.017C311.92 291.479 308.096 292.981 305.228 295.438H287.201V291.342H413.526V295.438H395.499C392.631 292.981 388.807 291.479 384.71 291.479H384.574H384.437C380.34 291.479 376.516 292.981 373.648 295.438H361.221C358.353 292.981 354.529 291.479 350.432 291.479C350.568 291.479 350.568 291.479 350.295 291.479C350.432 291.479 350.432 291.479 350.295 291.479ZM360.947 323.972H365.727V328.067H360.947V323.972ZM367.23 323.972H367.912V328.067H367.23V323.972ZM369.551 323.972H374.058V328.067H369.551V323.972ZM375.833 323.972H393.177V328.067H375.833V323.972ZM394.953 323.972H400.006V328.067H394.953V323.972ZM401.508 323.972H413.662V328.067H401.508V323.972ZM415.301 318.511H439.883V322.607H415.301V318.511ZM439.747 309.091V311.821H415.165V307.862L439.747 307.725C439.747 308.135 439.747 308.545 439.747 309.091ZM440.02 306.36L415.165 306.497V302.264H441.522C440.839 303.493 440.293 304.858 440.02 306.36ZM444.663 300.626C445.756 299.397 447.258 298.442 448.76 297.759L449.989 300.899H444.936L444.663 300.626ZM448.487 302.264C447.941 302.537 447.531 302.811 447.121 303.22L446.302 302.264H448.487ZM463.236 318.511H465.831V322.607H463.236V318.511ZM467.333 318.511H471.43V322.607H467.333V318.511ZM472.796 318.511H474.708V322.607H472.796V318.511ZM475.801 328.067V311.138C475.801 306.77 478.942 303.084 483.039 302.264H486.589C489.594 302.811 491.915 304.858 493.145 307.589V307.725H493.281C493.691 308.818 493.964 309.91 493.964 311.138V328.067H475.801ZM494.92 318.511H497.515V322.607H494.92V318.511ZM499.017 318.511H503.114V322.607H499.017V318.511ZM504.48 318.511H506.392V322.607H504.48V318.511ZM507.484 328.067V311.138C507.484 306.77 510.625 303.084 514.722 302.264H518.273C521.004 302.811 523.189 304.449 524.419 306.906V307.725H524.828C525.238 308.818 525.511 309.91 525.511 311.138V328.067H507.484ZM526.604 318.511H529.198V322.607H526.604V318.511ZM530.701 318.511H534.798V322.607H530.701V318.511ZM536.163 318.511H538.075V322.607H536.163V318.511ZM539.168 328.067V311.138C539.168 306.77 542.309 303.084 546.406 302.264H549.957C554.054 303.084 557.195 306.77 557.195 311.138V328.067H539.168ZM558.287 313.186H560.882V317.282H558.287V313.186ZM562.384 313.186H566.481V317.282H562.384V313.186ZM566.481 318.511V322.607H562.384V318.511H566.481ZM567.847 318.511H569.759V322.607H567.847V318.511ZM570.851 328.067V311.138C570.851 309.91 571.125 308.818 571.534 307.725H571.671V307.316C572.9 304.722 575.222 302.811 578.089 302.264H581.64C585.737 303.084 588.878 306.77 588.878 311.138V328.067H570.851ZM589.971 318.511H592.566V322.607H589.971V318.511ZM594.068 318.511H598.165V322.607H594.068V318.511ZM599.531 318.511H601.442V322.607H599.531V318.511ZM602.535 311.138C602.535 306.087 606.632 302.128 611.548 302.128C616.465 302.128 620.562 306.224 620.562 311.138V328.067H602.398V311.138H602.535ZM621.654 323.972H624.249V328.067H621.654V323.972ZM625.615 306.36H625.478C625.205 304.858 624.659 303.493 623.976 302.264H625.751V306.36H625.615ZM626.981 302.264H645.144C644.598 303.903 644.325 305.541 644.325 307.316V307.589H626.981V302.264ZM645.827 307.316C645.827 305.541 646.1 303.903 646.646 302.264H651.699C650.743 303.766 650.197 305.541 650.197 307.452H645.69V307.316H645.827ZM651.563 307.452C651.563 302.674 655.523 298.715 660.303 298.715H660.713C665.493 298.715 669.453 302.674 669.453 307.452V346.498H651.699V307.452H651.563ZM670.682 321.378H675.872V326.02H670.682V321.378ZM670.682 320.013V315.371H675.872V320.013H670.682ZM668.224 300.899C667.951 300.626 667.678 300.353 667.541 300.08L670.819 295.984C672.321 297.35 673.687 298.988 674.506 300.899H668.224ZM694.581 295.438H672.184C670.136 293.527 667.541 292.025 664.81 291.342H694.718V295.438H694.581ZM649.378 295.575V295.438H627.117V291.342H657.025C654.021 292.025 651.426 293.527 649.378 295.575ZM625.615 289.977H415.301V285.882H625.751V289.977H625.615ZM434.967 284.516V282.195H448.624V284.516H434.967ZM448.624 188.949H413.116V179.393H412.57V178.027H448.624V188.949ZM289.113 173.795V170.655H411.887V173.659H289.113V173.795ZM265.897 169.426V151.815H275.183V169.426H265.897ZM276.549 151.815H285.835V164.375C285.562 164.785 285.562 165.194 285.699 165.604C285.699 165.74 285.835 165.877 285.835 166.013V169.29H276.549V151.815ZM302.36 155.638V148.402H316.7L302.36 155.638ZM300.994 156.32L294.985 159.324V148.402H300.994V156.32ZM350.432 140.756L366.956 148.265L403.966 165.331C404.103 165.331 404.103 165.467 404.103 165.467C404.103 165.604 403.966 165.604 403.83 165.604H391.265C391.265 165.194 390.992 164.648 390.446 164.512L358.899 150.177L351.115 146.49C350.841 146.354 350.705 146.354 350.432 146.354C350.159 146.354 349.885 146.354 349.749 146.49L341.965 150.177L310.418 164.648C310.008 164.921 309.735 165.331 309.598 165.74H297.034C296.897 165.74 296.761 165.604 296.761 165.604C296.761 165.604 296.761 165.467 296.897 165.467L333.907 148.402L350.432 140.756ZM350.432 147.719L360.538 152.361L388.944 165.604H312.056L342.374 151.405L350.432 147.719ZM435.103 151.815V169.426H425.817V151.815H435.103ZM424.315 169.426H415.028V166.15C415.165 166.013 415.165 165.877 415.165 165.74C415.301 165.331 415.165 164.785 415.028 164.512V151.951H424.315V169.426ZM400.006 156.32V148.402H406.015V159.324L400.006 156.32ZM398.64 155.638L384.3 148.402H398.64V155.638ZM446.712 147.036H407.38V146.9H406.015V147.036H381.569L380.067 146.217L367.639 139.801H446.848V147.036H446.712ZM379.247 147.446L412.57 164.785C412.843 164.921 412.843 165.194 412.843 165.194C412.843 165.331 412.706 165.467 412.433 165.467H406.561C406.697 164.785 406.288 164.239 405.605 163.965L367.503 146.9L351.251 139.391C350.978 139.255 350.568 139.255 350.159 139.255C349.885 139.255 349.612 139.255 349.339 139.391L333.088 146.9L295.122 163.965C294.439 164.239 294.166 164.921 294.166 165.467H288.294C288.02 165.467 287.884 165.194 287.884 165.194C287.884 165.058 287.884 164.921 288.157 164.785L321.479 147.446L350.295 132.975L379.247 147.446ZM320.933 146.354L319.431 147.036H294.985V146.9H293.62V147.036H254.288V139.801H333.497L320.933 146.354ZM252.923 147.719L252.376 172.703H75.2486V145.262H252.923V147.719ZM73.8829 169.836H64.4598V150.996H73.8829V169.836ZM75.2486 174.068H252.923H253.605H287.747V175.024H287.884H289.659V176.662H75.2486V174.068ZM251.011 178.027V284.516H75.2486V279.465H75.3852V268.543H75.2486V249.157V247.655V178.027H251.011ZM73.8829 187.038H63.5038V182.533H73.8829V187.038ZM62.1381 185.127C61.4553 184.308 60.3628 183.761 59.2702 183.761H50.3933C48.2083 183.761 46.5695 185.536 46.5695 187.584C46.5695 189.495 47.9351 190.997 49.7105 191.407V194.956H30.1814V191.407C32.0933 191.134 33.459 189.495 33.459 187.584C33.459 185.4 31.6836 183.761 29.6351 183.761H20.7582C19.8023 183.761 18.9829 184.171 18.3 184.717V182.396H62.1381V185.127ZM6.2821 188.403H16.7978V188.813H6.2821V188.403ZM6.2821 190.315H16.7978V194.274H6.2821V190.315ZM6.2821 195.776H16.7978V199.735H6.2821V195.776ZM6.2821 201.1H16.7978V204.786H6.2821V201.1ZM6.2821 206.151H16.7978V210.247H6.2821V206.151ZM6.2821 218.439H16.7978V223.217H6.2821V218.439ZM16.7978 224.582V229.224H6.2821V224.582H16.7978ZM16.7978 230.726V235.368H6.2821V230.726H16.7978ZM16.7978 236.869V241.511H6.2821V236.869H16.7978ZM16.7978 243.013V247.655H6.2821V243.013H16.7978ZM16.7978 249.157V253.798H6.2821V249.157H16.7978ZM16.7978 255.3V259.942H6.2821V255.3H16.7978ZM6.2821 261.307H16.7978V265.949H6.2821V261.307ZM6.2821 291.342H36.1903C33.3224 292.025 30.8642 293.527 28.8157 295.438H6.2821V291.342ZM6.2821 296.803H27.45C26.4941 298.032 25.5381 299.397 24.9918 300.899H6.2821V296.803ZM6.2821 302.264H24.4455C23.8993 303.903 23.6261 305.541 23.6261 307.316V307.589H6.2821V302.264ZM6.2821 315.507H23.6261V320.149H6.2821V315.507ZM6.2821 321.378H23.6261V326.02H6.2821V321.378ZM6.2821 327.385H23.6261V332.027H6.2821V327.385ZM25.1284 327.385H30.3179V332.027H25.1284V327.385ZM30.1814 333.392V346.498H24.9918V333.392H30.1814ZM50.6665 346.498V333.392H55.1732V346.498H50.6665ZM50.6665 332.027V327.385H55.1732V332.027H50.6665ZM50.6665 326.02V321.378H55.1732V326.02H50.6665ZM50.6665 320.013V315.371H55.1732V320.013H50.6665ZM50.6665 314.142V308.954H55.1732V314.142H50.6665ZM56.5389 308.954H73.8829V314.142H56.5389V308.954ZM76.6143 333.528V329.433H101.333V333.528H76.6143ZM99.421 328.067V323.972H101.333V328.067H99.421ZM102.699 323.972H106.796V328.067H102.699V323.972ZM108.298 323.972H110.893V328.067H108.298V323.972ZM131.105 328.067V323.972H133.017V328.067H131.105ZM134.382 323.972H138.479V328.067H134.382V323.972ZM139.982 323.972H142.44V322.607H139.982V318.511H142.576V328.067H139.982V323.972ZM162.788 328.067V323.972H164.7V328.067H162.788ZM166.066 323.972H170.163V328.067H166.066V323.972ZM171.665 323.972H174.26V328.067H171.665V323.972ZM194.472 328.067V323.972H196.384V328.067H194.472ZM197.749 323.972H201.846V328.067H197.749V323.972ZM203.349 323.972H205.944V328.067H203.349V323.972ZM226.155 328.067V323.972H228.067V328.067H226.155ZM229.433 323.972H233.53V328.067H229.433V323.972ZM235.032 323.972H237.627V328.067H235.032V323.972ZM257.839 328.067V311.138C257.839 308.408 256.747 305.951 254.971 304.039L256.747 302.264H257.703C259.068 304.176 259.751 306.497 259.751 309.091V328.067H257.839ZM261.117 323.972H285.699V328.067H261.117V323.972ZM287.338 329.433H299.492V333.528H287.338V329.433ZM300.994 329.433H306.047V333.528H300.994V329.433ZM307.823 329.433H325.167V333.528H307.823V329.433ZM326.942 329.433H331.449V333.528H326.942V329.433ZM332.951 329.433H333.634V333.528H332.951V329.433ZM335.273 329.433H340.053V333.528H335.273V329.433ZM350.022 297.35C349.476 297.35 349.066 297.35 348.52 297.486L347.564 293.117C348.52 292.981 349.476 292.844 350.432 292.844C351.388 292.844 352.344 292.981 353.3 293.117L352.344 297.486C351.797 297.35 351.388 297.35 350.841 297.35H350.432H350.022ZM360.947 329.433H365.727V333.528H360.947V329.433ZM367.23 329.433H367.912V333.528H367.23V329.433ZM369.551 329.433H374.058V333.528H369.551V329.433ZM375.833 329.433H393.177V333.528H375.833V329.433ZM394.953 329.433H400.006V333.528H394.953V329.433ZM401.508 329.433H413.662V333.528H401.508V329.433ZM415.301 323.972H439.883V328.067H415.301V323.972ZM441.249 309.091C441.249 306.633 442.068 304.176 443.298 302.264H444.253L446.029 304.039C444.254 305.814 443.161 308.408 443.161 311.138V328.067H441.249V309.091ZM463.236 328.067V323.972H465.831V328.067H463.236ZM467.333 323.972H471.43V328.067H467.333V323.972ZM472.796 323.972H474.708V328.067H472.796V323.972ZM494.92 328.067V323.972H497.515V328.067H494.92ZM499.017 323.972H503.114V328.067H499.017V323.972ZM504.48 323.972H506.392V328.067H504.48V323.972ZM526.604 328.067V323.972H529.198V328.067H526.604ZM530.701 323.972H534.798V328.067H530.701V323.972ZM536.163 323.972H538.075V328.067H536.163V323.972ZM558.287 328.067V318.511H560.882V322.607H558.424V323.972H560.882V328.067H558.287ZM562.384 323.972H566.481V328.067H562.384V323.972ZM567.847 323.972H569.759V328.067H567.847V323.972ZM589.971 328.067V323.972H592.566V328.067H589.971ZM594.068 323.972H598.165V328.067H594.068V323.972ZM599.531 323.972H601.442V328.067H599.531V323.972ZM626.981 308.954H644.325V314.142H626.981V308.954ZM645.827 308.954H650.334V314.142H645.827V308.954ZM650.197 315.507V320.149H645.69V315.507H650.197ZM650.197 321.378V326.02H645.69V321.378H650.197ZM650.197 327.385V332.027H645.69V327.385H650.197ZM650.197 333.392V346.498H645.69V333.392H650.197ZM670.682 346.498V333.392H675.872V346.498H670.682ZM670.682 332.027V327.385H675.872V332.027H670.682ZM677.237 327.385H694.581V332.027H677.237V327.385ZM677.237 326.02V321.378H694.581V326.02H677.237ZM677.237 320.013V315.371H694.581V320.013H677.237ZM677.237 307.589V307.316C677.237 305.541 676.964 303.903 676.418 302.264H694.581V307.589H677.237ZM694.581 289.977H626.981V285.882H694.581V289.977ZM638.862 284.516V279.465H652.792V268.543H651.29V267.041H670.682V268.543H668.497V279.465H682.7V284.516H638.862ZM694.581 259.942H684.066V255.3H694.581V259.942ZM694.581 253.798H684.066V249.157H694.581V253.798ZM694.581 247.655H684.066V243.013H694.581V247.655ZM694.581 241.648H684.066V237.006H694.581V241.648ZM694.581 235.504H684.066V230.726H694.581V235.504ZM694.581 229.361H684.066V224.719H694.581V229.361ZM694.581 217.073H684.066V211.749H694.581V217.073ZM694.581 210.247H684.066V206.151H694.581V210.247ZM694.581 204.786H684.066V201.1H694.581V204.786ZM684.066 199.735V195.776H694.581V199.735H684.066ZM694.581 187.038H684.066V182.533H694.581V187.038ZM682.7 184.854C682.017 184.308 681.198 183.898 680.242 183.898H671.365C669.18 183.898 667.541 185.673 667.541 187.721C667.541 189.632 668.907 191.27 670.819 191.543V195.093H651.426V191.543C653.201 191.27 654.567 189.632 654.567 187.721C654.567 185.536 652.792 183.898 650.743 183.898H641.866C640.774 183.898 639.681 184.444 638.998 185.263V182.669H682.837V184.854H682.7ZM637.496 187.038H627.117V182.533H637.496V187.038ZM625.615 247.655V249.157V268.543H625.478V279.465H625.615V284.516H449.989V178.027H625.615V247.655ZM411.341 176.662V175.024H413.116H413.253V174.068H447.395H448.077H625.751V176.662H411.341ZM626.981 150.996H636.404V169.836H626.981V150.996ZM695.947 144.579V147.173H636.95V147.856H636.54V149.63H627.117V141.166H692.943V144.579H695.947ZM636.54 133.657V135.978H685.022V133.657H692.806V139.801H626.981V133.657H636.54ZM625.615 135.568V143.896H448.077V135.568H625.615ZM425.407 129.971H391.129V116.865H425.407V129.971ZM391.265 115.363V115.09H425.544V115.363H391.265ZM426.773 115.363V115.09H431.689V115.363H426.773ZM427.592 103.076V108.673H390.719V107.854H391.265V102.12H390.719V100.618H424.861V102.939H427.592V103.076ZM307.276 90.5155H302.087V85.4641C302.087 84.0989 303.316 82.8701 304.682 82.8701C305.911 82.8701 307.003 83.8258 307.276 85.0545V90.5155ZM323.391 93.246H316.7V80.9588C316.7 79.0475 318.202 77.5457 320.114 77.5457C322.026 77.5457 323.528 79.0475 323.528 80.9588V93.246H323.391ZM396.182 82.8701C397.547 82.8701 398.777 84.0989 398.777 85.4641V90.5155H393.587V85.0545C393.86 83.8258 394.953 82.8701 396.182 82.8701ZM392.358 90.5155H386.349V83.1432C386.349 81.5049 387.715 80.1397 389.353 80.1397C390.992 80.1397 392.358 81.5049 392.358 83.1432V90.5155ZM316.563 99.3896H323.255V102.12H316.563V99.3896ZM324.757 99.3896H335V102.12H324.757V99.3896ZM343.057 98.0243H336.638V94.7477H343.057V98.0243ZM336.502 99.3896H342.921V102.12H336.502V99.3896ZM344.696 99.3896H345.652V102.12H344.696V99.3896ZM353.709 98.0243H347.291V94.7477H353.709V98.0243ZM347.291 99.3896H353.709V102.12H347.291V99.3896ZM355.348 99.3896H356.304V102.12H355.348V99.3896ZM364.362 98.0243H357.943V94.7477H364.362V98.0243ZM357.943 99.3896H364.362V102.12H357.943V99.3896ZM366 99.3896H376.243V102.12H366V99.3896ZM377.609 99.3896H384.3V102.12H377.609V99.3896ZM384.3 93.246H377.609V80.9588C377.609 79.0475 379.111 77.5457 381.023 77.5457C382.935 77.5457 384.437 79.0475 384.437 80.9588V93.246H384.3ZM384.3 94.6112V97.8878H377.609V94.6112H384.3ZM376.243 98.0243H366V94.7477H376.243V98.0243ZM364.362 80.9588V93.246H357.943V80.9588C357.943 79.184 359.445 77.6822 361.221 77.5457C362.996 77.6822 364.362 79.184 364.362 80.9588ZM356.304 98.0243H355.348V94.7477H356.304V98.0243ZM353.709 80.9588V93.246H347.291V80.9588C347.291 79.184 348.656 77.6822 350.432 77.5457C352.207 77.6822 353.709 79.184 353.709 80.9588ZM345.515 98.0243H344.559V94.7477H345.515V98.0243ZM343.057 80.9588V93.246H336.638V80.9588C336.638 79.184 338.141 77.6822 339.916 77.5457C341.555 77.6822 343.057 79.184 343.057 80.9588ZM334.863 98.0243H324.621V94.7477H334.863V98.0243ZM323.391 98.0243H316.7V94.7477H323.391V98.0243ZM314.651 90.5155H308.642V83.1432C308.642 81.5049 310.008 80.1397 311.647 80.1397C313.285 80.1397 314.651 81.5049 314.651 83.1432V90.5155ZM315.197 103.485H324.621H334.863H335.136H344.286H344.559H345.515H345.925H355.075H355.485H356.441H356.714H365.864H366.137H376.38H385.803H388.397V106.489H312.739V103.485H315.197ZM311.647 107.854H389.353V108.537H311.647V107.854ZM423.905 99.253H389.217V102.12H386.212V99.3896H386.486V98.0243H386.212V94.7477H386.486V93.3825H386.212V92.0173H423.905V99.253ZM296.761 63.3472H404.103V66.0777H296.761V63.3472ZM401.235 58.8419H383.754C383.208 30.3084 367.912 13.3794 362.04 8.05492C382.662 12.8333 397.957 29.8988 397.957 50.2409V50.9235H401.098V58.8419H401.235ZM341.965 7.3723H342.101C338.55 12.9698 326.123 34.6771 327.352 58.8419H318.748C319.431 25.8031 340.053 8.87407 341.965 7.3723ZM329.127 58.8419C327.762 32.9023 342.511 9.82974 344.423 7.09925C346.471 6.82621 348.383 6.68968 350.568 6.68968C352.617 6.68968 354.665 6.82621 356.714 7.09925C358.489 9.82974 373.375 32.9023 372.009 58.8419H329.127ZM358.762 7.3723H358.899C360.811 8.87407 381.432 25.8031 382.115 58.8419H373.512C374.741 34.6771 362.313 12.9698 358.762 7.3723ZM359.991 1.50177V6.14359C356.987 5.59749 353.709 5.32444 350.568 5.32444C347.291 5.32444 344.15 5.59749 341.145 6.14359V1.50177H359.991ZM299.629 50.9235H302.77V50.2409C302.77 29.8988 318.065 12.8333 338.687 8.05492C332.815 13.3794 317.519 30.3084 316.973 58.8419H299.492V50.9235H299.629ZM404.103 60.2071V61.982H296.761V60.2071H404.103ZM296.761 67.4429H404.103V70.1734H296.761V67.4429ZM401.371 71.5386V77.5457C398.23 75.7709 387.578 72.9039 352.344 72.9039H348.52C313.285 72.9039 302.77 75.7709 299.492 77.5457V71.5386H401.371ZM299.629 79.184C300.312 78.5014 305.911 74.2691 348.656 74.2691H352.48C396.045 74.2691 401.098 78.7744 401.508 79.184V90.5155H400.142V85.4641C400.142 83.4162 398.503 81.778 396.455 81.778C395.499 81.778 394.543 82.1875 393.86 82.8701C393.724 80.6858 391.812 78.9109 389.627 78.9109C388.124 78.9109 386.759 79.7301 385.939 80.9588C385.939 78.3648 383.754 76.1805 381.159 76.1805C378.565 76.1805 376.38 78.3648 376.38 80.9588V93.246H366V80.9588C366 78.3648 363.815 76.1805 361.221 76.1805H361.084H360.947C358.353 76.1805 356.168 78.3648 356.168 80.9588V93.246H355.212V80.9588C355.212 78.3648 353.027 76.1805 350.432 76.1805H350.295H350.159C347.564 76.1805 345.379 78.3648 345.379 80.9588V93.246H344.423V80.9588C344.423 78.3648 342.238 76.1805 339.643 76.1805H339.506H339.37C336.775 76.1805 334.59 78.3648 334.59 80.9588V93.246H324.347V80.9588C324.347 78.3648 322.162 76.1805 319.568 76.1805C316.973 76.1805 314.788 78.3648 314.788 80.9588C314.105 79.7301 312.739 78.9109 311.1 78.9109C308.915 78.9109 307.003 80.6858 306.867 82.8701C306.184 82.1875 305.228 81.778 304.272 81.778C302.223 81.778 300.585 83.4162 300.585 85.4641V90.5155H299.219V79.184H299.629ZM276.959 91.8807H314.651V93.246H314.378V94.6112H314.651V97.8878H314.378V99.253H314.651V101.984H311.647V99.1165H276.959V91.8807ZM273.271 103.076H276.139V100.755H310.281V102.257H309.735V107.854H310.281V108.537H273.408V103.076H273.271ZM431.28 109.902V113.725H389.9V115.363H389.627V129.834H311.373V115.363H311.1V113.725H269.72V109.902H431.28ZM309.735 115.226V115.499H275.456V115.226H309.735ZM269.311 115.363V115.09H274.227V115.363H269.311ZM275.456 116.728H309.735V129.834H275.456V116.728ZM275.047 133.248V131.746V131.2H425.817V131.746V133.111V133.248H446.712V138.435H365.864V138.982L351.661 131.609C351.251 131.473 350.841 131.336 350.432 131.473C350.022 131.336 349.612 131.473 349.203 131.609L335 138.982V138.435H254.152V133.248H275.047ZM252.923 135.568V143.896H75.2486V135.568H252.923ZM8.19404 133.657H15.9784V135.978H64.4598V133.657H73.8829V139.801H8.19404V133.657ZM5.05299 144.579H8.19404V141.166H74.0195V149.63H64.5963V147.856H64.1866V147.173H5.05299V144.579ZM62.6844 148.538V150.996H63.0941V169.836V172.703H18.0269V148.538H62.6844ZM1.36567 174.068H6.2821V171.201H15.9784V174.068H64.4598V173.386V171.201H73.8829V176.662H1.36567V174.068ZM73.8829 178.027V181.168H6.2821V178.027H73.8829ZM6.2821 267.451H16.7978V268.543H6.2821V267.451ZM16.7978 279.465V284.516H6.2821V279.465H16.7978ZM6.2821 346.498V333.392H23.6261V346.498H6.2821ZM56.5389 346.498V333.392H73.7464V332.027H56.5389V327.385H73.7464V326.02H56.5389V321.378H73.7464V320.013H56.5389V315.371H73.8829V346.362H56.5389V346.498ZM102.699 333.528V329.433H106.796V333.528H102.699ZM134.382 333.528V329.433H138.479V333.528H134.382ZM166.066 333.528V329.433H170.163V333.528H166.066ZM197.749 333.528V329.433H201.846V333.528H197.749ZM229.433 333.528V329.433H233.53V333.528H229.433ZM261.117 333.528V329.433H285.699V333.528H261.117ZM287.338 346.498V334.894H299.492V346.498H287.338ZM300.994 346.498V334.894H306.047V346.498H300.994ZM307.823 346.498V334.894H325.167V346.498H307.823ZM326.942 346.498V334.894H331.449V346.498H326.942ZM332.951 346.498V334.894H333.634V346.498H332.951ZM335.273 346.498V334.894H340.053V346.498H335.273ZM341.828 346.498V307.316C341.828 302.537 345.788 298.578 350.568 298.578C355.348 298.578 359.309 302.537 359.309 307.316V346.498H341.828ZM360.947 346.498V334.894H365.727V346.498H360.947ZM367.23 346.498V334.894H367.912V346.498H367.23ZM369.551 346.498V334.894H374.058V346.498H369.551ZM375.833 346.498V334.894H393.177V346.498H375.833ZM394.953 346.498V334.894H400.006V346.498H394.953ZM401.508 346.498V334.894H413.662V346.498H401.508ZM415.301 333.528V329.433H439.883V333.528H415.301ZM467.333 333.528V329.433H471.43V333.528H467.333ZM499.017 333.528V329.433H503.114V333.528H499.017ZM530.701 333.528V329.433H534.798V333.528H530.701ZM562.384 333.528V329.433H566.481V333.528H562.384ZM594.068 333.528V329.433H598.165V333.528H594.068ZM626.981 346.498V315.507H644.325V320.149H627.117V321.514H644.325V326.156H627.117V327.521H644.325V332.163H627.117V333.528H644.325V346.635H626.981V346.498ZM677.237 346.498V333.392H694.581V346.498H677.237ZM694.581 284.516H684.066V279.465H694.581V284.516ZM684.066 268.543V267.451H694.581V268.543H684.066ZM694.581 181.168H626.981V178.027H694.581V181.168ZM699.634 176.662H627.117V171.201H636.54V173.386V174.068H685.022V171.201H694.718V174.068H699.634V176.662Z" fill="#273954" fill-opacity="0.6"/>
</svg>
