<svg width="37" height="19" viewBox="0 0 37 19" fill="none" xmlns="http://www.w3.org/2000/svg">
<path d="M34.5979 7.88661L36.8747 4.4746C36.9483 4.36469 36.9912 4.23618 36.9988 4.10301C37.0064 3.96983 36.9784 3.83706 36.9178 3.71908C36.8572 3.60109 36.7663 3.50239 36.6551 3.43366C36.5438 3.36492 36.4164 3.32878 36.2866 3.32914H29.3565C26.4678 1.30144 21.6628 0 16.1274 0C7.08655 0 0 3.46075 0 7.88661C0 11.3961 4.47297 14.3012 10.8385 15.3443V17.294C10.8385 17.7465 11.0134 18.1804 11.3248 18.5003C11.6361 18.8203 12.0584 19 12.4987 19H19.922C20.3623 19 20.7846 18.8203 21.096 18.5003C21.4073 18.1804 21.5822 17.7465 21.5822 17.294V15.3443C24.7792 14.7984 27.4877 13.7845 29.3803 12.4587H36.2866C36.4164 12.4591 36.5438 12.4229 36.6551 12.3542C36.7663 12.2855 36.8572 12.1867 36.9178 12.0688C36.9784 11.9508 37.0064 11.818 36.9988 11.6848C36.9912 11.5517 36.9483 11.4232 36.8747 11.3132L34.5979 7.88661ZM34.9347 4.79631L33.3599 7.15546H32.1741V7.12135C32.1408 6.94474 32.0964 6.77053 32.0413 6.5998L31.9891 6.45357C31.9385 6.31708 31.8816 6.1806 31.8183 6.04412L31.7567 5.90764C31.6757 5.75043 31.587 5.59751 31.491 5.44946L31.3535 5.24962C31.2776 5.14238 31.2017 5.04002 31.1163 4.93766C31.0309 4.8353 31.0499 4.84017 31.0072 4.79631H34.9347ZM1.423 7.88661C1.423 4.40636 8.1538 1.46229 16.1274 1.46229C21.345 1.46229 26.0599 2.7296 28.6688 4.58671C28.6909 4.61116 28.7146 4.63396 28.7399 4.65495C29.5652 5.25936 30.5329 6.19035 30.7701 7.34556V7.40405C30.8356 7.72552 30.8356 8.05744 30.7701 8.37891V8.4374C30.5281 9.58774 29.5652 10.5187 28.7399 11.128C28.7163 11.1492 28.6941 11.172 28.6735 11.1963C26.8283 12.5074 23.9302 13.5262 20.5624 14.0087L19.7228 14.116L19.4714 14.1403L18.5939 14.2183H18.4658C18.1022 14.2443 17.7385 14.2638 17.3749 14.2768H17.3322C16.5875 14.3061 15.8428 14.3061 15.0981 14.2768H14.9842C14.6269 14.2768 14.2711 14.2589 13.917 14.2232H13.8079L12.9968 14.155L12.5699 14.1111L12.0528 14.0477C5.99084 13.2483 1.423 10.7527 1.423 7.88661ZM20.1402 17.294C20.1402 17.3586 20.1152 17.4206 20.0708 17.4663C20.0263 17.512 19.966 17.5377 19.9031 17.5377H12.4987C12.4358 17.5377 12.3755 17.512 12.331 17.4663C12.2865 17.4206 12.2615 17.3586 12.2615 17.294V15.549C12.5778 15.5847 12.894 15.6172 13.2102 15.6465L14.1589 15.7147H14.23C14.8514 15.7488 15.4823 15.7683 16.1274 15.7683C16.4831 15.7683 16.8341 15.7683 17.1804 15.7683H17.2326C18.2334 15.7342 19.2058 15.666 20.145 15.549L20.1402 17.294ZM31.0025 10.9574C31.0452 10.9087 31.0736 10.8599 31.1163 10.8112C31.159 10.7624 31.2728 10.6065 31.3487 10.5041L31.4863 10.2994C31.5823 10.1513 31.6709 9.99842 31.7519 9.8412L31.8136 9.70472C31.8768 9.57149 31.9338 9.43501 31.9844 9.29528L32.0365 9.14905C32.0917 8.97832 32.136 8.80411 32.1693 8.6275V8.59338H33.3552L34.9347 10.9574H31.0025Z" fill="#273954" fill-opacity="0.5"/>
</svg>
