<svg xmlns="http://www.w3.org/2000/svg" viewBox="0 0 814.06 382.25"><defs><style>.cls-1{fill:#fff;}.cls-2{fill:#eaedef;}.cls-3{fill:none;stroke:#eaedef;stroke-miterlimit:10;}.cls-4{fill:#606161;}</style></defs><title>Asset 9</title><g id="Layer_2" data-name="Layer 2"><g id="Layer_5" data-name="Layer 5"><polygon class="cls-1" points="586.94 152.47 515.76 152.47 494.89 178.33 607.51 178.33 586.94 152.47"/><rect class="cls-1" x="501.62" y="179.79" width="100.36" height="55.33"/><polygon class="cls-1" points="571.29 151.8 578.6 151.8 578.6 148.16 582.9 148.16 582.9 143.58 567.45 143.58 567.45 148.16 571.29 148.16 571.29 151.8"/><polyline class="cls-1" points="0 191.24 57.18 191.24 36.61 165.38 0.07 165.38"/><polyline class="cls-1" points="0 376.95 51.65 376.95 51.65 192.7 0 192.7"/><polygon class="cls-1" points="20.96 164.72 28.27 164.72 28.27 161.07 32.57 161.07 32.57 156.49 17.11 156.49 17.11 161.07 20.96 161.07 20.96 164.72"/><polygon class="cls-1" points="680.03 185.59 680.03 189.94 683.25 189.94 683.25 232.03 680.21 232.03 680.21 236.75 683.25 236.75 683.25 279.68 680.03 279.68 680.03 284.67 683.25 284.67 683.25 326.43 680.46 326.43 680.46 331.8 679.87 331.8 679.87 336.6 690.83 336.6 690.83 335.4 724.51 335.4 724.51 332.09 743.29 332.09 743.29 326.93 751.9 326.93 751.9 189.94 755.22 189.94 755.22 185.59 680.03 185.59"/><path class="cls-1" d="M714.37,57.73l0,44.77,20.28,20L735.42,330s1.45,3.51,16.21,6.34c16.63,3.19,48.9,4,62.21,3.55L813.9,32a191.26,191.26,0,0,0-38.51,4C750.29,41.5,715.7,51.32,714.37,57.73Z"/><polygon class="cls-1" points="679.86 353.64 679.86 348.28 677.08 348.28 677.08 306.52 680.29 306.52 680.29 301.52 677.08 301.52 677.08 258.6 680.12 258.6 680.12 253.88 677.08 253.88 677.08 211.79 680.29 211.79 680.29 207.43 605.11 207.43 605.11 211.79 608.42 211.79 608.42 348.78 657.07 348.78 657.07 354.25 669.49 354.25 669.49 358.45 680.46 358.45 680.46 353.64 679.86 353.64"/><polygon class="cls-1" points="260.83 160.1 260.83 169.44 262.84 169.44 266.37 173.84 266.37 179.67 267.75 179.67 268.69 340.88 379.29 340.75 378.72 179.67 381.21 179.67 381.21 172.95 384.03 169.44 385.39 169.44 385.39 160.1 260.83 160.1"/><polygon class="cls-1" points="263.79 182.86 187.6 182.86 187.6 187.2 191.92 187.2 191.92 269.72 260.57 269.72 260.57 187.2 263.79 187.2 263.79 182.86"/><polygon class="cls-1" points="497.51 200.62 421.33 200.62 421.33 204.95 425.64 204.95 425.64 287.48 494.3 287.48 494.3 204.95 497.51 204.95 497.51 200.62"/><polygon class="cls-1" points="55.31 200.08 55.31 209.44 57.43 209.44 61.19 213.86 61.19 219.7 63.72 219.7 63.65 381.29 181.19 381.17 180.58 219.7 183.23 219.7 183.23 212.96 186.23 209.44 187.67 209.44 187.67 200.08 55.31 200.08"/><path class="cls-2" d="M55.31,209.44h2.12l3.76,4.42v5.84h1.08L63.65,380v1.27h0v0H65.1v0h7.48v0h82.63v-1.45H98.11V347.46l2.29-3.4h.72v-3.89H69.56v3.89h.73l2.29,3.4v32.43H65.09L63.72,219.7H180.58v6.51H182V219.7h1.2V213l3-3.52h1.44v-9.36H55.31Zm36,138.34V380H86V347.78ZM84.68,380H79.39V347.78h5.29Zm-6.61,0H73.91V347.78h4.16Zm14.55,0V347.78h4.16v18.63a1.77,1.77,0,1,0,0,.88V380Zm2.78-13.17a.33.33,0,1,1-.33-.33A.33.33,0,0,1,95.4,366.85ZM71,341.61H99.68v1H71Zm27.64,2.45L97,346.49H73.67L72,344.06ZM179.88,208v-6.47h2.63V208Zm-1.44,0h-2.52v-6.47h2.52Zm-4,0H172v-6.47h2.52Zm-4,0H168v-6.47h2.52Zm-4,0H164v-6.47h2.51Zm-4,0h-2.52v-6.47h2.52Zm-4,0H156.1v-6.47h2.52Zm-4,0h-2.52v-6.47h2.52Zm-4,0h-2.52v-6.47h2.52Zm-4.36,0h-2.12v-6.47h2.12Zm-4,0h-2.12v-6.47h2.12Zm-4,0h-2.12v-6.47h2.12Zm-4,0h-2.51v-6.47h2.51Zm-4,0h-2.12v-6.47h2.12Zm-4,0h-2.12v-6.47h2.12Zm-4,0h-2.12v-6.47h2.12Zm-4,0h-2.12v-6.47h2.12Zm-4,0h-2.12v-6.47h2.12Zm-4,0h-2.52v-6.47h2.52Zm-4,0h-2.52v-6.47h2.52Zm-4,0H100.2v-6.47h2.52Zm-4,0H96.24v-6.47h2.52Zm-4,0H92.28v-6.47h2.51Zm-4,0H88.31v-6.47h2.52Zm-4,0H84.35v-6.47h2.52Zm-4,0H80.38v-6.47H82.9Zm-4,0H76.42v-6.47h2.52Zm-4,0H72.46v-6.47H75Zm-4,0H68.49v-6.47H71Zm-4,0H64.53v-6.47h2.52Zm-4,0H60.57v-6.47h2.51Zm-.44,10.25v-3.94H181.78v3.94Zm118.77-5.38H62.25l-2.92-3.43h125Zm4.81-4.87H184v-6.47h2.27ZM56.75,201.53h2.37V208H56.75Z"/><path class="cls-2" d="M93.32,238v-4.58H71V238h1.53v20.81H71v7.7H93.3v-7.7H91.79V238Zm-20.86-3.14H91.87v1.7H72.46Zm9,3.14v4.05H74V238Zm8.94,12.42H82.89V243.5h7.49Zm-8.94,0H74V243.5h7.49ZM74,251.88h7.49v6.94H74Zm17.94,8.35v4.87H72.44v-4.87H91.89Zm-9-1.41v-6.94h7.49v6.94Zm7.49-16.76H82.89V238h7.49Z"/><path class="cls-2" d="M133.37,238v-4.58H111.06V238h1.52v20.81h-1.51v7.7h22.28v-7.7h-1.51V238Zm-20.87-3.14h19.42v1.7H112.5Zm9,3.14v4.05H114V238Zm8.94,12.42h-7.5V243.5h7.5Zm-8.94,0H114V243.5h7.5Zm-7.5,1.45h7.5v6.94H114Zm18,8.35v4.87H112.48v-4.87h19.46Zm-9-1.41v-6.94h7.5v6.94Zm7.5-16.76h-7.5V238h7.5Z"/><path class="cls-2" d="M93.32,293.23v-4.59H71v4.59h1.53V314H71v7.69H93.3V314H91.79V293.23Zm-20.86-3.14H91.87v1.69H72.46Zm9,3.14v4H74v-4Zm8.94,12.42H82.89v-6.93h7.49Zm-8.94,0H74v-6.93h7.49ZM74,307.09h7.49v7H74Zm17.94,8.36v4.87H72.44v-4.87H91.89Zm-9-1.41v-7h7.49v7Zm7.49-16.77H82.89v-4h7.49Z"/><path class="cls-2" d="M133.37,293.23v-4.59H111.06v4.59h1.52V314h-1.51v7.69h22.28V314h-1.51V293.23Zm-20.87-3.14h19.42v1.69H112.5Zm9,3.14v4H114v-4Zm8.94,12.42h-7.5v-6.93h7.5Zm-8.94,0H114v-6.93h7.5Zm-7.5,1.44h7.5v7H114Zm18,8.36v4.87H112.48v-4.87h19.46Zm-9-1.41v-7h7.5v7Zm7.5-16.77h-7.5v-4h7.5Z"/><path class="cls-2" d="M133.37,348.45v-4.59H111.06v4.59h1.52v20.8h-1.51V377h22.28v-7.7h-1.51v-20.8ZM112.5,345.3h19.42V347H112.5Zm9,3.15v4H114v-4Zm8.94,12.41h-7.5v-6.92h7.5Zm-8.94,0H114v-6.92h7.5Zm-7.5,1.45h7.5v6.94H114Zm18,8.36v4.87H112.48v-4.87h19.46Zm-9-1.42v-6.94h7.5v6.94Zm7.5-16.76h-7.5v-4h7.5Z"/><polygon class="cls-2" points="154.04 353.94 155.38 353.94 155.38 352.49 154.04 352.49 154.04 348.44 155.21 348.44 155.21 348.43 155.21 347.02 155.21 347 152.55 347 152.55 345.3 155.21 345.3 155.21 343.86 151.1 343.86 151.1 348.44 152.63 348.44 152.63 369.25 151.12 369.25 151.12 376.95 155.21 376.95 155.21 375.54 152.53 375.54 152.53 370.67 155.21 370.67 155.21 369.25 154.04 369.25 154.04 362.31 155.53 362.31 155.53 360.86 154.04 360.86 154.04 353.94"/><rect class="cls-2" x="65.33" y="224.84" width="10.37" height="2.89"/><rect class="cls-2" x="104.97" y="221.95" width="10.37" height="2.89"/><rect class="cls-2" x="94.83" y="245.3" width="10.37" height="2.89"/><rect class="cls-2" x="70.29" y="270.93" width="10.37" height="2.89"/><rect class="cls-2" x="99.79" y="278.37" width="10.37" height="2.89"/><rect class="cls-2" x="135.16" y="228.08" width="10.37" height="2.89"/><rect class="cls-2" x="143.09" y="272.96" width="10.37" height="2.89"/><rect class="cls-2" x="135.16" y="299.76" width="10.37" height="2.89"/><rect class="cls-2" x="143.09" y="325.9" width="10.37" height="2.89"/><rect class="cls-2" x="135.16" y="354.01" width="10.37" height="2.89"/><rect class="cls-2" x="139.06" y="371.66" width="10.37" height="2.89"/><rect class="cls-2" x="94.3" y="298.42" width="10.37" height="2.89"/><rect class="cls-2" x="100.01" y="329.01" width="10.37" height="2.89"/><rect class="cls-2" x="68.06" y="324.46" width="10.37" height="2.89"/><path class="cls-2" d="M372.36,161.55V160.1H260.57v9.36h1.69l3.82,4.49v5.71h1l.4,46.17h1.44l-.39-46.16h100V173H267.13l-3-3.49H369.62V168h-1.23v-6.47Zm-105,12.72h99.82v4.06H267.4Zm2-12.72h2.51V168h-2.51ZM267.91,168h-2.52v-6.47h2.52Zm5.41-6.47h2.52V168h-2.52Zm4,0h2.52V168h-2.52Zm4,0h2.52V168h-2.52Zm4,0h2.52V168h-2.52Zm4,0h2.51V168h-2.51Zm4,0h2.52V168h-2.52Zm4,0h2.52V168H297.1Zm4,0h2.52V168h-2.52Zm4,0h2.52V168H305Zm4,0h2.51V168H309Zm4,0h2.52V168H313Zm4,0h2.52V168h-2.52Zm4,0h2.52V168h-2.52Zm4,0h2.52V168h-2.52Zm4,0h2.51V168h-2.51Zm4,0h2.52V168h-2.52Zm4,0h2.52V168h-2.52Zm4,0h2.52V168h-2.52Zm4,0h2.52V168h-2.52Zm4,0h2.51V168h-2.51Zm4,0h2.52V168H352.6Zm4,0h2.52V168h-2.52Zm4,0h2.52V168h-2.52Zm-98.51,0H264V168H262ZM367,168h-2.46v-6.47H367Z"/><path class="cls-2" d="M275.84,198h1.52v20.81h-1.5v7.69h22.27v-7.69h-1.51V198h1.53v-4.59H275.84Zm10.43,0v4h-7.5v-4Zm8.94,12.42h-7.49v-6.93h7.49Zm-8.94,0h-7.5v-6.93h7.5Zm-7.5,1.45h7.5v6.94h-7.5Zm18,8.35v4.87H277.27v-4.87h19.45Zm-9-1.41V211.9h7.49v6.94Zm7.49-16.77h-7.49v-4h7.49Zm-17.93-7.18H296.7v1.69H277.28Z"/><path class="cls-2" d="M315.88,198h1.53v20.81H315.9v7.69h22.28v-7.69h-1.51V198h1.52v-4.59H315.88Zm10.44,0v4h-7.5v-4Zm8.94,12.42h-7.5v-6.93h7.5Zm-8.94,0h-7.5v-6.93h7.5Zm-7.5,1.45h7.5v6.94h-7.5Zm17.94,8.35v4.87H317.31v-4.87h19.45Zm-9-1.41V211.9h7.5v6.94Zm7.5-16.77h-7.5v-4h7.5Zm-17.93-7.18h19.42v1.69H317.33Z"/><rect class="cls-2" x="270.16" y="184.86" width="10.37" height="2.89"/><rect class="cls-2" x="309.8" y="181.96" width="10.37" height="2.89"/><rect class="cls-2" x="299.65" y="205.32" width="10.37" height="2.89"/><path class="cls-2" d="M187.6,188.47h3.72v65.82h1.26V188.47h67.17v37.61H261V188.47h4.05v-6.88H187.6Zm1.28-5.61h74.91v4.34H188.88Z"/><rect class="cls-2" x="339.98" y="188.1" width="10.37" height="2.89"/><path class="cls-2" d="M216.08,201.92c0-4.26-3.45-10.83-8-10.83s-8,6.57-8,10.83v15.41H198v4.39h20.16v-4.39h-2Zm-14.78,5.32h6.11v9.46H201.3Zm7.39,0h6.12v9.46h-6.12Zm6.12-5.32v4h-6.12V192.43C212.07,193.05,214.81,198.45,214.81,201.92Zm-7.4-9.49V206H201.3v-4C201.3,198.45,204,193.05,207.41,192.43Z"/><path class="cls-2" d="M252.48,201.92c0-4.26-3.45-10.83-8-10.83s-8,6.57-8,10.83v15.41h-2v4.39h20.15v-4.39h-2Zm-14.79,5.32h6.12v9.46h-6.12Zm7.39,0h6.12v9.46h-6.12Zm6.12-5.32v4h-6.12V192.43C248.46,193.05,251.2,198.45,251.2,201.92Zm-7.39-9.49V206h-6.12v-4C237.69,198.45,240.43,193.05,243.81,192.43Z"/><rect class="cls-2" x="194.49" y="191.72" width="7.34" height="1.83"/><rect class="cls-2" x="218.88" y="191.72" width="7.34" height="1.83"/><rect class="cls-2" x="250.85" y="190.81" width="7.34" height="1.83"/><rect class="cls-2" x="225.68" y="203.36" width="7.34" height="1.83"/><rect class="cls-2" x="219.64" y="212.83" width="7.34" height="1.83"/><rect class="cls-2" x="195.95" y="222.83" width="7.34" height="1.83"/><rect class="cls-2" x="242.95" y="222.83" width="7.34" height="1.83"/><rect class="cls-2" x="180.52" y="235.2" width="1.23" height="19.62"/><polygon class="cls-2" points="152.14 234.85 154.14 234.85 154.14 233.39 150.68 233.39 150.68 238.02 152.63 238.02 152.63 254.29 154.04 254.29 154.04 238.02 156.41 238.02 156.41 238 156.41 236.58 156.41 236.56 152.14 236.56 152.14 234.85"/><polygon class="cls-2" points="171.29 236.56 163.67 236.56 163.67 238.02 170.47 238.02 170.47 254.29 171.89 254.29 171.89 236.58 171.29 236.58 171.29 236.56"/><path class="cls-1" d="M659.93,253.86V251.8h-1.19l-.12-16.62h2.26v-2.87h-2.25v-8h-6.71V226H617.39v-1.47h-7.92v1.11H478.53v-1.57H463.28v-1.55h-.44V211.9h4.26v-5h-2.67v-5.06h-2.05v-1.75h-.62V193.7H445.2V178.77h2.28v-8.31H445.2v-6.8h-2.32c0-26.28-27.45-31.66-27.45-31.66V127.4H399.87V132s-27.44,5.38-27.44,31.66H370.1v6.8h-2.28v8.31h2.28V193.7H353.54v6.38h-.62v1.75h-2.05v5.06H348.2v5h4.27v10.63H352v1.55H336.77v1.57H205.83v-1.11h-7.92V226H163.39v-1.73h-6.71v8h-2.25v2.87h2.26l-.12,16.62h-1.19v2.06h-3.65v2.93h3.65V381.17h50.46v-9.5H361.09v9.5h93.12v-9.5H609.47v9.5h50.46V256.79h3.65v-2.93Zm-462.06,0H163.82V235.24h34.05Zm454,0h-34V235.24h34Z"/><path class="cls-2" d="M43.7,326.66H26.87v25.71H43.7V326.66ZM42.3,340.1H36v-4H42.3Zm-7.72,0H28.27v-4h6.31Zm7.72-5.35H36v-6.69H42.3Zm-7.72-6.69v6.69H28.27v-6.69Zm-6.31,13.43h6.31v6.2H28.27Zm14,9.48h-14v-1.89h14ZM36,347.69v-6.2H42.3v6.2Z"/><rect class="cls-2" x="3.2" y="345.64" width="1.4" height="2.86"/><path class="cls-2" d="M58.85,191.1,37.57,164.35a.93.93,0,0,0-.74-.36H29.34v-2.25h4.15v-6.51H16.28v6.51h4.41V164H.07v1.39H36.61l20.57,25.86H54v0H0V194H50.68v4.57H0V200H50.68v20.18h-7V205.6H26.87v14.5H10.32V205.6H0V207H1.21v6.7H0v1.4H1.21V219H0v1.4H1.21v6.19H0V228H8.92v1.89H0v1.39H10.32V221.5H26.87v9.81H43.7v-9.75h7V243H0v1.4H50.68v28.75h-7V249.87H26.87v23.29H10.32V249.87H0v1.4H1.21V258H0v1.4H1.21v3.94H0v1.4H1.21v6.19H0v1.4H8.92v1.88H0v1.4H10.32v-1H26.87v1H43.7v-1h7v5.79H0v2.8H50.68v30.46H43.2V290.32H26.37v23.29H9.82V290.32H0v1.4H.71v6.69H0v1.4H.71v3.95H0v1.39H.71v6.2H0v1.39H8.42v1.89H0V316H9.82v-1H26.37v1H43.2v-1h7.48v7.62H0V324H50.68v29.62H17v-2.55H12.2V331.94h2.38v-4.57H0v1.4H13.18v1.77H0v1.4H1.1l.1,30.5H0v1.4H10.8v13.27H0v1H51.68v-.3h.2V353.64h-.2V283.15H54v-2.8h-2.3V194H54v-1.38h4.13a1,1,0,0,0,.74-1.54Zm-41.3-30.62v-4H32.22v4H17.55Zm10.53,1.26v1.81H22v-1.81ZM2.6,207H8.92v6.7H2.6Zm0,8.1H8.92V219H2.6Zm0,11.53v-6.19H8.92v6.19ZM36,215.1H42.3V219H36ZM34.58,219H28.27V215.1h6.31Zm7.72-5.34H36V207H42.3ZM34.58,207v6.7H28.27V207Zm-6.31,13.44h6.31v6.19H28.27Zm14,9.48h-14V228h14ZM36,226.63v-6.19H42.3v6.19ZM2.6,251.27H8.92V258H2.6Zm0,8.1H8.92v3.94H2.6Zm0,11.53v-6.19H8.92v6.19ZM36,259.37H42.3v3.94H36Zm-1.4,3.94H28.27v-3.94h6.31Zm7.72,1.4v6.19H36v-6.19Zm0-6.74H36v-6.7H42.3Zm-7.72-6.7V258H28.27v-6.7Zm-6.31,13.44h6.31v6.19H28.27Zm14,9.47h-14V272.3h14ZM2.1,291.72H8.42v6.69H2.1Zm0,8.09H8.42v3.95H2.1Zm0,11.54v-6.2H8.42v6.2Zm33.38-11.54H41.8v3.95H35.48Zm-1.4,3.95H27.77v-3.95h6.31Zm7.72,1.39v6.2H35.48v-6.2Zm0-6.74H35.48v-6.69H41.8Zm-7.72-6.69v6.69H27.77v-6.69Zm-6.31,13.43h6.31v6.2H27.77Zm14,9.48h-14v-1.89h14ZM50.48,355v21.38H17V355ZM2.6,362.44l-.1-30.5h8.3v30.5Zm9.6-10h3.36v23.94H12.2V352.48Z"/><path class="cls-2" d="M0,185.49v1.27H6.69v-5.17l1-.68L0,170.65v2.73l.39.63v7.23H0v1.27H.39v3Zm1.65-11.21,3.77,5.56v1.4H1.65Zm0,8.23H5.42v3H1.65Z"/><path class="cls-2" d="M37.61,186.76v-5.23l1-.68-6.67-9.75-7,10.42,1.06.71.25-.38v4.91Zm-5-12.49,3.77,5.52v1.45H32.57Zm-1.26,7H27.54V180l3.77-5.64Zm-3.77,1.27h3.77v3H27.54Zm5,3v-3h3.77v3Z"/><path class="cls-2" d="M609.18,178.19,587.9,151.43a.93.93,0,0,0-.74-.36h-7.49v-2.24h4.15v-6.52H566.61v6.52H571v2.24H515.54a.93.93,0,0,0-.74.36l-21.58,26.75a.93.93,0,0,0-.12,1,1,1,0,0,0,.86.54h5.22v1.37h2.11v45h1.38v-45h98.15v4.58H503v1.39h97.86v20.11H594V192.69H577.2v14.49H560.65V192.69H543.82v14.49H527.27V192.69H510.44v14.49H503v1.4h7.48v9.82h16.83v-9.82h16.55v9.82h16.83v-9.82H577.2v9.82H594v-9.82h6.79v17.47h1.38v-45h2.11v-1.37h4.13a1,1,0,0,0,.74-1.54Zm-41.3-30.63v-4h14.67v4H567.88Zm10.53,1.27v1.8h-6.12v-1.8Zm-58.86,53.35h6.32v3.95h-6.32Zm-1.39,3.95h-6.32v-3.95h6.32Zm7.71-5.34h-6.32v-6.7h6.32Zm-7.71-6.7v6.7h-6.32v-6.7Zm-6.32,13.44h6.32v6.19h-6.32Zm14,9.47h-14v-1.88h14Zm-6.32-3.28v-6.19h6.32v6.19Zm33.38-11.54h6.32v3.95h-6.32Zm-1.39,3.95h-6.32v-3.95h6.32Zm7.71-5.34h-6.32v-6.7h6.32Zm-7.71-6.7v6.7h-6.32v-6.7Zm-6.32,13.44h6.32v6.19h-6.32Zm14,9.47h-14v-1.88h14Zm-6.32-3.28v-6.19h6.32v6.19Zm33.38-11.54h6.32v3.95h-6.32Zm-1.4,3.95H578.6v-3.95h6.31Zm7.72-5.34h-6.32v-6.7h6.32Zm-7.72-6.7v6.7H578.6v-6.7Zm-6.31,13.44h6.31v6.19H578.6Zm14,9.47h-14v-1.88h14Zm-6.32-3.28v-6.19h6.32v6.19Zm18-35.39v0H499.18v0h-4.29l20.87-25.86h71.18l20.57,25.86Z"/><path class="cls-2" d="M526.1,167v-.47h-.3l-5.36-8.42-7,10.46,1.06.7.25-.38v4.91H526.1v-4.58l1-.64Zm-5-5.56,3.77,5.93v.92h-3.77Zm-1.26-.08v6.93H516V167ZM516,169.59h3.78v3H516Zm5,3v-3h3.77v3Z"/><path class="cls-2" d="M557,167v-.47h-.3l-5.36-8.42-7,10.46,1.06.7.25-.38v4.91H557v-4.58l1-.64Zm-5-5.56,3.77,5.93v.92H552Zm-1.26-.08v6.93h-3.78V167Zm-3.78,8.19h3.78v3h-3.78Zm5,3v-3h3.77v3Z"/><path class="cls-2" d="M587.64,166.57l-5.36-8.42-7,10.46,1.06.7.25-.38v4.91h11.34v-4.58l1-.64-1-1.58v-.47Zm-4.74-5.09,3.77,5.93v.92H582.9Zm-1.26-.08v6.93h-3.77V167Zm-3.77,8.19h3.77v3h-3.77Zm5,3v-3h3.77v3Z"/><line class="cls-3" x1="660.65" y1="235.78" x2="660.65" y2="244.9"/><polygon class="cls-2" points="684.14 280.13 684.14 280.08 734.86 280.08 734.86 278.81 684.14 278.81 684.14 237.75 682.88 237.75 682.88 278.81 679.19 278.81 679.19 285.65 734.86 285.65 734.86 284.38 680.46 284.38 680.46 280.08 682.88 280.08 682.88 280.13 684.14 280.13"/><polygon class="cls-2" points="682.88 230.86 679.19 230.86 679.19 237.7 734.81 237.7 734.81 236.43 680.46 236.43 680.46 232.13 682.88 232.13 682.88 232.18 684.14 232.18 684.14 232.13 734.81 232.13 734.81 230.86 684.14 230.86 684.14 191 734.92 191 734.92 189.74 680.46 189.74 680.46 185.44 734.92 185.44 734.92 184.17 679.19 184.17 679.19 191 682.88 191 682.88 230.86"/><path class="cls-2" d="M677.1,307.65h4v-6.84h-4V259.7h4v-6.84h-4V213h4v-6.83H604.2V213h3.69v13.34h1.25V213h66.7v39.86H660.36v1.27h19.5v4.3H660.21v1.27h15.63v41.11H660.51v1.27h19.35v4.3H660v1.27h15.8v40.16h-2.76v-7.27h-4.32V348h-5.57V318.22H671v-3.43h-10.7v3.43h1.88V348h-1.88v.85h8.45v1.89h-8.45v.85h8.45v2h-8.45v.85h8.45v4.2h12.36V347.81h-4Zm-71.63-95.91v-4.31h74.39v4.31Zm66.35,136.07v9.59H670V341.79h1.8Zm8,1.25v8.34h-6.78v-8.34Z"/><path class="cls-2" d="M660.21,278.38v1.26h7.15V289h-6.71v.63h-.44V294h10.44v-4.36h-2v-15.3c0-4.23-3.42-10.76-8-10.76v1.26c3.64,0,6.71,5.84,6.71,9.5v4Z"/><polygon class="cls-2" points="634.51 241.66 632.48 241.66 632.48 235.19 631.21 235.19 631.21 241.03 625.14 241.03 625.14 235.19 623.87 235.19 623.87 241.03 617.67 241.03 617.67 241.66 617.66 241.66 617.66 246.02 634.51 246.02 634.51 241.66"/><path class="cls-2" d="M623.87,216.93V226h1.27v-9.09c3.35.62,6.07,6,6.07,9.43h1.27c0-4.23-3.42-10.76-8-10.76-3.63,0-6.77,4.32-7.71,8.49l1.24.28C618.79,221,621.18,217.43,623.87,216.93Z"/><path class="cls-2" d="M670.65,246v-4.36h-2v-15.3c0-4.23-3.42-10.76-8-10.76-3.68,0-6.82,4.37-7.73,8.6l1.24.27c.74-3.45,3.2-7.16,6-7.56v13.46H658.9v1.27h1.25v.68h1v-.68h6.21V241H659v1.27h.15V246Zm-9.5-15.65V216.92c3.41.49,6.21,6,6.21,9.44v4Z"/><rect class="cls-2" x="611.04" y="216.23" width="7.29" height="1.82"/><rect class="cls-2" x="635.26" y="216.23" width="7.29" height="1.82"/><rect class="cls-2" x="667.01" y="215.32" width="7.29" height="1.82"/><rect class="cls-2" x="636.01" y="237.19" width="7.29" height="1.82"/><rect class="cls-2" x="629.27" y="249.57" width="7.29" height="1.82"/><rect class="cls-2" x="665.85" y="295.92" width="7.29" height="1.82"/><rect class="cls-2" x="667.37" y="309.36" width="7.29" height="1.82"/><rect class="cls-2" x="667.01" y="262.73" width="7.29" height="1.82"/><rect class="cls-2" x="707.91" y="239.82" width="7.29" height="1.82"/><path class="cls-2" d="M725.77,331.4v-1.6h9.15v-1.25h-9.15v-1.48h9.15v-1.26h-2.84V296.22h2.78v-3.43H723.71v3.43H725v22.32h-3.55v7.27H684.14V285.7h-1.26v40.11H679.2v10.84h46.57v-4h11.49V331.4Zm.51-35.18h4.53v29.59h-4.53Zm-4.82,39.18h-41v-8.33h2.43v.05h1.26v-.05h37.32Zm3,0h-1.8V319.79h1.8Z"/><path class="cls-2" d="M711.39,312.54h-8.67v-9.28h8.67V302h-8.67v-8.17h8.67v18.7h6v-19.8h-6v-1.11H692.8v1.11h-5.49v19.8h5.49v2.22h18.59Zm-9.92,0h-8.14v-9.28h8.14Zm0-10.53h-8.14v-8.17h8.14Z"/><path class="cls-2" d="M699.5,241.61c-4.55,0-8,6.53-8,10.76v15.3h-2V272h20v-4.36h-2v-15.3C707.47,248.14,704.05,241.61,699.5,241.61ZM698.86,267h-6.07v-9.39h6.07Zm0-10.66h-6.07v-4c0-3.45,2.72-8.81,6.07-9.43ZM706.21,267h-6.08v-9.39h6.08Zm0-10.66h-6.08V242.94c3.36.62,6.08,6,6.08,9.43Z"/><path class="cls-2" d="M709.51,219.66h-2v-15.3c0-4.23-3.42-10.76-8-10.76s-8,6.53-8,10.76v15.3h-2V224h20ZM698.86,219h-6.07v-9.39h6.07Zm0-10.66h-6.07v-4c0-3.45,2.72-8.81,6.07-9.43ZM706.21,219h-6.08v-9.39h6.08Zm0-10.66h-6.08V194.93c3.36.62,6.08,6,6.08,9.43Z"/><path class="cls-2" d="M735,194.93l-.23-1.25c-3.93.73-7.11,6.44-7.11,10.68v15.3h-2V224h9.29v-5h-6v-9.39h5.88v-1.27h-5.88v-4C728.93,200.7,731.79,195.52,735,194.93Z"/><path class="cls-2" d="M735,242.77l-.23-1.24c-3.93.72-7.11,6.44-7.11,10.68v15.3h-2v4.36h9.29v-5h-6v-9.39h5.88v-1.27h-5.88v-4C728.93,248.54,731.79,243.37,735,242.77Z"/><rect class="cls-2" x="686.03" y="194.23" width="7.29" height="1.82"/><rect class="cls-2" x="710.25" y="194.23" width="7.29" height="1.82"/><rect class="cls-2" x="717.01" y="205.79" width="7.29" height="1.82"/><rect class="cls-2" x="711" y="215.19" width="7.29" height="1.82"/><rect class="cls-2" x="704.26" y="227.57" width="7.29" height="1.82"/><rect class="cls-2" x="687.48" y="225.12" width="7.29" height="1.82"/><rect class="cls-2" x="718.84" y="245.58" width="7.29" height="1.82"/><rect class="cls-2" x="713.36" y="258.26" width="7.29" height="1.82"/><rect class="cls-2" x="714.01" y="272.84" width="7.29" height="1.82"/><rect class="cls-2" x="688.03" y="274.83" width="7.29" height="1.82"/><rect class="cls-2" x="717.01" y="287.36" width="7.29" height="1.82"/><rect class="cls-2" x="689.15" y="321.44" width="7.29" height="1.82"/><rect class="cls-2" x="710.75" y="319.16" width="7.29" height="1.82"/><rect class="cls-2" x="686.96" y="241.07" width="7.29" height="1.82"/><polygon class="cls-2" points="498.82 199.69 462.54 199.69 462.54 200.86 497.64 200.86 497.64 204.86 465.24 204.86 465.24 206.04 494.06 206.04 494.06 225.57 495.33 225.57 495.33 206.04 498.82 206.04 498.82 199.69"/><path class="cls-2" d="M479.79,208.45c-4.23,0-7.41,6.07-7.41,10v5.89h1.17v-1h5.65v2.21h1.18v-2.21H486v2.21h1.18v-7.12C487.2,214.52,484,208.45,479.79,208.45Zm-6.24,13.73v-3.73c0-3.2,2.53-8.19,5.65-8.76v12.49Zm12.47,0h-5.64V209.69c3.11.57,5.64,5.56,5.64,8.76Z"/><rect class="cls-2" x="485.7" y="208.2" width="6.78" height="1.69"/><rect class="cls-2" x="464.13" y="219.78" width="5.11" height="1.69"/><path class="cls-4" d="M246.53,236.38H229.86v14.89h16.67Zm-15.67,1h6.84v12.89h-6.84Zm14.67,12.89H238.7V237.38h6.83Z"/><path class="cls-4" d="M225.73,251.27V236.38H209.06v14.89Zm-1-1H217.9V237.38h6.83Zm-14.67-12.89h6.84v12.89h-6.84Z"/><path class="cls-4" d="M288.33,236.38H271.67v14.89h16.66Zm-15.66,1h6.83v12.89h-6.83Zm14.66,12.89H280.5V237.38h6.83Z"/><path class="cls-4" d="M267.53,236.38H250.87v14.89h16.66Zm-15.66,1h6.83v12.89h-6.83Zm14.66,12.89H259.7V237.38h6.83Z"/><path class="cls-4" d="M330.51,236.38H313.84v14.89h16.67Zm-15.67,1h6.83v12.89h-6.83Zm14.67,12.89h-6.84V237.38h6.84Z"/><path class="cls-4" d="M309.71,236.38H293v14.89h16.67Zm-15.67,1h6.83v12.89H294Zm14.67,12.89h-6.84V237.38h6.84Z"/><path class="cls-4" d="M210.06,294.5h14.57V271.24h2v-2h-19v2h2.41Zm13.57-1H211.06V271.24h12.57Z"/><path class="cls-4" d="M231.51,294.5h14.56V271.24h2v-2h-19v2h2.42Zm13.56-1H232.51V271.24h12.56Z"/><path class="cls-4" d="M253,294.5h14.56V271.24h2v-2h-19v2H253Zm13.56-1H254V271.24h12.56Z"/><path class="cls-4" d="M274.39,294.5H289V271.24h2v-2H272v2h2.42Zm13.56-1H275.39V271.24H288Z"/><path class="cls-4" d="M295.83,294.5h14.56V271.24h2v-2h-19v2h2.42Zm13.56-1H296.83V271.24h12.56Z"/><path class="cls-4" d="M317.27,294.5h14.56V271.24h2v-2h-19v2h2.41Zm13.56-1H318.27V271.24h12.56Z"/><path class="cls-4" d="M210.06,327.51h14.57V304.25h2v-2h-19v2h2.41Zm13.57-1H211.06V304.25h12.57Z"/><path class="cls-4" d="M231.51,327.51h14.56V304.25h2v-2h-19v2h2.42Zm13.56-1H232.51V304.25h12.56Z"/><path class="cls-4" d="M253,327.51h14.56V304.25h2v-2h-19v2H253Zm13.56-1H254V304.25h12.56Z"/><path class="cls-4" d="M274.39,327.51H289V304.25h2v-2H272v2h2.42Zm13.56-1H275.39V304.25H288Z"/><path class="cls-4" d="M295.83,327.51h14.56V304.25h2v-2h-19v2h2.42Zm13.56-1H296.83V304.25h12.56Z"/><path class="cls-4" d="M317.27,327.51h14.56V304.25h2v-2h-19v2h2.41Zm13.56-1H318.27V304.25h12.56Z"/><path class="cls-4" d="M373.23,307h1.7v19.46h10.5V307h1.39v-1.55H373.23Zm11.42,18.69h-8.94V307h8.94Z"/><path class="cls-4" d="M373.23,275.12h1.7v19.47h10.5V275.12h1.39v-1.54H373.23Zm11.42,18.7h-8.94v-18.7h8.94Z"/><path class="cls-4" d="M585.59,236.38H568.93v14.89h16.66Zm-15.66,1h6.83v12.89h-6.83Zm14.66,12.89h-6.83V237.38h6.83Z"/><path class="cls-4" d="M606.39,236.38H589.73v14.89h16.66Zm-15.66,1h6.83v12.89h-6.83Zm14.66,12.89h-6.83V237.38h6.83Z"/><path class="cls-4" d="M543.79,236.38H527.13v14.89h16.66Zm-15.66,1H535v12.89h-6.83Zm14.66,12.89H536V237.38h6.83Z"/><path class="cls-4" d="M564.59,236.38H547.93v14.89h16.66Zm-15.66,1h6.83v12.89h-6.83Zm14.66,12.89h-6.83V237.38h6.83Z"/><path class="cls-4" d="M501.62,236.38H485v14.89h16.67Zm-15.67,1h6.83v12.89H486Zm14.67,12.89h-6.84V237.38h6.84Z"/><path class="cls-4" d="M522.42,236.38H505.75v14.89h16.67Zm-15.67,1h6.83v12.89h-6.83Zm14.67,12.89h-6.84V237.38h6.84Z"/><path class="cls-4" d="M664.36,253.88h-3.65v-2.06h-1.19V236.2h2.14v-3.87H659.4v-2.52h0V224.3h-7.71V226H618.17V224.3h-8.91v1.37H479.19V224H463.94v-.07l.06-1.38h-.39v-9.63h4.56v-6h-3v-5.06h-2V200.1h-.62v-6.38H446V179.79h2.28v-9.31H446v-6.83h-2.24c-.27-15.26-11.93-28-27.53-31.47v-4.78h-17v4.78c-15.59,3.45-27.25,16.21-27.52,31.47h-2.24v6.83H367.2v9.31h2.28v13.93H352.92v6.38h-.62v1.75h-2.05v5.06h-2.67v4.85h4.26v10.79h-.38l.06,1.38V224H336.26v1.67h-130V224.3h-8.92V226H163.77V224.3h-7.71v5.51h0v2.52H153.8v3.87h2.14v15.62h-1.2v2.06H151.1v3.93h3.64V381.69h.5v.5h13.21v.06h24v-.06h13.73V372.7H360.29v9.5h94.88v-9.5H609.25v9.49H623v.06h24v-.06h13.71V257.81h3.65Zm-5.84-2.06h-6.38V236.2h6.38Zm1.19,70.46H652v-3.45h7.67Zm-8.67,1v.75H649.7V267.68A2.84,2.84,0,0,0,651,267V317.8h0v1h0v3.45h-.12v1Zm0,7.77h-9.38v-6H651Zm1-6h7.67v6H652Zm-61.9,43.63h18.13v3H590.14Zm-23.19,3v-3h18.12v3Zm-23.2,0v-3h18.12v3Zm-23.2,0v-3h18.12v3Zm-23.2,0v-3h18.13v3Zm-23.2,0v-3h18.13v3Zm-151,0v-3H341.3v3Zm-23.2,0v-3h18.13v3Zm-23.2,0v-3h18.13v3Zm-23.19,0v-3h18.12v3Zm-23.2,0v-3h18.12v3Zm-74.65-34.85h49.47v3H155.74Zm8.68-4.73H174.8v-8h-1.6V323h14.24v1.09h-1.13v8h10.25v3.73H164.42Zm0-7h9.38v6h-9.38Zm-1,6h-7.68v-6h7.68Zm1-8.81v-3.45h0v-1h0V267a2.85,2.85,0,0,0,1.33.64v56.39h-1.33v-.75h.11v-1Zm-8.68-61.19h7.68v3.29h-7.68Zm41.55-7.21h-33V236.2H197V238h.29v15.91Zm1-15.91h6.92v13.85h-6.92Zm280.9-4.2H609.25v20.11H479.64l-.45-18.27Zm-.55,20.11h-25v-2.41H361.78v2.41h-25l.43-17.76h28.86v8.51L361.47,247v-9.41H344.8v14.88h16.67v-2.79l.13,0h92.25l.14,0v2.79h16.66V237.56H454V247l-4.65-2.34v-8.51H478.2ZM627,295.55v2.17H627V323H627v1.09h-5.44V267.73H627v2.57H627v25.25Zm15.25,0v2.17H628v-2.17Zm-14.19-1.11v-23H642.2v23Zm15.19-24.14v-2.57h5.44v56.34h-5.44V323h.06V297.72h-.06v-2.17h.06V270.3Zm16.45-.58H652v-2.94h7.67Zm0,21.18H652v-3.5h7.67Zm0-25.15H652v-.33h7.67Zm-10.51,1h-.72v-3.67h.72a1.84,1.84,0,1,1,0,3.67Zm-4.77-2.9h3.05v2.9h-3.05Zm-1,2.9h-.74a1.84,1.84,0,0,1,0-3.67h.74Zm-1.23,32.11v23H628.07v-23Zm-32,26.23h7.65v6h-7.65Zm8.65,0h9.25v6H618.9Zm-8.65-10.68h7.65v3.37h-7.65Zm8.65-5.6v-3.36h1.67v7.85H618.9v-3.37h1.65v-1.12Zm-8.65-42h7.65v2.86h-7.65Zm0,25.16h7.65v3.36h-7.65Zm10.32-14.64H618.9v-2.58h1.67Zm-2.67,0h-7.65v-2.58h7.65Zm-7.65,1.12h7.65v2.92h-7.65Zm8.65,0h1.67v2.92H618.9Zm1.67,4v3.82H618.9V282.5Zm0,4.94v3.42H618.9v-3.42Zm0,4.54v3.36H618.9V292Zm-10.32,4.48h7.65v3.37h-7.65Zm8.65,0h1.67v3.37H618.9Zm1.67-22.81H618.9v-2.86h1.67Zm-2.67,0h-7.65v-2.86h7.65Zm-7.65,8.85h7.65v3.82h-7.65Zm7.65,4.94v3.42h-7.65v-3.42Zm-7.65,13.5h7.65v3.37h-7.65Zm8.65,0h1.67v3.37H618.9Zm1.67,13.45v3.37H618.9v-3.37Zm-10.32,4.49h7.65v3.36h-7.65Zm8.65,0h1.67v3.36H618.9Zm1.67,4.48v.71H618.9v-.71Zm2.17-59.53h3v2.9h-3Zm4.77,2.9h-.72v-3.67h.72a1.84,1.84,0,1,1,0,3.67Zm-5.77,0H621a1.84,1.84,0,0,1,0-3.67h.74Zm-1.17,1v2H618.9v-2.86h0A2.84,2.84,0,0,0,620.57,267.69Zm-2.67-2h-7.65v-.29h7.65Zm-7.65,39.72h7.65v3.36h-7.65Zm7.65,4.48v3.37h-7.65v-3.37Zm-7.65,13.45h7.65v.71h-7.65Zm7.65,8.73v3.73h-7.65v-3.73Zm41.81,15.69H646.05a11.89,11.89,0,0,0-1.83-3h15.49ZM646,352.47v.17h-3.76v-.05a7.29,7.29,0,0,0-1.08-3.81h4.19A10.72,10.72,0,0,1,646,352.47Zm13.71,5H647v-3.81h12.71Zm-13.71,0h-3.76v-3.81H646Zm-232.68-10,1.91-2.61a11.1,11.1,0,0,1,2.29,2.93h-3.91C413.51,347.67,413.42,347.56,413.32,347.46Zm7.2,5.6v2.69H420v-2.69c0-.06,0-.11,0-.17h.52C420.53,353,420.52,353,420.52,353.06Zm-1.68,0v2.69h-3.47v-2.86h3.47Zm-3.47,3.69h3.47v3h-3.47Zm4.65,0h.5v3H420Zm1.68,0H425v3H421.7Zm0-1v-2.86H425v2.86Zm-1.11-4H420a11.81,11.81,0,0,0-.72-3h2.08A11.81,11.81,0,0,0,420.59,351.76Zm-9.69-9.42a11.21,11.21,0,0,1,3.11,1.51L412,346.34a7.23,7.23,0,0,0-1.61-.77Zm7.09,6.44a11,11,0,0,1,.77,3h-3.43a7.43,7.43,0,0,0-1-3Zm-2.62,12h3.47v3h-3.47Zm4.65,0h.5v3H420Zm1.68,0H425v3H421.7Zm0-13H418.8a12.23,12.23,0,0,0-2-3h7A12.23,12.23,0,0,0,421.74,347.78Zm-6.37,16.94h3.47v3h-3.47Zm4.65,0h.5v3H420Zm1.68,0H425v3H421.7Zm.08-13a11,11,0,0,1,.77-3H426a7.28,7.28,0,0,0-1,3Zm1.24-4a11.1,11.1,0,0,1,2.26-2.91l1.84,2.49a5.14,5.14,0,0,0-.38.42Zm4.86-1.08-1.83-2.48a11.09,11.09,0,0,1,3.55-1.87l.55,3.16A7.25,7.25,0,0,0,427.88,346.7Zm4.84-5.84a12.19,12.19,0,0,0-7.92,2.93h-9.06a12.19,12.19,0,0,0-7.92-2.93h-.18a12.19,12.19,0,0,0-7.92,2.93h-9.07a12.14,12.14,0,0,0-7.91-2.93h-.18a12.17,12.17,0,0,0-7.92,2.93H361.47v-3H454v3H440.82a12.19,12.19,0,0,0-7.92-2.93h-.18Zm-44.38,6.5,1.83-2.49a10.7,10.7,0,0,1,2.26,2.91h-3.71C388.59,347.63,388.47,347.49,388.34,347.36Zm7.1,5.7v2.69h-.5v-2.69c0-.06,0-.11,0-.17h.51Zm-1.69-.17c0,.06,0,.11,0,.17v2.69h-3.28v-2.86Zm0,3.86v3h-3.28v-3Zm1.18,0h.5v3h-.5Zm1.67,0h3.48v3h-3.48Zm-1.1-5h-.64a11.81,11.81,0,0,0-.72-3h2.08A11.81,11.81,0,0,0,395.51,351.76Zm-2.6-3a11,11,0,0,1,.77,3h-3.25a7.27,7.27,0,0,0-1-3Zm-2.43,12h3.28v3h-3.28Zm4.46,0h.5v3h-.5Zm1.67,0h3.48v3h-3.48Zm0-5v-2.69c0-.06,0-.11,0-.17h3.47v2.86Zm4.84-11.9a11.29,11.29,0,0,1,3.1-1.51l.56,3.23a7.23,7.23,0,0,0-1.61.77Zm-4.79,3.93h-2.94a12.52,12.52,0,0,0-2-3h7A12.23,12.23,0,0,0,396.66,347.78Zm-7.25-3.56-1.83,2.48a7.36,7.36,0,0,0-2.27-1.19l.55-3.16A11.09,11.09,0,0,1,389.41,344.22Zm1.07,20.5h3.28v3h-3.28Zm4.46,0h.5v3h-.5Zm1.67,0h3.48v3h-3.48Zm.08-13a11.37,11.37,0,0,1,.78-3h3.67a7.28,7.28,0,0,0-1,3Zm1.25-4a11.06,11.06,0,0,1,2.28-2.93l1.92,2.61c-.1.1-.2.21-.29.32Zm-192.73,4.86H192.48v-.17a11.83,11.83,0,0,0-.59-3.69h13.32Zm-49.47,1h12.71v3.81H155.74Zm13.71,0h3.77v3.81h-3.77Zm.65-4.86h4.2a7.29,7.29,0,0,0-1.08,3.81v.05h-3.77v-.17A11,11,0,0,1,170.1,348.78Zm27.46-16.69h7.65v3.73h-7.65ZM188.44,323h.06V297.72h-.06v-2.17h.06V270.3h-.06v-2.57h5.45v56.34h-5.45ZM173.2,297.72v-2.17h14.24v2.17Zm14.19,1.12v23H173.26v-23ZM172.2,323v1.09h-5.45V267.73h5.45v2.57h-.06v25.25h.06v2.17h-.06V323Zm-16.46-40.53h7.68v3.91h-7.68Zm17-15.72H172v-3.67h.74a1.84,1.84,0,0,1,0,3.67Zm-4.79-2.9H171v2.9H168Zm-1,2.9h-.73a1.84,1.84,0,0,1,0-3.67H167Zm6.28,27.71v-23h14.13v23Zm23.3,15.47v3.37h-1.67v-7.85h1.67v3.36h-1.65v1.12Zm-1.67-35.15h1.67v2.58h-1.67Zm10.32,6.62h-7.65v-2.92h7.65Zm0-4h-7.65v-2.58h7.65Zm-10.32,1.12h1.67v2.92h-1.67Zm0,4h1.67v3.82h-1.67Zm0,4.94h1.67v3.42h-1.67Zm0,9h1.67v3.37h-1.67Zm2.67,0h7.65v3.37h-7.65Zm7.65-1.12h-7.65V292h7.65Zm-8.65,0h-1.67V292h1.67Zm-1.67,23.54h1.67v3.36h-1.67Zm2.67,0h7.65v3.36h-7.65Zm7.65-1.12h-7.65v-3.37h7.65Zm-8.65,0h-1.67v-3.37h1.67Zm-1.67-13.45v-3.37h1.67v3.37Zm2.67-3.37h7.65v3.37h-7.65Zm7.65-10.08h-7.65v-3.42h7.65Zm-7.65-4.54V282.5h7.65v3.82Zm7.65-16.64h-7.65v-2.86h7.65Zm0,1.11v2.86h-7.65v-2.86Zm-8.65,2.86h-1.67v-2.86h1.67Zm-1.67,49.71h1.67v.71h-1.67Zm2.67,0h7.65v.71h-7.65Zm7.65-10.08h-7.65v-3.37h7.65Zm-7.65-4.49v-3.36h7.65v3.36Zm7.65-43.08h-7.65v-.29h7.65Zm-8.68,1.11h0v2.86h-1.67v-2A2.84,2.84,0,0,0,196.53,266.82Zm-2.07-.09h-.74v-3.67h.74a1.84,1.84,0,0,1,0,3.67Zm-4.79-2.9h3.05v2.9h-3.05Zm-1,2.9h-.73a1.84,1.84,0,0,1,0-3.67h.73Zm6.22,58.34h1.67v6h-9.25v-6h7.58Zm2.67,0h7.65v6h-7.65Zm164.66-67.26v7.94h-4v0H335.86v-8Zm1,3.58h89v4.39H376v0H363.22ZM479.6,333.1h-10v-3.56h10Zm-24.43,2.72v-1.26h.32v-5h11.86V306.28h1.27v29.54Zm182,9.78.55-3.8a10.94,10.94,0,0,1,3.76,1.77l-2.34,3A7.12,7.12,0,0,0,637.14,345.6Zm-3.89-.24-.85-3.59a11.13,11.13,0,0,1,2.59-.32,10.79,10.79,0,0,1,1.72.15l-.55,3.76a6.7,6.7,0,0,0-1.28-.12h-.29A7.42,7.42,0,0,0,633.25,345.36Zm-1.81-3.31.84,3.56a7.34,7.34,0,0,0-1.95,1l-2.44-2.55A11.22,11.22,0,0,1,631.44,342.05Zm-4.29,2.69,2.4,2.51a6.38,6.38,0,0,0-.51.53h-4A11.33,11.33,0,0,1,627.15,344.74Zm-3.22,3H610.25v-3h15.51A12.18,12.18,0,0,0,623.93,347.78Zm-15.66,6v2h-1.95v-.47a7.26,7.26,0,0,0-.45-2.52h2.34A8.43,8.43,0,0,1,608.27,353.77Zm-1.95,7h1.95v3h-1.95Zm0-1v-3h1.95v3Zm-.89-8a7.67,7.67,0,0,0-1-1.39l1.94-2.09a8.77,8.77,0,0,1,1.66,3.48Zm-13.86,8h-1.43v-3h1.43Zm-22.3-8h-2.09a9,9,0,0,1,1.61-3.42l1.7,1.77A7.58,7.58,0,0,0,569.27,351.76Zm-.9,8H567v-3h1.42Zm0-4.45v.47H567v-2a8.43,8.43,0,0,1,.06-1h1.82A7.27,7.27,0,0,0,568.37,355.28Zm-8.9-2.52h2.34a8.43,8.43,0,0,1,.06,1v2h-1.94v-.47A7.27,7.27,0,0,0,559.47,352.76Zm-14.29,7h-1.43v-3h1.43Zm-23.2,0h-1.43v-3H522Zm-10.34-9.36,1.94-2.09a8.91,8.91,0,0,1,1.66,3.48h-2.61A7.16,7.16,0,0,0,511.64,350.37Zm-12.86,9.36h-1.43v-3h1.43Zm-23.2,0h-1.43v-3h1.43Zm-150.45,0h-1.95v-3h1.95Zm-22.31-8h-2.6a8.77,8.77,0,0,1,1.66-3.48l1.94,2.09A7.67,7.67,0,0,0,302.82,351.76Zm-.89,8H300v-3h1.95Zm-22.3-8H277a8.77,8.77,0,0,1,1.66-3.48l1.94,2.09A7.16,7.16,0,0,0,279.63,351.76Zm-.9,8h-2v-3h2Zm-23.2-4.45v.47h-1.94v-2a8.43,8.43,0,0,1,.06-1H256A7.5,7.5,0,0,0,255.53,355.28Zm-8.45,1.47h1.43v3h-1.43Zm0-1v-.47a7.26,7.26,0,0,0-.45-2.52h1.82a8.43,8.43,0,0,1,.06,1v2ZM245,350.11l1.7-1.77a8.86,8.86,0,0,1,1.62,3.42h-2.09A7.62,7.62,0,0,0,245,350.11Zm-12.63,9.62h-1.94v-3h1.94Zm-46.42-12.48,2.39-2.51a11.15,11.15,0,0,1,2.12,3h-4C186.25,347.59,186.08,347.41,185.91,347.25Zm-6.62-1.89-.54-3.76a10.79,10.79,0,0,1,1.72-.15,11,11,0,0,1,2.58.32l-.84,3.59a7.42,7.42,0,0,0-1.34-.12h-.29A6.88,6.88,0,0,0,179.29,345.36Zm4.73-3.31a11.22,11.22,0,0,1,3.55,2l-2.44,2.55a7.55,7.55,0,0,0-2-1Zm5.68,2.74h15.51v3H191.52A12.15,12.15,0,0,0,189.7,344.79Zm146.16-78h10v2.52h-10Zm116.46,0a1.84,1.84,0,1,1,0,3.67h-.72v-3.67Zm2.81,7.18h11.25v22.29H455.13Zm12.2,23.23V274h1.29v30.32H452.78L452.61,274h1.58v23.23Zm123.8,50.59h-7a10.08,10.08,0,0,0-3.63-3h14.28A10.1,10.1,0,0,0,591.13,347.78Zm-2,8h-3v-2c0-.34,0-.68-.05-1h3.12a8.44,8.44,0,0,0,0,1Zm-3.22-4a9.87,9.87,0,0,0-1.15-3h5.71a9.85,9.85,0,0,0-1.14,3Zm-18-4h-7a10.1,10.1,0,0,0-3.62-3h14.28A10.1,10.1,0,0,0,567.93,347.78Zm-.66,1a9.87,9.87,0,0,0-1.15,3H562.7a9.87,9.87,0,0,0-1.15-3Zm-22.54-1h-7v0a10,10,0,0,0-3.65-3h14.28A10.1,10.1,0,0,0,544.73,347.78Zm-2,8h-3v-2a8.44,8.44,0,0,0-.05-1h3.12c0,.33,0,.67,0,1Zm-3.22-4a9.62,9.62,0,0,0-1.15-3h5.72a9.87,9.87,0,0,0-1.15,3Zm-18-4h-7a10.1,10.1,0,0,0-3.62-3h14.28A10.1,10.1,0,0,0,521.53,347.78Zm-2,8h-3v-2a8.44,8.44,0,0,0,0-1h3.12c0,.33-.05.67-.05,1Zm-3.22-4a9.85,9.85,0,0,0-1.14-3h5.71a9.87,9.87,0,0,0-1.15,3Zm-18-4h-7a10.07,10.07,0,0,0-3.61-3H502A10.07,10.07,0,0,0,498.34,347.78Zm-2,8h-3v-2c0-.34,0-.68-.05-1h3.11c0,.33-.05.67-.05,1Zm-3.22-4a9.6,9.6,0,0,0-1.14-3h5.71a9.6,9.6,0,0,0-1.14,3Zm-18-4h-20v-3h23.59A10.1,10.1,0,0,0,475.14,347.78Zm-2,8H455.17v-2.86l18-.11c0,.33-.05.65-.05,1Zm-28-2.86H454v2.86H445.1v-2.86Zm8.89-1H445a11.86,11.86,0,0,0-.73-3.11H454Zm-10.06,7.84h-3.67v-3h3.67Zm1.17-3H454v3H445.1Zm10.07-4.86v-3.11h19.3a10.09,10.09,0,0,0-1.15,3Zm-118.47-7.1h23.59v3H340.46V348A10.13,10.13,0,0,0,336.7,344.79Zm-12.6,3.07v-.08h-7a10.1,10.1,0,0,0-3.62-3h14.28A10,10,0,0,0,324.1,347.86Zm-2,7.89h-3v-2a8.44,8.44,0,0,0-.05-1h3.12c0,.33-.05.67-.05,1Zm-3.22-4a9.85,9.85,0,0,0-1.14-3h5.71a9.87,9.87,0,0,0-1.15,3Zm-18-3.92v-.06h-7a10.07,10.07,0,0,0-3.61-3h14.27A10,10,0,0,0,300.92,347.84Zm-2,7.91h-3v-2c0-.34,0-.68-.05-1H299c0,.33-.05.67-.05,1Zm-3.22-4a9.6,9.6,0,0,0-1.14-3h5.71a9.6,9.6,0,0,0-1.14,3Zm-18-3.94v0h-7a10,10,0,0,0-3.61-3h14.28A10.15,10.15,0,0,0,277.73,347.82Zm-2,7.93h-3v-2c0-.34,0-.68-.05-1h3.12a8.43,8.43,0,0,0-.06,1Zm-3.21-4a9.87,9.87,0,0,0-1.15-3h5.71a9.85,9.85,0,0,0-1.14,3Zm-18-4v0h-7a10.1,10.1,0,0,0-3.62-3h14.28A10,10,0,0,0,254.55,347.8Zm-.65,1a9.85,9.85,0,0,0-1.14,3h-3.42a9.87,9.87,0,0,0-1.15-3Zm-22.53-1h-7a10.1,10.1,0,0,0-3.62-3H235A10.1,10.1,0,0,0,231.37,347.78Zm-2,8h-3v-2c0-.34,0-.68-.05-1h3.12c0,.33,0,.67,0,1Zm-3.22-4a9.87,9.87,0,0,0-1.15-3h5.72a9.87,9.87,0,0,0-1.15,3Zm-18-4h-2v-3h5.58A10.1,10.1,0,0,0,208.17,347.78Zm162.18,5.28v2.69h-8.88v-2.86h8.89C370.36,353,370.35,353,370.35,353.06Zm-10.06-4.28v3.11l-18.16-.11a9.58,9.58,0,0,0-1.15-3Zm0,4.11v2.86h-18v-2a8.1,8.1,0,0,0-.05-1Zm1.18,3.86h8.88v3h-8.88Zm9-5h-9v-3h9.67A12.24,12.24,0,0,0,370.43,351.76ZM346.84,274h1.29v23.23h13.14V274h1.57l-.16,30.32H346.84Zm2.24,0h11.24v22.29H349.08ZM362,267.2h1.88v3.25h-.73A1.83,1.83,0,0,1,362,267.2Zm9.5,1.41a1.84,1.84,0,0,1-1.83,1.84h-.74V267.2h1.89A1.83,1.83,0,0,1,371.48,268.61ZM372.81,329H388V331H372.81Zm20.1-61.42h3v2.91h-3Zm-1,60.31v-1h0l0-55.41h5l-.27,55.41h0v1h2.16V328H398v4.6h-8l0-4.71Zm24.7,0h2.18v-1h0l-.26-55.41h5l0,55.41h0v1h1.86v4.72h-8V328h-.88Zm2.92-60.31h3.05v2.91H419.5ZM427.44,329h15.21V331H427.44Zm19.37-1.11v-1h0l-.26-55.41h5.05l0,55.41h0v1h1.86v4.72h-8.85v-4.71Zm.74-60.31h3.05v2.91h-3.05Zm5.24,39v-.28h0ZM400.86,329H414.6v2.21H400.86Zm13.79-1.56a2,2,0,0,0,0,.44V328h-6.3V306.75h6.35Zm-7.49.56h-6.3v-.12a2,2,0,0,0-.05-.44V306.75h6.35Zm-44.49-21.68v0Zm8.14,26.28H362l0-4.71h1.88v-1h0l0-55.41h5.05l-.27,55.41h0v1h2.16Zm-5.95-65h3.05v2.91h-3.05ZM349.1,306.28h12.57v19.6a2,2,0,0,0-1.7,2v.7H349.1ZM372.81,332H388v2.05H372.81Zm28.05.16H414.6v1.89H400.86Zm26.58-.16h15.21v2.05H427.44Zm26.35-6.13v-19.6h12.56v22.26H455.49v-.7A2,2,0,0,0,453.79,325.88Zm-7.24-55.43h-.74a1.84,1.84,0,0,1,0-3.67h.74Zm-1,1L445,325.85h-.33a2,2,0,0,0-2,2V328H427.44v-.12a2,2,0,0,0-2-2h-.62l-.3-54.43a2.81,2.81,0,0,0,1.88-4.64h17.25a2.76,2.76,0,0,0-.69,1.83A2.83,2.83,0,0,0,445.54,271.42Zm-19.43-2.81a1.84,1.84,0,0,1-1.84,1.84h-.72v-3.67h.72A1.83,1.83,0,0,1,426.11,268.61Zm-7.61,1.84h-.74a1.84,1.84,0,0,1,0-3.67h.74Zm-1,1-.58,54.43h-.33a2,2,0,0,0-.81.18V306.75h1v-1H398.7v1h1V326a1.92,1.92,0,0,0-.8-.18h-.33L398,271.42a2.81,2.81,0,0,0,1.87-4.64h15.78a2.76,2.76,0,0,0-.69,1.83A2.83,2.83,0,0,0,417.49,271.42Zm-18-2.81a1.84,1.84,0,0,1-1.83,1.84H397v-3.67h.74A1.83,1.83,0,0,1,399.53,268.61Zm-7.62,1.84h-.73a1.84,1.84,0,0,1,0-3.67h.73Zm-1,1-.29,54.43H390a2,2,0,0,0-2,2V328H372.81v-.12a2,2,0,0,0-2-2h-.33l-.58-54.43a2.83,2.83,0,0,0,2.56-2.81,5,5,0,0,0-.64-1.85h4.64l-.44,0h13a2.81,2.81,0,0,0,1.87,4.64Zm-29.78-4.66a5.22,5.22,0,0,0-.83,1.85,2.82,2.82,0,0,0,2.56,2.81V272h-16v-5.19h14.29Zm-25.27,3.53h10v3.56h-10Zm0,4.56h10v3.56h-10Zm0,4.56h10V283h-10Zm0,4.55h10v3.56h-10Zm0,4.56h10v3.56h-10Zm0,4.56h10v3.56h-10Zm0,4.56h10v3.56h-10Zm0,4.56h10v3.55h-10Zm0,4.55h10v3.56h-10Zm0,4.56h10v3.56h-10Zm0,4.56h10v3.56h-10Zm0,4.56h10V324h-10Zm0,4.55h10v3.56h-10Zm0,4.56h10v3.56h-10Zm11-23.26h1.26v23.26H360v5h.32v1.26H346.84Zm13.45,37.51H206.21v-3H360.29Zm-152.78,5a9.87,9.87,0,0,0-1.15,3h-.15v-3Zm-1.3,4h0v0Zm2.93,7h-1.95v-3h1.95Zm-1.95,1h1.95v3h-1.95Zm1.95-5.45v.47h-1.95v-2a8.43,8.43,0,0,1,.06-1h2.34A7.26,7.26,0,0,0,209.14,355.28Zm.89-3.52h-2.61a9.05,9.05,0,0,1,1.66-3.48l1.95,2.09A7.21,7.21,0,0,0,210,351.76Zm1.71-2.09-2-2.15a9,9,0,0,1,3.31-2.15l1.18,2.9A7.19,7.19,0,0,0,211.74,349.67Zm3.47-1.64-1.2-3a9.43,9.43,0,0,1,2.14-.26h.2a9.15,9.15,0,0,1,2.53.36L217.76,348a7.36,7.36,0,0,0-1.25-.12A6.9,6.9,0,0,0,215.21,348Zm4.61-2.52a8.89,8.89,0,0,1,3,2.06L221,349.45a7.66,7.66,0,0,0-2.28-1.2Zm3.65,2.83a9,9,0,0,1,1.61,3.42H223a7.58,7.58,0,0,0-1.22-1.65Zm1.78,4.42a8.43,8.43,0,0,1,.06,1v2h-1.42v-.47a7.27,7.27,0,0,0-.46-2.52Zm-1.36,4h1.42v3h-1.42Zm2.45,0h3v3h-3Zm6-1.47v.47h-1.94v-2a8.43,8.43,0,0,1,.06-1h2.34A7.27,7.27,0,0,0,232.33,355.28Zm.9-3.52h-2.61a8.91,8.91,0,0,1,1.66-3.48l1.94,2.09A7.16,7.16,0,0,0,233.23,351.76Zm1.71-2.09-2-2.15a9,9,0,0,1,3.31-2.15l1.17,2.9A7.24,7.24,0,0,0,234.94,349.67ZM238.4,348l-1.19-3a9.36,9.36,0,0,1,2.14-.26h.2a9.21,9.21,0,0,1,2.53.36L241,348a7.24,7.24,0,0,0-1.24-.12A7.1,7.1,0,0,0,238.4,348Zm4.62-2.52a8.89,8.89,0,0,1,3,2.06l-1.8,1.88a7.48,7.48,0,0,0-2.27-1.2Zm6.47,7.25h3.12a8.44,8.44,0,0,0-.05,1v2h-3v-2C249.54,353.43,249.52,353.09,249.49,352.76Zm4.33-1a8.91,8.91,0,0,1,1.66-3.48l1.94,2.09a7.42,7.42,0,0,0-1,1.45v-.06Zm4.32-2.09-2-2.15a9,9,0,0,1,3.31-2.15l1.17,2.9A7.24,7.24,0,0,0,258.14,349.67ZM261.6,348l-1.19-2.95a8.83,8.83,0,0,1,2.14-.27h.2a9.08,9.08,0,0,1,2.52.36L264.15,348a7.24,7.24,0,0,0-1.24-.12A7.1,7.1,0,0,0,261.6,348Zm4.62-2.52a8.89,8.89,0,0,1,3,2.06l-1.8,1.88a7.48,7.48,0,0,0-2.27-1.2Zm3.64,2.83a8.84,8.84,0,0,1,1.61,3.42h-1.9v.37a7.49,7.49,0,0,0-1.41-2Zm1.79,4.42a8.43,8.43,0,0,1,.06,1v2h-1.43v-.47a7.26,7.26,0,0,0-.45-2.52Zm-1.37,4h1.43v3h-1.43Zm2.46,0h3v3h-3Zm6-1.47v.47h-2v-2c0-.34,0-.68.06-1h2.34A7.26,7.26,0,0,0,278.73,355.28Zm2.6-5.61-2-2.15a8.91,8.91,0,0,1,3.3-2.15l1.18,2.9A7.38,7.38,0,0,0,281.33,349.67ZM284.8,348l-1.2-3a9.43,9.43,0,0,1,2.14-.26H286a9.13,9.13,0,0,1,2.52.36L287.35,348a7.34,7.34,0,0,0-1.24-.12A7,7,0,0,0,284.8,348Zm4.62-2.52a9,9,0,0,1,3,2.06l-1.8,1.88a7.54,7.54,0,0,0-2.28-1.2Zm3.64,2.83a9,9,0,0,1,1.61,3.42h-2.08a7.62,7.62,0,0,0-1.23-1.65Zm1.79,4.42c0,.33.06.67.06,1v2h-1.43v-.47a7.26,7.26,0,0,0-.45-2.52Zm-1.37,4h1.43v3h-1.43Zm2.46,0h3v3h-3Zm6-1.47v.47H300v-2c0-.34,0-.68.06-1h2.34A7.26,7.26,0,0,0,301.93,355.28Zm2.6-5.61-2-2.15a9,9,0,0,1,3.31-2.15l1.18,2.9A7.29,7.29,0,0,0,304.53,349.67ZM308,348l-1.2-3a9.43,9.43,0,0,1,2.14-.26h.21a9.13,9.13,0,0,1,2.52.36L310.55,348a7.36,7.36,0,0,0-1.25-.12A7,7,0,0,0,308,348Zm4.62-2.52a9.09,9.09,0,0,1,3,2.06l-1.8,1.88a7.54,7.54,0,0,0-2.28-1.2Zm3.64,2.83a9,9,0,0,1,1.61,3.42h-2.09a7.58,7.58,0,0,0-1.22-1.65Zm1.79,4.42c0,.33.06.67.06,1v2h-1.43v-.47a7.5,7.5,0,0,0-.45-2.52Zm-1.37,4h1.43v3h-1.43Zm2.45,0h3v3h-3Zm6-1.47v.47h-1.95v-2a8.43,8.43,0,0,1,.06-1h2.34A7.26,7.26,0,0,0,325.13,355.28Zm.89-3.52h-2.61a9.05,9.05,0,0,1,1.66-3.48l1.95,2.09A7.21,7.21,0,0,0,326,351.76Zm1.71-2.09-2-2.15a9,9,0,0,1,3.31-2.15l1.18,2.9A7.19,7.19,0,0,0,327.73,349.67ZM331.2,348l-1.2-3a9.43,9.43,0,0,1,2.14-.26h.2a9.15,9.15,0,0,1,2.53.36L333.75,348a7.36,7.36,0,0,0-1.25-.12A6.9,6.9,0,0,0,331.2,348Zm4.61-2.52a8.89,8.89,0,0,1,3,2.06L337,349.45a7.66,7.66,0,0,0-2.28-1.2Zm3.65,2.83a9,9,0,0,1,1.61,3.43H339a7.58,7.58,0,0,0-1.22-1.65Zm1.79,4.44c0,.32.05.65.05,1v2h-1.42v-.47a7.55,7.55,0,0,0-.45-2.52Zm-1.37,4h1.42v3h-1.42Zm2.45,0h18v3h-18Zm19.14,4h8.88v3h-8.88Zm10.06,0h3.67v3h-3.67Zm0-1v-3h3.67v3Zm0-4v-2.69c0-.06,0-.11,0-.17h3.66v2.86Zm0-8h-10.1v-3h12.14A12.27,12.27,0,0,0,371.57,347.78Zm-10.1-12.72H454v4.75H361.47ZM454,347.78H443.88a12.23,12.23,0,0,0-2-3H454Zm-11.39,0h-4.1a6.91,6.91,0,0,0-.76-.77l2.13-2.57A11.19,11.19,0,0,1,442.6,347.78Zm.47,1a10.77,10.77,0,0,1,.79,3.11h-3.63a7.2,7.2,0,0,0-1-3.11Zm-2.81,4.11h3.66c0,.06,0,.11,0,.17v2.69h-3.67Zm0,7.84h3.67v3h-3.67Zm4.84,0H454v3H445.1Zm10.07-4h17.95v3H455.17Zm20.41-1.47v.47h-1.43v-2c0-.34,0-.67.06-1l1.82,0A7.55,7.55,0,0,0,475.58,355.28Zm.9-3.52h-2.1a9,9,0,0,1,1.62-3.43l1.7,1.77A7.58,7.58,0,0,0,476.48,351.76Zm2-2.31-1.8-1.88a9.09,9.09,0,0,1,3-2.06l1.09,2.74A7.54,7.54,0,0,0,478.45,349.45Zm3.26-1.43-1.12-2.85a9.13,9.13,0,0,1,2.52-.36h.21a9.43,9.43,0,0,1,2.14.26l-1.2,3a7,7,0,0,0-1.3-.13A7.36,7.36,0,0,0,481.71,348Zm4.71-2.65a9,9,0,0,1,3.31,2.15l-2,2.15a7.29,7.29,0,0,0-2.49-1.4Zm4,2.91a8.77,8.77,0,0,1,1.66,3.48h-2.6a7.67,7.67,0,0,0-1-1.39Zm1.84,4.48c0,.33.06.67.06,1v2h-1.95v-.47a7.26,7.26,0,0,0-.45-2.52Zm-1.89,4h1.95v3h-1.95Zm3,0h3v3h-3Zm5.47-1.47v.47h-1.43v-2c0-.34,0-.68.06-1h1.82A7.26,7.26,0,0,0,498.78,355.28Zm.89-3.52h-2.08a9,9,0,0,1,1.61-3.42l1.7,1.77A7.62,7.62,0,0,0,499.67,351.76Zm2-2.31-1.8-1.88a9,9,0,0,1,3-2.06l1.09,2.74A7.54,7.54,0,0,0,501.65,349.45Zm3.26-1.43-1.12-2.85a9.08,9.08,0,0,1,2.52-.36h.21a9.5,9.5,0,0,1,2.14.26l-1.2,3a7,7,0,0,0-1.31-.13A7.24,7.24,0,0,0,504.91,348Zm4.71-2.65a9,9,0,0,1,3.3,2.15l-2,2.15a7.38,7.38,0,0,0-2.49-1.4Zm5.8,7.39c0,.33.06.67.06,1v2h-2v-.47a7.5,7.5,0,0,0-.45-2.52Zm-1.89,4h2v3h-2Zm3,0h3v3h-3Zm5.48-1.47v.47h-1.43v-2a8.43,8.43,0,0,1,.06-1h1.82A7.26,7.26,0,0,0,522,355.28Zm.89-3.52h-2.09a9,9,0,0,1,1.62-3.42l1.7,1.77A7.62,7.62,0,0,0,522.87,351.76Zm2-2.31-1.8-1.88a8.89,8.89,0,0,1,3-2.06l1.08,2.74A7.48,7.48,0,0,0,524.85,349.45Zm3.26-1.43L527,345.17a9.21,9.21,0,0,1,2.53-.36h.2a9.36,9.36,0,0,1,2.14.26l-1.19,3a7.1,7.1,0,0,0-1.31-.13A7.24,7.24,0,0,0,528.11,348Zm4.7-2.65a9,9,0,0,1,3.31,2.15l-2,2.15a7.24,7.24,0,0,0-2.48-1.4Zm4,2.91a8.91,8.91,0,0,1,1.66,3.48h-2.61a7.16,7.16,0,0,0-1-1.39Zm1.83,4.48a8.43,8.43,0,0,1,.06,1v2h-1.94v-.47a7.5,7.5,0,0,0-.45-2.52Zm-1.88,4h1.94v3h-1.94Zm3,0h3v3h-3Zm5.48-1.47v.47h-1.43v-2a8.43,8.43,0,0,1,.06-1h1.82A7.26,7.26,0,0,0,545.18,355.28Zm.89-3.52H544a8.86,8.86,0,0,1,1.62-3.42l1.69,1.77A7.92,7.92,0,0,0,546.07,351.76Zm2-2.31-1.8-1.88a8.89,8.89,0,0,1,3-2.06l1.08,2.74A7.48,7.48,0,0,0,548.05,349.45Zm3.26-1.43-1.13-2.85a9.15,9.15,0,0,1,2.53-.36h.2a8.83,8.83,0,0,1,2.14.27L553.86,348a7.1,7.1,0,0,0-1.31-.13A7.24,7.24,0,0,0,551.31,348Zm4.7-2.65a9,9,0,0,1,3.31,2.15l-2,2.15a7.24,7.24,0,0,0-2.48-1.4Zm4,2.91a8.91,8.91,0,0,1,1.66,3.48h-2.58v.06a7.42,7.42,0,0,0-1-1.45Zm2.87,4.48H566a8.44,8.44,0,0,0-.05,1v2h-3v-2C562.9,353.43,562.88,353.09,562.85,352.76Zm8.39-3.31-1.79-1.88a8.89,8.89,0,0,1,3-2.06l1.08,2.74A7.66,7.66,0,0,0,571.24,349.45ZM574.5,348l-1.12-2.85a9.15,9.15,0,0,1,2.53-.36h.2a9.43,9.43,0,0,1,2.14.26l-1.2,3a6.9,6.9,0,0,0-1.3-.13A7.36,7.36,0,0,0,574.5,348Zm4.71-2.65a9,9,0,0,1,3.31,2.15l-2,2.15a7.19,7.19,0,0,0-2.49-1.4Zm4,2.91a9.05,9.05,0,0,1,1.66,3.48h-2.61a7.21,7.21,0,0,0-1-1.39Zm1.83,4.48a8.43,8.43,0,0,1,.06,1v2h-2v-.47a7.26,7.26,0,0,0-.45-2.52Zm-1.89,4h2v3h-2Zm3,0h3v3h-3Zm5.47-1.47v.47h-1.43v-2c0-.34,0-.68.06-1H592A7.5,7.5,0,0,0,591.57,355.28Zm.9-3.52h-2.09a9,9,0,0,1,1.61-3.42l1.7,1.77A7.58,7.58,0,0,0,592.47,351.76Zm2-2.31-1.8-1.88a9,9,0,0,1,3-2.06l1.08,2.74A7.54,7.54,0,0,0,594.44,349.45ZM597.7,348l-1.12-2.85a9.13,9.13,0,0,1,2.52-.36h.21a9.43,9.43,0,0,1,2.14.26l-1.2,3a7,7,0,0,0-1.3-.13A7.36,7.36,0,0,0,597.7,348Zm4.71-2.65a9,9,0,0,1,3.31,2.15l-2,2.15a7.29,7.29,0,0,0-2.49-1.4Zm1.26-.58h5.58v3h-2A10.07,10.07,0,0,0,603.67,344.79Zm5.58-1H455.17v-3H609.25ZM479.6,328.54h-10V325h10Zm0-4.56h-10v-3.55h10Zm0-4.55h-10v-3.56h10Zm0-4.56h-10v-3.56h10Zm0-4.56h-10v-3.56h10Zm0-4.56h-10V302.2h10Zm0-4.55h-10v-3.56h10Zm0-4.56h-10v-3.56h10Zm0-4.56h-10v-3.56h10Zm0-4.56h-10V284h10Zm0-4.56h-10v-3.55h10Zm0-4.55h-10v-3.56h10Zm0-4.56h-10v-3.56h10Zm0-4.56h-10v-2.52h10Zm-11,2.67h-16v-.54a2.83,2.83,0,0,0,2.56-2.81,2.78,2.78,0,0,0-.7-1.84h14.16ZM364.43,255.61H451v4.84H364.43ZM335.86,334.1h10v1.72h-10Zm24.43,2.72v3H206.21v-3Zm-155.08,7H188.87v.11a12,12,0,0,0-5.57-3.09h21.91Zm-27.44-2,.55,3.8a7.12,7.12,0,0,0-2,1l-2.35-3A11.07,11.07,0,0,1,177.77,341.8Zm-4.55,2.39,2.36,3a5.9,5.9,0,0,0-.55.57h-4.51A11,11,0,0,1,173.22,344.19Zm0,14.26v3.39h-3.77v-3.39Zm0,4.39v3.39h-3.77v-3.39Zm1-10.25a6.36,6.36,0,0,1,6.36-6.35h.29a6.37,6.37,0,0,1,6.36,6.35v28.6h-13Zm12.93-3.81h3.68a11,11,0,0,1,.65,3.69v.17h-3.25v-.05A7.29,7.29,0,0,0,187.15,348.78Zm20,15.94h1.95v3h-1.95Zm2.69,3V355.28a6.63,6.63,0,0,1,13.26,0V367.7Zm14-7h1.42v3h-1.42Zm2.45,0h3v3h-3Zm4,0h1.94v3h-1.94Zm2.69,7V355.28a6.63,6.63,0,0,1,12.62-2.83v.31h.14a6.62,6.62,0,0,1,.5,2.52V367.7Zm14-7h1.43v3h-1.43Zm2.46,0h3v3h-3Zm0-1v-3h3v3Zm4.05-3h1.94v3h-1.94Zm2.69,10.95V355.28a6.63,6.63,0,0,1,13.26,0V367.7Zm14-7h1.43v3h-1.43Zm2.46,0h3v3h-3Zm4,0h2v3h-2Zm2.69,7V355.28a6.62,6.62,0,0,1,.5-2.52h.3v-.63a6.63,6.63,0,0,1,12.47,3.15V367.7Zm14-7h1.43v3h-1.43Zm2.46,0h3v3h-3Zm4,0h1.95v3H300Zm2.69,7V355.28a6.62,6.62,0,0,1,.5-2.52h.05v-.12a6.63,6.63,0,0,1,12.71,2.64V367.7Zm14-7h1.43v3h-1.43Zm2.45,0h3v3h-3Zm4.05,0h1.95v3h-1.95Zm2.69,7V355.28a6.63,6.63,0,0,1,13.26,0V367.7Zm14-7h1.42v3h-1.42Zm2.45,0h18v3h-18Zm19.14,4h8.88v3h-8.88Zm10.06,0h3.67v3h-3.67Zm.08-13a11,11,0,0,1,.78-3h3.86a7.28,7.28,0,0,0-1,3Zm1.25-4a11.19,11.19,0,0,1,2.73-3.34l2.13,2.57a6.91,6.91,0,0,0-.76.77Zm5.65-1.38-2.12-2.57a11.35,11.35,0,0,1,3.24-1.53l.72,3.22A7.43,7.43,0,0,0,378.51,346.4Zm60.56-2.57L437,346.4a7.6,7.6,0,0,0-1.84-.88l.72-3.22A11.47,11.47,0,0,1,439.07,343.83Zm1.19,20.89h3.67v3h-3.67Zm4.84,0H454v3H445.1Zm10.07-4h17.95v3H455.17Zm19,0h1.43v3h-1.43Zm2.18,7V355.28a6.63,6.63,0,0,1,13.26,0V367.7Zm14-7h1.95v3h-1.95Zm3,0h3v3h-3Zm4,0h1.43v3h-1.43Zm2.17,7V355.28a6.64,6.64,0,0,1,12.72-2.64v.12h0a6.62,6.62,0,0,1,.5,2.52V367.7Zm14-7h2v3h-2Zm3,0h3v3h-3Zm4,0H522v3h-1.43Zm2.17,7V355.28a6.63,6.63,0,1,1,13.26,0V367.7Zm14-7h1.94v3h-1.94Zm3,0h3v3h-3Zm4,0h1.43v3h-1.43Zm2.17,7V355.28a6.63,6.63,0,0,1,13.26,0V367.7Zm14-10.95h1.94v3h-1.94Zm3,0h3v3h-3Zm3,4v3h-3v-3Zm1,0h1.42v3H567Zm2.17,7V355.28a6.62,6.62,0,0,1,.5-2.52h.14v-.31a6.63,6.63,0,0,1,12.62,2.83V367.7Zm14-7h2v3h-2Zm3,0h3v3h-3Zm4,0h1.43v3h-1.43Zm2.18-5.45a6.63,6.63,0,0,1,13.26,0V367.7H592.32Zm14,9.44h1.95v3h-1.95Zm2.93-11.94v0h0Zm0-1h-.15a9.87,9.87,0,0,0-1.15-3h1.3Zm1-3h13.31a12.13,12.13,0,0,0-.58,3.69v.17H610.25ZM624,352.47a11,11,0,0,1,.65-3.69h3.68a7.29,7.29,0,0,0-1.08,3.81v.05H624Zm4.25.12a6.36,6.36,0,0,1,6.36-6.35h.29a6.36,6.36,0,0,1,6.36,6.35v28.6h-13Zm14,10.25H646v3.39h-3.76Zm0-1v-3.39H646v3.39Zm-1.81-14.06a7.4,7.4,0,0,0-.55-.57l2.36-3a11,11,0,0,1,2.7,3.59Zm19.28-4H643.28a12,12,0,0,0-5.45-3h21.88Zm-33.12.11v-.11H610.25v-3h21.9A12,12,0,0,0,626.59,343.9Zm-17.34-4.09H455.17v-3H609.25Zm-139.63-4V334.1h10v1.72Zm10-70.05h-26v-7h-.39v-1H479.6Zm-116.8-11.1v-2.26h89.86v2.26Zm-17-3.23V238.56h6.84v12.88Zm7.84-12.88h6.83v9.17a1.27,1.27,0,0,0-.14.94,1.36,1.36,0,0,0,.14.33v2.44h-6.83Zm18.84,2.86v-5.3H383Zm-1,.51-4.37,2.2v-8h4.37Zm36.25-11.48L420,236l27,12.49c.1.05.09.09.09.11s-.07.11-.2.11h-9.23a.94.94,0,0,0-.55-.82l-23-10.52-5.76-2.71a1.8,1.8,0,0,0-1.06,0l-5.8,2.73-23,10.5h0a1,1,0,0,0-.56.82h-9.23c-.12,0-.18,0-.19-.11s0-.06.08-.11l27-12.5Zm0,5.12,7.38,3.37L436,248.67H379.67l22.19-10.42Zm61.9,3v12.88h-6.83V238.56Zm-7.83,12.88H455V249a1.36,1.36,0,0,0,.14-.33,1.27,1.27,0,0,0-.14-.94v-9.17h6.83ZM444,241.93v-5.81h4.36v8Zm-1-.51-10.53-5.3H443Zm35.21-6.3H449.34V235h-1v.1H430.46l-1.1-.55-9.13-4.73h58Zm-49.25.36,24.34,12.61a.3.3,0,0,1,.16.35.29.29,0,0,1-.3.23h-4.33a1.08,1.08,0,0,0-.65-1.13L420.38,235l-11.95-5.53a1.29,1.29,0,0,0-.7-.1,1.34,1.34,0,0,0-.71.1L395.09,235,367.3,247.54a1.08,1.08,0,0,0-.66,1.13h-4.32a.29.29,0,0,1-.3-.23.29.29,0,0,1,.16-.35l24.35-12.62,21.2-10.68Zm-42.84-.92-1.11.56H367.11V235h-1v.1H337.26v-5.28h58Zm-49.84,1.05-.44,18.27H206.21V233.77h130Zm-130,19.27H361.78v.73h1.39v1.2h-157Zm128.65,2.93v78H206.21v-3.73h.15v-8h-.15V309.91h0v-1.12h0v-51Zm-129.65,6.57h-7.65v-3.29h7.65ZM196.56,263a2.81,2.81,0,0,0-2.1-1h-6.52a2.83,2.83,0,0,0-.5,5.62v2.62H173.2v-2.61a2.83,2.83,0,0,0-.43-5.63h-6.52a2.79,2.79,0,0,0-1.83.7v-1.67h32.14Zm-40.82,2.4h7.68v.33h-7.68Zm0,1.36h7.68v2.94h-7.68Zm0,4h7.68v2.94h-7.68Zm0,4h7.68v2.67h-7.68Zm0,3.7h7.68v3h-7.68Zm0,9h7.68v3.5h-7.68Zm7.68,4.54v3.45h-7.68v-3.45Zm0,4.48v3.45h-7.68v-3.45Zm0,4.48v3.45h-7.68V300.9Zm0,4.49v3.44h-7.68v-3.44Zm0,4.48v3.45h-7.68v-3.45Zm0,4.48v3.45h-7.68v-3.45Zm-7.68,4.48h7.68v3.45h-7.68Zm0,22h21.89a12,12,0,0,0-8.22,7H155.74Zm0,8H169a11.83,11.83,0,0,0-.59,3.69v.17H155.74Zm0,9.67h12.71v3.39H155.74Zm0,4.39h12.71v3.39H155.74Zm0,4.39h12.71v3.39H155.74Zm13.71,0h3.77v3.39h-3.77Zm3.77,4.39v9.57h-3.77v-9.57Zm15,9.57v-9.57h3.25v9.57Zm0-10.57v-3.39h3.25v3.39Zm0-4.39v-3.39h3.25v3.39Zm0-4.39v-3.39h3.25v3.39Zm0-4.39v-3.81h3.25v3.81Zm4.25-3.81h12.73v3.81H192.48Zm14.71,18v-3h18.12v3Zm16.7-4v-3h1.42v3Zm2.45-3h3v3h-3Zm4,0h1.94v3h-1.94Zm16.69,3v-3h1.43v3Zm2.46-3h3v3h-3Zm4.05,0h1.83v-1h-1.83v-3h1.94v7h-1.94Zm16.69,3v-3h1.43v3Zm2.46-3h3v3h-3Zm4,0h2v3h-2Zm16.7,3v-3h1.43v3Zm2.46-3h3v3h-3Zm4,0h1.95v3H300Zm16.7,3v-3h1.43v3Zm2.45-3h3v3h-3Zm4.05,0h1.95v3h-1.95Zm16.7,3v-3h1.42v3Zm2.45-3h18v3h-18Zm19.14,4h8.88v3h-8.88Zm10.06,0h3.67v3h-3.67Zm11-23.52a8.29,8.29,0,0,0-1.24.11l-.72-3.23a12.6,12.6,0,0,1,2-.2,11.71,11.71,0,0,1,2.23.24l-.55,3.19a6.89,6.89,0,0,0-1.21-.11h-.56Zm7.92,23.52h3.28v3h-3.28Zm4.46,0h.5v3h-.5Zm1.67,0h3.48v3h-3.48Zm10.84-23.52a7.88,7.88,0,0,0-1.09.09l-.71-3.2a10.41,10.41,0,0,1,4.16,0l-.71,3.2a7.88,7.88,0,0,0-1.09-.09h-.56Zm7.92,23.52h3.47v3h-3.47Zm4.65,0h.5v3H420Zm1.68,0H425v3H421.7Zm10.64-23.52a6.89,6.89,0,0,0-1.21.11l-.56-3.19a11.82,11.82,0,0,1,2.24-.24,12.37,12.37,0,0,1,2,.2l-.71,3.23a8.53,8.53,0,0,0-1.24-.11h-.56Zm7.92,23.52h3.67v3h-3.67Zm4.84,0H454v3H445.1Zm10.07-4h17.95v3H455.17Zm19,0h1.43v3h-1.43Zm16.18,3v-3h1.95v3Zm3-3h3v3h-3Zm4,0h1.43v3h-1.43Zm16.18,3v-3h2v3Zm3-3h3v3h-3Zm4,0H522v3h-1.43Zm16.18,3v-3h1.94v3Zm3-3h3v3h-3Zm4,0h1.43v3h-1.43Zm16.18,3v-7h1.94v3H560v1h1.83v3Zm3-3h3v3h-3Zm4.05,0h1.42v3H567Zm16.17,3v-3h2v3Zm3-3h3v3h-3Zm4,0h1.43v3h-1.43Zm20.11-11.08H623v3.81H610.25Zm13.73,0h3.25v3.81H624Zm3.25,4.81v3.39H624v-3.39Zm0,4.39v3.39H624v-3.39Zm0,4.39v3.39H624v-3.39Zm0,4.39v9.57H624v-9.57Zm15,9.57v-9.57H646v9.57Zm0-10.57v-3.39H646v3.39Zm4.76-3.39h12.71v3.39H647Zm0-1v-3.39h12.71v3.39Zm0-4.39v-3.39h12.71v3.39Zm0-9.2v-.17a12.13,12.13,0,0,0-.58-3.69h13.29v3.86Zm12.71-12.83H610.25v-3h49.46Zm-40.81-4v-3.73h10.25v-8H628V323h14.25v1.09h-1.6v8H651v3.73Zm40.81-18H652v-3.45h7.67Zm0-4.48H652v-3.45h7.67Zm0-4.49H652v-3.44h7.67Zm0-4.48H652V300.9h7.67Zm0-4.48H652v-3.45h7.67Zm0-4.48H652v-3.45h7.67Zm0-9H652v-3.91h7.67Zm0-4.94H652v-3h7.67Zm0-4H652v-2.67h7.67Zm-7.67-3.7v-2.94h7.67v2.94Zm7.67-9.31H652v-3.29h7.67ZM651,262.76a2.8,2.8,0,0,0-1.84-.7h-6.51a2.83,2.83,0,0,0-.43,5.63v2.61H628v-2.62a2.83,2.83,0,0,0-.5-5.62H621a2.8,2.8,0,0,0-2.1,1v-1.93H651Zm-33.14,1.62h-7.65v-3.29h7.65Zm-8.65,44.41h0v1.12h0v14.16h-.15v8h.15v3.73H480.6v-78H609.25Zm-157-52v-1.2h1.39v-.73H609.25v1.93Zm158-18.84h6.92v13.85h-6.92Zm7.92,13.85V238h.29V236.2h32.68v17.68h-33Zm42.49-18.49v1.87h-43.2v.5h-.29V237h-6.92v-6.16H658.4v2.52Zm-43.5-8V227h35.52V225.3h5.71v4.51H610.25V225.3Zm-7.91,1.37v6.1H479.19v-6.1Zm-146.64-4.12H437.37v-9.63h25.24Zm1.6-19.7v4.06h-27v-.54h.45v-4.22h-.45V201.1h25v1.75Zm-88.08-9.13h-3.77V190a1.9,1.9,0,0,1,3.77-.3Zm11.73,2h-4.94v-9a2.47,2.47,0,0,1,4.94,0Zm53.34-7.58a1.9,1.9,0,0,1,1.9,1.9v3.68h-3.77v-4A1.89,1.89,0,0,1,441.2,188.14Zm-2.77,5.58H434v-5.4a2.22,2.22,0,0,1,4.44,0Zm-55.51,6.43h4.94v2h-4.94Zm5.94,0h7.47v2h-7.47Zm13.41-1h-4.73v-2.43h4.73Zm-4.73,1h4.73v2h-4.73Zm5.93,0h.66v2h-.66Zm6.59-1H405.4v-2.43h4.66Zm-4.66,1h4.66v2H405.4Zm5.93,0H412v2h-.65Zm6.59-1h-4.73v-2.43h4.73Zm-4.73,1h4.73v2h-4.73Zm5.94,0h7.47v2h-7.47Zm8.47,0h4.94v2H427.6Zm4.94-4.43H427.6v-9a2.47,2.47,0,0,1,4.94,0Zm0,1v2.43H427.6v-2.43Zm-5.94,2.43h-7.47v-2.43h7.47Zm-8.68-12.44v9h-4.73v-9a2.37,2.37,0,1,1,4.73,0ZM412,199.15h-.65v-2.43H412Zm-1.92-12.44v9H405.4v-9a2.33,2.33,0,1,1,4.66,0Zm-5.93,12.44h-.66v-2.43h.66Zm-1.86-12.44v9h-4.73v-9a2.37,2.37,0,1,1,4.73,0Zm-5.94,12.44h-7.47v-2.43h7.47Zm-8.47,0h-4.94v-2.43h4.94Zm-6.39-5.43H377v-5.4a2.22,2.22,0,0,1,4.44,0Zm.45,9.43h53.49v2.22H380.05v-2.22Zm-2.63,3.22h56.88v.54H379.29Zm82.25-6.27H436.17v2.05H434v-2h.22v-1H434v-2.43h.22v-1H434v-1h27.56Zm-93.12-26.33H447v2H368.42ZM445,170.48H432.19c-.42-20.94-11.63-33.25-15.91-37.2,15.12,3.5,26.34,16,26.34,30.89v.53H445Zm-43.41-37.66.12,0c-2.6,4.11-11.74,20-10.82,37.68h-6.3C385,146.31,400.14,133.92,401.54,132.82Zm-9.44,37.66c-1-19,9.84-35.91,11.17-37.9a35.66,35.66,0,0,1,8.92,0c1.33,2,12.18,18.88,11.16,37.9Zm21.7-37.68.11,0c1.41,1.1,16.52,13.49,17,37.66h-6.3C425.54,152.77,416.4,136.91,413.8,132.8Zm.92-4.34v3.4a39.63,39.63,0,0,0-6.94-.62h-.1a39.63,39.63,0,0,0-6.94.62v-3.4Zm-44.21,36.25h2.33v-.53c0-14.87,11.22-27.39,26.34-30.89-4.29,3.95-15.49,16.26-15.91,37.2H370.51ZM447,171.48v1.29H368.42v-1.29Zm-78.62,5.3H447v2H368.42Zm76.56,3v4.42c-2.32-1.31-10.07-3.4-35.85-3.4h-2.8c-25.79,0-33.53,2.09-35.85,3.4v-4.42Zm-74.5,5.63c.46-.49,4.61-3.61,35.85-3.61h2.8c31.94,0,35.56,3.26,35.85,3.58v8.33h-1V190a2.74,2.74,0,0,0-2.74-2.74,2.7,2.7,0,0,0-1.9.77,3.1,3.1,0,0,0-5.76-1.34v0a3.47,3.47,0,0,0-6.94,0v9h-7.47v-9a3.47,3.47,0,0,0-3.47-3.47h-.21a3.47,3.47,0,0,0-3.47,3.47v9h-.65v-9a3.47,3.47,0,0,0-3.47-3.47h-.27a3.46,3.46,0,0,0-3.46,3.47v9h-.66v-9a3.47,3.47,0,0,0-3.47-3.47h-.2a3.47,3.47,0,0,0-3.47,3.47v9h-7.47v-9a3.47,3.47,0,0,0-6.94,0v0a3.1,3.1,0,0,0-5.76,1.34,2.74,2.74,0,0,0-4.64,2v3.68h-1Zm-16.56,9.3h27.56v1h-.22v1h.22v2.43h-.22v1h.22v2h-2.19V200.1H353.92Zm-2.67,8.13h2.05V201.1h25v1.05h-.45v4.22h.45v.54h-27Zm-2.67,5.06H467.17v4h-30.8v10.63H378.9V210.76H348.58Zm4.26,3.85H377.9v10.79H352.84ZM352.52,225v-.06h0l0-1v-.36H462.94v.36l-.05,1h.05V225h15.25v3.84H419v.36l-10.37-5.38a1.34,1.34,0,0,0-.9-.11,1.37,1.37,0,0,0-.91.11l-10.36,5.38v-.36h-59.2V225Zm-16.26,1.67v6.1h-130v-6.1Zm-179.2-1.37h5.71V227h35.52V225.3h6.92v4.51H157.06Zm-2.26,8h2.25v-2.52h48.16V237h-6.92V235.7H198v-.5H154.8Zm2.14,9.25V236.2h6.38v15.62h-6.38Zm-4.84,12.3h3.64v-2.06h7.1v2.06h35.45v-2.06h6.92v4H152.1Zm53.11,2.93v2.28H155.74v-2.28Zm-49.47,65.51h7.68v.75h-7.68Zm7.68,8.77v3.73h-7.68v-3.73Zm-7.68,49.1v-9.57h12.71v9.57Zm36.74,0v-9.57h12.58v-1H192.48v-3.39h12.58v-1H192.48v-3.39h12.58v-1H192.48v-3.39h12.73v22.74Zm33.86-9.5v-3h3v3Zm23.2,0v-3h3v3Zm23.2,0v-3h3v3Zm23.2,0v-3h3v3Zm23.19,0v-3h3v3Zm23.2,0v-3h18v3Zm19.14,9.5v-8.5h8.88v8.5Zm10.06,0v-8.5h3.67v8.5Zm4.94,0V352.54a6.36,6.36,0,0,1,6.36-6.36h0a6.37,6.37,0,0,1,6.36,6.36v28.65Zm14,0v-8.5h3.28v8.5Zm4.46,0v-8.5h.5v8.5Zm1.67,0v-8.5h3.48v8.5Zm4.75,0V352.54a6.36,6.36,0,0,1,6.36-6.36h0a6.37,6.37,0,0,1,6.36,6.36v28.65Zm14,0v-8.5h3.47v8.5Zm4.65,0v-8.5h.5v8.5Zm1.68,0v-8.5H425v8.5Zm4.55,0V352.54a6.36,6.36,0,0,1,6.36-6.36h0a6.36,6.36,0,0,1,6.36,6.36v28.65Zm14,0v-8.5h3.67v8.5Zm4.84,0v-8.5H454v8.5Zm10.07-9.5v-3h17.95v3Zm38.14,0v-3h3v3Zm23.19,0v-3h3v3Zm23.2,0v-3h3v3Zm23.2,0v-3h3v3Zm23.2,0v-3h3v3Zm24.15,9.5V358.45H623v3.39H610.4v1H623v3.39H610.4v1H623v3.39H610.4v1H623v9.57Zm36.75,0v-9.57h12.71v9.57Zm12.71-45.37H652v-3.73h7.67ZM652,324.07v-.75h7.67v.75Zm7.67-64H610.25v-2.28h49.46Zm3.65-3.28H610.25v-4h6.92v2.06h35.45v-2.06h7.09v1.56h.5v.5h3.15Z"/><path class="cls-4" d="M590.83,294.5h14.56V271.24h2.42v-2h-19v2h2Zm13.56-1H591.83V271.24h12.56Z"/><path class="cls-4" d="M569.39,294.5H584V271.24h2.42v-2h-19v2h2Zm13.56-1H570.39V271.24H583Z"/><path class="cls-4" d="M548,294.5h14.56V271.24h2.42v-2H546v2h2Zm13.56-1H549V271.24h12.56Z"/><path class="cls-4" d="M526.51,294.5h14.56V271.24h2.41v-2h-19v2h2Zm13.56-1H527.51V271.24h12.56Z"/><path class="cls-4" d="M505.07,294.5h14.56V271.24H522v-2h-19v2h2Zm13.56-1H506.07V271.24h12.56Z"/><path class="cls-4" d="M483.62,294.5h14.57V271.24h2.41v-2h-19v2h2Zm13.57-1H484.62V271.24h12.57Z"/><path class="cls-4" d="M590.83,327.51h14.56V304.25h2.42v-2h-19v2h2Zm13.56-1H591.83V304.25h12.56Z"/><path class="cls-4" d="M569.39,327.51H584V304.25h2.42v-2h-19v2h2Zm13.56-1H570.39V304.25H583Z"/><path class="cls-4" d="M548,327.51h14.56V304.25h2.42v-2H546v2h2Zm13.56-1H549V304.25h12.56Z"/><path class="cls-4" d="M526.51,327.51h14.56V304.25h2.41v-2h-19v2h2Zm13.56-1H527.51V304.25h12.56Z"/><path class="cls-4" d="M505.07,327.51h14.56V304.25H522v-2h-19v2h2Zm13.56-1H506.07V304.25h12.56Z"/><path class="cls-4" d="M483.62,304.25v23.26h14.57V304.25h2.41v-2h-19v2Zm13.57,22.26H484.62V304.25h12.57Z"/><path class="cls-4" d="M428.64,307H430v19.46h10.49V307h1.71v-1.55H428.64Zm11.11,18.69h-8.94V307h8.94Z"/><path class="cls-4" d="M409.15,272.94H398.7v1h1v21.17h0v.5h16.08v-.5h0V273.94h1v-1h-7.61Zm-8.34,1h6.35v20.67h-6.35Zm13.84,0v20.67H408.3V273.94h6.35Z"/><path class="cls-4" d="M428.64,275.12H430v19.47h10.49V275.12h1.71v-1.54H428.64Zm11.11,18.7h-8.94v-18.7h8.94Z"/><path class="cls-4" d="M407.73,247.41h0a4.19,4.19,0,0,0,0-8.38h0a4.19,4.19,0,0,0,0,8.38Zm3.18-4.19a3.18,3.18,0,1,1-3.18-3.19A3.19,3.19,0,0,1,410.91,243.22Z"/><path class="cls-4" d="M814,24.84c-1,0-2.09-.06-3-.06-5,0-13.83.51-16.25,2.29V0h-1V32C759.62,36,726.37,49.91,726,50.07v0c-11.56,3.42-12.54,6.9-12.62,7.51h0v45h0v.08l.49,0-.34.35,20.9,20.66V330.06h.5l-.49.05c0,.3.57,3,10.61,5.64,9.08,2.36,28.26,5.16,68.07,5.16H814m-.25-312v1.42c-.88,0-1.78,0-2.73,0a75.51,75.51,0,0,1-10.23-.61v-.27A75.26,75.26,0,0,1,811,28.86C812,28.86,812.86,28.88,813.74,28.9Zm-14,1.71v.78c-1.55.13-3.11.28-4.66.44v-.68c0-.29.81-.66,2.23-1C798.08,30.31,798.9,30.47,799.78,30.61Zm1,.14c1.12.15,2.3.27,3.49.36-1.16.05-2.32.12-3.49.21Zm12.87-4.93a4.15,4.15,0,0,0-.2,1.17h-.39v.9l-2,0a82.7,82.7,0,0,0-10.23.62V26.4A75.26,75.26,0,0,1,811,25.78C811.93,25.78,812.81,25.8,813.65,25.82Zm-13.87.73v2.07c-.88.14-1.7.3-2.44.48-1.41-.36-2.18-.74-2.22-1S796.79,27,799.78,26.55Zm-4,3.06a5.11,5.11,0,0,0-1,.54V29.08A4.63,4.63,0,0,0,795.76,29.61ZM813.9,32H814m0,10.94-2.94-.06h-.39c-39.88,0-63.41,2.47-77.3,5.39,14.2-5.27,47.51-16.32,77.3-16.32,1.07,0,2.14,0,3.22,0m-78.48,91.44c0-.17.43-2.09,6.87-4.19v4.59c-3.15,1-5.53,2.21-6.8,3.62l-.07.08Zm7.87-4.51a79.1,79.1,0,0,1,9.7-2.14v4.63a80.51,80.51,0,0,0-9.7,2.1Zm10.7-2.3c2.79-.44,6-.86,9.7-1.23V120c-3.38.34-6.65.74-9.7,1.21Zm52.51,1.6c-2.79,0-6.08,0-9.7.09v-4.61c3.07,0,6.3-.07,9.7-.08Zm-10.7.11c-3.06.06-6.33.15-9.71.27V114c3-.1,6.28-.18,9.71-.24Zm-10.71.31c-3.17.12-6.43.28-9.7.48v-4.66q4.5-.27,9.7-.46Zm-10.7.54c-3.27.21-6.53.46-9.7.76v-4.65c2.93-.28,6.15-.54,9.7-.77ZM763.69,121V337.82c-3.7-.4-6.91-.84-9.7-1.29V122.25C756.78,121.81,760,121.38,763.69,121Zm1-.1c2.93-.28,6.15-.55,9.7-.77V338.76q-5.31-.37-9.7-.84Zm10.7-.83c3-.19,6.23-.34,9.7-.47V339.36q-5.21-.23-9.7-.54Zm10.7-.51c3-.11,6.28-.19,9.71-.25v220.4c-3.43-.08-6.66-.18-9.71-.31Zm10.71-.27q4.61-.08,9.7-.08V339.89q-5.1,0-9.7-.15ZM814,118.23c-2,0-4,0-6.06,0h-.45v-4.6h.18l6.33,0m0-1-6.39,0h-.73c-5.38,0-12.84.08-20.94.38l-5.14-23.62c8.71-.35,18.59-.55,29.82-.55h.38l3,.06m-34.16.53L785,113c-9.88.37-20.6,1.08-29.65,2.37L736.17,93.66C745.51,91.91,759.38,90.25,779.85,89.41ZM735,93.88l19.13,21.69c-9.11,1.38-16.35,3.38-19,6.27a4.06,4.06,0,0,0-.5.7l-20.28-20c.29-.77,2.09-3.76,12.65-6.75C729.23,95.14,731.85,94.51,735,93.88ZM735.42,330v-201l.29,0s.19-2,6.58-4.11v209C736.11,331.87,735.46,330.12,735.42,330Zm7.87,4.16V124.6a74.62,74.62,0,0,1,9.7-2.18V336.36A80.3,80.3,0,0,1,743.29,334.18Zm70.7,5.73h-.88l-5.61,0V119.21H808c2.07,0,4.09,0,6,0m0-31.35-2.94-.06h-.39c-76.15,0-92.71,9-96.31,13V57.73c0-.13.68-3.54,12.7-6.93,11.18-3.17,34.75-6.93,83.61-6.93h.38l2.93.06"/><path class="cls-4" d="M732.29,70.53a6.58,6.58,0,0,0,4.21-2.63,7,7,0,0,0,1-4.87l-.05-.41-2.64.59.05.35a5.06,5.06,0,0,1,0,1.6,3.57,3.57,0,0,1-.49,1.36,3.65,3.65,0,0,1-1,1,4.1,4.1,0,0,1-1.47.62,4.51,4.51,0,0,1-2.13,0,3.94,3.94,0,0,1-1.64-.87A5,5,0,0,1,727,65.73a9.51,9.51,0,0,1-.77-2.16,8.05,8.05,0,0,1-.19-2.12,5.39,5.39,0,0,1,.42-1.91,4.13,4.13,0,0,1,1.11-1.49,4.39,4.39,0,0,1,1.92-.89,4.18,4.18,0,0,1,2.54.16,3.25,3.25,0,0,1,1.72,1.77l.13.28,2.61-.59-.15-.4a5.7,5.7,0,0,0-1.21-2,5.43,5.43,0,0,0-1.74-1.25,6.34,6.34,0,0,0-2.1-.51,8.21,8.21,0,0,0-2.3.18A7.52,7.52,0,0,0,726,56.13a6.68,6.68,0,0,0-1.87,2.21,7.73,7.73,0,0,0-.79,2.82,10.22,10.22,0,0,0,.22,3.14,10.48,10.48,0,0,0,1.11,2.93,7.26,7.26,0,0,0,1.85,2.2,6.4,6.4,0,0,0,2.56,1.18,6.48,6.48,0,0,0,1.34.13A8.68,8.68,0,0,0,732.29,70.53ZM727,68.84a6.74,6.74,0,0,1-1.66-2,9.7,9.7,0,0,1-1-2.72,9.09,9.09,0,0,1-.21-2.91,6.79,6.79,0,0,1,.71-2.54,5.73,5.73,0,0,1,1.65-2,6.8,6.8,0,0,1,2.64-1.18,7.43,7.43,0,0,1,1.61-.18l.46,0a5.52,5.52,0,0,1,1.85.45,4.69,4.69,0,0,1,2.39,2.4l-1.17.27a3.92,3.92,0,0,0-2-1.89h0a4.91,4.91,0,0,0-3-.19,5,5,0,0,0-2.24,1,4.7,4.7,0,0,0-1.31,1.76,6,6,0,0,0-.49,2.18,9.2,9.2,0,0,0,.21,2.32,9.88,9.88,0,0,0,.83,2.33,6,6,0,0,0,1.38,1.82,4.82,4.82,0,0,0,2,1,5.24,5.24,0,0,0,2.49,0,4.7,4.7,0,0,0,1.73-.74A4.25,4.25,0,0,0,735,66.91a4.42,4.42,0,0,0,.59-1.63,6.15,6.15,0,0,0,0-1.49l1.15-.25a6.13,6.13,0,0,1-.9,3.94,5.8,5.8,0,0,1-3.75,2.31,6.69,6.69,0,0,1-2.87.08A5.56,5.56,0,0,1,727,68.84Z"/><path class="cls-4" d="M739.09,64a7.74,7.74,0,0,0,1.71,2.37,6.77,6.77,0,0,0,4.65,1.8,9.43,9.43,0,0,0,1.16-.08,7.55,7.55,0,0,0,3.1-1.07,6.84,6.84,0,0,0,2.07-2.08,7.59,7.59,0,0,0,1-2.73,9.91,9.91,0,0,0,.07-3,9.65,9.65,0,0,0-.84-2.91,7.69,7.69,0,0,0-1.71-2.37,6.82,6.82,0,0,0-2.53-1.48,7.34,7.34,0,0,0-3.28-.25,7.23,7.23,0,0,0-3.1,1.08,7,7,0,0,0-2.07,2.08,7.76,7.76,0,0,0-1,2.74,9.84,9.84,0,0,0-.07,3A10.17,10.17,0,0,0,739.09,64Zm0-5.8h0a7,7,0,0,1,.94-2.47,6.12,6.12,0,0,1,1.84-1.85,6.55,6.55,0,0,1,2.79-1,7.57,7.57,0,0,1,1-.07,6.06,6.06,0,0,1,4.16,1.61,7.1,7.1,0,0,1,1.54,2.14,9.47,9.47,0,0,1,.78,2.69,9.36,9.36,0,0,1-.06,2.8,6.86,6.86,0,0,1-1,2.46,5.9,5.9,0,0,1-1.84,1.85,6.68,6.68,0,0,1-2.79,1,6.58,6.58,0,0,1-2.94-.2,6,6,0,0,1-2.25-1.32,6.84,6.84,0,0,1-1.55-2.14A9,9,0,0,1,739,61,8.75,8.75,0,0,1,739.06,58.2Z"/><path class="cls-4" d="M740.77,63.06A6.35,6.35,0,0,0,742,65a5.07,5.07,0,0,0,1.88,1.26,4.73,4.73,0,0,0,1.71.3,5.87,5.87,0,0,0,.82-.06,5.14,5.14,0,0,0,2.38-.88,5,5,0,0,0,1.49-1.7,6.14,6.14,0,0,0,.69-2.17,8.78,8.78,0,0,0,0-2.29,9.18,9.18,0,0,0-.59-2.23,6.43,6.43,0,0,0-1.22-1.91A4.87,4.87,0,0,0,747.27,54a5.11,5.11,0,0,0-2.53-.25,5.24,5.24,0,0,0-2.38.89,5.05,5.05,0,0,0-1.49,1.7,6.59,6.59,0,0,0-.69,2.16,8.85,8.85,0,0,0,0,2.3A9,9,0,0,0,740.77,63.06Zm.16-4.42a5.55,5.55,0,0,1,.6-1.91,4.29,4.29,0,0,1,1.27-1.45,4.36,4.36,0,0,1,2-.74,4.56,4.56,0,0,1,.73,0,3.87,3.87,0,0,1,1.43.25,4.14,4.14,0,0,1,1.6,1.07,5.68,5.68,0,0,1,1.08,1.69,8.13,8.13,0,0,1,.54,2,8.28,8.28,0,0,1,0,2.11,5.57,5.57,0,0,1-.61,1.9A4.2,4.2,0,0,1,748.34,65a4.43,4.43,0,0,1-2,.75,4.34,4.34,0,0,1-2.16-.2,4.29,4.29,0,0,1-1.6-1.07,5.46,5.46,0,0,1-1.07-1.69,8,8,0,0,1-.54-2A7.39,7.39,0,0,1,740.93,58.64Z"/><path class="cls-4" d="M765.76,65.86l-.2-2.38-7.72.65-1.09-12.94-2.69.22,1.29,15.33ZM756.06,52l1.09,12.94,7.72-.65.08.89-8.91.75L754.87,52.1Z"/><path class="cls-4" d="M769.17,63.29l-.75-13-2.69.15.88,15.36,10.42-.6-.13-2.39ZM767.32,65l-.8-13.86,1.2-.07.74,13,7.73-.44,0,.88Z"/><path class="cls-4" d="M788.71,62.43l-8.21.29-.16-4.31,7.6-.27-.08-2.39-7.6.28-.14-3.9,8.15-.29-.09-2.39-10.84.39.55,15.36,10.9-.38Zm-10.1,2-.49-13.87,9.34-.34,0,.89-8.15.29.2,5.4,7.59-.27,0,.89-7.59.27.2,5.81,8.22-.3,0,.89Z"/><path class="cls-4" d="M791.51,62.72a7.1,7.1,0,0,0,2.34,1.69,7.24,7.24,0,0,0,3,.59H797a7.5,7.5,0,0,0,2.69-.57,5.25,5.25,0,0,0,1.81-1.25l.42,1.41,1.89,0-.14-8.45-7.16.11,0,2.39,4.67-.07a4.44,4.44,0,0,1-.23,1.38,3.84,3.84,0,0,1-.8,1.39,3.88,3.88,0,0,1-1.35.95,4.86,4.86,0,0,1-1.87.37,4.36,4.36,0,0,1-2-.41,4.27,4.27,0,0,1-1.46-1.16,5.25,5.25,0,0,1-.93-1.73,7,7,0,0,1-.34-2.09,8.16,8.16,0,0,1,.24-2.2,5.65,5.65,0,0,1,.8-1.88,4.43,4.43,0,0,1,1.41-1.31,4.38,4.38,0,0,1,2.1-.52,6.14,6.14,0,0,1,1.45.16,3.93,3.93,0,0,1,1.2.52,3.13,3.13,0,0,1,.87.87,3.64,3.64,0,0,1,.5,1.3l.06.31,2.7-.05-.08-.43a6.45,6.45,0,0,0-.86-2.33,5.74,5.74,0,0,0-1.51-1.59,6.1,6.1,0,0,0-2-.89A8.94,8.94,0,0,0,796.7,49a7.05,7.05,0,0,0-3.2.73,6.91,6.91,0,0,0-2.27,1.87,8,8,0,0,0-1.33,2.68,10.56,10.56,0,0,0-.41,3.15,8.81,8.81,0,0,0,.54,2.89A7.44,7.44,0,0,0,791.51,62.72Zm-.89-8.29a7.22,7.22,0,0,1,1.2-2.42,6,6,0,0,1,2-1.66,6.22,6.22,0,0,1,2.86-.65h.15a8,8,0,0,1,2,.24,5.3,5.3,0,0,1,1.78.78A4.8,4.8,0,0,1,802,52.09a5.05,5.05,0,0,1,.66,1.62l-1.18,0a4.18,4.18,0,0,0-.55-1.27,3.83,3.83,0,0,0-1.08-1.08,4.48,4.48,0,0,0-1.43-.61,6.7,6.7,0,0,0-1.64-.19,5.12,5.12,0,0,0-2.46.62,4.94,4.94,0,0,0-1.66,1.55,6.22,6.22,0,0,0-.91,2.12,9.1,9.1,0,0,0-.26,2.38,7.71,7.71,0,0,0,.38,2.31,6.11,6.11,0,0,0,1,2,5.09,5.09,0,0,0,1.72,1.36,4.91,4.91,0,0,0,2.34.49,5.58,5.58,0,0,0,2.16-.43,4.58,4.58,0,0,0,2.57-2.79,5.4,5.4,0,0,0,.25-2l0-.36-4.65.07,0-.89,5.66-.09.11,7h-.57l-.67-2.27-.45.62a4.47,4.47,0,0,1-1.94,1.55,6.68,6.68,0,0,1-5.2,0,6.21,6.21,0,0,1-2.09-1.5A6.82,6.82,0,0,1,790.73,60a7.87,7.87,0,0,1-.49-2.64A9.85,9.85,0,0,1,790.62,54.43Z"/><path class="cls-4" d="M814,55.51l-5.47,0,0-3.9,5.43,0m0,10.61-5.52-.05,0-4.31,5.49,0m0-8.68-8.11-.08-.13,15.38,8.24.07m0-.75-7.49-.06.13-13.88L814,50m0,7.17-6.23,0,0,5.81L814,63m0-12.11-6.18-.05,0,5.4,6.22.06"/><path class="cls-4" d="M742.84,82.4a4,4,0,0,0-1.42-1.06,6,6,0,0,0-1.73-.46c-.59-.07-1.2-.12-1.8-.14l-1.76,0a9.64,9.64,0,0,1-1.5-.13,2.67,2.67,0,0,1-1-.4,1.17,1.17,0,0,1-.46-.76,2.11,2.11,0,0,1,0-1,1.86,1.86,0,0,1,.48-.75,2.94,2.94,0,0,1,.84-.53,5.11,5.11,0,0,1,1.09-.34,3.8,3.8,0,0,1,2.35.17,2.68,2.68,0,0,1,1.36,1.79l.1.32,2.52-.51-.09-.37a5.58,5.58,0,0,0-.93-2.09,4.47,4.47,0,0,0-1.54-1.3,5.09,5.09,0,0,0-2-.53,8.34,8.34,0,0,0-2.2.16,7.69,7.69,0,0,0-2,.67,5.73,5.73,0,0,0-1.62,1.18,4.12,4.12,0,0,0-1.07,3.84,3.53,3.53,0,0,0,.81,1.74,3.75,3.75,0,0,0,1.4,1,6.48,6.48,0,0,0,1.71.39c.58,0,1.19.09,1.79.1l1.76,0a7.44,7.44,0,0,1,1.49.17,2.54,2.54,0,0,1,1,.47,1.53,1.53,0,0,1,.5.91A2,2,0,0,1,741,86a1.87,1.87,0,0,1-.58.81,3.41,3.41,0,0,1-1,.59,6.94,6.94,0,0,1-1.21.36,5.92,5.92,0,0,1-1.51.11,3.71,3.71,0,0,1-1.32-.32,2.83,2.83,0,0,1-1.6-2.11l-.08-.37-2.54.51.08.37a5.46,5.46,0,0,0,1,2.32A4.83,4.83,0,0,0,734,89.68a6.11,6.11,0,0,0,2.21.57l.61,0a9.46,9.46,0,0,0,3.84-.84,6.39,6.39,0,0,0,1.76-1.18,4.77,4.77,0,0,0,1.13-1.73,4,4,0,0,0,.14-2.27A4.11,4.11,0,0,0,742.84,82.4Zm0,3.86a4,4,0,0,1-1,1.45,5.38,5.38,0,0,1-1.55,1,8.35,8.35,0,0,1-4.09.76,5.34,5.34,0,0,1-1.94-.5,4,4,0,0,1-1.46-1.2,4.54,4.54,0,0,1-.77-1.64l1.07-.22a3.54,3.54,0,0,0,1.93,2.28,4.59,4.59,0,0,0,1.6.39,6.54,6.54,0,0,0,1.7-.13,7.33,7.33,0,0,0,1.34-.4,4.27,4.27,0,0,0,1.19-.71,2.73,2.73,0,0,0,.79-1.11,2.79,2.79,0,0,0,.08-1.56,2.2,2.2,0,0,0-.77-1.35,3.31,3.31,0,0,0-1.34-.61,8.31,8.31,0,0,0-1.65-.19l-1.75,0c-.59,0-1.17,0-1.74-.1a5.76,5.76,0,0,1-1.51-.34,3,3,0,0,1-1.12-.76,2.86,2.86,0,0,1-.63-1.38,3.52,3.52,0,0,1,.06-1.78,3.48,3.48,0,0,1,.82-1.4,5.1,5.1,0,0,1,1.41-1,7.25,7.25,0,0,1,1.77-.6,7.72,7.72,0,0,1,2-.15,4.35,4.35,0,0,1,1.68.45,3.68,3.68,0,0,1,1.28,1.08A4.44,4.44,0,0,1,741,78l-1.09.23a3.3,3.3,0,0,0-1.66-1.93,4.59,4.59,0,0,0-2.81-.23,6.52,6.52,0,0,0-1.23.39,3.56,3.56,0,0,0-1.07.68,2.53,2.53,0,0,0-.67,1,2.81,2.81,0,0,0,0,1.42,1.85,1.85,0,0,0,.76,1.23,3.49,3.49,0,0,0,1.32.53,10.21,10.21,0,0,0,1.63.14l1.74,0c.59,0,1.17.06,1.75.13a5.26,5.26,0,0,1,1.51.41,3.23,3.23,0,0,1,1.15.85,3.39,3.39,0,0,1,.66,1.52A3.29,3.29,0,0,1,742.83,86.26Z"/><path class="cls-4" d="M755.13,74.3l-.28-2.37-12.37,1.45.28,2.37,4.85-.56,1.51,12.9,2.68-.32-1.51-12.9ZM751,87.12l-1.19.14-1.51-12.91-4.85.57-.1-.88,10.87-1.28.11.89-4.85.57Z"/><path class="cls-4" d="M758.42,71.71l-4.83,15.78,2.79-.21,1.31-4.51,5.64-.42,1.93,4.27,3-.22-7.14-14.89Zm7.3,14.12-1.92-4.27-6.69.5-1.31,4.51-1.17.09L759,72.42l1.64-.12,6.44,13.43Z"/><path class="cls-4" d="M760.09,73.35l-.53,0-2.18,7.76,6-.45-3.16-7.11Zm-1.7,7L760,74.79,762.27,80Z"/><path class="cls-4" d="M776.92,70.69l-12.44.55.11,2.39,4.87-.22.58,13,2.69-.12-.58-13,4.87-.22Zm-5.55,1.89.58,13-1.2,0-.58-13-4.87.22,0-.89,10.94-.49,0,.89Z"/><path class="cls-4" d="M778.08,70.69l.4,15.38,2.69-.07-.4-15.38Zm1.13,14.61-.36-13.88,1.19,0,.36,13.88Z"/><path class="cls-4" d="M795.61,72.57a6.89,6.89,0,0,0-2.33-1.79,8,8,0,0,0-6.43,0,6.8,6.8,0,0,0-2.31,1.82,7.52,7.52,0,0,0-1.37,2.58,10,10,0,0,0-.44,3,9.71,9.71,0,0,0,.49,3,7.59,7.59,0,0,0,1.4,2.56A6.78,6.78,0,0,0,787,85.55a7.25,7.25,0,0,0,3.14.64h.08a7.4,7.4,0,0,0,3.21-.69,6.71,6.71,0,0,0,2.3-1.8,7.66,7.66,0,0,0,1.37-2.59,9.62,9.62,0,0,0,.44-3,10,10,0,0,0-.48-3A7.69,7.69,0,0,0,795.61,72.57Zm.74,8.32a7,7,0,0,1-1.24,2.33,6,6,0,0,1-2.05,1.61,6.68,6.68,0,0,1-2.89.61,6.6,6.6,0,0,1-2.89-.57,5.84,5.84,0,0,1-2.08-1.57A6.89,6.89,0,0,1,783.93,81a9.1,9.1,0,0,1,0-5.53h0a6.85,6.85,0,0,1,1.23-2.33,6.23,6.23,0,0,1,2.06-1.62,6.64,6.64,0,0,1,2.88-.62h.07a6.62,6.62,0,0,1,2.83.58A6.2,6.2,0,0,1,795,73.05a7.1,7.1,0,0,1,1.27,2.31,9.43,9.43,0,0,1,.44,2.76A9.1,9.1,0,0,1,796.35,80.89Z"/><path class="cls-4" d="M794.26,73.81a4.93,4.93,0,0,0-1.71-1.49,5.19,5.19,0,0,0-2.43-.55h0a5.18,5.18,0,0,0-2.47.59,4.93,4.93,0,0,0-1.69,1.51,6.36,6.36,0,0,0-.95,2.06,9.24,9.24,0,0,0-.28,2.28,8.78,8.78,0,0,0,.32,2.28h0a6.25,6.25,0,0,0,1,2.05,4.93,4.93,0,0,0,4.14,2h0a5.07,5.07,0,0,0,2.47-.59,4.92,4.92,0,0,0,1.7-1.5,6.62,6.62,0,0,0,.94-2.07,8.92,8.92,0,0,0,0-4.55A6.27,6.27,0,0,0,794.26,73.81Zm.28,6.42a5.49,5.49,0,0,1-.83,1.82,4.24,4.24,0,0,1-1.44,1.28,4.33,4.33,0,0,1-2.11.49h0a4.31,4.31,0,0,1-2.07-.46,4.24,4.24,0,0,1-1.46-1.26,5.6,5.6,0,0,1-.86-1.81,8,8,0,0,1,0-4.17,5.49,5.49,0,0,1,.83-1.82A4.23,4.23,0,0,1,788,73a4.46,4.46,0,0,1,2.12-.5,4.19,4.19,0,0,1,2.11.47,4,4,0,0,1,1.46,1.26,5.45,5.45,0,0,1,.86,1.8,8.08,8.08,0,0,1,0,4.18Z"/><path class="cls-4" d="M809,81.63l-7-11.14-2.65,0-.22,15.37,2.6,0L801.83,75l6.95,11,2.71,0,.22-15.38-2.6,0Zm.89-10.28,1.1,0-.2,13.88-1.55,0-7.37-11.67-.15-.17h-.58l-.16,11.74-1.1,0,.2-13.87,1.49,0L809,83l.15.18h.58Z"/></g></g></svg>