<svg width="50" height="30" viewBox="0 0 50 30" fill="none" xmlns="http://www.w3.org/2000/svg">
<path fill-rule="evenodd" clip-rule="evenodd" d="M12.2999 9.93741C12.7309 -2.37562 30.0922 -3.42222 32.9858 7.78263C36.4335 7.53637 39.758 9.44489 40.743 12.831C54.4105 12.5231 50.8397 32.4087 35.8178 26.8678C31.6314 31.1158 22.5197 30.8696 17.9023 27.1757C-4.13798 35.2407 -5.61554 9.50646 12.2999 9.93741ZM35.3253 24.9593C32.4317 29.2073 22.6429 29.8845 18.2717 25.3903C-2.90667 33.7631 -3.46076 9.50646 13.9622 11.6612C12.6077 -1.08275 30.5232 -1.6984 31.7545 9.56802C36.6797 8.33672 39.5117 11.9691 39.4502 14.4932C52.2557 12.6463 49.4853 31.239 35.3253 24.9593Z" fill="#273954" fill-opacity="0.5"/>
</svg>
