<svg width="29" height="17" viewBox="0 0 29 17" fill="none" xmlns="http://www.w3.org/2000/svg">
<path fill-rule="evenodd" clip-rule="evenodd" d="M7.32139 5.6312C7.5656 -1.34618 17.4037 -1.93926 19.0434 4.41016C20.9971 4.27061 22.881 5.35211 23.4392 7.27089C31.184 7.09645 29.1606 18.3649 20.6482 15.2251C18.2759 17.6323 13.1126 17.4928 10.4961 15.3995C-1.99341 19.9697 -2.8307 5.38699 7.32139 5.6312ZM20.3691 14.1436C18.7294 16.5508 13.1824 16.9346 10.7054 14.3878C-1.29567 19.1324 -1.60966 5.38699 8.26334 6.60803C7.49583 -0.613557 17.6479 -0.962426 18.3457 5.42188C21.1366 4.72414 22.7414 6.78247 22.7065 8.21283C29.963 7.16622 28.3931 17.7021 20.3691 14.1436Z" fill="#273954" fill-opacity="0.3"/>
</svg>
