<svg width="158" height="28" viewBox="0 0 158 28" fill="none" xmlns="http://www.w3.org/2000/svg">
<path d="M48.6766 17.0118V25.9649H46.0398V17.0118H44.9148V14.5509H46.0398V10.3673H48.6766V14.5509H50.7273V17.0118H48.6766ZM62.3453 14.5509H64.9938V25.9649H62.3453V24.7696C61.2594 25.7852 60.0914 26.2931 58.8414 26.2931C57.2633 26.2931 55.9586 25.7227 54.9273 24.5821C53.9039 23.4181 53.3922 21.9649 53.3922 20.2227C53.3922 18.5118 53.9039 17.086 54.9273 15.9454C55.9508 14.8048 57.232 14.2345 58.7711 14.2345C60.0992 14.2345 61.2906 14.7813 62.3453 15.8751V14.5509ZM56.0875 20.2227C56.0875 21.3165 56.3805 22.2071 56.9664 22.8946C57.568 23.5899 58.3258 23.9376 59.2398 23.9376C60.2164 23.9376 61.0055 23.6017 61.607 22.9298C62.2086 22.2345 62.5094 21.3517 62.5094 20.2813C62.5094 19.211 62.2086 18.3282 61.607 17.6329C61.0055 16.9532 60.2242 16.6134 59.2633 16.6134C58.357 16.6134 57.5992 16.9571 56.9898 17.6446C56.3883 18.3399 56.0875 19.1993 56.0875 20.2227ZM69.5219 14.5509H72.1586V15.6056C72.6664 15.0743 73.1 14.7149 73.4594 14.5274C73.8422 14.3321 74.3227 14.2345 74.9008 14.2345C76.1898 14.2345 77.2094 14.797 77.9594 15.922C78.7875 14.797 79.9086 14.2345 81.3227 14.2345C83.893 14.2345 85.1781 15.7931 85.1781 18.9102V25.9649H82.5297V19.6251C82.5297 18.5313 82.3969 17.7579 82.1312 17.3048C81.8578 16.8438 81.4086 16.6134 80.7836 16.6134C80.057 16.6134 79.5258 16.8868 79.1898 17.4337C78.8617 17.9806 78.6977 18.8595 78.6977 20.0704V25.9649H76.0492V19.6602C76.0492 17.629 75.4633 16.6134 74.2914 16.6134C73.5492 16.6134 73.0062 16.8907 72.6625 17.4454C72.3266 18.0001 72.1586 18.8751 72.1586 20.0704V25.9649H69.5219V14.5509ZM92.343 14.5509V21.1017C92.343 22.9923 93.0891 23.9376 94.5813 23.9376C96.0734 23.9376 96.8195 22.9923 96.8195 21.1017V14.5509H99.4563V21.1602C99.4563 22.0743 99.343 22.8634 99.1164 23.5274C98.8977 24.1212 98.5188 24.6563 97.9797 25.1329C97.0891 25.9063 95.9563 26.2931 94.5813 26.2931C93.2141 26.2931 92.0852 25.9063 91.1945 25.1329C90.6477 24.6563 90.2609 24.1212 90.0344 23.5274C89.8156 22.9962 89.7063 22.2071 89.7063 21.1602V14.5509H92.343ZM103.984 6.17197H106.621V15.5001C107.559 14.6563 108.594 14.2345 109.727 14.2345C111.016 14.2345 112.047 14.6524 112.82 15.4884C113.477 16.2149 113.805 17.3751 113.805 18.9688V25.9649H111.168V19.2149C111.168 18.3009 111.004 17.6407 110.676 17.2345C110.355 16.8204 109.836 16.6134 109.117 16.6134C108.195 16.6134 107.547 16.8985 107.172 17.4688C106.805 18.047 106.621 19.0392 106.621 20.4454V25.9649H103.984V6.17197ZM126.77 14.5509H129.419V25.9649H126.77V24.7696C125.684 25.7852 124.516 26.2931 123.266 26.2931C121.688 26.2931 120.384 25.7227 119.352 24.5821C118.329 23.4181 117.817 21.9649 117.817 20.2227C117.817 18.5118 118.329 17.086 119.352 15.9454C120.376 14.8048 121.657 14.2345 123.196 14.2345C124.524 14.2345 125.716 14.7813 126.77 15.8751V14.5509ZM120.512 20.2227C120.512 21.3165 120.805 22.2071 121.391 22.8946C121.993 23.5899 122.751 23.9376 123.665 23.9376C124.641 23.9376 125.43 23.6017 126.032 22.9298C126.634 22.2345 126.934 21.3517 126.934 20.2813C126.934 19.211 126.634 18.3282 126.032 17.6329C125.43 16.9532 124.649 16.6134 123.688 16.6134C122.782 16.6134 122.024 16.9571 121.415 17.6446C120.813 18.3399 120.512 19.1993 120.512 20.2227ZM142.83 15.0431V18.547C142.228 17.8126 141.689 17.3087 141.212 17.0352C140.744 16.754 140.193 16.6134 139.56 16.6134C138.568 16.6134 137.744 16.961 137.087 17.6563C136.431 18.3517 136.103 19.2227 136.103 20.2696C136.103 21.3399 136.42 22.2188 137.052 22.9063C137.693 23.5938 138.509 23.9376 139.502 23.9376C140.134 23.9376 140.693 23.8009 141.177 23.5274C141.646 23.2618 142.197 22.7462 142.83 21.9806V25.461C141.759 26.0157 140.689 26.2931 139.619 26.2931C137.853 26.2931 136.377 25.7227 135.189 24.5821C134.002 23.4337 133.408 22.0079 133.408 20.3048C133.408 18.6017 134.009 17.1642 135.212 15.9923C136.416 14.8204 137.892 14.2345 139.642 14.2345C140.767 14.2345 141.83 14.504 142.83 15.0431ZM149.854 6.17197V18.2423L153.569 14.5509H157.108L152.151 19.3438L157.471 25.9649H154.049L150.276 21.1485L149.854 21.5704V25.9649H147.217V6.17197H149.854Z" fill="black"/>
<path d="M7.60582 15.1736V27.2185C7.60582 27.26 7.58926 27.2998 7.55979 27.3291C7.53032 27.3585 7.49035 27.3749 7.44867 27.3749H3.1429C3.10122 27.3749 3.06125 27.3585 3.03178 27.3291C3.00231 27.2998 2.98576 27.26 2.98576 27.2185V15.1736C2.98689 15.1527 2.9836 15.1319 2.97611 15.1124C2.96861 15.0929 2.95707 15.0752 2.94225 15.0604C2.92742 15.0457 2.90964 15.0342 2.89006 15.0267C2.87048 15.0193 2.84955 15.016 2.82861 15.0171H0.141432C0.102535 15.0132 0.0664918 14.9951 0.04034 14.9661C0.0141882 14.9372 -0.000193931 14.8996 1.97536e-06 14.8607V11.2941C1.97536e-06 11.2526 0.0165583 11.2129 0.0460287 11.1835C0.0754991 11.1542 0.115469 11.1377 0.157147 11.1377H2.84433C2.86526 11.1388 2.8862 11.1356 2.90578 11.1281C2.92536 11.1206 2.94314 11.1092 2.95796 11.0944C2.97279 11.0796 2.98432 11.0619 2.99182 11.0425C2.99932 11.023 3.0026 11.0021 3.00147 10.9813V5.70965C3.00127 5.67074 3.01566 5.63315 3.04181 5.60422C3.06796 5.5753 3.104 5.55711 3.1429 5.55322H7.44867C7.49035 5.55322 7.53032 5.5697 7.55979 5.59904C7.58926 5.62838 7.60582 5.66816 7.60582 5.70965V10.95C7.60582 10.9915 7.62237 11.0313 7.65184 11.0606C7.68131 11.0899 7.72128 11.1064 7.76296 11.1064H10.6151C10.6568 11.1064 10.6968 11.1229 10.7263 11.1522C10.7557 11.1816 10.7723 11.2214 10.7723 11.2628V14.8607C10.7723 14.9022 10.7557 14.942 10.7263 14.9713C10.6968 15.0006 10.6568 15.0171 10.6151 15.0171H7.76296C7.72128 15.0171 7.68131 15.0336 7.65184 15.0629C7.62237 15.0923 7.60582 15.1321 7.60582 15.1736Z" fill="#3E688C"/>
<path d="M11.9808 0H16.2708C16.3125 0 16.3525 0.0164808 16.3819 0.0458167C16.4114 0.0751527 16.428 0.114941 16.428 0.156428V12.7567C16.4283 12.7883 16.4383 12.8191 16.4566 12.845C16.4749 12.8708 16.5006 12.8906 16.5304 12.9016C16.5602 12.9126 16.5926 12.9144 16.6234 12.9066C16.6542 12.8989 16.6819 12.8821 16.703 12.8584C17.2677 12.1371 17.9934 11.5566 18.8226 11.1629C19.6517 10.7692 20.5616 10.5731 21.4802 10.5902C22.3803 10.5579 23.277 10.7186 24.1093 11.0613C24.9417 11.4041 25.6903 11.9209 26.3045 12.5768C27.273 13.901 27.7304 15.5279 27.5931 17.1602V27.2185C27.5931 27.26 27.5765 27.2998 27.5471 27.3291C27.5176 27.3584 27.4776 27.3749 27.4359 27.3749H23.138C23.0964 27.3749 23.0564 27.3584 23.0269 27.3291C22.9974 27.2998 22.9809 27.26 22.9809 27.2185V18.5133C22.9809 17.606 22.9809 16.1668 22.1166 15.3221C21.8318 15.0475 21.4944 14.8327 21.1246 14.6903C20.7548 14.5478 20.36 14.4808 19.9637 14.4931C19.4078 14.4596 18.853 14.5738 18.3559 14.8239C17.8589 15.074 17.4376 15.4511 17.1351 15.9166C16.5979 16.8687 16.3495 17.9554 16.4201 19.0451V27.2185C16.4201 27.26 16.4035 27.2998 16.3741 27.3291C16.3446 27.3584 16.3046 27.3749 16.2629 27.3749H11.9808C11.9391 27.3749 11.8991 27.3584 11.8696 27.3291C11.8402 27.2998 11.8236 27.26 11.8236 27.2185V0.156428C11.8236 0.114941 11.8402 0.0751527 11.8696 0.0458167C11.8991 0.0164808 11.9391 0 11.9808 0V0Z" fill="#F27B93"/>
</svg>
