<svg id="Layer_1" data-name="Layer 1" xmlns="http://www.w3.org/2000/svg" viewBox="0 0 887 658"><defs><style>.cls-1{fill:#273954;}.cls-2{fill:#8dbfec;}.cls-3{fill:#3e678c;}.cls-4{fill:#d8ecfe;}.cls-5{fill:#ffc6d0;}.cls-6{fill:#ff7c93;}.cls-7{fill:#f9ecee;}</style></defs><title>HHsvgbuild</title><rect class="cls-1" x="112.55" y="480.9" width="407.47" height="177.1" rx="85.92" ry="85.92"/><path class="cls-1" d="M924.6,392.36H343.78C287,392.36,241,439.09,241,496.74h0c0,57.65,46,104.38,102.78,104.38H924.6c56.77,0,102.79-46.73,102.79-104.38h0C1027.39,439.09,981.37,392.36,924.6,392.36Z" transform="translate(-241 -48)"/><path class="cls-1" d="M967.77,48h-307C604,48,558,93.12,558,148.79s46,100.79,102.81,100.79h307c56.78,0,102.81-45.13,102.81-100.79S1024.55,48,967.77,48Z" transform="translate(-241 -48)"/><rect class="cls-1" x="73" y="164" width="814" height="222" rx="107.5" ry="107.5"/><g id="Layer_3" data-name="Layer 3"><polygon class="cls-2" points="357.82 412.02 357.91 444.93 471.24 510.28 471.43 477.8 357.82 412.02"/><polygon class="cls-3" points="428.13 453.29 428.29 485.79 400.27 501.74 400.22 469.33 428.13 453.29"/><polygon class="cls-2" points="300.77 477.4 414.2 543 414.01 510.3 300.79 444.93 300.77 477.4"/><polygon class="cls-3" points="499.09 461.13 498.86 494.06 470.57 510.39 470.77 477.7 499.09 461.13"/><polygon class="cls-4" points="301.17 445.03 329.46 428.63 372.21 453.28 400.5 436.95 357.79 412.11 386.06 395.95 499.29 461.33 471.2 477.77 428.62 453.19 400.5 469.61 442.92 494.1 414.16 510.27 301.17 445.03"/><polygon class="cls-3" points="414.38 542.88 442.72 526.52 442.93 494.12 414.2 510.28 414.38 542.88"/><polygon class="cls-3" points="612.5 428.87 612.5 395.68 583.32 412.02 583.76 445.29 612.5 428.87"/><polygon class="cls-3" points="556.13 428.49 556.48 461.22 527.61 477.88 527.62 444.96 556.13 428.49"/><polygon class="cls-2" points="584.42 445.17 499.09 396.12 499.09 363.34 583.98 412.14 584.42 445.17"/><polygon class="cls-2" points="527.6 477.55 414.86 412.46 414.86 379.78 527.61 444.99 527.6 477.55"/><polygon class="cls-3" points="555.66 428.69 527.38 445.03 526.68 412.11 555.47 396.15 555.66 428.69"/><polygon class="cls-3" points="470.98 379.73 499.09 363.5 499.09 396.14 470.57 412.1 470.98 379.73"/><polygon class="cls-2" points="527.61 314.59 527.73 347.19 640.36 412.28 640.49 379.76 527.61 314.59"/><polygon class="cls-2" points="732.55 277.73 732.19 310.5 803.51 318.49 803.13 285.93 732.55 277.73"/><polygon class="cls-3" points="746.66 351.19 774.99 334.84 774.97 302.71 746.47 318.62 746.66 351.19"/><polygon class="cls-2" points="633.73 253.4 633.48 285.92 746.47 351.09 746.29 318.6 633.73 253.4"/><polygon class="cls-3" points="640.6 314.5 583.32 346.85 583.75 314.39 640.36 281.72 640.6 314.5"/><polygon class="cls-3" points="725.25 330.66 725.1 363.48 640.36 412.4 640.49 379.79 725.25 330.66"/><polygon class="cls-3" points="802.85 285.92 803.24 318.58 831.37 302.79 831.37 269.29 802.85 285.92"/><polygon class="cls-2" points="689.44 220.03 689.41 253.13 703.36 294.44 703.61 261.53 689.44 220.03"/><polygon class="cls-4" points="414.51 379.65 499.29 330.7 612.53 395.95 583.66 412.11 541.49 387.98 499.07 363.48 470.94 379.73 555.82 428.69 527.55 445.03 414.51 379.65"/><polygon class="cls-4" points="499.07 396.15 527.64 379.65 555.63 396.15 526.85 412.11 499.07 396.15"/><polygon class="cls-4" points="527.73 314.5 612.53 265.32 640.62 281.77 584.1 314.39 640.86 347.16 697.42 314.5 725.48 330.7 640.8 379.79 527.73 314.5"/><polygon class="cls-4" points="633.42 253.31 746.17 318.63 775.6 302.19 732.41 277.81 802.73 285.97 831.05 269.45 746.17 253.1 718.05 204.4 689.79 220.54 703.77 261.47 661.65 236.95 633.42 253.31"/></g><g id="Layer_5" data-name="Layer 5"><polygon class="cls-5" points="598.32 94.02 626.52 110.3 654.88 94.02 626.6 77.6 598.32 94.02"/><polygon class="cls-5" points="682.92 45.08 654.78 61.33 682.92 77.74 711.38 61.33 682.92 45.08"/><polygon class="cls-6" points="682.8 175.66 654.28 159.38 654.52 142.87 682.8 159.29 682.8 175.66"/><polygon class="cls-5" points="683.08 175.62 654.64 159.38 598.32 191.99 626.6 208.23 683.08 175.62"/><polygon class="cls-6" points="597.91 93.47 626.43 109.94 626.51 192.45 597.91 177.95 597.91 93.47"/><polygon class="cls-6" points="654.95 61.66 655.05 110.19 682.8 126.39 682.8 77.91 654.95 61.66"/><polygon class="cls-5" points="654.88 142.91 682.92 126.72 654.88 110.35 626.35 126.72 654.88 142.91"/><polygon class="cls-6" points="626.43 241.09 626.43 208.16 597.91 191.79 597.83 224.69 626.43 241.09"/><polygon class="cls-7" points="682.8 77.75 711.32 61.32 711.07 191.87 697.28 200.17 626.43 240.92 626.43 208.18 682.8 175.63 682.81 159.34 626.43 191.88 626.35 110.37 654.95 93.95 654.95 142.86 682.8 126.78 682.8 77.75"/><polygon class="cls-5" points="584.1 134.82 555.81 118.5 499.25 151.15 527.53 167.47 584.1 134.82"/><polygon class="cls-6" points="583.96 233.26 555.47 216.79 555.47 150.75 583.98 167.2 583.96 233.26"/><polygon class="cls-5" points="555.86 249.14 527.56 232.81 555.91 216.52 584.1 232.81 555.86 249.14"/><polygon class="cls-6" points="527.41 298.84 499.09 282.26 499.09 150.52 527.61 166.99 527.41 298.84"/><polygon class="cls-7" points="527.61 167.41 527.42 298.25 598.57 257.32 598.57 224.37 584.1 232.75 555.47 249.32 555.42 183.88 583.98 167.39 583.98 167.41 583.96 134.88 527.61 167.41"/><polygon class="cls-7" points="612.5 225.47 598.38 257.5 583.98 232.74 584.65 167.47 584.63 134.93 612.5 151.03 612.5 225.47"/><polygon class="cls-6" points="456.64 339.04 428.51 322.62 414.28 249.14 442.86 265.41 456.64 339.04"/><polygon class="cls-6" points="400.46 371.69 372 355.24 343.44 240.9 371.94 257.36 400.46 371.69"/><polygon class="cls-6" points="400.23 208.38 385.9 281.75 414.16 298.64 428.51 224.7 400.23 208.38"/><polygon class="cls-6" points="450.75 179.21 442.65 249.2 471.14 265.41 478.25 195.99 450.75 179.21"/><polygon class="cls-5" points="428.51 224.7 400.23 208.38 428.51 192.05 456.79 208.38 428.51 224.7"/><polygon class="cls-5" points="400.46 240.9 371.94 224.7 343.44 240.9 371.94 257.36 400.46 240.9"/><polygon class="cls-5" points="478.25 195.99 450.75 179.21 477.69 163.65 505.78 180.09 478.25 195.99"/><polygon class="cls-7" points="456.64 339.04 484.97 322.68 505.78 180.09 478.25 195.99 471.14 265.41 456.79 208.38 428.51 224.7 414.16 298.64 400.46 240.9 371.94 257.36 400.46 371.69 428.54 355.25 442.86 265.41 456.64 339.04"/><polygon class="cls-6" points="159.52 379.16 131 362.69 131 494.42 159.52 510.89 159.52 379.16"/><polygon class="cls-5" points="187.97 363.41 159.66 346.98 131.38 363.31 159.66 379.64 187.97 363.41"/><polygon class="cls-6" points="216.56 478.3 188.04 461.84 188.01 329.96 216.56 346.45 216.56 478.3"/><polygon class="cls-5" points="244.5 330.65 216.22 314.32 187.94 330.65 216.22 346.98 244.5 330.65"/><polygon class="cls-5" points="216.22 395.97 187.94 412.3 159.66 395.97 187.94 379.64 216.22 395.97"/><polygon class="cls-7" points="215.89 346.5 244.41 330.03 244.49 461.72 215.89 478.23 215.73 428.67 188.04 444.76 188.04 493.8 159.52 510.36 159.52 379.7 188.04 363.35 188.01 412.18 215.89 396.08 215.89 346.5"/><polygon class="cls-6" points="244.41 428.67 272.93 445.13 272.92 314.27 244.41 297.92 244.41 428.67"/><polygon class="cls-5" points="357.65 265.34 329.56 249.12 244.5 297.98 272.99 314.32 357.65 265.34"/><polygon class="cls-5" points="329.74 379.85 301.08 363.31 273.18 379.64 301.46 396.18 329.74 379.85"/><polygon class="cls-6" points="329.97 314.45 301.45 298.42 301.45 363.18 329.97 379.64 329.97 314.45"/><polygon class="cls-7" points="357.82 265.41 358.21 363.32 329.97 379.84 329.97 314.37 301.45 330.83 301.83 396.19 273.59 412.5 273.41 314.25 357.82 265.41"/><polygon class="cls-7" points="272.75 445.19 357.82 396.07 358.06 363.17 272.93 412.54 272.75 445.19"/></g></svg>