<svg xmlns="http://www.w3.org/2000/svg" viewBox="0 0 532.96 528.17"><defs><style>.cls-1{fill:#273954;}</style></defs><title>Asset 7</title><g id="Layer_2" data-name="Layer 2"><g id="Layer_1-2" data-name="Layer 1"><path class="cls-1" d="M399.25,340l62.08,30.54,4.86-9.87-61.71-30.36a153.94,153.94,0,0,0,15.88-63H490v-11H420.36a155.24,155.24,0,0,0-2-19.9l111.54-32.55-3.08-10.56L416.18,225.62a153.5,153.5,0,0,0-10.94-30.75l61-30.59-4.93-9.84-61.18,30.69a156.5,156.5,0,0,0-21.38-29L456.15,70.1,448,62.75l-77,85.62a155.52,155.52,0,0,0-22.82-17.61L384,71l-9.43-5.66-35.94,59.84A153.53,153.53,0,0,0,305,111.93L331.78,2.85,321.1.23,294.25,109.5a155.67,155.67,0,0,0-23.32-2.59V37.24h-11v69.67a154.89,154.89,0,0,0-24.26,2.77L203.66,0,193.1,3.08l31.84,109.1a153.93,153.93,0,0,0-28.88,11L156.11,63.37,147,69.48l39.42,59.05a155.73,155.73,0,0,0-29.91,23.13L69.88,73.76l-7.36,8.18,86.41,77.73a156.07,156.07,0,0,0-18,25.19L68.54,155.48l-4.69,10,61.9,29.17a153.76,153.76,0,0,0-11.08,31.06l-112-27.53L0,208.81l112.48,27.64a156.42,156.42,0,0,0-2,20.68l-71.32,5.93.91,11,70.47-5.86a155.83,155.83,0,0,0,2.83,23.93L3.05,324.28l3.08,10.56,109.77-32A153.93,153.93,0,0,0,129.3,336L70.25,369.69l5.45,9.55,59.21-33.8a156.5,156.5,0,0,0,20.37,25.39L76.81,458.06,85,465.42l78.3-87a156.15,156.15,0,0,0,24.16,17.41L156.9,454.67l9.77,5.07L197.14,401a153.66,153.66,0,0,0,31.76,11.52l-27.72,112.8,10.68,2.62,27.82-113.21a156,156,0,0,0,25.47,2.15l-1.4,69.45,11,.23,1.42-70.06a155,155,0,0,0,19.78-2.64L329.3,528.17l10.56-3.08L306.66,411.3a154,154,0,0,0,32-12.86L374.53,460l9.51-5.53L348.2,392.88A155.74,155.74,0,0,0,373,373.37l87.08,78,7.34-8.19-86.77-77.77A155.41,155.41,0,0,0,399.25,340ZM265.43,405.88c-79.42,0-144-64.62-144-144s64.62-144,144-144,144,64.61,144,144S344.85,405.88,265.43,405.88Z"/><rect class="cls-1" x="468.86" y="251.63" width="11" height="117.99" transform="translate(59.51 697.15) rotate(-76.19)"/></g></g></svg>