<svg width="101" height="19" viewBox="0 0 101 19" fill="none" xmlns="http://www.w3.org/2000/svg">
<path d="M5.35731 10.021V7.86097H3.55731V4.16496H1.20531V7.86097H0.221313V10.021H1.20531V17.965H3.55731V10.021H5.35731ZM15.5378 9.03697C14.5778 7.78897 13.2818 7.59697 12.5378 7.59697C9.87381 7.59697 7.61781 9.61297 7.61781 12.901C7.61781 15.685 9.39381 18.277 12.5138 18.277C13.2338 18.277 14.5058 18.109 15.5378 16.909V17.965H17.8898V7.86097H15.5378V9.03697ZM12.8258 9.70897C14.3138 9.70897 15.6818 10.765 15.6818 12.973C15.6818 15.085 14.3138 16.165 12.8258 16.165C11.1218 16.165 10.0178 14.701 10.0178 12.949C10.0178 11.149 11.1218 9.70897 12.8258 9.70897ZM22.0724 17.965H24.4244V12.757C24.4244 11.893 24.4724 11.029 24.8804 10.453C25.1924 10.021 25.6964 9.70897 26.2724 9.70897C27.1124 9.70897 27.4724 10.213 27.6164 10.597C27.7124 10.813 27.8324 11.269 27.8324 12.397V17.965H30.1844V12.757C30.1844 11.893 30.2324 11.029 30.6404 10.453C30.9524 10.021 31.4564 9.70897 32.0324 9.70897C32.8724 9.70897 33.2324 10.213 33.3764 10.597C33.4724 10.813 33.5924 11.269 33.5924 12.397V17.965H35.9444V11.725C35.9444 10.261 35.6084 9.51697 35.4164 9.18097C34.8404 8.17297 33.7604 7.59697 32.5364 7.59697C31.6484 7.59697 30.3764 7.88497 29.5364 9.08497C28.9604 8.10097 27.9764 7.59697 26.9204 7.59697C26.1524 7.59697 25.2164 7.83697 24.4244 8.79697V7.86097H22.0724V17.965ZM40.1239 7.86097V13.717C40.1239 15.013 40.2679 16.093 41.2039 17.029C42.1159 17.965 43.3639 18.277 44.3959 18.277C45.5239 18.277 46.7719 17.941 47.6839 17.029C48.6199 16.093 48.7639 15.013 48.7639 13.717V7.86097H46.4119V13.645C46.4119 14.245 46.3879 14.941 45.9799 15.469C45.6679 15.877 45.1159 16.165 44.4439 16.165C43.7719 16.165 43.2199 15.877 42.9079 15.469C42.4999 14.941 42.4759 14.245 42.4759 13.645V7.86097H40.1239ZM52.9489 17.965H55.3009V13.093C55.3009 11.797 55.4449 11.029 55.7809 10.549C56.0929 10.093 56.7169 9.70897 57.5089 9.70897C58.1089 9.70897 58.5649 9.94897 58.8289 10.237C59.2849 10.741 59.2849 11.389 59.2849 11.989V17.965H61.6369V11.773C61.6369 11.053 61.6129 9.87697 60.9889 8.96497C60.7009 8.55697 59.8609 7.59697 58.0129 7.59697C57.4129 7.59697 56.3089 7.69297 55.3009 8.72497V0.468965H52.9489V17.965ZM73.2128 9.03697C72.2528 7.78897 70.9568 7.59697 70.2128 7.59697C67.5488 7.59697 65.2928 9.61297 65.2928 12.901C65.2928 15.685 67.0688 18.277 70.1888 18.277C70.9088 18.277 72.1808 18.109 73.2128 16.909V17.965H75.5648V7.86097H73.2128V9.03697ZM70.5008 9.70897C71.9888 9.70897 73.3568 10.765 73.3568 12.973C73.3568 15.085 71.9888 16.165 70.5008 16.165C68.7968 16.165 67.6928 14.701 67.6928 12.949C67.6928 11.149 68.7968 9.70897 70.5008 9.70897ZM87.5714 8.31697C86.4914 7.71697 85.5794 7.59697 84.8114 7.59697C82.8194 7.59697 81.5474 8.29297 80.7554 9.08497C80.0114 9.82897 79.2194 11.101 79.2194 12.997C79.2194 14.845 79.9394 16.045 80.6594 16.789C81.6194 17.797 82.8194 18.277 84.4994 18.277C86.0594 18.277 86.9954 17.845 87.5714 17.485V14.869C86.7554 15.781 85.6274 16.165 84.6674 16.165C83.8034 16.165 83.0594 15.853 82.5314 15.349C82.0754 14.893 81.6194 14.101 81.6194 12.925C81.6194 11.797 82.0514 11.029 82.4834 10.597C82.9154 10.165 83.6114 9.70897 84.7154 9.70897C85.4354 9.70897 86.4914 9.90097 87.5714 10.957V8.31697ZM91.0255 0.468965V17.965H93.3775V14.077L93.8095 13.645L97.1215 17.965H100.098L95.4415 12.061L99.7855 7.86097H96.6655L93.3775 11.245V0.468965H91.0255Z" fill="black"/>
</svg>
