<svg width="319" height="53" viewBox="0 0 319 53" fill="none" xmlns="http://www.w3.org/2000/svg">
<path d="M17.9732 28.97V21.69H12.0932V11.33H3.55316V21.69H0.193164V28.97H3.55316V52H12.0932V28.97H17.9732ZM49.1604 25.61C46.2904 21.13 41.7404 20.71 39.4304 20.71C30.4704 20.71 24.3804 27.85 24.3804 36.81C24.3804 45.7 30.5404 52.98 39.8504 52.98C42.0204 52.98 46.0804 52.49 49.1604 48.08V52H57.7004V21.69H49.1604V25.61ZM41.6004 28.27C46.5004 28.27 50.0004 31.98 50.0004 36.81C50.0004 41.64 46.5004 45.42 41.6004 45.42C36.7004 45.42 33.2004 41.64 33.2004 36.81C33.2004 31.98 36.7004 28.27 41.6004 28.27ZM69.3422 52H77.8822V36.53C77.8822 34.92 77.9522 32.47 79.0722 30.65C79.9822 29.04 81.4522 27.99 83.7622 27.99C84.6022 27.99 86.1422 28.13 87.2622 29.53C87.8922 30.3 88.6622 31.91 88.6622 35.48V52H97.2022V36.53C97.2022 34.92 97.2722 32.47 98.3922 30.65C99.3022 29.04 100.772 27.99 103.082 27.99C103.922 27.99 105.462 28.13 106.582 29.53C107.212 30.3 107.982 31.91 107.982 35.48V52H116.522V32.96C116.522 29.6 116.382 27.01 114.422 24.42C113.232 22.88 110.922 20.71 106.232 20.71C100.982 20.71 97.9722 23.86 96.5022 26.24C95.7322 24.7 93.2822 20.71 86.9122 20.71C85.0922 20.71 81.1022 21.06 77.8822 25.12V21.69H69.3422V52ZM128.145 21.69V40.24C128.145 42.97 128.495 46.61 131.855 49.55C134.655 52 139.135 52.98 142.845 52.98C146.555 52.98 151.035 52 153.835 49.55C157.195 46.61 157.545 42.97 157.545 40.24V21.69H149.005V38.84C149.005 40.45 148.865 42.62 147.185 44.16C146.135 45.07 144.455 45.7 142.845 45.7C141.235 45.7 139.555 45.07 138.505 44.16C136.825 42.62 136.685 40.45 136.685 38.84V21.69H128.145Z" fill="#3E678C"/>
<path d="M169.174 52H177.714V36.53C177.714 34.78 177.784 32.61 179.044 30.65C180.304 28.76 182.054 27.99 184.294 27.99C185.134 27.99 186.954 28.13 188.284 29.53C189.824 31.14 189.894 33.8 189.894 35.48V52H198.434V32.96C198.434 30.02 198.154 27.01 196.054 24.42C193.674 21.48 189.754 20.71 187.094 20.71C182.194 20.71 179.324 23.37 177.714 25.61V0.969998H169.174V52ZM233.307 25.61C230.437 21.13 225.887 20.71 223.577 20.71C214.617 20.71 208.527 27.85 208.527 36.81C208.527 45.7 214.687 52.98 223.997 52.98C226.167 52.98 230.227 52.49 233.307 48.08V52H241.847V21.69H233.307V25.61ZM225.747 28.27C230.647 28.27 234.147 31.98 234.147 36.81C234.147 41.64 230.647 45.42 225.747 45.42C220.847 45.42 217.347 41.64 217.347 36.81C217.347 31.98 220.847 28.27 225.747 28.27ZM276.309 22.53C273.859 21.34 271.269 20.71 268.119 20.71C265.179 20.71 260.909 21.34 257.199 24.63C254.119 27.36 251.949 31.63 251.949 36.95C251.949 42.62 254.469 46.4 256.779 48.57C259.509 51.16 263.709 52.98 268.469 52.98C271.969 52.98 274.629 51.93 276.309 51.09V42.76C273.999 44.86 271.479 45.42 269.589 45.42C264.479 45.42 260.769 41.78 260.769 36.81C260.769 32.4 263.639 28.27 269.309 28.27C272.249 28.27 274.489 29.25 276.309 30.93V22.53ZM286.247 0.969998V52H294.787V39.89L295.697 39.05L306.967 52H318.307L302.977 34.99L317.187 21.69H306.127L294.787 32.75V0.969998H286.247Z" fill="#F27B93"/>
</svg>
