<?xml version="1.0" encoding="utf-8"?>
<!-- Generator: Adobe Illustrator 22.0.1, SVG Export Plug-In . SVG Version: 6.00 Build 0)  -->
<svg version="1.1" id="Layer_1" xmlns="http://www.w3.org/2000/svg" xmlns:xlink="http://www.w3.org/1999/xlink" x="0px" y="0px"
	 viewBox="0 0 108 20" style="enable-background:new 0 0 108 20;" xml:space="preserve">
<style type="text/css">
	.st0{clip-path:url(#SVGID_2_);}
	.st1{fill:#EFEFEF;}
</style>
<g>
	<defs>
		<rect id="SVGID_1_" width="108" height="20"/>
	</defs>
	<clipPath id="SVGID_2_">
		<use xlink:href="#SVGID_1_"  style="overflow:visible;"/>
	</clipPath>
	<g class="st0">
		<path class="st1" d="M5.4,10.9v8.6c0,0,0,0.1,0,0.1s0,0-0.1,0h-3c0,0-0.1,0-0.1,0c0,0,0,0,0-0.1v-8.6c0,0,0,0,0,0c0,0,0,0,0,0
			c0,0,0,0,0,0c0,0,0,0,0,0H0.1c0,0-0.1,0-0.1,0c0,0,0,0,0-0.1V8.1C0,8.1,0,8,0,8c0,0,0,0,0.1,0H2c0,0,0,0,0,0c0,0,0,0,0,0
			c0,0,0,0,0,0c0,0,0,0,0,0V4.1c0,0,0-0.1,0-0.1c0,0,0,0,0.1,0h3c0,0,0.1,0,0.1,0c0,0,0,0,0,0.1v3.8c0,0,0,0.1,0,0.1c0,0,0,0,0.1,0
			h2c0,0,0.1,0,0.1,0c0,0,0,0,0,0.1v2.6c0,0,0,0.1,0,0.1c0,0,0,0-0.1,0h-2C5.5,10.8,5.4,10.8,5.4,10.9C5.4,10.8,5.4,10.8,5.4,10.9z"
			/>
		<path class="st1" d="M18.3,8h3c0,0,0,0,0,0c0,0,0,0,0,0c0,0,0,0,0,0c0,0,0,0,0,0v11.4c0,0,0,0,0,0c0,0,0,0,0,0c0,0,0,0,0,0
			c0,0,0,0,0,0h-3c0,0-0.1,0-0.1,0c0,0,0,0,0-0.1v-1.4c-0.4,0.6-0.9,1.1-1.5,1.4c-0.6,0.3-1.3,0.5-2,0.5c-3.5,0-5.9-2.8-5.9-6.2
			c0-3.4,2.3-6.2,5.7-6.2c0.7,0,1.4,0.1,2.1,0.4c0.6,0.3,1.2,0.8,1.6,1.4V8.1C18.2,8.1,18.2,8,18.3,8C18.2,8,18.2,8,18.3,8z
			 M11.5,13.8c0,0.4,0.1,0.8,0.2,1.2c0.2,0.4,0.4,0.7,0.7,1c0.3,0.3,0.6,0.5,1,0.7c0.4,0.2,0.8,0.2,1.2,0.2c0.4,0,0.8-0.1,1.2-0.2
			c0.4-0.2,0.7-0.4,1-0.7c0.3-0.3,0.5-0.7,0.7-1c0.2-0.4,0.2-0.8,0.2-1.2c0-0.9-0.3-1.7-0.9-2.3c-0.6-0.6-1.4-0.9-2.3-0.9
			c-0.8,0-1.7,0.3-2.3,0.9C11.9,12.1,11.5,12.9,11.5,13.8z"/>
		<path class="st1" d="M23.5,8h3c0,0,0.1,0,0.1,0c0,0,0,0,0,0.1v1.2c0.4-0.5,0.9-1,1.5-1.3c0.6-0.3,1.3-0.4,1.9-0.4
			c0.7,0,1.4,0.1,2.1,0.4c0.6,0.3,1.2,0.9,1.5,1.5c0,0,0,0,0,0c0,0,0,0,0.1,0s0,0,0.1,0c0,0,0,0,0,0c0.4-0.6,0.9-1.1,1.5-1.5
			c0.6-0.3,1.3-0.5,2.1-0.5c0.6,0,1.2,0.1,1.7,0.3c0.5,0.2,1,0.6,1.4,1.1c0.7,1,0.8,2,0.8,3.3v7.2c0,0,0,0.1,0,0.1c0,0,0,0-0.1,0h-3
			c0,0-0.1,0-0.1,0c0,0,0,0,0-0.1v-6.2c0-1.4-0.3-2-0.6-2.3c-0.2-0.2-0.4-0.3-0.6-0.5c-0.2-0.1-0.5-0.2-0.7-0.1
			c-0.4,0-0.7,0.1-1,0.2c-0.3,0.2-0.6,0.4-0.7,0.8c-0.3,0.7-0.5,1.5-0.5,2.2v5.9c0,0,0,0.1,0,0.1c0,0,0,0-0.1,0h-3c0,0-0.1,0-0.1,0
			c0,0,0,0,0-0.1v-6.2c0-1.4-0.3-2-0.6-2.3c-0.2-0.2-0.4-0.3-0.6-0.5c-0.2-0.1-0.5-0.2-0.7-0.1c-0.4,0-0.7,0.1-1,0.2
			c-0.3,0.2-0.6,0.4-0.7,0.8c-0.3,0.7-0.5,1.5-0.5,2.2v5.9c0,0,0,0.1,0,0.1c0,0,0,0-0.1,0h-3c0,0,0,0,0,0c0,0,0,0,0,0c0,0,0,0,0,0
			c0,0,0,0,0,0V8.1c0,0,0,0,0,0C23.4,8,23.4,8,23.5,8C23.4,8,23.4,8,23.5,8C23.5,8,23.5,8,23.5,8z"/>
		<path class="st1" d="M46.5,8C46.5,8,46.5,8,46.5,8C46.6,8,46.6,8,46.6,8.1v6.5c0,0.4,0,0.7,0.1,1.1c0.1,0.4,0.3,0.7,0.6,0.9
			c0.5,0.4,1.1,0.6,1.7,0.6c0.6,0,1.2-0.2,1.7-0.6c0.2-0.3,0.4-0.6,0.5-1c0.1-0.4,0.2-0.7,0.1-1.1V8.1c0,0,0-0.1,0-0.1
			c0,0,0,0,0.1,0h3c0,0,0.1,0,0.1,0c0,0,0,0,0,0.1v7c0,0.7-0.1,1.3-0.3,2c-0.2,0.6-0.6,1.2-1.1,1.6C52,19.6,50.3,20,48.9,20
			c-1.4,0-3.1-0.4-4.2-1.3c-0.5-0.4-0.9-1-1.1-1.6c-0.2-0.6-0.3-1.3-0.3-2v-7c0,0,0,0,0,0c0,0,0,0,0,0c0,0,0,0,0,0c0,0,0,0,0,0H46.5
			z"/>
		<path class="st1" d="M56.6,0h3c0,0,0.1,0,0.1,0c0,0,0,0,0,0.1v9c0,0,0,0,0,0.1c0,0,0,0,0.1,0c0,0,0,0,0.1,0c0,0,0,0,0.1,0
			c0.4-0.5,0.9-0.9,1.5-1.2c0.6-0.3,1.2-0.4,1.9-0.4c0.6,0,1.3,0.1,1.9,0.3c0.6,0.2,1.1,0.6,1.6,1.1c0.7,0.9,1,2.1,0.9,3.3v7.2
			c0,0,0,0.1,0,0.1c0,0,0,0-0.1,0h-3c0,0-0.1,0-0.1,0c0,0,0,0,0-0.1v-6.2c0-0.7,0-1.7-0.6-2.3c-0.2-0.2-0.4-0.4-0.7-0.5
			c-0.3-0.1-0.5-0.2-0.8-0.1c-0.4,0-0.8,0.1-1.1,0.2c-0.4,0.2-0.6,0.4-0.9,0.8c-0.4,0.7-0.6,1.5-0.5,2.2v5.9c0,0,0,0.1,0,0.1
			c0,0,0,0-0.1,0h-3c0,0-0.1,0-0.1,0c0,0,0,0,0-0.1V0.1C56.5,0.1,56.5,0.1,56.6,0C56.6,0,56.6,0,56.6,0L56.6,0z"/>
		<path class="st1" d="M79.1,8h3c0,0,0.1,0,0.1,0c0,0,0,0,0,0.1v11.4c0,0,0,0.1,0,0.1c0,0,0,0-0.1,0h-3c0,0-0.1,0-0.1,0
			c0,0,0,0,0-0.1v-1.4c-0.4,0.6-0.9,1.1-1.5,1.4c-0.6,0.3-1.3,0.5-2,0.5c-3.5,0-5.9-2.8-5.9-6.2c0-3.4,2.3-6.2,5.7-6.2
			c0.7,0,1.4,0.1,2.1,0.4c0.6,0.3,1.2,0.8,1.6,1.4V8.1C79,8.1,79,8,79.1,8C79.1,8,79.1,8,79.1,8z M72.4,13.8c0,0.9,0.3,1.7,0.9,2.3
			c0.6,0.6,1.4,0.9,2.3,0.9s1.7-0.3,2.3-0.9c0.6-0.6,0.9-1.4,0.9-2.3c0-0.9-0.3-1.7-0.9-2.3c-0.6-0.6-1.4-0.9-2.3-0.9
			s-1.7,0.3-2.3,0.9C72.7,12.1,72.4,12.9,72.4,13.8z"/>
		<path class="st1" d="M93.5,11.3C93.5,11.3,93.5,11.3,93.5,11.3c0,0.1,0,0.1-0.1,0.1c0,0,0,0-0.1,0c0,0,0,0-0.1,0
			c-0.7-0.6-1.6-0.9-2.5-0.9c-0.4,0-0.9,0-1.3,0.2c-0.4,0.2-0.8,0.4-1.1,0.7c-0.3,0.3-0.5,0.7-0.7,1.1c-0.2,0.4-0.2,0.8-0.2,1.3
			c0,0.4,0.1,0.9,0.2,1.3c0.2,0.4,0.4,0.8,0.7,1.1c0.3,0.3,0.7,0.6,1.1,0.7s0.8,0.2,1.3,0.2c0.9,0,1.7-0.3,2.4-0.9c0,0,0,0,0.1,0
			c0,0,0,0,0.1,0c0,0,0,0,0,0c0,0,0,0,0,0.1v2.9c0,0,0,0,0,0.1c0,0,0,0,0,0c-1.2,0.6-2.5,0.8-3.8,0.6c-1.3-0.2-2.5-0.7-3.5-1.6
			c-0.6-0.6-1.1-1.3-1.4-2c-0.3-0.8-0.5-1.6-0.4-2.4c0-0.8,0.1-1.6,0.4-2.4c0.3-0.8,0.7-1.5,1.3-2.1c0.6-0.6,1.3-1,2-1.3
			c0.8-0.3,1.6-0.4,2.4-0.4c1.1,0,2.1,0.2,3.1,0.7c0,0,0,0,0,0c0,0,0,0,0,0.1L93.5,11.3z"/>
		<path class="st1" d="M99.2,0.1V12c0,0,0,0,0,0.1s0,0,0,0c0,0,0,0,0.1,0c0,0,0,0,0.1,0l4.1-4c0,0,0,0,0.1,0h3.9c0,0,0,0,0.1,0
			c0,0,0,0,0,0.1c0,0,0,0,0,0.1c0,0,0,0,0,0.1l-5.1,4.8c0,0,0,0,0,0.1c0,0,0,0.1,0,0.1l5.6,6.3c0,0,0,0,0,0.1c0,0,0,0,0,0.1
			c0,0,0,0,0,0c0,0,0,0-0.1,0h-4c0,0,0,0,0,0c0,0,0,0,0,0l-4.3-4.9L99.2,15v4.5c0,0,0,0.1,0,0.1c0,0,0,0-0.1,0h-3c0,0-0.1,0-0.1,0
			c0,0,0,0,0-0.1V0.1c0,0,0-0.1,0-0.1c0,0,0,0,0.1,0h3C99.1,0,99.1,0,99.2,0.1C99.2,0.1,99.2,0.1,99.2,0.1z"/>
	</g>
</g>
</svg>
