<svg width="114" height="21" viewBox="0 0 114 21" fill="none" xmlns="http://www.w3.org/2000/svg">
<path d="M4.67656 11.0118V19.9649H2.03984V11.0118H0.914845V8.55087H2.03984V4.36728H4.67656V8.55087H6.72734V11.0118H4.67656ZM18.3453 8.55087H20.9938V19.9649H18.3453V18.7696C17.2594 19.7852 16.0914 20.2931 14.8414 20.2931C13.2633 20.2931 11.9586 19.7227 10.9273 18.5821C9.90391 17.4181 9.39219 15.9649 9.39219 14.2227C9.39219 12.5118 9.90391 11.086 10.9273 9.9454C11.9508 8.80478 13.232 8.23447 14.7711 8.23447C16.0992 8.23447 17.2906 8.78134 18.3453 9.87509V8.55087ZM12.0875 14.2227C12.0875 15.3165 12.3805 16.2071 12.9664 16.8946C13.568 17.5899 14.3258 17.9376 15.2398 17.9376C16.2164 17.9376 17.0055 17.6017 17.607 16.9298C18.2086 16.2345 18.5094 15.3517 18.5094 14.2813C18.5094 13.211 18.2086 12.3282 17.607 11.6329C17.0055 10.9532 16.2242 10.6134 15.2633 10.6134C14.357 10.6134 13.5992 10.9571 12.9898 11.6446C12.3883 12.3399 12.0875 13.1993 12.0875 14.2227ZM25.5219 8.55087H28.1586V9.60556C28.6664 9.07431 29.1 8.71494 29.4594 8.52744C29.8422 8.33212 30.3227 8.23447 30.9008 8.23447C32.1898 8.23447 33.2094 8.79697 33.9594 9.92197C34.7875 8.79697 35.9086 8.23447 37.3227 8.23447C39.893 8.23447 41.1781 9.79306 41.1781 12.9102V19.9649H38.5297V13.6251C38.5297 12.5313 38.3969 11.7579 38.1312 11.3048C37.8578 10.8438 37.4086 10.6134 36.7836 10.6134C36.057 10.6134 35.5258 10.8868 35.1898 11.4337C34.8617 11.9806 34.6977 12.8595 34.6977 14.0704V19.9649H32.0492V13.6602C32.0492 11.629 31.4633 10.6134 30.2914 10.6134C29.5492 10.6134 29.0062 10.8907 28.6625 11.4454C28.3266 12.0001 28.1586 12.8751 28.1586 14.0704V19.9649H25.5219V8.55087ZM48.343 8.55087V15.1017C48.343 16.9923 49.0891 17.9376 50.5813 17.9376C52.0734 17.9376 52.8195 16.9923 52.8195 15.1017V8.55087H55.4563V15.1602C55.4563 16.0743 55.343 16.8634 55.1164 17.5274C54.8977 18.1212 54.5188 18.6563 53.9797 19.1329C53.0891 19.9063 51.9563 20.2931 50.5813 20.2931C49.2141 20.2931 48.0852 19.9063 47.1945 19.1329C46.6477 18.6563 46.2609 18.1212 46.0344 17.5274C45.8156 16.9962 45.7063 16.2071 45.7063 15.1602V8.55087H48.343ZM59.9844 0.171967H62.6211V9.50009C63.5586 8.65634 64.5938 8.23447 65.7266 8.23447C67.0156 8.23447 68.0469 8.65244 68.8203 9.48837C69.4766 10.2149 69.8047 11.3751 69.8047 12.9688V19.9649H67.168V13.2149C67.168 12.3009 67.0039 11.6407 66.6758 11.2345C66.3555 10.8204 65.8359 10.6134 65.1172 10.6134C64.1953 10.6134 63.5469 10.8985 63.1719 11.4688C62.8047 12.047 62.6211 13.0392 62.6211 14.4454V19.9649H59.9844V0.171967ZM82.7703 8.55087H85.4187V19.9649H82.7703V18.7696C81.6844 19.7852 80.5164 20.2931 79.2664 20.2931C77.6883 20.2931 76.3836 19.7227 75.3523 18.5821C74.3289 17.4181 73.8172 15.9649 73.8172 14.2227C73.8172 12.5118 74.3289 11.086 75.3523 9.9454C76.3758 8.80478 77.657 8.23447 79.1961 8.23447C80.5242 8.23447 81.7156 8.78134 82.7703 9.87509V8.55087ZM76.5125 14.2227C76.5125 15.3165 76.8055 16.2071 77.3914 16.8946C77.993 17.5899 78.7508 17.9376 79.6648 17.9376C80.6414 17.9376 81.4305 17.6017 82.032 16.9298C82.6336 16.2345 82.9344 15.3517 82.9344 14.2813C82.9344 13.211 82.6336 12.3282 82.032 11.6329C81.4305 10.9532 80.6492 10.6134 79.6883 10.6134C78.782 10.6134 78.0242 10.9571 77.4148 11.6446C76.8133 12.3399 76.5125 13.1993 76.5125 14.2227ZM98.8297 9.04306V12.547C98.2281 11.8126 97.6891 11.3087 97.2125 11.0352C96.7437 10.754 96.193 10.6134 95.5602 10.6134C94.568 10.6134 93.7437 10.961 93.0875 11.6563C92.4312 12.3517 92.1031 13.2227 92.1031 14.2696C92.1031 15.3399 92.4195 16.2188 93.0523 16.9063C93.693 17.5938 94.5094 17.9376 95.5016 17.9376C96.1344 17.9376 96.693 17.8009 97.1773 17.5274C97.6461 17.2618 98.1969 16.7462 98.8297 15.9806V19.461C97.7594 20.0157 96.6891 20.2931 95.6187 20.2931C93.8531 20.2931 92.3766 19.7227 91.1891 18.5821C90.0016 17.4337 89.4078 16.0079 89.4078 14.3048C89.4078 12.6017 90.0094 11.1642 91.2125 9.99228C92.4156 8.8204 93.8922 8.23447 95.6422 8.23447C96.7672 8.23447 97.8297 8.504 98.8297 9.04306ZM105.854 0.171967V12.2423L109.569 8.55087H113.108L108.151 13.3438L113.471 19.9649H110.049L106.276 15.1485L105.854 15.5704V19.9649H103.217V0.171967H105.854Z" fill="black"/>
</svg>
