<svg width="67" height="67" viewBox="0 0 67 67" fill="none" xmlns="http://www.w3.org/2000/svg">
<path d="M18.4521 36.8118V66.0335C18.4521 66.1341 18.4119 66.2307 18.3404 66.3018C18.2689 66.373 18.172 66.413 18.0709 66.413H7.62484C7.52373 66.413 7.42676 66.373 7.35526 66.3018C7.28377 66.2307 7.2436 66.1341 7.2436 66.0335V36.8118C7.24635 36.7612 7.23837 36.7106 7.22019 36.6634C7.202 36.6161 7.17402 36.5731 7.13805 36.5373C7.10208 36.5015 7.05895 36.4737 7.01145 36.4556C6.96394 36.4375 6.91315 36.4295 6.86236 36.4323H0.343122C0.248756 36.4228 0.161313 36.3787 0.097867 36.3085C0.0344214 36.2384 -0.000470487 36.1472 4.79233e-06 36.0528V27.4001C4.79233e-06 27.2995 0.0401712 27.2029 0.111668 27.1318C0.183165 27.0606 0.280135 27.0206 0.381247 27.0206H6.90048C6.95127 27.0233 7.00207 27.0154 7.04957 26.9973C7.09707 26.9792 7.14021 26.9513 7.17617 26.9155C7.21214 26.8797 7.24013 26.8368 7.25831 26.7895C7.2765 26.7422 7.28447 26.6917 7.28172 26.6411V13.8519C7.28125 13.7574 7.31614 13.6663 7.37959 13.5961C7.44303 13.5259 7.53047 13.4818 7.62484 13.4724H18.0709C18.172 13.4724 18.2689 13.5123 18.3404 13.5835C18.4119 13.6547 18.4521 13.7512 18.4521 13.8519V26.5652C18.4521 26.6658 18.4923 26.7624 18.5638 26.8335C18.6353 26.9047 18.7322 26.9447 18.8334 26.9447H25.7529C25.854 26.9447 25.951 26.9847 26.0225 27.0559C26.094 27.127 26.1341 27.2236 26.1341 27.3242V36.0528C26.1341 36.1534 26.094 36.2499 26.0225 36.3211C25.951 36.3923 25.854 36.4323 25.7529 36.4323H18.8334C18.7322 36.4323 18.6353 36.4723 18.5638 36.5434C18.4923 36.6146 18.4521 36.7111 18.4521 36.8118Z" fill="#333333"/>
<path d="M29.0656 0H39.4735C39.5746 0 39.6715 0.0399832 39.743 0.111154C39.8145 0.182324 39.8547 0.278852 39.8547 0.379503V30.9485C39.8556 31.0252 39.8798 31.0998 39.9242 31.1626C39.9685 31.2253 40.0309 31.2732 40.1032 31.2999C40.1754 31.3266 40.2541 31.3309 40.3289 31.3122C40.4036 31.2935 40.4709 31.2527 40.5219 31.1951C41.8919 29.4452 43.6525 28.0369 45.6641 27.0817C47.6758 26.1266 49.8832 25.6509 52.1116 25.6923C54.2955 25.614 56.4708 26.0038 58.4901 26.8354C60.5095 27.6669 62.3257 28.9208 63.8157 30.512C66.1653 33.7246 67.275 37.6715 66.9419 41.6315V66.0335C66.9419 66.1341 66.9018 66.2307 66.8303 66.3018C66.7588 66.373 66.6618 66.413 66.5607 66.413H56.1337C56.0326 66.413 55.9356 66.373 55.8641 66.3018C55.7926 66.2307 55.7525 66.1341 55.7525 66.0335V44.9142C55.7525 42.713 55.7525 39.2216 53.6557 37.1723C52.9646 36.5061 52.1463 35.9848 51.2491 35.6393C50.3519 35.2938 49.3942 35.1311 48.4326 35.1609C47.084 35.0797 45.7379 35.3567 44.5321 35.9635C43.3263 36.5703 42.3042 37.4852 41.5703 38.6144C40.267 40.9243 39.6645 43.5607 39.8356 46.2045V66.0335C39.8356 66.1341 39.7955 66.2307 39.724 66.3018C39.6525 66.373 39.5555 66.413 39.4544 66.413H29.0656C28.9645 66.413 28.8675 66.373 28.796 66.3018C28.7245 66.2307 28.6843 66.1341 28.6843 66.0335V0.379503C28.6843 0.278852 28.7245 0.182324 28.796 0.111154C28.8675 0.0399832 28.9645 0 29.0656 0V0Z" fill="#333333"/>
</svg>
