<svg width="28" height="28" viewBox="0 0 28 28" fill="none" xmlns="http://www.w3.org/2000/svg">
<path d="M7.60582 15.1736V27.2185C7.60582 27.26 7.58926 27.2998 7.55979 27.3291C7.53032 27.3585 7.49035 27.3749 7.44867 27.3749H3.1429C3.10122 27.3749 3.06125 27.3585 3.03178 27.3291C3.00231 27.2998 2.98576 27.26 2.98576 27.2185V15.1736C2.98689 15.1527 2.9836 15.1319 2.97611 15.1124C2.96861 15.0929 2.95707 15.0752 2.94225 15.0604C2.92742 15.0457 2.90964 15.0342 2.89006 15.0267C2.87048 15.0193 2.84955 15.016 2.82861 15.0171H0.141432C0.102535 15.0132 0.0664918 14.9951 0.04034 14.9661C0.0141882 14.9372 -0.000193931 14.8996 1.97536e-06 14.8607V11.2941C1.97536e-06 11.2526 0.0165583 11.2129 0.0460287 11.1835C0.0754991 11.1542 0.115469 11.1377 0.157147 11.1377H2.84433C2.86526 11.1388 2.8862 11.1356 2.90578 11.1281C2.92536 11.1206 2.94314 11.1092 2.95796 11.0944C2.97279 11.0796 2.98432 11.0619 2.99182 11.0425C2.99932 11.023 3.0026 11.0021 3.00147 10.9813V5.70965C3.00127 5.67074 3.01566 5.63315 3.04181 5.60422C3.06796 5.5753 3.104 5.55711 3.1429 5.55322H7.44867C7.49035 5.55322 7.53032 5.5697 7.55979 5.59904C7.58926 5.62838 7.60582 5.66816 7.60582 5.70965V10.95C7.60582 10.9915 7.62237 11.0313 7.65184 11.0606C7.68131 11.0899 7.72128 11.1064 7.76296 11.1064H10.6151C10.6568 11.1064 10.6968 11.1229 10.7263 11.1522C10.7557 11.1816 10.7723 11.2214 10.7723 11.2628V14.8607C10.7723 14.9022 10.7557 14.942 10.7263 14.9713C10.6968 15.0006 10.6568 15.0171 10.6151 15.0171H7.76296C7.72128 15.0171 7.68131 15.0336 7.65184 15.0629C7.62237 15.0923 7.60582 15.1321 7.60582 15.1736Z" fill="#3E688C"/>
<path d="M11.9808 0H16.2708C16.3125 0 16.3525 0.0164808 16.3819 0.0458167C16.4114 0.0751527 16.428 0.114941 16.428 0.156428V12.7567C16.4283 12.7883 16.4383 12.8191 16.4566 12.845C16.4749 12.8708 16.5006 12.8906 16.5304 12.9016C16.5602 12.9126 16.5926 12.9144 16.6234 12.9066C16.6542 12.8989 16.6819 12.8821 16.703 12.8584C17.2677 12.1371 17.9934 11.5566 18.8226 11.1629C19.6517 10.7692 20.5616 10.5731 21.4802 10.5902C22.3803 10.5579 23.277 10.7186 24.1093 11.0613C24.9417 11.4041 25.6903 11.9209 26.3045 12.5768C27.273 13.901 27.7304 15.5279 27.5931 17.1602V27.2185C27.5931 27.26 27.5765 27.2998 27.5471 27.3291C27.5176 27.3584 27.4776 27.3749 27.4359 27.3749H23.138C23.0964 27.3749 23.0564 27.3584 23.0269 27.3291C22.9974 27.2998 22.9809 27.26 22.9809 27.2185V18.5133C22.9809 17.606 22.9809 16.1668 22.1166 15.3221C21.8318 15.0475 21.4944 14.8327 21.1246 14.6903C20.7548 14.5478 20.36 14.4808 19.9637 14.4931C19.4078 14.4596 18.853 14.5738 18.3559 14.8239C17.8589 15.074 17.4376 15.4511 17.1351 15.9166C16.5979 16.8687 16.3495 17.9554 16.4201 19.0451V27.2185C16.4201 27.26 16.4035 27.2998 16.3741 27.3291C16.3446 27.3584 16.3046 27.3749 16.2629 27.3749H11.9808C11.9391 27.3749 11.8991 27.3584 11.8696 27.3291C11.8402 27.2998 11.8236 27.26 11.8236 27.2185V0.156428C11.8236 0.114941 11.8402 0.0751527 11.8696 0.0458167C11.8991 0.0164808 11.9391 0 11.9808 0V0Z" fill="#F27B93"/>
</svg>
