<svg width="202" height="201" viewBox="0 0 202 201" fill="none" xmlns="http://www.w3.org/2000/svg">
<path d="M55.6318 110.985V199.086C55.6318 199.39 55.5107 199.681 55.2951 199.895C55.0796 200.11 54.7872 200.231 54.4824 200.231H22.9884C22.6835 200.231 22.3912 200.11 22.1756 199.895C21.96 199.681 21.8389 199.39 21.8389 199.086V110.985C21.8472 110.833 21.8232 110.68 21.7684 110.538C21.7135 110.395 21.6291 110.266 21.5207 110.158C21.4123 110.05 21.2822 109.966 21.139 109.911C20.9958 109.856 20.8426 109.833 20.6895 109.841H1.03449C0.749982 109.812 0.486346 109.679 0.295062 109.468C0.103778 109.256 -0.00141848 108.981 1.44485e-05 108.697V82.6095C1.44485e-05 82.306 0.121113 82.015 0.336671 81.8004C0.552228 81.5858 0.844587 81.4653 1.14943 81.4653H20.8045C20.9576 81.4736 21.1107 81.4496 21.254 81.395C21.3972 81.3405 21.5272 81.2565 21.6357 81.1485C21.7441 81.0406 21.8285 80.9111 21.8833 80.7686C21.9381 80.626 21.9622 80.4735 21.9539 80.3211V41.7625C21.9524 41.4778 22.0576 41.2029 22.2489 40.9913C22.4402 40.7797 22.7038 40.6467 22.9884 40.6183H54.4824C54.7872 40.6183 55.0796 40.7388 55.2951 40.9534C55.5107 41.168 55.6318 41.459 55.6318 41.7625V80.0923C55.6318 80.3957 55.7529 80.6868 55.9685 80.9013C56.184 81.1159 56.4764 81.2365 56.7812 81.2365H77.6431C77.948 81.2365 78.2403 81.357 78.4559 81.5716C78.6714 81.7862 78.7925 82.0772 78.7925 82.3806V108.697C78.7925 109 78.6714 109.291 78.4559 109.506C78.2403 109.72 77.948 109.841 77.6431 109.841H56.7812C56.4764 109.841 56.184 109.961 55.9685 110.176C55.7529 110.391 55.6318 110.682 55.6318 110.985Z" fill="#333333" fill-opacity="0.05"/>
<path d="M87.6306 0H119.01C119.315 0 119.607 0.120547 119.822 0.335121C120.038 0.549695 120.159 0.84072 120.159 1.14417V93.3074C120.162 93.5387 120.235 93.7637 120.368 93.9529C120.502 94.1421 120.69 94.2864 120.908 94.367C121.126 94.4475 121.363 94.4604 121.589 94.404C121.814 94.3477 122.017 94.2246 122.171 94.0511C126.301 88.7751 131.609 84.5291 137.674 81.6495C143.739 78.7698 150.394 77.3357 157.113 77.4606C163.697 77.2244 170.255 78.3997 176.344 80.9067C182.432 83.4138 187.908 87.1941 192.4 91.9916C199.484 101.677 202.829 113.577 201.825 125.516V199.086C201.825 199.39 201.704 199.681 201.488 199.895C201.273 200.11 200.981 200.23 200.676 200.23H169.239C168.934 200.23 168.642 200.11 168.426 199.895C168.211 199.681 168.09 199.39 168.09 199.086V135.413C168.09 128.777 168.09 118.25 161.768 112.072C159.685 110.063 157.217 108.492 154.512 107.45C151.807 106.408 148.92 105.918 146.021 106.008C141.955 105.763 137.896 106.598 134.261 108.427C130.626 110.257 127.544 113.015 125.331 116.42C121.402 123.384 119.586 131.332 120.102 139.303V199.086C120.102 199.39 119.981 199.681 119.765 199.895C119.549 200.11 119.257 200.23 118.952 200.23H87.6306C87.3258 200.23 87.0334 200.11 86.8179 199.895C86.6023 199.681 86.4812 199.39 86.4812 199.086V1.14417C86.4812 0.84072 86.6023 0.549695 86.8179 0.335121C87.0334 0.120547 87.3258 0 87.6306 0V0Z" fill="#333333" fill-opacity="0.05"/>
</svg>
