<svg xmlns="http://www.w3.org/2000/svg" viewBox="0 0 438.32 530.3"><defs><style>.cls-1{fill:#bababa;}.cls-2{fill:#9fd2ff;}.cls-3{fill:#4692c1;}.cls-4{fill:#63a9d3;}.cls-5{fill:#f6f6f6;}.cls-6{fill:#afafaf;}.cls-7{fill:#cccdce;}.cls-8{fill:#3574d0;}.cls-9{fill:#e2ebf2;}.cls-10{fill:#f68b77;}.cls-11{fill:#e07873;}.cls-12{fill:#070707;stroke:#0a0a0a;stroke-miterlimit:10;}.cls-13{fill:#124e66;}</style></defs><title>workshop-people</title><g id="Layer_2" data-name="Layer 2"><polygon class="cls-1" points="17.83 417 70.17 469.5 135.03 530.3 229.08 510 305.58 442.17 199.25 389.5 89.17 377.25 17.83 417"/><polygon class="cls-2" points="116.39 241.9 137.67 513.5 153.67 510.5 129.67 234.5 116.39 241.9"/><polygon class="cls-2" points="162.5 215.29 281.67 440.5 295.67 433.5 175.33 207.88 162.5 215.29"/><polygon class="cls-3" points="85.17 259 38.17 417 53.17 411 103.17 246 85.17 259"/><polygon class="cls-4" points="74.17 263 31.17 412 38.17 417 85.17 259 74.17 263"/><polygon class="cls-3" points="220.17 182 69.08 269.21 50.17 253 54.17 246 70.17 259 220.17 173 220.17 182"/><polygon class="cls-2" points="204.17 167 220.17 173 70.17 259 55.17 246 204.17 167"/><polygon class="cls-4" points="70.17 259 69.08 269.21 50.17 253 58.17 248.6 70.17 259"/><polygon class="cls-2" points="93.91 69.63 85.1 16.36 97.1 9.24 106.25 64.55 93.91 69.63"/><polygon class="cls-4" points="79.8 13.72 92.17 6.38 97.1 9.24 85.1 16.36 79.8 13.72"/><polygon class="cls-3" points="93.91 69.63 88.48 73.57 79.8 13.72 85.1 16.36 93.91 69.63"/><polygon class="cls-3" points="137.67 513.5 131.67 510 111.33 241 116.39 241.9 137.67 513.5"/><polygon class="cls-3" points="153.67 215.17 275.67 442.17 281.67 440.5 162.5 215.29 153.67 215.17"/><polygon class="cls-5" points="7.67 107.5 35.67 271.5 224.67 162.5 195.67 2.5 7.67 107.5"/><polygon class="cls-6" points="35.67 271.5 29.33 269.83 0 105.5 7.67 107.5 35.67 271.5"/><polygon class="cls-7" points="195.67 2.5 187.67 0 0 105.5 7.67 107.5 195.67 2.5"/><polygon class="cls-8" points="111.73 85 111.73 194.33 124.9 187.67 124.9 75.83 111.73 85"/><polygon class="cls-8" points="174.15 149.05 160.13 156.77 164.42 112.29 134.04 86.82 146.19 80.53 177.96 106.27 174.15 149.05"/><polygon class="cls-8" points="65.2 124.27 79.22 116.55 74.93 161.04 105.32 186.52 93.17 192.8 61.38 167.06 65.2 124.27"/></g><g id="Layer_1" data-name="Layer 1"><ellipse class="cls-1" cx="367.05" cy="485.99" rx="68.39" ry="18.2"/><path class="cls-9" d="M631.5,704.33,615,715s-11,10-9,15,25-2,25-2l31-9V704l-5.68-5Z" transform="translate(-244.18 -234.35)"/><path class="cls-9" d="M567.08,693.25,536,704s-10,6-10,11,21,5,21,5l36-5V704l-3-8Z" transform="translate(-244.18 -234.35)"/><path class="cls-10" d="M573.5,499.5l-4,23s-2,12,2,15,16-5,16-5l4-26-11-11Z" transform="translate(-244.18 -234.35)"/><path class="cls-8" d="M630,515l24-2,15-6s2.5,54.5,1.5,65.5-6,40-6,40-3,22-4,32S655,705,655,705l-6.5,6.5-13-5-9-89-2.83-56H612.5s-3,30-6,39-9,28-9,28l-17,72-10,2-10-6,6-86L585,504Z" transform="translate(-244.18 -234.35)"/><polygon class="cls-2" points="353.82 143.65 338.82 151.65 325.82 219.65 325.82 268.65 339.82 272.65 361.82 207.65 353.82 143.65"/><polygon class="cls-9" points="336.32 261.15 339.82 276.65 353.82 279.65 378.82 282.65 402.82 282.65 426.82 271.65 431.32 257.15 431.32 192.15 396.32 143.15 354.32 143.15 338.82 151.65 344.32 166.15 333.32 191.98 338.32 222.15 336.32 261.15"/><polygon class="cls-10" points="373.82 131.65 369.32 143.15 373.82 149.65 377.82 149.65 390.82 149.65 396.82 140.65 393.82 118.65 373.82 131.65"/><polygon class="cls-11" points="369.32 143.15 373.82 149.65 387.28 143.15 394.48 123.51 371.44 130.65 369.32 143.15"/><polygon class="cls-10" points="358.82 85.65 353.82 105.65 355.82 129.65 364.82 135.65 377.82 137.65 390.82 131.65 402.82 116.65 402.82 89.65 381.82 74.65 358.82 85.65"/><path class="cls-12" d="M622,297c-1,0-25,5-29,12s7.26,21.94,7.26,21.94L616,332s7-1,11-4,11-7.62,11-7.62,3,3.62,6,11.62,3,8.5,3,8.5V351s11-10,13-22-3-10-3-10,12.74,3,13.74-14S655,284,647,289s-9,12-9,12S636,297,622,297Z" transform="translate(-244.18 -234.35)"/><polygon class="cls-2" points="383.32 208.15 336.82 193.65 340.82 226.65 339.82 264.65 354.82 274.65 383.82 277.65 405.82 277.65 422.82 271.65 426.82 257.65 431.32 217.15 411.32 192.15 385.32 208.15 383.32 208.15"/><path class="cls-3" d="M554.7,454.1l39.07-29.53s8.2-4.39,6.91-1.68a21.76,21.76,0,0,1-3.5,5L557.91,459Z" transform="translate(-244.18 -234.35)"/><polygon class="cls-9" points="304.48 232.38 313.74 224.62 310.52 219.75 300.32 224.85 300.4 229.32 304.48 232.38"/><path class="cls-13" d="M536.69,473.2s13.38,1.21,12.9-9.63c-.44-9.94-12.13-1.78-11.68,2.45.53,5-5.73,5-5.73,5Z" transform="translate(-244.18 -234.35)"/><polygon class="cls-10" points="361.32 220.15 339.32 204.15 322.32 204.15 316.32 216.15 321.32 220.15 341.32 226.15 347.32 230.15 361.32 220.15"/><polygon class="cls-9" points="396.32 143.15 426.32 155.15 438.32 182.15 434.32 231.15 422.32 265.15 390.32 265.15 344.32 232.15 350.32 216.15 371.32 218.15 398.32 232.15 400.32 154.15 396.32 143.15"/></g></svg>