<svg xmlns="http://www.w3.org/2000/svg" viewBox="0 0 666 666"><defs><style>.cls-1,.cls-3{fill:#ffeaee;}.cls-2{fill:none;}.cls-2,.cls-3,.cls-4{stroke:#ffc6d0;stroke-miterlimit:10;}.cls-2,.cls-3{stroke-width:10px;}.cls-4{fill:#ffc6d0;stroke-width:5px;}</style></defs><title>ws-emptystatedots</title><g id="Layer_2" data-name="Layer 2"><circle class="cls-1" cx="333" cy="333" r="333"/><rect class="cls-2" x="298" y="118" width="69" height="405" rx="3.67" ry="3.67"/><path class="cls-2" d="M589.59,715h60.48a5,5,0,0,0,4.71-6.56L535.14,354.38a5,5,0,0,0-4.71-3.38H471.89a5,5,0,0,0-4.72,6.54L584.87,711.6A5,5,0,0,0,589.59,715Z" transform="translate(-167 -167)"/><path class="cls-2" d="M409.57,715H348.62a4.75,4.75,0,0,1-4.5-6.27l119.79-354.5a4.75,4.75,0,0,1,4.5-3.23h59a4.74,4.74,0,0,1,4.5,6.25L414.08,711.75A4.74,4.74,0,0,1,409.57,715Z" transform="translate(-167 -167)"/><rect class="cls-3" x="142.5" y="179" width="380.82" height="273.5" rx="5.25" ry="5.25"/><circle class="cls-4" cx="247.5" cy="315.5" r="18"/><circle class="cls-4" cx="333" cy="315.75" r="18"/><circle class="cls-4" cx="416.5" cy="315.5" r="18"/></g></svg>