<svg xmlns="http://www.w3.org/2000/svg" viewBox="0 0 390.82 440"><defs><style>.cls-1{fill:none;}.cls-1,.cls-2{stroke:#ffc6d0;stroke-miterlimit:10;stroke-width:10px;}.cls-2{fill:#fff;}</style></defs><title>ws-emptystates</title><g id="Layer_2" data-name="Layer 2"><rect class="cls-1" x="160.5" y="5" width="69" height="405" rx="3.67" ry="3.67"/><path class="cls-1" d="M589.59,715h60.48a5,5,0,0,0,4.71-6.56L535.14,354.38a5,5,0,0,0-4.71-3.38H471.89a5,5,0,0,0-4.72,6.54L584.87,711.6A5,5,0,0,0,589.59,715Z" transform="translate(-304.5 -280)"/><path class="cls-1" d="M409.57,715H348.62a4.75,4.75,0,0,1-4.5-6.27l119.79-354.5a4.75,4.75,0,0,1,4.5-3.23h59a4.74,4.74,0,0,1,4.5,6.25L414.08,711.75A4.74,4.74,0,0,1,409.57,715Z" transform="translate(-304.5 -280)"/><rect class="cls-2" x="5" y="66" width="380.82" height="273.5" rx="5.25" ry="5.25"/><circle class="cls-1" cx="194.5" cy="203" r="74"/><line class="cls-1" x1="96.5" y1="299" x2="289.5" y2="106"/></g></svg>