<svg id="Layer_1" data-name="Layer 1" xmlns="http://www.w3.org/2000/svg" viewBox="0 0 660 91.11"><defs><style>.cls-1,.cls-2{fill:#4e2817;}.cls-2{fill-rule:evenodd;}.cls-3{fill:#f26922;}</style></defs><title>sticker-mule-logo-light-bg-edit</title><path class="cls-1" d="M132,154.87c-9.27,0-17.78-1-25.25-8.5l9.66-9.67c4.9,4.9,11.21,5.54,15.85,5.54,5.16,0,10.44-1.67,10.44-6.18,0-3-1.55-5-6.31-5.41l-9.28-.91c-10.7-1-17.27-5.67-17.27-16.62,0-12.24,10.82-18.94,22.94-18.94,9.28,0,17,1.54,22.68,6.95l-9.15,9.28c-3.48-3.09-8.64-4-13.79-4-5.93,0-8.38,2.7-8.38,5.67,0,2.19.91,4.64,6.19,5.15l9.28.91c11.72,1.16,17.65,7.34,17.65,17.39C157.28,148.69,146.07,154.87,132,154.87Z" transform="translate(0 -70.08)"/><path class="cls-1" d="M183.06,154.23c-12.12,0-17.14-8.51-17.14-17V107.84H159.6V96.62h6.32V79.1h14.82V96.62h10.44v11.22H180.74v28.48c0,3.35,1.54,5.41,5.15,5.41h5.41v12.5Z" transform="translate(0 -70.08)"/><path class="cls-1" d="M197.75,84.77V72.65H213V84.77Zm.26,69.46V95h14.82v59.28Z" transform="translate(0 -70.08)"/><path class="cls-1" d="M246.2,154.87c-11.85,0-26.54-6.31-26.54-30.41s14.69-30.28,26.54-30.28c8.25,0,14.31,2.44,19.59,8l-10.05,10c-3.09-3.35-5.67-4.64-9.54-4.64a10.22,10.22,0,0,0-8.37,3.86c-2.32,2.84-3.35,6.83-3.35,13.15s1,10.31,3.35,13.27a10.37,10.37,0,0,0,8.37,3.87c3.87,0,6.45-1.42,9.54-4.64L265.79,147C260.51,152.3,254.45,154.87,246.2,154.87Z" transform="translate(0 -70.08)"/><path class="cls-1" d="M306.64,154.23l-14.56-24.74-6.31,7.08v17.66H271V73.17h14.82v46L305.48,95h17.91l-21.13,24,22.81,35.44H306.64Z" transform="translate(0 -70.08)"/><path class="cls-1" d="M337.31,129.1c0,7.6,4.64,13.14,13,13.14,6.44,0,9.66-1.8,13.4-5.54l9,8.77c-6.06,6.05-11.85,9.27-22.55,9.27-14.05,0-27.45-6.31-27.45-30.41,0-19.33,10.44-30.28,25.9-30.28,16.5,0,25.91,12.11,25.91,28.35V129H337.31Zm21.27-16.5a10.37,10.37,0,0,0-9.93-6.18c-5,0-8.37,2.58-9.92,6.18a16.91,16.91,0,0,0-1.42,6.32h22.55A16.65,16.65,0,0,0,358.58,112.6Z" transform="translate(0 -70.08)"/><path class="cls-1" d="M413.73,111.06c-2.32-2.32-4.25-3.48-7.86-3.48-4.51,0-9.54,3.48-9.54,11v35.7H381.51V95H396v5.67c2.83-3.48,8.5-6.32,14.95-6.32,5.8,0,9.92,1.42,14,5.55Z" transform="translate(0 -70.08)"/><path class="cls-2" d="M61.15,160.8a12.25,12.25,0,0,1-3.22.39c-1,0-2.45,0-3.1-.52-.38-.26-.38-.9-.38-1.29s.12-1,.12-1.41a2.48,2.48,0,0,0,0-1.68c-.25-.39-1.16-.26-1.67-.51s-.65-1-.77-1.81c0-.26-.26-.51-.26-.64a14.45,14.45,0,0,1,.51-4c.26-1.29.65-2.45.91-3.74a21.83,21.83,0,0,0,.25-5.79,8.87,8.87,0,0,1,0-2.58c.13-.78.52-1.42.65-2.19v-.78c0-.25.13-.38.13-.64,0-.52-.13-1.16-.13-1.8a38.62,38.62,0,0,1,.13-5.55c0-.51.25-1-.13-1.28a31.39,31.39,0,0,0-5,.51,47.88,47.88,0,0,1-14.3-.26,3.57,3.57,0,0,0-1.16-.13,19.89,19.89,0,0,1-8-3.73,7.13,7.13,0,0,1-1.16-.9c-.39-.26-.78-.65-1.16-.91a4.26,4.26,0,0,0-4.77,1.29,14.93,14.93,0,0,0-.77,1.55,7.79,7.79,0,0,0-.65,1.54c-1.16,2.58-2.45,5.16-3.61,7.74-.64,1.54-1.41,3.22-1.93,4.89-1,3.61-.13,8.38.77,11.86a8.73,8.73,0,0,1,.39,1,5.86,5.86,0,0,0,1.42,2.45c.39.26.9.51,1.29.77a5.63,5.63,0,0,1,1.16,1.94,7.05,7.05,0,0,1,.51,1c.39.77.65,1.41-.26,1.93a7.29,7.29,0,0,1-2.57.51c-.39.13-.26.65-.52.91a7.6,7.6,0,0,1-1,.51,7.38,7.38,0,0,1-4.12,0,1.69,1.69,0,0,1-1.16-.9c-.26-.77.38-1.67-.13-2.19-.26-.26-.77-.26-1.16-.39a3.54,3.54,0,0,1-1.55-1.54c-.64-1.81-.26-4.51-.38-6.7,0-.65-.13-1.29-.13-2.07,0-1.29-.39-2.57-.52-3.86-.13-.65-.26-1.16-.39-1.68-.25-.9-.38-1.93-.64-2.83a5.25,5.25,0,0,1,0-2.84c.13-.26.39-.51.52-.77a3.37,3.37,0,0,0,.25-1.55c-.13-.26-.77,0-.9-.26-.39-2.83-.77-5.54-1-8.5a22.55,22.55,0,0,1-.13-3c-.13-1.94,0-4-.26-5.93l-.38-2.71c-.39-2.58-1-5.8-.52-8.5a10.46,10.46,0,0,1,1.93-4.39c.65-.9,1.42-1.67,2.2-2.57a20,20,0,0,1,2.57-2.19c.65-.39,1.29-.91,1.94-1.29a15.67,15.67,0,0,1,5.41-1.42,25.42,25.42,0,0,1,6.31.26c1.94.38,3.87.64,5.8,1s3.61.9,5.41,1.29c.26,0,.39.25.65.25a11.33,11.33,0,0,1,1.8.39,26.44,26.44,0,0,0,5.8.65,21.46,21.46,0,0,0,5.93-.52,1.85,1.85,0,0,1,.77-.26,2.21,2.21,0,0,1,.91-.13c.12,0,.38-.25.51-.38A21,21,0,0,0,51,92.37a10,10,0,0,1,2.32-1.29c.38-.13.9-.38,1.28-.51a7.79,7.79,0,0,0,2.58-1A14,14,0,0,0,60,87c.9-.77,1.93-1.68,3-2.45C65,82.84,67.07,81.42,69,79.87a29.36,29.36,0,0,1,3.22-2.19c2.19-1.29,4.51-2.71,7.73-3a19.25,19.25,0,0,1,3.87,0c.38,0,.77.25,1.16.13s.64-.65.77-1c.52-.9.77-1.41,1.29-2.44.26-.65.13-1.29.77-1.29s.52,1.67.52,2.32a13.74,13.74,0,0,0,0,2.32,1.43,1.43,0,0,0,1.16.9,1.32,1.32,0,0,0,.9-.52c.39-.25.64-.25.9-.51A18.23,18.23,0,0,0,93,73c.38-.39,1.16-1.54,1.8-1.42,1.29.13,0,2.07-.26,2.58a34.73,34.73,0,0,1-2.06,3.87c-.26.51-1,1.29-1,1.93,0,.39.39.64.52,1.16.13.26.13.39.25.64.39,1,.78,2.45,1.16,3.61a20.19,20.19,0,0,0,.91,3c.38.9.9,1.8,1.28,2.83.13.26.13.52.26.78a69.17,69.17,0,0,0,2.58,6.44,6.62,6.62,0,0,1,.9,3c0,1.29-.64,1.94-1.29,3-.25.51-.77,1.29-1.29,1.41a3.47,3.47,0,0,1-1.16,0,6.86,6.86,0,0,1-1.28.39,2.58,2.58,0,0,1-2.58-1.67c-.13-.26,0-.65-.13-1-.26-1.41-1-2.06-1.93-3.09a7,7,0,0,0-1.94-1.42c-1.16-.64-2.32-.9-3.6-1.54A2,2,0,0,0,82.67,97c-.65.13-1.29,1.16-1.81,1.81-3.09,4.12-5.92,8.37-8.89,12.37a75.16,75.16,0,0,0-5.8,8.37c-.38.78-.64,1.68-1,2.58s-.51,1.8-.77,2.84c-1.16,3.35-1.55,7.47-2.58,11-.13.39-.13.77-.26,1.16-.51,1.8-1,3.87-1.54,5.8a29.38,29.38,0,0,0-.65,5.15c0,1.81-.13,4.26.52,5.29.38.64,1.54.77,1.93,1.41.26.39.52,1.29.9,1.81s.91,1.16.78,1.8a1.09,1.09,0,0,1-.78.9c-.38.13-.9.13-1.29.26C61.4,160,61.53,160.54,61.15,160.8Z" transform="translate(0 -70.08)"/><path class="cls-3" d="M491.44,94.18a23,23,0,0,0-17.78,7.47c-3.74-5.15-9.15-7.47-15.73-7.47a20.9,20.9,0,0,0-14.82,6.18V95H428.68v59.28H443.5V118.4c0-8.12,5.28-10.82,9.92-10.82s9.8,2.7,9.8,10.82v35.83H478V118c0-7.74,5.41-10.44,9.92-10.44s9.79,2.7,9.79,10.82v35.83h14.82V116.34c0-6.44-1.67-12.11-6.44-16.88C502.65,96.11,497.37,94.18,491.44,94.18Z" transform="translate(0 -70.08)"/><path class="cls-3" d="M555.75,130.77c0,8.12-5.29,10.83-9.93,10.83S536,138.89,536,130.77v-36H521.21v38c0,6.44,1.29,12.11,6.06,16.88,3.35,3.35,8.11,5.28,14,5.28a20.36,20.36,0,0,0,14.82-6.18v5.41h14.44V95H555.75Z" transform="translate(0 -70.08)"/><path class="cls-3" d="M594.79,136.32V73.17H580v64.05c0,8.37,5.16,17,17.27,17h8.38v-12.5H600C596.21,141.73,594.79,139.92,594.79,136.32Z" transform="translate(0 -70.08)"/><path class="cls-3" d="M660,122.53c0-16.24-9.28-28.35-25.9-28.35-15.34,0-25.91,10.95-25.91,30.28,0,24,13.41,30.41,27.45,30.41,10.7,0,16.5-3.35,22.56-9.28l-9-8.76c-3.74,3.74-7,5.54-13.41,5.54-8.37,0-13-5.54-13-13.14h37.11v-6.7Zm-37.11-3.48a16.16,16.16,0,0,1,1.41-6.32,11.06,11.06,0,0,1,19.85,0,16.86,16.86,0,0,1,1.42,6.32Z" transform="translate(0 -70.08)"/></svg>