<?xml version="1.0" encoding="utf-8"?>
<!-- Generator: Adobe Illustrator 23.0.6, SVG Export Plug-In . SVG Version: 6.00 Build 0)  -->
<svg version="1.1" id="Layer_1" xmlns="http://www.w3.org/2000/svg" xmlns:xlink="http://www.w3.org/1999/xlink" x="0px" y="0px"
	 viewBox="0 0 3000 768" style="enable-background:new 0 0 3000 768;" xml:space="preserve">
<style type="text/css">
	.st0{fill:#231F1B;}
</style>
<g>
	<g>
		<path class="st0" d="M112,174.5c-3.7,23.3-7.3,46.3-10.9,69.3c-8.6,54.3-16.9,108.5-25.6,162.8c-4,24.8-6.8,49.5-3.5,74.5
			c3.6,26.6,13.3,50.4,32.6,69.7c18.7,18.7,41.8,29.4,67.1,35.4c40,9.4,80.2,9.3,120.5,2.4c30.2-5.2,58.5-15.5,83.8-33.1
			c39.1-27.1,62.6-65,73.7-110.5c5.5-22.6,8.3-45.8,12.2-68.8c1-5.8,1.8-11.6,2.7-18.2c-25.3,0-49.9,0-74.6,0
			c9.7-61.6,19.4-122.5,29.1-183.7c-25.3,0-50.1,0-75.2,0c-0.3,1.6-0.7,3.2-1,4.8c-3.8,24.3-7.6,48.7-11.4,73
			c-7.5,48-14.9,96-22.8,144c-2.2,13.7-4.9,27.6-9,40.8c-4.8,15.4-16.2,24.6-32.5,26.6c-6.4,0.8-13,1-19.4,0.2
			c-16-2-23.8-10.8-24.8-26.9c-0.3-4.6-0.2-9.4,0.4-14c2.3-16.7,4.7-33.3,7.3-49.9c8.9-56.7,17.8-113.5,26.7-170.2
			c1.5-9.5,2.9-18.9,4.4-28.6C211.8,174.5,162.2,174.5,112,174.5z M2655.4,314c-6.5-3.1-12.3-6.1-18.3-8.5
			c-25.5-10.2-52.2-14.3-79.5-15.6c-33.1-1.5-65.1,3.4-95.3,17.6c-39.8,18.8-65.6,48.4-68.9,94c-1.6,21.9,6.2,39.8,24.8,52.4
			c11.8,8,25,12.5,38.8,15.3c9.6,2,19.4,3.2,29,5.1c5.6,1.1,10.8,3.6,11.9,9.9c1.2,7.1-1.3,13.2-7.6,16.6c-4.4,2.4-9.6,4.2-14.5,4.5
			c-16.5,1-31.4-5-45.6-12.6c-10.7-5.7-20.8-12.3-31.6-18.8c-16.6,28.8-33.3,57.9-50,87c1.4,0.7,2.1,1.1,2.8,1.5
			c29.1,13.2,59,23.7,90.7,28.4c40.8,6,80.5,2.3,118.3-14.7c44.3-20,72.5-52.4,75.3-102.9c1.3-23.6-7.4-42.6-28.5-54.9
			c-12.5-7.3-26.3-11.2-40.3-14.1c-11.1-2.3-22.2-4.2-33.2-6.8c-5.3-1.3-9.2-4.7-9.3-10.9c-0.1-6.2,2.9-11,8.5-12.8
			c5.4-1.8,11.4-2.9,17-2.7c20.5,0.7,38.2,9.2,54.6,21.1c1.1,0.8,2.4,1.6,3.8,2.5C2623.9,367.8,2639.4,341.3,2655.4,314z
			 M2609.7,560.9c1.6,0.8,2.8,1.6,4.2,2.2c25.1,11.2,50.9,20.6,78,25.8c43.6,8.4,86.3,6,127.3-11.8c43.7-18.9,72.4-49.9,77.3-99.4
			c2.9-29.5-9.2-51.9-36.4-63.3c-12-5-25-7.8-37.7-11.1c-9.3-2.4-18.9-3.7-28.3-6c-5-1.2-8.6-4.7-8.9-10.2
			c-0.3-5.8,2.1-10.9,7.7-12.8c5.7-1.9,11.9-3.3,17.9-3.2c20.2,0.5,37.6,8.9,53.7,20.5c1.4,1,2.8,2,4.5,3.3
			c15.8-27.1,31.4-53.6,47-80.3c-0.9-0.6-1.5-1.2-2.2-1.6c-3.7-1.9-7.3-4-11.1-5.6c-33.9-14.3-69.5-18.8-106-17.4
			c-28.6,1.2-56,7.8-81.4,21.5c-35,19-57.1,47.2-60.7,88c-2.4,26.6,8.5,47.1,32.5,58.8c9.8,4.8,20.4,8,31,10.7
			c9.6,2.5,19.7,3.4,29.4,5.4c5.2,1.1,10,3.5,11.2,9.3c1.3,6.4-0.4,12.5-6,15.8c-4.8,2.9-10.6,5.1-16.1,5.6
			c-14.7,1.2-28.3-3.8-41.1-10.4c-12.2-6.3-23.8-13.6-36.1-20.7C2643.1,502.7,2626.5,531.7,2609.7,560.9z M753.7,586.5
			c9.5-60.3,19-120.2,28.4-180.1c15.9,0.9,31.1,1.8,46.5,2.7c6.1-37.3,12-74,18-111.2c-16.2,0.7-31.6,1.4-47.5,2
			c5.1-32.5,10.1-64.4,15.2-97.2c-2.7,0.9-4.6,1.4-6.5,2c-44.2,15.1-88.3,30.5-132.7,45.1c-8.9,2.9-12.8,6.9-13.4,16.2
			c-0.8,11.3-3.3,22.6-5.1,33.9c-11.5-0.7-22.4-1.3-33.9-2c-6,37.1-12,73.9-18.1,111.2c12-0.9,23-1.7,34.9-2.6
			c-9.5,60.3-18.9,120-28.3,180.1C659,586.5,706.1,586.5,753.7,586.5z M1823.2,296.5c-15.3,97-30.6,193.3-45.8,289.9
			c47.7,0,94.4,0,141.4,0c5.8-36.8,11.5-73.3,17.2-109.7c2.3-14.4,7-27.7,16.3-39.1c16.7-20.5,53.9-27.5,77.9-11.6
			c3.7,2.4,7.5,4.6,11.6,7.1c7.5-48.2,15-95.7,22.5-143.6c-21.1-0.2-41.3,0.6-60.5,8.6c-19.1,8-33.2,22.4-46.5,37.9
			c-0.5-0.4-1.1-0.9-1.6-1.3c3-12.7,5.9-25.3,8.9-38.2C1917.2,296.5,1870.4,296.5,1823.2,296.5z M807.1,586.8c2.5,0,4.5,0,6.5,0
			c42.8,0,85.6,0,128.5,0c1.2,0,2.5,0.4,3.5-0.1c1.3-0.7,3.2-1.9,3.4-3.1c4.2-25.6,8-51.3,12.2-76.9c2.4-14.8,4.3-29.7,8.1-44.1
			c5.4-20.3,17.8-35.3,38.5-41.8c19-6,37.4-4.9,54.5,6.5c2.9,2,6,3.7,9.4,5.9c7.6-48.4,15-95.7,22.5-143.7c-4.3,0-8.3-0.1-12.2,0
			c-18.6,0.5-36.9,2.5-53.8,11.2c-14.7,7.5-26.4,18.4-36.9,30.9c-1.3,1.5-3,2.7-4.5,4c-0.4-0.4-0.8-0.7-1.2-1.1
			c3-12.5,5.9-25.1,8.9-37.9c-47.3,0-94.1,0-141.3,0C837.7,393.1,822.4,489.7,807.1,586.8z M569.9,586.6
			c20.2-137.5,40.4-274.6,60.7-412.1c-45.9,0-91.3,0-137,0c-5.9,37.5-11.8,74.7-17.8,112.7c25,0,49.5,0,74.7,0
			c-40.8,100.2-81.3,199.5-121.9,299.4C476.1,586.6,522.8,586.6,569.9,586.6z"/>
		<path class="st0" d="M112,174.5c50.2,0,99.9,0,150.1,0c-1.5,9.7-2.9,19.2-4.4,28.6c-8.9,56.7-17.8,113.4-26.7,170.2
			c-2.6,16.6-5.1,33.2-7.3,49.9c-0.6,4.6-0.7,9.3-0.4,14c1,16.1,8.8,24.9,24.8,26.9c6.4,0.8,13,0.6,19.4-0.2
			c16.2-2.1,27.7-11.2,32.5-26.6c4.1-13.3,6.8-27.1,9-40.8c7.8-48,15.2-96,22.8-144c3.8-24.3,7.6-48.7,11.4-73
			c0.3-1.6,0.6-3.2,1-4.8c25.1,0,49.9,0,75.2,0c-9.7,61.2-19.3,122.2-29.1,183.7c24.8,0,49.3,0,74.6,0c-1,6.5-1.8,12.4-2.7,18.2
			c-3.9,23-6.7,46.2-12.2,68.8c-11.1,45.5-34.7,83.4-73.7,110.5c-25.3,17.6-53.6,27.9-83.8,33.1c-40.3,6.9-80.6,7-120.5-2.4
			c-25.4-6-48.5-16.7-67.1-35.4c-19.2-19.3-29-43.1-32.6-69.7c-3.4-25.1-0.5-49.8,3.5-74.5c8.4-54.7,16.7-108.9,25.2-163.2
			C104.7,220.8,108.3,197.8,112,174.5z"/>
		<path class="st0" d="M2655.4,314c-16,27.3-31.5,53.8-47.2,80.8c-1.5-1-2.7-1.7-3.8-2.5c-16.3-11.9-34-20.4-54.6-21.1
			c-5.7-0.2-11.6,0.9-17,2.7c-5.6,1.8-8.6,6.6-8.5,12.8c0.1,6.1,4,9.6,9.3,10.9c11,2.6,22.1,4.6,33.2,6.8
			c14.1,2.9,27.8,6.8,40.3,14.1c21.1,12.3,29.8,31.2,28.5,54.9c-2.8,50.4-31,82.9-75.3,102.9c-37.8,17-77.5,20.7-118.3,14.7
			c-31.7-4.7-61.6-15.2-90.7-28.4c-0.7-0.3-1.5-0.8-2.8-1.5c16.8-29.2,33.5-58.2,50-87c10.8,6.5,20.9,13.1,31.6,18.8
			c14.2,7.6,29.1,13.6,45.6,12.6c4.9-0.3,10.1-2.1,14.5-4.5c6.3-3.4,8.8-9.5,7.6-16.6c-1.1-6.4-6.3-8.8-11.9-9.9
			c-9.6-1.9-19.4-3.1-29-5.1c-13.8-2.8-27-7.3-38.8-15.3c-18.6-12.6-26.4-30.5-24.8-52.4c3.3-45.6,29.1-75.2,68.9-94
			c30.1-14.2,62.2-19.1,95.3-17.6c27.3,1.2,54,5.3,79.5,15.6C2643.1,307.8,2648.8,310.9,2655.4,314z"/>
		<path class="st0" d="M2609.7,560.9c16.8-29.2,33.4-58.2,49.9-86.8c12.2,7.1,23.9,14.4,36.1,20.7c12.8,6.6,26.4,11.6,41.1,10.4
			c5.5-0.4,11.3-2.7,16.1-5.6c5.6-3.3,7.3-9.4,6-15.8c-1.2-5.9-6-8.3-11.2-9.3c-9.8-2-19.8-2.8-29.4-5.4c-10.6-2.8-21.2-6-31-10.7
			c-24-11.7-34.9-32.2-32.5-58.8c3.6-40.8,25.7-69,60.7-88c25.3-13.7,52.7-20.4,81.4-21.5c36.5-1.5,72.1,3,106,17.4
			c3.8,1.6,7.4,3.7,11.1,5.6c0.7,0.4,1.3,0.9,2.2,1.6c-15.6,26.7-31.2,53.2-47,80.3c-1.7-1.2-3.1-2.2-4.5-3.3
			c-16.1-11.6-33.6-19.9-53.7-20.5c-6-0.2-12.2,1.3-17.9,3.2c-5.6,1.8-8,7-7.7,12.8c0.2,5.5,3.8,9,8.9,10.2c9.4,2.3,19,3.6,28.3,6
			c12.7,3.3,25.7,6.1,37.7,11.1c27.3,11.4,39.4,33.8,36.4,63.3c-4.9,49.5-33.7,80.5-77.3,99.4c-41,17.8-83.8,20.2-127.3,11.8
			c-27.1-5.2-52.9-14.6-78-25.8C2612.5,562.5,2611.3,561.7,2609.7,560.9z"/>
		<path class="st0" d="M753.7,586.5c-47.6,0-94.7,0-142.4,0c9.4-60.1,18.8-119.8,28.3-180.1c-11.9,0.9-22.9,1.7-34.9,2.6
			c6.1-37.3,12-74.1,18.1-111.2c11.5,0.7,22.4,1.3,33.9,2c1.8-11.3,4.3-22.5,5.1-33.9c0.7-9.3,4.6-13.3,13.4-16.2
			c44.4-14.6,88.5-30,132.7-45.1c1.9-0.6,3.7-1.2,6.5-2c-5.1,32.8-10.1,64.7-15.2,97.2c15.9-0.7,31.3-1.3,47.5-2
			c-6,37.2-12,73.9-18,111.2c-15.3-0.9-30.6-1.8-46.5-2.7C772.7,466.3,763.2,526.3,753.7,586.5z"/>
		<path class="st0" d="M1823.2,296.5c47.2,0,93.9,0,141.3,0c-3,12.9-6,25.5-8.9,38.2c0.5,0.4,1.1,0.9,1.6,1.3
			c13.3-15.5,27.4-29.9,46.5-37.9c19.2-8,39.4-8.8,60.5-8.6c-7.5,48-14.9,95.4-22.5,143.6c-4.1-2.5-7.9-4.7-11.6-7.1
			c-24-15.9-61.2-8.9-77.9,11.6c-9.3,11.5-14,24.8-16.3,39.1c-5.7,36.5-11.5,73-17.2,109.7c-46.9,0-93.7,0-141.4,0
			C1792.7,489.9,1807.9,393.5,1823.2,296.5z"/>
		<path class="st0" d="M807.1,586.8c15.4-97.1,30.6-193.7,45.9-290.3c47.2,0,94,0,141.3,0c-3,12.8-6,25.4-8.9,37.9
			c0.4,0.4,0.8,0.7,1.2,1.1c1.5-1.3,3.2-2.5,4.5-4c10.5-12.4,22.3-23.4,36.9-30.9c16.9-8.6,35.2-10.6,53.8-11.2
			c3.9-0.1,7.9,0,12.2,0c-7.5,48-14.9,95.3-22.5,143.7c-3.4-2.1-6.5-3.9-9.4-5.9c-17.1-11.5-35.5-12.6-54.5-6.5
			c-20.7,6.6-33.1,21.5-38.5,41.8c-3.8,14.4-5.7,29.4-8.1,44.1c-4.2,25.6-8,51.3-12.2,76.9c-0.2,1.2-2.1,2.4-3.4,3.1
			c-0.9,0.5-2.3,0.1-3.5,0.1c-42.8,0-85.6,0-128.5,0C811.6,586.8,809.6,586.8,807.1,586.8z"/>
		<path class="st0" d="M569.9,586.6c-47.2,0-93.8,0-141.4,0c40.7-99.8,81.1-199.2,121.9-299.4c-25.2,0-49.7,0-74.7,0
			c6-38,11.9-75.3,17.8-112.7c45.7,0,91.1,0,137,0C610.4,312,590.2,449.1,569.9,586.6z"/>
		<path class="st0" d="M1305.6,296.8c0,11.3,0,22.4,0,33.5c-0.6,0.2-1.3,0.5-1.9,0.8c-1.3-1.4-2.8-2.6-3.8-4.1
			c-10.5-16.1-24.7-27.4-43.3-32.6c-33.8-9.5-66-4.8-96.2,12.8c-33.8,19.7-56.4,49.3-71.9,84.6c-17,38.9-22.9,79.2-12.4,120.9
			c6.3,25.2,18,47.5,39.5,63c30.5,21.9,63.9,22.4,98,10c19.5-7.1,35.2-20.1,50.4-33.7c1.6-1.4,3.5-2.6,5.2-3.9
			c0.4,0.3,0.9,0.6,1.3,0.9c-3.3,12.4-6.6,24.8-10,37.6c46.5,0,92.3,0,138.5,0c15.3-96.7,30.6-193.3,45.9-289.8
			C1398.4,296.8,1352.5,296.8,1305.6,296.8z M1288.1,439.5c-2.7,14.5-8.5,27.3-21,36.1c-9.6,6.8-20.5,8.4-31.9,6.2
			c-13.3-2.6-21.4-13-22.2-27.7c0-0.4,0-0.9,0-1.3c0-1.2,0-2.4,0-3.7c0.1-21.1,12.4-39.9,30.3-46.4c16.2-5.9,33.4-0.9,41,12.1
			c3.1,5.2,4.5,10.9,4.5,16.7C1288.9,434.1,1288.6,436.8,1288.1,439.5z"/>
		<path class="st0" d="M1811.7,274.7c-4-34.2-21.3-60.9-51.3-78.6c-27.2-16-57.2-21.5-88.2-21.7c-63.2-0.3-126.3-0.1-189.5-0.1
			c-1.9,0-3.7,0-5.8,0c-21.7,137.5-43.4,274.7-64.9,411.9c1,0.3,1.4,0.5,1.9,0.5c46.5,0,93,0.1,139.5-0.1c1.2,0,3.4-2,3.6-3.3
			c4.5-27.2,8.8-54.5,13.1-81.8c2.1-12.8,4.1-25.5,6.2-38.7c4.7,0,9,0.1,13.3,0c28.8-0.5,57.8,0.7,86.4-1.9
			c41.2-3.7,75.8-22.2,101.3-55.4C1806.9,366.9,1817.4,322.6,1811.7,274.7z M1667.4,323.1c-1.5,7.1-4.2,13.1-8,17.9
			c-3.7,4.7-8.5,8.4-14.4,11.1c-0.2,0.1-0.4,0.2-0.6,0.3c-0.1,0-0.1,0-0.2,0.1c-1.7,0.8-3.5,1.4-5.4,2c-10.3,3.2-20.7,3.8-31.4,3.8
			c-4.9,0-9.8-0.1-14.8-0.1c3.9-23.9,7.6-47.3,11.6-72.1c10.7,0.8,21.1,1,31.2,2c3.4,0.3,6.8,0.7,10.2,1.3
			C1664.1,292.6,1671.2,304.7,1667.4,323.1z"/>
		<path class="st0" d="M2315.5,305.2c-38.2-16.9-78.3-19.4-118.9-11.6c-41.5,7.9-77.2,26.9-105.9,58.1
			c-29.8,32.5-45.1,71.1-47.3,114.9c-1.1,22.7,3.2,44.4,15.1,64.2c15.6,26,39,42.2,67.2,51.4c55,18,109.3,14.7,162.4-7.7
			c36.4-15.4,66.1-39.1,84.9-74.7c1.4-2.7,2.6-5.6,3.9-8.5c-1.2-0.3-1.6-0.5-2.1-0.5c-44,0-88-0.1-132,0.1c-1.5,0-3.7,1.8-4.5,3.3
			c-4.6,8.8-11,15.4-20.4,18.9c-18.6,6.9-34.7-2.3-37.3-21.9c-0.8-6.2,0-12.6,0.4-18.9c0.5-6.8,0.7-6.8,7.6-6.8c64,0,128,0,192,0
			c1.9,0,3.9,0,7,0c1.3-11.3,3.2-22.3,3.9-33.3C2394.8,376.2,2368.7,328.6,2315.5,305.2z M2257.8,402.7c-0.1,0.9-1.9,2.3-2.9,2.3
			c-0.1,0-0.2,0-0.2,0c-20.7,0.2-41.4,0.1-62.5,0.1c0.8-21,18.1-37.5,37-37.4c2,0,4,0.2,6,0.5C2252.5,371.4,2259.3,389,2257.8,402.7
			z"/>
	</g>
</g>
</svg>
