<?xml version="1.0" encoding="utf-8"?>
<!-- Generator: Adobe Illustrator 23.0.1, SVG Export Plug-In . SVG Version: 6.00 Build 0)  -->
<svg version="1.1" id="Layer_1" xmlns="http://www.w3.org/2000/svg" xmlns:xlink="http://www.w3.org/1999/xlink" x="0px" y="0px"
	 viewBox="0 0 273 272.8" style="enable-background:new 0 0 273 272.8;" xml:space="preserve">
<style type="text/css">
	.st0{clip-path:url(#SVGID_2_);}
	.st1{fill:#69A2CC;}
	.st2{fill:#273954;}
</style>
<g>
	<defs>
		<rect id="SVGID_1_" width="273" height="273"/>
	</defs>
	<clipPath id="SVGID_2_">
		<use xlink:href="#SVGID_1_"  style="overflow:visible;"/>
	</clipPath>
	<g class="st0">
		<path class="st1" d="M136.5,45.7c-50.9,0-92.1,41.1-92.1,91.9c0,51,41.2,92.2,92.1,92.2s92.1-41.1,92.1-91.9
			C228.6,87.1,187.4,45.7,136.5,45.7z M84.6,166.2c-4,0-7.2-3.2-7.2-7.2c0-4,3.2-7.2,7.2-7.2c4,0,7.2,3.2,7.2,7.2
			C91.8,162.9,88.6,166.2,84.6,166.2z M84.6,144.5c-4,0-7.2-3.2-7.2-7.2c0-4,3.2-7.2,7.2-7.2c4,0,7.2,3.2,7.2,7.2
			C91.8,141.3,88.6,144.5,84.6,144.5z M84.6,122.6c-4,0-7.2-3.2-7.2-7.2c0-4,3.2-7.2,7.2-7.2c4,0,7.2,3.2,7.2,7.2
			C91.8,119.4,88.6,122.6,84.6,122.6z"/>
		<path class="st2" d="M108.7,146.7h55.7c12.3,0,12.3-19,0-19h-55.7C96.4,127.4,96.4,146.7,108.7,146.7z"/>
		<path class="st2" d="M99,80.9v112.5c0,12.3,19,12.3,19,0V80.9C118.3,68.7,99,68.7,99,80.9z"/>
		<path class="st2" d="M154.7,80.9v112.5c0,12.3,19,12.3,19,0V80.9C174,68.7,154.7,68.7,154.7,80.9z"/>
		<path class="st2" d="M167,90l29.4-4.8c5.1-0.8,8-7.2,6.7-11.8c-1.6-5.1-6.7-8-11.8-6.7l-29.4,4.8c-5.1,0.8-8,7.2-6.7,11.8
			C156.6,88.4,161.9,91.4,167,90z"/>
		<path class="st2" d="M66.4,72.4C65.6,86.3,45,86.3,45,72.4S65.8,58.5,66.4,72.4c0.5,12.3,19.8,12.3,19,0
			c-0.8-16-12.8-29.7-29.7-29.7C39.3,42.7,26,56.1,26,72.4c0.3,16,12.8,28.8,28.6,29.7c17.4,0.8,30-13.4,31-29.7
			C86.2,60.1,67.2,60.1,66.4,72.4z"/>
		<path class="st2" d="M65.8,204.3c-0.8,13.9-21.4,13.9-21.4,0C44.4,190.5,65.3,190.7,65.8,204.3c0.5,12.3,19.8,12.3,19,0
			c-0.8-16-12.8-29.6-29.7-29.6c-16.3-0.3-30,12.8-30.2,29.1c-0.3,16.3,12.8,29.9,29.2,30.2c17.4,0.8,30-13.1,31-29.7
			C85.6,192.1,66.6,192.1,65.8,204.3z"/>
		<path class="st2" d="M228,203c-0.8,13.9-21.4,13.9-21.4,0C206.6,189.1,227.5,189.1,228,203c0.5,12.3,19.8,12.3,19,0
			c-0.8-16-13.1-29.9-29.7-29.9c-16.6,0-29.7,13.4-29.7,29.9c0,15.8,12.6,28.8,28.6,29.6c17.4,0.8,30-13.4,31-29.6
			C247.8,190.5,228.8,190.5,228,203z"/>
		<path class="st2" d="M228,72.4c-0.8,13.9-21.4,13.9-21.4,0S227.5,58.5,228,72.4c0.5,12.3,19.8,12.3,19,0
			c-0.8-16-12.8-29.7-29.7-29.7c-16.6,0-29.7,13.4-29.7,29.9c0,15.8,12.6,28.8,28.6,29.7c17.4,0.8,30-13.4,31-29.7
			C247.8,60.1,228.8,60.1,228,72.4z"/>
		<path class="st2" d="M81.6,209.7l29.4-4.8c5.1-0.8,8-7.2,6.7-11.8c-1.6-5.1-6.7-8-11.8-6.7l-29.4,4.8c-5.1,0.8-8,7.2-6.7,11.8
			C71.5,208.1,76.5,211,81.6,209.7z"/>
		<path class="st2" d="M196.2,189.9l-29.4-4.8c-5.1-1.3-10.2,1.6-11.8,6.7c-1.3,4.5,1.6,11,6.7,11.8l29.4,4.8
			c5.1,1.3,10.2-1.6,11.8-6.7C204.2,197.1,201.3,190.7,196.2,189.9z"/>
		<path class="st2" d="M111.3,71.6l-29.4-4.8c-5.1-1.3-10.2,1.6-11.8,6.7c-1.3,4.5,1.6,11,6.7,11.8l29.4,4.8
			c5.1,1.3,10.2-1.6,11.8-6.7C119.4,78.8,116.4,72.4,111.3,71.6z"/>
		<path class="st2" d="M253.7,137c-0.8,48.6-30.8,93.5-77.1,110.1c-60.8,22.2-128.2-9.1-150.4-69.7c-12-33.1-8.6-70,9.6-100.4
			C69.1,21.4,141.1,3.2,196.5,36.3C232,57.7,253.7,95.9,253.7,137c0.3,12.3,19.5,12.3,19.3,0C273,61.7,212,0.8,136.8,0.5
			C61.6,0.3,0,61.4,0,136.8c0,24.6,6.7,48.9,19.3,70c29.4,48.6,85.9,74,141.9,64.1c64.8-11.2,111.1-69.2,111.9-134.1
			C273.3,124.7,254,124.7,253.7,137z"/>
	</g>
</g>
</svg>
