<svg width="143" height="36" viewBox="0 0 143 36" fill="none" xmlns="http://www.w3.org/2000/svg">
<path d="M65.0693 17.4042C69.5878 15.9642 70.3107 12.1842 70.3107 9.12423C70.3107 4.44423 67.0575 0.484226 57.1169 0.484226H38.8623V35.5842H57.1169C67.0575 35.5842 70.6722 30.5442 70.6722 25.5042C70.6722 19.2042 65.0693 17.4042 65.0693 17.4042ZM47.5377 8.04423H59.8279C61.4546 8.22423 62.3583 9.48423 62.3583 10.7442C62.3583 12.1842 61.2738 13.4442 59.8279 13.6242H47.5377V8.04423ZM59.2857 27.3042H47.5377V21.3642H59.6472C61.0931 21.5442 62.3583 22.8042 62.3583 24.2442C62.3583 25.8642 60.9124 27.3042 59.2857 27.3042Z" fill="#231F1B"/>
<path d="M111.722 0.367218H142.628V8.10722H120.397V13.6872H140.459V21.4272H120.397V27.5472H142.809V35.6472H111.722V0.367218Z" fill="#231F1B"/>
<path d="M93.7108 0.410501H74.9141V35.5105H83.5895V21.2905H92.9879C95.6989 21.2905 97.8678 23.6305 97.8678 26.3305V35.5105H106.362V24.1705C106.362 18.9505 101.302 17.3305 101.302 17.3305C101.302 17.3305 106.362 15.8905 106.362 9.5905C106.362 2.0305 99.8559 0.410501 93.7108 0.410501ZM98.41 11.3905C98.2293 12.4705 97.1449 13.7305 95.6989 13.7305H83.5895V8.1505H95.6989C97.1449 8.1505 98.2293 9.2305 98.41 10.6705" fill="#231F1B"/>
<path d="M33.3318 27.0847C33.1511 27.0847 21.5839 27.2647 17.6076 26.9047C11.1011 26.3647 8.93219 21.5047 8.93219 17.5447C8.93219 12.6847 12.1855 9.08475 17.4269 8.36475C19.9572 8.00475 33.3318 8.18474 33.3318 8.18474H33.6933V0.264744H33.3318H18.1498C16.5232 0.444745 13.6314 0.624744 10.7396 1.70474C8.0285 2.96474 5.67891 4.94474 3.87153 7.28475C1.52193 10.3447 0.4375 13.9447 0.4375 17.7247C0.4375 18.9847 0.618239 20.0647 0.798978 21.3247C1.88341 26.7247 5.31743 31.0447 10.3781 33.3847C12.0047 34.1047 14.7158 35.0047 19.9572 35.3647H22.849H33.3318H33.6933V26.9047" fill="#231F1B"/>
</svg>
