<svg width="284" height="50" viewBox="0 0 284 50" fill="none" xmlns="http://www.w3.org/2000/svg">
<path d="M35.249 35.249V48.9999H48.9999V35.249H35.249Z" fill="#231F1B"/>
<path d="M32.619 35.2491H13.7223V13.7223H35.2491V32.5904H49V0H0V49H32.619V35.2491Z" fill="#231F1B"/>
<path d="M94.39 32.466C94.018 33.024 93.5633 33.551 93.026 34.047C92.5093 34.543 91.8997 34.977 91.197 35.349C90.515 35.721 89.7503 36.0103 88.903 36.217C88.0763 36.4443 87.167 36.558 86.175 36.558C84.5217 36.558 82.9923 36.2687 81.587 35.69C80.1817 35.1113 78.9727 34.3157 77.96 33.303C76.9473 32.2697 76.1517 31.0503 75.573 29.645C75.015 28.2397 74.736 26.7 74.736 25.026C74.736 23.352 75.0253 21.8123 75.604 20.407C76.1827 19.0017 76.9783 17.7927 77.991 16.78C79.0243 15.7467 80.2333 14.9407 81.618 14.362C83.0233 13.7833 84.5423 13.494 86.175 13.494C86.981 13.494 87.7663 13.5767 88.531 13.742C89.3163 13.9073 90.05 14.145 90.732 14.455C91.414 14.7443 92.034 15.106 92.592 15.54C93.15 15.9533 93.615 16.4287 93.987 16.966L92.127 18.33C91.8997 17.9787 91.5897 17.6273 91.197 17.276C90.825 16.9247 90.3807 16.6147 89.864 16.346C89.3473 16.0773 88.779 15.8603 88.159 15.695C87.5597 15.5297 86.9087 15.447 86.206 15.447C84.78 15.447 83.4987 15.7053 82.362 16.222C81.246 16.7387 80.2953 17.4413 79.51 18.33C78.7247 19.198 78.1253 20.2107 77.712 21.368C77.2987 22.5253 77.092 23.7447 77.092 25.026C77.092 26.3073 77.2987 27.5267 77.712 28.684C78.146 29.8413 78.7557 30.8643 79.541 31.753C80.3263 32.621 81.277 33.3133 82.393 33.83C83.5297 34.3467 84.8007 34.605 86.206 34.605C87.4667 34.605 88.6653 34.3467 89.802 33.83C90.9387 33.3133 91.8893 32.4867 92.654 31.35L94.39 32.466ZM108.208 36H105.976V14.052H112.424C113.498 14.052 114.49 14.1553 115.4 14.362C116.33 14.5687 117.125 14.9097 117.787 15.385C118.469 15.8397 118.996 16.439 119.368 17.183C119.74 17.927 119.926 18.8363 119.926 19.911C119.926 20.717 119.781 21.4507 119.492 22.112C119.202 22.7733 118.81 23.352 118.314 23.848C117.818 24.3233 117.229 24.7057 116.547 24.995C115.865 25.2843 115.121 25.4703 114.315 25.553L120.732 36H118.004L111.928 25.739H108.208V36ZM108.208 23.817H112.083C113.881 23.817 115.265 23.4967 116.237 22.856C117.208 22.1947 117.694 21.213 117.694 19.911C117.694 19.1877 117.559 18.578 117.291 18.082C117.022 17.586 116.65 17.183 116.175 16.873C115.699 16.563 115.121 16.3357 114.439 16.191C113.757 16.0463 113.002 15.974 112.176 15.974H108.208V23.817ZM134.515 34.016H146.264V36H132.283V14.052H145.892V16.036H134.515V23.6H145.148V25.553H134.515V34.016ZM158.379 14.052H165.664C167.028 14.052 168.392 14.2793 169.756 14.734C171.141 15.1887 172.381 15.881 173.476 16.811C174.592 17.7203 175.491 18.8673 176.173 20.252C176.855 21.616 177.196 23.2073 177.196 25.026C177.196 26.8653 176.855 28.467 176.173 29.831C175.491 31.195 174.592 32.342 173.476 33.272C172.381 34.1813 171.141 34.8633 169.756 35.318C168.392 35.7727 167.028 36 165.664 36H158.379V14.052ZM160.611 34.016H165.044C166.697 34.016 168.134 33.7577 169.353 33.241C170.593 32.7243 171.616 32.0527 172.422 31.226C173.228 30.3787 173.827 29.4177 174.22 28.343C174.633 27.2683 174.84 26.1627 174.84 25.026C174.84 23.8893 174.633 22.7837 174.22 21.709C173.827 20.6343 173.228 19.6837 172.422 18.857C171.616 18.0097 170.593 17.3277 169.353 16.811C168.134 16.2943 166.697 16.036 165.044 16.036H160.611V34.016ZM191.823 34.016H203.572V36H189.591V14.052H203.2V16.036H191.823V23.6H202.456V25.553H191.823V34.016ZM217.918 36H215.686V14.052H222.134C223.209 14.052 224.201 14.1553 225.11 14.362C226.04 14.5687 226.836 14.9097 227.497 15.385C228.179 15.8397 228.706 16.439 229.078 17.183C229.45 17.927 229.636 18.8363 229.636 19.911C229.636 20.717 229.492 21.4507 229.202 22.112C228.913 22.7733 228.52 23.352 228.024 23.848C227.528 24.3233 226.939 24.7057 226.257 24.995C225.575 25.2843 224.831 25.4703 224.025 25.553L230.442 36H227.714L221.638 25.739H217.918V36ZM217.918 23.817H221.793C223.591 23.817 224.976 23.4967 225.947 22.856C226.919 22.1947 227.404 21.213 227.404 19.911C227.404 19.1877 227.27 18.578 227.001 18.082C226.733 17.586 226.361 17.183 225.885 16.873C225.41 16.563 224.831 16.3357 224.149 16.191C223.467 16.0463 222.713 15.974 221.886 15.974H217.918V23.817ZM241.294 36H238.845L248.331 14.052H250.501L259.925 36H257.445L255.027 30.234H243.681L241.294 36ZM244.518 28.188H254.19L249.354 16.532L244.518 28.188Z" fill="black"/>
</svg>
