<svg width="235" height="51" viewBox="0 0 235 51" fill="none" xmlns="http://www.w3.org/2000/svg">
<path d="M82.9502 29.3744L81.5496 33.407H81.4328C81.1994 32.4977 80.7714 31.114 80.0711 29.4535L72.562 10.2791H65.2085V40.8396H70.0719V21.9814C70.0719 20.7954 70.0719 19.4512 70.033 17.7907C69.9941 16.9605 69.9163 16.3279 69.8774 15.8535H69.9941C70.2275 17.0396 70.4999 17.9093 70.6944 18.4628L79.7209 40.7605H83.1447L92.0934 18.2651C92.288 17.7512 92.4825 16.7233 92.677 15.8535H92.7938C92.677 18.107 92.5992 20.1233 92.5603 21.3489V40.7209H97.735V10.2H90.6539L82.9502 29.3744ZM102.637 18.8186H107.695V40.7209H102.637V18.8186ZM105.205 9.56746C104.349 9.56746 103.649 9.88374 103.065 10.4372C102.482 10.9907 102.17 11.7023 102.17 12.5721C102.17 13.4023 102.482 14.114 103.065 14.6675C103.649 15.2209 104.349 15.4977 105.205 15.4977C106.061 15.4977 106.8 15.1814 107.345 14.6675C107.929 14.114 108.24 13.4023 108.24 12.5721C108.24 11.7419 107.929 11.0303 107.345 10.4372C106.839 9.88374 106.1 9.56746 105.205 9.56746ZM125.631 18.6209C124.698 18.4233 123.725 18.3047 122.791 18.3047C120.496 18.3047 118.395 18.8186 116.644 19.8465C114.893 20.8744 113.492 22.2977 112.598 24.0768C111.664 25.8954 111.197 27.9907 111.197 30.4023C111.197 32.4977 111.664 34.3558 112.559 36.0558C113.454 37.7163 114.699 39.0605 116.372 39.9698C117.967 40.8791 119.834 41.3535 121.935 41.3535C124.348 41.3535 126.41 40.8396 128.044 39.8907L128.083 39.8512V35.107L127.888 35.2651C127.149 35.8186 126.293 36.293 125.437 36.5698C124.542 36.8861 123.725 37.0442 123.025 37.0442C121.002 37.0442 119.406 36.4512 118.278 35.1465C117.111 33.8814 116.527 32.1419 116.527 29.9675C116.527 27.714 117.111 25.9349 118.317 24.6302C119.523 23.3256 121.118 22.6535 123.064 22.6535C124.698 22.6535 126.371 23.207 127.888 24.314L128.083 24.4721V19.4512L128.044 19.4116C127.382 19.1349 126.643 18.8186 125.631 18.6209ZM142.323 18.4628C141.078 18.4628 139.91 18.8582 138.899 19.6884C138.043 20.4 137.459 21.4279 136.954 22.6535H136.915V18.8186H131.857V40.7209H136.915V29.5326C136.915 27.6349 137.304 26.0535 138.16 24.907C139.016 23.7209 140.105 23.1279 141.428 23.1279C141.895 23.1279 142.362 23.2465 142.945 23.3256C143.49 23.4837 143.879 23.6419 144.151 23.8396L144.346 23.9977V18.8582L144.229 18.8186C143.879 18.5814 143.179 18.4628 142.323 18.4628ZM156.096 18.3442C152.555 18.3442 149.715 19.4116 147.731 21.507C145.708 23.6023 144.735 26.4884 144.735 30.1256C144.735 33.5256 145.747 36.293 147.692 38.3093C149.637 40.2861 152.283 41.314 155.59 41.314C159.053 41.314 161.815 40.2465 163.8 38.1116C165.823 35.9768 166.795 33.1303 166.795 29.6116C166.795 26.1326 165.862 23.3651 163.955 21.3489C162.127 19.3326 159.442 18.3442 156.096 18.3442ZM160.142 35.1861C159.208 36.4116 157.73 37.0047 155.901 37.0047C154.073 37.0047 152.594 36.4116 151.544 35.107C150.493 33.8814 149.987 32.1023 149.987 29.8489C149.987 27.5163 150.532 25.7372 151.544 24.4721C152.594 23.207 154.034 22.5744 155.862 22.5744C157.652 22.5744 159.053 23.1675 160.064 24.393C161.076 25.6186 161.621 27.3977 161.621 29.7302C161.543 32.1023 161.115 33.9605 160.142 35.1861ZM178.079 27.9116C176.483 27.2396 175.472 26.7256 175.005 26.2907C174.616 25.8954 174.421 25.3419 174.421 24.6302C174.421 24.0372 174.655 23.4442 175.238 23.0489C175.822 22.6535 176.483 22.4558 177.456 22.4558C178.312 22.4558 179.207 22.614 180.063 22.8512C180.919 23.0884 181.697 23.4442 182.319 23.9186L182.514 24.0768V19.2535L182.397 19.214C181.814 18.9768 181.035 18.7396 180.102 18.5419C179.168 18.3837 178.312 18.3047 177.612 18.3047C175.199 18.3047 173.215 18.8977 171.659 20.2023C170.103 21.4279 169.363 23.0884 169.363 25.0256C169.363 26.0535 169.519 26.9628 169.869 27.714C170.219 28.4651 170.725 29.1768 171.425 29.7698C172.126 30.3233 173.137 30.9558 174.538 31.5489C175.705 32.0628 176.6 32.4582 177.145 32.7744C177.689 33.0907 178.04 33.4465 178.312 33.7233C178.506 34.0396 178.623 34.4349 178.623 34.9489C178.623 36.4116 177.534 37.1233 175.316 37.1233C174.46 37.1233 173.565 36.9651 172.515 36.6093C171.464 36.2535 170.492 35.7396 169.675 35.1465L169.48 34.9884V40.0093L169.597 40.0489C170.336 40.4047 171.231 40.6419 172.32 40.9186C173.41 41.1163 174.382 41.2744 175.238 41.2744C177.845 41.2744 179.985 40.6814 181.502 39.3768C183.059 38.1116 183.876 36.4907 183.876 34.3954C183.876 32.9326 183.487 31.6279 182.631 30.6396C181.502 29.6907 180.102 28.7023 178.079 27.9116ZM197.221 18.3442C193.68 18.3442 190.84 19.4116 188.856 21.507C186.872 23.6023 185.86 26.4884 185.86 30.1256C185.86 33.5256 186.872 36.293 188.817 38.3093C190.762 40.2861 193.408 41.314 196.715 41.314C200.178 41.314 202.94 40.2465 204.925 38.1116C206.948 35.9768 207.92 33.1303 207.92 29.6116C207.92 26.1326 206.987 23.3651 205.08 21.3489C203.252 19.3326 200.567 18.3442 197.221 18.3442ZM201.228 35.1861C200.295 36.4116 198.816 37.0047 196.987 37.0047C195.12 37.0047 193.68 36.4116 192.63 35.107C191.579 33.8814 191.074 32.1023 191.074 29.8489C191.074 27.5163 191.618 25.7372 192.63 24.4721C193.68 23.207 195.12 22.5744 196.949 22.5744C198.699 22.5744 200.139 23.1675 201.151 24.393C202.162 25.6186 202.707 27.3977 202.707 29.7302C202.707 32.1023 202.201 33.9605 201.228 35.1861ZM234.961 23.0489V18.8186H229.864V12.3349L229.708 12.3744L224.884 13.8372L224.767 13.8768V18.8186H217.141V16.0512C217.141 14.7861 217.453 13.7977 217.997 13.1651C218.542 12.5326 219.359 12.2163 220.371 12.2163C221.071 12.2163 221.81 12.3744 222.627 12.7303L222.822 12.8489V8.38142L222.705 8.34188C222.005 8.10467 221.071 7.94653 219.865 7.94653C218.348 7.94653 217.025 8.30235 215.819 8.89537C214.612 9.56746 213.718 10.4768 213.056 11.7023C212.395 12.8884 212.045 14.2326 212.045 15.7744V18.8186H208.504V23.0093H212.045V40.7209H217.141V23.0489H224.767V34.3163C224.767 38.9419 226.907 41.2744 231.187 41.2744C231.887 41.2744 232.627 41.1558 233.327 41.0372C234.066 40.8791 234.611 40.6814 234.922 40.5233L234.961 40.4837V36.2535L234.766 36.4116C234.455 36.6093 234.183 36.7675 233.716 36.8861C233.327 37.0047 232.977 37.0442 232.704 37.0442C231.693 37.0442 230.992 36.807 230.487 36.214C230.02 35.6605 229.786 34.7512 229.786 33.407V23.0489H234.961Z" fill="#231F1B"/>
<path d="M0 0H23.8502V24.2349H0V0Z" fill="#231F1B"/>
<path d="M26.3403 0H50.1905V24.2349H26.3403V0Z" fill="#231F1B"/>
<path d="M0 26.7651H23.8502V51H0V26.7651Z" fill="#231F1B"/>
<path d="M26.3403 26.7651H50.1905V51H26.3403V26.7651Z" fill="#231F1B"/>
</svg>
