<svg width="94" height="93" viewBox="0 0 94 93" fill="none" xmlns="http://www.w3.org/2000/svg">
<path d="M90.8466 21.0914L73.0151 3.31273C73.0151 3.31273 61.5655 13.9051 47 2.71387C32.5096 13.9051 20.9848 3.31273 20.9848 3.31273L3.15332 21.0914C10.7364 29.962 11.825 35.3144 6.90731 47.9279C5.06786 52.6065 4.57984 57.1354 4.57984 60.8408C4.57984 66.268 6.71961 71.9946 10.0607 75.3632C15.2787 80.6781 18.6949 81.6138 27.7795 82.6244C35.0623 83.4478 42.2699 84.5332 47.0375 89.8856C51.8051 84.5332 59.0128 83.3355 66.258 82.6244C75.3802 81.7261 78.9465 80.7904 83.9768 75.3632C87.2428 71.8449 89.4201 66.3803 89.4201 60.8408C89.4201 57.1354 88.8195 52.569 87.0926 47.9279C82.3626 35.2395 83.4512 29.962 90.8466 21.0914ZM81.4241 73.5666C76.619 78.3201 72.3394 78.8441 65.7324 79.8172C58.1493 80.9401 54.3953 80.8278 47 85.5812C39.6046 80.8278 36.0758 80.9401 28.2675 79.8172C21.623 78.8815 17.3434 78.3575 12.5758 73.5666C5.89374 66.792 6.38176 57.2476 10.5487 46.3184C15.3913 33.5926 11.0367 26.3314 7.09501 21.2786L21.2851 7.13047C21.2851 7.13047 32.4345 15.9262 47 6.41932C61.5655 15.8888 72.7148 7.13047 72.7148 7.13047L86.8674 21.2786C82.8881 26.3314 78.6837 33.7049 83.4512 46.3184C87.5431 57.2102 88.2188 66.8294 81.4241 73.5666Z" fill="#231F1B"/>
<path d="M26.4277 16.7871H28.8678V21.9523H31.383V16.7871H33.9733V29.8123H31.383V24.2354H28.8678V29.8123H26.4277V16.7871Z" fill="#231F1B"/>
<path d="M36.6011 16.7871H39.2289V29.8123H36.6011V16.7871Z" fill="#231F1B"/>
<path d="M73.2775 16.3379C76.994 16.3379 77.2943 18.6959 77.2192 20.5299H74.629C74.629 17.6479 71.8135 18.097 71.8135 19.8936C71.8135 20.8668 73.6529 21.9148 75.1545 22.8505C76.5059 23.6739 77.4444 25.0214 77.482 26.4811C77.5195 27.7537 76.9189 30.1865 73.2775 30.1865C69.5611 30.1865 69.2607 27.4168 69.2607 25.8822H71.7384C71.7384 29.0637 74.7416 28.6894 74.7791 26.5934C74.7791 26.5934 74.9668 25.6202 73.3151 24.6097C71.4381 23.4868 69.3358 22.6634 69.4109 19.9685C69.3734 19.1825 69.5611 16.3379 73.2775 16.3379Z" fill="#231F1B"/>
<path d="M48.689 16.7871H51.3168V27.7537H54.1698V29.8123H48.689V16.7871Z" fill="#231F1B"/>
<path d="M41.8945 16.7495H44.5223V27.7536H47.3754V29.7747H41.8945V16.7495Z" fill="#231F1B"/>
<path fill-rule="evenodd" clip-rule="evenodd" d="M19.9335 18.696V23.412C20.3089 23.412 22.6739 23.936 22.6363 21.0166C22.6739 18.434 20.4966 18.696 19.9335 18.696ZM17.3057 16.7497V29.8872H19.9335V25.5829C20.6843 25.5455 24.9638 25.9946 25.0764 21.3909C25.2266 16.2631 20.8344 16.7497 19.9335 16.7497H17.3057Z" fill="#231F1B"/>
<path fill-rule="evenodd" clip-rule="evenodd" d="M63.3295 18.696V23.412C63.7049 23.412 66.0323 23.936 66.0323 21.0166C66.0323 18.434 63.8926 18.696 63.3295 18.696ZM60.7017 16.7497V29.8872H63.3295V25.5829C64.0427 25.5455 68.3598 25.9946 68.4724 21.3909C68.585 16.2631 64.2304 16.7497 63.3295 16.7497H60.7017Z" fill="#231F1B"/>
<path d="M55.4839 16.7871H58.1117V29.8123H55.4839V16.7871Z" fill="#231F1B"/>
<path d="M29.281 57.8839C28.2674 60.1671 27.3665 63.8351 29.3561 64.3217C31.4583 64.8831 33.1476 62.3754 34.011 60.0922C34.8744 57.8091 35.7003 54.5902 33.2602 54.1036C31.4959 53.7293 30.182 55.8628 29.281 57.8839Z" fill="#231F1B"/>
<path d="M55.8966 57.8839C54.883 60.1671 54.0571 63.8351 56.0092 64.3217C58.1114 64.8831 59.8007 62.3754 60.6641 60.0922C61.5276 57.8091 62.3534 54.5902 59.9133 54.1036C58.149 53.7293 56.7975 55.8628 55.8966 57.8839Z" fill="#231F1B"/>
<path d="M82.2873 55.5634C82.0621 54.3282 81.6116 52.4194 81.2362 51.3714C79.9974 47.7782 77.1819 40.8913 77.6324 34.0044H16.3297C16.8928 41.1907 13.8145 48.5268 12.6132 51.9328C12.3504 52.6814 12.0126 54.0662 11.8249 54.8897C10.8488 59.2314 9.12199 73.1549 25.114 75.7001C34.6867 77.2347 38.9662 76.6358 46.9998 81.0524C54.9958 76.6358 59.876 77.0849 68.848 75.7001C84.2019 73.3421 83.2634 60.5414 82.2873 55.5634ZM45.5733 47.7782L38.3281 47.2542C38.3281 47.2542 38.7785 44.2973 36.7138 44.2973C33.5229 44.2973 31.4583 51.0719 31.4583 51.0719C31.4583 51.0719 34.499 48.4893 39.3041 50.2485C44.7098 52.1948 43.396 59.1191 40.6555 63.5732C37.2769 69.1126 29.844 69.7863 25.4519 68.102C18.4694 65.4446 20.5717 57.6968 22.8616 51.2965C26.09 42.3136 32.2841 37.7098 40.8808 40.5544C45.3856 41.9767 46.0237 46.5056 45.5733 47.7782ZM72.2642 47.7782L65.019 47.2542C65.019 47.2542 65.4694 44.2973 63.4047 44.2973C60.2138 44.2973 58.1491 51.0719 58.1491 51.0719C58.1491 51.0719 61.1899 48.4893 65.9575 50.2485C71.3632 52.1948 70.0493 59.1191 67.3089 63.5732C63.9303 69.1126 56.4974 69.7863 52.1428 68.102C45.1603 65.4446 47.2626 57.6968 49.5525 51.2965C52.856 42.1264 59.2378 37.7473 67.5717 40.5544C72.0765 42.0142 72.7146 46.5056 72.2642 47.7782Z" fill="#231F1B"/>
</svg>
