<svg width="129" height="98" viewBox="0 0 129 98" fill="none" xmlns="http://www.w3.org/2000/svg">
<path d="M129 42.0794H82.0825V30.0586H129V42.0794Z" fill="#231F1B"/>
<path d="M122.911 42.0792H82.0825V12.0208H122.911V42.0792Z" fill="#231F1B"/>
<path d="M106.038 42.0793H82.0825V0H106.038V42.0793Z" fill="#231F1B"/>
<path d="M110.746 42.0792H82.0825V4.69971H110.759V42.0792H110.746Z" fill="#231F1B"/>
<path d="M82.0698 4.69971V42.0792H106.038V4.69971H82.0698Z" fill="#231F1B"/>
<path d="M58.0498 42.0793H82.0696V48.0962H58.0498V42.0793Z" fill="#231F1B"/>
<path d="M82.0698 12.0078V42.0792H110.759V12.0078H82.0698Z" fill="#231F1B"/>
<path d="M82.0698 12.0078V42.0792H106.038V12.0078H82.0698Z" fill="#231F1B"/>
<path d="M97.0594 42.0792H82.0825V24.0286H97.0594V42.0792Z" fill="#231F1B"/>
<path d="M82.0698 30.0713V42.0792H122.911V30.0713H82.0698Z" fill="#231F1B"/>
<path d="M82.0698 30.0713V42.0792H110.759V30.0713H82.0698Z" fill="#231F1B"/>
<path d="M82.0698 30.0713V42.0792H106.038V30.0713H82.0698Z" fill="#231F1B"/>
<path d="M82.0698 30.0713V42.0792H97.0725V30.0713H82.0698Z" fill="#231F1B"/>
<path d="M87.3076 64.7253C83.2183 65.4484 81.0382 68.5472 81.0382 73.9056C81.0382 79.3672 83.9407 82.9954 88.2106 82.9954C90.3004 82.9954 92.1193 82.2724 95.9377 80.3614C95.9377 84.816 95.9377 84.816 95.9377 84.816C91.3066 86.998 88.5847 87.5403 84.9469 87.5403C80.8576 87.5403 77.9551 86.5461 75.6847 84.08C73.324 81.7171 72.0469 78.6183 72.0469 75.0805C72.0469 67.3464 77.8648 61.988 86.3143 61.988C91.8613 61.988 95.7571 64.622 95.7571 68.3535C95.7571 70.8067 93.9382 72.5369 91.3066 72.5369C89.9392 72.5369 88.8556 72.085 87.3076 71.2587" fill="#231F1B"/>
<path d="M66.861 75.0805C70.5891 70.4452 71.9436 68.5343 71.9436 66.2618C71.9436 63.9894 70.1247 61.988 67.5834 61.988C66.1257 61.988 64.7712 62.8015 64.1262 63.5374C64.1262 73.0792 64.1262 73.0792 64.1262 73.0792C58.0374 81.2652 58.0374 81.2652 58.0374 81.2652C58.0374 62.7111 58.0374 62.7111 58.0374 62.7111C52.2195 62.7111 52.2195 62.7111 52.2195 62.7111C42.5961 78.6183 42.5961 78.6183 42.5961 78.6183C42.5961 62.7111 42.5961 62.7111 42.5961 62.7111C39.3195 62.7111 39.3195 62.7111 39.3195 62.7111C30.5088 64.7124 30.5088 64.7124 30.5088 64.7124C30.5088 66.9849 30.5088 66.9849 30.5088 66.9849C35.3205 67.4368 35.3205 67.4368 35.3205 67.4368C35.3205 87.1659 35.3205 87.1659 35.3205 87.1659C41.4093 87.1659 41.4093 87.1659 41.4093 87.1659C50.6715 71.8913 50.6715 71.8913 50.6715 71.8913C50.6715 87.1659 50.6715 87.1659 50.6715 87.1659C57.4827 87.1659 57.4827 87.1659 57.4827 87.1659" fill="#231F1B"/>
<path d="M12.0876 84.0928C12.81 84.0928 12.9906 84.0928 13.455 84.0928C18.357 84.0928 21.0918 81.0973 21.0918 75.0934C21.0918 70.0965 18.9117 67.3592 14.8224 67.3592C14.2806 67.3592 13.455 67.4496 12.1005 67.7208L12.0876 84.0928ZM12.0876 94.8225C16.0866 95.7263 16.0866 95.7263 16.0866 95.7263C16.0866 97.9988 16.0866 97.9988 16.0866 97.9988C0.374382 97.9988 0.374382 97.9988 0.374382 97.9988C0.374382 95.7263 0.374382 95.7263 0.374382 95.7263C4.01218 94.8225 4.01218 94.8225 4.01218 94.8225C4.01218 67.3592 4.01218 67.3592 4.01218 67.3592C0.0131836 67.3592 0.0131836 67.3592 0.0131836 67.3592C0.0131836 65.0868 0.0131836 65.0868 0.0131836 65.0868C9.54628 62.1816 9.54628 62.1816 9.54628 62.1816C12.0876 62.1816 12.0876 62.1816 12.0876 62.1816C12.0876 65.4612 12.0876 65.4612 12.0876 65.4612C16.5381 62.7368 18.0861 62.2849 20.4468 62.2849C25.71 62.2849 29.709 67.1914 29.709 74.0088C29.709 81.8333 24.3555 87.1917 16.1769 87.1917C15.2739 87.1917 13.7259 87.1013 12.0876 87.0109" fill="#231F1B"/>
</svg>
