<svg width="227" height="36" viewBox="0 0 227 36" fill="none" xmlns="http://www.w3.org/2000/svg">
<path d="M62.4672 28.5883C61.5143 28.8 60.3496 28.9059 59.185 28.9059C55.7969 28.9059 55.0558 27.7412 55.0558 25.5177V12.7059H48.7032V26.2589C48.7032 32.2941 52.0912 35.0471 58.8674 35.0471C62.1495 35.0471 65.22 34.4118 68.9257 33.5647V12.7059H62.4672V28.5883ZM83.1132 29.2236C80.7839 29.2236 80.4662 28.1647 80.4662 26.3647V18.1059H85.7601V12.7059H80.4662V6.35297H74.1136V12.7059H70.9373V18H74.1136V26.6824C74.1136 30.4941 74.8548 34.9412 81.2074 34.9412C83.1132 34.9412 84.7013 34.5177 86.5012 33.9883L85.866 28.6941C84.9131 29.0118 84.0661 29.2236 83.1132 29.2236ZM16.3049 17.2589C15.1402 16.8353 13.7638 16.4118 12.3874 15.9883C8.68174 14.9294 7.51709 14.4 7.51709 12.7059C7.51709 10.8 8.89349 9.84709 12.2815 9.84709C15.0343 9.84709 17.4695 10.5883 19.9047 11.4353L21.2811 5.29415C18.4224 4.23532 15.7755 3.28238 12.4933 3.28238C4.87017 3.28238 0.635094 7.62356 0.635094 12.8118C0.635094 16.7294 2.32912 19.2706 6.14069 20.8589C7.19946 21.2824 8.57586 21.7059 9.95226 22.1294C14.0815 23.4 15.352 24.0353 15.352 25.6236C15.352 27.5294 13.7638 28.5883 10.4816 28.5883C7.51709 28.5883 4.76429 27.7412 1.90562 26.4706L0.42334 32.8236C3.59965 34.0941 6.67007 34.9412 10.4816 34.9412C18.3165 34.9412 22.3399 30.6 22.3399 25.3059C22.3399 21.0706 19.9047 18.6353 16.3049 17.2589ZM99.7358 11.6471C97.6183 11.6471 95.6066 12.1765 94.2302 12.6V2.11768H87.8776V34.9412H94.2302V18.5294C95.3949 18.1059 96.6654 17.6824 98.2536 17.6824C100.689 17.6824 101.642 18.6353 101.642 20.9647V34.9412H107.994V20.2236C107.994 14.4 105.347 11.6471 99.7358 11.6471ZM35.3627 11.5412C28.9042 11.5412 23.7162 16.0941 23.7162 23.1883C23.7162 30.2824 28.9042 35.0471 35.3627 35.0471C41.8212 35.0471 47.0092 30.3883 47.0092 23.1883C47.0092 15.9883 41.8212 11.5412 35.3627 11.5412ZM35.3627 28.6941C32.6099 28.6941 30.3865 26.6824 30.3865 23.0824C30.3865 19.4824 32.504 17.5765 35.3627 17.5765C38.2214 17.5765 40.3389 19.4824 40.3389 23.0824C40.3389 26.7883 38.1155 28.6941 35.3627 28.6941ZM177.979 21.3883C177.026 21.0706 176.073 20.753 174.908 20.4353C172.685 19.8 171.838 19.4824 171.838 18.5294C171.838 17.5765 172.685 16.9412 174.697 16.9412C176.814 16.9412 178.72 17.3647 180.838 18L181.896 12.4941C179.567 11.9647 177.344 11.5412 174.803 11.5412C168.768 11.5412 165.485 14.6118 165.485 18.8471C165.485 21.8118 166.968 23.7177 169.932 24.9883C170.779 25.3059 171.732 25.7294 172.897 26.0471C175.226 26.6824 176.391 27 176.391 28.0589C176.391 29.1177 175.014 29.5412 173.109 29.5412C170.779 29.5412 168.662 29.1177 166.438 28.2706L165.485 33.7765C168.238 34.5177 170.779 35.0471 173.638 35.0471C179.991 35.0471 182.849 31.7647 182.849 27.6353C182.743 24.7765 181.579 22.6589 177.979 21.3883ZM154.157 11.5412C147.486 11.5412 142.722 16.2 142.722 23.6118C142.722 30.4941 146.851 35.0471 154.262 35.0471C157.545 35.0471 160.192 34.0941 162.944 32.9294L161.991 27.6353C159.874 28.5883 157.756 29.3294 155.215 29.3294C151.404 29.3294 149.816 27.7412 149.604 25.4118H163.897C163.897 25.4118 164.109 22.8706 164.109 22.3412C164.109 16.3059 160.827 11.5412 154.157 11.5412ZM149.71 21.1765C150.133 19.2706 151.086 16.8353 153.839 16.8353C156.592 16.8353 157.439 19.5883 157.439 21.1765H149.71ZM195.343 29.2236C193.013 29.2236 192.696 28.1647 192.696 26.3647V18.1059H197.99V12.7059H192.696V6.35297H186.343V12.7059H183.061V18.1059H186.343V26.7883C186.343 30.6 187.296 35.0471 193.649 35.0471C195.554 35.0471 197.143 34.6236 198.942 34.0941L198.201 28.8C197.143 29.0118 196.296 29.2236 195.343 29.2236ZM199.578 3.38826C197.99 3.38826 196.825 4.65885 196.719 6.24709C196.613 7.83532 197.99 9.10591 199.472 9.10591C201.06 9.10591 202.331 7.83532 202.331 6.24709C202.331 4.65885 201.166 3.38826 199.578 3.38826ZM199.578 8.5765C198.307 8.5765 197.354 7.62356 197.354 6.24709C197.354 4.87062 198.307 3.91768 199.684 3.91768C200.954 3.91768 202.013 4.87062 201.907 6.24709C201.801 7.62356 200.848 8.5765 199.578 8.5765ZM199.895 6.35297C200.425 6.24709 200.742 6.03532 200.742 5.50591C200.742 4.9765 200.319 4.55297 199.684 4.55297H198.625V7.83532H199.26V6.45885C199.472 6.45885 199.578 6.56473 199.684 6.7765L200.425 7.83532H201.166L200.531 6.7765C200.107 6.56473 200.001 6.45885 199.895 6.35297ZM199.472 6.03532H199.154V5.08238H199.578C200.001 5.08238 200.107 5.29415 200.107 5.50591C200.107 5.92944 199.789 6.03532 199.472 6.03532ZM136.793 12.7059L132.769 24.8824L128.746 12.7059H123.241L119.111 24.8824L115.088 12.7059H108.206L116.147 34.9412H121.97L125.993 22.8706L130.017 34.9412H135.84L143.781 12.7059H136.793Z" fill="#231F1B"/>
<path d="M202.119 19.1647C202.119 25.0941 208.472 30.7058 213.766 34.4117C215.354 33.3529 216.942 32.0823 218.424 30.8117C211.33 24.8823 204.554 19.4823 202.225 17.5764C202.225 17.9999 202.119 18.5294 202.119 19.1647Z" fill="#231F1B"/>
<path d="M225.095 21.9176C219.907 17.6823 216.836 15.4588 213.448 13.447C212.495 12.9176 210.695 12.0706 208.684 12.0706C206.778 12.0706 205.084 12.7059 203.919 13.8706C203.178 14.6117 202.649 15.5647 202.437 16.7294C205.084 18.6353 212.389 23.8235 219.695 29.647C222.13 27.3176 224.142 24.6706 225.095 21.9176Z" fill="#231F1B"/>
<path d="M223.718 13.8706C222.553 12.7059 220.965 12.0706 219.059 12.0706C217.048 12.0706 215.566 12.7059 214.401 13.3411C216.413 14.5059 220.753 16.9411 225.306 20.3294C225.412 19.9059 225.412 19.3764 225.412 18.9529C225.518 16.8353 224.883 15.0353 223.718 13.8706Z" fill="#231F1B"/>
</svg>
