<?xml version="1.0" standalone="no"?>
<!DOCTYPE svg PUBLIC "-//W3C//DTD SVG 20010904//EN"
 "http://www.w3.org/TR/2001/REC-SVG-20010904/DTD/svg10.dtd">
<svg version="1.0" xmlns="http://www.w3.org/2000/svg"
 width="1000.000000pt" height="1000.000000pt" viewBox="0 0 1000.000000 1000.000000"
 preserveAspectRatio="xMidYMid meet">
<metadata>
Created by potrace 1.11, written by Peter Selinger 2001-2013
</metadata>
<g transform="translate(0.000000,1000.000000) scale(0.100000,-0.100000)"
fill="#000000" stroke="none">
<path d="M1575 9986 c-63 -28 -94 -82 -95 -168 0 -29 -1 -60 -1 -68 -1 -8 -1
-152 -1 -320 1 -168 1 -312 1 -320 -1 -8 -1 -289 -1 -625 1 -335 1 -619 1
-630 0 -431 0 -954 0 -965 2 -290 -1 -833 -5 -854 -8 -48 -35 -83 -78 -105
-39 -20 -59 -21 -508 -23 -454 -3 -467 -4 -494 -24 -15 -11 -37 -33 -48 -48
-20 -27 -21 -41 -24 -514 -3 -505 -1 -543 38 -582 51 -51 49 -51 528 -51 522
1 526 0 572 -89 17 -33 18 -136 18 -2253 0 -2491 -8 -2267 75 -2320 l41 -27
533 0 c592 0 578 -1 629 66 l29 37 2 2186 c2 1202 3 2209 3 2237 0 64 29 111
85 139 38 18 65 19 575 20 365 1 543 5 561 13 15 6 34 21 43 34 9 12 16 18 16
13 1 -6 8 6 17 25 13 30 15 97 15 515 0 264 -3 489 -6 500 -2 11 -5 23 -5 27
-2 16 -56 71 -80 81 -18 7 -202 11 -563 12 -572 1 -563 0 -613 50 -12 11 -25
29 -30 40 -6 12 -12 764 -15 1961 l-5 1940 -25 37 c-46 68 -39 67 -628 67
-417 -1 -533 -4 -557 -14z"/>
<path d="M4896 9983 c-45 -24 -64 -46 -79 -88 -10 -33 -13 -925 -12 -4910 l1
-4871 20 -34 c11 -19 38 -45 60 -57 39 -22 40 -22 571 -23 401 0 540 3 560 13
35 15 83 66 83 88 0 8 3 19 7 22 3 4 8 676 9 1495 3 1552 4 1628 29 1807 3 22
8 60 10 85 2 25 4 45 5 45 1 0 3 16 6 35 7 62 55 291 69 331 8 22 14 41 15 44
0 3 0 6 1 8 4 12 10 44 11 55 1 6 5 12 10 12 4 0 8 7 8 17 0 26 88 211 116
244 8 8 14 19 14 22 0 16 109 131 171 180 46 37 184 117 201 117 5 0 29 9 53
20 72 33 248 70 359 76 34 1 62 4 64 4 10 7 110 4 120 -3 7 -6 12 -6 12 0 0
10 54 8 71 -2 5 -4 9 -1 9 5 0 6 5 8 12 4 6 -4 25 -8 42 -9 98 -8 243 -46 341
-91 150 -69 288 -211 363 -374 43 -93 92 -255 96 -317 0 -13 4 -23 8 -23 4 0
6 -8 6 -17 -1 -10 2 -39 6 -64 6 -46 14 -123 22 -214 2 -27 4 -819 4 -1760 1
-1679 3 -1785 32 -1785 4 0 8 -6 8 -12 0 -7 19 -23 41 -35 l42 -23 542 3 541
2 37 25 c73 50 68 -107 64 1980 -2 1031 -6 1895 -10 1920 -3 25 -9 81 -12 125
-4 44 -8 82 -10 86 -2 3 -7 30 -10 60 -6 55 -12 94 -15 94 -1 0 -3 16 -5 36
-1 20 -6 45 -9 57 -4 11 -9 31 -11 44 -9 48 -27 124 -32 138 -4 8 -7 18 -8 23
-2 4 -3 8 -5 10 -1 1 -4 15 -6 32 -3 16 -10 35 -16 42 -6 7 -7 13 -3 13 4 0 3
6 -2 13 -6 6 -13 26 -17 42 -4 17 -13 44 -21 60 -46 106 -66 152 -75 165 -5 8
-21 38 -36 65 -15 28 -45 76 -68 109 -22 32 -45 65 -51 74 -29 43 -156 175
-237 244 -63 54 -210 160 -263 189 -91 51 -210 107 -217 103 -4 -3 -8 -1 -8 5
0 6 -12 14 -27 17 -16 4 -40 13 -54 20 -15 7 -37 15 -50 18 -13 3 -55 15 -94
26 -38 12 -83 24 -100 27 -44 8 -60 11 -62 13 -5 4 -15 6 -73 13 -30 4 -71 10
-90 13 -105 16 -493 25 -521 12 -9 -4 -45 -9 -80 -12 -35 -3 -64 -5 -64 -6 0
-1 -9 -3 -20 -5 -106 -19 -258 -59 -308 -80 -20 -8 -40 -16 -44 -16 -5 -1 -18
-5 -31 -10 -13 -5 -25 -9 -27 -9 -2 0 -43 -18 -92 -41 -48 -22 -104 -48 -123
-57 -19 -9 -37 -19 -40 -22 -3 -4 -32 -21 -65 -40 -33 -18 -95 -58 -139 -88
-81 -56 -97 -62 -156 -67 -49 -4 -130 41 -130 72 0 7 -4 13 -8 13 -5 0 -10 6
-11 13 -1 6 -3 985 -4 2175 -1 1417 -6 2165 -12 2170 -6 4 -15 16 -21 27 -5
11 -30 30 -54 43 l-44 22 -531 0 c-464 -1 -534 -3 -559 -17z"/>
</g>
</svg>
