<svg width="90" height="120" viewBox="0 0 90 120" xmlns="http://www.w3.org/2000/svg" xmlns:xlink="http://www.w3.org/1999/xlink"><title>bp-logo</title><defs><path id="a" d="M15.375.085H.195v22.22h15.18z"/><path id="c" d="M0 .05v11.99h19.032V.05H0z"/><path id="e" d="M0 .024v11.988h19.032V.024H0z"/></defs><g fill="none" fill-rule="evenodd"><g transform="translate(57.024 .23)"><mask id="b" fill="#fff"><use xlink:href="#a"/></mask><path d="M3.243.085H.26v19.147l-.066 2.852H3.08l.064-2.408c.32.475.67 1.014 1.56 1.616 1.368.92 2.796 1.014 3.554 1.014 2.192 0 4.323-.92 5.596-2.725.792-1.045 1.52-2.727 1.52-5.802 0-3.488-1.08-5.072-1.87-5.992-1.46-1.65-3.465-2.03-5.054-2.03-3.62 0-4.798 2-5.207 2.728v-8.4zm8.99 13.884c0 2.598-.923 6.18-4.606 6.18-4.448 0-4.448-4.976-4.448-6.023 0-1.015 0-6.34 4.57-6.34 4.166 0 4.482 4.597 4.482 6.182z" fill="#090" mask="url(#b)"/></g><path d="M74.69 28.434h2.952V20.54c.855 1.394 2.57 2.378 4.89 2.378 3.813 0 7.27-2.6 7.27-8.528 0-5.898-3.266-8.243-6.696-8.243-1.3 0-3.942.38-5.434 2.884l-.064-2.63h-3.016c.065 1.522.097 1.903.097 2.6v19.434zm2.854-13.6c0-1.428 0-6.47 4.766-6.47 3.525 0 4.384 2.982 4.384 5.835 0 1.14-.158 3.424-1.303 4.977-1.016 1.395-2.604 1.553-3.364 1.553-4.194 0-4.482-3.962-4.482-5.896zM51.007 39.408c-2.25-5.302-5.012-9.35-6.104-10.985-1.095 1.636-3.858 5.683-6.103 10.985 2.202 2.363 4.372 5.145 6.103 8.303 1.724-3.157 3.903-5.94 6.104-8.302M39 108.306c2.245 5.3 5.008 9.347 6.103 10.983 1.092-1.637 3.854-5.682 6.104-10.984-2.2-2.368-4.38-5.15-6.104-8.306-1.73 3.156-3.9 5.938-6.103 8.306M38.8 39.408c-3.92-4.22-7.905-7.076-9.49-8.24-.47 1.91-1.677 6.654-1.968 12.406 2.872 1.47 5.87 3.345 8.576 5.716.544-3.556 1.63-6.914 2.882-9.882" fill="#090"/><path d="M51.007 108.463c3.915 4.218 7.904 7.073 9.49 8.24.466-1.913 1.676-6.66 1.965-12.403-2.87-1.472-5.87-3.353-8.575-5.725-.542 3.557-1.63 6.917-2.88 9.888M27.342 43.574c-5.132-2.623-9.855-3.95-11.743-4.506.21 1.958.7 6.83 2.4 12.333 3.2.396 6.658 1.137 10.017 2.446-.712-3.525-.84-7.057-.675-10.272" fill="#090"/><path d="M62.462 104.3c5.13 2.62 9.853 3.946 11.746 4.498-.21-1.955-.706-6.83-2.404-12.33-3.2-.397-6.66-1.14-10.018-2.452.712 3.536.84 7.062.676 10.284M22.152 60.824c-1.872-3.074-3.2-6.35-4.153-9.423-5.724-.716-10.613-.35-12.583-.22.872 1.76 3.002 6.17 6.476 10.764 3.15-.72 6.657-1.203 10.26-1.12" fill="#090"/><path d="M67.648 87.047c1.88 3.072 3.215 6.348 4.156 9.422 5.723.713 10.617.346 12.585.225-.876-1.77-3-6.18-6.483-10.773-3.146.72-6.65 1.207-10.26 1.125" fill="#090"/><g transform="translate(0 61.894)"><mask id="d" fill="#fff"><use xlink:href="#c"/></mask><path d="M11.893.05C6.275 1.332 1.806 3.345 0 4.138c1.426 1.356 4.94 4.775 9.78 7.902 2.706-1.745 5.835-3.405 9.252-4.553-2.816-2.25-5.187-4.87-7.14-7.437" fill="#090" mask="url(#d)"/></g><path d="M80.02 73.934c-2.707 1.75-5.833 3.406-9.246 4.554 2.81 2.248 5.19 4.866 7.133 7.434 5.625-1.28 10.098-3.29 11.895-4.084-1.422-1.357-4.936-4.784-9.782-7.904" fill="#090"/><g transform="translate(0 73.91)"><mask id="f" fill="#fff"><use xlink:href="#e"/></mask><path d="M19.032 4.578C15.615 3.428 12.486 1.775 9.78.024 4.94 3.144 1.426 6.57 0 7.928c1.806.793 6.275 2.803 11.893 4.084 1.952-2.567 4.323-5.187 7.14-7.434" fill="#090" mask="url(#f)"/></g><path d="M70.774 69.38c3.412 1.15 6.54 2.81 9.246 4.554 4.846-3.127 8.36-6.547 9.782-7.903-1.797-.792-6.27-2.805-11.895-4.086-1.944 2.566-4.322 5.186-7.133 7.437M11.893 85.922C8.42 90.514 6.29 94.925 5.417 96.695c1.97.12 6.86.488 12.582-.227.95-3.073 2.28-6.35 4.152-9.42-3.602.08-7.11-.405-10.26-1.126M77.907 61.944c3.484-4.593 5.607-9.004 6.482-10.772-1.97-.12-6.863-.488-12.586.23-.94 3.073-2.277 6.348-4.156 9.422 3.61-.083 7.113.4 10.26 1.12M28.017 94.016C24.657 95.326 21.2 96.068 18 96.47c-1.7 5.5-2.19 10.373-2.4 12.328 1.887-.553 6.61-1.877 11.742-4.498-.166-3.222-.037-6.748.675-10.284M61.786 53.846c3.358-1.31 6.82-2.05 10.018-2.445 1.697-5.5 2.193-10.374 2.404-12.332-1.893.55-6.615 1.878-11.746 4.5.165 3.22.036 6.745-.676 10.278" fill="#090"/><path d="M27.342 104.3c.29 5.744 1.498 10.49 1.967 12.402 1.585-1.166 5.57-4.022 9.49-8.24-1.252-2.97-2.34-6.33-2.882-9.887-2.705 2.372-5.704 4.253-8.576 5.725M62.462 43.568c-.288-5.746-1.5-10.49-1.965-12.4-1.586 1.164-5.574 4.02-9.49 8.24 1.25 2.962 2.338 6.326 2.88 9.882 2.706-2.37 5.705-4.25 8.575-5.722" fill="#090"/><path d="M41.776 56.242c.577-3.077 1.7-5.93 3.127-8.53-1.73-3.158-3.9-5.94-6.103-8.304-1.252 2.968-2.34 6.326-2.882 9.882 2.232 1.962 4.268 4.26 5.858 6.952M48.03 91.625c-.58 3.077-1.698 5.928-3.127 8.532 1.724 3.155 3.903 5.937 6.104 8.306 1.25-2.97 2.338-6.33 2.88-9.888-2.228-1.96-4.268-4.257-5.858-6.95M28.017 53.846c2.766 1.077 5.463 2.543 7.885 4.528-.51-3.085-.435-6.15.016-9.084-2.705-2.37-5.704-4.246-8.576-5.716-.166 3.215-.037 6.747.675 10.272M61.786 94.016c-2.767-1.073-5.46-2.54-7.882-4.52.512 3.08.432 6.14-.017 9.08 2.706 2.37 5.705 4.252 8.575 5.724.165-3.222.036-6.748-.676-10.284" fill="#9C0"/><path d="M31.118 62.386c-1.543-2.724-2.517-5.63-3.1-8.54-3.36-1.31-6.818-2.05-10.02-2.445.953 3.075 2.282 6.35 4.154 9.424 2.967.066 6.01.526 8.966 1.562M58.688 85.482c1.537 2.722 2.516 5.627 3.098 8.534 3.357 1.31 6.82 2.055 10.018 2.453-.94-3.075-2.277-6.35-4.156-9.423-2.965-.068-6.005-.525-8.96-1.565" fill="#9C0"/><path d="M19.032 69.38c2.812-.952 5.825-1.56 8.96-1.59-2.383-2.037-4.3-4.432-5.84-6.966-3.602-.083-7.11.4-10.26 1.12 1.953 2.566 4.324 5.186 7.14 7.437M70.774 78.488c-2.82.948-5.827 1.557-8.96 1.59 2.383 2.034 4.294 4.433 5.834 6.968 3.61.083 7.113-.403 10.26-1.124-1.945-2.568-4.323-5.186-7.134-7.434M26.902 73.934c-2.932-1.1-5.55-2.702-7.87-4.553-3.417 1.15-6.546 2.81-9.252 4.554 2.706 1.75 5.835 3.406 9.252 4.554 2.32-1.854 4.938-3.457 7.87-4.554M62.9 73.934c2.934 1.097 5.553 2.7 7.873 4.554 3.414-1.148 6.54-2.803 9.247-4.554-2.707-1.745-5.833-3.405-9.247-4.553-2.32 1.852-4.94 3.455-7.874 4.554" fill="#9C0"/><path d="M22.152 87.047c1.54-2.536 3.457-4.935 5.84-6.97-3.135-.032-6.148-.638-8.96-1.59-2.816 2.25-5.187 4.868-7.14 7.435 3.15.72 6.658 1.207 10.26 1.125M67.648 60.824c-1.54 2.534-3.45 4.93-5.833 6.965 3.132.03 6.14.638 8.958 1.59 2.812-2.25 5.19-4.87 7.134-7.436-3.146-.72-6.65-1.203-10.26-1.12M31.118 85.482c-2.956 1.04-6 1.497-8.966 1.565-1.872 3.072-3.2 6.348-4.153 9.422 3.2-.4 6.658-1.143 10.017-2.454.584-2.907 1.558-5.812 3.1-8.534" fill="#9C0"/><path d="M58.688 62.386c2.955-1.036 5.995-1.496 8.96-1.562 1.88-3.074 3.215-6.35 4.156-9.423-3.2.396-6.66 1.135-10.018 2.446-.582 2.91-1.56 5.816-3.098 8.54M41.776 91.625c-1.59 2.693-3.626 4.99-5.858 6.95.543 3.557 1.63 6.917 2.882 9.888 2.202-2.37 4.372-5.15 6.103-8.306-1.428-2.604-2.55-5.455-3.127-8.532M35.902 89.495c-2.422 1.98-5.12 3.448-7.885 4.52-.712 3.537-.84 7.063-.675 10.285 2.872-1.472 5.87-3.353 8.576-5.725-.45-2.938-.525-6-.016-9.08M48.03 56.242c1.59-2.693 3.63-4.995 5.857-6.952-.542-3.556-1.63-6.92-2.88-9.882-2.2 2.363-4.38 5.146-6.104 8.303 1.43 2.603 2.546 5.455 3.126 8.532M53.904 58.374c2.423-1.985 5.115-3.45 7.882-4.528.712-3.533.84-7.057.677-10.278-2.87 1.472-5.87 3.35-8.576 5.722.448 2.935.53 6 .017 9.084" fill="#9C0"/><path d="M41.788 65.403c-1.606-2.867-3.624-5.174-5.886-7.03.48 2.884 1.474 5.78 3.15 8.6-2.492-2.137-5.174-3.62-7.933-4.587 1.426 2.544 3.358 4.928 5.905 7.006-3.08-1.162-6.112-1.637-9.034-1.603 2.22 1.902 4.844 3.48 7.952 4.568-3.29-.043-6.298.548-9.04 1.576 2.742 1.027 5.75 1.617 9.04 1.576-3.108 1.088-5.733 2.667-7.95 4.567 2.92.034 5.953-.438 9.033-1.602-2.547 2.08-4.48 4.46-5.906 7.007 2.758-.97 5.44-2.453 7.934-4.59-1.678 2.823-2.672 5.717-3.152 8.603 2.262-1.858 4.28-4.162 5.886-7.025-.61 3.222-.546 6.285-.012 9.155 1.493-2.518 2.592-5.37 3.127-8.608.537 3.238 1.634 6.09 3.126 8.608.54-2.87.595-5.933-.015-9.155 1.61 2.863 3.63 5.167 5.89 7.025-.477-2.886-1.48-5.78-3.157-8.602 2.494 2.136 5.184 3.618 7.94 4.59-1.43-2.55-3.363-4.928-5.907-7.008 3.083 1.164 6.11 1.636 9.034 1.602-2.222-1.9-4.847-3.48-7.952-4.572 3.292.046 6.296-.544 9.037-1.57-2.742-1.03-5.746-1.62-9.038-1.577 3.105-1.09 5.73-2.666 7.952-4.57-2.925-.033-5.95.442-9.04 1.604 2.55-2.078 4.484-4.462 5.914-7.006-2.756.972-5.446 2.45-7.94 4.59 1.678-2.824 2.68-5.72 3.156-8.602-2.26 1.855-4.28 4.162-5.89 7.03.61-3.232.555-6.294.015-9.162-1.493 2.51-2.59 5.37-3.127 8.61-.535-3.24-1.634-6.1-3.127-8.61-.534 2.868-.598 5.93.012 9.16" fill="#FFF"/><path d="M41.788 65.403c-.61-3.23-.546-6.293-.012-9.16-1.59-2.694-3.626-4.99-5.858-6.953-.45 2.935-.525 6-.016 9.084 2.262 1.855 4.28 4.162 5.886 7.03M48.015 82.47c.61 3.222.554 6.285.014 9.155 1.59 2.693 3.63 4.99 5.857 6.95.448-2.938.53-5.998.017-9.08-2.26-1.858-4.28-4.162-5.89-7.025" fill="#FF0"/><path d="M35.902 58.374c-2.422-1.985-5.12-3.45-7.885-4.528.584 2.91 1.558 5.815 3.1 8.54 2.76.968 5.443 2.45 7.937 4.588-1.678-2.822-2.672-5.717-3.152-8.6M53.904 89.495c2.423 1.98 5.115 3.448 7.882 4.52-.582-2.906-1.56-5.81-3.098-8.533-2.756-.97-5.446-2.453-7.94-4.59 1.678 2.823 2.68 5.717 3.156 8.603" fill="#FF0"/><path d="M37.025 69.392c-2.547-2.078-4.48-4.462-5.907-7.007-2.956-1.035-6-1.496-8.966-1.56 1.54 2.533 3.457 4.928 5.84 6.964 2.92-.035 5.953.44 9.033 1.602M52.78 78.475c2.545 2.08 4.478 4.46 5.908 7.007 2.955 1.04 5.995 1.497 8.96 1.564-1.54-2.535-3.45-4.934-5.833-6.97-2.926.035-5.952-.436-9.035-1.6M35.943 72.357c-3.11-1.088-5.734-2.665-7.952-4.568-3.133.03-6.145.638-8.958 1.59 2.32 1.852 4.938 3.455 7.87 4.554 2.742-1.028 5.75-1.62 9.04-1.577" fill="#FF0"/><path d="M53.862 75.505c3.105 1.093 5.73 2.672 7.953 4.572 3.132-.032 6.14-.64 8.96-1.59-2.322-1.854-4.94-3.456-7.876-4.553-2.742 1.027-5.746 1.617-9.038 1.57M26.902 73.934c-2.932 1.097-5.55 2.7-7.87 4.554 2.813.95 5.825 1.557 8.96 1.59 2.217-1.9 4.842-3.48 7.95-4.568-3.29.04-6.298-.55-9.04-1.576" fill="#FF0"/><path d="M62.9 73.934c2.934-1.1 5.553-2.702 7.873-4.553-2.818-.952-5.826-1.56-8.958-1.59-2.223 1.902-4.848 3.48-7.953 4.568 3.292-.043 6.296.548 9.037 1.576M37.025 78.475c-3.08 1.165-6.112 1.636-9.034 1.602-2.38 2.035-4.3 4.434-5.838 6.97 2.967-.068 6.01-.525 8.966-1.565 1.428-2.548 3.36-4.927 5.907-7.007M52.775 69.392c3.088-1.162 6.114-1.637 9.04-1.603 2.382-2.037 4.293-4.432 5.832-6.966-2.964.065-6.005.526-8.96 1.56-1.43 2.546-3.362 4.93-5.912 7.008M41.776 91.625c.577 3.077 1.7 5.928 3.127 8.532 1.43-2.604 2.546-5.455 3.126-8.532-1.493-2.517-2.59-5.37-3.127-8.608-.534 3.238-1.634 6.09-3.127 8.608" fill="#FF0"/><path d="M41.788 82.47c-1.606 2.863-3.624 5.167-5.886 7.026-.51 3.08-.435 6.14.016 9.08 2.232-1.96 4.268-4.258 5.858-6.95-.534-2.87-.598-5.934.012-9.156" fill="#FF0"/><path d="M31.118 85.482c-1.543 2.722-2.517 5.627-3.1 8.534 2.765-1.073 5.462-2.54 7.884-4.52.48-2.887 1.474-5.78 3.152-8.603-2.494 2.136-5.177 3.618-7.936 4.59M48.03 56.242c-.58-3.077-1.698-5.93-3.127-8.53-1.428 2.6-2.55 5.453-3.127 8.53 1.493 2.51 2.593 5.37 3.127 8.61.537-3.24 1.634-6.1 3.126-8.61" fill="#FF0"/><path d="M48.015 65.403c1.61-2.867 3.63-5.174 5.89-7.03.51-3.083.43-6.148-.018-9.083-2.228 1.957-4.268 4.26-5.858 6.952.54 2.868.596 5.93-.015 9.16" fill="#FF0"/><path d="M58.688 62.386c1.537-2.724 2.516-5.63 3.098-8.54-2.767 1.077-5.46 2.542-7.882 4.528-.476 2.883-1.478 5.778-3.156 8.602 2.494-2.14 5.184-3.618 7.94-4.59" fill="#FF0"/></g></svg>
