<?xml version="1.0" encoding="utf-8"?>
<!-- Generator: Adobe Illustrator 21.1.0, SVG Export Plug-In . SVG Version: 6.00 Build 0)  -->
<svg version="1.1" id="Layer_1" xmlns="http://www.w3.org/2000/svg" xmlns:xlink="http://www.w3.org/1999/xlink" x="0px" y="0px"
	 viewBox="0 0 448 512" style="enable-background:new 0 0 448 512;" xml:space="preserve">
<style type="text/css">
	.st0{fill:#2A3952;}
</style>
<g>
	<path class="st0" d="M224,199.3c-31.3,0-56.7,25.4-56.7,56.7s25.5,56.7,56.7,56.7s56.7-25.4,56.7-56.7S255.3,199.3,224,199.3z"/>
	<path class="st0" d="M356.6,155.8c-6-14.9-17.4-26.4-32.3-32.3c-22.3-8.8-75.5-6.8-100.2-6.8s-77.8-2-100.2,6.8
		c-14.9,6-26.4,17.4-32.3,32.3c-8.8,22.3-6.8,75.5-6.8,100.2s-2,77.8,6.8,100.2c6,14.9,17.4,26.4,32.3,32.3
		c22.3,8.8,75.5,6.8,100.2,6.8s77.8,2,100.2-6.8c14.9-6,26.4-17.4,32.3-32.3c8.9-22.3,6.8-75.5,6.8-100.2S365.5,178.2,356.6,155.8z
		 M224,343.2c-48.3,0-87.2-38.9-87.2-87.2s38.9-87.2,87.2-87.2s87.2,38.9,87.2,87.2S272.3,343.2,224,343.2z M314.8,185.6
		c-11.3,0-20.3-9.1-20.3-20.3s9.1-20.3,20.3-20.3s20.3,9.1,20.3,20.3C335.1,176.6,326,185.6,314.8,185.6z"/>
	<path class="st0" d="M446.5,163.6c-1.7-35.9-9.9-67.7-36.2-93.9c-26.2-26.2-58-34.4-93.9-36.2c-37-2.1-147.9-2.1-184.9,0
		C95.8,35.2,64,43.4,37.7,69.6s-34.4,58-36.2,93.9c-2.1,37-2.1,147.9,0,184.9c1.7,35.9,9.9,67.7,36.2,93.9s58,34.4,93.9,36.2
		c37,2.1,147.9,2.1,184.9,0c35.9-1.7,67.7-9.9,93.9-36.2c26.2-26.2,34.4-58,36.2-93.9C448.7,311.4,448.7,200.6,446.5,163.6z
		 M392.8,326.1c-1.4,27.2-7.6,51.4-27.5,71.2c-19.9,20-44,26.2-71.2,27.5c-28.1,1.6-112.2,1.6-140.3,0c-27.2-1.4-51.3-7.6-71.2-27.5
		c-20-19.9-26.2-44-27.5-71.2c-1.6-28.1-1.6-112.2,0-140.3c1.4-27.2,7.5-51.4,27.5-71.2c20-19.9,44.1-26.1,71.2-27.4
		c28.1-1.6,112.2-1.6,140.3,0c27.2,1.4,51.4,7.6,71.2,27.5c20,19.9,26.2,44,27.5,71.2l0,0C394.4,214,394.4,298,392.8,326.1z"/>
</g>
</svg>
