<svg xmlns="http://www.w3.org/2000/svg" viewBox="0 0 634.22 673.65"><defs><style>.cls-1{fill:none;stroke:#273954;stroke-linecap:round;stroke-miterlimit:10;stroke-width:1.84px;}.cls-2{fill:#262422;}.cls-3{fill:#f7decb;}.cls-4{fill:#f3aeae;}.cls-5{fill:#fff;}.cls-6{fill:#db9e5f;}.cls-7{fill:#b57a2b;}.cls-8{fill:#18120b;}.cls-9{fill:#7a2434;}.cls-10{fill:#71471c;}.cls-11{fill:#e5b68b;}.cls-12{fill:#3f688d;}.cls-13{fill:#f37d93;}</style></defs><title>Asset 1</title><g id="Layer_2" data-name="Layer 2"><g id="Layer_7" data-name="Layer 7"><path class="cls-1" d="M343.19,202.87s1.88,56.35,30.12,92C417.09,350.14,419.79,395,419.79,395"/><path class="cls-1" d="M420.26,395s-36.73-83.58-90.55-80.53c-57.57,3.27-72.32-31.76-72.32-31.76"/></g><g id="Layer_4" data-name="Layer 4"><path class="cls-2" d="M606.41,410.54a27.31,27.31,0,0,1,3.31,7.7c1.43,5.05-15.13-10.06-15.13-10.06s7.91-2.28,11.82,2.36"/><path class="cls-3" d="M597.16,409.43s9,2.43,11,6.72-10.73-.66-10.73-.66Z"/><path class="cls-4" d="M576.57,391.18s16.16,9.68,25.63,20.13c1.46,1.62,2.74,6,1.95,7.6l-18.88-9.48-26.51-18.85Z"/><path class="cls-5" d="M565.57,391.36a1.29,1.29,0,0,1,.82.5c1.24,1.64,6.7,7.87,21.93,14.24,10.51,4.4,2.68,2.64,3.42,4.92s11.17,7,13.87,5.52c.24-.12,1.94-1.49,2.45-.57.93,1.7,1.41,3.84-.78,4a34.52,34.52,0,0,1-9.65-1.09,1.34,1.34,0,0,1-.5-.23l-32.54-25a1.28,1.28,0,0,1,1-2.28Z"/><path class="cls-2" d="M609.75,419a.35.35,0,0,0-.43-.46c-3.68,1.23-15.47-2.89-18.27-4.67-1.59-1-1.91-5.52-4.6-5.52-1.36,0-7.11-3.75-13.27-8.34-1.91-1.41-8.39-6.5-9-7.58-1-1.59,4.87-1.38,10.36,1a.35.35,0,0,0,.44-.51c-1.77-2.7-7.28-9.74-15-6.46l-6.23,2.82a.34.34,0,0,0-.09.58c4.37,3.76,41.73,35.66,49.26,34.33C607.62,423.38,609.24,420.47,609.75,419Z"/><path class="cls-5" d="M576.17,394.25l.4.19Z"/><path class="cls-5" d="M576.57,394.44l.4.2Z"/><path class="cls-5" d="M575.86,394.1l.31.15Z"/><path class="cls-5" d="M575.54,393.94l.08,0Z"/><path class="cls-5" d="M575.62,394l.24.12Z"/><path class="cls-5" d="M577,394.64l.7.34Z"/><path class="cls-5" d="M577.67,395l1.3.63Z"/><path class="cls-5" d="M580.51,396.37Z"/><path class="cls-5" d="M579.81,396l.7.34Z"/><path class="cls-5" d="M579,395.61l.52.26Z"/><path class="cls-5" d="M579.49,395.87l.32.16Z"/><line class="cls-4" x1="595.11" y1="413.64" x2="596.69" y2="412.3"/><path class="cls-5" d="M473.07,581.1s10.11,28.86,13.39,43.27,18.29,25.55,18.29,25.55,5.58-5.58,17.16-1.72,12.44,15.45,12.44,15.45-10.29,4.29-32.6,2.14-29.48-9.86-28.68-11.15-.8,1.29-.8,1.29-7.42,3.43-3.13,6.86c0,0-19.38-8.94-13.12-24.85,0,0-5.75,6.83-3.61,11.12,0,0-35.6-40.68-27.45-68S473.07,581.1,473.07,581.1Z"/><path class="cls-6" d="M367.06,557.77s9.06-.22,14.32-5.76c0,0-1.94,5.42,3.88,8.66,0,0,1.94-7.56,13.85-8.66,0,0,5.54,1.26,2.77,8.66,0,0,5.54-.91,7.2-5.89,0,0-.25,9.27,6.8,14.75S439,513.78,439,513.78l-74.24,30.75-1.11,12.14Z"/><path class="cls-7" d="M479.25,502.83s6.53,18.66,4.77,24.8-12.71,13.15-12.71,25,3.07,26.74,1.76,28.49-29.81,14-29.37,21.92-13.16,7-5.92,25.86c0,0-33.12-62.68-19.52-82.84s14-29.81,14-29.81l36.55-23.8Z"/><path class="cls-7" d="M554.42,318.14s-14.85-7.56-31.58-2.7c0,0,2.53-.65,5.12-8.19,1.38-4-6.2-10.88,5.4-9.9C543.59,298.22,550.37,304.91,554.42,318.14Z"/><path class="cls-8" d="M569.08,357.53c1,1.61,1.76,1,5.53,3s7.32-8.43,0-7.1c-.44.08-1.9.32-4,.59C570.57,354,567.68,355.38,569.08,357.53Z"/><path class="cls-5" d="M369.55,549.59s-14.24,47.09-18.29,58.17c-4.82,13.2-21.33,29-24.1,34.13-1.36,2.54-3.24,11.72.28,9.79,5.65-3.09,14.12-2.35,19.06,0,6.61,3.14,10.1,15.59,7.58,16.39-15.82,5-50.8,9.52-52.59,0s-9.89-22.32,6.33-46.93c0,0,16.17-44.78,5.41-56.08"/><path class="cls-7" d="M283.27,561.16s2.5,9.38-1.53,16.11a12.06,12.06,0,0,1-2.15,2.68s5.72-.36,7.76-4.06-11.85,13.46-2,27.35c0,0,4.08,7.77,4.9,8.38l-.82-.61s.16-9.4,7.23-9.81c0,0,6,14.71,0,22.88,0,0,16.47,2.45,21.37-7s7.53-60.46,7.53-60.46L284,565.56"/><path class="cls-6" d="M295.94,560.67s2.23,8.37-1.36,14.37a11,11,0,0,1-1.92,2.39s5.1-.33,6.92-3.62-10.56,12-1.82,24.39c0,0,3.65,6.92,4.37,7.46l-.72-.54s.14-8.38,6.44-8.75c0,0,5.35,13.12,0,20.4,0,0,13.56-2.92,17.06-11.19,15.68-37.12-.65-44.23-.65-44.23l-27.71,3.24"/><path class="cls-5" d="M98.33,564.32s-28.26,17.12-33.39,37.94-7.79,29.68-9.56,32.34-23,24.37-28.8,20.82-12.84-14.62,4-27.91c0,0-3.54-10.19.89-14.3,9.22-8.57,14.82-28.32,14.17-39.74"/><path class="cls-7" d="M174.92,554.39S111.19,576.73,92,569.27l-41.49,6.62L122.8,467.55Z"/><path class="cls-5" d="M63.94,486.07s-57.44,55.2-53,77.47c3.64,18.27,43.15-28,75.65-68.38,25.6-31.82,32.64-74.4,32.64-74.4s-14.62-15.85-27.46-8.68C76.21,420.76,77.15,463.72,63.94,486.07Z"/><path class="cls-5" d="M174.92,637.87s16.49,27,20.27,27.41,29,2.1,30.65,2.52,22.88,1.26,21.64-5.62c-3-16.32-19.64-15.65-25.09-14-12.5,3.85-22.4-21.48-24.78-27.42-4.2-10.5-2-16.46,1.26-26S174.92,637.87,174.92,637.87Z"/><path class="cls-7" d="M174.26,369s-59.06,4.12-42.53,65.13,49.8,95.31,49.8,95.31-31.75,68.13-27.12,78.05,18.52,29.1,20.51,30.43,3.57-15,16.53-16.54c0,0-2.64-16.54,4.64-21.83s3.3-17.86,3.3-17.86,40.35-25.79,39-53.58S174.26,369,174.26,369Z"/><path class="cls-6" d="M167.56,369s-69.9,1.9-87,71.21c-11.3,45.91,3.61,45.91-39.5,76.78C-7.42,551.68.11,581.78.85,590.73c0,0,23.85-15.65,51.43-9s76-35,76.77-71.55c0,0,11.17,24.86.74,48.58,0,0,8.94-1.62,13.42-12.8,0,0,13.41,10.43,7.45,38.75,0,0,16.67-9.68,16.9-34.28,0,0,6.95,19,17.38,16.58,0,0-7.68-10.62-6.45-21,0,0,13.16.28,13.91,12.8,0,0,6.56-31.12-1-34.67,0,0,10.66,1.67,16.61,22.61,0,0,5-31.12-15.56-43.3-24.53-14.52-47.7-42.12-26-60.79C183.78,427.77,187.19,380.94,167.56,369Z"/><path class="cls-9" d="M321.48,559.4c25.65,2.83,48.57-25.53,85-32.15s60.93-38.29,62.35-34,6.62,9.93,10.4,10.4S489.18,489,488.71,482s-59.09-104.16-59.09-104.16-23.12-7.67-29.31-11.72c-3.1-2-19.62,8.64-21.28,6.52-3.31-4.26-19.85-.95-23.16-.46s-19.85,1.4-40.65-2.38-38.22,3.38-63.82-2.36A154.42,154.42,0,0,0,223,362.78c-6.19-.36-42.43-.63-44.46-3.24,0,0,15.15,13.08,20.08,68.11s46,116.21,78.43,118.67Z"/><path class="cls-9" d="M457.27,480.66c.82-11.09-27.63-33.3-39-68.58"/><path class="cls-5" d="M231.27,532.14c-41.12-43-44.43-117.24-59.56-152.69,0,0-2.84-15.6-9.93-12.29s0-6.2,4.73-5.94,12.64-3.77,15.5-.1c0,0,13.92,12.93,20.08,63.1s30.79,101.1,55.43,112.18,31.79,13.77,60.78,10.68c28.52-3.05,63.95-23.42,102.24-40.65C428.26,503,460.38,483,460.38,483s-41.89-64.47-40.66-73.09-17.53-39.87-21.23-37.78,17.13-7,17.13-7S478.29,478.9,487.46,483s6.64,11.44,1.34,17.5-3,7.32-8.33,7.57-10.6-9.34-10.6-9.34-13.62,15.39-29.77,19.18c-7.86,1.84-28.33,13.91-47.75,22.54a406.4,406.4,0,0,1-42.83,15.81C302.72,572.22,272.4,575.16,231.27,532.14Z"/><path class="cls-7" d="M437.45,355.44s-40.82,3.39-42.66,18.8c0,0,4.55-5.55,15.75,0,0,0-9.65,12.47,0,19.31,0,0,1.76-21.74,14-11,10,8.79,18.8,68.71,60.69,99.2,0,0,15.31,10.28,27.22-.87s-1.95-69.68-1.95-69.68Z"/><path class="cls-5" d="M473.72,316s3.93,1.88,5.61,5.05c0,0-5.14-2.94-11.24,1.29a8.76,8.76,0,0,1,7.28,1.41s-16,8-16.68,13.86-34.53,21.61-48.15,22.08c0,0,13.86,0,19.5-1.65,0,0-3.53.42-3.76,2.68,0,0,6.81-3.61,11.51-2,0,0-3.53,3.76-4.47,7.05,0,0,9.4-6.87,12.69-5.08,0,0-5.4,8.83-1.88,11.89,0,0,2.35-4.7,3.76-4.93,0,0-1.65,7.28,4.22,9.86,0,0-2.11-3.76.24-5.87,0,0,1.76,12.17,16,21.83,22,14.84,27,38.35,29.28,46.64,3.76,13.5,2.35,11.15,2.35,11.15s1.94-7.59,1.54-11.14a3.42,3.42,0,0,0-.36-1.3c-1.41-2.35,6.1,3.75,7.75,22.07,0,0,1.41-1.64,2.11-9.16,0,0,1.37,17.33-2.82,18.32-16.81,4-19.3-12.14-19.52-14.09-.85-7.72-2.8,26.9,16.23,27,16.45.1,50-43.45,53.09-50s-3.47-29,3.78-29.08c5,0-31.43-55.35-59.25-81.38C489.87,310.64,475.27,316.83,473.72,316Z"/><path class="cls-7" d="M602.88,424.22c-16.26,5.95-34.34-16-42.14-20.31-9.35-5.16-7.41,3.67-7.41,3.67s2.47,27.34-9.68,32.2-18.47-37.65-40.1-35.85c-15.91,1.33-6.08-13.12-6.47-27.69-.35-13-20.27-12.77-18.76-30.28,1.93-22.44,28.46-21.13,38.29-29.2,16.91-13.86,62.26.55,68.65,25.82,2.34,9.23,12,24.29,25,36.15,11.9,10.84,25.46,19,22.42,23.08-6.38,8.5-28.25,16.4-50.12-2.13-8.5-7.2-23.26-19.55-24.78-9.89-.74,4.68,6.3,7.08,14.6,14.7a82.65,82.65,0,0,0,14,10.79C595.13,420.43,604.34,423.69,602.88,424.22Z"/><path class="cls-7" d="M530.48,339.26s-10.3-7.73-8.29-16.64c1.19-5.3-5.87-17.92-17.56-17.92-13.26,0-26.86,19.37-19.39,17.92,5.48-1.07,9.51-2.93,11.34,0s-4.57,9.72-2.93,17.92c.53,2.61,2.93,10.61,16.83,9.51"/><path class="cls-10" d="M525.63,334.72c-5.14-7.15-2.72-9.11-3.43-14.72-.25-2-1.49-15.82-17.28-15.14-13.29.57-15.86,7.28-15.86,7.28s18.78-5.44,22.57,7.15a22.53,22.53,0,0,1,.7,3.31c-1.44-.82-4.94.42-6,.85,3.29-1,6.61,8,6.61,8,.31,6.25,1.14,12.11,6.87,14.39,2.12.84,13.72,1,16.29-2S530.78,341.86,525.63,334.72Z"/><path class="cls-10" d="M511.62,324.56l-.05,0Z"/><path class="cls-10" d="M511.91,324.45a1.31,1.31,0,0,0-.29.11Z"/><path class="cls-10" d="M541,313s.34-3-3.73-2.18,1.27-2.26,3.6-3-1.26-2.14-3.35-.82a6.74,6.74,0,0,1,8.63-2c5.55,2.58,7.06,9.45,7.06,9.45Z"/><path class="cls-6" d="M552.9,350.38s-3.47,15.87-9.56,21.24-2.15,16.82,7.52,15.76,10-5.91,24.68,6.56c11.28,9.59,14.41,15.35,35.21,17.05,15.58,1.27,23-12,20-16-5.81-7.78-22.07-15.22-32-28.94-12.32-17-13.51-23.47-13.51-23.47S571,324.11,564.8,328.2s-11.9,22.18-11.9,22.18"/><path class="cls-10" d="M506,353.18c-10.44,6.36-5.26,7.8-12.52,13.61,0,0,8-7.81,35.56-7S558.81,350,558.81,350a19,19,0,0,1-12.88,6.11C532.35,357.06,515.06,347.67,506,353.18Z"/><path class="cls-10" d="M586.45,349S584,341.45,580,336.6c-4.16-5-9.92-7.26-11.57-2.1-2.59,8.13-9,14-15.51,15.88-14.54,4.24-35.65-.23-35.65-.23s35.24-6.25,21.38-13.92c-8.11-4.48-9.68,1.45-9.68,1.45s-2.06-5.8,9.68-7.44c0,0-2.78-2-5.32-.9s7.8-5.27,14.69-.91a10.54,10.54,0,0,0-5.81-4s8.06-.74,14.56,2.16c0,0,.43-2.32-6.5-2.9,0,0,7.15-1.86,11.09,2.28,1,1.06,2.08-1.2,1-3.27a5.18,5.18,0,0,1-.53-3c-.22,2.05,5.7,4,5.7,4,10.94,2.82,18.39,14.51,18.91,25.32"/><path class="cls-8" d="M569.08,357.53c1,1.61,1.76,1,5.53,3s7.32-8.43,0-7.1c-.44.08-1.9.32-4,.59C570.57,354,567.68,355.38,569.08,357.53Z"/><path class="cls-10" d="M574.66,354.27a4.67,4.67,0,0,0-1.48,3.21,1.9,1.9,0,0,0,1.91,1.71h.51a.35.35,0,0,0,.35-.43c-.15-.77-.36-2.35.43-3.19a.35.35,0,0,0-.06-.53l-1.21-.82A.34.34,0,0,0,574.66,354.27Z"/><path class="cls-5" d="M575.38,354.94s-.06.91-.55,1.16.37,1.15,1.65.57,1.28-1.24.85-1.37S576.29,354.39,575.38,354.94Z"/><path class="cls-11" d="M593.72,358.75s1.4,12.53-4.17,12.82-24.37-5.28-24.07,0c.19,3.38,22.53,4.2,33.74,19,5.68,7.49,15.25,6.83,18.88,7.82,3.19.86,14.21-.29,12.67-3.41-2.16-4.41-13.27-11-16.51-13.81-10.28-9-13.57-12.27-20.54-22.43"/><path class="cls-2" d="M618.1,398.4c-.29,2.26,2.12,5.52,2.26,7.65s-1.44,2,0,3.83c.82,1.05,5.51-.74,9.21-3.28,2.79-1.92,5-4.27,4.61-6.15-.53-2.41-8.38-12.85-9.93-9.05C622,396.89,618.22,397.38,618.1,398.4Z"/><path d="M622.18,400.38s-3.08-.59-1.34,3-.26,4.55.4,4.95,4-1.61,4.14-3.08S625.38,398.73,622.18,400.38Z"/><path class="cls-11" d="M74.85,474.06s14.53-51.16,29.45-52.23c0,0-2.49,14.32,3.42,24.82.42.75,2-59.68,42.95-75.1,7.66-2.89-45.08,9.2-59.91,40.53-11.11,23.45-12.12,28.09-15.91,62"/></g><g id="Layer_6" data-name="Layer 6"><path class="cls-12" d="M250.76,282.47l8.26,9.59s9-8.24,6.76-14.17l-11-1.8Z"/><path class="cls-12" d="M189.21,210.2l75.54,48.51a6.12,6.12,0,0,1,1.84,8.45l-21,32.63a6.12,6.12,0,0,1-8.44,1.84l-75.54-48.51a6.11,6.11,0,0,0-8.44,1.83l-10.27,16a6.12,6.12,0,0,1-8.45,1.84L109,256.4a6.1,6.1,0,0,1-1.84-8.44l10.27-16a6.12,6.12,0,0,0-1.84-8.45L50.7,181.86a6.11,6.11,0,0,1-1.84-8.44l21-32.63A6.12,6.12,0,0,1,78.26,139l64.87,41.66a6.11,6.11,0,0,0,8.44-1.84l11.51-17.93a6.12,6.12,0,0,1,8.45-1.84L197,175.39a6.1,6.1,0,0,1,1.84,8.44l-11.51,17.93A6.11,6.11,0,0,0,189.21,210.2Z"/><path class="cls-13" d="M144,24.27l36.1-14.15A6.11,6.11,0,0,1,188,13.58l31.61,80.64a6.11,6.11,0,0,0,11,.7,43.4,43.4,0,0,1,7.84-10.41q8.37-8,21.76-13.21,25.44-10,43.93-1T332,103.09l31.29,79.82a6.11,6.11,0,0,1-3.46,7.92L323.76,205a6.09,6.09,0,0,1-7.91-3.46l-24.4-62.25a75.72,75.72,0,0,0-8.06-15.91,20.7,20.7,0,0,0-9.05-7.65,23.94,23.94,0,0,0-17.37.46q-12.08,4.72-15.67,14.46T243,153.74l25.94,66.19a6.12,6.12,0,0,1-3.46,7.92L229.33,242a6.12,6.12,0,0,1-7.92-3.46L140.53,32.19A6.12,6.12,0,0,1,144,24.27Z"/><path class="cls-13" d="M335.49,197.28l.72,11.47s11.36.43,15.14-5.43L341.68,193Z"/><path class="cls-1" d="M274.18,78.6s8.63-4.81,17.32-.48"/><path class="cls-1" d="M295.18,80.64a13.71,13.71,0,0,1,4,2.71"/><line class="cls-1" x1="89.17" y1="156.78" x2="93.84" y2="159.98"/><path class="cls-1" d="M98.05,162.52l36.22,23.64"/><line class="cls-1" x1="184.07" y1="283.57" x2="188.44" y2="286.6"/><line class="cls-1" x1="192.47" y1="288.88" x2="208.91" y2="299.12"/><path class="cls-1" d="M175.21,4.71s15-6.55,18-2.42,9,21.53,9,21.53"/><line class="cls-1" x1="203.86" y1="28.29" x2="205.57" y2="32.69"/></g></g></svg>