<?xml version="1.0" encoding="iso-8859-1"?>
<!-- Generator: Adobe Illustrator 19.0.0, SVG Export Plug-In . SVG Version: 6.00 Build 0)  -->
<svg version="1.1" id="Capa_1" xmlns="http://www.w3.org/2000/svg" xmlns:xlink="http://www.w3.org/1999/xlink" x="0px" y="0px"
	 viewBox="0 0 511.834 511.834" style="enable-background:new 0 0 511.834 511.834;" xml:space="preserve">
<g>
	<g>
		<path d="M330.696,281.366l-29.12-89.92c-2.688-8.352-11.648-12.928-20.032-10.336c-29.472,9.312-60.928,19.584-90.112,29.184
			c-8.352,2.752-12.896,11.776-10.208,20.128l29.12,89.952c2.208,6.752,8.48,11.04,15.232,11.04c1.632,0,3.296-0.224,4.896-0.768
			l89.952-29.12c4.032-1.312,7.392-4.16,9.312-7.936C331.656,289.814,332.008,285.398,330.696,281.366z M235.88,295.254
			l-19.296-59.552c19.552-6.4,39.776-12.992,59.488-19.264l19.264,59.584L235.88,295.254z"/>
	</g>
</g>
<g>
	<g>
		<path d="M508.968,268.342c-4.64-14.816-14.848-26.912-28.768-34.048c-14.08-7.264-30.112-8.544-45.248-3.552l-27.616,9.088
			l-19.52-59.808c17.28-5.664,27.84-9.024,27.84-9.024c14.784-4.64,26.88-14.88,34.016-28.768
			c7.232-14.08,8.512-30.144,3.616-45.056c-4.672-14.944-15.04-27.136-29.056-34.336c-14.08-7.2-30.08-8.448-44.96-3.584
			l-27.648,9.088c-5.664-17.312-9.024-27.904-9.088-28C332.488,9.718,299.24-7.082,268.456,2.87
			c-14.816,4.672-26.912,14.88-34.048,28.8c-7.232,14.08-8.512,30.144-3.552,45.216l9.088,27.648l-59.84,19.488
			c-5.664-17.28-9.024-27.808-9.024-27.808c-4.672-14.816-14.88-26.912-28.8-34.048c-14.112-7.264-30.208-8.512-45.024-3.616
			C82.344,63.222,70.12,73.558,62.92,87.574c-7.2,14.08-8.48,30.048-3.616,44.96l9.12,27.968l-29.632,9.6
			C9.928,180.31-6.168,211.574,2.216,241.558c4.544,15.296,15.2,28.352,29.312,35.904c13.76,7.296,29.376,8.832,44.224,4.192
			c0.032-0.032,10.912-3.68,28.864-9.472l19.456,59.52l-29.728,9.632c-28.768,10.464-44.8,41.856-36.448,71.712
			c4.544,15.424,15.296,28.576,29.504,36c13.792,7.2,29.408,8.576,43.936,3.808l29.216-9.44l9.632,29.664
			c8.384,23.68,30.976,38.752,55.424,38.752c5.28,0,10.688-0.672,16-2.272c15.296-4.544,28.384-15.232,35.904-29.28
			c7.328-13.792,8.864-29.376,4.192-44.256c-0.032-0.032-3.648-11.008-9.536-29.024c19.584-6.304,39.84-12.896,59.584-19.328
			l9.632,29.76c10.464,28.8,41.888,44.864,71.712,36.448c15.424-4.576,28.576-15.328,36-29.536c7.2-13.792,8.576-29.408,3.776-44
			c-0.032-0.032-3.648-10.912-9.44-28.832c17.344-5.696,27.936-9.056,28.064-9.12C502.12,332.342,518.92,299.03,508.968,268.342z
			 M461.768,311.958c0,0-17.056,5.44-43.328,14.112c-8.32,2.752-12.896,11.712-10.24,20.064
			c8.64,26.944,14.432,44.288,14.432,44.288c2.016,6.272,1.44,13.056-1.76,19.104c-3.456,6.56-9.536,11.584-16.512,13.632
			c-13.728,3.776-28.032-3.488-32.64-16.064l-14.368-44.48c-1.312-4.064-4.16-7.392-7.936-9.344
			c-3.776-1.888-8.192-2.272-12.224-0.96l-13.92,4.544c-25.28,8.224-51.424,16.768-75.968,24.576
			c-6.624,2.144-11.136,8.288-11.136,15.264v0.32v0.032c0,0.032,0,0.032,0,0.032v0.032c0,0,0,0,0,0.032
			c0,1.632,0.256,3.2,0.704,4.64c0,0.064,0.032,0.096,0.032,0.16c8.608,26.72,14.368,44,14.368,44.032
			c1.984,6.336,1.28,13.216-1.984,19.328c-3.488,6.56-9.6,11.584-16.48,13.6c-13.504,3.84-27.84-3.456-32.32-16.096l-14.4-44.48
			c-2.208-6.752-8.48-11.072-15.232-11.072c-1.6,0-3.264,0.256-4.896,0.8l-44.576,14.432c-6.272,2.016-13.024,1.408-19.104-1.76
			c-6.592-3.456-11.584-9.536-13.632-16.512c-3.808-13.632,3.488-28.032,16.064-32.64l44.48-14.368
			c4.032-1.312,7.392-4.16,9.344-7.968c1.92-3.776,2.272-8.192,0.928-12.224l-29.44-89.952c-2.752-8.352-11.808-12.896-20.096-10.24
			c-26.752,8.608-44.032,14.368-44.032,14.368c-6.336,1.984-13.216,1.28-19.328-1.984c-6.592-3.488-11.552-9.6-13.6-16.512
			c-3.808-13.6,3.456-27.84,16.096-32.32l44.48-14.4c4.032-1.312,7.392-4.16,9.312-7.936c1.92-3.776,2.272-8.192,0.96-12.224
			l-14.08-43.232c-2.208-6.752-1.632-13.984,1.664-20.384c3.264-6.336,8.736-11.008,15.648-13.184
			c6.88-2.272,14.208-1.696,20.64,1.6c6.24,3.232,10.816,8.608,12.896,15.296c0,0,5.44,16.992,14.112,43.296
			c2.784,8.384,11.712,12.992,20.16,10.208l90.24-29.408c4.032-1.344,7.36-4.224,9.312-8c1.92-3.808,2.24-8.192,0.896-12.224
			l-14.048-42.88c-2.24-6.88-1.696-14.208,1.6-20.64c3.2-6.24,8.608-10.816,15.328-12.928c14.368-4.64,29.312,2.848,33.92,16.864
			c0,0,5.472,17.024,14.208,43.264c2.72,8.384,11.808,12.928,20.192,10.208l42.88-14.08c6.688-2.24,13.984-1.664,20.384,1.632
			c6.336,3.264,11.04,8.768,13.184,15.648c2.272,6.88,1.696,14.208-1.632,20.64c-3.2,6.24-8.608,10.816-15.264,12.896
			c0,0-17.056,5.44-43.328,14.112c-8.352,2.784-12.928,11.776-10.208,20.16l29.44,90.24c1.312,4.032,4.192,7.36,7.968,9.312
			c3.84,1.888,8.256,2.304,12.256,0.896l42.88-14.048c6.848-2.24,14.24-1.696,20.64,1.632c6.208,3.2,10.784,8.608,12.896,15.328
			C483.272,292.438,475.816,307.318,461.768,311.958z"/>
	</g>
</g>
<g>
</g>
<g>
</g>
<g>
</g>
<g>
</g>
<g>
</g>
<g>
</g>
<g>
</g>
<g>
</g>
<g>
</g>
<g>
</g>
<g>
</g>
<g>
</g>
<g>
</g>
<g>
</g>
<g>
</g>
</svg>
