<?xml version="1.0" encoding="utf-8"?>
<!-- Generator: Adobe Illustrator 21.1.0, SVG Export Plug-In . SVG Version: 6.00 Build 0)  -->
<svg version="1.1" xmlns="http://www.w3.org/2000/svg" xmlns:xlink="http://www.w3.org/1999/xlink" x="0px" y="0px"
	 viewBox="0 0 643 130" style="enable-background:new 0 0 643 130;" xml:space="preserve">
<style type="text/css">
	.st0{fill:#3E678C;}
	.st1{fill:#FF7D93;}
</style>
<g id="Layer_1">
	<g>
		<g>
			<path class="st0" d="M32.9,71.9v53.6c0,1.1-0.9,2-2,2H18c-1.1,0-2-0.9-2-2V71.9c0-1.1-0.9-2-2-2H3c-1.1,0-2-0.9-2-2V56.1
				c0-1.1,0.9-2,2-2h11c1.1,0,2-0.9,2-2V29.1c0-1.1,0.9-2,2-2h12.9c1.1,0,2,0.9,2,2V52c0,1.1,0.9,2,2,2h13c1.1,0,2,0.9,2,2v11.8
				c0,1.1-0.9,2-2,2H35C33.8,69.9,32.9,70.8,32.9,71.9z"/>
		</g>
		<g>
			<path class="st0" d="M116.2,53h13c1.1,0,2,0.9,2,2v69.4c0,1.1-0.9,2-2,2h-13c-1.1,0-2-0.9-2-2v-1.3c0-1.7-1.9-2.6-3.2-1.6
				c-6.1,4.7-12.5,7-19.3,7c-10.2,0-18.6-3.7-25.2-11c-6.6-7.5-9.9-16.8-9.9-28.1c0-11,3.3-20.2,9.9-27.5c6.6-7.3,14.8-11,24.7-11
				c7.2,0,13.7,2.5,19.7,7.4c1.3,1.1,3.3,0.2,3.3-1.5v-1.9C114.2,53.9,115.1,53,116.2,53z M73.9,89.5c0,7,1.9,12.8,5.7,17.2
				c3.9,4.5,8.7,6.7,14.6,6.7c6.3,0,11.4-2.2,15.2-6.5c3.9-4.5,5.8-10.2,5.8-17c0-6.9-1.9-12.6-5.8-17c-3.9-4.4-8.9-6.6-15.1-6.6
				c-5.8,0-10.7,2.2-14.6,6.6C75.9,77.4,73.9,83,73.9,89.5z"/>
		</g>
		<g>
			<path class="st0" d="M147.7,54h12.9c1.1,0,2,0.9,2,2v0c0,1.7,2.1,2.7,3.4,1.5c1.9-1.7,3.5-2.9,5-3.7c2.5-1.3,5.6-1.9,9.3-1.9
				c7.5,0,13.5,2.9,18.2,8.8c0.8,1,2.3,1,3.1,0.1c5.1-5.9,11.8-8.9,20-8.9c16.5,0,24.8,10,24.8,30.1v43.4c0,1.1-0.9,2-2,2h-13
				c-1.1,0-2-0.9-2-2V86.7c0-7-0.9-12-2.6-14.9c-1.8-3-4.7-4.5-8.7-4.5c-4.7,0-8.1,1.8-10.2,5.3c-2.1,3.5-3.2,9.2-3.2,17v35.9
				c0,1.1-0.9,2-2,2h-13c-1.1,0-2-0.9-2-2V86.9c0-13.1-3.8-19.6-11.3-19.6c-4.8,0-8.3,1.8-10.4,5.4c-2.2,3.6-3.3,9.2-3.3,16.9v35.9
				c0,1.1-0.9,2-2,2h-12.9c-1.1,0-2-0.9-2-2V56.1C145.7,54.9,146.6,54,147.7,54z"/>
		</g>
		<g>
			<path class="st0" d="M276.8,53c1.1,0,2,0.9,2,2v40.1c0,12.2,4.8,18.3,14.4,18.3c9.6,0,14.4-6.1,14.4-18.3V55.1c0-1.1,0.9-2,2-2
				h12.9c1.1,0,2,0.9,2,2v40.5c0,5.9-0.7,11-2.2,15.2c-1.4,3.8-3.8,7.3-7.3,10.3c-5.7,5-13,7.5-21.9,7.5c-8.8,0-16.1-2.5-21.8-7.5
				c-3.5-3.1-6-6.5-7.5-10.3c-1.4-3.4-2.1-8.5-2.1-15.2V55.1c0-1.1,0.9-2,2-2H276.8z"/>
		</g>
		<g>
			<path class="st1" d="M345,1.1H358c1.1,0,2,0.9,2,2v53.8c0,1.7,1.9,2.6,3.2,1.6c5.2-3.7,10.8-5.6,16.8-5.6
				c8.3,0,14.9,2.7,19.9,8.1c4.2,4.7,6.3,12.1,6.3,22.4v43c0,1.1-0.9,2-2,2h-12.9c-1.1,0-2-0.9-2-2V85.1c0-5.9-1-10.1-3.1-12.8
				c-2.1-2.6-5.4-4-10.1-4c-5.9,0-10.1,1.8-12.5,5.5c-2.4,3.7-3.5,10.1-3.5,19.2v33.5c0,1.1-0.9,2-2,2H345c-1.1,0-2-0.9-2-2V3.1
				C343,2,343.9,1.1,345,1.1z"/>
		</g>
		<g>
			<path class="st1" d="M477.9,53h13c1.1,0,2,0.9,2,2v69.4c0,1.1-0.9,2-2,2h-13c-1.1,0-2-0.9-2-2v-1.3c0-1.7-1.9-2.6-3.2-1.6
				c-6.1,4.7-12.5,7-19.3,7c-10.2,0-18.6-3.7-25.2-11c-6.6-7.5-9.9-16.8-9.9-28.1c0-11,3.3-20.2,9.9-27.5c6.6-7.3,14.8-11,24.7-11
				c7.2,0,13.7,2.5,19.7,7.4c1.3,1.1,3.3,0.2,3.3-1.5v-1.9C475.9,53.9,476.8,53,477.9,53z M435.6,89.5c0,7,1.9,12.8,5.7,17.2
				c3.9,4.5,8.8,6.7,14.6,6.7c6.3,0,11.4-2.2,15.2-6.5c3.9-4.5,5.8-10.2,5.8-17c0-6.9-1.9-12.6-5.8-17c-3.9-4.4-8.9-6.6-15.1-6.6
				c-5.8,0-10.7,2.2-14.6,6.6C437.5,77.4,435.6,83,435.6,89.5z"/>
		</g>
		<g>
			<path class="st1" d="M566.5,57.4v16c0,1.8-2.2,2.7-3.5,1.4c-2.5-2.6-4.8-4.5-6.9-5.8c-3-1.8-6.6-2.7-10.6-2.7
				c-6.4,0-11.7,2.2-15.9,6.7c-4.2,4.5-6.3,10.1-6.3,16.8c0,6.9,2,12.5,6.1,17c4.1,4.4,9.4,6.6,15.8,6.6c4.1,0,7.7-0.9,10.8-2.6
				c2.1-1.2,4.5-3.2,7.2-6c1.3-1.3,3.5-0.4,3.5,1.4V122c0,0.8-0.4,1.5-1.1,1.8c-6.5,3.2-13,4.8-19.5,4.8c-11.4,0-20.9-3.7-28.5-11
				c-7.6-7.4-11.5-16.6-11.5-27.5c0-11,3.9-20.2,11.6-27.8C525.2,54.8,534.7,51,546,51c6.8,0,13.3,1.5,19.4,4.6
				C566.1,56,566.5,56.7,566.5,57.4z"/>
		</g>
		<g>
			<path class="st1" d="M597.9,3.1V74c0,1.8,2.2,2.7,3.4,1.4l19.9-19.8c0.4-0.4,0.9-0.6,1.4-0.6H637c1.8,0,2.7,2.1,1.5,3.4
				l-24.6,26.2c-0.7,0.7-0.7,1.8-0.2,2.6l27.9,38.1c1,1.3,0,3.2-1.6,3.2h-14.1c-0.6,0-1.2-0.3-1.6-0.8L602,99.3c-0.7-1-2.2-1-3-0.2
				l-0.5,0.5c-0.4,0.4-0.6,0.9-0.6,1.4v25.4c0,1.1-0.9,2-2,2H583c-1.1,0-2-0.9-2-2V3.1c0-1.1,0.9-2,2-2h12.9
				C597,1.1,597.9,2,597.9,3.1z"/>
		</g>
	</g>
</g>
<g id="Layer_2">
</g>
</svg>
