<svg width="90" height="70" viewBox="0 0 90 70" fill="none" xmlns="http://www.w3.org/2000/svg">
<path d="M69.6983 7.21768C69.7673 7.32938 69.8137 7.4536 69.8348 7.58324C69.8558 7.71287 69.8511 7.84538 69.821 7.9732C69.7908 8.10102 69.7358 8.22164 69.659 8.32818C69.5822 8.43472 69.4851 8.52509 69.3734 8.59413L68.9481 8.85703C68.8364 8.92608 68.7121 8.97245 68.5825 8.99349C68.4529 9.01454 68.3204 9.00984 68.1926 8.97967C68.0647 8.94951 67.9441 8.89446 67.8376 8.81768C67.731 8.74089 67.6407 8.64388 67.5716 8.53217C67.5026 8.42046 67.4562 8.29624 67.4352 8.16661C67.4141 8.03698 67.4188 7.90448 67.449 7.77666C67.4791 7.64884 67.5342 7.52822 67.611 7.42168C67.6878 7.31514 67.7848 7.22477 67.8965 7.15572L68.3218 6.89281C68.4335 6.82362 68.5577 6.77712 68.6874 6.756C68.817 6.73488 68.9496 6.73953 69.0774 6.76971C69.2053 6.79989 69.326 6.85499 69.4325 6.93186C69.539 7.00873 69.6293 7.10585 69.6983 7.21768ZM29.4208 30.9299L28.6021 31.4357C28.4904 31.5048 28.3934 31.5951 28.3166 31.7017C28.2398 31.8082 28.1848 31.9288 28.1546 32.0567C28.1244 32.1845 28.1197 32.317 28.1408 32.4466C28.1618 32.5762 28.2082 32.7005 28.2772 32.8122C28.3463 32.9239 28.4367 33.0209 28.5432 33.0977C28.6497 33.1745 28.7704 33.2295 28.8982 33.2597C29.026 33.2898 29.1585 33.2945 29.2881 33.2735C29.4178 33.2525 29.542 33.2061 29.6537 33.137L30.4724 32.6312C30.5841 32.5622 30.6811 32.4718 30.7579 32.3653C30.8347 32.2587 30.8897 32.1381 30.9199 32.0103C30.9501 31.8825 30.9547 31.75 30.9337 31.6203C30.9127 31.4907 30.8663 31.3665 30.7972 31.2548C30.7282 31.1431 30.6378 31.046 30.5313 30.9693C30.4247 30.8925 30.3041 30.8374 30.1763 30.8073C30.0485 30.7771 29.916 30.7724 29.7864 30.7934C29.6567 30.8145 29.5325 30.8608 29.4208 30.9299ZM24.5086 33.9648L24.0833 34.2277C23.9716 34.2968 23.8746 34.3871 23.7978 34.4937C23.721 34.6002 23.6659 34.7209 23.6358 34.8487C23.6056 34.9765 23.6009 35.109 23.622 35.2386C23.643 35.3682 23.6894 35.4925 23.7584 35.6042C23.8275 35.7159 23.9178 35.8129 24.0244 35.8897C24.1309 35.9665 24.2515 36.0215 24.3794 36.0517C24.5072 36.0818 24.6397 36.0865 24.7693 36.0655C24.8989 36.0445 25.0231 35.9981 25.1349 35.929L25.5602 35.6661C25.7858 35.5267 25.9468 35.3033 26.0077 35.0452C26.0686 34.7871 26.0245 34.5153 25.8851 34.2897C25.7456 34.0641 25.5223 33.9031 25.2641 33.8422C25.006 33.7813 24.7342 33.8254 24.5086 33.9648ZM34.3325 27.8951L33.5138 28.4009C33.4021 28.47 33.3051 28.5604 33.2283 28.6669C33.1515 28.7735 33.0964 28.8941 33.0663 29.0219C33.0361 29.1497 33.0314 29.2822 33.0525 29.4118C33.0735 29.5415 33.1199 29.6657 33.1889 29.7774C33.258 29.8891 33.3483 29.9861 33.4549 30.0629C33.5614 30.1397 33.682 30.1947 33.8099 30.2249C33.9377 30.2551 34.0702 30.2598 34.1998 30.2387C34.3294 30.2177 34.4537 30.1713 34.5654 30.1023L35.3841 29.5964C35.4958 29.5274 35.5928 29.437 35.6696 29.3305C35.7463 29.2239 35.8014 29.1033 35.8316 28.9755C35.8617 28.8477 35.8664 28.7152 35.8454 28.5855C35.8243 28.4559 35.778 28.3317 35.7089 28.22C35.6399 28.1083 35.5495 28.0113 35.443 27.9345C35.3364 27.8577 35.2158 27.8027 35.088 27.7725C34.9602 27.7423 34.8277 27.7376 34.698 27.7587C34.5684 27.7797 34.4442 27.8261 34.3325 27.8951ZM58.892 12.7199L58.0733 13.2257C57.9616 13.2948 57.8646 13.3852 57.7878 13.4917C57.711 13.5982 57.6559 13.7189 57.6258 13.8467C57.5956 13.9745 57.5909 14.107 57.612 14.2366C57.633 14.3663 57.6794 14.4905 57.7484 14.6022C57.8175 14.7139 57.9078 14.8109 58.0144 14.8877C58.1209 14.9645 58.2415 15.0195 58.3694 15.0497C58.4972 15.0799 58.6297 15.0845 58.7593 15.0635C58.8889 15.0425 59.0132 14.9961 59.1249 14.927L59.9436 14.4212C60.1692 14.2818 60.3301 14.0584 60.3911 13.8003C60.452 13.5422 60.4079 13.2704 60.2684 13.0448C60.129 12.8192 59.9056 12.6582 59.6475 12.5973C59.3893 12.5364 59.1176 12.5805 58.892 12.7199ZM53.9799 15.7553L53.1612 16.2611C53.0495 16.3302 52.9525 16.4205 52.8757 16.5271C52.7989 16.6336 52.7439 16.7542 52.7137 16.8821C52.6836 17.0099 52.6789 17.1424 52.6999 17.272C52.721 17.4016 52.7673 17.5259 52.8364 17.6376C52.9054 17.7493 52.9958 17.8463 53.1023 17.9231C53.2089 17.9999 53.3295 18.0549 53.4573 18.0851C53.7154 18.146 53.9872 18.1019 54.2128 17.9624L55.0315 17.4566C55.1432 17.3876 55.2402 17.2972 55.317 17.1907C55.3938 17.0841 55.4489 16.9635 55.479 16.8357C55.5092 16.7079 55.5139 16.5754 55.4928 16.4457C55.4718 16.3161 55.4254 16.1919 55.3564 16.0802C55.2873 15.9685 55.197 15.8714 55.0904 15.7947C54.9839 15.7179 54.8633 15.6628 54.7354 15.6327C54.6076 15.6025 54.4751 15.5978 54.3455 15.6188C54.2159 15.6399 54.0916 15.6863 53.9799 15.7553ZM78.6083 9.72196C78.2923 11.1415 77.4335 12.3811 76.2156 13.1758L57.3675 25.5473L58.4092 51.0322C58.4151 51.1773 58.3893 51.3219 58.3338 51.456C58.2782 51.5902 58.1941 51.7106 58.0874 51.8091L49.8615 59.381C49.7344 59.498 49.5791 59.5801 49.4108 59.6193C49.2425 59.6584 49.0669 59.6533 48.9011 59.6044C48.7354 59.5555 48.5852 59.4645 48.4651 59.3403C48.3449 59.216 48.2591 59.0628 48.2158 58.8955L41.9991 34.8636L28.0785 42.645C27.5899 42.9197 27.0698 43.134 26.5295 43.2832C25.532 43.5587 24.4862 43.611 23.4662 43.4362C22.4463 43.2615 21.4775 42.864 20.6287 42.2722L13.0806 36.9763L13.079 36.9748L13.078 36.9744L2.55092 29.5468C2.40292 29.4424 2.28605 29.2998 2.21279 29.1341C2.13953 28.9685 2.11263 28.7861 2.13496 28.6063C2.15729 28.4266 2.22801 28.2563 2.33957 28.1136C2.45113 27.971 2.59934 27.8613 2.76838 27.7963L11.2623 24.5296C11.4862 24.4421 11.7344 24.4393 11.9602 24.5217L23.8055 28.7866L32.1347 23.6998L24.0333 16.936C23.8981 16.8231 23.7952 16.6766 23.7348 16.5112C23.6744 16.3458 23.6588 16.1674 23.6895 15.994C23.7202 15.8206 23.7961 15.6584 23.9096 15.5238C24.0231 15.3892 24.1701 15.2869 24.3358 15.2273L33.0105 12.1052C33.256 12.0188 33.5254 12.0298 33.7631 12.1359L43.5554 16.5904C43.5906 16.6125 43.6242 16.6368 43.6562 16.6633L65.5946 3.2649C66.6322 2.63432 67.8457 2.35573 69.0544 2.47062L73.6879 2.92098C74.478 2.99776 75.2428 3.24171 75.9314 3.63662C76.6201 4.03154 77.2169 4.56839 77.6822 5.21156C78.1475 5.85473 78.4707 6.58951 78.6304 7.36714C78.7901 8.14476 78.7825 8.94747 78.6083 9.72196ZM33.9372 22.5989L41.6196 17.9071L33.305 14.1246L26.6539 16.5184L33.9372 22.5989ZM13.6853 34.9552L21.4273 30.0563L11.6331 26.5299L5.23272 28.9912L13.6853 34.9552ZM76.062 6.38402C75.7628 5.97064 75.3791 5.6256 74.9364 5.37176C74.4937 5.11792 74.0021 4.9611 73.4942 4.91167L68.8608 4.46132C68.0838 4.38789 67.3038 4.56696 66.6367 4.97195L15.4782 36.2156L21.7772 40.6352C22.5502 41.1746 23.4594 41.4855 24.4008 41.5324C25.3422 41.5793 26.2778 41.3603 27.1006 40.9005L41.4813 32.8621L40.85 30.4216C40.7879 30.165 40.8282 29.8943 40.9622 29.6669C41.0962 29.4394 41.3135 29.273 41.568 29.203C41.8248 29.1367 42.0974 29.1751 42.3259 29.3097C42.5545 29.4444 42.7202 29.6642 42.7866 29.921L49.7345 56.7794L56.3918 50.6515L55.2554 22.8526L50.8564 25.6363C50.6323 25.7774 50.3614 25.8238 50.1031 25.7654C49.8447 25.707 49.6201 25.5486 49.4785 25.3248C49.3369 25.101 49.2898 24.8302 49.3475 24.5717C49.4053 24.3133 49.5632 24.0883 49.7866 23.9461L55.6492 20.2368C55.7976 20.1429 55.968 20.0897 56.1433 20.0826C56.3187 20.0754 56.4929 20.1146 56.6484 20.196C56.8038 20.2775 56.9351 20.3985 57.029 20.5468C57.1229 20.6951 57.1762 20.8654 57.1834 21.0408L57.2724 23.2171L75.1188 11.5031C75.5258 11.2365 75.8745 10.8901 76.1438 10.4848C76.4131 10.0796 76.5974 9.6239 76.6856 9.14538C76.7737 8.66686 76.764 8.17543 76.6568 7.7008C76.5496 7.22618 76.3473 6.77822 76.062 6.38402ZM63.8036 9.68517L62.985 10.191C62.8733 10.26 62.7762 10.3504 62.6995 10.4569C62.6227 10.5635 62.5676 10.6841 62.5375 10.8119C62.5073 10.9397 62.5026 11.0722 62.5236 11.2019C62.5447 11.3315 62.591 11.4557 62.6601 11.5674C62.7291 11.6791 62.8195 11.7762 62.9261 11.8529C63.0326 11.9297 63.1532 11.9848 63.281 12.0149C63.4089 12.0451 63.5414 12.0498 63.671 12.0288C63.8006 12.0077 63.9248 11.9614 64.0366 11.8923L64.8552 11.3865C64.967 11.3174 65.064 11.2271 65.1408 11.1205C65.2175 11.014 65.2726 10.8934 65.3027 10.7655C65.3329 10.6377 65.3376 10.5052 65.3166 10.3756C65.2955 10.246 65.2492 10.1217 65.1801 10.01C65.1111 9.89832 65.0207 9.80131 64.9141 9.72452C64.8076 9.64774 64.687 9.59269 64.5592 9.56253C64.4313 9.53236 64.2988 9.52766 64.1692 9.54871C64.0396 9.56975 63.9154 9.61612 63.8036 9.68517ZM49.0683 18.7901L48.2496 19.2959C48.024 19.4353 47.8631 19.6587 47.8021 19.9168C47.7412 20.175 47.7853 20.4467 47.9248 20.6723C48.0642 20.8979 48.2876 21.0589 48.5457 21.1198C48.8039 21.1808 49.0756 21.1366 49.3012 20.9972L50.1199 20.4914C50.3455 20.3519 50.5065 20.1286 50.5674 19.8704C50.6283 19.6123 50.5842 19.3405 50.4448 19.1149C50.3053 18.8893 50.082 18.7283 49.8238 18.6674C49.5657 18.6065 49.2939 18.6506 49.0683 18.7901ZM39.2445 24.8597L38.4258 25.3656C38.2002 25.505 38.0392 25.7284 37.9783 25.9865C37.9174 26.2446 37.9615 26.5164 38.1009 26.742C38.2404 26.9676 38.4637 27.1286 38.7219 27.1895C38.98 27.2504 39.2518 27.2063 39.4774 27.0669L40.2961 26.5611C40.5217 26.4216 40.6826 26.1983 40.7436 25.9401C40.8045 25.682 40.7604 25.4102 40.6209 25.1846C40.4815 24.959 40.2581 24.798 40 24.7371C39.7419 24.6762 39.4701 24.7203 39.2445 24.8597ZM44.1562 21.825L43.3375 22.3308C43.2258 22.3998 43.1287 22.4902 43.052 22.5968C42.9752 22.7033 42.9201 22.8239 42.89 22.9517C42.8598 23.0795 42.8551 23.2121 42.8761 23.3417C42.8972 23.4713 42.9435 23.5955 43.0126 23.7072C43.0816 23.8189 43.172 23.916 43.2786 23.9927C43.3851 24.0695 43.5057 24.1246 43.6335 24.1547C43.8917 24.2157 44.1634 24.1716 44.389 24.0321L45.2077 23.5263C45.4333 23.3868 45.5943 23.1635 45.6552 22.9053C45.7162 22.6472 45.6721 22.3754 45.5326 22.1498C45.3932 21.9242 45.1698 21.7633 44.9117 21.7023C44.6535 21.6414 44.3818 21.6855 44.1562 21.825Z" fill="#273954" fill-opacity="0.5"/>
</svg>
