<svg width="124" height="476" viewBox="0 0 124 476" fill="none" xmlns="http://www.w3.org/2000/svg">
<path d="M138.748 476C40.924 476 30.5836 464.134 29.4894 461.278H29.3799V460.783L29.3252 460.289H29.3799V173.041L0.328267 144.201H0.164134V143.981L0 143.871L0.164134 143.706V80.4229H0.273556C0.711246 78.8847 3.33739 74.49 17.8359 70.2052C19.2036 69.6009 65.1064 50.484 111.83 44.9907V11.0417C110.407 10.6022 109.204 9.61339 109.204 5.60323C109.204 3.79042 109.641 2.52695 110.571 1.81281C111.009 1.48321 111.447 1.31841 111.83 1.26347V0H113.471V38.069C117.082 35.7069 128.736 34.9927 135.903 34.9927C137.161 34.9927 138.474 34.9927 139.787 35.0477C140.334 34.4434 141.046 34.1138 141.866 34.1687C142.687 34.2237 143.453 34.6082 143.945 35.2125C151.058 35.6519 159.483 36.8055 159.483 39.6621C159.483 40.4861 158.827 41.2002 157.459 41.8045C158.827 42.4088 159.483 43.1229 159.483 43.9469V45.0456C206.809 50.6488 252.657 70.0404 253.094 70.2052L253.587 70.4249L253.532 70.5348C263.271 73.1167 267.155 75.6436 268.742 77.3466C269.781 78.4452 269.836 79.2143 269.836 79.489V143.706L270 143.871L269.891 143.981V144.256H269.617L240.62 173.041V179.413C240.948 179.908 241.003 180.292 241.003 180.402L241.058 180.951L240.62 181.006V460.728C240.62 461.003 240.565 461.882 239.526 463.091C238.596 464.134 237.119 465.178 235.149 466.112V466.332H234.711C230.827 468.145 225.137 469.738 217.915 471.111C200.407 474.352 174.146 476 139.842 476.055L138.748 476ZM138.529 474.352H138.802H139.787C141.319 474.352 142.851 474.352 144.328 474.352V166.943C142.359 166.943 140.444 166.888 138.529 166.888V474.352ZM131.088 474.297C133.058 474.297 134.973 474.297 136.888 474.297V166.888C135.082 166.888 133.331 166.888 131.581 166.888H131.088V474.297ZM145.97 166.943V474.297C147.939 474.297 149.854 474.242 151.769 474.242V167.053C149.799 167.053 147.884 166.998 145.97 166.943ZM123.647 474.242C125.617 474.297 127.532 474.297 129.447 474.297V166.888C127.477 166.888 125.562 166.888 123.647 166.888V474.242ZM153.41 167.108V474.242C155.38 474.187 157.295 474.187 159.21 474.132V167.218C157.24 167.163 155.325 167.163 153.41 167.108ZM116.261 474.077C118.231 474.132 120.146 474.132 122.061 474.187V166.943C120.091 166.943 118.176 166.998 116.261 166.998V474.077ZM160.796 167.273V474.077C162.766 474.022 164.681 473.967 166.596 473.913V167.493C164.681 167.438 162.766 167.328 160.796 167.273ZM108.821 473.858C110.736 473.913 112.705 473.967 114.62 474.022V166.998C112.65 167.053 110.736 167.053 108.821 167.108V473.858ZM168.237 167.548V473.858C170.207 473.803 172.176 473.693 174.036 473.638V167.822C172.122 167.712 170.207 167.657 168.237 167.548ZM101.38 473.638C103.295 473.693 105.264 473.803 107.179 473.858V167.163C105.21 167.218 103.295 167.273 101.38 167.328V473.638ZM175.678 167.877V473.528C177.593 473.418 179.562 473.363 181.477 473.253V168.207C179.508 168.097 177.593 167.987 175.678 167.877ZM93.9392 473.253C95.7994 473.363 97.769 473.473 99.7386 473.528V167.438C97.8237 167.493 95.8541 167.603 93.9392 167.657V473.253ZM183.119 168.317V473.143C185.033 473.034 187.003 472.924 188.918 472.759V168.756C187.003 168.591 185.033 168.481 183.119 168.317ZM86.4985 472.814C88.3587 472.924 90.2736 473.034 92.2979 473.143V167.712C90.3283 167.822 88.4134 167.932 86.4985 168.042V472.814ZM79.1125 472.265C81.0274 472.429 82.997 472.594 84.9118 472.704V168.152C82.9422 168.262 81.0274 168.427 79.1125 168.536V472.265ZM190.559 168.866V472.704C192.529 472.539 194.498 472.374 196.359 472.21V169.36C194.498 169.196 192.584 169.031 190.559 168.866ZM71.6717 471.605C73.5319 471.77 75.4468 471.99 77.4711 472.155V168.701C75.5015 168.866 73.5319 169.031 71.6717 169.196V471.605ZM197.945 169.525V472.045C199.915 471.88 201.884 471.66 203.745 471.441V170.184C201.884 169.965 199.915 169.745 197.945 169.525ZM64.231 470.726C66.1459 470.946 68.1155 471.221 70.0304 471.386V169.36C68.0061 169.58 66.0912 169.8 64.231 170.02V470.726ZM205.386 170.349V471.221C207.41 471.001 209.325 470.726 211.185 470.452V171.173C209.325 170.899 207.41 170.624 205.386 170.349ZM56.7903 469.683C58.5957 469.957 60.5653 470.287 62.5897 470.562V170.239C60.5653 170.514 58.6505 170.789 56.7903 171.063V469.683ZM212.827 171.393V470.232C214.851 469.902 216.821 469.573 218.626 469.243V172.437C216.821 172.052 214.851 171.723 212.827 171.393ZM49.3495 468.309C51.155 468.694 53.1246 469.078 55.1489 469.408V171.338C53.1246 171.668 51.155 172.052 49.3495 172.437V468.309ZM220.267 172.766V468.914C222.347 468.474 224.316 468.035 226.067 467.54V174.085C225.793 174.03 225.574 173.975 225.301 173.865C223.769 173.535 222.128 173.151 220.267 172.766ZM41.9635 466.442C42.9483 466.716 44.0426 467.046 45.1368 467.32C45.9027 467.54 46.7234 467.705 47.7629 467.925V172.821C45.6292 173.316 43.7143 173.81 41.9635 174.359V466.442ZM227.708 174.579V467.101C229.951 466.442 231.866 465.782 233.508 465.013V176.557C231.812 175.843 229.897 175.183 227.708 174.579ZM34.5228 463.53C36.0547 464.354 38.0243 465.178 40.3222 465.947V174.854C37.9696 175.678 36 176.502 34.5228 177.381V463.53ZM235.149 177.326V464.244C236.517 463.53 237.556 462.761 238.213 462.047C238.869 461.333 238.979 460.838 238.979 460.783V460.728L238.924 460.179H238.979V179.963C238.486 179.413 237.447 178.424 235.149 177.326ZM31.0213 460.619C31.076 460.783 31.4043 461.498 32.8815 462.486V178.534C32.6079 178.754 32.3891 178.974 32.2249 179.194C31.459 179.963 31.459 180.457 31.459 180.512L31.5137 181.061H31.076V460.619H31.0213ZM32.8815 170.404C32.4438 170.734 32.1155 171.063 31.7872 171.338C31.076 172.107 31.0213 172.602 31.0213 172.656V177.985C31.5137 177.491 32.1155 176.941 32.8815 176.447V170.404ZM235.149 175.458C236.736 176.172 238.049 176.941 238.979 177.71V172.821C238.869 172.602 238.267 171.393 235.149 169.745V175.458ZM34.5228 169.36V175.513C36.1094 174.689 38.0243 173.865 40.3222 173.151V166.943C37.9696 167.712 36.0547 168.536 34.5228 169.36ZM227.708 172.821C229.897 173.426 231.812 174.085 233.508 174.744V168.921C232.03 168.262 230.116 167.548 227.708 166.888V172.821ZM41.9635 166.394V172.602C43.7143 172.107 45.6292 171.558 47.7629 171.118V164.911C45.6292 165.405 43.6596 165.9 41.9635 166.394ZM220.267 171.063C222.347 171.503 224.261 171.942 226.067 172.382V166.394C225.684 166.284 225.301 166.174 224.863 166.064C223.441 165.68 221.964 165.35 220.267 165.021V171.063ZM202.322 160.571C230.827 163.812 238.158 168.756 240.018 171.283L268.085 143.432L267.702 143.047H267.976C267.155 141.784 263.982 138.598 251.891 135.247C244.559 133.214 235.04 131.401 223.55 129.918L202.322 160.571ZM1.91489 143.487L29.8723 171.173C30.0365 170.899 30.2553 170.624 30.5289 170.349C32.4985 168.152 37.8602 165.021 52.1945 162.329C53.617 162.054 55.1489 161.835 56.6809 161.56L30.31 131.566C26.0426 132.445 22.1033 133.379 18.7112 134.368C5.8541 138.103 2.73556 141.784 2.02432 143.157H2.24316L1.91489 143.487ZM49.3495 164.581V170.789C50.3891 170.569 51.4286 170.349 52.5228 170.184C53.3982 170.02 54.2736 169.855 55.1489 169.745V163.537C53.1246 163.812 51.155 164.197 49.3495 164.581ZM212.827 169.745C214.851 170.075 216.821 170.404 218.626 170.734V164.691C216.766 164.307 214.851 163.977 212.827 163.647V169.745ZM205.386 168.701C207.41 168.976 209.325 169.196 211.185 169.47V163.428C209.271 163.153 207.356 162.878 205.386 162.604V168.701ZM56.7903 163.208V169.415C58.6505 169.141 60.5653 168.866 62.5897 168.591V162.384C60.5653 162.659 58.6505 162.933 56.7903 163.208ZM197.945 167.877C199.915 168.097 201.884 168.262 203.745 168.481V162.439C201.884 162.219 199.97 161.999 197.945 161.78V167.877ZM64.231 162.164V168.372C66.0365 168.152 68.0061 167.932 70.0304 167.712V161.505C68.0061 161.725 66.0912 161.944 64.231 162.164ZM190.559 167.163C192.529 167.328 194.498 167.493 196.359 167.657V161.56C194.444 161.395 192.474 161.175 190.559 161.065V167.163ZM71.6717 161.395V167.548C73.5319 167.383 75.5015 167.218 77.4711 167.053V160.901C75.4468 161.01 73.4772 161.175 71.6717 161.395ZM183.119 166.669C185.088 166.779 187.003 166.943 188.918 167.053V160.956C187.058 160.791 185.143 160.681 183.119 160.516V166.669ZM79.1125 160.736V166.888C81.0274 166.724 82.9422 166.614 84.9118 166.504V160.351C82.8875 160.461 80.9726 160.571 79.1125 160.736ZM175.678 166.229C177.647 166.339 179.617 166.449 181.477 166.559V160.461C179.617 160.351 177.647 160.241 175.678 160.132V166.229ZM86.4985 160.241V166.394C88.4134 166.284 90.383 166.174 92.2979 166.064V159.912C90.3283 160.022 88.4134 160.132 86.4985 160.241ZM168.237 165.9C170.207 165.955 172.176 166.064 174.036 166.174V160.077C172.122 159.967 170.207 159.912 168.237 159.802V165.9ZM93.9392 159.857V166.009C95.7994 165.9 97.769 165.845 99.7386 165.79V159.637C97.8237 159.692 95.9088 159.747 93.9392 159.857ZM160.796 165.625C162.766 165.68 164.681 165.735 166.596 165.845V159.747C164.681 159.692 162.711 159.582 160.796 159.527V165.625ZM101.38 159.527V165.68C103.295 165.625 105.21 165.57 107.179 165.515V159.363C105.21 159.417 103.24 159.472 101.38 159.527ZM153.41 165.46C155.38 165.515 157.295 165.57 159.21 165.625V159.472C157.295 159.417 155.325 159.363 153.41 159.308V165.46ZM108.821 159.308V165.46C110.736 165.405 112.65 165.35 114.62 165.35V159.198C112.65 159.253 110.681 159.308 108.821 159.308ZM145.97 165.295C147.939 165.295 149.854 165.35 151.769 165.405V159.253C149.799 159.198 147.884 159.198 145.97 159.143V165.295ZM116.261 159.198V165.35C118.176 165.295 120.091 165.295 122.061 165.295V159.143C120.036 159.143 118.122 159.143 116.261 159.198ZM138.529 165.24C140.498 165.24 142.413 165.295 144.328 165.295V159.143C142.359 159.143 140.444 159.088 138.529 159.088V165.24ZM123.647 159.088V165.24C125.562 165.24 127.477 165.24 129.447 165.24V159.088C127.477 159.088 125.562 159.088 123.647 159.088ZM131.635 165.24C133.441 165.24 135.137 165.24 136.888 165.24V159.088C134.918 159.088 133.003 159.088 131.088 159.088V165.24H131.635ZM32.1702 131.236L58.5957 161.285C69.538 159.692 83.3252 158.538 99.5745 157.934L92.462 125.359C67.6778 126.347 47.3799 128.325 32.1702 131.236ZM159.538 157.824C175.24 158.264 188.973 159.143 200.462 160.406L221.69 129.753C205.988 127.776 186.729 126.292 164.407 125.359L159.538 157.824ZM94.1581 125.249L101.216 157.879C110.079 157.55 119.872 157.44 130.213 157.385H131.252C140.663 157.385 149.635 157.495 157.897 157.714L162.766 125.249C154.231 124.919 145.149 124.644 135.903 124.48H135.356C120.748 124.535 106.906 124.754 94.1581 125.249ZM135.41 122.887H135.957C181.751 123.765 216.766 126.457 240.073 130.907C258.237 134.368 265.404 138.158 268.195 140.85V132.775L266.936 134.972L266.717 134.862L266.608 135.027V134.807L266.061 134.478L265.897 133.104L265.678 133.544L265.404 134.038L263.106 132.72L263.708 131.621L264.146 131.841C264.146 131.841 264.201 131.841 264.255 131.896C264.31 131.841 264.365 131.786 264.419 131.621L265.35 130.028V129.973C265.35 129.973 265.35 129.918 265.295 129.918C265.24 129.863 265.24 129.863 265.24 129.808L264.857 129.534L265.185 128.929L265.459 128.435L266.28 128.929L266.498 128.6L266.553 129.094L267.155 129.424L267.264 130.522L267.702 129.753L268.249 130.083V79.5988C268.249 79.5988 267.429 75.9183 251.781 71.9631C224.316 64.9865 173.599 62.6793 135.957 61.9652H135.41C97.6049 61.9652 46.6687 63.6681 18.7112 71.7983C3.11854 76.193 1.86018 80.7525 1.80547 81.0271V140.685C3.8845 138.488 8.37082 135.631 17.8359 132.83C33.3191 128.325 66.2553 122.887 135.41 122.887ZM265.459 132.5C265.514 132.555 265.568 132.61 265.568 132.61L265.842 132.83L265.733 131.951L265.568 132.225C265.514 132.39 265.459 132.445 265.459 132.5ZM267.264 130.907L267.319 131.566L267.374 131.456C267.429 131.291 267.483 131.236 267.538 131.182C267.483 131.127 267.483 131.127 267.429 131.072L267.264 130.907ZM250.578 70.4249C250.632 70.4249 250.632 70.4249 250.687 70.4249C250.632 70.4249 250.578 70.4249 250.578 70.4249ZM135.41 60.2073H135.957C184.541 61.1411 220.76 63.8878 243.793 68.3924C224.973 61.3059 177.538 45.2104 135.41 45.2104C127.97 45.2104 120.365 45.7048 112.815 46.5837L112.322 48.6163V46.6387C79.1672 50.484 46.4498 61.1961 29.8176 67.3486C59.2523 61.4707 102.748 60.2073 135.41 60.2073ZM156.584 44.7709C156.967 44.8259 157.404 44.8808 157.787 44.8808V43.9469C157.787 43.9469 157.678 43.6173 156.584 43.1778V44.7709ZM116.863 42.6834C114.128 43.3976 113.909 44.0018 113.909 44.0018V44.8259C116.043 44.6061 118.122 44.3864 120.146 44.2216V43.3426C118.942 43.1229 117.793 42.9032 116.863 42.6834ZM147.666 44.0018C150.073 44.1666 152.535 44.3864 154.997 44.6061V42.7384C154.942 42.7384 154.888 42.7384 154.888 42.6834C152.973 43.1778 150.565 43.5624 147.72 43.837V44.0018H147.666ZM140.17 44.1666C142.304 44.2216 144.383 44.3315 146.517 44.4413V39.4973H147.611V38.6733H143.726V38.124C143.726 38.124 143.726 37.245 143.398 36.4759L143.289 36.2562L143.125 36.0365C142.796 35.5421 142.304 35.2674 141.702 35.2125C141.155 35.1575 140.717 35.3773 140.389 35.8717L140.225 36.0914L140.116 36.3111C139.733 37.1351 139.733 38.1239 139.733 38.1789V38.7282H139.185V39.8269C139.295 39.8269 139.459 39.8269 139.568 39.8269H140.116V44.1666H140.17ZM121.733 43.5624V44.0568C122.717 44.0018 123.702 43.9469 124.632 43.892C123.647 43.7821 122.663 43.6722 121.733 43.5624ZM121.733 41.9144C125.781 42.4637 130.65 42.7384 135.848 42.7384C136.942 42.7384 137.982 42.7384 139.076 42.6834V40.8706C137.982 40.8706 136.888 40.8157 135.848 40.8157C130.65 40.8157 125.781 41.0904 121.733 41.6397V41.9144ZM113.416 41.365V42.2989C113.69 42.1341 113.964 41.9693 114.292 41.8045C113.964 41.6946 113.69 41.5298 113.416 41.365ZM147.666 41.4749V42.189C148.705 42.0792 149.69 41.9693 150.565 41.8045C149.635 41.6946 148.705 41.5848 147.666 41.4749ZM113.909 39.717C113.909 39.717 114.182 40.3213 116.863 41.0354C117.793 40.8157 118.942 40.596 120.146 40.3762V37.7394C115.277 38.5085 113.964 39.4424 113.909 39.717ZM148.705 39.9368C151.112 40.2114 153.191 40.541 154.833 40.9805C154.888 40.9805 154.942 40.9805 154.942 40.9256V38.3986C152.48 37.7394 148.869 37.1901 144.657 36.9154C144.711 37.1901 144.766 37.4098 144.766 37.6295H148.705V39.9368ZM156.584 38.948V40.4312C157.678 39.9917 157.787 39.6621 157.787 39.6621C157.787 39.6621 157.678 39.3874 156.584 38.948ZM121.733 37.4647V40.1016C126.383 39.4973 132.292 39.1677 138.146 39.2776V37.6295H138.693C138.748 37.3549 138.802 37.0253 138.912 36.6407C137.872 36.6407 136.888 36.5858 135.848 36.5858C130.65 36.5858 125.781 36.9154 121.733 37.4647ZM110.954 7.52591C111.119 8.56965 111.447 9.00912 111.775 9.28379V7.52591H110.954ZM110.845 4.83416H111.775V3.02135C111.72 3.07628 111.611 3.07628 111.556 3.18615C111.173 3.46082 110.954 4.01016 110.845 4.83416Z" fill="#273954" fill-opacity="0.4"/>
</svg>
