<svg width="42" height="42" viewBox="0 0 42 42" fill="none" xmlns="http://www.w3.org/2000/svg">
<path d="M20.9922 6.96606C13.1643 6.96606 6.82823 13.3004 6.82823 21.1296C6.82823 28.9897 13.1643 35.3394 20.9922 35.3394C28.8201 35.3394 35.1562 29.0051 35.1562 21.1759C35.1562 13.3466 28.8201 6.96606 20.9922 6.96606ZM13.0106 25.5374C12.3954 25.5374 11.9033 25.0443 11.9033 24.4278C11.9033 23.8113 12.3954 23.3181 13.0106 23.3181C13.6257 23.3181 14.1178 23.8113 14.1178 24.4278C14.1178 25.0288 13.6257 25.5374 13.0106 25.5374ZM13.0106 22.1931C12.3954 22.1931 11.9033 21.6999 11.9033 21.0834C11.9033 20.4669 12.3954 19.9737 13.0106 19.9737C13.6257 19.9737 14.1178 20.4669 14.1178 21.0834C14.1178 21.6999 13.6257 22.1931 13.0106 22.1931ZM13.0106 18.8178C12.3954 18.8178 11.9033 18.3247 11.9033 17.7082C11.9033 17.0917 12.3954 16.5985 13.0106 16.5985C13.6257 16.5985 14.1178 17.0917 14.1178 17.7082C14.1178 18.3247 13.6257 18.8178 13.0106 18.8178Z" fill="#69A2CC"/>
<path d="M16.7176 22.5322H25.2836C27.1752 22.5322 27.1752 19.604 25.2836 19.604H16.7176C14.826 19.5578 14.826 22.5322 16.7176 22.5322Z" fill="#273954"/>
<path d="M15.2253 12.3913V29.7296C15.2253 31.6253 18.1473 31.6253 18.1473 29.7296V12.3913C18.1934 10.511 15.2253 10.511 15.2253 12.3913Z" fill="#273954"/>
<path d="M23.7914 12.3913V29.7296C23.7914 31.6253 26.7134 31.6253 26.7134 29.7296V12.3913C26.7596 10.511 23.7914 10.511 23.7914 12.3913Z" fill="#273954"/>
<path d="M25.6825 13.794L30.2039 13.0542C30.9882 12.9309 31.4342 11.9446 31.2343 11.2356C30.9882 10.4496 30.2039 10.0026 29.4196 10.203L24.8982 10.9428C24.1138 11.0661 23.6678 12.0524 23.8678 12.7614C24.0831 13.5474 24.8982 14.0098 25.6825 13.794Z" fill="#273954"/>
<path d="M10.2119 11.0814C10.0889 13.2236 6.92083 13.2236 6.92083 11.0814C6.92083 8.93911 10.1196 8.93911 10.2119 11.0814C10.2888 12.977 13.2569 12.977 13.1339 11.0814C13.0109 8.61546 11.1654 6.50403 8.56637 6.50403C6.04423 6.50403 3.99884 8.56922 3.99884 11.0814C4.04498 13.5473 5.96734 15.52 8.39721 15.6587C11.0731 15.782 13.0109 13.5935 13.1647 11.0814C13.2569 9.1857 10.3349 9.1857 10.2119 11.0814Z" fill="#273954"/>
<path d="M10.1201 31.4094C9.99705 33.5517 6.829 33.5517 6.829 31.4094C6.829 29.2826 10.0432 29.3134 10.1201 31.4094C10.197 33.3051 13.1651 33.3051 13.0421 31.4094C12.919 28.9436 11.0736 26.8476 8.47454 26.8476C5.96779 26.8013 3.86088 28.8203 3.83012 31.3324C3.78399 33.8445 5.79862 35.9405 8.32076 35.9867C10.9967 36.11 12.9344 33.9678 13.0882 31.4094C13.1651 29.5292 10.2431 29.5292 10.1201 31.4094Z" fill="#273954"/>
<path d="M35.0642 31.209C34.9411 33.3512 31.7731 33.3512 31.7731 31.209C31.7731 29.0667 34.9873 29.0667 35.0642 31.209C35.1411 33.1046 38.1092 33.1046 37.9862 31.209C37.8631 28.7431 35.9715 26.6008 33.4186 26.6008C30.8657 26.6008 28.8511 28.666 28.8511 31.209C28.8511 33.6441 30.7888 35.6476 33.2495 35.7709C35.9254 35.8942 37.8631 33.7057 38.0169 31.209C38.1092 29.2825 35.1872 29.2825 35.0642 31.209Z" fill="#273954"/>
<path d="M35.0642 11.0813C34.9411 13.2236 31.7731 13.2236 31.7731 11.0813C31.7731 8.9391 34.9873 8.9391 35.0642 11.0813C35.1411 12.977 38.1092 12.977 37.9862 11.0813C37.8631 8.61545 36.0177 6.50403 33.4186 6.50403C30.8657 6.50403 28.8511 8.56921 28.8511 11.1122C28.8511 13.5472 30.7888 15.5508 33.2495 15.6895C35.9254 15.8128 37.8631 13.6243 38.0169 11.1122C38.1092 9.18569 35.1872 9.18569 35.0642 11.0813Z" fill="#273954"/>
<path d="M12.5496 32.2416L17.071 31.5018C17.8553 31.3785 18.3013 30.3922 18.1014 29.6832C17.8553 28.8972 17.071 28.4503 16.2867 28.6506L11.7653 29.3904C10.981 29.5137 10.535 30.5 10.7349 31.209C10.9963 31.995 11.7653 32.4419 12.5496 32.2416Z" fill="#273954"/>
<path d="M30.1737 29.1901L25.6523 28.4503C24.868 28.2499 24.0836 28.6969 23.8376 29.483C23.6376 30.1766 24.0836 31.1785 24.868 31.3018L29.3893 32.0416C30.1737 32.242 30.958 31.795 31.2041 31.0089C31.404 30.2999 30.958 29.3135 30.1737 29.1901Z" fill="#273954"/>
<path d="M17.1173 10.9579L12.5959 10.2181C11.8116 10.0178 11.0272 10.4647 10.7812 11.2507C10.5813 11.9442 11.0272 12.946 11.8116 13.0693L16.333 13.8091C17.1173 14.0094 17.9016 13.5625 18.1477 12.7765C18.363 12.0675 17.9016 11.0812 17.1173 10.9579Z" fill="#273954"/>
<path d="M39.0163 21.0373C38.8932 28.5274 34.2796 35.4473 27.1591 38.0057C17.8088 41.4271 7.44338 36.6032 4.02927 27.2636C2.1838 22.1623 2.70669 16.4753 5.50564 11.7901C10.6268 3.22115 21.6996 0.416195 30.2195 5.51752C35.679 8.81566 39.0163 14.703 39.0163 21.0373C39.0624 22.9329 42.0151 22.9329 41.9844 21.0373C41.9844 9.43213 32.6033 0.046311 21.0383 7.54565e-05C9.4734 -0.0307483 0 9.3859 0 21.0064C0 24.7978 1.03039 28.5428 2.96813 31.7947C7.48952 39.2849 16.1786 43.1995 24.7908 41.6737C34.7563 39.9476 41.8767 31.0087 41.9998 21.0064C42.0305 19.1416 39.0624 19.1416 39.0163 21.0373Z" fill="#273954"/>
</svg>
