<svg width="440" height="440" viewBox="0 0 440 440" fill="none" xmlns="http://www.w3.org/2000/svg">
<path d="M220 0C98.4884 0 0 98.3454 0 219.681C0 341.655 98.4884 440 220 440C341.512 440 440 341.655 440 220.319C440 98.984 341.512 0 220 0Z" fill="#4E6589"/>
<mask id="mask0_82_2" style="mask-type:alpha" maskUnits="userSpaceOnUse" x="100" y="100" width="240" height="240">
<circle cx="220" cy="220" r="120" fill="#D9D9D9"/>
</mask>
<g mask="url(#mask0_82_2)">
<g filter="url(#filter0_d_82_2)">
<path d="M102.118 219.826C102.118 154.756 155.101 102 220.488 102C285.867 102 338.857 155.097 338.857 220.174C338.857 285.244 285.875 338 220.488 338C155.105 338 102.118 285.248 102.118 219.826Z" stroke="#EDD47B" stroke-opacity="0.79" stroke-width="4" shape-rendering="crispEdges"/>
</g>
<path d="M225.657 339C225.657 339 251.457 258.213 250.857 216C250.284 175.662 225.657 97 225.657 97" stroke="#EDD47B" stroke-opacity="0.79" stroke-width="4"/>
<path d="M211.782 339C211.782 339 185.982 258.213 186.582 216C187.155 175.662 211.782 97 211.782 97" stroke="#EDD47B" stroke-opacity="0.79" stroke-width="4"/>
<path d="M346 220.056C346 220.056 265.476 214.459 222.057 215.043C180.566 215.6 97.0857 220.056 97.0857 220.056" stroke="#EDD47B" stroke-opacity="0.79" stroke-width="4"/>
<path d="M342.914 241C342.914 241 259.819 262.585 216.4 262.001C174.909 261.444 94 241 94 241" stroke="#EDD47B" stroke-opacity="0.79" stroke-width="4"/>
<path d="M336.229 152.023C336.229 152.023 261.876 127.452 218.457 128.009C176.966 128.542 102.229 152.023 102.229 152.023" stroke="#EDD47B" stroke-opacity="0.79" stroke-width="4"/>
<path d="M339.314 281C339.314 281 264.962 305.571 221.543 305.014C180.052 304.481 105.314 281 105.314 281" stroke="#EDD47B" stroke-opacity="0.79" stroke-width="4"/>
<path d="M264.743 104C264.743 104 304.402 179.287 303.829 221.5C303.281 261.838 264.743 331.5 264.743 331.5" stroke="#EDD47B" stroke-opacity="0.79" stroke-width="4"/>
<path d="M173.206 104C173.206 104 133.547 179.287 134.12 221.5C134.669 261.838 173.206 331.5 173.206 331.5" stroke="#EDD47B" stroke-opacity="0.79" stroke-width="4"/>
</g>
<path d="M184.314 232.33H255.686C271.471 232.33 271.471 208.015 255.686 208.015H184.314C168.529 207.672 168.529 232.33 184.314 232.33Z" fill="#EDD47B"/>
<path d="M171.961 148.083V292.261C171.961 308.015 196.324 308.015 196.324 292.261V148.083C196.667 132.33 171.961 132.33 171.961 148.083Z" fill="#EDD47B"/>
<path d="M243.333 148.083V292.261C243.333 308.015 267.696 308.015 267.696 292.261V148.083C268.039 132.33 243.333 132.33 243.333 148.083Z" fill="#EDD47B"/>
<path d="M259.118 159.727L296.863 153.563C303.382 152.535 307.157 144.316 305.441 138.494C303.382 131.987 296.863 128.22 290.343 129.933L252.598 136.097C246.078 137.124 242.304 145.344 244.02 151.165C245.735 157.672 252.598 161.439 259.118 159.727Z" fill="#EDD47B"/>
<path d="M130.098 137.124C129.069 154.933 102.647 154.933 102.647 137.124C102.647 119.316 129.412 119.316 130.098 137.124C130.784 152.878 155.49 152.878 154.461 137.124C153.431 116.576 137.99 99.1107 116.373 99.1107C95.4412 99.1107 78.2843 116.234 78.2843 137.124C78.6274 157.672 94.7549 174.111 115 175.138C137.304 176.166 153.431 158.015 154.804 137.124C155.49 121.371 131.127 121.371 130.098 137.124Z" fill="#EDD47B"/>
<path d="M129.412 306.303C128.382 324.111 101.961 324.111 101.961 306.303C101.961 288.494 128.726 288.837 129.412 306.303C130.098 322.056 154.804 322.056 153.775 306.303C152.745 285.755 137.304 268.289 115.686 268.289C94.7549 267.946 77.2549 284.727 76.9118 305.618C76.5686 326.508 93.3824 343.974 114.314 344.316C136.618 345.344 152.745 327.535 154.118 306.303C154.804 290.549 130.441 290.549 129.412 306.303Z" fill="#EDD47B"/>
<path d="M337.353 304.59C336.324 322.398 309.902 322.398 309.902 304.59C309.902 286.782 336.667 286.782 337.353 304.59C338.039 320.344 362.745 320.344 361.716 304.59C360.686 284.042 344.902 266.234 323.627 266.234C302.353 266.234 285.539 283.357 285.539 304.59C285.539 324.796 301.667 341.576 322.255 342.604C344.559 343.631 360.686 325.481 362.059 304.59C362.745 288.494 338.382 288.494 337.353 304.59Z" fill="#EDD47B"/>
<path d="M337.353 137.124C336.324 154.933 309.902 154.933 309.902 137.124C309.902 119.316 336.667 119.316 337.353 137.124C338.039 152.878 362.745 152.878 361.716 137.124C360.686 116.576 345.245 99.1107 323.627 99.1107C302.353 99.1107 285.539 116.234 285.539 137.467C285.539 157.672 301.667 174.453 322.255 175.481C344.559 176.508 360.686 158.357 362.059 137.467C362.745 121.371 338.382 121.371 337.353 137.124Z" fill="#EDD47B"/>
<path d="M149.657 313.152L187.402 306.987C193.922 305.96 197.696 297.741 195.98 291.919C193.922 285.412 187.402 281.645 180.882 283.357L143.137 289.522C136.618 290.549 132.843 298.768 134.559 304.59C136.618 311.097 143.137 314.864 149.657 313.152Z" fill="#EDD47B"/>
<path d="M296.52 287.809L258.775 281.645C252.255 279.933 245.735 283.7 243.676 290.207C241.961 296.029 245.735 304.248 252.255 305.275L290 311.439C296.52 313.152 303.039 309.385 305.098 302.878C306.814 297.056 303.039 288.837 296.52 287.809Z" fill="#EDD47B"/>
<path d="M187.745 136.097L150 129.933C143.48 128.22 136.961 131.987 134.902 138.494C133.186 144.316 136.961 152.535 143.48 153.563L181.225 159.727C187.745 161.439 194.265 157.672 196.324 151.165C198.039 145.344 194.265 137.124 187.745 136.097Z" fill="#EDD47B"/>
<path d="M370.294 220.001C369.265 282.33 330.833 339.864 271.471 361.097C193.578 389.522 107.108 349.453 78.6275 271.713C63.1863 229.248 67.6471 181.987 90.9804 142.946C133.529 71.7134 225.833 48.4258 296.863 90.8915C342.5 118.289 370.294 167.261 370.294 220.001C370.637 235.755 395.343 235.755 395 220.001C395 123.426 316.765 45.3436 220.343 45.0011C123.922 44.6587 45 123.083 45 219.659C45 251.166 53.5784 282.33 69.7059 309.385C107.451 371.713 179.853 404.248 251.569 391.576C334.608 377.193 393.971 302.878 395 219.659C395.343 204.248 370.637 204.248 370.294 220.001Z" fill="#EDD47B"/>
<defs>
<filter id="filter0_d_82_2" x="96.1184" y="100" width="248.739" height="248" filterUnits="userSpaceOnUse" color-interpolation-filters="sRGB">
<feFlood flood-opacity="0" result="BackgroundImageFix"/>
<feColorMatrix in="SourceAlpha" type="matrix" values="0 0 0 0 0 0 0 0 0 0 0 0 0 0 0 0 0 0 127 0" result="hardAlpha"/>
<feOffset dy="4"/>
<feGaussianBlur stdDeviation="2"/>
<feComposite in2="hardAlpha" operator="out"/>
<feColorMatrix type="matrix" values="0 0 0 0 0 0 0 0 0 0 0 0 0 0 0 0 0 0 0.25 0"/>
<feBlend mode="normal" in2="BackgroundImageFix" result="effect1_dropShadow_82_2"/>
<feBlend mode="normal" in="SourceGraphic" in2="effect1_dropShadow_82_2" result="shape"/>
</filter>
</defs>
</svg>
