<svg width="337" height="402" viewBox="0 0 337 402" fill="none" xmlns="http://www.w3.org/2000/svg">
<g clip-path="url(#clip0)">
<path d="M166.5 45.6782C115.647 45.6782 74.4296 86.8152 74.4296 137.569C74.4296 188.589 115.647 229.726 166.5 229.726C217.353 229.726 258.571 188.589 258.571 137.836C258.571 87.0823 217.353 45.6782 166.5 45.6782ZM114.577 166.151C110.562 166.151 107.35 162.945 107.35 158.939C107.35 154.932 110.562 151.726 114.577 151.726C118.591 151.726 121.803 154.932 121.803 158.939C121.803 162.945 118.591 166.151 114.577 166.151ZM114.577 144.514C110.562 144.514 107.35 141.308 107.35 137.302C107.35 133.295 110.562 130.089 114.577 130.089C118.591 130.089 121.803 133.295 121.803 137.302C121.803 141.308 118.591 144.514 114.577 144.514ZM114.577 122.61C110.562 122.61 107.35 119.404 107.35 115.397C107.35 111.391 110.562 108.185 114.577 108.185C118.591 108.185 121.803 111.391 121.803 115.397C121.803 119.404 118.591 122.61 114.577 122.61Z" fill="#69A2CC"/>
<path d="M138.665 146.651H194.335C206.647 146.651 206.647 127.685 194.335 127.685H138.665C126.353 127.418 126.353 146.651 138.665 146.651Z" fill="#273954"/>
<path d="M129.029 80.9387V193.398C129.029 205.685 148.032 205.685 148.032 193.398V80.9387C148.3 68.651 129.029 68.651 129.029 80.9387Z" fill="#273954"/>
<path d="M184.7 80.9387V193.398C184.7 205.685 203.703 205.685 203.703 193.398V80.9387C203.971 68.651 184.7 68.651 184.7 80.9387Z" fill="#273954"/>
<path d="M197.012 90.0207L226.453 85.2124C231.538 84.4111 234.482 78.0001 233.144 73.459C231.538 68.3837 226.453 65.4453 221.368 66.7809L191.927 71.5892C186.841 72.3905 183.897 78.8015 185.235 83.3426C186.574 88.4179 191.927 91.3563 197.012 90.0207Z" fill="#273954"/>
<path d="M96.3764 72.3904C95.5734 86.2808 74.9646 86.2808 74.9646 72.3904C74.9646 58.5 95.8411 58.5 96.3764 72.3904C96.9117 84.6781 116.182 84.6781 115.379 72.3904C114.576 56.363 102.532 42.7397 85.6705 42.7397C69.344 42.7397 55.9617 56.0959 55.9617 72.3904C56.2293 88.4178 68.8087 101.24 84.5999 102.041C101.997 102.842 114.576 88.685 115.647 72.3904C116.182 60.1028 97.1793 60.1028 96.3764 72.3904Z" fill="#273954"/>
<path d="M95.8414 204.349C95.0384 218.24 74.4296 218.24 74.4296 204.349C74.4296 190.459 95.3061 190.726 95.8414 204.349C96.3766 216.637 115.647 216.637 114.844 204.349C114.041 188.322 101.997 174.699 85.1355 174.699C68.809 174.431 55.159 187.521 54.8914 203.815C54.6237 220.11 67.7384 233.733 84.0649 234C101.462 234.801 114.041 220.911 115.112 204.349C115.647 192.062 96.6443 192.062 95.8414 204.349Z" fill="#273954"/>
<path d="M258.035 203.014C257.233 216.904 236.624 216.904 236.624 203.014C236.624 189.123 257.5 189.123 258.035 203.014C258.571 215.301 277.841 215.301 277.038 203.014C276.235 186.986 263.924 173.096 247.33 173.096C230.735 173.096 217.621 186.452 217.621 203.014C217.621 218.774 230.2 231.863 246.259 232.664C263.656 233.466 276.235 219.308 277.306 203.014C277.841 190.459 258.838 190.459 258.035 203.014Z" fill="#273954"/>
<path d="M258.035 72.3904C257.233 86.2808 236.624 86.2808 236.624 72.3904C236.624 58.5 257.5 58.5 258.035 72.3904C258.571 84.6781 277.841 84.6781 277.038 72.3904C276.235 56.363 264.191 42.7397 247.33 42.7397C230.735 42.7397 217.621 56.0959 217.621 72.6576C217.621 88.4178 230.2 101.507 246.259 102.308C263.656 103.11 276.235 88.9521 277.306 72.6576C277.841 60.1028 258.838 60.1028 258.035 72.3904Z" fill="#273954"/>
<path d="M111.632 209.692L141.073 204.884C146.159 204.082 149.103 197.672 147.765 193.13C146.159 188.055 141.073 185.117 135.988 186.452L106.547 191.261C101.462 192.062 98.5175 198.473 99.8558 203.014C101.462 208.089 106.547 211.028 111.632 209.692Z" fill="#273954"/>
<path d="M226.185 189.925L196.744 185.117C191.659 183.781 186.573 186.719 184.968 191.795C183.629 196.336 186.573 202.747 191.659 203.548L221.1 208.356C226.185 209.692 231.271 206.754 232.876 201.678C234.215 197.137 231.271 190.726 226.185 189.925Z" fill="#273954"/>
<path d="M141.341 71.5892L111.9 66.7809C106.815 65.4453 101.729 68.3837 100.124 73.459C98.7853 78.0001 101.729 84.4111 106.815 85.2124L136.256 90.0207C141.341 91.3563 146.426 88.4179 148.032 83.3426C149.371 78.8015 146.426 72.3905 141.341 71.5892Z" fill="#273954"/>
<path d="M283.729 137.034C282.926 185.651 252.95 230.527 206.647 247.089C145.891 269.26 78.4441 238.007 56.2294 177.37C44.1853 144.247 47.6647 107.384 65.8647 76.9316C99.0529 21.3699 171.05 3.20555 226.453 36.3288C262.05 57.6987 283.729 95.8973 283.729 137.034C283.997 149.322 303.268 149.322 303 137.034C303 61.7056 241.976 0.801442 166.768 0.534319C91.5588 0.267196 30 61.4384 30 136.767C30 161.343 36.6912 185.651 49.2706 206.753C78.7118 255.37 135.185 280.747 191.124 270.863C255.894 259.644 302.197 201.678 303 136.767C303.268 124.747 283.997 124.747 283.729 137.034Z" fill="#273954"/>
</g>
<path d="M6.60207 313.984H0.362066V346H6.60207V331.744H20.1381V346H26.3781V313.984H20.1381V326.368H6.60207V313.984ZM54.0422 313.264C43.9622 313.264 36.9542 320.272 36.9542 330.016C36.9542 339.76 43.9622 346.72 54.0422 346.72C64.1222 346.72 71.1302 339.76 71.1302 330.016C71.1302 320.272 64.1222 313.264 54.0422 313.264ZM54.0422 341.056C47.8022 341.056 43.3862 336.496 43.3862 330.016C43.3862 323.536 47.8022 318.928 54.0422 318.928C60.2822 318.928 64.6982 323.536 64.6982 330.016C64.6982 336.496 60.2822 341.056 54.0422 341.056ZM101.828 325.696L108.836 346H113.54L125.396 313.984H118.772L111.092 335.776L103.7 313.696H100.244L92.4204 335.776L85.2684 313.984H78.6444L89.7804 346H94.4844L101.828 325.696ZM133.918 313.984V346H142.174C146.638 346 150.142 345.568 153.886 342.928C158.11 339.952 160.318 335.344 160.318 330.016C160.318 324.688 158.062 320.032 154.174 317.104C150.622 314.464 146.734 313.984 142.27 313.984H133.918ZM140.158 319.36H142.078C144.19 319.36 147.358 319.552 149.95 321.472C152.494 323.392 153.886 326.656 153.886 330.016C153.886 333.424 152.446 336.688 149.902 338.512C147.118 340.528 143.662 340.624 142.078 340.624H140.158V319.36ZM175.638 346H181.878V331.36L193.158 313.984H185.766L178.902 325.12L172.038 313.984H164.646L175.638 331.36V346ZM207.743 313.984H201.503V346H207.743V331.744H221.279V346H227.519V313.984H221.279V326.368H207.743V313.984ZM261.423 346H268.143L254.751 313.984H249.855L236.079 346H242.847L245.679 339.28H258.591L261.423 346ZM247.647 334.192L252.207 322.672L256.767 334.192H247.647ZM298.882 337.552C297.01 339.76 294.37 341.056 291.394 341.056C286.018 341.056 280.546 337.216 280.546 330.112C280.546 324.208 284.722 318.928 291.154 318.928C292.306 318.928 295.954 319.168 298.882 322.528V315.232C295.954 313.648 293.266 313.264 291.01 313.264C286.45 313.264 282.466 314.464 279.25 317.488C276.514 320.032 274.114 324.208 274.114 330.016C274.114 334.72 275.554 338.704 279.25 342.256C281.938 344.8 285.346 346.72 290.962 346.72C294.418 346.72 296.962 345.856 298.882 344.848V337.552ZM315.658 313.984H309.418V346H315.658V332.368L316.378 331.648L327.754 346H336.01L321.754 328.768L335.29 313.984H327.418L315.658 327.52V313.984Z" fill="#273954"/>
<path d="M97.8045 391.424L97.8525 391.472C98.1085 391.28 98.4685 391.128 98.9325 391.016C99.3965 390.904 99.8445 390.848 100.276 390.848C101.012 390.848 101.692 390.976 102.316 391.232C102.956 391.488 103.508 391.848 103.972 392.312C104.436 392.76 104.796 393.312 105.052 393.968C105.324 394.608 105.46 395.312 105.46 396.08C105.46 396.88 105.324 397.608 105.052 398.264C104.78 398.92 104.396 399.48 103.9 399.944C103.404 400.408 102.82 400.768 102.148 401.024C101.476 401.296 100.74 401.432 99.9405 401.432C99.1405 401.432 98.4045 401.296 97.7325 401.024C97.0605 400.768 96.4765 400.408 95.9805 399.944C95.4845 399.48 95.1005 398.92 94.8285 398.264C94.5565 397.608 94.4205 396.88 94.4205 396.08C94.4205 395.2 94.5725 394.384 94.8765 393.632C95.1805 392.88 95.5405 392.16 95.9565 391.472L100.588 384.008H102.58L97.8045 391.424ZM96.1485 396.08C96.1485 396.64 96.2365 397.16 96.4125 397.64C96.6045 398.104 96.8685 398.512 97.2045 398.864C97.5405 399.2 97.9405 399.472 98.4045 399.68C98.8685 399.872 99.3805 399.968 99.9405 399.968C100.5 399.968 101.012 399.872 101.476 399.68C101.94 399.472 102.34 399.2 102.676 398.864C103.012 398.512 103.268 398.104 103.444 397.64C103.636 397.16 103.732 396.64 103.732 396.08C103.732 395.536 103.644 395.032 103.468 394.568C103.292 394.088 103.036 393.68 102.7 393.344C102.38 392.992 101.98 392.72 101.5 392.528C101.036 392.336 100.516 392.24 99.9405 392.24C99.3645 392.24 98.8365 392.336 98.3565 392.528C97.8925 392.72 97.4925 392.992 97.1565 393.344C96.8365 393.68 96.5885 394.088 96.4125 394.568C96.2365 395.032 96.1485 395.536 96.1485 396.08ZM113.43 395.864H108.054V394.496H113.43V395.864ZM126.542 385.592L119.702 401H117.758L124.79 385.544H116.462V384.008H126.542V385.592ZM145 386.744C144.632 386.232 144.16 385.824 143.584 385.52C143.008 385.2 142.312 385.04 141.496 385.04C141.08 385.04 140.656 385.104 140.224 385.232C139.792 385.36 139.4 385.56 139.048 385.832C138.696 386.088 138.408 386.416 138.184 386.816C137.976 387.216 137.872 387.688 137.872 388.232C137.872 388.776 137.976 389.224 138.184 389.576C138.392 389.928 138.664 390.232 139 390.488C139.352 390.728 139.744 390.928 140.176 391.088C140.624 391.248 141.088 391.408 141.568 391.568C142.16 391.76 142.752 391.968 143.344 392.192C143.952 392.416 144.496 392.712 144.976 393.08C145.456 393.432 145.848 393.888 146.152 394.448C146.456 394.992 146.608 395.688 146.608 396.536C146.608 397.384 146.44 398.12 146.104 398.744C145.784 399.352 145.36 399.856 144.832 400.256C144.32 400.656 143.728 400.952 143.056 401.144C142.4 401.336 141.736 401.432 141.064 401.432C140.552 401.432 140.04 401.376 139.528 401.264C139.016 401.168 138.528 401.016 138.064 400.808C137.6 400.6 137.168 400.336 136.768 400.016C136.368 399.696 136.016 399.328 135.712 398.912L137.2 397.808C137.568 398.416 138.08 398.928 138.736 399.344C139.408 399.744 140.192 399.944 141.088 399.944C141.52 399.944 141.96 399.88 142.408 399.752C142.856 399.608 143.256 399.4 143.608 399.128C143.976 398.84 144.272 398.496 144.496 398.096C144.736 397.68 144.856 397.2 144.856 396.656C144.856 396.064 144.736 395.576 144.496 395.192C144.272 394.792 143.968 394.464 143.584 394.208C143.2 393.936 142.76 393.712 142.264 393.536C141.768 393.36 141.248 393.184 140.704 393.008C140.144 392.832 139.592 392.632 139.048 392.408C138.504 392.184 138.016 391.896 137.584 391.544C137.152 391.176 136.8 390.728 136.528 390.2C136.272 389.672 136.144 389.024 136.144 388.256C136.144 387.44 136.304 386.736 136.624 386.144C136.96 385.552 137.392 385.064 137.92 384.68C138.448 384.296 139.032 384.016 139.672 383.84C140.312 383.664 140.944 383.576 141.568 383.576C142.72 383.576 143.704 383.784 144.52 384.2C145.336 384.6 145.952 385.08 146.368 385.64L145 386.744ZM152.043 399.464H161.139V401H150.315V384.008H160.851V385.544H152.043V391.4H160.275V392.912H152.043V399.464ZM164.518 384.008H169.318C170.182 384.008 170.966 384.104 171.67 384.296C172.374 384.472 172.974 384.752 173.47 385.136C173.982 385.504 174.374 385.976 174.646 386.552C174.918 387.112 175.054 387.776 175.054 388.544C175.054 389.312 174.91 389.984 174.622 390.56C174.35 391.12 173.958 391.592 173.446 391.976C172.95 392.344 172.342 392.624 171.622 392.816C170.918 393.008 170.134 393.104 169.27 393.104H166.246V401H164.518V384.008ZM166.246 391.64H169.174C170.534 391.64 171.566 391.376 172.27 390.848C172.974 390.32 173.326 389.552 173.326 388.544C173.326 387.488 172.958 386.72 172.222 386.24C171.502 385.744 170.486 385.496 169.174 385.496H166.246V391.64ZM183.747 401H182.019V385.544H176.331V384.008H189.435V385.544H183.747V401ZM193.714 399.464H202.81V401H191.986V384.008H202.522V385.544H193.714V391.4H201.946V392.912H193.714V399.464ZM214.59 398.072H214.614L220.302 384.008H222.942V401H221.214V386.24H221.166L215.022 401H214.11L207.966 386.24H207.918V401H206.19V384.008H208.83L214.59 398.072ZM227.447 384.008H232.511C233.151 384.008 233.799 384.08 234.455 384.224C235.111 384.352 235.695 384.584 236.207 384.92C236.735 385.24 237.159 385.68 237.479 386.24C237.815 386.8 237.983 387.504 237.983 388.352C237.983 389.248 237.711 390.032 237.167 390.704C236.623 391.36 235.895 391.792 234.983 392V392.048C236.087 392.176 236.999 392.608 237.719 393.344C238.455 394.064 238.823 395.048 238.823 396.296C238.823 397 238.671 397.648 238.367 398.24C238.079 398.816 237.663 399.312 237.119 399.728C236.575 400.128 235.911 400.44 235.127 400.664C234.343 400.888 233.463 401 232.487 401H227.447V384.008ZM229.175 391.448H232.655C233.071 391.448 233.487 391.4 233.903 391.304C234.335 391.208 234.727 391.048 235.079 390.824C235.431 390.584 235.711 390.272 235.919 389.888C236.143 389.504 236.255 389.032 236.255 388.472C236.255 387.928 236.143 387.472 235.919 387.104C235.711 386.72 235.423 386.408 235.055 386.168C234.687 385.928 234.255 385.76 233.759 385.664C233.263 385.552 232.735 385.496 232.175 385.496H229.175V391.448ZM229.175 399.512H232.391C233.015 399.512 233.607 399.456 234.167 399.344C234.743 399.216 235.239 399.024 235.655 398.768C236.087 398.496 236.431 398.152 236.687 397.736C236.943 397.304 237.071 396.792 237.071 396.2C237.071 395.08 236.687 394.248 235.919 393.704C235.167 393.144 234.095 392.864 232.703 392.864H229.175V399.512ZM244.433 399.464H253.529V401H242.705V384.008H253.241V385.544H244.433V391.4H252.665V392.912H244.433V399.464ZM258.636 401H256.908V384.008H261.9C262.732 384.008 263.5 384.088 264.204 384.248C264.924 384.408 265.54 384.672 266.052 385.04C266.58 385.392 266.988 385.856 267.276 386.432C267.564 387.008 267.708 387.712 267.708 388.544C267.708 389.168 267.596 389.736 267.372 390.248C267.148 390.76 266.844 391.208 266.46 391.592C266.076 391.96 265.62 392.256 265.092 392.48C264.564 392.704 263.988 392.848 263.364 392.912L268.332 401H266.22L261.516 393.056H258.636V401ZM258.636 391.568H261.636C263.028 391.568 264.1 391.32 264.852 390.824C265.604 390.312 265.98 389.552 265.98 388.544C265.98 387.984 265.876 387.512 265.668 387.128C265.46 386.744 265.172 386.432 264.804 386.192C264.436 385.952 263.988 385.776 263.46 385.664C262.932 385.552 262.348 385.496 261.708 385.496H258.636V391.568Z" fill="#273954"/>
<defs>
<clipPath id="clip0">
<rect width="273" height="273" fill="white" transform="translate(30)"/>
</clipPath>
</defs>
</svg>
