<svg width="37" height="22" viewBox="0 0 37 22" fill="none" xmlns="http://www.w3.org/2000/svg">
<path fill-rule="evenodd" clip-rule="evenodd" d="M9.01994 7.28744C9.33598 -1.74212 22.0676 -2.50963 24.1896 5.70726C26.7179 5.52667 29.1559 6.92625 29.8782 9.40938C39.901 9.18364 37.2825 23.7664 26.2664 19.7031C23.1963 22.8183 16.5145 22.6377 13.1284 19.9288C-3.03452 25.8432 -4.11806 6.9714 9.01994 7.28744ZM25.9052 18.3035C23.7833 21.4187 16.6048 21.9153 13.3993 18.6195C-2.13156 24.7596 -2.53789 6.9714 10.2389 8.55157C9.24568 -0.794015 22.3837 -1.24549 23.2866 7.01655C26.8985 6.11359 28.9753 8.77731 28.9301 10.6284C38.3209 9.27394 36.2892 22.9086 25.9052 18.3035Z" fill="#273954" fill-opacity="0.3"/>
</svg>
