<svg width="70" height="70" viewBox="0 0 70 70" fill="none" xmlns="http://www.w3.org/2000/svg">
<g clip-path="url(#clip0)">
<path d="M34.9999 11.7123C21.9607 11.7123 11.3921 22.2603 11.3921 35.274C11.3921 48.3562 21.9607 58.9041 34.9999 58.9041C48.0392 58.9041 58.6078 48.3562 58.6078 35.3425C58.6078 22.3288 48.0392 11.7123 34.9999 11.7123ZM21.6862 42.6028C20.6568 42.6028 19.8333 41.7808 19.8333 40.7534C19.8333 39.726 20.6568 38.9041 21.6862 38.9041C22.7156 38.9041 23.5391 39.726 23.5391 40.7534C23.5391 41.7808 22.7156 42.6028 21.6862 42.6028ZM21.6862 37.0548C20.6568 37.0548 19.8333 36.2329 19.8333 35.2055C19.8333 34.1781 20.6568 33.3562 21.6862 33.3562C22.7156 33.3562 23.5391 34.1781 23.5391 35.2055C23.5391 36.2329 22.7156 37.0548 21.6862 37.0548ZM21.6862 31.4384C20.6568 31.4384 19.8333 30.6165 19.8333 29.5891C19.8333 28.5617 20.6568 27.7397 21.6862 27.7397C22.7156 27.7397 23.5391 28.5617 23.5391 29.5891C23.5391 30.6165 22.7156 31.4384 21.6862 31.4384Z" fill="#797979"/>
<path d="M27.8628 37.6028H42.1373C45.2941 37.6028 45.2941 32.7398 42.1373 32.7398H27.8628C24.7059 32.6713 24.7059 37.6028 27.8628 37.6028Z" fill="#333333"/>
<path d="M25.3922 20.7535V49.5891C25.3922 52.7398 30.2648 52.7398 30.2648 49.5891V20.7535C30.3334 17.6028 25.3922 17.6028 25.3922 20.7535Z" fill="#333333"/>
<path d="M39.6667 20.7535V49.5891C39.6667 52.7398 44.5393 52.7398 44.5393 49.5891V20.7535C44.6079 17.6028 39.6667 17.6028 39.6667 20.7535Z" fill="#333333"/>
<path d="M42.8236 23.0822L50.3726 21.8493C51.6765 21.6439 52.4314 20 52.0883 18.8356C51.6765 17.5343 50.3726 16.7809 49.0687 17.1233L41.5197 18.3562C40.2157 18.5617 39.4608 20.2055 39.804 21.3699C40.1471 22.6713 41.5197 23.4247 42.8236 23.0822Z" fill="#333333"/>
<path d="M17.0196 18.5617C16.8137 22.1233 11.5294 22.1233 11.5294 18.5617C11.5294 15 16.8824 15 17.0196 18.5617C17.1569 21.7123 22.098 21.7123 21.8922 18.5617C21.6863 14.4521 18.598 10.9589 14.2745 10.9589C10.0882 10.9589 6.65686 14.3836 6.65686 18.5617C6.72549 22.6713 9.95098 25.9589 14 26.1644C18.4608 26.3699 21.6863 22.7397 21.9608 18.5617C22.098 15.411 17.2255 15.411 17.0196 18.5617Z" fill="#333333"/>
<path d="M16.8824 52.3973C16.6765 55.9589 11.3922 55.9589 11.3922 52.3973C11.3922 48.8356 16.7451 48.9041 16.8824 52.3973C17.0196 55.548 21.9608 55.548 21.7549 52.3973C21.549 48.2877 18.4608 44.7945 14.1373 44.7945C9.95101 44.7261 6.45101 48.0822 6.38238 52.2603C6.31375 56.4384 9.6765 59.9315 13.8628 60C18.3236 60.2055 21.549 56.6439 21.8236 52.3973C21.9608 49.2466 17.0883 49.2466 16.8824 52.3973Z" fill="#333333"/>
<path d="M58.4705 52.0548C58.2646 55.6164 52.9803 55.6164 52.9803 52.0548C52.9803 48.4931 58.3333 48.4931 58.4705 52.0548C58.6078 55.2055 63.549 55.2055 63.3431 52.0548C63.1372 47.9452 59.9803 44.3835 55.7254 44.3835C51.4705 44.3835 48.1078 47.8082 48.1078 52.0548C48.1078 56.0959 51.3333 59.452 55.4509 59.6575C59.9117 59.863 63.1372 56.2329 63.4117 52.0548C63.549 48.8356 58.6764 48.8356 58.4705 52.0548Z" fill="#333333"/>
<path d="M58.4705 18.5617C58.2646 22.1233 52.9803 22.1233 52.9803 18.5617C52.9803 15 58.3333 15 58.4705 18.5617C58.6078 21.7123 63.549 21.7123 63.3431 18.5617C63.1372 14.4521 60.049 10.9589 55.7254 10.9589C51.4705 10.9589 48.1078 14.3836 48.1078 18.6302C48.1078 22.6713 51.3333 26.0274 55.4509 26.2329C59.9117 26.4384 63.1372 22.8082 63.4117 18.6302C63.549 15.411 58.6764 15.411 58.4705 18.5617Z" fill="#333333"/>
<path d="M20.9314 53.7672L28.4804 52.5343C29.7843 52.3288 30.5392 50.685 30.1961 49.5206C29.7843 48.2192 28.4804 47.4658 27.1765 47.8083L19.6274 49.0411C18.3235 49.2466 17.5686 50.8904 17.9118 52.0548C18.3235 53.3562 19.6274 54.1096 20.9314 53.7672Z" fill="#333333"/>
<path d="M50.3039 48.6987L42.7548 47.4658C41.4509 47.1233 40.147 47.8767 39.7352 49.1781C39.3921 50.3425 40.147 51.9863 41.4509 52.1918L48.9999 53.4247C50.3039 53.7672 51.6078 53.0137 52.0196 51.7124C52.3627 50.548 51.6078 48.9041 50.3039 48.6987Z" fill="#333333"/>
<path d="M28.549 18.3562L21 17.1233C19.696 16.7809 18.3921 17.5343 17.9804 18.8356C17.6372 20 18.3921 21.6439 19.696 21.8493L27.2451 23.0822C28.549 23.4247 29.8529 22.6713 30.2647 21.3699C30.6078 20.2055 29.8529 18.5617 28.549 18.3562Z" fill="#333333"/>
<path d="M65.0588 35.137C64.8529 47.6028 57.1667 59.1096 45.2941 63.3562C29.7157 69.0411 12.4216 61.0274 6.72549 45.4795C3.63726 36.9863 4.52941 27.5343 9.19608 19.726C17.7059 5.47947 36.1667 0.821935 50.3726 9.31509C59.5 14.7945 65.0588 24.5891 65.0588 35.137C65.1275 38.2877 70.0686 38.2877 70 35.137C70 15.8219 54.3529 0.205496 35.0686 0.137003C15.7843 0.0685101 0 15.7534 0 35.0685C0 41.3699 1.71569 47.6028 4.94118 53.0137C12.4902 65.4795 26.9706 71.9863 41.3137 69.4521C57.9216 66.5754 69.7941 51.7124 70 35.0685C70.0686 31.9863 65.1275 31.9863 65.0588 35.137Z" fill="#333333"/>
</g>
<defs>
<clipPath id="clip0">
<rect width="70" height="70" fill="white"/>
</clipPath>
</defs>
</svg>
