<svg width="77" height="57" viewBox="0 0 77 57" fill="none" xmlns="http://www.w3.org/2000/svg">
<path d="M67.6983 5.23865C67.7673 5.34821 67.8137 5.47006 67.8348 5.59721C67.8558 5.72436 67.8511 5.85434 67.821 5.97971C67.7908 6.10509 67.7357 6.2234 67.659 6.3279C67.5822 6.4324 67.4851 6.52105 67.3734 6.58876L66.9481 6.84663C66.8363 6.91436 66.7121 6.95984 66.5825 6.98048C66.4529 7.00112 66.3204 6.99652 66.1925 6.96693C66.0647 6.93734 65.9441 6.88334 65.8376 6.80803C65.731 6.73272 65.6407 6.63755 65.5716 6.52798C65.5026 6.41841 65.4562 6.29657 65.4352 6.16942C65.4141 6.04227 65.4188 5.9123 65.449 5.78693C65.4791 5.66156 65.5342 5.54325 65.611 5.43875C65.6878 5.33424 65.7848 5.2456 65.8965 5.17787L66.3218 4.92C66.4335 4.85212 66.5577 4.80652 66.6874 4.7858C66.817 4.76508 66.9496 4.76965 67.0774 4.79925C67.2053 4.82885 67.3259 4.8829 67.4325 4.95829C67.539 5.03369 67.6293 5.12896 67.6983 5.23865ZM27.4208 28.4971L26.6021 28.9933C26.4904 29.061 26.3934 29.1497 26.3166 29.2542C26.2398 29.3587 26.1848 29.477 26.1546 29.6024C26.1244 29.7277 26.1197 29.8577 26.1408 29.9848C26.1618 30.112 26.2082 30.2338 26.2772 30.3434C26.3463 30.453 26.4367 30.5481 26.5432 30.6235C26.6497 30.6988 26.7704 30.7528 26.8982 30.7824C27.026 30.8119 27.1585 30.8165 27.2881 30.7959C27.4178 30.7753 27.542 30.7298 27.6537 30.6621L28.4724 30.1659C28.5841 30.0982 28.6811 30.0095 28.7579 29.905C28.8347 29.8005 28.8897 29.6822 28.9199 29.5569C28.95 29.4315 28.9547 29.3015 28.9337 29.1744C28.9127 29.0472 28.8663 28.9254 28.7972 28.8158C28.7282 28.7062 28.6378 28.6111 28.5313 28.5358C28.4247 28.4604 28.3041 28.4064 28.1763 28.3769C28.0485 28.3473 27.916 28.3427 27.7864 28.3633C27.6567 28.3839 27.5325 28.4294 27.4208 28.4971ZM22.5086 31.474L22.0833 31.7319C21.9716 31.7996 21.8746 31.8882 21.7978 31.9927C21.721 32.0972 21.6659 32.2156 21.6358 32.3409C21.6056 32.4663 21.6009 32.5963 21.622 32.7234C21.643 32.8506 21.6894 32.9724 21.7584 33.082C21.8275 33.1916 21.9178 33.2867 22.0244 33.362C22.1309 33.4373 22.2515 33.4913 22.3794 33.5209C22.5072 33.5505 22.6397 33.5551 22.7693 33.5345C22.8989 33.5138 23.0231 33.4684 23.1349 33.4006L23.5602 33.1428C23.7858 33.006 23.9468 32.7869 24.0077 32.5337C24.0686 32.2805 24.0245 32.0139 23.8851 31.7926C23.7456 31.5714 23.5223 31.4135 23.2641 31.3537C23.006 31.2939 22.7342 31.3372 22.5086 31.474ZM32.3325 25.5204L31.5138 26.0166C31.4021 26.0843 31.3051 26.173 31.2283 26.2775C31.1515 26.382 31.0964 26.5003 31.0663 26.6257C31.0361 26.751 31.0314 26.881 31.0525 27.0081C31.0735 27.1353 31.1199 27.2571 31.1889 27.3667C31.258 27.4763 31.3483 27.5714 31.4549 27.6467C31.5614 27.7221 31.682 27.7761 31.8099 27.8056C31.9377 27.8352 32.0702 27.8398 32.1998 27.8192C32.3294 27.7986 32.4537 27.7531 32.5654 27.6853L33.384 27.1892C33.4958 27.1215 33.5928 27.0328 33.6696 26.9283C33.7463 26.8238 33.8014 26.7055 33.8316 26.5801C33.8617 26.4548 33.8664 26.3248 33.8454 26.1977C33.8243 26.0705 33.778 25.9487 33.7089 25.8391C33.6399 25.7295 33.5495 25.6344 33.443 25.559C33.3364 25.4837 33.2158 25.4297 33.088 25.4001C32.9602 25.3706 32.8277 25.366 32.698 25.3866C32.5684 25.4072 32.4442 25.4527 32.3325 25.5204ZM56.892 10.6356L56.0733 11.1317C55.9616 11.1995 55.8646 11.2881 55.7878 11.3926C55.711 11.4971 55.6559 11.6154 55.6258 11.7408C55.5956 11.8662 55.5909 11.9961 55.612 12.1233C55.633 12.2504 55.6794 12.3723 55.7484 12.4819C55.8175 12.5914 55.9078 12.6866 56.0144 12.7619C56.1209 12.8372 56.2415 12.8912 56.3694 12.9208C56.4972 12.9504 56.6297 12.955 56.7593 12.9344C56.8889 12.9137 57.0132 12.8682 57.1249 12.8005L57.9436 12.3044C58.1692 12.1676 58.3301 11.9485 58.3911 11.6953C58.452 11.4421 58.4079 11.1755 58.2684 10.9542C58.129 10.733 57.9056 10.5751 57.6475 10.5153C57.3893 10.4556 57.1176 10.4988 56.892 10.6356ZM51.9799 13.6129L51.1612 14.1091C51.0495 14.1768 50.9525 14.2654 50.8757 14.3699C50.7989 14.4744 50.7439 14.5927 50.7137 14.7181C50.6836 14.8435 50.6789 14.9734 50.6999 15.1006C50.7209 15.2277 50.7673 15.3496 50.8364 15.4592C50.9054 15.5687 50.9958 15.6639 51.1023 15.7392C51.2089 15.8145 51.3295 15.8685 51.4573 15.8981C51.7154 15.9579 51.9872 15.9146 52.2128 15.7778L53.0315 15.2817C53.1432 15.2139 53.2402 15.1253 53.317 15.0208C53.3938 14.9163 53.4488 14.798 53.479 14.6726C53.5092 14.5472 53.5139 14.4173 53.4928 14.2901C53.4718 14.163 53.4254 14.0411 53.3564 13.9316C53.2873 13.822 53.197 13.7268 53.0904 13.6515C52.9839 13.5762 52.8632 13.5222 52.7354 13.4926C52.6076 13.463 52.4751 13.4584 52.3455 13.4791C52.2159 13.4997 52.0916 13.5452 51.9799 13.6129ZM76.6083 7.69501C76.2923 9.08739 75.4335 10.3033 74.2156 11.0827L55.3675 23.2176L56.4092 48.2148C56.4151 48.3571 56.3893 48.499 56.3338 48.6305C56.2782 48.7621 56.1941 48.8803 56.0874 48.9768L47.8615 56.4039C47.7344 56.5187 47.5791 56.5992 47.4108 56.6376C47.2425 56.676 47.0669 56.6709 46.9011 56.623C46.7354 56.575 46.5852 56.4858 46.4651 56.3639C46.3449 56.2421 46.2591 56.0918 46.2158 55.9277L39.9991 32.3555L26.0785 39.9881C25.5899 40.2575 25.0698 40.4677 24.5295 40.6141C23.532 40.8843 22.4861 40.9356 21.4662 40.7642C20.4463 40.5928 19.4775 40.2029 18.6287 39.6224L11.0805 34.4278L11.079 34.4264L11.078 34.426L0.550917 27.1405C0.402921 27.0381 0.286054 26.8982 0.212794 26.7357C0.139534 26.5733 0.112632 26.3943 0.134959 26.2181C0.157287 26.0418 0.228007 25.8747 0.339567 25.7348C0.451127 25.5948 0.599338 25.4872 0.76838 25.4235L9.26231 22.2193C9.48623 22.1335 9.73436 22.1308 9.9602 22.2116L21.8055 26.3949L30.1347 21.4054L22.0333 14.771C21.8981 14.6603 21.7952 14.5166 21.7348 14.3543C21.6744 14.1921 21.6588 14.0171 21.6895 13.847C21.7202 13.677 21.7961 13.5179 21.9096 13.3858C22.0231 13.2538 22.1701 13.1535 22.3358 13.095L31.0105 10.0327C31.256 9.94792 31.5254 9.95869 31.7631 10.0628L41.5554 14.432C41.5906 14.4537 41.6242 14.4776 41.6562 14.5036L63.5946 1.3615C64.6322 0.74299 65.8457 0.469732 67.0544 0.582421L71.6879 1.02416C72.478 1.09948 73.2427 1.33875 73.9314 1.72611C74.6201 2.11347 75.2168 2.64005 75.6822 3.27092C76.1475 3.90178 76.4707 4.6225 76.6304 5.38524C76.7901 6.14799 76.7825 6.93533 76.6083 7.69501ZM31.9372 20.3255L39.6196 15.7235L31.305 12.0134L24.6539 14.3614L31.9372 20.3255ZM11.6853 32.4454L19.4273 27.6403L9.63308 24.1813L3.23272 26.5956L11.6853 32.4454ZM74.062 4.42094C73.7628 4.01547 73.3791 3.67703 72.9364 3.42805C72.4937 3.17907 72.0021 3.02524 71.4942 2.97677L66.8608 2.53502C66.0838 2.463 65.3038 2.63865 64.6367 3.03589L13.4782 33.6817L19.7772 38.0168C20.5502 38.5458 21.4594 38.8508 22.4008 38.8968C23.3422 38.9428 24.2778 38.728 25.1006 38.277L39.4813 30.3923L38.85 27.9986C38.7879 27.7469 38.8282 27.4814 38.9622 27.2583C39.0962 27.0352 39.3135 26.872 39.568 26.8033C39.8248 26.7383 40.0974 26.7759 40.3259 26.908C40.5545 27.0401 40.7202 27.2557 40.7866 27.5076L47.7345 53.8521L54.3918 47.8414L53.2554 20.5744L48.8564 23.3048C48.6323 23.4432 48.3614 23.4888 48.1031 23.4315C47.8447 23.3742 47.6201 23.2188 47.4785 22.9993C47.3369 22.7798 47.2897 22.5142 47.3475 22.2606C47.4053 22.0071 47.5632 21.7864 47.7866 21.647L53.6492 18.0086C53.7976 17.9165 53.968 17.8644 54.1433 17.8574C54.3187 17.8504 54.4929 17.8888 54.6484 17.9687C54.8038 18.0486 54.9351 18.1672 55.029 18.3127C55.1229 18.4581 55.1762 18.6253 55.1834 18.7973L55.2723 20.932L73.1188 9.44211C73.5258 9.18057 73.8745 8.84077 74.1438 8.44327C74.4131 8.04577 74.5974 7.59883 74.6856 7.12946C74.7737 6.6601 74.7639 6.17807 74.6568 5.71253C74.5496 5.24698 74.3473 4.8076 74.062 4.42094ZM61.8036 7.65892L60.985 8.15506C60.8732 8.22279 60.7762 8.31143 60.6995 8.41593C60.6227 8.52044 60.5676 8.63875 60.5375 8.76412C60.5073 8.88949 60.5026 9.01946 60.5236 9.14661C60.5447 9.27376 60.591 9.3956 60.6601 9.50518C60.7291 9.61475 60.8195 9.70991 60.9261 9.78522C61.0326 9.86054 61.1532 9.91453 61.281 9.94412C61.4089 9.97371 61.5414 9.97832 61.671 9.95768C61.8006 9.93704 61.9248 9.89156 62.0365 9.82383L62.8552 9.32769C62.967 9.25996 63.064 9.17132 63.1407 9.06681C63.2175 8.96231 63.2726 8.844 63.3027 8.71863C63.3329 8.59326 63.3376 8.46328 63.3166 8.33613C63.2955 8.20898 63.2491 8.08714 63.1801 7.97757C63.1111 7.868 63.0207 7.77284 62.9141 7.69752C62.8076 7.62221 62.687 7.56822 62.5592 7.53863C62.4313 7.50904 62.2988 7.50443 62.1692 7.52507C62.0396 7.54571 61.9154 7.5912 61.8036 7.65892ZM47.0683 16.5896L46.2496 17.0857C46.024 17.2225 45.8631 17.4416 45.8021 17.6948C45.7412 17.948 45.7853 18.2146 45.9248 18.4358C46.0642 18.6571 46.2876 18.815 46.5457 18.8748C46.8039 18.9346 47.0756 18.8913 47.3012 18.7545L48.1199 18.2584C48.3455 18.1216 48.5065 17.9025 48.5674 17.6493C48.6283 17.3961 48.5842 17.1295 48.4448 16.9082C48.3053 16.687 48.082 16.5291 47.8238 16.4693C47.5657 16.4095 47.2939 16.4528 47.0683 16.5896ZM37.2445 22.5431L36.4258 23.0393C36.2002 23.1761 36.0392 23.3952 35.9783 23.6483C35.9174 23.9015 35.9615 24.1681 36.1009 24.3894C36.2404 24.6107 36.4637 24.7686 36.7219 24.8283C36.98 24.8881 37.2518 24.8448 37.4774 24.708L38.2961 24.2119C38.5217 24.0751 38.6826 23.856 38.7436 23.6029C38.8045 23.3497 38.7604 23.0831 38.6209 22.8618C38.4815 22.6405 38.2581 22.4826 38 22.4229C37.7418 22.3631 37.4701 22.4064 37.2445 22.5431ZM42.1562 19.5664L41.3375 20.0626C41.2257 20.1303 41.1287 20.219 41.0519 20.3235C40.9752 20.428 40.9201 20.5463 40.89 20.6716C40.8598 20.797 40.8551 20.927 40.8761 21.0541C40.8972 21.1813 40.9435 21.3031 41.0126 21.4127C41.0816 21.5223 41.172 21.6174 41.2786 21.6927C41.3851 21.768 41.5057 21.822 41.6335 21.8516C41.8917 21.9114 42.1634 21.8681 42.389 21.7313L43.2077 21.2352C43.4333 21.0984 43.5943 20.8793 43.6552 20.6261C43.7162 20.3729 43.672 20.1064 43.5326 19.8851C43.3931 19.6638 43.1698 19.5059 42.9117 19.4461C42.6535 19.3864 42.3818 19.4297 42.1562 19.5664Z" fill="#FF7C93"/>
</svg>
