<svg width="26" height="26" viewBox="0 0 26 26" fill="none" xmlns="http://www.w3.org/2000/svg">
<path d="M13.7725 13.1066C14.0374 13.1063 14.2913 13.0009 14.4785 12.8135L23.8822 3.40984V8.27152C23.8822 8.53646 23.9874 8.79055 24.1747 8.9779C24.3621 9.16524 24.6162 9.27049 24.8811 9.27049C25.1461 9.27049 25.4002 9.16524 25.5875 8.9779C25.7749 8.79055 25.8801 8.53646 25.8801 8.27152V0.998975C25.8801 0.734031 25.7749 0.479937 25.5875 0.292593C25.4002 0.105249 25.1461 0 24.8811 0H17.6086C17.3436 0 17.0895 0.105249 16.9022 0.292593C16.7149 0.479937 16.6096 0.734031 16.6096 0.998975C16.6096 1.26392 16.7149 1.51801 16.9022 1.70536C17.0895 1.8927 17.3436 1.99795 17.6086 1.99795H22.4703L13 11.4016C12.8604 11.5413 12.7654 11.7193 12.727 11.9129C12.6885 12.1066 12.7083 12.3073 12.7838 12.4898C12.8594 12.6722 12.9873 12.8281 13.1514 12.9379C13.3155 13.0477 13.5085 13.1064 13.7059 13.1066H13.7725Z" fill="#3782F2"/>
<path d="M24.9877 14.0656C24.7228 14.0656 24.4687 14.1708 24.2813 14.3582C24.094 14.5455 23.9887 14.7996 23.9887 15.0645V23.3227C23.9887 23.4958 23.92 23.6618 23.7976 23.7842C23.6752 23.9066 23.5092 23.9754 23.3361 23.9754H2.66393C2.49084 23.9754 2.32483 23.9066 2.20243 23.7842C2.08003 23.6618 2.01127 23.4958 2.01127 23.3227V2.65061C2.01127 2.47752 2.08003 2.31151 2.20243 2.18911C2.32483 2.06671 2.49084 1.99795 2.66393 1.99795H10.4826C10.7475 1.99795 11.0016 1.8927 11.189 1.70536C11.3763 1.51801 11.4816 1.26392 11.4816 0.998975C11.4816 0.734031 11.3763 0.479937 11.189 0.292593C11.0016 0.105249 10.7475 0 10.4826 0H2.66393C1.95741 0 1.27983 0.280664 0.780248 0.780248C0.280664 1.27983 0 1.95741 0 2.66393V23.3227C0 24.0293 0.280664 24.7068 0.780248 25.2064C1.27983 25.706 1.95741 25.9867 2.66393 25.9867H23.3361C24.0426 25.9867 24.7202 25.706 25.2198 25.2064C25.7193 24.7068 26 24.0293 26 23.3227V15.0645C26 14.9322 25.9737 14.8012 25.9227 14.6792C25.8717 14.5571 25.7969 14.4464 25.7027 14.3534C25.6085 14.2605 25.4968 14.1872 25.3741 14.1378C25.2513 14.0883 25.12 14.0638 24.9877 14.0656Z" fill="#3782F2"/>
</svg>