<?xml version="1.0" encoding="utf-8"?>
<!-- Generator: Adobe Illustrator 23.0.1, SVG Export Plug-In . SVG Version: 6.00 Build 0)  -->
<svg version="1.1" id="Layer_1" xmlns="http://www.w3.org/2000/svg" xmlns:xlink="http://www.w3.org/1999/xlink" x="0px" y="0px"
	 viewBox="0 0 114 21" style="enable-background:new 0 0 114 21;" xml:space="preserve">
<path d="M4.7,11v9H2v-9H0V8.6h2V4.4h2.6v4.2h2.1V11H4.7z M18.3,8.6H21V20h-2.6v-1.2c-1.1,1-2.3,1.5-3.5,1.5c-1.6,0-2.9-0.6-3.9-1.7
	c-1-1.2-1.5-2.6-1.5-4.4c0-1.6,0.5-3,1.4-4.1c0.8-0.9,1.9-1.6,3.1-1.8c1.7-0.3,3.1,0.3,4.4,1.6V8.6z M12.1,14.2
	c0,1.5,0.5,2.6,1.6,3.3c0.3,0.2,0.6,0.3,1,0.4c1.3,0.2,2.2-0.2,3-1c0.6-0.7,0.9-1.6,0.9-2.6c0-1.1-0.3-2-0.9-2.6
	c-0.6-0.7-1.4-1-2.3-1c-0.9,0-1.7,0.3-2.3,1C12.4,12.3,12.1,13.2,12.1,14.2z M25.5,8.6h2.6v1.1c0.5-0.5,0.9-0.9,1.3-1.1
	c0.4-0.2,0.9-0.3,1.4-0.3c1.3,0,2.3,0.6,3.1,1.7c0.8-1.1,1.9-1.7,3.4-1.7c2.6,0,3.9,1.6,3.9,4.7V20h-2.6v-6.3c0-1.1-0.1-1.9-0.4-2.3
	c-0.3-0.5-0.7-0.7-1.3-0.7c-0.7,0-1.3,0.3-1.6,0.8c-0.3,0.5-0.5,1.4-0.5,2.6V20H32v-6.3c0-2-0.6-3-1.8-3c-0.7,0-1.3,0.3-1.6,0.8
	c-0.3,0.6-0.5,1.4-0.5,2.6V20h-2.6V8.6z M48.3,8.6v6.6c0,1.9,0.7,2.8,2.2,2.8c1.5,0,2.2-0.9,2.2-2.8V8.6h2.6v6.6
	c0,0.9-0.1,1.7-0.3,2.4c-0.2,0.6-0.6,1.1-1.1,1.6c-0.9,0.8-2,1.2-3.4,1.2c-1.4,0-2.5-0.4-3.4-1.2c-0.5-0.5-0.9-1-1.2-1.6
	c-0.2-0.5-0.3-1.3-0.3-2.4V8.6H48.3z M60,0.2h2.6v9.3c0.9-0.8,2-1.3,3.1-1.3c1.3,0,2.3,0.4,3.1,1.3c0.7,0.7,1,1.9,1,3.5v7h-2.6v-6.7
	c0-0.9-0.2-1.6-0.5-2c-0.3-0.4-0.8-0.6-1.6-0.6c-0.9,0-1.6,0.3-1.9,0.9c-0.4,0.6-0.6,1.6-0.6,3V20H60V0.2z M82.8,8.6h2.6V20h-2.6
	v-1.2c-1.1,1-2.3,1.5-3.5,1.5c-1.6,0-2.9-0.6-3.9-1.7c-1-1.2-1.5-2.6-1.5-4.4c0-1.6,0.5-3,1.4-4.1c0.8-0.9,1.9-1.6,3.1-1.8
	C80,8,81.5,8.6,82.8,9.9V8.6z M76.5,14.2c0,1.5,0.5,2.6,1.6,3.3c0.3,0.2,0.6,0.3,1,0.4c1.3,0.2,2.2-0.2,3-1c0.6-0.7,0.9-1.6,0.9-2.6
	c0-1.1-0.3-2-0.9-2.6c-0.6-0.7-1.4-1-2.3-1c-0.9,0-1.7,0.3-2.3,1C76.8,12.3,76.5,13.2,76.5,14.2z M98.8,9v3.5
	c-0.6-0.7-1.1-1.2-1.6-1.5c-0.5-0.3-1-0.4-1.7-0.4c-1,0-1.8,0.3-2.5,1c-0.7,0.7-1,1.6-1,2.6c0,1.1,0.3,1.9,0.9,2.6
	c0.6,0.7,1.5,1,2.4,1c0.6,0,1.2-0.1,1.7-0.4c0.5-0.3,1-0.8,1.7-1.5v3.5c-1.1,0.6-2.1,0.8-3.2,0.8c-1.8,0-3.2-0.6-4.4-1.7
	c-1.2-1.1-1.8-2.6-1.8-4.3s0.6-3.1,1.8-4.3c1.2-1.2,2.7-1.8,4.4-1.8C96.8,8.2,97.8,8.5,98.8,9z M105.9,0.2v12.1l3.7-3.7h3.5l-5,4.8
	l5.3,6.6H110l-3.8-4.8l-0.4,0.4V20h-2.6V0.2H105.9z"/>
</svg>
