<svg width="108" height="20" viewBox="0 0 108 20" fill="none" xmlns="http://www.w3.org/2000/svg">
<g clip-path="url(#clip0)">
<path d="M5.37281 10.8775V19.5122C5.37281 19.542 5.36111 19.5705 5.34029 19.5915C5.31947 19.6125 5.29124 19.6244 5.2618 19.6244H2.22017C2.19073 19.6244 2.16249 19.6125 2.14167 19.5915C2.12086 19.5705 2.10916 19.542 2.10916 19.5122V10.8775C2.10996 10.8626 2.10764 10.8476 2.10234 10.8337C2.09705 10.8197 2.0889 10.807 2.07843 10.7964C2.06795 10.7858 2.05539 10.7776 2.04156 10.7723C2.02773 10.7669 2.01294 10.7646 1.99815 10.7654H0.0999089C0.0724318 10.7626 0.0469703 10.7495 0.0284965 10.7288C0.0100227 10.7081 -0.000136994 10.6811 1.39541e-06 10.6532V8.09646C1.39541e-06 8.06672 0.0116969 8.0382 0.032515 8.01717C0.0533331 7.99614 0.0815685 7.98432 0.11101 7.98432H2.00925C2.02404 7.98513 2.03883 7.98278 2.05266 7.97744C2.06649 7.97209 2.07905 7.96385 2.08953 7.95328C2.1 7.9427 2.10815 7.93001 2.11344 7.91604C2.11874 7.90206 2.12106 7.88712 2.12026 7.87218V4.0931C2.12012 4.0652 2.13028 4.03825 2.14876 4.01752C2.16723 3.99678 2.19269 3.98375 2.22017 3.98096H5.2618C5.29124 3.98096 5.31947 3.99277 5.34029 4.0138C5.36111 4.03483 5.37281 4.06336 5.37281 4.0931V7.84976C5.37281 7.8795 5.3845 7.90802 5.40532 7.92905C5.42614 7.95008 5.45437 7.96189 5.48381 7.96189H7.49861C7.52806 7.96189 7.55629 7.97371 7.57711 7.99474C7.59793 8.01577 7.60962 8.04429 7.60962 8.07403V10.6532C7.60962 10.683 7.59793 10.7115 7.57711 10.7325C7.55629 10.7536 7.52806 10.7654 7.49861 10.7654H5.48381C5.45437 10.7654 5.42614 10.7772 5.40532 10.7982C5.3845 10.8192 5.37281 10.8478 5.37281 10.8775Z" fill="#929292"/>
<path d="M18.272 7.96773H21.3025C21.3171 7.96773 21.3315 7.97063 21.345 7.97627C21.3585 7.9819 21.3707 7.99016 21.381 8.00057C21.3913 8.01099 21.3995 8.02335 21.4051 8.03695C21.4107 8.05056 21.4135 8.06514 21.4135 8.07987V19.5124C21.4135 19.5272 21.4107 19.5418 21.4051 19.5554C21.3995 19.569 21.3913 19.5813 21.381 19.5917C21.3707 19.6022 21.3585 19.6104 21.345 19.616C21.3315 19.6217 21.3171 19.6246 21.3025 19.6246H18.272C18.2426 19.6246 18.2143 19.6128 18.1935 19.5917C18.1727 19.5707 18.161 19.5422 18.161 19.5124V18.1163C17.7768 18.7074 17.2504 19.1904 16.6311 19.5199C16.0117 19.8494 15.3197 20.0147 14.6198 20.0002C11.0731 20.0002 8.73083 17.1968 8.73083 13.7821C8.73083 10.3675 11.0454 7.61449 14.4589 7.61449C15.1848 7.5767 15.9079 7.73055 16.5571 8.06089C17.2062 8.39123 17.759 8.88667 18.161 9.49843V8.07987C18.161 8.05013 18.1727 8.0216 18.1935 8.00057C18.2143 7.97954 18.2426 7.96773 18.272 7.96773ZM11.5338 13.7821C11.5338 14.2063 11.6165 14.6262 11.7772 15.0181C11.9378 15.4099 12.1733 15.7659 12.4702 16.0658C12.7671 16.3657 13.1195 16.6036 13.5074 16.7659C13.8953 16.9282 14.311 17.0117 14.7308 17.0117C15.1507 17.0117 15.5664 16.9282 15.9543 16.7659C16.3422 16.6036 16.6946 16.3657 16.9915 16.0658C17.2884 15.7659 17.5238 15.4099 17.6845 15.0181C17.8452 14.6262 17.9279 14.2063 17.9279 13.7821C17.9279 12.9256 17.591 12.1041 16.9915 11.4985C16.3919 10.8928 15.5787 10.5525 14.7308 10.5525C13.8829 10.5525 13.0697 10.8928 12.4702 11.4985C11.8706 12.1041 11.5338 12.9256 11.5338 13.7821Z" fill="#929292"/>
<path d="M23.5004 7.96753H26.5309C26.5604 7.96753 26.5886 7.97934 26.6094 8.00037C26.6303 8.0214 26.6419 8.04992 26.6419 8.07966V9.28516C27.0449 8.75329 27.5655 8.32412 28.1621 8.03202C28.7587 7.73993 29.4147 7.59302 30.0777 7.60307C30.7915 7.55577 31.5042 7.71138 32.135 8.05228C32.7657 8.39318 33.2894 8.90573 33.6466 9.53186C33.6558 9.54818 33.6691 9.56174 33.6852 9.57117C33.7013 9.58061 33.7196 9.58558 33.7382 9.58558C33.7568 9.58558 33.775 9.58061 33.7911 9.57117C33.8072 9.56174 33.8205 9.54818 33.8297 9.53186C34.2145 8.92103 34.7474 8.41963 35.3778 8.0752C36.0082 7.73078 36.7153 7.55475 37.432 7.56382C38.0273 7.52766 38.6224 7.63842 39.1658 7.88654C39.7093 8.13467 40.1848 8.5127 40.5513 8.98799C41.295 9.98603 41.3505 10.9785 41.3505 12.2737V19.5122C41.3505 19.542 41.3389 19.5705 41.318 19.5915C41.2972 19.6126 41.269 19.6244 41.2395 19.6244H38.209C38.1796 19.6244 38.1513 19.6126 38.1305 19.5915C38.1097 19.5705 38.098 19.542 38.098 19.5122V13.2717C38.098 11.898 37.8038 11.2756 37.543 10.9841C37.38 10.7895 37.1754 10.635 36.9446 10.532C36.7139 10.429 36.463 10.3804 36.2109 10.3897C35.8485 10.3706 35.4883 10.4565 35.1726 10.6373C34.8569 10.8181 34.599 11.0863 34.4292 11.4102C34.0858 12.1047 33.9288 12.878 33.974 13.653V19.5122C33.974 19.542 33.9624 19.5705 33.9415 19.5915C33.9207 19.6126 33.8925 19.6244 33.863 19.6244H30.8547C30.8253 19.6244 30.797 19.6126 30.7762 19.5915C30.7554 19.5705 30.7437 19.542 30.7437 19.5122V13.2717C30.7437 11.898 30.4495 11.2756 30.1887 10.9841C30.0263 10.7903 29.8226 10.6362 29.5929 10.5332C29.3631 10.4303 29.1133 10.3812 28.8621 10.3897C28.4997 10.3706 28.1395 10.4565 27.8239 10.6373C27.5082 10.8181 27.2503 11.0863 27.0804 11.4102C26.737 12.1047 26.5801 12.878 26.6253 13.653V19.5122C26.6253 19.542 26.6136 19.5705 26.5928 19.5915C26.572 19.6126 26.5437 19.6244 26.5143 19.6244H23.5004C23.4858 19.6244 23.4714 19.6215 23.4579 19.6158C23.4445 19.6102 23.4322 19.6019 23.4219 19.5915C23.4116 19.5811 23.4034 19.5688 23.3979 19.5552C23.3923 19.5415 23.3894 19.527 23.3894 19.5122V8.07966C23.3894 8.06494 23.3923 8.05036 23.3979 8.03675C23.4034 8.02315 23.4116 8.01078 23.4219 8.00037C23.4322 7.98996 23.4445 7.9817 23.4579 7.97606C23.4714 7.97043 23.4858 7.96753 23.5004 7.96753Z" fill="#929292"/>
<path d="M46.468 7.96729C46.4975 7.96729 46.5257 7.9791 46.5465 8.00013C46.5674 8.02116 46.5791 8.04968 46.5791 8.07942V14.5779C46.5448 14.9492 46.5889 15.3236 46.7085 15.6764C46.8281 16.0292 47.0205 16.3523 47.2729 16.6244C47.7428 17.0125 48.331 17.2245 48.938 17.2245C49.5449 17.2245 50.1332 17.0125 50.6031 16.6244C50.8506 16.3499 51.0378 16.0257 51.1526 15.673C51.2674 15.3204 51.3071 14.9472 51.2692 14.5779V8.07942C51.2692 8.04968 51.2809 8.02116 51.3017 8.00013C51.3225 7.9791 51.3507 7.96729 51.3802 7.96729H54.394C54.4235 7.96729 54.4517 7.9791 54.4725 8.00013C54.4934 8.02116 54.505 8.04968 54.505 8.07942V15.0993C54.5539 15.7651 54.4518 16.4333 54.2065 17.0531C53.9613 17.673 53.5793 18.2282 53.0897 18.6766C52.024 19.6241 50.3145 19.9998 48.9047 19.9998C47.4949 19.9998 45.7909 19.6241 44.7252 18.6766C44.2356 18.2282 43.8536 17.673 43.6084 17.0531C43.3631 16.4333 43.261 15.7651 43.3099 15.0993V8.07942C43.3099 8.0647 43.3127 8.05012 43.3183 8.03651C43.3239 8.02291 43.3321 8.01054 43.3424 8.00013C43.3527 7.98972 43.3649 7.98146 43.3784 7.97582C43.3919 7.97019 43.4063 7.96729 43.4209 7.96729H46.468Z" fill="#929292"/>
<path d="M56.6142 0H59.6447C59.6741 0 59.7024 0.0118146 59.7232 0.0328448C59.744 0.0538749 59.7557 0.0823979 59.7557 0.112139V9.14494C59.756 9.16761 59.763 9.18967 59.7759 9.20821C59.7889 9.22675 59.807 9.2409 59.8281 9.24879C59.8491 9.25668 59.872 9.25795 59.8938 9.25242C59.9155 9.2469 59.9351 9.23484 59.95 9.21783C60.3489 8.70074 60.8615 8.2846 61.4473 8.00236C62.033 7.72013 62.6758 7.57957 63.3246 7.59181C63.9605 7.56867 64.5939 7.68385 65.1819 7.92957C65.7699 8.17528 66.2987 8.54579 66.7326 9.01598C67.4167 9.96525 67.7398 11.1315 67.6429 12.3017V19.5122C67.6429 19.5419 67.6312 19.5705 67.6103 19.5915C67.5895 19.6125 67.5613 19.6243 67.5319 19.6243H64.4958C64.4663 19.6243 64.4381 19.6125 64.4173 19.5915C64.3965 19.5705 64.3848 19.5419 64.3848 19.5122V13.2717C64.3848 12.6213 64.3848 11.5896 63.7742 10.984C63.573 10.7872 63.3347 10.6331 63.0735 10.531C62.8122 10.429 62.5334 10.3809 62.2534 10.3897C61.8607 10.3657 61.4688 10.4475 61.1177 10.6268C60.7666 10.8061 60.4689 11.0765 60.2553 11.4102C59.8758 12.0927 59.7003 12.8717 59.7502 13.6529V19.5122C59.7502 19.5419 59.7385 19.5705 59.7177 19.5915C59.6968 19.6125 59.6686 19.6243 59.6392 19.6243H56.6142C56.5847 19.6243 56.5565 19.6125 56.5357 19.5915C56.5149 19.5705 56.5032 19.5419 56.5032 19.5122V0.112139C56.5032 0.0823979 56.5149 0.0538749 56.5357 0.0328448C56.5565 0.0118146 56.5847 0 56.6142 0V0Z" fill="#929292"/>
<path d="M79.1267 7.96773H82.1462C82.1756 7.96773 82.2038 7.97954 82.2247 8.00057C82.2455 8.0216 82.2572 8.05013 82.2572 8.07987V19.5124C82.2572 19.5422 82.2455 19.5707 82.2247 19.5917C82.2038 19.6128 82.1756 19.6246 82.1462 19.6246H79.1156C79.0862 19.6246 79.058 19.6128 79.0371 19.5917C79.0163 19.5707 79.0046 19.5422 79.0046 19.5124V18.1163C78.6221 18.7038 78.0992 19.1845 77.4841 19.5137C76.869 19.843 76.1817 20.0104 75.4857 20.0002C71.939 20.0002 69.5967 17.1968 69.5967 13.7821C69.5967 10.3675 71.9112 7.61449 75.3247 7.61449C76.0506 7.5767 76.7737 7.73055 77.4229 8.06089C78.072 8.39123 78.6248 8.88667 79.0268 9.49843V8.07987C79.0267 8.05197 79.0369 8.02502 79.0553 8.00429C79.0738 7.98355 79.0993 7.97052 79.1267 7.96773ZM72.3885 13.7821C72.3885 14.6387 72.7254 15.4601 73.3249 16.0658C73.9245 16.6715 74.7377 17.0117 75.5856 17.0117C76.4335 17.0117 77.2467 16.6715 77.8462 16.0658C78.4458 15.4601 78.7826 14.6387 78.7826 13.7821C78.7826 12.9256 78.4458 12.1041 77.8462 11.4985C77.2467 10.8928 76.4335 10.5525 75.5856 10.5525C74.7377 10.5525 73.9245 10.8928 73.3249 11.4985C72.7254 12.1041 72.3885 12.9256 72.3885 13.7821Z" fill="#929292"/>
<path d="M93.4857 11.2754C93.487 11.2968 93.4819 11.318 93.4712 11.3364C93.4604 11.3547 93.4444 11.3694 93.4252 11.3785C93.4061 11.3876 93.3846 11.3906 93.3638 11.3872C93.3429 11.3838 93.3235 11.3742 93.3081 11.3595C92.6097 10.7777 91.7264 10.471 90.8215 10.4961C90.3887 10.4744 89.9562 10.5445 89.5519 10.702C89.1475 10.8594 88.7803 11.1007 88.4739 11.4102C88.1675 11.7198 87.9287 12.0907 87.7728 12.4992C87.6169 12.9076 87.5475 13.3445 87.569 13.7817C87.5604 14.2233 87.641 14.662 87.8061 15.071C87.9711 15.48 88.217 15.8507 88.5288 16.1603C88.8405 16.47 89.2115 16.7122 89.6191 16.872C90.0267 17.0318 90.4623 17.1059 90.8992 17.0898C91.7663 17.0893 92.6061 16.784 93.2748 16.2264C93.2908 16.2125 93.3105 16.2035 93.3314 16.2005C93.3523 16.1976 93.3736 16.2007 93.3929 16.2095C93.4121 16.2183 93.4285 16.2325 93.44 16.2504C93.4515 16.2683 93.4577 16.2891 93.458 16.3105V19.2037C93.4584 19.2239 93.4528 19.2438 93.4419 19.2608C93.4311 19.2778 93.4154 19.2911 93.3969 19.299C92.21 19.8907 90.8755 20.1119 89.5636 19.9341C88.2517 19.7563 87.0221 19.1878 86.0315 18.3009C85.4314 17.7249 84.9578 17.028 84.6413 16.2553C84.3249 15.4826 84.1726 14.6513 84.1943 13.8154C84.1625 12.9896 84.2997 12.1661 84.5971 11.3964C84.8946 10.6266 85.346 9.92699 85.9231 9.34135C86.5002 8.75571 87.1907 8.29658 87.9514 7.99263C88.7121 7.68869 89.5266 7.54646 90.3442 7.57483C91.399 7.55717 92.4436 7.7855 93.3969 8.24206C93.4168 8.25004 93.4339 8.26398 93.4458 8.28201C93.4577 8.30005 93.4639 8.32132 93.4635 8.34299L93.4857 11.2754Z" fill="#929292"/>
<path d="M99.1859 0.112139V11.954C99.1862 11.976 99.1929 11.9973 99.2051 12.0155C99.2173 12.0337 99.2345 12.0478 99.2546 12.0561C99.2747 12.0645 99.2968 12.0667 99.3181 12.0625C99.3395 12.0583 99.3591 12.0479 99.3746 12.0325L103.471 8.00112C103.491 7.97999 103.519 7.9679 103.549 7.96748H107.434C107.456 7.96774 107.478 7.97486 107.496 7.98791C107.515 8.00095 107.529 8.01931 107.537 8.04057C107.544 8.06182 107.546 8.08496 107.54 8.10695C107.535 8.12893 107.523 8.14873 107.506 8.16372L102.383 13.0081C102.363 13.0291 102.351 13.0573 102.351 13.0866C102.351 13.116 102.363 13.1442 102.383 13.1651L107.978 19.4337C107.993 19.4497 108.004 19.4701 108.008 19.4921C108.012 19.5142 108.009 19.537 108 19.5575C107.991 19.5781 107.976 19.5954 107.957 19.6073C107.939 19.6192 107.917 19.6252 107.895 19.6243H103.882C103.866 19.6242 103.85 19.6206 103.836 19.6138C103.821 19.607 103.809 19.5972 103.798 19.5851L99.5411 14.6398L99.1915 14.965V19.5122C99.1915 19.5419 99.1798 19.5705 99.1589 19.5915C99.1381 19.6125 99.1099 19.6243 99.0804 19.6243H96.0555C96.026 19.6243 95.9978 19.6125 95.977 19.5915C95.9562 19.5705 95.9445 19.5419 95.9445 19.5122V0.112139C95.9445 0.0823979 95.9562 0.0538749 95.977 0.0328448C95.9978 0.0118146 96.026 0 96.0555 0L99.0804 0C99.1089 0.00143971 99.1357 0.0138869 99.1554 0.0347631C99.175 0.0556392 99.1859 0.0833444 99.1859 0.112139Z" fill="#929292"/>
</g>
<defs>
<clipPath id="clip0">
<rect width="108" height="20" fill="white"/>
</clipPath>
</defs>
</svg>
