<svg xmlns="http://www.w3.org/2000/svg" viewBox="0 0 67 71.22"><defs><style>.cls-1{fill:#f37d93;}.cls-2{fill:#3f688d;}</style></defs><title>Asset 2</title><g id="Layer_2" data-name="Layer 2"><g id="Layer_1-2" data-name="Layer 1"><path class="cls-1" d="M32.38,0h8a.72.72,0,0,1,.72.72V32a.72.72,0,0,0,1.16.56,15.92,15.92,0,0,1,10-3.58,14.45,14.45,0,0,1,11.14,4.51Q67,37.45,67,46V70.5a.72.72,0,0,1-.72.72H58.23a.72.72,0,0,1-.72-.72V46.93q0-4.93-1.75-7.15c-1.17-1.47-3-2.21-5.63-2.21q-5,0-7,3.08t-2,10.71V70.5a.72.72,0,0,1-.72.72h-8a.72.72,0,0,1-.72-.72V.72A.72.72,0,0,1,32.38,0Z"/><path class="cls-2" d="M17.89,39.47V70.24a.72.72,0,0,1-.72.72H9.12a.72.72,0,0,1-.72-.72V39.47a.72.72,0,0,0-.72-.72h-7A.72.72,0,0,1,0,38V30.61a.72.72,0,0,1,.72-.72h7a.72.72,0,0,0,.72-.72V15.56a.72.72,0,0,1,.72-.72h8.05a.72.72,0,0,1,.72.72V29.17a.72.72,0,0,0,.72.72h8.06a.72.72,0,0,1,.72.72V38a.72.72,0,0,1-.72.72H18.61A.72.72,0,0,0,17.89,39.47Z"/></g></g></svg>