<svg xmlns="http://www.w3.org/2000/svg" viewBox="0 0 371.44 313.11"><defs><style>.cls-1{fill:#345562;}</style></defs><title>Asset 3</title><g id="Layer_2" data-name="Layer 2"><g id="Layer_1-2" data-name="Layer 1"><path class="cls-1" d="M0,85c43.41-41.12,98.77-45.3,137.94-16.24,23.44,17.38,38,39.41,30.49,72-2.73,11.82,1.14,20.81,11.78,27.25,7.88-10,14.66-19.33,6.09-31.37-21.6-30.32-8-58.17,8-82.65C223.59,9.41,266.64-5.52,316,1.76c18.78,2.77,36.89,10.79,55.43,16.45-1.77,5.58-1.81,7.91-2.81,8.54-34.16,21.47-55.87,55.18-77.77,88.87-6.64,10.21-14.5,19.59-22.35,28.83-12.55,14.77-28.34,21.07-46.62,15.87-12.57-3.57-19.44,2.05-24.22,13.06-7.24,16.69-13.19,33.45-12.13,52.7,1.19,21.64.83,43.43,0,65.09-.31,7.92,5.21,19.69-7.53,21.94-1,.18-6.13-15.05-6.47-23.25-.93-22.5.48-45.11-.63-67.59A197.8,197.8,0,0,0,164,180.61c-2.85-10.52-9.69-17.23-21.47-10.52-17,9.69-32.16,3.07-45.95-7.66C85.87,154.1,76.69,143.52,66,135.09c-18.1-14.3-36.83-27.68-55.27-41.49C7.67,91.29,4.72,88.77,0,85Zm199,42c5.54-5.38,9.67-8.6,12.84-12.65,5.5-7,9.86-15.15,15.82-21.65,2.44-2.66,7.78-2.31,11.8-3.32-.07,3.86,1.12,8.49-.45,11.44-5,9.39-11.55,17.86-16.57,27.25-6,11.26-2.48,17.34,9.56,17.69,15,.44,24.75-9.48,33.17-20.7,22.46-29.92,44.52-60.18,66.66-90.38,5.15-7,4-12.83-4.51-14.67C278.87,9.46,229.52,20.72,201,72.21,192,88.52,190.22,106.09,199,126.92ZM30.41,79.81c27.85,25.91,50.87,48,74.77,69,5.57,4.9,14,7,21.4,8.22,3.44.58,8.59-3.22,11-6.61,1.11-1.53-1.61-8-4.12-10.36-7.53-7.19-16-13.24-23.65-20.28-1.92-1.77-2.17-5.59-3.19-8.47,3.34-1.29,7.18-4.37,9.9-3.49,5.06,1.64,9.5,5.5,14.11,8.59,6.92,4.62,13.77,9.38,24.38,16.63.55-27-10.21-41.9-26.81-52.26C97.69,61.74,66.61,63.84,30.41,79.81Z"/></g></g></svg>