<?xml version="1.0" encoding="utf-8"?>
<!-- Generator: Adobe Illustrator 23.0.6, SVG Export Plug-In . SVG Version: 6.00 Build 0)  -->
<svg version="1.1" id="Layer_1" xmlns="http://www.w3.org/2000/svg" xmlns:xlink="http://www.w3.org/1999/xlink" x="0px" y="0px"
	 viewBox="0 0 392.8 688" style="enable-background:new 0 0 392.8 688;" xml:space="preserve">
<style type="text/css">
	.st0{fill:#231F1B;}
	.st1{opacity:0.42;fill:#141211;enable-background:new    ;}
	.st2{fill:#FFFFFF;}
</style>
<title>Dark Gray</title>
<g id="Dark_Gray">
	<g id="Trust_Badge_Dark_Gray_">
		<path id="Background_Bottom_" class="st0" d="M21.8,267.7c0-2.6,5.6-3.7,9.3-3.7h332.2c3.7,0,4.5,1.1,4.5,3.7V622
			c0,3.1-2,5.8-4.9,6.9L204,687.1c-3.8,1.2-7.9,1.2-11.7,0L28.9,628.9c-3.3-1.2-7.1-4.3-7.1-6.9L21.8,267.7z"/>
		<g id="Official_Plate">
			<polygon id="Shadow" class="st1" points="355.9,390.7 355.9,350 34.2,350 			"/>
			<path id="Plate_Background" class="st2" d="M377.1,332.5c0,0-159.8,52.8-361.4,0V229.7c186,48.4,361.4,0,361.4,0V332.5z"/>
			<path id="Plate_Border" class="st0" d="M377.1,229.7v102.8c0,0-71,23.5-178.1,23.5c-61.8,0-123.4-7.9-183.3-23.5V229.7
				c62,16.1,122.8,21.5,176.3,21.5C299.1,251.2,377,229.7,377.1,229.7 M392.6,209.3l-19.7,5.4c-0.8,0.2-77.5,20.9-180.9,20.9
				c-60.8,0-118.8-7.1-172.4-21l-19.5-5.1v135l11.6,3c61.1,16,124,24,187.2,24c108.3,0,180-23.3,183-24.3l10.7-3.5L392.6,209.3
				L392.6,209.3z"/>
			<g id="Official">
				<path class="st0" d="M75.4,269.9c1.1,0.2,2.1,0.6,3,1.2c0.9,0.6,1.6,1.3,2.2,2.1c0.6,0.8,1,1.8,1.2,2.8c0.3,1,0.3,2.1,0.1,3.2
					c-1.8,10.4-3.7,20.8-5.5,31.2c-0.2,1.1-0.6,2.1-1.2,2.9c-0.6,0.9-1.3,1.6-2.2,2.2c-0.9,0.6-1.9,1-3,1.2c-1.1,0.2-2.3,0.2-3.4,0
					c-8.5-1.6-17.1-3.4-25.6-5.3c-1.1-0.3-2.2-0.7-3.1-1.4c-0.9-0.6-1.7-1.4-2.3-2.3c-0.6-0.9-1-1.9-1.2-2.9
					c-0.2-1.1-0.2-2.1,0.1-3.2c2.5-10.3,4.9-20.5,7.4-30.8c0.3-1,0.7-2,1.3-2.8c0.6-0.8,1.4-1.5,2.3-2c0.9-0.5,1.9-0.9,2.9-1.1
					c1.1-0.2,2.1-0.2,3.2,0.1C59.5,266.7,67.5,268.4,75.4,269.9z M69.2,280.5c-5.4-1.1-10.8-2.2-16.1-3.4L47.8,301
					c5.6,1.2,11.1,2.4,16.7,3.5C66,296.5,67.6,288.5,69.2,280.5z"/>
				<path class="st0" d="M130,278.3c0.2,0.3,0.3,0.6,0.3,1l-0.9,8.9c0,0.3-0.2,0.7-0.5,0.9c-0.3,0.2-0.6,0.3-1,0.3
					c-7.7-0.8-15.5-1.8-23.2-2.9c-0.2,0-0.4,0-0.4,0.2l-1,7.3c0,0.2,0,0.3,0.2,0.4c0,0,0.1,0,0.1,0c5.9,0.8,11.9,1.6,17.8,2.3
					c0.3,0,0.7,0.2,0.9,0.5c0.2,0.3,0.3,0.6,0.2,1c-0.3,2.8-0.6,5.6-1,8.4c0,0.3-0.2,0.7-0.5,0.9c-0.3,0.2-0.6,0.3-1,0.3
					c-6-0.7-12-1.4-18.1-2.3c-0.2-0.1-0.3,0-0.4,0.2c0,0,0,0.1,0,0.1c-0.7,5.1-1.4,10.1-2.2,15.1c-0.1,0.9-0.6,1.2-1.6,1.1
					c-3.3-0.5-6.7-1-10-1.5c-0.9-0.1-1.3-0.6-1.2-1.5c2.4-14.8,4.8-29.6,7.1-44.4c0-0.6,0.5-1.1,1.2-1.1c0.1,0,0.2,0,0.3,0.1
					c11.2,1.8,22.5,3.3,33.8,4.5C129.4,277.9,129.8,278,130,278.3z"/>
				<path class="st0" d="M173.4,281.4c0.2,0.2,0.4,0.6,0.3,0.9c-0.1,3-0.2,6-0.3,9c0,0.3-0.2,0.7-0.4,0.9c-0.3,0.2-0.6,0.4-1,0.3
					c-7.8-0.3-15.5-0.8-23.3-1.4c-0.2,0-0.4,0.1-0.4,0.2c-0.2,2.5-0.4,4.9-0.6,7.4c0,0.2,0.1,0.3,0.2,0.4c0,0,0.1,0,0.1,0
					c6,0.5,11.9,0.8,17.9,1.1c0.3,0,0.7,0.2,0.9,0.4c0.2,0.3,0.3,0.6,0.3,0.9c-0.1,2.8-0.3,5.7-0.4,8.5c0,0.3-0.2,0.7-0.4,0.9
					c-0.3,0.2-0.6,0.4-0.9,0.3c-6.1-0.3-12.1-0.7-18.2-1.1c-0.2,0-0.3,0.1-0.4,0.2c0,0,0,0.1,0,0.1c-0.4,5.1-0.8,10.2-1.1,15.3
					c-0.1,0.9-0.6,1.2-1.5,1.2c-3.4-0.3-6.7-0.5-10.1-0.9c-0.9-0.1-1.4-0.6-1.3-1.4c1.4-14.9,2.8-29.9,4.2-44.8
					c0-0.6,0.5-1.2,1.1-1.2c0.1,0,0.2,0,0.3,0c11.3,1,22.7,1.8,34,2.3C172.8,281,173.1,281.2,173.4,281.4z"/>
				<path class="st0" d="M192.2,327.8c0,0.9-0.5,1.3-1.4,1.3c-3.4,0-6.8-0.1-10.1-0.2c-0.9,0-1.4-0.5-1.4-1.3c0.4-15,0.9-30,1.3-45
					c-0.1-0.6,0.4-1.2,1-1.3c0.1,0,0.2,0,0.3,0c3.1,0.1,6.3,0.2,9.4,0.2c0.6-0.1,1.2,0.4,1.3,1c0,0.1,0,0.2,0,0.3
					C192.5,297.8,192.3,312.8,192.2,327.8z"/>
				<path class="st0" d="M215.9,293.3c-0.2,0.2-0.4,0.6-0.4,0.9c0.2,7.3,0.3,14.7,0.5,22c0,0.3,0.1,0.7,0.4,0.9
					c0.3,0.2,0.6,0.3,1,0.3c7.7-0.2,15.4-0.5,23.1-1c0.4,0,0.7,0.1,1,0.3c0.3,0.2,0.4,0.5,0.5,0.9l0.5,9c0,0.4-0.1,0.7-0.4,1
					c-0.3,0.3-0.6,0.4-1,0.4c-5.1,0.3-10.2,0.5-15.3,0.7c-4.2,0.1-8.4,0.3-12.6,0.4H212c-1.1,0-2.3-0.2-3.4-0.6
					c-1-0.4-2-0.9-2.8-1.7c-0.8-0.7-1.4-1.6-1.8-2.5c-0.4-1-0.7-2-0.7-3.1V320v-5c0-5.3,0-10.6-0.1-15.9v-4.4v-5.2
					c0-1.1,0.2-2.1,0.6-3.1c0.4-1,1-1.8,1.7-2.5c0.7-0.7,1.6-1.3,2.6-1.7c1-0.4,2-0.7,3.1-0.7h1.2c8.7-0.2,17.4-0.5,26.1-1
					c0.3,0,0.7,0.1,0.9,0.3c0.3,0.2,0.4,0.5,0.4,0.9l0.5,9c0,0.3-0.1,0.7-0.3,0.9c-0.2,0.3-0.6,0.4-0.9,0.4
					c-7.4,0.4-14.9,0.7-22.3,0.9C216.6,292.9,216.2,293,215.9,293.3z"/>
				<path class="st0" d="M267.1,324.7c0.1,0.9-0.3,1.3-1.3,1.4c-3.4,0.3-6.7,0.6-10.1,0.9c-0.9,0.1-1.4-0.3-1.5-1.2
					c-1.2-15-2.3-29.9-3.4-44.9c-0.1-0.6,0.2-1.2,0.9-1.4c0.1,0,0.2,0,0.3,0c3.1-0.2,6.3-0.5,9.4-0.8c0.6-0.1,1.2,0.2,1.4,0.8
					c0,0.1,0,0.2,0,0.3C264.3,294.8,265.7,309.7,267.1,324.7z"/>
				<path class="st0" d="M305.4,273.1c1.1-0.2,2.1-0.1,3.2,0.1c1,0.2,1.9,0.7,2.8,1.3c0.8,0.6,1.6,1.3,2.1,2.2
					c0.6,0.9,1,1.9,1.2,2.9c2.2,12.6,4.3,25.2,6.5,37.8c0.1,0.4,0,0.7-0.2,1c-0.2,0.3-0.6,0.5-0.9,0.5c-3.3,0.6-6.7,1.1-10.1,1.6
					c-0.3,0.1-0.7,0-1-0.2c-0.3-0.2-0.5-0.5-0.5-0.8l-1.9-12c0-0.3-0.2-0.7-0.5-0.9c-0.3-0.2-0.7-0.3-1-0.2c-4.7,0.7-9.4,1.4-14.1,2
					c-0.4,0-0.7,0.2-0.9,0.5c-0.2,0.3-0.3,0.6-0.3,1l1.5,12c0.1,0.9-0.3,1.3-1.2,1.5c-3.4,0.4-6.7,0.8-10.1,1.2
					c-0.9,0.1-1.4-0.3-1.5-1.1c-1.4-12.7-2.8-25.4-4.2-38.1c-0.1-1.1,0-2.1,0.3-3.1c0.3-1,0.8-1.9,1.4-2.7c0.7-0.8,1.5-1.5,2.4-2
					c0.9-0.5,1.9-0.9,3-1C289.4,275.6,297.4,274.4,305.4,273.1z M304.8,296.1c-0.6-3.9-1.2-7.9-1.8-11.8c-5.4,0.8-10.8,1.6-16.2,2.3
					c0.5,4,1,7.9,1.5,11.9C293.8,297.8,299.3,297,304.8,296.1L304.8,296.1z"/>
				<path class="st0" d="M362.7,298.5c0.7-0.2,1.4,0.2,1.5,0.9c0,0,0,0.1,0,0.1c0.7,2.9,1.4,5.8,2.1,8.7c0.1,0.3,0,0.7-0.1,1
					c-0.2,0.3-0.5,0.5-0.9,0.6c-10.3,2.5-20.7,4.7-31.1,6.7c-0.9,0.2-1.5-0.2-1.6-1c-2.8-14.7-5.6-29.5-8.4-44.2
					c-0.2-0.6,0.1-1.3,0.7-1.5c0.1,0,0.2-0.1,0.3-0.1c3.1-0.6,6.2-1.2,9.3-1.9c0.6-0.2,1.2,0.1,1.5,0.7c0,0.1,0.1,0.2,0.1,0.3
					l6.9,32.7c0.1,0.3,0.3,0.6,0.6,0.8c0.3,0.2,0.7,0.2,1,0.1C350.6,301.3,356.7,299.9,362.7,298.5z"/>
			</g>
		</g>
		<g id="Background_Top_">
			<path class="st0" d="M392.9,209.2l-19.9-9.9L372.8,0h-355l0.4,201l-18.3,9l18.3,12.7v0.3h0.4l1.1,0.8l0.1-0.8h6.2
				c0,0,170.4,51.2,344.5,0.8h2.6V223h0.1L392.9,209.2z"/>
		</g>
		<g id="_2019_Season">
			<g id="Season">
				<path class="st2" d="M87.9,561.4c0.9,0.4,1.8,1,2.5,1.7c0.7,0.7,1.3,1.6,1.7,2.5c0.4,0.9,0.6,2,0.6,3v12.7
					c0,1.1-0.2,2.1-0.6,3.1c-0.4,0.9-1,1.8-1.7,2.5c-0.7,0.7-1.6,1.3-2.5,1.7c-1,0.4-2,0.6-3.1,0.6H57.9c-0.6,0.1-1.2-0.3-1.3-1
					c0-0.1,0-0.2,0-0.2v-8.2c0-0.7,0.5-1.3,1.2-1.3c0,0,0,0,0,0h23c0.3,0,0.7-0.1,0.9-0.3c0.2-0.2,0.4-0.5,0.4-0.9v-5.6
					c0-0.3-0.1-0.7-0.4-0.9c-0.2-0.2-0.6-0.4-0.9-0.4H64.6c-3.2,0-6-1.9-7.3-4.8c-0.4-0.9-0.6-2-0.6-3v-12.8c0-1.1,0.2-2.1,0.6-3.1
					c0.4-0.9,1-1.8,1.7-2.5c0.7-0.7,1.6-1.3,2.5-1.7c1-0.4,2-0.6,3.1-0.6H90c0.6-0.1,1.2,0.3,1.3,1c0,0.1,0,0.2,0,0.3v8.3
					c0,0.3-0.1,0.7-0.4,0.9c-0.3,0.2-0.6,0.3-0.9,0.3H68.5c-0.3,0-0.7,0.1-0.9,0.4c-0.2,0.2-0.3,0.6-0.3,0.9v5.5
					c0,0.3,0.1,0.7,0.3,0.9c0.2,0.2,0.5,0.4,0.9,0.4h16.4C85.9,560.8,87,561,87.9,561.4z"/>
				<path class="st2" d="M138.8,542.4c0.2,0.2,0.4,0.6,0.4,0.9v8.5c0,0.3-0.1,0.7-0.4,0.9c-0.2,0.2-0.6,0.3-0.9,0.3h-22.6
					c-0.2,0-0.3,0.1-0.3,0.3v7.4c0,0.2,0.1,0.3,0.3,0.3h19.3c0.3,0,0.7,0.1,0.9,0.4c0.2,0.3,0.3,0.6,0.3,0.9v6.8
					c0,0.3-0.1,0.7-0.3,0.9c-0.2,0.2-0.5,0.4-0.9,0.4h-19.3c-0.2,0-0.3,0.1-0.3,0.3c0,0,0,0.1,0,0.1v7.3c0,0.2,0.1,0.3,0.3,0.3
					c0,0,0.1,0,0.1,0h22.6c0.3,0,0.7,0.1,0.9,0.4c0.2,0.2,0.4,0.6,0.4,0.9v8.5c0,0.3-0.1,0.7-0.4,0.9c-0.2,0.2-0.6,0.4-0.9,0.4
					h-33.5c-0.6,0.1-1.2-0.3-1.3-0.9c0-0.1,0-0.2,0-0.3v-44.7c0-0.3,0.1-0.7,0.4-0.9c0.2-0.2,0.6-0.4,0.9-0.4h33.5
					C138.2,542,138.5,542.1,138.8,542.4z"/>
				<path class="st2" d="M181.6,542c1.1,0,2.1,0.2,3.1,0.6c0.9,0.4,1.8,1,2.5,1.7c0.7,0.7,1.3,1.6,1.7,2.5c0.4,1,0.7,2,0.6,3.1V588
					c0,0.3-0.1,0.7-0.4,0.9c-0.2,0.2-0.6,0.4-0.9,0.4h-9.4c-0.7,0-1.3-0.5-1.3-1.2c0,0,0,0,0,0v-12.1c0-0.3-0.1-0.7-0.3-0.9
					c-0.2-0.2-0.5-0.4-0.9-0.4H163c-0.3,0-0.7,0.1-0.9,0.4c-0.2,0.2-0.4,0.6-0.4,0.9V588c0.1,0.6-0.3,1.2-1,1.3c-0.1,0-0.2,0-0.3,0
					h-9.3c-0.6,0.1-1.2-0.3-1.3-1c0-0.1,0-0.2,0-0.3v-38.1c0-1.1,0.2-2.1,0.6-3.1c0.4-0.9,1-1.8,1.7-2.5c0.7-0.7,1.6-1.3,2.5-1.7
					c1-0.4,2-0.6,3.1-0.6H181.6z M177.5,564.5v-11.9h-15.9v11.9L177.5,564.5z"/>
				<path class="st2" d="M231.2,561.4c0.9,0.4,1.8,1,2.5,1.7c0.7,0.7,1.3,1.6,1.7,2.5c0.4,0.9,0.6,2,0.6,3v12.7
					c0,1.1-0.2,2.1-0.6,3.1c-0.4,0.9-1,1.8-1.7,2.5c-0.7,0.7-1.6,1.3-2.5,1.7c-1,0.4-2,0.6-3.1,0.6h-26.9c-0.6,0.1-1.2-0.3-1.3-1
					c0-0.1,0-0.2,0-0.3v-8.2c0-0.3,0.1-0.7,0.4-0.9c0.2-0.2,0.6-0.4,0.9-0.4h22.9c0.3,0,0.7-0.1,0.9-0.3c0.2-0.2,0.4-0.5,0.4-0.9
					v-5.6c0-0.3-0.1-0.7-0.4-0.9c-0.2-0.2-0.6-0.4-0.9-0.4h-16.3c-1.1,0-2.1-0.2-3.1-0.6c-0.9-0.4-1.8-1-2.5-1.7
					c-0.7-0.7-1.3-1.6-1.7-2.5c-0.4-1-0.6-2-0.6-3v-12.7c0-1.1,0.2-2.1,0.6-3.1c0.4-0.9,1-1.8,1.7-2.5c0.7-0.7,1.6-1.3,2.5-1.7
					c1-0.4,2-0.6,3.1-0.6h25.4c0.6-0.1,1.2,0.3,1.3,0.9c0,0.1,0,0.2,0,0.3v8.3c0,0.3-0.1,0.7-0.4,0.9c-0.3,0.2-0.6,0.3-0.9,0.3
					h-21.5c-0.3,0-0.7,0.1-0.9,0.4c-0.2,0.2-0.4,0.6-0.3,0.9v5.5c0,0.3,0.1,0.7,0.3,0.9c0.2,0.3,0.5,0.4,0.9,0.4h16.4
					C229.2,560.8,230.2,561,231.2,561.4z"/>
				<path class="st2" d="M278,542c1.1,0,2.1,0.2,3.1,0.6c0.9,0.4,1.8,1,2.5,1.7c0.7,0.7,1.3,1.6,1.7,2.5c0.4,1,0.6,2,0.6,3.1v31.5
					c0,1.1-0.2,2.1-0.6,3.1c-0.4,0.9-1,1.8-1.7,2.5c-0.7,0.7-1.6,1.3-2.5,1.7c-1,0.4-2,0.6-3.1,0.6h-23.9c-1.1,0-2.1-0.2-3.1-0.6
					c-0.9-0.4-1.8-1-2.5-1.7c-1.5-1.5-2.3-3.5-2.3-5.6v-31.5c0-1.1,0.2-2.1,0.6-3.1c0.4-0.9,1-1.8,1.7-2.5c0.7-0.7,1.6-1.3,2.5-1.7
					c1-0.4,2-0.6,3.1-0.6H278z M274,553.5h-16v24.3h15.9L274,553.5z"/>
				<path class="st2" d="M335.8,542.4c0.2,0.2,0.4,0.6,0.4,0.9V588c0,0.3-0.1,0.7-0.4,0.9c-0.2,0.2-0.6,0.4-0.9,0.4h-9.7
					c-0.4,0-0.8-0.1-1.1-0.3c-0.3-0.2-0.6-0.4-0.8-0.8l-14.9-27.5V588c0.1,0.6-0.3,1.2-1,1.3c-0.1,0-0.2,0-0.3,0h-9.3
					c-0.6,0.1-1.2-0.3-1.3-1c0-0.1,0-0.2,0-0.3v-44.7c-0.1-0.6,0.3-1.2,1-1.3c0.1,0,0.2,0,0.3,0h9.6c0.4,0,0.8,0.1,1.1,0.3
					c0.3,0.2,0.6,0.4,0.8,0.8l15,27.6v-27.4c0-0.3,0.1-0.7,0.4-0.9c0.2-0.2,0.6-0.4,0.9-0.4h9.4C335.2,542,335.5,542.1,335.8,542.4z
					"/>
			</g>
			<g id="_2020">
				<path class="st2" d="M76.2,487.8V498c0.1,1,1,1.8,2.1,1.7h38.3c0.6,0,1.1,0.2,1.5,0.6c0.4,0.4,0.6,1,0.6,1.5v13.8
					c0,0.6-0.2,1.1-0.6,1.5c-0.4,0.4-0.9,0.6-1.5,0.6H60.5c-1,0.1-2-0.6-2.2-1.6c0-0.2,0-0.4,0-0.5V483c0-1.8,0.3-3.5,1-5.1
					c0.7-1.6,1.6-3,2.8-4.2c1.2-1.2,2.7-2.2,4.3-2.9c1.6-0.7,3.4-1,5.2-1h27c1.2,0,2.1-0.9,2.2-2.1c0,0,0,0,0-0.1v-9.2
					c0-0.6-0.2-1.1-0.6-1.5c-0.4-0.4-1-0.6-1.5-0.6H62.9c-1.1,0-2-0.8-2.1-1.9c0,0,0-0.1,0-0.1v-14c0-0.6,0.2-1.1,0.6-1.5
					c0.4-0.4,0.9-0.6,1.5-0.6h42.5c1.8,0,3.5,0.4,5.1,1.1c1.6,0.7,3,1.7,4.2,2.9c1.2,1.2,2.2,2.6,2.8,4.2c0.7,1.6,1,3.4,1,5.2v3.2
					c0.1,0.1,0.1,0.2,0.1,0.3V484c0,0.6-0.2,1.1-0.6,1.5c-0.4,0.4-1,0.6-1.5,0.6H78.3C77.3,486,76.4,486.8,76.2,487.8z"/>
				<path class="st2" d="M178.3,438c1.8,0,3.6,0.4,5.2,1.1c3.2,1.4,5.7,3.9,7.1,7.1c0.7,1.6,1.1,3.4,1.1,5.2v53.1
					c0,1.8-0.4,3.6-1.1,5.2c-0.7,1.6-1.7,3-2.9,4.3c-1.2,1.2-2.6,2.2-4.2,2.8c-1.6,0.7-3.4,1-5.2,1H144c-1.8,0-3.5-0.3-5.2-1
					c-3.2-1.3-5.8-3.9-7.1-7.1c-0.7-1.6-1-3.4-1-5.2v-53.1c0-1.8,0.3-3.5,1-5.2c0.7-1.6,1.6-3,2.9-4.2c1.2-1.2,2.7-2.2,4.3-2.9
					c1.6-0.7,3.4-1.1,5.2-1.1H178.3L178.3,438z M172.3,457.4H150v41h22.2L172.3,457.4z"/>
				<path class="st2" d="M221.1,487.8V498c0.1,1,1,1.8,2,1.7h38.3c0.6,0,1.1,0.2,1.5,0.6c0.4,0.4,0.6,1,0.6,1.5v13.8
					c0,0.6-0.2,1.1-0.6,1.5c-0.4,0.4-0.9,0.6-1.5,0.6h-56c-1,0.1-2-0.6-2.2-1.6c0-0.2,0-0.4,0-0.5V483c0-1.8,0.3-3.5,1-5.1
					c0.7-1.6,1.6-3,2.8-4.2c1.2-1.2,2.7-2.2,4.3-2.9c1.6-0.7,3.4-1,5.2-1h27c0.6,0,1.1-0.2,1.5-0.6c0.4-0.4,0.6-1,0.6-1.5v-9.2
					c0-1.2-1-2.2-2.1-2.2c0,0,0,0,0,0h-35.8c-1.1,0-2-0.8-2.1-1.9c0,0,0-0.1,0-0.1v-14c0-0.6,0.2-1.1,0.6-1.5
					c0.4-0.4,0.9-0.6,1.5-0.6h42.5c1.8,0,3.5,0.4,5.1,1.1c1.6,0.7,3,1.7,4.2,2.9c1.2,1.2,2.2,2.6,2.9,4.2c0.7,1.6,1,3.4,1,5.2v3.2
					c0.1,0.1,0.1,0.2,0.1,0.3V484c0,0.6-0.2,1.1-0.6,1.5c-0.4,0.4-1,0.6-1.5,0.6h-38.2C222.2,486,221.3,486.8,221.1,487.8z"/>
				<path class="st2" d="M323.2,438c1.8,0,3.5,0.4,5.2,1.1c3.2,1.4,5.7,3.9,7.1,7.1c0.7,1.6,1.1,3.4,1.1,5.2v53.1
					c0,1.8-0.4,3.6-1.1,5.2c-0.7,1.6-1.7,3-2.9,4.3c-1.2,1.2-2.6,2.2-4.2,2.8c-1.6,0.7-3.4,1-5.2,1h-34.3c-3.5,0-6.9-1.4-9.5-3.9
					c-1.2-1.2-2.2-2.7-2.9-4.3c-0.7-1.6-1-3.4-1-5.2v-53.1c0-1.8,0.3-3.5,1-5.2c0.7-1.6,1.6-3,2.9-4.2c1.2-1.2,2.7-2.2,4.3-2.9
					c1.6-0.7,3.4-1.1,5.2-1.1L323.2,438L323.2,438z M317.1,457.4h-22.2v41h22.2V457.4z"/>
			</g>
		</g>
		<g id="MLH_Logo">
			<path class="st2" d="M80.6,157.5c0.5,0.2,1,0.7,1.2,1.2c0.1,0.3,0.2,0.6,0.2,0.9v11c0,0.1,0,0.2-0.1,0.3
				c-0.1,0.1-0.2,0.1-0.3,0.1H79c-0.1,0-0.2,0-0.2-0.1c-0.1-0.1-0.1-0.2-0.1-0.3v-9.9h-2.2v9.9c0,0.1,0,0.2-0.1,0.3
				c-0.1,0.1-0.2,0.1-0.2,0.1h-2.5c-0.1,0-0.2,0-0.3-0.1c-0.1-0.1-0.1-0.2-0.1-0.3v-9.9h-2.2v9.9c0,0.2-0.1,0.3-0.3,0.4
				c0,0,0,0-0.1,0h-2.7c-0.2,0-0.3-0.1-0.4-0.3c0,0,0-0.1,0-0.1v-12.9c0-0.2,0.1-0.3,0.3-0.4c0,0,0.1,0,0.1,0h11.7
				C80.1,157.3,80.4,157.4,80.6,157.5z"/>
			<path class="st2" d="M94.2,157.3c0.3,0,0.6,0.1,0.9,0.2c0.5,0.2,1,0.7,1.2,1.2c0.1,0.3,0.2,0.6,0.2,0.9v11c0,0.1,0,0.2-0.1,0.3
				c-0.1,0.1-0.2,0.1-0.3,0.1h-2.7c-0.1,0-0.2,0-0.3-0.1c-0.1-0.1-0.1-0.2-0.1-0.3v-3.5c0-0.1,0-0.2-0.1-0.3
				c-0.1-0.1-0.2-0.1-0.3-0.1h-3.8c-0.1,0-0.2,0-0.3,0.1c-0.1,0.1-0.1,0.2-0.1,0.3v3.5c0,0.2-0.1,0.3-0.3,0.4c0,0-0.1,0-0.1,0h-2.7
				c-0.2,0-0.3-0.1-0.4-0.3c0,0,0-0.1,0-0.1v-11c0-0.3,0.1-0.6,0.2-0.9c0.1-0.3,0.3-0.5,0.5-0.7c0.2-0.2,0.5-0.4,0.7-0.5
				c0.3-0.1,0.6-0.2,0.9-0.2H94.2z M93.1,163.8v-3.4h-4.6v3.4H93.1z"/>
			<path class="st2" d="M108.7,157.4c0.1,0.1,0.1,0.2,0.1,0.3v10.9c0,0.3-0.1,0.6-0.2,0.9c-0.1,0.3-0.3,0.5-0.5,0.7
				c-0.4,0.4-1,0.7-1.6,0.7h-5.8c-0.3,0-0.6-0.1-0.9-0.2c-0.5-0.2-1-0.7-1.2-1.2c-0.1-0.3-0.2-0.6-0.2-0.9v-4.1
				c0-0.2,0.1-0.3,0.3-0.4c0,0,0.1,0,0.1,0h2.7c0.2,0,0.3,0.1,0.4,0.3c0,0,0,0.1,0,0.1v2.8c0,0.1,0,0.2,0.1,0.3
				c0.1,0.1,0.2,0.1,0.3,0.1h2.8c0.1,0,0.2,0,0.3-0.1c0.1-0.1,0.1-0.2,0.1-0.3v-9.6c0-0.1,0-0.2,0.1-0.3c0.1-0.1,0.2-0.1,0.3-0.1
				h2.7C108.6,157.3,108.7,157.4,108.7,157.4z"/>
			<path class="st2" d="M121,157.3c0.3,0,0.6,0.1,0.9,0.2c0.3,0.1,0.5,0.3,0.7,0.5c0.2,0.2,0.4,0.5,0.5,0.7c0.1,0.3,0.2,0.6,0.2,0.9
				v9c0,0.3-0.1,0.6-0.2,0.9c-0.1,0.3-0.3,0.5-0.5,0.7c-0.2,0.2-0.4,0.4-0.7,0.5c-0.3,0.1-0.6,0.2-0.9,0.2h-6.9
				c-1.2,0-2.3-1-2.3-2.2c0,0,0,0,0-0.1v-9c0-0.3,0.1-0.6,0.2-0.9c0.1-0.3,0.3-0.5,0.5-0.7c0.2-0.2,0.5-0.4,0.7-0.5
				c0.3-0.1,0.6-0.2,0.9-0.2H121z M119.8,160.6h-4.6v7h4.6V160.6z"/>
			<path class="st2" d="M138.2,170.6c0,0.1,0,0.2,0,0.2c-0.1,0.1-0.1,0.1-0.2,0.1h-3.1c-0.1,0-0.2,0-0.3-0.1
				c-0.1-0.1-0.2-0.1-0.2-0.2l-2.1-3.7c0,0-0.1-0.1-0.1-0.1h-2.3c-0.1,0-0.1,0-0.1,0.1v3.6c0,0.2-0.1,0.3-0.3,0.4c0,0-0.1,0-0.1,0
				h-2.7c-0.2,0-0.3-0.1-0.4-0.3c0,0,0,0,0-0.1v-12.9c0-0.2,0.1-0.3,0.3-0.4c0,0,0.1,0,0.1,0h8.8c0.3,0,0.6,0.1,0.9,0.2
				c0.3,0.1,0.5,0.3,0.7,0.5c0.2,0.2,0.4,0.4,0.5,0.7c0.1,0.3,0.2,0.6,0.2,0.9v5.1c0,0.5-0.1,0.9-0.4,1.3c-0.3,0.4-0.7,0.7-1.1,0.8
				h-0.1c-0.1,0-0.1,0.1,0,0.1l0,0L138.2,170.6z M134.3,160.5h-4.7v3.3h4.7V160.5z"/>
			<path class="st2" d="M156.5,167.6c0.1,0,0.2,0,0.2,0.1c0.1,0.1,0.1,0.2,0.1,0.3v2.6c0,0.1,0,0.2-0.1,0.3
				c-0.1,0.1-0.2,0.1-0.2,0.1h-8.4c-0.2,0-0.3-0.1-0.4-0.3c0,0,0-0.1,0-0.1v-12.9c0-0.2,0.1-0.3,0.3-0.4c0,0,0.1,0,0.1,0h2.7
				c0.2,0,0.3,0.1,0.4,0.3c0,0,0,0.1,0,0.1v9.6c0,0.1,0,0.2,0.1,0.3c0.1,0.1,0.2,0.1,0.3,0.1H156.5z"/>
			<path class="st2" d="M169,157.4c0.1,0.1,0.1,0.2,0.1,0.3v2.4c0,0.1,0,0.2-0.1,0.3c-0.1,0.1-0.2,0.1-0.3,0.1h-6.5
				c0,0-0.1,0-0.1,0.1c0,0,0,0,0,0v2.1c0,0.1,0,0.1,0.1,0.1h5.6c0.1,0,0.2,0,0.2,0.1c0.1,0.1,0.1,0.2,0.1,0.3v1.9
				c0,0.1,0,0.2-0.1,0.3c-0.1,0.1-0.2,0.1-0.2,0.1h-5.6c-0.1,0-0.1,0-0.1,0.1v1l0,0v1.1c0,0.1,0,0.1,0.1,0.1h6.5
				c0.2,0,0.4,0.1,0.4,0.3c0,0,0,0,0,0.1v2.4c0,0.1,0,0.2-0.1,0.3c-0.1,0.1-0.2,0.1-0.3,0.1h-9.6c-0.2,0-0.3-0.1-0.4-0.3
				c0,0,0-0.1,0-0.1v-12.9c0-0.1,0-0.2,0.1-0.3c0.1-0.1,0.2-0.1,0.3-0.1h9.6C168.8,157.3,168.9,157.4,169,157.4z"/>
			<path class="st2" d="M181.4,157.3c0.3,0,0.6,0.1,0.9,0.2c0.5,0.2,1,0.7,1.2,1.2c0.1,0.3,0.2,0.6,0.2,0.9v11c0,0.1,0,0.2-0.1,0.3
				c-0.1,0.1-0.2,0.1-0.3,0.1h-2.7c-0.1,0-0.2,0-0.3-0.1c-0.1-0.1-0.1-0.2-0.1-0.3v-3.5c0-0.1,0-0.2-0.1-0.3
				c-0.1-0.1-0.2-0.1-0.2-0.1H176c-0.2,0-0.4,0.2-0.4,0.4v3.5c0,0.2-0.1,0.3-0.3,0.4c0,0-0.1,0-0.1,0h-2.7c-0.2,0-0.3-0.1-0.4-0.3
				c0,0,0,0,0-0.1v-11c0-0.3,0.1-0.6,0.2-0.9c0.1-0.3,0.3-0.5,0.5-0.7c0.2-0.2,0.5-0.4,0.7-0.5c0.3-0.1,0.6-0.2,0.9-0.2H181.4z
				 M180.2,163.8v-3.4h-4.6v3.4H180.2z"/>
			<path class="st2" d="M198,163.6c0.1,0.1,0.1,0.2,0.1,0.3v4.8c0,0.3-0.1,0.6-0.2,0.9c-0.1,0.3-0.3,0.5-0.5,0.7
				c-0.2,0.2-0.4,0.4-0.7,0.5c-0.3,0.1-0.6,0.2-0.9,0.2h-6.9c-0.3,0-0.6-0.1-0.9-0.2c-0.3-0.1-0.5-0.3-0.7-0.5
				c-0.2-0.2-0.4-0.4-0.5-0.7c-0.1-0.3-0.2-0.6-0.2-0.9v-9c0-0.3,0.1-0.6,0.2-0.9c0.1-0.3,0.3-0.5,0.5-0.7c0.2-0.2,0.5-0.4,0.7-0.5
				c0.3-0.1,0.6-0.2,0.9-0.2h8c0.1,0,0.2,0,0.3,0.1c0.1,0.1,0.1,0.2,0.1,0.3v2.6c0,0.2-0.2,0.4-0.4,0.4h-6.5c-0.1,0-0.2,0-0.3,0.1
				c-0.1,0.1-0.1,0.2-0.1,0.2v6.3c0,0.1,0,0.2,0.1,0.3c0.1,0.1,0.2,0.1,0.3,0.1h3.9c0.1,0,0.2,0,0.2-0.1c0.1-0.1,0.1-0.2,0.1-0.3
				v-3.4c0-0.2,0.2-0.4,0.4-0.4h2.7C197.8,163.5,197.9,163.5,198,163.6z"/>
			<path class="st2" d="M212.3,157.4c0.1,0.1,0.1,0.2,0.1,0.3v10.9c0,0.3-0.1,0.6-0.2,0.9c-0.1,0.3-0.3,0.5-0.5,0.7
				c-0.4,0.4-1,0.7-1.6,0.7h-6.9c-1.2,0-2.3-1-2.3-2.2c0,0,0,0,0-0.1v-10.9c0-0.2,0.1-0.3,0.3-0.4c0,0,0.1,0,0.1,0h2.6
				c0.2,0,0.3,0.1,0.4,0.3c0,0,0,0.1,0,0.1v9.6c0,0.1,0,0.2,0.1,0.3c0.1,0.1,0.2,0.1,0.3,0.1h3.9c0.1,0,0.2,0,0.2-0.1
				c0.1-0.1,0.1-0.2,0.1-0.3v-9.6c0-0.2,0.2-0.4,0.4-0.4h2.7C212.1,157.3,212.2,157.3,212.3,157.4z"/>
			<path class="st2" d="M225.8,157.4c0.1,0.1,0.1,0.2,0.1,0.3v2.4c0,0.1,0,0.2-0.1,0.3c-0.1,0.1-0.2,0.1-0.3,0.1H219
				c0,0-0.1,0-0.1,0.1c0,0,0,0,0,0v2.1c0,0.1,0,0.1,0.1,0.1h5.6c0.1,0,0.2,0,0.2,0.1c0.1,0.1,0.1,0.2,0.1,0.3v1.9
				c0,0.1,0,0.2-0.1,0.3c-0.1,0.1-0.2,0.1-0.2,0.1H219c-0.1,0-0.1,0-0.1,0.1v1l0,0v1.1c0,0,0,0.1,0.1,0.1c0,0,0,0,0,0h6.5
				c0.1,0,0.2,0,0.3,0.1c0.1,0.1,0.1,0.2,0.1,0.3v2.4c0,0.1,0,0.2-0.1,0.3c-0.1,0.1-0.2,0.1-0.3,0.1h-9.6c-0.2,0-0.3-0.1-0.4-0.3
				c0,0,0-0.1,0-0.1v-12.9c0-0.1,0-0.2,0.1-0.3c0.1-0.1,0.2-0.1,0.3-0.1h9.6C225.6,157.3,225.7,157.4,225.8,157.4z"/>
			<path class="st2" d="M246.6,157.3c0.1,0,0.2,0,0.3,0.1c0.1,0.1,0.1,0.2,0.1,0.3v12.9c0,0.1,0,0.2-0.1,0.3
				c-0.1,0.1-0.2,0.1-0.3,0.1h-2.7c-0.1,0-0.2,0-0.3-0.1c-0.1-0.1-0.1-0.2-0.1-0.3v-4.5c0-0.2-0.1-0.3-0.3-0.4c0,0,0,0,0,0h-3.9
				c-0.1,0-0.2,0-0.3,0.1c-0.1,0.1-0.1,0.2-0.1,0.2v4.5c0,0.2-0.1,0.3-0.3,0.4c0,0,0,0-0.1,0h-2.7c-0.2,0-0.3-0.1-0.4-0.3
				c0,0,0-0.1,0-0.1v-12.9c0-0.2,0.1-0.3,0.3-0.4c0,0,0.1,0,0.1,0h2.7c0.2,0,0.3,0.1,0.4,0.3c0,0,0,0.1,0,0.1v4.3
				c0,0.2,0.1,0.3,0.3,0.4c0,0,0,0,0.1,0h3.9c0.1,0,0.2,0,0.2-0.1c0.1-0.1,0.1-0.2,0.1-0.3v-4.4c0-0.1,0-0.2,0.1-0.3
				c0.1-0.1,0.2-0.1,0.3-0.1L246.6,157.3z"/>
			<path class="st2" d="M259.2,157.3c0.3,0,0.6,0.1,0.9,0.2c0.3,0.1,0.5,0.3,0.7,0.5c0.2,0.2,0.4,0.5,0.5,0.7
				c0.1,0.3,0.2,0.6,0.2,0.9v11c0,0.1,0,0.2-0.1,0.3c-0.1,0.1-0.2,0.1-0.3,0.1h-2.7c-0.1,0-0.2,0-0.3-0.1c-0.1-0.1-0.1-0.2-0.1-0.3
				v-3.5c0-0.1,0-0.2-0.1-0.3c-0.1-0.1-0.2-0.1-0.2-0.1h-3.9c-0.2,0-0.4,0.2-0.4,0.4v3.5c0,0.2-0.1,0.3-0.3,0.4c0,0-0.1,0-0.1,0
				h-2.7c-0.2,0-0.3-0.1-0.4-0.3c0,0,0-0.1,0-0.1v-11c0-0.3,0.1-0.6,0.2-0.9c0.1-0.3,0.3-0.5,0.5-0.7c0.2-0.2,0.5-0.4,0.7-0.5
				c0.3-0.1,0.6-0.2,0.9-0.2H259.2z M258,163.8v-3.4h-4.6v3.4H258z"/>
			<path class="st2" d="M268,160.7c-0.1,0.1-0.1,0.2-0.1,0.2v6.3c0,0.1,0,0.2,0.1,0.3c0.1,0.1,0.2,0.1,0.3,0.1h6.2
				c0.2,0,0.4,0.2,0.4,0.4v2.6c0,0.1,0,0.2-0.1,0.3c-0.1,0.1-0.2,0.1-0.3,0.1h-7.8c-0.3,0-0.6-0.1-0.9-0.2c-0.3-0.1-0.5-0.3-0.7-0.5
				c-0.2-0.2-0.4-0.5-0.5-0.7c-0.1-0.3-0.2-0.6-0.2-0.9v-9c0-0.3,0.1-0.6,0.2-0.9c0.1-0.3,0.3-0.5,0.5-0.7c0.2-0.2,0.5-0.4,0.7-0.5
				c0.3-0.1,0.6-0.2,0.9-0.2h7.8c0.1,0,0.2,0,0.3,0.1c0.1,0.1,0.1,0.2,0.1,0.3v2.6c0,0.2-0.2,0.4-0.4,0.4h-6.2
				C268.2,160.7,268.1,160.7,268,160.7z"/>
			<path class="st2" d="M285.7,163.1c0,0,0,0.1,0,0.1c0,0,0,0,0,0l4.5,7.4c0,0.1,0,0.2,0,0.2c-0.1,0.1-0.1,0.1-0.2,0.1h-3.2
				c-0.2,0-0.4-0.1-0.5-0.3l-2.9-5.3c0-0.1-0.1-0.1-0.1,0l-1.6,1.8c-0.1,0.1-0.1,0.2-0.2,0.3c0,0.1-0.1,0.2-0.1,0.3v2.9
				c0,0.2-0.1,0.3-0.3,0.4c0,0,0,0-0.1,0h-2.7c-0.2,0-0.3-0.1-0.4-0.3c0,0,0-0.1,0-0.1v-12.9c0-0.2,0.1-0.3,0.3-0.4c0,0,0.1,0,0.1,0
				h2.7c0.2,0,0.3,0.1,0.4,0.3c0,0,0,0.1,0,0.1v5.8l5-5.9c0.1-0.1,0.2-0.2,0.3-0.2c0.1-0.1,0.2-0.1,0.3-0.1h3.2c0.1,0,0.2,0,0.2,0.1
				s0,0.1-0.1,0.2L285.7,163.1z"/>
			<path class="st2" d="M296.2,170.6c0,0.2-0.1,0.3-0.3,0.4c0,0,0,0-0.1,0h-2.7c-0.2,0-0.3-0.1-0.4-0.3c0,0,0-0.1,0-0.1v-12.9
				c0-0.2,0.1-0.3,0.3-0.4c0,0,0.1,0,0.1,0h2.7c0.2,0,0.3,0.1,0.4,0.3c0,0,0,0.1,0,0.1V170.6z"/>
			<path class="st2" d="M309.2,157.5c0.3,0.1,0.5,0.3,0.7,0.5c0.2,0.2,0.4,0.5,0.5,0.7c0.1,0.3,0.2,0.6,0.2,0.9v11
				c0,0.1,0,0.2-0.1,0.3c-0.1,0.1-0.2,0.1-0.3,0.1h-2.7c-0.1,0-0.2,0-0.2-0.1c-0.1-0.1-0.1-0.2-0.1-0.3V161c0-0.1,0-0.2-0.1-0.2
				c-0.1-0.1-0.2-0.1-0.3-0.1H303c-0.1,0-0.2,0-0.3,0.1c-0.1,0.1-0.1,0.2-0.1,0.2v9.6c0,0.2-0.1,0.3-0.3,0.4c0,0,0,0-0.1,0h-2.7
				c-0.2,0-0.3-0.1-0.4-0.3c0,0,0-0.1,0-0.1v-12.9c0-0.2,0.1-0.3,0.3-0.4c0,0,0.1,0,0.1,0h8.8C308.7,157.3,309,157.4,309.2,157.5z"
				/>
			<path class="st2" d="M325,163.6c0.1,0.1,0.1,0.2,0.1,0.3v4.8c0,0.3-0.1,0.6-0.2,0.9c-0.1,0.3-0.3,0.5-0.5,0.7
				c-0.2,0.2-0.4,0.4-0.7,0.5c-0.3,0.1-0.6,0.2-0.9,0.2H316c-1.2,0-2.3-1-2.3-2.2c0,0,0,0,0,0v-9c0-0.3,0.1-0.6,0.2-0.9
				c0.1-0.3,0.3-0.5,0.5-0.7c0.2-0.2,0.5-0.4,0.7-0.5c0.3-0.1,0.6-0.2,0.9-0.2h8c0.1,0,0.2,0,0.3,0.1c0.1,0.1,0.1,0.2,0.1,0.3v2.6
				c0,0.2-0.2,0.4-0.4,0.4h-6.5c-0.1,0-0.2,0-0.3,0.1c-0.1,0.1-0.1,0.2-0.1,0.2v6.3c0,0.1,0,0.2,0.1,0.3c0.1,0.1,0.2,0.1,0.3,0.1
				h3.9c0.1,0,0.2,0,0.2-0.1c0.1-0.1,0.1-0.2,0.1-0.3v-3.4c0-0.1,0-0.2,0.1-0.3c0.1-0.1,0.2-0.1,0.3-0.1h2.7
				C324.8,163.5,324.9,163.5,325,163.6z"/>
			<path class="st2" d="M149.6,63.7c1.7,0.7,3.2,1.8,4.5,3.1c1.3,1.3,2.3,2.8,3.1,4.5c0.8,1.8,1.2,3.7,1.2,5.6v71.3
				c0,0.6-0.2,1.2-0.7,1.6c-0.4,0.4-1,0.7-1.6,0.7H139c-0.6,0-1.2-0.2-1.6-0.7c-0.4-0.4-0.6-1-0.6-1.6V83.4H123v64.8
				c0,0.6-0.2,1.2-0.6,1.6c-0.4,0.4-1,0.7-1.6,0.7h-15.4c-0.6,0-1.2-0.2-1.7-0.7c-0.4-0.4-0.7-1-0.7-1.6V83.4H89.3v64.8
				c0.2,1.1-0.6,2.2-1.8,2.3c-0.2,0-0.3,0-0.5,0H70c-1.1,0.2-2.2-0.6-2.3-1.7c0-0.2,0-0.4,0-0.6V64.9c-0.2-1.1,0.6-2.2,1.7-2.3
				c0.2,0,0.4,0,0.6,0h74C145.9,62.5,147.8,62.9,149.6,63.7z"/>
			<path class="st2" d="M149.6,63.7c1.7,0.7,3.2,1.8,4.5,3.1c1.3,1.3,2.3,2.8,3.1,4.5c0.8,1.8,1.2,3.7,1.2,5.6v6.4l-21.6,0.1H89.3
				l-21.6-0.1V64.9c-0.2-1.1,0.6-2.2,1.8-2.3c0.2,0,0.4,0,0.6,0h74C145.9,62.5,147.8,62.9,149.6,63.7z"/>
			<path class="st2" d="M232.8,129.2c0.6,0,1.3,0.2,1.7,0.7c0.4,0.5,0.7,1.1,0.6,1.7v16.6c0,0.6-0.2,1.2-0.6,1.7
				c-0.4,0.5-1.1,0.7-1.7,0.7h-58.4c-1.2,0.2-2.3-0.6-2.5-1.8c0-0.2,0-0.4,0-0.6V65c-0.1-1.2,0.7-2.3,1.9-2.4c0.2,0,0.4,0,0.6,0
				h17.9c1.2-0.2,2.3,0.6,2.5,1.8c0,0.2,0,0.4,0,0.6v62c0,0.6,0.2,1.2,0.7,1.6c0.5,0.4,1.1,0.6,1.8,0.6L232.8,129.2z"/>
			<path class="st2" d="M194.6,150.6h-20.2c-1.2,0.2-2.3-0.6-2.5-1.8c0-0.2,0-0.4,0-0.6V65c-0.1-1.2,0.7-2.3,1.9-2.4
				c0.2,0,0.4,0,0.6,0h17.9c1.2-0.2,2.3,0.6,2.5,1.8c0,0.2,0,0.4,0,0.6v62C194.7,127.6,194.6,150.6,194.6,150.6z"/>
			<path class="st2" d="M322.6,62.6c0.7,0,1.3,0.2,1.8,0.7c0.5,0.4,0.7,1.1,0.7,1.7v83.5c0,0.6-0.2,1.3-0.7,1.7
				c-0.5,0.5-1.1,0.7-1.8,0.7h-18.2c-0.7,0-1.3-0.2-1.8-0.7c-0.5-0.4-0.7-1.1-0.7-1.7v-29.1c0-0.6-0.2-1.2-0.6-1.6
				c-0.5-0.4-1.1-0.7-1.7-0.6h-25.5c-0.6,0-1.3,0.2-1.8,0.6c-0.5,0.4-0.7,1-0.7,1.6v29.1c0,1.6-0.8,2.4-2.5,2.4h-18
				c-1.7,0-2.5-0.8-2.5-2.4V65c0-1.6,0.8-2.4,2.5-2.4h18c1.7,0,2.5,0.8,2.5,2.4v28.2c-0.2,1.2,0.7,2.3,1.9,2.4c0.2,0,0.4,0,0.6,0
				h25.5c0.6,0,1.3-0.2,1.7-0.7c0.4-0.5,0.7-1.1,0.6-1.7V65c0-0.6,0.2-1.3,0.7-1.7c0.5-0.5,1.1-0.7,1.8-0.7L322.6,62.6z"/>
			<path class="st2" d="M271.6,119.3v29.1c0,1.6-0.8,2.4-2.5,2.4h-18c-1.7,0-2.5-0.8-2.5-2.4V65c0-1.6,0.8-2.4,2.5-2.4h18
				c1.7,0,2.5,0.8,2.5,2.4V119.3L271.6,119.3z"/>
			<path class="st2" d="M322.6,62.6c0.7,0,1.3,0.2,1.8,0.7c0.5,0.4,0.7,1.1,0.7,1.7v83.5c0,0.6-0.2,1.3-0.7,1.7
				c-0.5,0.5-1.1,0.7-1.8,0.7h-18.2c-0.7,0-1.3-0.2-1.8-0.7c-0.5-0.4-0.7-1.1-0.7-1.7V65c0-0.6,0.2-1.3,0.7-1.7
				c0.5-0.5,1.1-0.7,1.8-0.7L322.6,62.6z"/>
		</g>
	</g>
</g>
</svg>
