<?xml version="1.0" encoding="UTF-8" standalone="no"?>
<!-- Created with Inkscape (http://www.inkscape.org/) -->

<svg
   xmlns:dc="http://purl.org/dc/elements/1.1/"
   xmlns:cc="http://creativecommons.org/ns#"
   xmlns:rdf="http://www.w3.org/1999/02/22-rdf-syntax-ns#"
   xmlns:svg="http://www.w3.org/2000/svg"
   xmlns="http://www.w3.org/2000/svg"
   xmlns:xlink="http://www.w3.org/1999/xlink"
   xmlns:sodipodi="http://sodipodi.sourceforge.net/DTD/sodipodi-0.dtd"
   xmlns:inkscape="http://www.inkscape.org/namespaces/inkscape"
   width="300"
   height="46.412663"
   id="svg2"
   version="1.1"
   inkscape:version="0.48.2 r9819"
   sodipodi:docname="New document 1">
  <defs
     id="defs4">
    <clipPath
       id="clipPath4465"
       clipPathUnits="userSpaceOnUse">
      <path
         id="path4467"
         d="m 62.789,504.4 34.56,0 0,32.4 -34.56,0 0,-32.4 z"
         inkscape:connector-curvature="0" />
    </clipPath>
    <clipPath
       id="clipPath4449"
       clipPathUnits="userSpaceOnUse">
      <path
         id="path4451"
         d="m 68.378,509.44 25.371,0 0,22.479 -25.371,0 0,-22.479 z"
         inkscape:connector-curvature="0" />
    </clipPath>
    <linearGradient
       id="linearGradient4437"
       spreadMethod="pad"
       gradientTransform="matrix(558,0,0,558,27,738.78)"
       gradientUnits="userSpaceOnUse"
       y2="0"
       x2="1"
       y1="0"
       x1="0">
      <stop
         id="stop4439"
         offset="0"
         style="stop-opacity:1;stop-color:#192a4a" />
      <stop
         id="stop4441"
         offset="1"
         style="stop-opacity:1;stop-color:#4a8bc9" />
    </linearGradient>
    <linearGradient
       id="linearGradient4427"
       spreadMethod="pad"
       gradientTransform="matrix(558,0,0,558,27,132.84)"
       gradientUnits="userSpaceOnUse"
       y2="0"
       x2="1"
       y1="0"
       x1="0">
      <stop
         id="stop4429"
         offset="0"
         style="stop-opacity:1;stop-color:#192a4a" />
      <stop
         id="stop4431"
         offset="1"
         style="stop-opacity:1;stop-color:#4a8bc9" />
    </linearGradient>
    <clipPath
       id="clipPath4393"
       clipPathUnits="userSpaceOnUse">
      <path
         id="path4395"
         d="M 0,0 612,0 612,792 0,792 0,0 z"
         inkscape:connector-curvature="0" />
    </clipPath>
    <clipPath
       id="clipPath4365"
       clipPathUnits="userSpaceOnUse">
      <path
         id="path4367"
         d="m 63.943,200.817 32.252,0 0,20.583 -32.252,0 0,-20.583 z"
         inkscape:connector-curvature="0" />
    </clipPath>
    <clipPath
       id="clipPath4305"
       clipPathUnits="userSpaceOnUse">
      <path
         id="path4307"
         d="m 67.923,266.523 23.779,0 0,20.668 -23.779,0 0,-20.668 z"
         inkscape:connector-curvature="0" />
    </clipPath>
    <clipPath
       id="clipPath4273"
       clipPathUnits="userSpaceOnUse">
      <path
         id="path4275"
         d="m 67.817,316.323 24.061,0 0,16.731 -24.061,0 0,-16.731 z"
         inkscape:connector-curvature="0" />
    </clipPath>
    <clipPath
       id="clipPath4253"
       clipPathUnits="userSpaceOnUse">
      <path
         id="path4255"
         d="m 67.534,355.073 25.07,0 0,22.892 -25.07,0 0,-22.892 z"
         inkscape:connector-curvature="0" />
    </clipPath>
    <clipPath
       id="clipPath4237"
       clipPathUnits="userSpaceOnUse">
      <path
         id="path4239"
         d="m 69.943,358.166 20.252,0 0,19.8 -20.252,0 0,-19.8 z"
         inkscape:connector-curvature="0" />
    </clipPath>
    <clipPath
       id="clipPath4193"
       clipPathUnits="userSpaceOnUse">
      <path
         id="path4195"
         d="m 67.534,423.274 25.07,0 0,19.526 -25.07,0 0,-19.526 z"
         inkscape:connector-curvature="0" />
    </clipPath>
    <clipPath
       id="clipPath4177"
       clipPathUnits="userSpaceOnUse">
      <path
         id="path4179"
         d="m 68.719,424.747 22.7,0 0,14.58 -22.7,0 0,-14.58 z"
         inkscape:connector-curvature="0" />
    </clipPath>
    <clipPath
       id="clipPath4151"
       clipPathUnits="userSpaceOnUse">
      <path
         id="path4153"
         d="M 0,0 612,0 612,792 0,792 0,0 z"
         inkscape:connector-curvature="0" />
    </clipPath>
    <clipPath
       id="clipPath3099"
       clipPathUnits="userSpaceOnUse">
      <path
         id="path3101"
         d="m 387,680.4 188.64,0 0,18 -188.64,0 0,-18 z"
         inkscape:connector-curvature="0" />
    </clipPath>
    <clipPath
       id="clipPath3085"
       clipPathUnits="userSpaceOnUse">
      <path
         id="path3087"
         d="m 162.72,676.171 182.88,0 0,31.945 -182.88,0 0,-31.945 z"
         inkscape:connector-curvature="0" />
    </clipPath>
    <linearGradient
       id="linearGradient3073"
       spreadMethod="pad"
       gradientTransform="matrix(-5e-7,12.125795,12.125795,5e-7,320.22589,692.19874)"
       gradientUnits="userSpaceOnUse"
       y2="0"
       x2="1"
       y1="0"
       x1="0">
      <stop
         id="stop3075"
         offset="0"
         style="stop-opacity:1;stop-color:#283370" />
      <stop
         id="stop3077"
         offset="1"
         style="stop-opacity:1;stop-color:#4bb0e7" />
    </linearGradient>
    <linearGradient
       id="linearGradient3053"
       spreadMethod="pad"
       gradientTransform="matrix(7.1377506,4.2887983,4.2887983,-7.1377506,324.16052,688.58606)"
       gradientUnits="userSpaceOnUse"
       y2="0"
       x2="1"
       y1="0"
       x1="0">
      <stop
         id="stop3055"
         offset="0"
         style="stop-opacity:1;stop-color:#eaeeef" />
      <stop
         id="stop3057"
         offset="1"
         style="stop-opacity:1;stop-color:#93a5ad" />
    </linearGradient>
    <linearGradient
       id="linearGradient3033"
       spreadMethod="pad"
       gradientTransform="matrix(6.4055726,0,0,-6.4055726,324.86398,687.65087)"
       gradientUnits="userSpaceOnUse"
       y2="0"
       x2="1"
       y1="0"
       x1="0">
      <stop
         id="stop3035"
         offset="0"
         style="stop-opacity:1;stop-color:#641e1f" />
      <stop
         id="stop3037"
         offset="1"
         style="stop-opacity:1;stop-color:#d22a27" />
    </linearGradient>
    <linearGradient
       id="linearGradient3011"
       spreadMethod="pad"
       gradientTransform="matrix(-8e-7,-17.551294,-17.551294,8e-7,332.85547,689.11102)"
       gradientUnits="userSpaceOnUse"
       y2="0"
       x2="1"
       y1="0"
       x1="0">
      <stop
         id="stop3013"
         offset="0"
         style="stop-opacity:1;stop-color:#ec1d27" />
      <stop
         id="stop3015"
         offset="0.754601"
         style="stop-opacity:1;stop-color:#741519" />
      <stop
         id="stop3017"
         offset="1"
         style="stop-opacity:1;stop-color:#741519" />
    </linearGradient>
    <linearGradient
       gradientUnits="userSpaceOnUse"
       y2="566.33307"
       x2="652.13562"
       y1="643.60974"
       x1="531.46777"
       id="linearGradient3102"
       xlink:href="#linearGradient3104"
       inkscape:collect="always" />
    <linearGradient
       gradientUnits="userSpaceOnUse"
       y2="520.51685"
       x2="698.77301"
       y1="622.7948"
       x1="521.99634"
       id="linearGradient3078"
       xlink:href="#linearGradient3072"
       inkscape:collect="always" />
    <linearGradient
       gradientUnits="userSpaceOnUse"
       y2="786.99048"
       x2="525.44409"
       y1="569.81665"
       x1="525.44409"
       id="linearGradient3046"
       xlink:href="#linearGradient3048"
       inkscape:collect="always" />
    <linearGradient
       gradientUnits="userSpaceOnUse"
       y2="473.23691"
       x2="421.73868"
       y1="263.43304"
       x1="421.73868"
       id="linearGradient3026"
       xlink:href="#linearGradient3020"
       inkscape:collect="always" />
    <linearGradient
       id="linearGradient3020">
      <stop
         id="stop3022"
         offset="0"
         style="stop-color:#05aee9;stop-opacity:1" />
      <stop
         style="stop-color:#00a9e0;stop-opacity:1"
         offset="0.09626903"
         id="stop3044" />
      <stop
         style="stop-color:#07a3dc;stop-opacity:1"
         offset="0.20386381"
         id="stop3042" />
      <stop
         style="stop-color:#089dd5;stop-opacity:1"
         offset="0.29863822"
         id="stop3040" />
      <stop
         style="stop-color:#0a92cc;stop-opacity:1"
         offset="0.40429688"
         id="stop3038" />
      <stop
         style="stop-color:#0f87c3;stop-opacity:1"
         offset="0.5"
         id="stop3036" />
      <stop
         style="stop-color:#127cb8;stop-opacity:1"
         offset="0.60000002"
         id="stop3034" />
      <stop
         style="stop-color:#0e70ad;stop-opacity:1"
         offset="0.69999999"
         id="stop3032" />
      <stop
         style="stop-color:#0f63a3;stop-opacity:1"
         offset="0.80000001"
         id="stop3030" />
      <stop
         style="stop-color:#135393;stop-opacity:1"
         offset="0.89999998"
         id="stop3028" />
      <stop
         id="stop3024"
         offset="1"
         style="stop-color:#184485;stop-opacity:1" />
    </linearGradient>
    <linearGradient
       id="linearGradient3048">
      <stop
         style="stop-color:#eb2023;stop-opacity:1"
         offset="0"
         id="stop3050" />
      <stop
         id="stop3052"
         offset="0.09626903"
         style="stop-color:#e92026;stop-opacity:1" />
      <stop
         id="stop3054"
         offset="0.20386381"
         style="stop-color:#e31e27;stop-opacity:1" />
      <stop
         id="stop3056"
         offset="0.29863822"
         style="stop-color:#e01e26;stop-opacity:1" />
      <stop
         id="stop3058"
         offset="0.40429688"
         style="stop-color:#d81f27;stop-opacity:1" />
      <stop
         id="stop3060"
         offset="0.5"
         style="stop-color:#cf2027;stop-opacity:1" />
      <stop
         id="stop3062"
         offset="0.60000002"
         style="stop-color:#c62127;stop-opacity:1" />
      <stop
         id="stop3064"
         offset="0.69999999"
         style="stop-color:#b92025;stop-opacity:1" />
      <stop
         id="stop3066"
         offset="0.80000001"
         style="stop-color:#ae1f23;stop-opacity:1" />
      <stop
         id="stop3068"
         offset="0.89999998"
         style="stop-color:#a01d22;stop-opacity:1" />
      <stop
         style="stop-color:#901c1c;stop-opacity:1"
         offset="1"
         id="stop3070" />
    </linearGradient>
    <linearGradient
       id="linearGradient3072">
      <stop
         id="stop3074"
         offset="0"
         style="stop-color:#e7ebee;stop-opacity:1" />
      <stop
         style="stop-color:#dfe4e8;stop-opacity:1"
         offset="0.24913195"
         id="stop3100" />
      <stop
         style="stop-color:#cad1d7;stop-opacity:1"
         offset="0.4982639"
         id="stop3098" />
      <stop
         style="stop-color:#a8b5bd;stop-opacity:1"
         offset="0.74913192"
         id="stop3096" />
      <stop
         id="stop3076"
         offset="1"
         style="stop-color:#93a6ad;stop-opacity:1" />
    </linearGradient>
    <linearGradient
       id="linearGradient3104">
      <stop
         style="stop-color:#6c221f;stop-opacity:1"
         offset="0"
         id="stop3106" />
      <stop
         id="stop3108"
         offset="0.24913195"
         style="stop-color:#7f2620;stop-opacity:1" />
      <stop
         id="stop3110"
         offset="0.4982639"
         style="stop-color:#982b24;stop-opacity:1" />
      <stop
         id="stop3112"
         offset="0.74913192"
         style="stop-color:#b53125;stop-opacity:1" />
      <stop
         style="stop-color:#cb3327;stop-opacity:1"
         offset="1"
         id="stop3114" />
    </linearGradient>
    <linearGradient
       inkscape:collect="always"
       xlink:href="#linearGradient3048"
       id="linearGradient5429"
       gradientUnits="userSpaceOnUse"
       x1="525.44409"
       y1="569.81665"
       x2="525.44409"
       y2="786.99048" />
    <linearGradient
       inkscape:collect="always"
       xlink:href="#linearGradient3104"
       id="linearGradient5431"
       gradientUnits="userSpaceOnUse"
       x1="531.46777"
       y1="643.60974"
       x2="652.13562"
       y2="566.33307" />
    <linearGradient
       inkscape:collect="always"
       xlink:href="#linearGradient3072"
       id="linearGradient5433"
       gradientUnits="userSpaceOnUse"
       x1="521.99634"
       y1="622.7948"
       x2="698.77301"
       y2="520.51685" />
    <linearGradient
       inkscape:collect="always"
       xlink:href="#linearGradient3020"
       id="linearGradient5435"
       gradientUnits="userSpaceOnUse"
       x1="421.73868"
       y1="263.43304"
       x2="421.73868"
       y2="473.23691" />
    <linearGradient
       inkscape:collect="always"
       xlink:href="#linearGradient3011"
       id="linearGradient5449"
       gradientUnits="userSpaceOnUse"
       gradientTransform="matrix(-8e-7,-17.551294,-17.551294,8e-7,332.85547,689.11102)"
       spreadMethod="pad"
       x1="0"
       y1="0"
       x2="1"
       y2="0" />
    <linearGradient
       inkscape:collect="always"
       xlink:href="#linearGradient3048"
       id="linearGradient5465"
       gradientUnits="userSpaceOnUse"
       x1="525.44409"
       y1="569.81665"
       x2="525.44409"
       y2="786.99048" />
    <linearGradient
       inkscape:collect="always"
       xlink:href="#linearGradient3104"
       id="linearGradient5467"
       gradientUnits="userSpaceOnUse"
       x1="531.46777"
       y1="643.60974"
       x2="652.13562"
       y2="566.33307" />
    <linearGradient
       inkscape:collect="always"
       xlink:href="#linearGradient3072"
       id="linearGradient5469"
       gradientUnits="userSpaceOnUse"
       x1="521.99634"
       y1="622.7948"
       x2="698.77301"
       y2="520.51685" />
    <linearGradient
       inkscape:collect="always"
       xlink:href="#linearGradient3020"
       id="linearGradient5471"
       gradientUnits="userSpaceOnUse"
       x1="421.73868"
       y1="263.43304"
       x2="421.73868"
       y2="473.23691" />
  </defs>
  <sodipodi:namedview
     id="base"
     pagecolor="#ffffff"
     bordercolor="#666666"
     borderopacity="1.0"
     inkscape:pageopacity="0.0"
     inkscape:pageshadow="2"
     inkscape:zoom="1.979899"
     inkscape:cx="247.82949"
     inkscape:cy="-39.177568"
     inkscape:document-units="px"
     inkscape:current-layer="g2993"
     showgrid="false"
     fit-margin-left="0.5"
     fit-margin-top="0.5"
     fit-margin-bottom="0.5"
     fit-margin-right="0.5"
     inkscape:window-width="1920"
     inkscape:window-height="1028"
     inkscape:window-x="-8"
     inkscape:window-y="-8"
     inkscape:window-maximized="1" />
  <metadata
     id="metadata7">
    <rdf:RDF>
      <cc:Work
         rdf:about="">
        <dc:format>image/svg+xml</dc:format>
        <dc:type
           rdf:resource="http://purl.org/dc/dcmitype/StillImage" />
        <dc:title></dc:title>
      </cc:Work>
    </rdf:RDF>
  </metadata>
  <g
     inkscape:label="Layer 1"
     inkscape:groupmode="layer"
     id="layer1"
     transform="translate(-137.89356,-32.599422)">
    <g
       transform="matrix(1.25,0,0,-1.25,-428.21429,879.32551)"
       inkscape:label="US_Airways_Side_by_Side_Factsheet"
       id="g2993">
      <g
         id="g5437" />
      <g
         id="g5451"
         transform="matrix(1.3439297,0,0,1.3439297,230.19543,-269.75452)">
        <g
           transform="matrix(0.72462467,0,0,-0.72462467,-193.02879,488.4987)"
           inkscape:label="Layer 1"
           id="layer1-8">
          <g
             transform="matrix(0.07116922,0,0,0.07116922,677.12796,-316.7662)"
             id="g5423">
            <path
               style="fill:url(#linearGradient5465);stroke:none"
               d="m 532.0969,643.96918 60.17872,100.00014 c 18.65478,29.97019 49.38721,43.57143 87.67857,43.57143 l 154.82143,0 -181.24972,-219.64257 -25.71457,-14.64314 -67.85714,22.14286 -34.38507,49.75797 z"
               id="path3016"
               inkscape:connector-curvature="0"
               sodipodi:nodetypes="ccccccccc" />
            <path
               style="fill:url(#linearGradient5467);stroke:none"
               d="m 653.5259,567.89818 -37.83792,-45.86608 -100.0051,53.79062 10.6066,54.2957 5.80742,13.85076 c -2.27427,-36.79788 60.90759,-79.52245 121.429,-76.071 z"
               id="path3018"
               inkscape:connector-curvature="0"
               sodipodi:nodetypes="cccccc" />
            <path
               style="fill:url(#linearGradient5469);fill-opacity:1;stroke:none"
               d="m 532.0969,643.96918 -54.107,-89.46414 c -6.51775,-10.14881 -8.30357,-19.02922 -8.30357,-29.375 0,-11.37942 4.85119,-17.61905 23.48214,-27.5 21.70395,-10.39186 65.40103,-14.91072 110.44643,-14.91072 73.19517,0 90.74093,23.4911 98.21429,48.83929 0,0 -10.33436,-4.10714 -34.64286,-4.10714 -77.1112,0 -138.75,37.43131 -138.75,94.10714 0,11.89326 3.66057,22.41057 3.66057,22.41057 z"
               id="path3014"
               inkscape:connector-curvature="0"
               sodipodi:nodetypes="ccccccccc" />
            <path
               style="fill:url(#linearGradient5471);fill-opacity:1;stroke:none"
               d="m 299.69963,263.36991 72.77989,0 c 30.6936,0 43.28235,12.5561 55.69889,24.875 14.21129,12.91899 57.3127,71.25418 148.42929,185.11046 l -98.61614,0 c -40.32578,0 -53.08064,-6.87005 -68.67691,-30.65461 z"
               id="path3012"
               inkscape:connector-curvature="0"
               sodipodi:nodetypes="ccccccc" />
          </g>
        </g>
        <g
           id="g2995"
           transform="translate(343.0214,678.6423)">
          <path
             inkscape:connector-curvature="0"
             d="m 0,0 0.272,-0.976 0.005,0 0.276,0.976 0.231,0 0.179,-1.222 -0.185,0 -0.127,0.997 -0.004,0 -0.285,-0.997 -0.198,0 -0.277,0.993 -0.003,0 -0.127,-0.993 -0.176,0 L -0.241,0 0,0 z m -0.575,0 0,-0.157 -0.36,0 0,-1.065 -0.178,0 0,1.065 -0.36,0 0,0.157 0.898,0 z"
             style="fill:#334357;fill-opacity:1;fill-rule:nonzero;stroke:none"
             id="path2997" />
        </g>
        <g
           id="g3081">
          <g
             id="g3083"
             clip-path="url(#clipPath3085)">
            <g
               id="g3089"
               transform="translate(254.3689,693.6163)">
              <path
                 inkscape:connector-curvature="0"
                 d="m 0,0 -0.042,0 -2.136,-6.038 4.319,0 L 0,0 z m 3.823,-10.795 -1.046,2.966 -5.592,0 -1.048,-2.966 -2.387,0 5.009,13.202 2.66,0 4.932,-13.202 -2.528,0 z m 20.261,13.731 2.335,0 0,-2.207 -2.335,0 0,2.207 z m 0.026,-3.675 2.282,0 0,-10.056 -2.282,0 0,10.056 z m -16.85,3.676 2.336,0 0,-2.208 -2.336,0 0,2.208 z m 0.027,-3.676 2.282,0 0,-10.056 -2.282,0 0,10.056 z m 14.332,3.663 -2.282,0 0,-13.719 2.282,0 0,13.719 z m -7.274,-8.815 0,-4.904 -2.289,0 0,7.472 c 0,0.718 -0.082,2.085 -0.11,2.582 l 1.843,0 c 0.199,0 0.256,-0.084 0.262,-0.28 0.004,-0.297 0.02,-1.246 0.02,-1.246 l 0.052,0 c 0.18,0.435 0.829,1.737 2.725,1.737 0.635,0 1.105,-0.205 1.182,-0.236 0,-0.433 -0.045,-1.383 -0.068,-1.634 -0.014,-0.165 -0.086,-0.219 -0.168,-0.219 -0.078,0 -0.114,0.018 -0.157,0.035 -0.142,0.06 -0.474,0.161 -0.935,0.161 -1.218,0 -2.357,-0.879 -2.357,-3.468 m 20.784,-4.904 0,6.494 c 0,1.24 -0.566,1.996 -1.628,1.996 -1.404,0 -2.336,-1.494 -2.336,-3.51 l 0,-4.98 -2.283,0 0,7.387 c 0,0.813 -0.074,1.998 -0.112,2.667 l 1.834,0 c 0.207,0 0.266,-0.085 0.268,-0.271 0.006,-0.215 0.024,-1.255 0.024,-1.255 l 0.052,0 c 0.275,0.473 0.978,1.738 3.082,1.738 2.169,0 3.381,-1.483 3.381,-3.148 l 0,-7.118 -2.282,0 z m 6.316,6.061 4.224,0 c 0.087,1.621 -0.764,2.529 -2.048,2.529 -1.344,0 -2.115,-0.972 -2.176,-2.529 m 5.631,-3.853 c 0.127,0 0.164,-0.111 0.174,-0.225 0.039,-0.429 0.076,-1.399 0.07,-1.646 -0.244,-0.078 -1.471,-0.529 -3.119,-0.529 -3.201,0 -5.127,1.656 -5.127,5.221 0,3.061 1.642,5.236 4.594,5.236 2.898,0 4.276,-1.938 4.276,-4.344 0,-0.283 -0.031,-0.761 -0.081,-1.396 l -6.447,0 c 0,-1.717 1.094,-2.949 3.116,-2.949 1.114,0 2,0.399 2.352,0.569 0.07,0.034 0.111,0.063 0.192,0.063 m 5.346,-2.4 c 2.971,0 4.393,1.215 4.393,3.021 0,1.778 -1.263,2.526 -2.601,2.968 -0.384,0.124 -0.76,0.25 -1.111,0.368 -0.916,0.303 -1.391,0.701 -1.391,1.295 0,0.627 0.572,1.066 1.76,1.066 1.056,0 1.919,-0.431 2.261,-0.596 0.057,-0.026 0.108,-0.063 0.199,-0.063 0.072,0 0.161,0.045 0.173,0.223 0.023,0.337 0.063,0.948 0.063,1.535 -0.277,0.127 -1.276,0.64 -2.883,0.64 -2.455,0 -3.964,-1.277 -3.964,-2.962 0,-1.634 1.117,-2.38 2.346,-2.787 0.283,-0.096 0.808,-0.268 1.115,-0.372 1.283,-0.426 1.649,-0.813 1.649,-1.413 0,-0.783 -0.834,-1.17 -2.269,-1.17 -1.177,0 -1.986,0.432 -2.311,0.584 -0.066,0.029 -0.105,0.063 -0.196,0.063 -0.169,0 -0.172,-0.225 -0.174,-0.262 -0.007,-0.108 -0.061,-1.15 -0.061,-1.497 0.269,-0.116 1.435,-0.641 3.002,-0.641 M -82.12,0 l -0.042,0 -2.137,-6.038 4.316,0 L -82.12,0 z m 3.822,-10.795 -1.047,2.966 -5.592,0 -1.047,-2.966 -2.386,0 5.009,13.203 2.658,0 4.932,-13.203 -2.527,0 z m 37.299,13.732 2.334,0 0,-2.207 -2.334,0 0,2.207 z m 0.027,-3.676 2.28,0 0,-10.056 -2.28,0 0,10.056 z m -4.9,-5.152 0,-4.904 -2.285,0 0,7.472 c 0,0.719 -0.082,2.086 -0.112,2.584 l 1.844,0 c 0.199,0 0.258,-0.086 0.259,-0.281 0.006,-0.296 0.024,-1.247 0.024,-1.247 l 0.051,0 c 0.181,0.435 0.828,1.737 2.725,1.737 0.633,0 1.107,-0.204 1.185,-0.235 0,-0.433 -0.047,-1.383 -0.069,-1.635 -0.015,-0.164 -0.088,-0.217 -0.169,-0.217 -0.077,0 -0.116,0.016 -0.158,0.033 -0.144,0.061 -0.475,0.162 -0.932,0.162 -1.219,0 -2.363,-0.88 -2.363,-3.469 m -16.857,-4.904 0,6.434 c 0,1.159 -0.49,2.058 -1.673,2.058 -1.332,0 -2.1,-1.458 -2.1,-3.5 l 0,-4.992 -2.281,0 0,6.454 c 0,1.054 -0.44,2.038 -1.664,2.038 -1.351,0 -2.107,-1.455 -2.107,-3.572 l 0,-4.92 -2.286,0 0,7.324 c 0,0.946 -0.084,2.284 -0.111,2.732 l 1.827,0 c 0.206,0 0.274,-0.068 0.278,-0.281 0.005,-0.267 0.021,-1.247 0.021,-1.247 l 0.052,0 c 0.139,0.287 0.89,1.738 2.986,1.738 1.953,0 2.7,-1.401 2.885,-1.833 0.18,0.38 1.047,1.833 3.014,1.833 2.046,0 3.442,-1.098 3.442,-3.304 l 0,-6.962 -2.283,0 z m 6.314,6.063 4.225,0 c 0.087,1.618 -0.761,2.528 -2.048,2.528 -1.344,0 -2.113,-0.973 -2.177,-2.528 m 5.634,-3.855 c 0.125,0 0.163,-0.111 0.173,-0.225 0.039,-0.429 0.076,-1.4 0.07,-1.646 -0.243,-0.078 -1.47,-0.529 -3.118,-0.529 -3.202,0 -5.128,1.658 -5.128,5.223 0,3.057 1.641,5.234 4.596,5.234 2.895,0 4.276,-1.937 4.276,-4.344 0,-0.283 -0.032,-0.761 -0.083,-1.394 l -6.447,0 c 0,-1.719 1.095,-2.951 3.114,-2.951 1.115,0 2.003,0.399 2.354,0.571 0.07,0.034 0.11,0.061 0.193,0.061 m 28.632,2.894 -0.388,0 c -2.868,0 -3.432,-0.997 -3.432,-2.01 0,-0.828 0.546,-1.612 1.618,-1.612 1.424,0 2.202,1.375 2.202,2.822 l 0,0.8 z m 0.55,-5.102 c -0.184,0 -0.337,0.061 -0.357,0.328 -0.022,0.328 -0.067,0.963 -0.067,0.963 l -0.031,0 c -0.135,-0.185 -0.967,-1.483 -3.056,-1.483 -2.001,0 -3.149,1.542 -3.149,3.235 0,2.347 2.279,3.526 5.66,3.526 l 0.45,0 0,0.369 c 0,1.053 -0.749,1.617 -2.149,1.617 -1.26,0 -2.306,-0.442 -2.713,-0.649 -0.027,-0.013 -0.101,-0.056 -0.169,-0.056 -0.108,0 -0.169,0.067 -0.175,0.186 -0.018,0.378 -0.057,1.105 -0.063,1.566 0.412,0.157 1.778,0.664 3.281,0.664 2.988,0 4.271,-1.387 4.271,-3.602 l 0,-3.921 c 0,-1.43 0.133,-2.366 0.18,-2.743 l -1.913,0 z m -7.889,2.208 c 0.06,0 0.145,-0.04 0.165,-0.216 0.044,-0.479 0.062,-1.263 0.064,-1.509 -0.456,-0.225 -1.444,-0.675 -2.656,-0.675 -3.046,0 -4.914,1.768 -4.914,5.227 0,3.241 1.661,5.23 4.914,5.23 1.079,0 2.072,-0.376 2.656,-0.676 0,-0.358 -0.035,-1.169 -0.064,-1.51 -0.014,-0.143 -0.083,-0.212 -0.165,-0.212 -0.091,0 -0.122,0.024 -0.176,0.048 -0.735,0.36 -1.426,0.534 -2.048,0.534 -1.939,0 -2.737,-1.269 -2.737,-3.414 0,-1.912 0.638,-3.411 2.737,-3.411 0.802,0 1.533,0.286 1.986,0.504 0.122,0.057 0.143,0.08 0.238,0.08 m 17.845,-2.208 0,6.494 c 0,1.241 -0.566,1.997 -1.626,1.997 -1.405,0 -2.339,-1.493 -2.339,-3.511 l 0,-4.98 -2.281,0 0,7.387 c 0,0.813 -0.074,1.998 -0.11,2.669 l 1.831,0 c 0.209,0 0.269,-0.087 0.27,-0.273 0.005,-0.213 0.022,-1.255 0.022,-1.255 l 0.05,0 c 0.278,0.474 0.98,1.739 3.084,1.739 2.172,0 3.384,-1.484 3.384,-3.147 l 0,-7.12 -2.285,0 z"
                 style="fill:#334357;fill-opacity:1;fill-rule:nonzero;stroke:none"
                 id="path3091" />
            </g>
          </g>
        </g>
      </g>
      <g
         id="g4361">
        <g
           clip-path="url(#clipPath4365)"
           id="g4363">
          <g
             transform="matrix(0.2266244,0,0,-0.2584647,1912.0443,-850.36291)"
             id="g4369">
            <g
               transform="translate(-7973.7549,-4000.1055)"
               id="g4371">
              <path
                 id="path4373"
                 style="fill:#086591;fill-opacity:1;fill-rule:evenodd;stroke:none"
                 d="m 0,0 0,-12.642 0.979,-1.056 0,-9.497 3.194,-1.903 0,-0.226 1.165,0.55 10.133,4.778 0.468,0.222 0,0.516 0,3.29 6.038,2.115 0.548,0.193 0,0.577 0,13.186 0.519,0 0,0.795 5.519,0 0,5.769 -294.922,0 0,-5.769 6.355,0 0,-5.688 -0.995,0 0,-1.579 3.478,-3.546 5.027,-5.125 5.027,5.125 3.417,3.484 0,1.641 -0.892,0 0,5.688 2.106,0 0,-4.832 0,-1.99 0,-4.207 -1.066,0 0,-1.52 3.563,-3.634 5.055,-5.153 5.055,5.153 3.57,3.64 0,1.514 -1.031,0 0,4.207 0,1.99 0,4.792 1.689,0 0,-37.302 18.869,0 0,13.852 18.215,0 0,23.45 1.92,0 0,-39.504 15.762,0 0,39.544 2.298,0 0,-24.439 12.15,0 0,-30.045 15.762,0 0,54.484 3.283,0 0,-61.931 15.762,7.224 0,23.862 16.807,0 0,2.776 13.513,0 2.092,0 0,2.093 0,9.744 5.48,0 0,-20.456 13.909,-2.71 4.001,1.979 0,-11.466 18.112,-3.528 8.167,4.04 0,13.963 0.218,0 0,-4.768 5.749,-5.161 0,-4.036 1.611,0 0,3.995 5.744,5.202 0,4.768 1.834,0 0,34.41 2.887,0 0,-25.668 3.608,0 0,-4.505 1.608,0 0,-2.853 4.973,-5.326 4.913,5.326 0,2.853 1.609,0 0,4.505 3.194,0 0,25.668 1.688,0 L -0.263,0 0,0 z"
                 inkscape:connector-curvature="0" />
            </g>
          </g>
        </g>
      </g>
    </g>
  </g>
</svg>
