<?xml version="1.0" encoding="utf-8"?>
<!-- Generator: Adobe Illustrator 23.0.6, SVG Export Plug-In . SVG Version: 6.00 Build 0)  -->
<svg version="1.1" id="Layer_1" xmlns="http://www.w3.org/2000/svg" xmlns:xlink="http://www.w3.org/1999/xlink" x="0px" y="0px"
	 viewBox="0 0 407.3 49" style="enable-background:new 0 0 407.3 49;" xml:space="preserve">
<style type="text/css">
	.st0{fill:#53BFE3;}
</style>
<g>
	<path class="st0" d="M291,2.9c0.4-0.1,0.7-0.1,0.9-0.1c12,0,23.9-0.1,35.9,0.1c2.5,0,5,0.6,7.4,1.4c4.4,1.4,6.7,4.8,7.7,9.2
		c1.3,5.8,1.2,11.7,0.6,17.5c-0.2,2.2-0.7,4.5-1.5,6.6c-1.6,4.7-5.4,7.1-10.1,8c-2,0.4-4.1,0.6-6.2,0.6c-11.1,0.1-22.2,0-33.2,0
		c-1.5,0-1.6,0-1.6-1.6c0-13.4,0-26.9,0-40.3C291,3.9,291,3.4,291,2.9z M314.3,38.6L314.3,38.6c4.3,0,8.6,0,13,0
		c4.4-0.1,6.7-1.9,7.4-6.2c0.9-5.2,0.8-10.5,0.1-15.8c-0.3-2.8-1.8-4.9-4.6-5.7c-1.1-0.3-2.3-0.5-3.4-0.5c-8.6,0-17.2,0-25.8,0
		c-1.1,0-1.4,0.4-1.4,1.4c0,8.5,0,17,0,25.4c0,1.1,0.4,1.4,1.4,1.4C305.4,38.6,309.8,38.6,314.3,38.6z"/>
	<path class="st0" d="M152,27c2.7,2.2,3.3,5,3.3,8c0,3.4,0,6.7,0,10.1c0,0.9-0.2,1.2-1.1,1.2c-2-0.1-4.1-0.1-6.1,0
		c-0.9,0-1.2-0.3-1.1-1.2c0-3.2,0-6.5,0-9.7c0-3.5-1.4-4.9-4.9-4.9c-8.4,0-16.8,0-25.2,0c-1,0-1.2,0.4-1.2,1.3c0,4.4,0,8.9,0,13.3
		c0,1-0.3,1.3-1.3,1.3c-2.4-0.1-4.9,0-7.4,0c0-14.5,0-28.9,0-43.3c0.3,0,0.6-0.1,0.9-0.1c11.8,0,23.7,0,35.5,0.1
		c1.7,0,3.4,0.3,5.1,0.7c4,0.9,6.4,3.6,6.9,7.5c0.4,3.3,0.4,6.7,0.3,10C155.5,23.6,154.3,25.6,152,27z M129.6,10.5
		c-4.2,0-8.5,0-12.7,0c-1,0-1.2,0.3-1.2,1.2c0,3.2,0.1,6.3,0,9.5c0,1.2,0.3,1.6,1.6,1.6c8,0,16,0,24,0c0.8,0,1.5-0.1,2.3-0.2
		c2.4-0.3,3.6-1.7,3.7-4.1c0-1,0-1.9,0-2.9c0-3.3-1.1-4.6-4.4-5c-0.5-0.1-1-0.1-1.4-0.1C137.4,10.5,133.5,10.5,129.6,10.5z"/>
	<path class="st0" d="M283,10.5c-0.6,0-1.1,0-1.6,0c-10.3,0-20.6,0-30.8,0c-1.2,0-1.6,0.3-1.6,1.5c0.1,2,0,3.9,0,5.9
		c0,2.4-0.4,2.2,2.3,2.2c9.2,0,18.4,0,27.6,0c2.8,0,2.8,0,2.8,2.8c0,1.5,0,3,0,4.6c0,0.1-0.1,0.1-0.2,0.4c-0.4,0-0.9,0-1.3,0
		c-9.8,0-19.7,0-29.5,0c-1.7,0-1.7,0-1.7,1.6c0,2.6,0,5.2,0,7.8c0,1.1,0.3,1.4,1.4,1.4c10.4,0,20.9,0,31.3,0c0.5,0,0.9,0,1.5,0
		c0,2.6,0,5,0,7.6c-0.5,0-0.9,0.1-1.3,0.1c-13.4,0-26.7,0-40.1,0c-1.2,0-1.6-0.3-1.5-1.5c0.1-13.5,0-27,0-40.6
		c0-1.2,0.3-1.5,1.5-1.5c13.3,0,26.6,0,40,0c0.4,0,0.9,0,1.3,0.1C283,5.4,283,7.9,283,10.5z"/>
	<path class="st0" d="M10.9,46.3c-2.8,0-5.4,0-8,0c-0.2,0-0.5-0.4-0.6-0.6c-0.1-0.3,0-0.6,0-0.9c0-13.4,0-26.8,0-40.2
		c0-1.7,0-1.7,1.7-1.7c11.2,0,22.4-0.1,33.6,0c2.2,0,4.4,0.4,6.5,1c2.7,0.7,4.5,2.7,5.2,5.4c0.4,1.6,0.8,3.3,0.8,4.9
		c0,2.6-0.1,5.3-0.5,7.9c-0.8,5-3.5,7.4-8.6,8c-1.4,0.2-2.9,0.3-4.3,0.3c-8,0-16.1,0-24.1,0c-1.6,0-1.6,0-1.6,1.6
		c0,4.3,0,8.6,0,12.8C10.9,45.3,10.9,45.7,10.9,46.3z M24.4,22.8c3.9,0,7.8,0,11.6,0c0.9,0,1.8-0.1,2.6-0.3c1.7-0.4,2.6-1.5,2.7-3.2
		c0.1-1.7,0.1-3.4,0-5c-0.1-2-1.1-3.2-3.1-3.5c-0.6-0.1-1.3-0.2-1.9-0.2c-8,0-16.1,0-24.1,0c-1,0-1.3,0.3-1.3,1.3
		c0,3.2,0.1,6.5,0,9.7c0,1.1,0.4,1.3,1.4,1.3C16.3,22.7,20.3,22.8,24.4,22.8z"/>
	<path class="st0" d="M42.6,46.3c2-3.4,3.9-6.6,5.8-9.7c6.4-10.9,12.8-21.8,19.2-32.7c0.5-0.8,1-1.2,2-1.2c2.1,0.1,4.2,0.1,6.2,0
		c0.9,0,1.4,0.3,1.8,1C85,16.2,92.3,28.6,99.7,41.1c1,1.6,1.9,3.2,3,5c-0.6,0-1,0.1-1.4,0.1c-2.4,0-4.8,0-7.2,0
		c-0.9,0-1.5-0.2-2-1.1c-1.2-2.2-2.5-4.3-3.7-6.4c-0.4-0.7-0.8-0.9-1.6-0.9c-9.4,0-18.8,0-28.2,0c-0.8,0-1.2,0.3-1.6,0.9
		c-1.3,2.2-2.6,4.4-3.9,6.6c-0.2,0.4-0.7,0.8-1,0.8C49,46.3,45.9,46.3,42.6,46.3z M83.2,30c-3.5-6-7-11.8-10.5-17.8
		c-3.6,6.1-7,11.9-10.5,17.8C69.3,30,76.1,30,83.2,30z"/>
	<path class="st0" d="M405.1,46.3c-3.3,0-6.4,0-9.5,0c-0.3,0-0.8-0.5-1-0.8c-1.3-2.2-2.6-4.4-3.9-6.6c-0.4-0.7-0.8-1-1.6-1
		c-9.4,0-18.8,0-28.2,0c-0.8,0-1.2,0.3-1.6,0.9c-1.2,2.2-2.6,4.3-3.8,6.5c-0.4,0.7-0.8,1-1.7,1c-2.9-0.1-5.7,0-8.9,0
		c0.4-0.7,0.6-1.1,0.9-1.6c8.1-13.7,16.2-27.3,24.3-41c0.4-0.7,0.8-0.9,1.6-0.9c2.1,0,4.2,0.1,6.2,0c1,0,1.6,0.3,2.1,1.2
		c6.8,11.5,13.6,23.1,20.5,34.6C402,41,403.5,43.5,405.1,46.3z M375,12.1c-3.6,6.1-7,11.9-10.5,17.8c7.1,0,14,0,21.1,0
		C382,24,378.5,18.2,375,12.1z"/>
	<path class="st0" d="M206.3,36.3c1.5-2.7,2.8-5.1,4.1-7.5c4.6-8.4,9.2-16.7,13.8-25.1c0.4-0.7,0.8-1,1.6-1c2.6,0,5.1,0,7.7,0
		c0.3,0,0.6,0.1,1.1,0.1c-1,1.8-1.8,3.4-2.8,5c-6.9,12.5-13.8,24.9-20.6,37.4c-0.4,0.7-0.9,1-1.7,1c-2.1,0-4.2-0.1-6.2,0
		c-1,0-1.6-0.3-2-1.2c-7.3-13.2-14.6-26.4-21.8-39.6c-0.5-0.8-0.9-1.7-1.5-2.7c2.4,0,4.7,0.2,6.9,0s3.3,0.5,4.4,2.5
		c5.3,9.9,10.8,19.7,16.2,29.5C205.7,35.2,205.9,35.6,206.3,36.3z"/>
	<path class="st0" d="M164.6,2.8c2.8,0,5.3,0,7.9,0c0.3,0,0.6,0.5,0.8,0.9c0.1,0.2,0,0.5,0,0.7c0,13.4,0,26.9,0,40.3
		c0,1.6,0,1.6-1.6,1.6c-1.9,0-3.8-0.1-5.6,0c-1.2,0.1-1.5-0.3-1.5-1.5c0-9.6,0-19.2,0-28.8c0-3.9,0-7.8,0-11.8
		C164.6,3.8,164.6,3.4,164.6,2.8z"/>
</g>
</svg>
