<svg width="1020" height="270" viewBox="0 0 1020 270" fill="none" xmlns="http://www.w3.org/2000/svg">
<path d="M1017 132.276C1017 93.7518 990.533 67.2849 951.421 67.2849C909.662 67.2849 882.607 95.5162 882.607 139.334C882.607 183.739 909.368 211.382 952.597 211.382C985.534 211.382 1011.41 193.444 1015.53 167.859H983.181C977.888 178.446 968.478 183.445 952.597 183.445C929.365 183.445 915.25 171.682 914.367 149.92H1016.12C1016.71 141.686 1017 138.451 1017 132.276ZM914.367 125.512C914.662 106.103 928.189 92.5755 950.833 92.5755C972.889 92.5755 985.24 104.339 985.534 125.512H914.367Z" fill="#535FE5"/>
<path d="M814.254 211.382C849.249 211.382 868.364 192.856 868.364 166.683C868.364 149.038 855.131 135.217 836.604 129.923L803.962 120.513C796.904 118.454 792.199 113.455 792.199 105.809C792.199 97.2807 800.727 91.6932 811.902 91.6932C826.9 91.6932 835.722 98.457 835.722 109.926H867.188C867.188 85.5176 848.955 67.2849 813.078 67.2849C781.318 67.2849 760.438 85.2236 760.438 107.573C760.438 125.806 769.849 139.922 790.14 145.509L825.429 155.214C833.369 157.272 835.722 163.448 835.722 169.623C835.722 179.328 828.076 185.798 816.019 185.798C799.551 185.798 788.082 177.564 788.082 165.801H756.027C756.027 190.797 778.965 211.382 814.254 211.382Z" fill="#535FE5"/>
<path d="M719.17 51.1108C733.286 51.1108 742.99 40.5241 742.99 27.2907C742.99 14.0572 733.286 3.47046 719.17 3.47046C705.055 3.47046 695.35 14.0572 695.35 27.2907C695.35 40.5241 705.055 51.1108 719.17 51.1108ZM702.996 207.854H735.05V70.814H702.996V207.854Z" fill="#535FE5"/>
<path d="M603 207.853H635.054V147.274C635.054 116.102 648.876 99.0451 671.52 99.0451C676.519 99.0451 679.166 99.0451 684.165 99.6333V70.2256C680.636 69.3434 676.519 69.0493 671.52 69.0493C656.522 69.0493 640.054 77.8716 635.054 97.2807V70.8138H603V139.334V207.853Z" fill="#535FE5"/>
<path d="M525.754 67.285C505.463 67.285 489.583 75.225 481.054 89.9289V2H449V207.854H481.054V132.57C481.054 108.456 492.817 94.6341 513.697 94.6341C536.047 94.6341 543.693 107.279 543.693 136.393V207.854H575.747V121.689C575.747 85.8118 558.691 67.285 525.754 67.285Z" fill="#535FE5"/>
<path d="M412.284 180.798C399.638 180.798 392.286 177.858 392.286 154.038V97.5749H423.753V70.8139H392.286V29.3491H360.232V70.8139H337V97.5749H360.232V161.389C360.232 207.559 389.052 209.618 404.638 209.618C414.048 209.618 423.458 208.736 428.458 207.854V179.622C425.223 180.21 417.283 180.798 412.284 180.798Z" fill="#535FE5"/>
<path d="M242.208 211.322C258.963 211.322 277.777 203.091 286.008 189.275V207.794H318.05V70.8076H286.008V89.3272C277.777 75.511 261.315 67.28 243.089 67.28C200.465 67.28 174.89 99.028 174.89 139.301C174.89 179.574 198.113 211.322 242.208 211.322ZM246.911 182.808C221.924 182.808 206.932 164.288 206.932 139.301C206.932 114.314 221.924 95.7944 246.911 95.7944C274.25 95.7944 287.478 115.784 287.478 139.301C287.478 162.818 274.25 182.808 246.911 182.808Z" fill="#535FE5"/>
<path fill-rule="evenodd" clip-rule="evenodd" d="M78.5203 97.3085C82.1498 96.3254 86.0466 95.8103 90.1665 95.8103C113.693 95.8103 130.161 113.749 130.161 139.334C130.161 164.918 113.693 182.857 90.1665 182.857C68.7881 182.857 53.4191 168.989 50.207 147.81H19V269.61H51.0543V189.327C59.2885 202.56 76.639 211.382 94.8717 211.382C134.572 211.382 162.215 181.681 162.215 139.334C162.215 96.1044 136.042 67.2849 96.9303 67.2849C85.5967 67.2849 74.6642 70.2931 65.8894 75.4312L78.5203 97.3085Z" fill="#535FE5"/>
<path fill-rule="evenodd" clip-rule="evenodd" d="M67.0859 118.31L35.0429 62.8101L3 118.31H19.0858V267.81H51.0858V118.31H67.0859Z" fill="#535FE5"/>
</svg>
