<?xml version="1.0" encoding="iso-8859-1"?>
<!-- Generator: Adobe Illustrator 19.0.0, SVG Export Plug-In . SVG Version: 6.00 Build 0)  -->
<svg version="1.1" id="Capa_1" xmlns="http://www.w3.org/2000/svg" xmlns:xlink="http://www.w3.org/1999/xlink" x="0px" y="0px"
	 viewBox="0 0 512 512" style="enable-background:new 0 0 512 512;" xml:space="preserve">
<g>
	<g>
		<path style="fill:#00B2E1;" d="M396.8,141.333c-30.72,0-59.733,11.947-80.533,32.747L256,227.413l-0.107-0.107l-32.32,28.48l0.213,0.213l-57.493,50.987
			C152.64,320.533,134.507,328,115.2,328c-39.893,0-72.32-32.32-72.32-72s32.427-72,72.32-72c19.307,0,37.44,7.467,52.053,21.973
			l24.213,21.44l32.213-28.48l-26.987-23.893c-21.76-21.653-50.667-33.6-81.493-33.6C51.627,141.333,0,192.747,0,256
			s51.627,114.667,115.2,114.667c30.72,0,59.627-11.947,80.533-32.64L256,284.587l0.107,0.107l32.213-28.587L288.213,256
			l57.493-50.88C359.36,191.467,377.493,184,396.8,184c39.893,0,72.32,32.32,72.32,72s-32.427,72-72.32,72
			c-19.307,0-37.44-7.467-52.053-21.867l-24.213-21.44L288.32,313.28l26.987,23.893c21.76,21.653,50.667,33.493,81.387,33.493
			C460.373,370.667,512,319.253,512,256S460.373,141.333,396.8,141.333z"/>
	</g>
</g>
<g>
</g>
<g>
</g>
<g>
</g>
<g>
</g>
<g>
</g>
<g>
</g>
<g>
</g>
<g>
</g>
<g>
</g>
<g>
</g>
<g>
</g>
<g>
</g>
<g>
</g>
<g>
</g>
<g>
</g>
</svg>
