<svg id="Layer_1" data-name="Layer 1" xmlns="http://www.w3.org/2000/svg" xmlns:xlink="http://www.w3.org/1999/xlink" viewBox="0 0 732 732"><defs><style>.cls-1{fill:#fff;}.cls-2{fill:#00b1e1;}.cls-3{fill:#f06589;}.cls-4{fill:none;stroke-miterlimit:10;stroke-width:12px;stroke:url(#linear-gradient);}</style><linearGradient id="linear-gradient" x1="-0.38" y1="366" x2="731.62" y2="366" gradientUnits="userSpaceOnUse"><stop offset="0" stop-color="#00b1df"/><stop offset="0.4" stop-color="#51acd5"/><stop offset="0.6" stop-color="#d87897"/><stop offset="0.94" stop-color="#ef6489"/></linearGradient></defs><title>logo</title><polygon class="cls-1" points="726 726 6 726 6 479.69 6 6 726 6 726 726"/><path class="cls-2" d="M87.19,355.25v52.06H71.86V355.25H60.38V340.94H71.86V316.61H87.19v24.33H99.12v14.31Z"/><path class="cls-2" d="M159.7,340.94h15.4v66.37H159.7v-7q-9.47,8.86-20.37,8.86a29.35,29.35,0,0,1-22.76-9.95q-8.93-10.15-8.93-25.35,0-14.92,8.93-24.87a28.78,28.78,0,0,1,22.35-9.95q11.58,0,20.78,9.54Zm-36.39,33q0,9.54,5.11,15.54a16.74,16.74,0,0,0,13.22,6.06,17.6,17.6,0,0,0,13.77-5.86q5.25-6.06,5.25-15.4t-5.25-15.4a17.35,17.35,0,0,0-13.63-5.93,17,17,0,0,0-13.22,6A22.11,22.11,0,0,0,123.31,373.92Z"/><path class="cls-2" d="M194.45,340.94h15.33v6.13a32,32,0,0,1,7.56-6.27,18.35,18.35,0,0,1,8.38-1.7q11.24,0,17.79,9.81a23,23,0,0,1,19.56-9.81q22.42,0,22.42,27.19v41h-15.4V370.45q0-9.54-2.32-13.49t-7.84-4q-6.34,0-9.23,4.77T247.81,373v34.28h-15.4V370.65q0-17.72-10.22-17.72-6.47,0-9.44,4.84t-3,15.26v34.28H194.45Z"/><path class="cls-2" d="M320.18,340.94V379q0,16.49,13,16.49t13-16.49V340.94h15.33v38.43a42.77,42.77,0,0,1-2,13.77,23.13,23.13,0,0,1-6.61,9.34q-7.77,6.75-19.76,6.75t-19.69-6.75a23.47,23.47,0,0,1-6.75-9.34q-1.91-4.63-1.91-13.77V340.94Z"/><path class="cls-3" d="M380.9,292.22h15.33v54.24q8.18-7.36,18.06-7.36,11.24,0,18,7.29,5.72,6.34,5.72,20.24v40.68H422.67V368.06q0-8-2.83-11.55t-9.1-3.58q-8,0-11.31,5t-3.2,17.31v32.1H380.9Z"/><path class="cls-3" d="M506.35,340.94h15.4v66.37h-15.4v-7q-9.47,8.86-20.37,8.86a29.35,29.35,0,0,1-22.76-9.95q-8.93-10.15-8.93-25.35,0-14.92,8.93-24.87a28.78,28.78,0,0,1,22.35-9.95q11.58,0,20.78,9.54Zm-36.39,33q0,9.54,5.11,15.54a16.74,16.74,0,0,0,13.22,6.06,17.6,17.6,0,0,0,13.77-5.86q5.25-6.06,5.25-15.4t-5.25-15.4a17.35,17.35,0,0,0-13.63-5.93,17,17,0,0,0-13.22,6A22.11,22.11,0,0,0,470,373.92Z"/><path class="cls-3" d="M592.76,343.8v20.38q-5.25-6.4-9.4-8.79a18.31,18.31,0,0,0-9.61-2.45A18.94,18.94,0,0,0,559.37,359a21.27,21.27,0,0,0-5.72,15.2q0,9.34,5.52,15.33a18.6,18.6,0,0,0,14.24,6,19.47,19.47,0,0,0,9.74-2.38q4.09-2.32,9.61-9v20.24a40.27,40.27,0,0,1-18.67,4.84q-15.4,0-25.76-9.95A33.2,33.2,0,0,1,538,374.4a33.65,33.65,0,0,1,10.49-25.08Q559,339.1,574.22,339.1A38.49,38.49,0,0,1,592.76,343.8Z"/><path class="cls-3" d="M626.56,292.22v70.19l21.6-21.47h20.58l-28.83,27.87,30.94,38.5H651L629,379.3l-2.45,2.45v25.55H611.23V292.22Z"/><polygon class="cls-4" points="725.62 726 5.62 726 5.62 479.69 5.62 6 725.62 6 725.62 726"/></svg>