<svg width="110" height="63" viewBox="0 0 110 63" fill="none" xmlns="http://www.w3.org/2000/svg">
<path d="M109.343 56.9144V6.32319C109.343 3.15621 106.773 0.588867 103.603 0.588867L6.59954 0.588867C3.42974 0.588867 0.860115 3.15621 0.860115 6.32319V56.9144C0.860115 60.0813 3.42974 62.6487 6.59954 62.6487L103.603 62.6487C106.773 62.6487 109.343 60.0813 109.343 56.9144Z" fill="url(#paint0_linear)"/>
<path d="M99.8077 5.34814H10.3946C7.22478 5.34814 4.65515 7.91549 4.65515 11.0825V52.1473C4.65515 55.3143 7.22478 57.8817 10.3946 57.8817H99.8077C102.977 57.8817 105.547 55.3143 105.547 52.1473V11.0825C105.547 7.91549 102.977 5.34814 99.8077 5.34814Z" fill="#220800"/>
<defs>
<linearGradient id="paint0_linear" x1="495991" y1="782235" x2="502703" y2="771669" gradientUnits="userSpaceOnUse">
<stop stop-color="#A67C52"/>
<stop offset="1" stop-color="#42210B"/>
</linearGradient>
</defs>
</svg>
