<svg width="149" height="198" viewBox="0 0 149 198" fill="none" xmlns="http://www.w3.org/2000/svg">
<path d="M129.343 73.8792V23.288C129.343 20.1211 126.773 17.5537 123.603 17.5537L26.5992 17.5537C23.4294 17.5537 20.8597 20.1211 20.8597 23.288V73.8792C20.8597 77.0461 23.4294 79.6135 26.5992 79.6135H123.603C126.773 79.6135 129.343 77.0461 129.343 73.8792Z" fill="url(#paint0_linear)"/>
<path d="M119.808 22.3135H30.3946C27.2248 22.3135 24.6552 24.8808 24.6552 28.0478V69.1127C24.6552 72.2797 27.2248 74.8471 30.3946 74.8471H119.808C122.977 74.8471 125.547 72.2797 125.547 69.1127V28.0478C125.547 24.8808 122.977 22.3135 119.808 22.3135Z" fill="#220800"/>
<path d="M146.848 3.02441H3.35449V194.436H146.848V3.02441Z" stroke="#FF0000" stroke-width="6" stroke-miterlimit="10"/>
<path d="M129.343 174.065V123.474C129.343 120.307 126.773 117.739 123.603 117.739H26.5992C23.4294 117.739 20.8597 120.307 20.8597 123.474V174.065C20.8597 177.232 23.4294 179.799 26.5992 179.799H123.603C126.773 179.799 129.343 177.232 129.343 174.065Z" fill="url(#paint1_linear)"/>
<path d="M119.808 122.499H30.3946C27.2248 122.499 24.6552 125.066 24.6552 128.233V169.298C24.6552 172.465 27.2248 175.033 30.3946 175.033H119.808C122.977 175.033 125.547 172.465 125.547 169.298V128.233C125.547 125.066 122.977 122.499 119.808 122.499Z" fill="#220800"/>
<defs>
<linearGradient id="paint0_linear" x1="59.3284" y1="91.8778" x2="90.8313" y2="5.26416" gradientUnits="userSpaceOnUse">
<stop stop-color="#A67C52"/>
<stop offset="1" stop-color="#42210B"/>
</linearGradient>
<linearGradient id="paint1_linear" x1="496013" y1="760752" x2="502725" y2="750186" gradientUnits="userSpaceOnUse">
<stop stop-color="#A67C52"/>
<stop offset="1" stop-color="#42210B"/>
</linearGradient>
</defs>
</svg>
