<svg width="92" height="92" viewBox="0 0 92 92" fill="none" xmlns="http://www.w3.org/2000/svg">
<path d="M45.5639 91.4074C70.7243 91.4074 91.1207 71.0291 91.1207 45.8912C91.1207 20.7533 70.7243 0.375 45.5639 0.375C20.4036 0.375 0.00714111 20.7533 0.00714111 45.8912C0.00714111 71.0291 20.4036 91.4074 45.5639 91.4074Z" fill="url(#paint0_radial)"/>
<path d="M45.564 82.849C65.9934 82.849 82.5547 66.3025 82.5547 45.8913C82.5547 25.4801 65.9934 8.93359 45.564 8.93359C25.1346 8.93359 8.5733 25.4801 8.5733 45.8913C8.5733 66.3025 25.1346 82.849 45.564 82.849Z" fill="url(#paint1_linear)"/>
<path d="M45.5637 45.8913C44.8043 45.6983 44.1522 45.2133 43.7491 44.5421C43.346 43.8708 43.2245 43.0676 43.4114 42.3073L50.4064 14.4243C50.4699 14.0169 50.6178 13.6272 50.8404 13.2801C51.063 12.933 51.3558 12.6362 51.6997 12.4083C52.0436 12.1804 52.4312 12.0263 52.8378 11.9564C53.2445 11.8866 53.6611 11.9023 54.0615 12.0023C54.4618 12.1023 54.8369 12.2846 55.1628 12.5374C55.4888 12.7903 55.7584 13.1081 55.9545 13.4709C56.1506 13.8336 56.2691 14.2331 56.302 14.6441C56.335 15.055 56.2816 15.4685 56.1458 15.8578L49.1509 43.7483C48.9545 44.5046 48.4685 45.1532 47.7973 45.5542C47.1261 45.9553 46.3235 46.0764 45.5637 45.8913Z" fill="#333333"/>
<path d="M55.2295 15.9949C55.564 14.6625 54.7539 13.3113 53.4203 12.9771C52.0867 12.6429 50.7346 13.4523 50.4001 14.7848L43.3996 42.6714C43.0651 44.0038 43.8749 45.3546 45.2085 45.6888C46.5421 46.0229 47.8945 45.2139 48.2289 43.8815L55.2295 15.9949Z" fill="url(#paint2_linear)"/>
<path d="M45.8005 44.9523C45.2884 44.819 44.8499 44.4885 44.5811 44.0332C44.3122 43.5778 44.2347 43.0345 44.3656 42.5222L51.3606 14.6392C51.4899 14.124 51.8191 13.6815 52.2752 13.4086C52.7313 13.1357 53.2771 13.055 53.7927 13.1842C54.3084 13.3135 54.7516 13.642 55.0248 14.0977C55.2979 14.5534 55.3784 15.0991 55.249 15.6143L48.254 43.4973C48.1896 43.7544 48.0752 43.9963 47.9167 44.2089C47.7582 44.4214 47.5591 44.6003 47.331 44.7356C47.1028 44.8709 46.8499 44.9599 46.5873 44.9971C46.3246 45.0343 46.0572 45.0189 45.8005 44.9523Z" fill="#333333"/>
<path d="M45.901 44.4792C45.5101 44.3811 45.1742 44.1316 44.9671 43.7862C44.7599 43.4408 44.6984 43.0275 44.7961 42.6368L51.7984 14.7538C51.8336 14.5484 51.9105 14.3524 52.0247 14.178C52.1389 14.0037 52.2879 13.8546 52.4622 13.7402C52.6366 13.6258 52.8326 13.5485 53.0381 13.513C53.2437 13.4775 53.4541 13.4844 53.6568 13.5337C53.8594 13.5829 54.05 13.6734 54.2162 13.7993C54.3824 13.9252 54.5211 14.0839 54.6233 14.2655C54.7255 14.4472 54.7891 14.648 54.8103 14.8553C54.8316 15.0626 54.8101 15.272 54.7469 15.4706L47.752 43.3536C47.7058 43.5497 47.621 43.7348 47.5026 43.8979C47.3842 44.0609 47.2345 44.1988 47.0622 44.3035C46.89 44.4082 46.6986 44.4774 46.4993 44.5076C46.2999 44.5377 46.0965 44.5283 45.901 44.4792Z" fill="white"/>
<defs>
<radialGradient id="paint0_radial" cx="0" cy="0" r="1" gradientUnits="userSpaceOnUse" gradientTransform="translate(47.7136 53.2832) rotate(-83.0827) scale(45.3914 245.806)">
<stop stop-color="#603813"/>
<stop offset="1" stop-color="#220800"/>
</radialGradient>
<linearGradient id="paint1_linear" x1="33.9012" y1="10.8197" x2="57.2133" y2="80.9826" gradientUnits="userSpaceOnUse">
<stop stop-color="#603813"/>
<stop offset="0.29" stop-color="#653D17"/>
<stop offset="0.63" stop-color="#744B24"/>
<stop offset="1" stop-color="#8C6239"/>
</linearGradient>
<linearGradient id="paint2_linear" x1="46.8938" y1="28.7227" x2="51.7296" y2="29.9366" gradientUnits="userSpaceOnUse">
<stop stop-color="#282828"/>
<stop offset="1" stop-color="#424242"/>
</linearGradient>
</defs>
</svg>
