<svg width="69" height="170" viewBox="0 0 69 170" fill="none" xmlns="http://www.w3.org/2000/svg">
<path d="M54.8208 14.7992C56.1337 27.8776 45.6303 38.3748 36.2522 46.979C31.9383 50.7648 35.502 47.6673 33.2513 49.3881C32.8761 47.3231 31.9383 42.1606 31.9383 40.6119C32.501 29.4264 42.4417 13.0784 51.2571 7.22753C52.7576 9.46463 53.883 9.63671 54.8208 14.7992ZM57.8217 82.0841C52.1949 78.2983 44.88 77.2658 38.1278 78.4704C37.19 73.3078 36.4398 67.9732 35.502 62.8107C46.193 53.174 57.8217 41.8164 58.3844 27.1893C58.572 17.7247 57.0715 7.5717 50.6944 0C43.0044 0.516252 37.5652 8.94837 33.4388 14.283C26.6866 25.4685 28.1871 38.891 30.813 50.9369C27.0617 54.8948 21.9976 58.1644 18.434 62.2945C7.74298 71.9312 -1.63506 85.0096 0.240547 99.2925C0.99079 113.231 12.0569 126.138 26.8742 129.407C32.501 130.784 38.503 130.784 44.3173 129.751C45.2552 139.216 49.0064 149.025 44.6925 158.145C41.5039 164.857 31.9383 170.707 24.9986 167.266C22.1852 165.889 24.4359 167.094 22.7479 166.233C27.6244 165.201 31.7508 161.931 33.0637 159.694C36.8149 153.671 31.1881 144.551 23.3105 145.755C13.1822 146.099 8.86835 159.006 15.433 165.373C21.6225 171.74 32.8761 170.88 40.191 166.75C48.4437 161.759 49.3815 151.95 48.4437 143.518C48.0686 140.765 46.5681 132.333 46.3805 129.407C49.5691 128.375 47.3183 129.235 51.8198 127.514C63.8237 123.04 71.7012 109.79 68.1376 97.7438C66.8247 91.7208 63.4486 85.6979 57.8217 82.0841ZM60.26 106.004C61.1978 114.264 55.3834 124.073 46.193 126.654C45.6303 123.384 45.4427 122.524 45.0676 120.459C42.8169 110.134 41.6915 99.6367 40.0034 89.3117C47.3183 88.6233 55.7586 91.5488 58.1968 98.4321C59.5098 100.841 59.8849 103.423 60.26 106.004ZM37.0025 127.686C25.3737 128.203 14.1201 120.975 11.3066 110.65C7.93054 101.702 8.86835 91.3767 15.0579 83.4608C20.122 76.4053 26.8742 70.5545 33.4388 64.5315C34.1891 69.1778 35.1269 73.9962 35.8771 78.6424C22.1852 81.912 13.1822 98.4321 21.2474 109.79C23.6857 113.059 30.2503 119.082 33.8139 116.673C28.7498 113.748 24.6235 108.929 25.5613 103.25C25.1861 97.9159 31.7508 91.0325 37.5652 90C39.6283 102.046 41.8791 115.296 43.7547 127.342C41.6915 127.514 39.2532 127.686 37.0025 127.686Z" fill="black"/>
</svg>
