<svg width="1438" height="1618" viewBox="0 0 1438 1618" fill="none" xmlns="http://www.w3.org/2000/svg">
<path d="M0 1603.31V1602.08C1.46667 1542.45 19.6 1504.12 64.5333 1465.3C133.467 1405.66 227.867 1370.03 319.067 1335.5C344.133 1326.07 367.733 1317.01 390.933 1307.7C402.4 1303.05 414 1298.39 426.4 1293.62C499.867 1264.72 583.067 1231.9 632.533 1175.57C665.467 1137.98 669.733 1086.18 671.333 1036.34C672.4 1004.62 672.133 972.416 671.867 941.19C671.733 927.475 671.6 913.271 671.6 899.311V670.197H678V899.311C678 913.393 678.133 927.598 678.267 941.435C678.533 973.518 678.8 1006.7 677.6 1039.28C675.867 1089.73 671.333 1142.26 637.333 1180.96C584.667 1240.96 497.6 1277.7 420.8 1310.15C410.133 1314.68 400 1318.96 389.867 1323.25C374.933 1329.62 359.467 1336.11 344.533 1342.35C267.733 1374.44 188.4 1407.5 127.067 1459.54C78.5333 1500.69 59.2 1540.61 57.7333 1602.08V1603.31H0V1603.31Z" fill="#220800"/>
<path d="M56.5333 1602.08C38.1333 1602.08 19.7333 1602.08 1.33331 1602.08C2.79998 1544.53 19.8666 1505.59 65.4666 1466.16C153.067 1390.48 283.867 1352.64 391.467 1308.68C472.533 1275.62 575.733 1242.06 633.467 1176.18C667.067 1137.85 671.067 1083.61 672.533 1036.22C674 990.54 672.8 944.864 672.8 899.188C672.8 698.607 672.8 871.881 672.8 671.299C674.267 671.299 675.067 671.299 676.533 671.299C676.533 871.881 676.533 698.607 676.533 899.188C676.533 945.844 677.733 992.499 676.133 1039.15C674.4 1087.52 670.4 1141.04 636.133 1180.1C576.533 1248.06 472.4 1286.15 389.2 1322.03C299.733 1360.72 199.867 1395.99 126.133 1458.56C77.0666 1500.32 58 1540.73 56.5333 1602.08Z" fill="#220800"/>
<path d="M332.267 1603.31V1602.08C333.467 1566.94 336.133 1532.77 355.067 1501.42C390.8 1442.15 445.733 1395.38 489.733 1361.21C498.4 1354.48 507.2 1347.74 515.733 1341.25C571.6 1298.64 629.333 1254.68 664.133 1193.2C681.867 1161.85 687.2 1130.02 690.4 1100.26C699.333 1015.03 697.6 926.741 695.867 841.389C695.2 807.102 694.4 771.712 694.4 737.302V504.883H700.8V737.302C700.8 771.712 701.467 807.102 702 841.145C703.467 926.373 705.067 1014.42 697.2 1100.01C694 1135.28 688.933 1164.67 674.533 1193.69C644 1255.29 592.8 1303.41 543.333 1349.82C538.667 1354.23 533.867 1358.76 529.2 1363.17C485.867 1404.19 441.6 1449.62 411.733 1503.75C394.533 1534.98 391.867 1568.04 390.533 1602.08V1603.31H332.267Z" fill="#220800"/>
<path d="M389.2 1602.08C370.667 1602.08 352.133 1602.08 333.6 1602.08C334.8 1566.94 337.333 1533.38 356.267 1502.03C389.333 1447.05 438.933 1402.36 490.667 1362.19C555.733 1311.62 625.067 1264.84 665.333 1193.82C682.133 1164.06 688.267 1133.57 691.733 1100.38C704.267 980.743 695.733 857.431 695.733 737.302C695.733 482.718 695.733 760.691 695.733 506.107C697.2 506.107 698 506.107 699.467 506.107C699.467 760.691 699.467 482.718 699.467 737.302C699.467 857.431 706.933 980.131 695.867 1099.89C692.933 1132.34 688.133 1163.32 673.333 1193.2C640.133 1260.31 583.2 1310.39 528.267 1362.44C483.467 1404.81 439.867 1450.24 410.667 1503.26C393.2 1534.61 390.533 1567.3 389.2 1602.08Z" fill="#220800"/>
<path d="M689.867 1618V1616.78C688.8 1529.95 696.267 1442.03 703.467 1357.05C709.6 1285.04 715.867 1210.59 716.933 1137.24C718.133 1060.09 717.867 981.6 717.467 905.678C717.333 871.513 717.2 836.246 717.2 801.469V0H723.733V801.469C723.733 817.021 723.733 832.573 723.733 848.247C723.733 942.537 723.733 1039.89 724.667 1135.77C725.467 1214.14 731.733 1293.49 737.6 1370.4C743.867 1451.09 750.4 1534.49 750.667 1616.78V1618H689.867Z" fill="#220800"/>
<path d="M749.333 1602.08C729.867 1602.08 710.533 1602.08 691.067 1602.08C689.2 1441.79 715.6 1282.72 718 1122.55C719.733 1010.62 718.267 898.698 718.267 786.774C718.267 574.804 718.267 927.353 718.267 715.383C718.267 571.253 718.267 145.354 718.267 1.22455C719.867 1.22455 720.533 1.22455 722.133 1.22455C722.133 145.354 722.133 571.253 722.133 715.383C722.133 927.353 722.133 574.804 722.133 786.774C722.133 898.209 721.867 1009.64 723.067 1121.08C724.933 1281.74 748.667 1441.17 749.333 1602.08Z" fill="#220800"/>
<path d="M1382.27 1603.31V1602.08C1380.8 1540.61 1361.47 1500.69 1312.93 1459.54C1251.6 1407.5 1172.27 1374.31 1095.47 1342.35C1080.53 1336.11 1065.07 1329.62 1050.13 1323.25C1040.13 1318.96 1030 1314.68 1019.2 1310.15C942.4 1277.7 855.333 1240.96 802.667 1180.96C768.667 1142.26 764.133 1089.73 762.4 1039.28C761.333 1006.7 761.467 973.518 761.733 941.435C761.867 927.598 762 913.271 762 899.311V825.715H768.4V899.311C768.4 913.271 768.267 927.475 768.133 941.19C767.867 972.416 767.6 1004.62 768.667 1036.34C770.267 1086.18 774.533 1137.98 807.467 1175.57C856.8 1231.9 940.133 1264.72 1013.6 1293.62C1026 1298.51 1037.6 1303.05 1049.07 1307.7C1072.13 1317.13 1095.87 1326.07 1120.93 1335.5C1212.13 1370.03 1306.4 1405.66 1375.47 1465.3C1420.4 1504.12 1438.53 1542.45 1440 1602.08V1603.31H1382.27V1603.31Z" fill="#220800"/>
<path d="M1049.6 1603.31V1602.08C1048.27 1568.16 1045.6 1534.98 1028.4 1503.75C998.533 1449.62 954.4 1404.19 910.933 1363.17C906.267 1358.76 901.467 1354.23 896.8 1349.82C847.333 1303.29 796.133 1255.17 765.6 1193.69C751.2 1164.67 746.133 1135.16 742.933 1100.01C735.067 1014.54 736.667 926.373 738.133 841.144C738.8 806.979 739.333 771.712 739.333 737.302V361.61H745.733V737.302C745.733 771.835 745.067 807.224 744.267 841.389C742.533 926.741 740.8 1015.03 749.733 1100.26C752.8 1130.02 758.133 1161.85 776 1193.2C810.8 1254.68 868.533 1298.64 924.4 1341.25C932.933 1347.74 941.733 1354.48 950.4 1361.21C994.4 1395.38 1049.33 1442.15 1085.07 1501.42C1104 1532.77 1106.67 1566.94 1107.87 1602.08V1603.31H1049.6Z" fill="#220800"/>
<path d="M1050.93 1602.08C1069.47 1602.08 1088 1602.08 1106.53 1602.08C1105.33 1566.94 1102.8 1533.38 1083.87 1502.03C1050.8 1447.05 1001.2 1402.36 949.467 1362.19C884.4 1311.62 815.067 1264.84 774.8 1193.82C758 1164.06 751.867 1133.57 748.4 1100.38C735.867 980.743 744.4 857.431 744.4 737.302C744.4 482.718 744.4 617.419 744.4 362.835C742.933 362.835 742.133 362.835 740.667 362.835C740.667 617.419 740.667 482.718 740.667 737.302C740.667 857.431 733.2 980.131 744.267 1099.89C747.2 1132.34 752 1163.32 766.8 1193.2C800 1260.31 856.933 1310.39 911.867 1362.44C956.667 1404.81 1000.27 1450.24 1029.47 1503.26C1046.8 1534.61 1049.47 1567.3 1050.93 1602.08Z" fill="#220800"/>
</svg>
