<svg width="159" height="295" viewBox="0 0 159 295" fill="none" xmlns="http://www.w3.org/2000/svg">
<path d="M79.8984 0.0478516H79.6258C77.2128 0.0478516 75.2566 2.00226 75.2566 4.41313V290.025C75.2566 292.436 77.2128 294.391 79.6258 294.391H79.8984C82.3115 294.391 84.2676 292.436 84.2676 290.025V4.41313C84.2676 2.00226 82.3115 0.0478516 79.8984 0.0478516Z" fill="#333333"/>
<path d="M158.687 247.419C158.687 248.545 157.252 249.462 155.472 249.462H94.6345C92.8624 249.462 91.4204 248.545 91.4204 247.419C91.4204 246.294 92.8553 245.369 94.6345 245.369H155.472C157.244 245.369 158.687 246.287 158.687 247.419Z" fill="#220800"/>
<path d="M68.1111 247.419C68.1111 248.545 66.6762 249.462 64.897 249.462H4.05905C2.28699 249.462 0.844971 248.545 0.844971 247.419C0.844971 246.294 2.27982 245.369 4.05905 245.369H64.897C66.6691 245.369 68.1111 246.287 68.1111 247.419Z" fill="#220800"/>
<path d="M158.687 210.218C158.687 211.343 157.252 212.261 155.472 212.261H94.6345C92.8624 212.261 91.4204 211.343 91.4204 210.218C91.4204 209.093 92.8553 208.168 94.6345 208.168H155.472C157.244 208.168 158.687 209.085 158.687 210.218Z" fill="#220800"/>
<path d="M68.1111 210.218C68.1111 211.343 66.6762 212.261 64.897 212.261H4.05905C2.28699 212.261 0.844971 211.343 0.844971 210.218C0.844971 209.093 2.27982 208.168 4.05905 208.168H64.897C66.6691 208.168 68.1111 209.085 68.1111 210.218Z" fill="#220800"/>
<path d="M158.687 228.819C158.687 229.944 157.252 230.861 155.472 230.861H94.6345C92.8624 230.861 91.4204 229.944 91.4204 228.819C91.4204 227.693 92.8553 226.769 94.6345 226.769H155.472C157.244 226.769 158.687 227.686 158.687 228.819Z" fill="#220800"/>
<path d="M68.1111 228.819C68.1111 229.944 66.6762 230.861 64.897 230.861H4.05905C2.28699 230.861 0.844971 229.944 0.844971 228.819C0.844971 227.693 2.27982 226.769 4.05905 226.769H64.897C66.6691 226.769 68.1111 227.686 68.1111 228.819Z" fill="#220800"/>
<path d="M158.687 193.094C158.687 194.22 157.252 195.137 155.472 195.137H94.6345C92.8624 195.137 91.4204 194.22 91.4204 193.094C91.4204 191.969 92.8553 191.044 94.6345 191.044H155.472C157.244 191.044 158.687 191.962 158.687 193.094Z" fill="#220800"/>
<path d="M68.1111 193.094C68.1111 194.22 66.6762 195.137 64.897 195.137H4.05905C2.28699 195.137 0.844971 194.22 0.844971 193.094C0.844971 191.969 2.27982 191.044 4.05905 191.044H64.897C66.6691 191.044 68.1111 191.962 68.1111 193.094Z" fill="#220800"/>
<path d="M158.687 155.893C158.687 157.018 157.252 157.935 155.472 157.935H94.6345C92.8624 157.935 91.4204 157.018 91.4204 155.893C91.4204 154.767 92.8553 153.842 94.6345 153.842H155.472C157.244 153.842 158.687 154.76 158.687 155.893Z" fill="#220800"/>
<path d="M68.1111 155.893C68.1111 157.018 66.6762 157.935 64.897 157.935H4.05905C2.28699 157.935 0.844971 157.018 0.844971 155.893C0.844971 154.767 2.27982 153.842 4.05905 153.842H64.897C66.6691 153.842 68.1111 154.76 68.1111 155.893Z" fill="#220800"/>
<path d="M158.687 174.493C158.687 175.619 157.252 176.536 155.472 176.536H94.6345C92.8624 176.536 91.4204 175.619 91.4204 174.493C91.4204 173.368 92.8553 172.443 94.6345 172.443H155.472C157.244 172.443 158.687 173.361 158.687 174.493Z" fill="#220800"/>
<path d="M68.1111 174.493C68.1111 175.619 66.6762 176.536 64.897 176.536H4.05905C2.28699 176.536 0.844971 175.619 0.844971 174.493C0.844971 173.368 2.27982 172.443 4.05905 172.443H64.897C66.6691 172.443 68.1111 173.361 68.1111 174.493Z" fill="#220800"/>
<path d="M158.687 138.539C158.687 139.671 157.252 140.589 155.472 140.589H94.6345C92.8624 140.589 91.4204 139.671 91.4204 138.539C91.4204 137.406 92.8553 136.496 94.6345 136.496H155.472C157.244 136.496 158.687 137.413 158.687 138.539Z" fill="#220800"/>
<path d="M68.1111 138.539C68.1111 139.671 66.6762 140.589 64.897 140.589H4.05905C2.28699 140.589 0.844971 139.671 0.844971 138.539C0.844971 137.406 2.27982 136.496 4.05905 136.496H64.897C66.6691 136.496 68.1111 137.413 68.1111 138.539Z" fill="#220800"/>
<path d="M158.687 101.337C158.687 102.463 157.252 103.38 155.472 103.38H94.6345C92.8624 103.38 91.4204 102.463 91.4204 101.337C91.4204 100.212 92.8553 99.2876 94.6345 99.2876H155.472C157.244 99.2876 158.687 100.205 158.687 101.337Z" fill="#220800"/>
<path d="M68.1111 101.337C68.1111 102.463 66.6762 103.38 64.897 103.38H4.05905C2.28699 103.38 0.844971 102.463 0.844971 101.337C0.844971 100.212 2.27982 99.2876 4.05905 99.2876H64.897C66.6691 99.2876 68.1111 100.205 68.1111 101.337Z" fill="#220800"/>
<path d="M158.687 119.938C158.687 121.064 157.252 121.988 155.472 121.988H94.6345C92.8624 121.988 91.4204 121.064 91.4204 119.938C91.4204 118.813 92.8553 117.896 94.6345 117.896H155.472C157.244 117.896 158.687 118.813 158.687 119.938Z" fill="#220800"/>
<path d="M68.1111 119.938C68.1111 121.064 66.6762 121.988 64.897 121.988H4.05905C2.28699 121.988 0.844971 121.064 0.844971 119.938C0.844971 118.813 2.27982 117.896 4.05905 117.896H64.897C66.6691 117.896 68.1111 118.813 68.1111 119.938Z" fill="#220800"/>
<path d="M158.687 84.2138C158.687 85.3464 157.252 86.2638 155.472 86.2638H94.6345C92.8624 86.2638 91.4204 85.3464 91.4204 84.2138C91.4204 83.0813 92.8553 82.1709 94.6345 82.1709H155.472C157.244 82.1709 158.687 83.0885 158.687 84.2138Z" fill="#220800"/>
<path d="M68.1111 84.2138C68.1111 85.3464 66.6762 86.2638 64.897 86.2638H4.05905C2.28699 86.2638 0.844971 85.3464 0.844971 84.2138C0.844971 83.0813 2.27982 82.1709 4.05905 82.1709H64.897C66.6691 82.1709 68.1111 83.0885 68.1111 84.2138Z" fill="#220800"/>
<path d="M158.687 47.0118C158.687 48.1371 157.252 49.062 155.472 49.062H94.6345C92.8624 49.062 91.4204 48.1371 91.4204 47.0118C91.4204 45.8864 92.8553 44.9692 94.6345 44.9692H155.472C157.244 44.9692 158.687 45.8864 158.687 47.0118Z" fill="#220800"/>
<path d="M68.1111 47.0118C68.1111 48.1371 66.6762 49.062 64.897 49.062H4.05905C2.28699 49.062 0.844971 48.1371 0.844971 47.0118C0.844971 45.8864 2.27982 44.9692 4.05905 44.9692H64.897C66.6691 44.9692 68.1111 45.8864 68.1111 47.0118Z" fill="#220800"/>
<path d="M158.687 65.6128C158.687 66.7453 157.252 67.6627 155.472 67.6627H94.6345C92.8624 67.6627 91.4204 66.7453 91.4204 65.6128C91.4204 64.4802 92.8553 63.5698 94.6345 63.5698H155.472C157.244 63.5698 158.687 64.5232 158.687 65.6128Z" fill="#220800"/>
<path d="M68.1111 65.6128C68.1111 66.7453 66.6762 67.6627 64.897 67.6627H4.05905C2.28699 67.6627 0.844971 66.7453 0.844971 65.6128C0.844971 64.4802 2.27982 63.5698 4.05905 63.5698H64.897C66.6691 63.5698 68.1111 64.5232 68.1111 65.6128Z" fill="#220800"/>
<path d="M128.332 145.169L125.398 134.977V113.573L128.332 103.388" fill="#42210B"/>
<path d="M128.332 103.388L125.498 113.365H34.0332L31.1993 103.388" fill="url(#paint0_linear)"/>
<path d="M31.1993 103.388L34.1335 113.573V134.977L31.1993 145.169" fill="#42210B"/>
<path d="M31.1993 145.169L34.0332 135.191H125.498L128.332 145.169" fill="url(#paint1_linear)"/>
<path d="M125.376 113.365H34.1552V135.191H125.376V113.365Z" fill="#603813"/>
<path d="M125.376 124.275C125.376 125.135 123.418 125.83 121.014 125.83H38.51C36.0994 125.83 34.1479 125.113 34.1479 124.275C34.1479 123.436 36.0994 122.719 38.51 122.719H121.014C123.418 122.719 125.376 123.414 125.376 124.275Z" fill="white"/>
<defs>
<linearGradient id="paint0_linear" x1="31.1993" y1="108.377" x2="128.332" y2="108.377" gradientUnits="userSpaceOnUse">
<stop stop-color="#8C6239"/>
<stop offset="1" stop-color="#754C24"/>
</linearGradient>
<linearGradient id="paint1_linear" x1="31.1993" y1="140.18" x2="128.332" y2="140.18" gradientUnits="userSpaceOnUse">
<stop stop-color="#A67C52"/>
<stop offset="1" stop-color="#754C24"/>
</linearGradient>
</defs>
</svg>
