<?xml version="1.0" encoding="utf-8"?>
<!-- Generator: Adobe Illustrator 23.0.6, SVG Export Plug-In . SVG Version: 6.00 Build 0)  -->
<svg version="1.1" id="Layer_1" xmlns="http://www.w3.org/2000/svg" xmlns:xlink="http://www.w3.org/1999/xlink" x="0px" y="0px"
	 viewBox="0 0 181.9 28.9" style="enable-background:new 0 0 181.9 28.9;" xml:space="preserve">
<style type="text/css">
	.st0{fill:#231F1B;}
</style>
<title>Artboard 1</title>
<path class="st0" d="M80.1,22.8v-6.7c0-1.3-0.6-2.1-1.7-2.1c-1.4,0-2.4,1.5-2.4,3.6v5.1h-2.3v-7.6c0-0.8-0.1-2.1-0.1-2.8h1.9
	c0.2,0,0.3,0.1,0.3,0.3s0,1.3,0,1.3l0,0c0.6-1.2,1.9-1.9,3.3-1.8c1.8-0.1,3.3,1.2,3.5,3c0,0.1,0,0.2,0,0.3v7.3H80.1z M61.7,20.5
	c0.1,0,0.2,0,0.2,0.2c0,0.5,0.1,1.3,0.1,1.6c-0.8,0.4-1.8,0.7-2.7,0.7c-3.1,0-5.1-1.8-5.1-5.4c0-3.3,1.7-5.4,5.1-5.4
	c1,0,1.9,0.3,2.7,0.7c0,0.4,0,1.2-0.1,1.6c0,0.1-0.1,0.2-0.2,0.2c-0.1,0-0.1,0-0.2-0.1c-0.7-0.3-1.4-0.5-2.1-0.6
	c-2,0-2.8,1.3-2.8,3.5c0,2,0.7,3.5,2.8,3.5c0.7,0,1.4-0.2,2-0.5C61.6,20.6,61.6,20.5,61.7,20.5z M69.8,22.8c-0.2,0-0.3-0.1-0.4-0.3
	c0,0,0,0,0-0.1c0-0.3-0.1-1-0.1-1l0,0c-0.7,1-1.9,1.6-3.2,1.5c-1.8,0-3.2-1.4-3.2-3.1c0-0.1,0-0.1,0-0.2c0-2.4,2.3-3.7,5.8-3.7h0.5
	v-0.4c0-1.1-0.8-1.7-2.2-1.7c-1,0-1.9,0.2-2.8,0.7c-0.1,0-0.1,0-0.2,0.1c-0.1,0-0.2-0.1-0.2-0.2c0,0,0,0,0,0c0-0.4-0.1-1.1-0.1-1.6
	c1.1-0.4,2.2-0.7,3.4-0.7c3.1,0,4.4,1.4,4.4,3.7v4c0,0.9,0.1,1.9,0.2,2.8L69.8,22.8z M69.3,17.6h-0.4c-2.9,0-3.5,1-3.5,2.1
	c0,0.9,0.6,1.6,1.5,1.7c0,0,0.1,0,0.1,0c1.5,0,2.3-1.4,2.3-2.9L69.3,17.6z M39.8,20.6c0.1,0,0.2,0.1,0.2,0.2c0,0.4,0.1,1.4,0.1,1.7
	c-1,0.4-2.1,0.5-3.2,0.5c-3.3,0-5.3-1.7-5.3-5.4c0-3.1,1.7-5.4,4.7-5.4c2.3-0.2,4.3,1.5,4.4,3.8c0,0.2,0,0.4,0,0.7
	c0,0.3,0,0.8-0.1,1.4h-6.6c-0.1,1.6,1.2,2.9,2.8,3c0.1,0,0.3,0,0.4,0c0.8,0,1.7-0.2,2.4-0.6C39.6,20.6,39.7,20.5,39.8,20.6
	L39.8,20.6z M34,16.6h4.3c0.1-1.7-0.8-2.6-2.1-2.6S34,15,34,16.6L34,16.6z M27.5,22.8v-6.6c0-1.2-0.5-2.1-1.7-2.1s-2.2,1.5-2.2,3.6
	v5.1h-2.3v-6.6c0-1.1-0.5-2.1-1.7-2.1s-2.2,1.5-2.2,3.7v5.1H15v-7.5c0-1-0.1-2.4-0.1-2.8h1.9c0.2,0,0.3,0.1,0.3,0.3s0,1.3,0,1.3h0
	c0.6-1.2,1.8-1.9,3.1-1.8c1.3-0.1,2.5,0.7,3,1.9c0.6-1.2,1.8-1.9,3.1-1.9c2.1,0,3.5,1.1,3.5,3.4v7.2H27.5z M44.8,17.8v5h-2.4v-7.7
	c0-0.7-0.1-2.2-0.1-2.7h1.9c0.2,0,0.3,0.1,0.3,0.3s0,1.3,0,1.3l0,0c0.5-1.1,1.6-1.9,2.8-1.8c0.4,0,0.8,0.1,1.2,0.2
	c0,0.4,0,1.4-0.1,1.7s-0.1,0.2-0.2,0.2c-0.1,0-0.1,0-0.2,0c-0.3-0.1-0.7-0.2-1-0.2C46,14.2,44.8,15.1,44.8,17.8L44.8,17.8z
	 M49.8,22.8V12.4h2.3v10.4L49.8,22.8z M49.8,10.9V8.7h2.4v2.3L49.8,10.9z M11.4,22.8l-1.1-3H4.6l-1.1,3H1L6.2,9.2h2.7L14,22.8H11.4z
	 M7.5,11.7L7.5,11.7l-2.3,6.2h4.5L7.5,11.7z M146.1,23c3.1,0,4.5-1.2,4.5-3.1s-1.3-2.6-2.7-3.1l-1.1-0.4c-1-0.3-1.4-0.7-1.4-1.3
	s0.6-1.1,1.8-1.1c0.8,0,1.6,0.2,2.3,0.6c0.1,0,0.1,0.1,0.2,0.1c0.1,0,0.2-0.1,0.2-0.2c0-0.4,0.1-1,0.1-1.6c-0.9-0.5-2-0.7-3-0.7
	c-2.5,0-4.1,1.3-4.1,3.1s1.1,2.5,2.4,2.9l1.1,0.4c1.3,0.4,1.7,0.8,1.7,1.5c0,0.8-0.9,1.2-2.3,1.2c-0.8,0-1.6-0.2-2.4-0.6
	c-0.1,0-0.1-0.1-0.2-0.1c-0.2,0-0.2,0.2-0.2,0.3S143,22,143,22.4C144,22.8,145.1,23,146.1,23z M140.6,20.5c0.1,0,0.2,0.1,0.2,0.2
	c0,0.4,0.1,1.4,0.1,1.7c-1,0.4-2.1,0.5-3.2,0.5c-3.3,0-5.3-1.7-5.3-5.4c0-3.1,1.7-5.4,4.7-5.4c2.3-0.2,4.3,1.5,4.4,3.8
	c0,0.2,0,0.4,0,0.7c0,0.3,0,0.8-0.1,1.4h-6.6c-0.1,1.6,1.2,2.9,2.8,3c0.1,0,0.3,0,0.4,0c0.8,0,1.7-0.2,2.4-0.6
	C140.5,20.5,140.6,20.5,140.6,20.5L140.6,20.5z M134.8,16.5h4.4c0.1-1.7-0.8-2.6-2.1-2.6S134.9,15,134.8,16.5L134.8,16.5z
	 M128.3,22.8v-6.6c0-1.3-0.6-2.1-1.7-2.1c-1.4,0-2.4,1.5-2.4,3.6v5.1h-2.3v-7.6c0-0.8-0.1-2.1-0.1-2.8h1.9c0.2,0,0.3,0.1,0.3,0.3
	S124,14,124,14l0,0c0.6-1.2,1.9-1.9,3.2-1.8c1.8-0.1,3.3,1.2,3.5,3c0,0.1,0,0.2,0,0.3v7.3L128.3,22.8z M106.9,17.8v5h-2.3v-7.7
	c0-0.7-0.1-2.2-0.1-2.7h1.9c0.2,0,0.3,0.1,0.3,0.3s0,1.3,0,1.3h0.1c0.5-1.1,1.6-1.9,2.8-1.8c0.4,0,0.8,0.1,1.2,0.2
	c0,0.4,0,1.4-0.1,1.7s-0.1,0.2-0.2,0.2c-0.1,0-0.1,0-0.2,0c-0.3-0.1-0.7-0.2-1-0.2C108.1,14.2,106.9,15.1,106.9,17.8L106.9,17.8z
	 M114.4,22.8V8.7H112v14.1L114.4,22.8z M99.6,22.8V12.4h2.4v10.4L99.6,22.8z M99.6,10.9V8.7h2.4v2.3L99.6,10.9z M117,22.8V12.4h2.3
	v10.4H117z M117,10.9V8.7h2.4v2.3H117z M96.1,22.8l-1.1-3h-5.8l-1.1,3h-2.5l5.2-13.6h2.7l5.1,13.6H96.1z M92.1,11.7L92.1,11.7
	l-2.2,6.2h4.4L92.1,11.7z"/>
<path class="st0" d="M168,25.8c1,1.7,2.8,2.7,4.8,2.6h8.2l-9.6-11.7c-4.4,0.2-6.8,3-6.3,4.2L168,25.8z"/>
<path class="st0" d="M168.7,12.2c-4.1,0-7.1,0.7-7.1,2.3c0,0.7,0.3,1.4,0.7,2l2.7,4.4c-0.2-0.4-0.3-0.9-0.3-1.3
	c0-2.7,2.4-4.2,5.1-4.8c0.8-0.2,1.6-0.2,2.4-0.2c0.6,0,1.2,0,1.8,0.2C173.6,13.7,172.9,12.2,168.7,12.2z"/>
<path class="st0" d="M158,9.4c1.1,1.8,1.5,2.3,4.2,2.3h5.1l-7-8.8c-1.5-1.9-2.4-2.3-3.8-2.3h-3.8L158,9.4z"/>
</svg>
