<?xml version="1.0" encoding="utf-8"?>
<!-- Generator: Adobe Illustrator 23.0.6, SVG Export Plug-In . SVG Version: 6.00 Build 0)  -->
<svg version="1.1" id="Layer_1" xmlns="http://www.w3.org/2000/svg" xmlns:xlink="http://www.w3.org/1999/xlink" x="0px" y="0px"
	 viewBox="0 0 268 78" style="enable-background:new 0 0 268 78;" xml:space="preserve">
<style type="text/css">
	.st0{fill:#231F1B;}
</style>
<path class="st0" d="M249.9,50.4c-0.7-0.2-2.2-0.6-2.9-1.3c-0.6-0.7-0.8-1.5-0.8-2.2c0-1.3,0.8-3,3.1-3c1.2,0,2.1,0.4,2.8,1.1
	c1,1.1,1.4,2.1,1.6,2.8c0,0.1,0.1,0.1,0.2,0.1l0.3-0.1c0.1,0,0.1-0.1,0.1-0.2c0-0.6-0.4-3.2-0.4-4c0-0.2-0.1-0.4-0.2-0.4
	c-0.1,0-0.2,0-0.3,0.2l-0.3,0.3c-0.1,0.1-0.3,0.2-0.5,0c-0.4-0.2-1.5-0.6-3-0.6c-1.4,0-3.3,0.4-4.2,1.2c-0.8,0.7-1.6,2-1.6,3.3
	c0,1.7,0.4,2.9,1.3,3.7c1.1,1.1,3.6,2.2,4.3,2.5c2,0.7,3.3,1.3,3.3,3.9c0,2.3-1.3,3.2-2.8,3.2c-1.4,0-2.8-0.7-3.6-1.9
	c-0.8-1.3-0.9-2.1-0.9-2.9c0-0.2-0.1-0.2-0.2-0.2l-0.8-0.1c-0.1,0-0.2,0-0.2,0.2c-0.1,0.7-0.3,4-0.4,4.6c-0.1,0.3,0.1,0.4,0.2,0.4
	c0.2,0,0.7,0,0.8-0.3c0.2-0.3,0.3-0.4,0.4-0.4c0.1,0,0.3,0.1,0.6,0.3c1,0.8,2.3,1.3,4,1.3c3.4,0,5.2-2.6,5.2-5.6
	c0-1.7-0.5-2.7-1.1-3.5C253,51.6,251.7,51,249.9,50.4L249.9,50.4z M248.1,65.7c0,0,0.1,0,0.2,0c0.2,0,0.4,0,0.6,0H248.1L248.1,65.7z
	 M4,5.2v67.7h260V5.2H4L4,5.2z M5.3,71.6V6.4h257.5v65.2H5.3L5.3,71.6z M9,67.8h249.3V10.6H9V67.8L9,67.8z M13.3,40.7
	c-0.2-1.7,1.5-1.4,1.5-1.4c0.5,0,0.5,0.4,0.5,0.4c-1.9,7.8-0.6,14.6-0.6,14.6c0.3,1.4,0.1,1.4,0.1,1.4c-0.3,0-0.2-0.4-0.2-0.4
	c-0.1-0.7-0.4-0.1-0.4-0.1c0.1,0.7-0.2,0.7-0.2,0.7c-0.2,0-0.2-0.3-0.2-0.3c-0.1-0.7-0.4-0.2-0.4-0.2c0.1,0.7,0,0.6,0,0.6
	c-0.4,0.1-0.3-0.9-0.3-0.9c-0.1-0.9-0.4-1.2-0.4-1.2c-1.2-4.7,0.5-12.7,0.5-12.7C13.7,41.1,13.3,40.7,13.3,40.7L13.3,40.7z
	 M18.2,23.8c0,0,0.4-0.1,0.3,0.6c0,0,0.1,1.2,0.4,1.5c0,0-1.1,1.3-0.7,2c0,0,0.2,0.2,0.3-0.2c0,0,0.2-1.7,1.4-2c0,0,0.7-0.9,1.1-1.2
	c0,0-0.1,5.4-1.9,5.4c0,0,0.2,0.6-0.2,0.7c0,0-0.3,0-0.2-0.6c0,0-0.2-0.3-0.3,0.2c0,0-0.2,0-0.2-0.4c0,0-0.8,0.7-0.8-2
	C17.5,28,17.3,24.1,18.2,23.8L18.2,23.8z M17.5,22.8v-2.5c0.1-0.5,0.3-0.4,0.3-0.4c0.5-0.1,0.4,0.4,0.4,0.4l-0.1,2.5
	c-0.1,0.4-0.2,0.3-0.2,0.3C17.6,23.1,17.5,22.8,17.5,22.8L17.5,22.8z M17.5,30.3c0.2,0.9-0.1,0.8-0.1,0.8l0.2,0.1
	c0.2,0.4,1,0.6,1,0.6c0.2,1.8-0.1,2-0.1,2c-0.2-0.2-0.3-1.2-0.3-1.2C18.4,32,18,32,18,32c-0.6-0.1-0.7-0.9-0.7-0.9
	c-0.7-0.6-0.3-1.4-0.3-1.4C17.5,29.9,17.5,30.3,17.5,30.3L17.5,30.3z M16.9,28.3c0,0-0.7,0.4-0.8-2.4c0,0-0.1-0.7,0.5-0.8
	c0,0,0.4-0.2,0.4,0.5C17.1,25.5,16.5,27.6,16.9,28.3L16.9,28.3z M19.8,35.9c0,0,1.3,0.7,2.3-1.3c0,0,3.3-5.9,3.4-8.1
	c0,0,0.1-0.6,0.9-0.3c0,0,0.1,0.4-0.2,1c0,0-2.9,7.9-4.7,9.2c0,0-0.5,0.4,0,0.5c0,0,1.1-0.2,0.5,1c0,0-0.3,1.2-1.3,0.5
	c0,0-4.3-2.7-6.1-9.1l-1.1-3c0,0-0.4-0.8,1.3-0.9c0,0,0.9-0.2,0.9,0.6C15.6,25.9,16.8,33.4,19.8,35.9L19.8,35.9z M23.8,18.1
	c3.6,0.2,4.6,2.1,4.6,2.1c1.5,2.7,0.4,4.3,0.4,4.3c-1.8,2.3-3.9,1.1-3.9,1.1c-2.5-1.5-1.5-3.6-1.5-3.6c0.4-0.6,0.3-1.7,0.3-1.7
	c-0.2-1.2-1.3-1.8-1.3-1.8c0.4-0.3,1.6,0.4,1.6,0.4C23.7,18.5,23.8,18.1,23.8,18.1L23.8,18.1z M27,17.7c-0.1,0.7-0.5,0.3-0.5,0.3
	c-0.1-2,1.3-2,1.3-2c0.3,0,0,0.5,0,0.5c-0.2,0.5-0.2,1.9-0.2,1.9c-0.4,0.4-0.3-0.6-0.3-0.6C27.3,17.2,27,17.7,27,17.7L27,17.7z
	 M30.6,35.8c-0.4-1.6,0.6-1.2,0.6-1.2c1.1,0.1,0.4,1.5,0.4,1.5c0,0.7,0.3,0.5,0.3,0.5c0.3-2.9,1.7-3.3,1.7-3.3
	c0.5,1.5-0.8,2.7-0.8,2.7c-0.5,0.6-0.1,1.4-0.1,1.4c0.8,1.1,1.8,2.5,1.8,2.5c1.1,1.9,0.5,3.9,0.5,3.9c-0.7,2.4-4,2.2-4,2.2
	c-2.5,0.1-3.9-1.2-3.9-1.2c-2.5-3.5,0.5-5.7,0.5-5.7c1-0.8,1.8-2.3,1.8-2.3c-0.5-0.6-1.2-0.4-1.2-0.4c-1.9,0.7-1.9,2.5-1.9,2.5
	c0.2,1.3-0.5,1.9-0.5,1.9c-1.3,0.6-2.3-0.4-2.3-0.4c-1.9-1.2-0.8-3.6-0.8-3.6c1.6-2.7,4.8-1.9,4.8-1.9c0.8,0.2,0.4,0.3,0.4,0.3
	c-1.4-0.3-2.8,0.3-2.8,0.3c-0.7,0.4-0.2,0.5-0.2,0.5c2.7-0.7,4,0.3,4,0.3c0.5,0.5,0.4,0,0.4,0c-1.2-1.2-0.6-3.5-0.6-3.5
	c1.5,1.4,1.5,3.6,1.5,3.6C30.7,36.8,30.6,35.8,30.6,35.8L30.6,35.8z M31.1,32.3c1,0.5,0.9,1.5,0.9,1.5c0.1,0.6-0.4,0.5-0.4,0.5h-1.2
	C29.8,34.1,31.1,32.3,31.1,32.3L31.1,32.3z M44.9,25.1c0,0,0.7,2.8-1.1,4.7c0,0-0.4,3.7-0.8,4.3c0,0-0.1,0.3-0.2-0.3
	c0,0-0.4-2.9-0.3-4.2c0,0-1.1-0.5-0.8-4.6c0,0,0-0.6,0.6-0.2c0,0,1.2,1.2,1.3,2.4c0,0,0.4,0.9,0.5-0.1
	C44.1,27.1,43.8,25.7,44.9,25.1L44.9,25.1z M45.1,30.2c0.4,0.3,0.1,0.6,0.1,0.6c-0.3,0.1-0.4,0.5-0.4,0.5c-0.1,0.5-0.2,0.4-0.2,0.4
	C43.7,30.6,45.1,30.2,45.1,30.2L45.1,30.2z M41.3,23.8c-0.7-0.2-0.8-1-0.8-1c0-1.1,0.7-1,0.7-1s0.8-0.1,0.7,1.1
	C41.8,24,41.3,23.8,41.3,23.8L41.3,23.8z M41.5,34.7c0,0,0.1-0.6,0.4-0.2l0.4,0.5c0,0-1.1,0.9-1.4,2c0,0-0.2,0.5,0.4,0.1
	c0,0,0.6-1.3,2-2.7c0,0,2.1-2.3,3.7-7.3c0,0,0.1-1.5,1.4-1.3c0,0,0.9-0.1,0.3,1.8c0,0-2.6,9-8.4,11.2c0,0-0.6-0.7,0.5-2.5
	c0,0,0.1-0.7-0.4-1.3c0,0-2.3-2-4.4-7.9c0,0,0.5-0.3,0.4,0.2c0,0,0.4-0.3,0.5,0.4c0,0,0.2,0.7,0.7,1.7c0,0,0.2,0.3,0.2,0.6
	c0,0,0.2,0.5,0.5,0.5c0,0,0.2,0.3,0.3,1.1c0,0,0.3,0.8,0.7,1.2C39.5,32.8,40.5,34.4,41.5,34.7L41.5,34.7z M49.1,60.1
	c0.2-0.3,0.3,0.1,0.3,0.1c0.4,0.2,0.7,0.8,0.7,0.8c0.2,0.5,0.1,0.4,0.1,0.4C49.5,61.1,49.1,60.1,49.1,60.1L49.1,60.1z M49.5,62.8
	c-0.2,0.9-0.4,0.8-0.4,0.8c-0.4-0.5,0.3-1.5,0.3-1.5C49.6,62.1,49.5,62.8,49.5,62.8L49.5,62.8z M49.9,58.6c-0.5-0.5,0.2-1.8,0.2-1.8
	C50.6,58.9,49.9,58.6,49.9,58.6L49.9,58.6z M49.2,57.4c-0.4,0-0.3-0.7-0.3-0.7c-1.1,0.5-1.4-1.1-1.4-1.1c0.2-5,0.4-11.2,0.4-11.2
	c0.1-2.3-0.5-2.9-0.5-2.9c-0.6-0.9-0.5-1.6-0.5-1.6c0.4-0.3,0.7,1.2,0.7,1.2c-0.4-1.9,0-1.9,0-1.9c0.4,0.5,0.3,1.5,0.3,1.5
	C49,40.7,49,42,49,42C50.5,55.5,49.2,57.4,49.2,57.4L49.2,57.4z M42.3,43.8c0.1,1.1-0.2,10.8-0.2,10.8c0,0.5-0.7,0.4-0.7,0.4
	c-0.4,0-0.6-0.3-0.6-0.3c0.1-4,0.1-10.2,0.1-10.2c0-1.3,0.5-0.9,0.5-0.9C41.8,43.5,42,43,42,43c0.2,0.3,0.1,0.7,0.1,0.7
	C42.2,43.5,42.3,43.8,42.3,43.8L42.3,43.8z M32.8,56.2c-0.2,1.2-0.6,0.9-0.6,0.9c-0.5,0.1-0.5-0.5-0.5-0.5c-1.1,0.1-0.3-0.9-0.3-0.9
	c4.3-17.9,13.5-17.9,13.5-17.9c-0.1,0.3-0.9,0.6-0.9,0.6c-0.5,0.4,0.1,0.3,0.1,0.3c0.7-0.5,2.5-1,2.5-1c0.6-0.1,0.5,0.2,0.5,0.2
	l-0.8,0.4c-0.4,0.4,0.2,0.4,0.2,0.4c0.2-0.3,1.3-0.5,1.3-0.5c0.7-0.1,0.5,0.2,0.5,0.2C36.3,43.8,32.8,56.2,32.8,56.2L32.8,56.2z
	 M30.4,60.9c-0.3,0.4-0.3-0.3-0.3-0.3c-0.2-0.6-0.3,0.2-0.3,0.2c-0.1,0.9-0.4-0.2-0.4-0.2c-0.2-0.3-0.2-0.5-0.2-0.5
	c0-0.8-0.3-0.4-0.3-0.4c-0.2,0.5-0.3-0.5-0.3-0.5C26,47,20.7,41.9,20.7,41.9c-0.8-0.4-0.7-0.6-0.7-0.6c0.1-0.7-0.5-1.2-0.5-1.2
	c-1.1-0.5-1.8-1.1-1.8-1.1c-0.3-0.4-1.7-0.5-1.7-0.5c-0.4-0.3,0-0.5,0-0.5c1.6,0.2,1.7,0.4,1.7,0.4c-0.2-0.5,0.2-0.6,0.2-0.6
	c1.2,0.2,2.4,0.8,2.4,0.8c1,0.4,0.9,0.8,0.9,0.8c1.3,0.7,2.3,1.7,2.3,1.7C31.2,50.6,31,59,31,59c0.5,0,0.4,0.4,0.4,0.4
	c0.1,0.6-0.5,0.4-0.5,0.4c-0.4-0.5-0.4-0.1-0.4-0.1C30.7,60.6,30.4,60.9,30.4,60.9L30.4,60.9z M21.1,54c0.3,1.1-0.8,1-0.8,1
	c-0.8,0-0.5-0.7-0.5-0.7c0.2-0.3-0.1-0.5-0.1-0.5c-0.3-1.8,0.2-11.9,0.2-11.9c0.1-0.4,0.3-0.1,0.3-0.1c0.2,0.2-0.1,0.7-0.1,0.7
	c0.8-0.5,1,0.5,1,0.5C20.7,48.1,21.1,54,21.1,54L21.1,54z M14.2,35.1c0,0,0.6-0.5,0.6-0.8c0,0-0.1-1,0.5-1.3c0,0,0.8,0.4,0.9,1.6
	c0,0-0.2,0.7-0.5,0.8c0,0-0.2,0.2,0.1,0.6c0,0,0.5,1-0.5,1.5c0,0-0.6,0.2-0.8-0.1c0,0-0.2,0.5-0.4,0.5c0,0-0.3-0.2,0.1-0.8
	C14.1,37.2,13.2,36.7,14.2,35.1L14.2,35.1z M17.4,39.3c0,0-1.5-0.4-1.7-0.6c0,0,1.5-0.2,2,0.6C17.7,39.3,17.8,39.5,17.4,39.3
	L17.4,39.3z M17.3,36.1c0,0,0.5,0.4,0.6,0.8c0,0-0.8,0.5-1.1-0.1C16.8,36.8,16.5,35.9,17.3,36.1L17.3,36.1z M25.2,42.4V42
	c0,0,0.8-0.2,0.4,0.8C25.6,42.9,25.3,42.9,25.2,42.4L25.2,42.4z M27.9,46.5c0,0,0.8-0.5,0.9,1.8c0,0-0.5,0.3-0.6-0.7
	C28.2,47.6,27.9,46.8,27.9,46.5L27.9,46.5z M31.4,50.1c0.3,2.2-0.3,5.7-0.3,5.7c-0.3-0.9-1.2-3.9-1.2-3.9l-0.2-1.8
	c-0.7-0.9-0.1-3.7-0.1-3.7c0.3-0.2,0.4,0,0.4,0c0,0.2,0.1,0.2,0.1,0.2c0.5-0.5,1.3-0.1,1.3-0.1c0.3,0,0.4,0.2,0.4,0.2
	c0.1-0.3,0.4-0.3,0.4-0.3C32.5,49.9,31.4,50.1,31.4,50.1L31.4,50.1z M32.8,48.6c0.2-2.3,1.4-2.9,1.4-2.9c0.5,0.3-0.5,1.9-0.5,1.9
	c-0.6,0.9-1.2,2.8-1.2,2.8c-0.4,0.6-0.2-0.2-0.2-0.2C32.4,49.9,32.8,48.6,32.8,48.6L32.8,48.6z M36,43.1c0.3-0.1,0.2,0.6,0.2,0.6
	c-0.2,0.3-0.5,0.1-0.5,0.1C35.4,43.3,36,43.1,36,43.1L36,43.1z M46.9,33.7c0,0,0.1,1.8,0.7,2.7c0,0,0.2,0.7-0.8,0.5
	c0,0-0.3-1.1-0.6-1.4C46.1,35.5,45.5,34.3,46.9,33.7L46.9,33.7z M37.3,33.3c0.8-0.7,1-0.6,1-0.6l0.3,0.3c0.5,1.1-0.7,1.4-0.7,1.4
	C36.7,35,34,35,34,35l0.1-0.4c0.1-1.3,1.6-0.9,1.6-0.9C36.5,33.7,37.3,33.3,37.3,33.3L37.3,33.3z M37.9,36c2.7,1.8,1.4,3.8,1.4,3.8
	c-2,3.3-3.3,2.5-3.3,2.5c-1.3-1-0.7-2.6-0.7-2.6c0.3-1.3-0.2-2.1-0.2-2.1c-0.7-1.3-1.4-0.8-1.4-0.8c-0.5,0.7-0.6,0.4-0.6,0.4
	c-0.5-0.5,0.3-0.7,0.3-0.7C35.7,34.7,37.9,36,37.9,36L37.9,36z M26.9,34.1c0,0-0.4-0.2-1.4,0c0,0-1.7-0.6-1.1-1.9
	c0,0,0.7-0.9,1.5,0.2c0,0,0.5,0.8,1.4,1c0,0,1.2-0.4,0.8,1.1C28.1,34.4,28.2,34.6,26.9,34.1L26.9,34.1z M12.5,42.3
	c0,0,0.4,0.4-0.2,1.8c0,0-0.6,0.3-0.9-0.2c0,0-0.3-2.6,0.2-2.7c0,0,0.6-1.8,1.5-1.7c0,0,0.4,0.6-0.8,2.3
	C12.2,41.8,12.1,42.2,12.5,42.3L12.5,42.3z M11.7,64.2L11.5,63c0,0,0.2-0.1,0.5,0.2c0,0,1.1,1.4,2.5,1.2l0.3,1.1
	C14.8,65.5,12.4,66.2,11.7,64.2L11.7,64.2z M13.7,60.2l0.3-0.1c0.1,0.7,0.7,3.5,0.7,3.5C14.1,63.1,13.7,60.2,13.7,60.2L13.7,60.2z
	 M15.4,65.8c-0.3-0.1-0.7-1.6-0.7-1.6C15.5,64.6,15.4,65.8,15.4,65.8L15.4,65.8z M16,65.6c-1.1-0.9-1.6-5.3-1.6-5.3
	c0.1-0.3,0.2,0,0.2,0c0.9,3.9,1.4,4.9,1.4,4.9C16,65.7,16,65.6,16,65.6L16,65.6z M14.8,60c0.1-0.3,0.4,0.1,0.4,0.1
	c0.2,0.9,0.4,2.9,0.4,2.9C15.2,62.1,14.8,60,14.8,60L14.8,60z M16.9,65.2c-0.7-0.1-0.8-2.4-0.8-2.4c0.5,1.8,0.7,2,0.7,2
	C17.1,65.3,16.9,65.2,16.9,65.2L16.9,65.2z M17.3,64.8c0,0-0.7-0.2-0.5-1.2c0,0,0.8-0.5,0.8-0.9c0,0,0.5-0.7,0.6,0.3
	C18.1,63.1,18.3,64.9,17.3,64.8L17.3,64.8z M18.7,64.7c-0.3-0.3-0.1-2.5-0.1-2.5c0.3-0.3,0.3,0.1,0.3,0.1l0.1,1.5
	C18.9,65,18.7,64.7,18.7,64.7L18.7,64.7z M20,65.2c-0.2,0.4-0.4,0.1-0.4,0.1l0.2-6.1l0.3,0.1L20,65.2L20,65.2z M20.7,65.2
	c-0.2,0.3-0.4,0-0.4,0l0.2-5.8l0.3,0.2L20.7,65.2L20.7,65.2z M28.3,66c0,0-0.8-7.3-11.7-7.4c0,0-3.9,0.3-5.1,3.9
	c0,0-0.4-2.8,0.1-3.7c0,0,4.6-7.5,14.7-0.9c0,0,3.8,2.6,5.3,8L28.3,66L28.3,66z M32,65.6c0,0-0.4,0-0.1-0.5c0,0-0.1-0.3-0.4-0.2
	c0,0-0.3-1.5-1.4-2.9c0,0,2.9-5.4,11.2-6.6c0,0,6.1-0.6,8.1,3.4c0,0,0.3,1.2-0.7,1c0,0-4.4-3.3-10.7,0.2
	C38.1,59.9,36.3,60.4,32,65.6L32,65.6z M41.7,65.3c-0.8,0.6-1.4-0.2-1.4-0.2c-0.2-1,0.4-5.8,0.4-5.8c0.1-0.2,0.5-0.1,0.5-0.1
	c0.2-0.5,0.6-0.5,0.6-0.5C42.1,60.8,41.7,65.3,41.7,65.3L41.7,65.3z M42.6,63.1c0,0,0.4,0.1,0.5,0.7c0,0-0.1,0.3-0.5-0.4
	C42.5,63.4,42.4,63.1,42.6,63.1L42.6,63.1z M43.5,65.6c0,0-0.6-0.1-0.8-0.8c0,0,0.1-0.3,0.3-0.3c0,0,0.3,0.7,0.9,0.6
	C43.8,65.1,44.2,65.6,43.5,65.6L43.5,65.6z M44.7,64.9c-0.6,0.3-1-0.5-1-0.5C45.1,64.3,44.7,64.9,44.7,64.9L44.7,64.9z M45.2,66
	c1.1-1.8,1.9-6.4,1.9-6.4c0.4-0.1,0.4,0.4,0.4,0.4c0.1,0.6,0.2,0.3,0.2,0.3C48,60,48,60.4,48,60.4c-0.2,0.5,0.3,0.3,0.3,0.3
	c0.1-0.4,0.2-0.2,0.2-0.2c0.1,1.9-1.3,5.8-1.3,5.8C46.2,66.5,45.2,66,45.2,66L45.2,66z M49.3,65.5c0.6,0,0.5,0.4,0.5,0.4
	c-0.3,0.3-0.6-0.1-0.6-0.1c-1.2,0-0.7-0.5-0.7-0.5c1.9-0.4,1.5-1.1,1.5-1.1c-1.1,1.1-1.2,0.6-1.2,0.6c0.1-0.5,1-1.3,1-1.3
	c0.1-0.6,0.5-0.6,0.5-0.6C50.8,65.2,49.3,65.5,49.3,65.5L49.3,65.5z M50.6,41.9c-0.3,2.3-0.9,1.6-0.9,1.6c-0.1-0.3,0.4-0.7,0.4-0.7
	c-1.2,0.2-0.7-0.7-0.7-0.7c0.1-1.1-0.3-1.5-0.3-1.5c-0.5-0.5-0.3-1.6-0.3-1.6c0.2-0.3,0.6-0.1,0.6-0.1
	C50.9,39.7,50.6,41.9,50.6,41.9L50.6,41.9z M49.7,25.5c-2.3,0-1.9-1.2-1.9-1.2c0.1-0.6,0.3-2.2,0.3-2.2c0-1.9-1.2-2-1.2-2
	c-0.8-0.1-0.6,0.1-0.6,0.1c1.2,0.8,1,0.9,1,0.9c-0.3-0.1-1.1-0.2-1.1-0.2c-1.3,0.1-1.3,1.7-1.3,1.7c0.1,0.7-0.1,1.4-0.1,1.4
	c-0.6,1.7-1.2,1.6-1.2,1.6C43.1,25.6,43,25,43,25c0.2-0.5-0.2-0.7-0.2-0.7c-0.4-0.1-0.4-0.7-0.4-0.7c0.1-0.8-0.2-1.7-0.2-1.7
	c-0.4-1.6-1-1.5-1-1.5c-1.2,0.5-1.5,2-1.5,2c-0.2,0.8,0.4,0.9,0.4,0.9c0.5,0.5,0.4,1.1,0.4,1.1c0,2.5-3,2.4-3,2.4
	c-3.3-0.6-3.3-3.6-3.3-3.6c-0.1-4.2,5.2-4.5,5.2-4.5c-0.8,0.5-0.9,1-0.9,1c3.8-1.7,5.3,2.4,5.3,2.4c0.4,0,0.7-0.8,0.7-0.8
	c0.3-0.7,1-1.4,1-1.4c1.7-1.5,3.4-0.3,3.4-0.3c0.4-0.5,1.2-0.1,1.2-0.1c1.4,0.8,1,4.3,1,4.3C51.2,25.7,49.7,25.5,49.7,25.5
	L49.7,25.5z M48.4,18.2c0.2-0.9,1.4-1.1,1.4-1.1c0.2-0.1,0.3,0.2,0.3,0.2c0.2,1.1-0.1,1.5-0.1,1.5l-0.8-0.1
	C48.3,18.8,48.4,18.2,48.4,18.2L48.4,18.2z M63.9,32.8v-5.3v-2l1-0.1c1.8,0,3,0,4.6,0.7c2.3,0.9,3.3,2.6,3.3,5.7
	c0,4.6-2.5,6.1-5.7,6.1C63.9,37.8,63.9,36.3,63.9,32.8L63.9,32.8z M68.2,41.2c2.3,0.2,5.8,1.2,5.8,6.2c0,1.3-0.2,2.7-1,3.8
	c-1,1.3-2,2.5-4.3,2.5c-1.5,0-2.3-0.1-3.1-0.3v-12C66.3,41.1,67.5,41.2,68.2,41.2L68.2,41.2z M87.7,65.6H87c-0.2,0-0.3,0-0.3,0.2
	v0.7l0,0h-6.1c0,0,0,0,0-0.1v-0.7c0-0.1-0.1-0.2-0.3-0.2H79c-0.6,0-1-0.2-1-0.6c0-0.1,0.1-0.4,0.1-0.6c0.1-0.6,1.7-4.7,2-5.4h6.6
	c0.4,1.1,1.5,4.6,1.8,5.6C88.7,65.3,88.5,65.6,87.7,65.6L87.7,65.6z M80.5,57.6c0.2-0.7,2.9-8.1,3-8.4c0.1-0.2,0.1-0.2,0.2-0.2
	s0.1,0,0.2,0.2c0.1,0.4,2.4,7.6,2.7,8.5L80.5,57.6L80.5,57.6z M97.3,53.6c0,4.4-0.1,10.3-0.2,10.7c-0.1,1-0.4,1.2-1.7,1.2h-1.6
	c-0.1,0-0.2,0-0.2,0.1c-0.5-0.1-0.7-0.5-1.1-1.3c-0.4-0.8-2.2-6.2-2.9-8.4c-0.5-1.8-2.7-8.3-3.3-10.1c-0.1-0.3-0.6-0.5-0.8-0.5
	c-0.1,0-0.2,0.1-0.4,0.3C85,46,83.4,46.8,82.7,47c-0.2,0.1-0.3,0.2-0.3,0.3s0.1,0.3,0.2,0.4c0.2,0.3,0.1,0.7,0,1
	c-0.3,0.8-2.5,7-2.7,7.5c-0.8,2.4-3.1,7.6-3.3,8.1c-0.4,0.9-0.6,1.4-1.4,1.4h-1.6c-0.1,0-0.2,0.1-0.2,0.2v0.7l0,0h-4.1v-0.7
	c0-0.2,0-0.3-0.3-0.3l-2.1,0.1c-0.8,0-1.2-0.4-1.3-1.2c0-0.5-0.1-5.7-0.1-7.5l0.1-1.7c1.2,0.2,2.4,0.1,3.8,0.1c6,0,9.6-3,9.6-7.7
	c0-2.2-1.2-4.5-3-5.7c-1-0.7-2-1.2-3.2-1.4h20.5v0.7c0,0.2,0,0.3,0.2,0.3h2.2c1,0,1.4,0.1,1.5,0.8c0,0.4,0.1,4.5,0.1,7L97.3,53.6
	L97.3,53.6z M144.8,66.5v-0.4c0-0.1,0-0.2-0.2-0.2h-1.2c-0.4,0-0.7-0.5-0.7-1.1c0-0.4-0.1-3.6-0.1-5.3v-1.6c0.4-0.1,0.7-0.1,0.9-0.1
	c1.7,0,1.7,0.8,2.5,1.7c0.3,0.4,1.7,2.5,1.8,2.7s1.7,2.9,1.9,3.3c0.2,0.2,0.5,0.7,0.8,1.1h-5.7V66.5z M142.6,56.7l0.1-7.9
	c0-0.5,0.1-0.8,0.3-0.9c0.3-0.2,0.6-0.2,1-0.2c2.4,0,2.9,0.2,4,1.1c0.8,0.7,1.4,1.9,1.4,3.3c0,1.2-1,4.8-6.2,4.8
	C142.8,56.9,143.1,56.8,142.6,56.7L142.6,56.7z M156.4,66.5v-0.4c0-0.1,0-0.2-0.2-0.2c-0.8,0-1.5-0.1-2.1-0.5
	c-0.5-0.4-2.4-3-2.5-3.3c-0.2-0.4-2.2-3.3-2.6-3.7c-0.6-0.6-0.6-0.7-1.3-1l-0.7-0.2c3.7-0.8,6-2,6-5.6c0-1.1-0.5-2.3-1.5-3.3
	c-1.1-1-3.6-1.9-6-1.9c-0.5,0-3.2,0.1-4.8,0.1c-2.4,0-3.3-0.1-3.5-0.1c-0.1,0-0.2,0.1-0.2,0.2v0.7c0,0.1,0,0.2,0.2,0.2h1.1
	c0.7,0,1.1,0.5,1.1,1.4c0,0.8,0,2.7,0,4.8v2.8c0,2.7,0,5.4-0.1,8.2c0,0.8-0.5,1-1.1,1H137c-0.1,0-0.1,0.1-0.1,0.2v0.4h-1l1.9-5.3
	c0.1-0.3,0.1-0.4-0.1-0.5l-0.6-0.3c-0.2-0.1-0.3,0-0.5,0.2c-0.5,0.9-2.6,3.4-3.1,3.8c-1,0.8-2.7,1.3-3.4,1.4
	c-0.8,0.1-2.7,0.1-3.4,0.1c-1,0-1.5-0.1-2.2-0.3c-1.2-0.2-2.2-0.8-2.3-2.8c0-0.8-0.1-4.5-0.1-6.6v-2.4c0.6,0,2.6,0,4.5,0.2
	c1,0.1,2.1,0.7,2.3,1.5c0.1,0.4,0.3,1.3,0.4,1.8c0,0.3,0.1,0.4,0.3,0.3l0.8-0.1c0.2,0,0.2-0.1,0.2-0.3c-0.1-0.8-0.2-2.7-0.2-4
	c0-0.6,0-3.7,0.1-4.4c0-0.2-0.7-0.3-0.9-0.3h-0.3c-0.2,0-0.3,0.1-0.3,0.3c0,0.7-0.2,1.5-0.3,1.9c-0.3,1.2-1.3,1.5-2.4,1.7
	c-0.5,0.1-4,0.2-4.3,0.2V41.2l6.2,0.2c1,0,2.1,0.5,2.9,1c0.9,0.6,3.8,4.2,3.9,4.4c0,0.1,0.2,0.2,0.3,0.1l0.9-0.2
	c0.2-0.1,0.2-0.2,0.1-0.3c-0.1-0.4-1.6-4.9-1.9-6h14l0,0v0.9c0,0.1,0,0.3,0.2,0.3h1.2c0.7,0,1.2,0.3,1.5,1.3l7.7,23.5
	c0,0.1,0.1,0.2,0.1,0.2L156.4,66.5L156.4,66.5z M140,38.9h-8c0.1,0,0.2-0.1,0.2-0.2v-0.9c0-0.2-0.1-0.3-0.4-0.3H130
	c-0.8,0-1.3-0.3-1.3-0.9c0-0.2,0.1-0.6,0.1-0.9c0.2-0.8,2.1-6.3,2.5-7.2h8.7c0.5,1.5,1.9,6,2.2,7.4c0.3,1.1-0.1,1.5-1.1,1.5h-1
	c-0.2,0-0.3,0-0.3,0.3v0.9C139.8,38.8,139.9,38.9,140,38.9L140,38.9z M157.8,41.5c0.2,0,0.3-0.1,0.3-0.3v-0.9h5.8l0,0v0.9
	c0,0.2,0,0.3,0.2,0.3h0.9c0.6,0,1.1,0.2,1.4,0.7c0.3,0.4,0.6,1,0.5,1.3c-0.1,1.5-5.2,15.9-5.3,16.5l-5.5-17.2
	C155.9,42,156.9,41.5,157.8,41.5L157.8,41.5L157.8,41.5z M160.7,66.5c0.1-0.1,0.2-0.3,0.3-0.4c0.2-0.4,6.4-18.5,6.7-19.5h0.1
	l6.6,19.5c0.1,0.2,0.1,0.3,0.3,0.4H160.7L160.7,66.5z M210.8,66.5v-0.7c0-0.2,0-0.3-0.3-0.3h-2.2c-0.6,0-0.9-0.7-0.9-1.5
	c0-0.6-0.1-4.8-0.1-7v-2.1c0.5-0.1,0.9-0.1,1.2-0.1c2.2,0,2.3,1,3.2,2.2c0.5,0.5,2.3,3.2,2.4,3.5c0.2,0.3,2.2,3.9,2.5,4.3
	s0.8,1.2,1.2,1.7H210.8L210.8,66.5z M222,38.9h-8c0.1,0,0.2-0.1,0.2-0.2v-0.9c0-0.2-0.1-0.3-0.4-0.3H212c-0.8,0-1.3-0.3-1.3-0.9
	c0-0.2,0.1-0.6,0.1-0.9c0.2-0.8,2.1-6.3,2.5-7.2h8.7c0.5,1.5,1.9,6,2.2,7.4c0.3,1.1-0.1,1.5-1.1,1.5h-1c-0.2,0-0.3,0-0.3,0.3v0.9
	C221.8,38.8,221.9,38.9,222,38.9L222,38.9z M214.5,42.9c1.1,0.9,1.9,2.6,1.9,4.3c0,1.6-1.3,6.3-8.2,6.3c-0.7,0-0.3,0-0.9-0.2V42.7
	c0-0.6,0.2-1,0.5-1.2s0.8-0.3,1.3-0.3C212.2,41.2,213,41.8,214.5,42.9L214.5,42.9z M225.8,53.1c0,4.7-0.1,11.6-0.1,12
	c0,0.2-0.1,0.3-0.3,0.5c0,0-0.1-0.1-0.2-0.1c-1.1,0-1.9-0.1-2.7-0.6c-0.7-0.5-3.1-4-3.3-4.3c-0.3-0.5-3-4.3-3.4-4.8
	c-0.8-0.9-1-1.1-1.9-1.4l-0.7-0.1c4.8-1.1,7.9-2.8,7.9-7.5c0-1.4-1-3.1-2.2-4.4c-0.9-0.9-2.6-1.6-4.4-2h8.8v1c0,0.2,0.1,0.3,0.3,0.3
	l1,0.1c0.9,0,1.1,0.5,1.1,0.9c0,0.3,0.1,7.7,0.1,8.4L225.8,53.1L225.8,53.1z M238.8,65.7h-0.6c-0.2,0-0.2,0.1-0.2,0.2v0.5h-4.9v-0.6
	c0-0.2-0.1-0.2-0.3-0.2h-1.7c-0.5,0-0.8-0.3-0.9-0.8c0-0.5-0.1-6.1-0.1-8v-2.7h0.7c0.6,0,1.1,0.1,1.7,0.6c0.5,0.4,6.8,9.3,7.2,10.1
	C239.9,65.2,239.6,65.7,238.8,65.7L238.8,65.7z M249.1,66.5V66c0-0.1-0.5-0.3-0.8-0.3c-1-0.1-2.4-0.3-2.9-1
	c-0.3-0.4-9.9-12.9-10.2-13.3c1.6-2.1,6.9-8.1,8.3-9.1c0.7-0.5,1.6-0.7,2.1-0.7h0.8c0.2,0,0.3-0.1,0.3-0.3v-1h10.4v26.2H249.1
	L249.1,66.5z M240.6,23.5c0-2.7,0.1-8.5,0.1-9c0-1.1,0.2-0.9,1.3-0.9h1.8c0.3,0,0.4-0.1,0.4-0.3v-1.4h12.7V39h-3.5
	c0.3-1.2,1.8-7.3,1.9-7.6c0-0.2,0-0.3-0.1-0.3l-0.6-0.2c-0.2-0.1-0.2,0-0.3,0.2c-0.5,1.5-2.9,6.1-5.1,6.5c-1.2,0.2-7.7,0.1-8.6,0
	c-0.1-1.6-0.1-9.9-0.1-10.6v-3.5H240.6z M239.1,41.5h0.5c0.5,0,0.7,0.4,0.3,0.9c-0.3,0.5-7.4,9.5-8.2,10.1c-0.5,0.4-0.3,0.3-0.9,0.3
	h-0.5v-1.7c0-1.9,0.1-7.8,0.1-8.4c0-0.9,0.1-1.2,0.8-1.2h1.6c0.2,0,0.3-0.1,0.3-0.3v-1h5.7l0,0v0.9
	C238.9,41.4,238.9,41.5,239.1,41.5L239.1,41.5z M232.3,11.9v1.3c0,0.2,0,0.4,0.3,0.4h1.8c1.2,0,1.4-0.2,1.4,0.8
	c0,0.7,0.1,4.8,0.1,7.3v2.2c0,2.4-0.1,12-0.1,12.7c0,0.5,0.4,1-1,1H233c-0.1,0-0.1,0-0.2,0c0,0-0.1,0-0.2,0h-1.3c-1,0-1.3-0.5-2-1.7
	c-0.5-1.1-3-8.3-3.9-11.3c-0.7-2.3-3.3-9.5-4.2-12.5h11.1V11.9z M218.4,16c0.2,0.6,2.9,9.6,3.3,10.7H214c0.3-1,3.6-10.2,3.8-10.7
	c0.1-0.3,0.3-0.6,0.4-0.6C218.2,15.5,218.3,15.8,218.4,16L218.4,16z M188.5,23.3c0-0.5,0.1-8.4,0.1-8.8c0-0.8,0.6-1.1,1.4-1.1h1.8
	c0.2,0,0.3-0.1,0.3-0.3v-1.3H218c-0.5,0.3-1.1,0.5-1.6,0.6c-0.3,0.1-0.3,0.2-0.3,0.3c0,0.2,0.2,0.3,0.3,0.5c0.3,0.4,0.1,0.9,0,1.3
	c-0.3,1-3.4,9.4-3.7,10.1c-1.1,3.2-3.9,10.3-4.1,10.9c-0.5,1.2-1.1,1.8-2.2,1.8h-1.3c-0.2,0-0.3,0.1-0.3,0.3v0.9
	c0,0.1,0,0.2,0.1,0.2h-12.4c0.1,0,0.1-0.1,0.1-0.2v-1c0-0.2-0.1-0.3-0.3-0.3h-1.6c-1.2,0-1.8-0.2-1.8-1.4c0-0.4-0.1-9.4-0.1-9.8
	v-2.7H188.5z M186,41.5h0.9c0.3,0,0.3-0.1,0.3-0.2v-0.9l0,0H200v0.9c0,0.2,0,0.3,0.2,0.3h1.5c0.9,0,1.4,0.6,1.4,1.9
	c0,1.1,0,3.5,0,6.3v3.7c0,3.6,0,7.1-0.1,10.9c0,1-0.6,1.3-1.5,1.3H200c-0.2,0-0.2,0.1-0.2,0.3v0.7h-7.3c2.9-0.4,5.1-1.8,6.5-3.7
	c1.4-1.9,2-3.9,2-5.8c0-3.7-1.7-6.3-3.7-7.9c-2.1-1.8-4.6-2.1-6.3-2.1c-2.2,0-5.2,0.6-7.5,3.4c-2.1,2.5-2.5,5-2.5,6.6
	c0,3.9,2,6.7,3.9,7.9c1.6,1,3.4,1.4,4.8,1.6h-14c0.1-0.2,0.2-0.4,0.3-0.7c0.7-1.7,8.2-22.9,8.4-23.4C184.9,41.9,185.4,41.5,186,41.5
	L186,41.5z M191.2,65.6c-2.3,0-6.7-2.5-6.7-9.4c0-2.2,0.4-4.4,2.2-6.1c2-1.9,3.8-1.6,4.2-1.6c3,0,6.7,3,6.7,8.8
	C197.7,59.6,197.1,65.6,191.2,65.6L191.2,65.6z M174.5,24.6c0-2.5,0.3-6.4,0.4-9c0.1-1.5,0.3-2.2,1.4-2.2h1.1c0.2,0,0.2-0.1,0.2-0.3
	v-1c0-0.1-0.2-0.2-0.3-0.3h2.4v1.3c0,0.2,0.1,0.2,0.3,0.2h2.3c1.5,0,1.4,0.4,1.5,1.3c0,0.6,0.2,6.9,0.2,7.9v2.7
	c0,2.1-0.1,10.4-0.2,11c-0.2,1-0.5,1.1-1.3,1.1h-2.2c-0.2,0-0.3,0.1-0.3,0.2v1c0,0.1,0,0.1,0.1,0.2h-5.7L174.5,24.6L174.5,24.6z
	 M173.4,41.2v-0.9l0,0h6.1l0,0v0.8c0,0.2,0,0.3,0.3,0.3h1c1,0,1.2,0.5,1.2,1.1c0,2-4.9,16.1-5.3,17.2h-0.1l-5.2-16.9
	c-0.2-0.6-0.5-1.4,0.4-1.4h1.4C173.4,41.5,173.4,41.4,173.4,41.2L173.4,41.2z M168.7,11.9c0,0-0.1,0.1-0.1,0.2v1
	c0,0.2,0.1,0.3,0.2,0.3h1.3c1.1,0,1.8,0.5,2.2,1.5c0.2,0.7,0.4,4.5,0.5,6c0.1,2,0.1,3.9,0.1,7.4v4.1c-1.8-2.3-7.1-8.8-7.5-9.3
	s-8-10.4-8.2-10.7s-0.8-0.4-1.3-0.5L168.7,11.9L168.7,11.9z M162.3,26.6c0.2,0.2,3.1,3.8,5.8,7.3c1.8,2.2,3.6,4.1,4.5,5.1h-14.5
	c0,0,0,0,0-0.1V38c0-0.2,0-0.4-0.3-0.4h-1.2c-1.1,0-1.5-0.1-1.7-1.6c-0.1-0.8-0.6-7.2-0.6-10.8l0.1-8.2l-0.1-0.2
	C154.6,17.1,161.9,26.2,162.3,26.6L162.3,26.6z M148.6,11.9c0,0,0,0.1,0,0.2v1.3c0,0.1,0,0.3,0.2,0.3h1.6c1.4,0,2.6,1,2.6,3.3v6.7
	c0,7-0.2,11.4-0.3,12.1c-0.2,1.9-0.5,1.9-1.6,1.9h-0.2c0-0.1-0.1-0.2-0.3-0.2h-1.3c-1,0-1.3-0.5-2-1.7c-0.5-1.1-3-8.3-3.9-11.3
	c-0.7-2.3-3.3-9.5-4.2-12.5h9.4V11.9z M136.3,16c0.2,0.6,2.9,9.6,3.3,10.7h-7.7c0.3-1,3.6-10.2,3.8-10.7c0.1-0.3,0.3-0.6,0.4-0.6
	C136.2,15.5,136.2,15.8,136.3,16L136.3,16z M118.7,13.5h0.4c1.9,0,5.4,0.1,6.5,0.6c1.2,0.6,2.4,3.5,2.7,4.2c0.1,0.3,0.2,0.3,0.3,0.3
	l1.1-0.2c0.2,0,0.3-0.1,0.2-0.3c-0.3-1.4-0.8-5-1-6.3h6.9c-0.5,0.3-1.1,0.5-1.6,0.6c-0.3,0.1-0.3,0.2-0.3,0.3c0,0.2,0.2,0.3,0.3,0.5
	c0.3,0.4,0.1,0.9,0,1.3c-0.3,1-3.4,9.4-3.7,10.1c-1.1,3.2-3.9,10.3-4.1,10.9c-0.5,1.2-1.1,1.8-2.2,1.8h-1.3c-0.1,0-0.1,0-0.2,0l0,0
	h-3.3c-0.9,0-0.6-0.6-0.7-1.5c0-0.6,0-11.2,0-11.7L118.7,13.5L118.7,13.5z M114.6,41.4h1.4c1.4,0,1.6,0.3,1.7,1.5
	c0,0.4,0.1,5.2,0.1,8.4v12.9c0,1.4,0.1,1.4-1.7,1.4h-1.5c-0.3,0-0.4,0-0.4,0.2v0.7h-8.8v-0.7c0-0.2,0-0.3-0.3-0.3h-2
	c-0.8,0-1.2-0.4-1.3-1.2c0-0.5-0.1-5.7-0.1-7.5l0.1-1.7c1.2,0.2,2.3,0.2,3.7,0.2c6,0,9.6-3,9.6-7.7c0-2.2-1.2-4.6-3-5.8
	c-1-0.7-2-1.2-3.2-1.4h5.3v0.8C114.3,41.3,114.4,41.4,114.6,41.4L114.6,41.4z M101.9,53.5V41.4c0.8-0.3,1.8-0.1,2.4-0.1
	c2.2,0,5.8,1.1,5.8,6.1c0,1.3-0.2,2.7-1,3.8c-1,1.3-1.9,2.6-4.2,2.6C103.4,53.8,102.6,53.7,101.9,53.5L101.9,53.5z M107.7,14
	c1.5-0.5,4.8-0.5,6-0.5h0.3v9.7c0,0.7,0,12.3-0.1,13.4c0,0.5,0.1,0.9-0.6,0.9h-2.6c-0.2,0-0.3,0.1-0.3,0.4v0.7c0,0.1,0,0.3,0.1,0.3
	H95.1c3.6-0.6,6.2-2.3,8-4.7c1.9-2.6,2.9-5.7,2.9-8.4c0-2.9-0.9-5.4-2.1-7.4l0.2,0.1c0.2,0,0.3,0,0.4-0.2
	C104.9,17.1,106,14.5,107.7,14L107.7,14z M104.4,11.9c-0.3,1.3-1,3.9-1.4,5.3c-0.7-0.9-1.5-1.8-2.3-2.4c-2.5-2.1-5-2.7-7.1-2.9
	L104.4,11.9L104.4,11.9z M91.7,13.8c4.1,0,9.2,4.1,9.2,12.3c0,3.3-0.3,11.7-8.4,11.7c-3.1,0-8.9-3.3-8.9-13c0-3,0.6-6.1,3.1-8.5
	C89.4,13.6,91.2,13.8,91.7,13.8L91.7,13.8z M91.1,11.9c-2.8,0.2-6,1.2-8.8,4.7c-2.9,3.4-3.6,7-3.6,9.3c0,5.4,2.9,9.5,5.5,11.1
	c1.8,1.1,3.8,1.7,5.4,2H70.3c2.2-0.1,3.8-0.4,5-1.2c1.8-1.1,2.8-4,2.8-5.9c0-4.1-2.5-6.4-6.3-7.6l-0.1-0.1c3-1.6,4.7-2.5,4.7-6.3
	c0-2.3-0.8-4-3-5.2c-0.6-0.4-1.5-0.6-2.5-0.8L91.1,11.9L91.1,11.9z M63.8,20.9c0-3.2,0.1-5.9,0.1-6.7c0-0.3,0.1-0.7,0.4-0.7
	c0.3-0.1,0.7,0,1.3,0c2,0,3.5,0.1,4.7,1.3s1.5,2,1.5,3.4c0,1.7-0.2,3.4-1.8,4.6c-0.9,0.7-2,1-4.2,1c-0.7,0-1.2,0-1.9,0L63.8,20.9
	L63.8,20.9z M61,42.2c0,0.4,0.1,4.5,0.1,7v4.4c0,4.4-0.1,10.3-0.2,10.7c-0.1,1-0.4,1.2-1.7,1.2h-1.6c-0.2,0-0.2,0.1-0.2,0.3v0.7
	h-6.6c0.6-4.1,0.2-22.6,0.2-22.6c0.1-0.8,0.1-2.1,0.2-3.6h6V41c0,0.2,0,0.3,0.2,0.3h2.2C60.6,41.4,61,41.4,61,42.2L61,42.2z
	 M55.7,11.9c-0.1,0.1-0.1,0.3-0.1,0.4v1c0,0.2,0.1,0.3,0.3,0.3H57c1.8,0,1.9-0.4,2,1.8c0,0.7,0.1,5.4,0.1,6.8v4.5
	c0,3.1-0.1,8.2-0.2,9.1c-0.2,1.2,0.3,1.7-0.9,1.7l-2,0.1c-0.3,0-0.3,0.1-0.3,0.3v1V39h-4.5c0.1-5.8,0.1-13.9,0.1-13.9
	c1.1-2.8,0-5.1,0-5.1v-8.1L55.7,11.9L55.7,11.9z M46.1,16.1c0,0,2.3-0.8,3.2-1.1c0,0,0.9-0.4,1-0.8c0,0,0.1-0.4-0.2-0.3
	c0,0-0.4,0.4-0.6,0.4c0,0-0.4,0.3-0.5-0.2c0,0,0.4-1,2-0.7c0,0,0.7,0.4,0,2c0,0-0.4,1.4-4.2,2.3c0,0-1,0.4-1.3,1
	c0,0-0.3-1.2,0.5-1.8C45.8,16.9,45.4,16.3,46.1,16.1L46.1,16.1z M43.8,15.1c0.1-0.1,0.2,0.5,0.2,0.5c0,0.6,0.6,1.3,0.6,1.3
	c0.4,1.2,0,2.2,0,2.2c-0.1,0.7-0.2,0.4-0.2,0.4v-0.7c-0.1-0.6-0.3-0.1-0.3-0.1c0,0.5-0.1,1.6-0.1,1.6c0,0.7-0.4,0.5-0.4,0.5
	c-0.4-0.2-0.2-2.1-0.2-2.1c0-1-0.4-0.3-0.4-0.3c0.1,0.5-0.1,0.5-0.1,0.5C41.9,15.8,43.8,15.1,43.8,15.1L43.8,15.1z M36.4,13.1
	c0,0,1.3-0.1,1.9,1.3c0,0,0.1,0.3-0.4,0.2c0,0-0.6,0-0.9-0.4c0,0-0.4,0-0.2,0.4c0,0,0.2,0.6,1.8,0.7c0,0,3-0.4,3.4,1.7
	c0,0,0,0.3-0.5-0.2c0,0-0.5-0.7-1.4-0.9c0,0-0.4,0-0.1,0.5c0,0,0.1,0.1,0.4,0.1c0,0,1.5,0.4,1.8,2c0,0-0.6-0.9-3-1.2
	c0,0-2.8,0-3.4-2C35.8,15.2,35.3,13.5,36.4,13.1L36.4,13.1z M36.1,17.1c-0.1,0.6,0.2,1.3,0.2,1.3c0.4,0.9-0.3,0.9-0.3,0.9
	c0.1-1.9-1-3.6-1-3.6C35.9,15.1,36.1,17.1,36.1,17.1L36.1,17.1z M35.1,14.1c0.3,0.7,0,1.4,0,1.4c-0.2-0.7-1.9-2.7-1.9-2.7
	C34,12.8,35.1,14.1,35.1,14.1L35.1,14.1z M32.8,13c3,3.5,2.8,5.2,2.8,5.2c-0.2,3-1.5,2.7-1.5,2.7C31,19.7,32.8,13,32.8,13L32.8,13z
	 M31.7,13.8l0.9,19.4c0.2,0.7-0.1,0.5-0.1,0.5c-0.4-0.3-0.5-1.8-0.5-1.8c-0.7,0.5-1.6,0.1-1.6,0.1L30,33.4c-0.2,0.5-0.3,0.2-0.3,0.2
	l1.8-19.9C31.6,13.5,31.7,13.8,31.7,13.8L31.7,13.8z M29.9,20.8c0.5,1,0.1,1.7,0.1,1.7C29.4,21.7,29.9,20.8,29.9,20.8L29.9,20.8z
	 M30.2,12.7c0.9,0.1,0.7,1.7,0.7,1.7c0.2,2.9-1.3,5.8-1.3,5.8c-0.8,0.4-0.9-0.2-0.9-0.2c-0.4-0.7-1.3-1.2-1.3-1.2
	c0.3,0,0.4-0.4,0.4-0.4c0.1-0.3,0.5-2.8,0.5-2.8C29,12.8,30.2,12.7,30.2,12.7L30.2,12.7z M23.3,14.7c1.1-0.2,2-0.5,2-0.5
	c1.2-0.3,1.1-1.1,1.1-1.1c0.1-0.6,1.4-0.5,1.9-0.2c0.4,0.2,0.4,0.4,0.4,0.4c-0.6,3.3-4.2,2.9-4.2,2.9c-1.9-0.3-2.3,0.8-2.3,0.8
	c-0.2,0.4-0.3,0.1-0.3,0.1c-0.1-1,1.2-1.5,1.2-1.5c0.4-0.2,0.1-0.3,0.1-0.3c-0.3,0-0.9,0.3-0.9,0.3c-0.2,0.3-0.4,0.2-0.4,0.2
	C21.9,14.9,23.3,14.7,23.3,14.7L23.3,14.7z M21.7,18.9c1,0,0.6,0.4,0.6,0.4c-0.9,0.5-1,2.3-1,2.3c0,1.1-1,2-1,2
	c0.1,2-0.8,1.9-0.8,1.9c-0.7-0.2-0.1-1.6-0.1-1.6c0.2-0.5-0.2-0.4-0.2-0.4c-0.7,0.2-0.4-0.7-0.4-0.7c0.3-0.1,0.2-0.5,0.2-0.5
	c-0.5-0.4-0.2-2.2-0.2-2.2c0.1-0.9-0.4-1-0.4-1c-0.2-0.3,0.2-0.4,0.2-0.4c1.7,0.2,1.5,1.9,1.5,1.9c0.1,0.5,0.4,0.3,0.4,0.3
	C20.9,18.8,21.7,18.9,21.7,18.9L21.7,18.9z M20.3,14.1c-0.1,0.5,0.8,1.2,0.8,1.2c0.8,0.9,0,3.2,0,3.2c-0.7,0.4-0.8,1.2-0.8,1.2
	c-0.5-0.2-0.6-0.8-0.6-0.8c0.1-0.9-0.4-2.4-0.4-2.4C19.1,14.6,20.3,14.1,20.3,14.1L20.3,14.1z M19.2,17.4c0.4,1.2-0.1,1.3-0.1,1.3
	c-0.5-0.1-0.3-1.3-0.3-1.3C19,17.1,19.2,17.4,19.2,17.4L19.2,17.4z M12.9,13.4c0,0,0.4-1.1,2-0.3c0,0,0.6,0.2,0.6,0.8
	c0,0-0.6-0.1-1-0.3c0,0-0.6,0.1,0.1,0.7c0,0,0.9,0.4,2.2,0.3c0,0,2.4-0.1,2.4,2.6c0,0-0.1,0.3-0.3-0.4c0,0-0.5-0.9-1.4-1.4
	c0,0-0.6-0.1-0.4,0.4c0,0,1.2,0.4,1.5,1.3c0,0-0.3,0.3-0.7-0.1c0,0-0.6-0.4-1.7-0.7c0,0-1.2,0.1-2-0.7C14,15.5,12.5,14.5,12.9,13.4
	L12.9,13.4z M12,12.6c0,0,0.5,0.4,0.4,1.5c0,0,0.2,0.6,0.5,0.7c0,0,1.3,0.9,1.4,2.3c0,0-1.2,0.2-1.3,0.6c0,0-0.4,0.3-0.6-0.6
	c0,0-0.4-3.4-0.6-3.7C11.9,13.4,11.4,12.7,12,12.6L12,12.6z M11.4,20.2c0.9-3.1,4-2.6,4-2.6c0.8,0.3,0.2,0.5,0.2,0.5
	c-0.5,0.7,0.2,0.5,0.2,0.5c0.7-0.9,2.2-0.3,2.2-0.3l-0.3,0.4c-1.2,0.9-0.8,2.2-0.8,2.2c0.1,0.7,0.2,2.2,0.2,2.2
	c-0.1,1.6-0.9,1.5-0.9,1.5c-4.6,0.1-4.8-1.2-4.8-1.2C11,22.3,11.4,20.2,11.4,20.2L11.4,20.2z M201.2,32.7c3.9,0,6.5-2.2,8.2-4.6
	c0.1-0.1,0.1-0.6,0-0.7l-0.4-0.3c-0.1-0.1-0.1-0.1-0.2,0.1c-1.3,1.8-3.7,3.5-6.8,3.5c-1.8,0-2.8-0.2-4.6-2.3
	c-2.1-2.4-2.6-5.5-2.6-7.1c0-4,2-7.8,6.9-7.8c2.2,0,2.8,0.5,4,1.7s2.1,2.8,2.4,3.7c0.1,0.2,0.1,0.2,0.3,0.2l0.4-0.1
	c0.1,0,0.1-0.1,0.1-0.3c-0.1-0.8-0.8-5.3-0.8-5.8c0-0.4-0.1-0.4-0.3-0.4s-0.3,0-0.4,0.2l-0.2,0.8c-0.1,0.2-0.2,0.2-0.5,0
	c-1-0.6-3.1-1.5-5.6-1.5c-3,0-5.5,1.3-6.9,2.8c-2,2.1-3.1,4.8-3.1,7.3c0,2.6,1.2,6.2,3.1,8.1C195.9,31.7,198,32.7,201.2,32.7
	L201.2,32.7z M189.6,57.1l1.9,2.1l1.8-2.1l-1.9-2.2L189.6,57.1L189.6,57.1z M94.5,26l-2.6-3l-2.6,2.9l2.6,3L94.5,26L94.5,26z"/>
</svg>
