<?xml version="1.0" encoding="utf-8"?>
<!-- Generator: Adobe Illustrator 23.0.6, SVG Export Plug-In . SVG Version: 6.00 Build 0)  -->
<svg version="1.1"
	 id="svg4502" xmlns:cc="http://creativecommons.org/ns#" xmlns:dc="http://purl.org/dc/elements/1.1/" xmlns:inkscape="http://www.inkscape.org/namespaces/inkscape" xmlns:rdf="http://www.w3.org/1999/02/22-rdf-syntax-ns#" xmlns:sodipodi="http://sodipodi.sourceforge.net/DTD/sodipodi-0.dtd" xmlns:svg="http://www.w3.org/2000/svg"
	 xmlns="http://www.w3.org/2000/svg" xmlns:xlink="http://www.w3.org/1999/xlink" x="0px" y="0px" viewBox="0 0 98.9 25"
	 style="enable-background:new 0 0 98.9 25;" xml:space="preserve">
<style type="text/css">
	.st0{fill:#231F1B;}
</style>
<sodipodi:namedview  bordercolor="#666666" borderopacity="1.0" fit-margin-bottom="0" fit-margin-left="0" fit-margin-right="0" fit-margin-top="0" id="base" inkscape:current-layer="layer1" inkscape:cx="49.21875" inkscape:cy="12.234375" inkscape:document-units="px" inkscape:pageopacity="0.0" inkscape:pageshadow="2" inkscape:window-height="744" inkscape:window-maximized="1" inkscape:window-width="1280" inkscape:window-x="-4" inkscape:window-y="-4" inkscape:zoom="9.1936508" pagecolor="#ffffff" showgrid="false" units="px">
	</sodipodi:namedview>
<g id="layer1" transform="translate(-622.20982,-799.62783)" inkscape:groupmode="layer" inkscape:label="Layer 1">
	<g id="g4379" transform="matrix(1.25,0,0,-1.25,667.21232,811.71408)">
		<path id="path4381" inkscape:connector-curvature="0" class="st0" d="M0,0c2.5,0.8,2.9,2.9,2.9,4.6c0,2.6-1.8,4.8-7.3,4.8h-10.1
			v-19.5h10.1c5.5,0,7.5,2.8,7.5,5.6C3.1-1,0,0,0,0 M-9.7,5.2h6.8l0,0C-2,5.1-1.5,4.4-1.5,3.7c0-0.8-0.6-1.5-1.4-1.6h-6.8L-9.7,5.2z
			 M-3.2-5.5h-6.5v3.3H-3l0,0C-2.2-2.3-1.5-3-1.5-3.8C-1.5-4.7-2.3-5.5-3.2-5.5"/>
	</g>
	<g id="g4383" transform="matrix(1.25,0,0,-1.25,699.47732,799.88283)">
		<path id="path4385_2_" inkscape:connector-curvature="0" class="st0" d="M0,0h17.1v-4.3H4.8v-3.1h11.1v-4.3H4.8v-3.4h12.4v-4.5H0
			V0z"/>
	</g>
	<g id="g4387" transform="matrix(1.25,0,0,-1.25,687.02107,799.91283)">
		<path id="path4389" inkscape:connector-curvature="0" class="st0" d="M0,0h-10.4v-19.5h4.8v7.9h5.2c1.5,0,2.7-1.3,2.7-2.8v-5.1H7
			v6.3c0,2.9-2.8,3.8-2.8,3.8S7-8.6,7-5.1C7-0.9,3.4,0,0,0 M2.6-6.1C2.5-6.7,1.9-7.4,1.1-7.4h-6.7v3.1h6.7c0.8,0,1.4-0.6,1.5-1.4"/>
	</g>
	<g id="g4391" transform="matrix(1.25,0,0,-1.25,645.26232,818.43658)">
		<path id="path4393" inkscape:connector-curvature="0" class="st0" d="M0,0c-0.1,0-6.5-0.1-8.7,0.1c-3.6,0.3-4.8,3-4.8,5.2
			c0,2.7,1.8,4.7,4.7,5.1c1.4,0.2,8.8,0.1,8.8,0.1h0.2v4.4H0h-8.4c-0.9-0.1-2.5-0.2-4.1-0.8c-1.5-0.7-2.8-1.8-3.8-3.1
			c-1.3-1.7-1.9-3.7-1.9-5.8c0-0.7,0.1-1.3,0.2-2c0.6-3,2.5-5.4,5.3-6.7c0.9-0.4,2.4-0.9,5.3-1.1h1.6H0h0.2v4.7"/>
	</g>
</g>
</svg>
