<?xml version="1.0" encoding="utf-8"?>
<!-- Generator: Adobe Illustrator 23.0.6, SVG Export Plug-In . SVG Version: 6.00 Build 0)  -->
<svg version="1.1" id="Layer_1" xmlns="http://www.w3.org/2000/svg" xmlns:xlink="http://www.w3.org/1999/xlink" x="0px" y="0px"
	 viewBox="0 0 920.5 171.4" style="enable-background:new 0 0 920.5 171.4;" xml:space="preserve">
<style type="text/css">
	.st0{fill:#959595;}
	.st1{fill:#C32136;}
</style>
<title>credera</title>
<polygon class="st0" points="123.3,123.3 123.3,123.3 123.3,123.3 123.3,171.4 171.4,171.4 171.4,123.3 "/>
<polygon class="st1" points="114.1,123.3 48,123.3 48,48 123.3,48 123.3,114 171.4,114 171.4,0 0,0 0,171.4 114.1,171.4 "/>
<g>
	<path class="st0" d="M327.9,109.7c-1.2,1.9-2.7,3.6-4.5,5.3s-3.8,3.1-6.1,4.4c-2.3,1.3-4.8,2.2-7.6,3c-2.8,0.7-5.8,1.1-9.1,1.1
		c-5.5,0-10.6-1-15.2-2.9c-4.7-1.9-8.7-4.6-12.1-8s-6-7.4-7.9-12.1s-2.8-9.8-2.8-15.3c0-5.6,1-10.7,2.9-15.3c1.9-4.7,4.6-8.7,8-12.1
		c3.4-3.4,7.4-6.1,12.1-8c4.6-1.9,9.7-2.9,15.1-2.9c2.7,0,5.3,0.3,7.9,0.8c2.6,0.6,5,1.3,7.3,2.4c2.3,1,4.3,2.2,6.2,3.6
		c1.9,1.4,3.4,3,4.6,4.8l-6.2,4.5c-0.8-1.2-1.8-2.3-3-3.5c-1.3-1.2-2.8-2.2-4.5-3.1c-1.7-0.9-3.6-1.6-5.6-2.2
		c-2-0.5-4.2-0.8-6.5-0.8c-4.7,0-9,0.9-12.7,2.6c-3.7,1.7-6.9,4-9.5,6.9s-4.6,6.3-6,10.1c-1.4,3.8-2.1,7.9-2.1,12.1
		s0.7,8.3,2.1,12.1c1.4,3.8,3.4,7.2,6,10.1s5.8,5.2,9.5,6.9c3.7,1.7,7.9,2.6,12.6,2.6c4.2,0,8.2-0.9,11.9-2.6
		c3.8-1.7,6.9-4.5,9.5-8.2L327.9,109.7z"/>
	<path class="st0" d="M379.9,121.6h-7.4V48.7h21.4c3.6,0,6.9,0.3,9.9,1c3.1,0.7,5.7,1.8,7.9,3.3c2.2,1.5,4,3.6,5.2,6
		c1.2,2.5,1.9,5.5,1.9,9.1c0,2.7-0.5,5.1-1.4,7.3c-1,2.2-2.3,4.1-3.9,5.7s-3.6,2.9-5.9,3.9s-4.7,1.6-7.4,1.9l21.3,34.7h-9.1
		l-20.2-34.1h-12.4v34.1H379.9z M379.9,81.1h12.9c6,0,10.6-1.1,13.8-3.2c3.2-2.2,4.8-5.4,4.8-9.7c0-2.4-0.4-4.4-1.3-6.1
		c-0.9-1.6-2.1-3-3.7-4s-3.5-1.8-5.8-2.3s-4.8-0.7-7.5-0.7h-13.2L379.9,81.1L379.9,81.1z"/>
	<path class="st0" d="M473.3,115h39v6.6h-46.5V48.7H511v6.6h-37.8v25h35.3v6.6h-35.3L473.3,115L473.3,115z"/>
</g>
<g>
	<path class="st0" d="M559.2,48.7h24.2c4.5,0,9.1,0.8,13.6,2.3c4.6,1.5,8.7,3.8,12.4,6.8c3.7,3.1,6.6,6.9,8.9,11.4
		c2.3,4.6,3.4,9.9,3.4,15.9c0,6.1-1.1,11.4-3.4,16c-2.3,4.5-5.2,8.3-8.9,11.4s-7.8,5.3-12.4,6.8c-4.6,1.5-9.1,2.3-13.6,2.3h-24.2
		V48.7z M566.6,115h14.7c5.5,0,10.3-0.9,14.4-2.6c4.1-1.7,7.5-4,10.1-6.7c2.7-2.8,4.7-6,6-9.5c1.3-3.6,2-7.2,2-11s-0.7-7.5-2-11
		c-1.3-3.6-3.3-6.7-6-9.5c-2.7-2.8-6.1-5-10.1-6.7c-4.1-1.7-8.9-2.6-14.4-2.6h-14.7V115z"/>
</g>
<g>
	<path class="st0" d="M675.3,115h39v6.6h-46.5V48.7H713v6.6h-37.8v25h35.3v6.6h-35.3L675.3,115L675.3,115z"/>
</g>
<g>
	<path class="st0" d="M765.3,121.6h-7.4V48.7h21.4c3.6,0,6.9,0.3,9.9,1c3.1,0.7,5.7,1.8,7.9,3.3s4,3.6,5.2,6
		c1.2,2.5,1.9,5.5,1.9,9.1c0,2.7-0.5,5.1-1.4,7.3c-1,2.2-2.3,4.1-3.9,5.7c-1.6,1.6-3.6,2.9-5.9,3.9c-2.3,1-4.7,1.6-7.4,1.9
		l21.3,34.7h-9.1l-20.2-34.1h-12.4v34.1H765.3z M765.3,81.1h12.9c6,0,10.6-1.1,13.8-3.2c3.2-2.2,4.8-5.4,4.8-9.7
		c0-2.4-0.4-4.4-1.3-6.1c-0.9-1.6-2.1-3-3.7-4c-1.6-1-3.5-1.8-5.8-2.3s-4.8-0.7-7.5-0.7h-13.2V81.1z"/>
</g>
<g>
	<path class="st0" d="M853.5,121.6h-8.1l31.5-72.9h7.2l31.3,72.9h-8.2l-8-19.2h-37.7L853.5,121.6z M864.2,95.6h32.1l-16.1-38.7
		L864.2,95.6z"/>
</g>
</svg>
