<?xml version="1.0" encoding="utf-8"?>
<!-- Generator: Adobe Illustrator 23.0.6, SVG Export Plug-In . SVG Version: 6.00 Build 0)  -->
<svg version="1.1" id="Layer_1" xmlns="http://www.w3.org/2000/svg" xmlns:xlink="http://www.w3.org/1999/xlink" x="0px" y="0px"
	 viewBox="0 0 920.5 171.4" style="enable-background:new 0 0 920.5 171.4;" xml:space="preserve">
<style type="text/css">
	.st0{fill:#202020;}
	.st1{font-family:'AvenirNext-Regular';}
	.st2{font-size:103px;}
	.st3{letter-spacing:3;}
	.st4{letter-spacing:2;}
	.st5{letter-spacing:1;}
	.st6{letter-spacing:6;}
</style>
<title>credera</title>
<polygon class="st0" points="123.3,123.3 123.3,123.3 123.3,123.3 123.3,171.4 171.4,171.4 171.4,123.3 "/>
<polygon class="st0" points="114.1,123.3 48,123.3 48,48 123.3,48 123.3,114 171.4,114 171.4,0 0,0 0,171.4 114.1,171.4 "/>
<text transform="matrix(1 0 0 1 256.88 121.58)" class="st1 st2 st3">C R E </text>
<text transform="matrix(1 0 0 1 549.5 121.58)" class="st1 st2 st4">D</text>
<text transform="matrix(1 0 0 1 630.05 121.58)" class="st1 st2 st4"> </text>
<text transform="matrix(1 0 0 1 658.16 121.58)" class="st1 st2 st5">E</text>
<text transform="matrix(1 0 0 1 720.48 121.58)" class="st1 st2 st4"> R</text>
<text transform="matrix(1 0 0 1 812.66 121.58)" class="st1 st2 st6"> </text>
<text transform="matrix(1 0 0 1 844.29 121.58)" class="st1 st2 st4">A</text>
</svg>
