<?xml version="1.0" encoding="utf-8"?>
<!-- Generator: Adobe Illustrator 23.0.6, SVG Export Plug-In . SVG Version: 6.00 Build 0)  -->
<svg version="1.1"
	 id="svg3336" xmlns:cc="http://creativecommons.org/ns#" xmlns:dc="http://purl.org/dc/elements/1.1/" xmlns:rdf="http://www.w3.org/1999/02/22-rdf-syntax-ns#" xmlns:svg="http://www.w3.org/2000/svg"
	 xmlns="http://www.w3.org/2000/svg" xmlns:xlink="http://www.w3.org/1999/xlink" x="0px" y="0px" viewBox="0 0 500 116"
	 style="enable-background:new 0 0 500 116;" xml:space="preserve">
<style type="text/css">
	.st0{fill:#231F1B;}
</style>
<g id="g3343" transform="matrix(2.2262716,0,0,-2.2262716,-893.46207,1083.4685)">
	<path id="path3345" class="st0" d="M624.1,469.5l-0.6-7.7h-3.2c-5,0-7.6-4-7.6-7.9v-17.4h-8.9v33h8.4l0.2-4.1
		c1.8,2.8,4.9,4.1,8.7,4.1H624.1z M562.3,436.5h-8.9V454c0,3.7-0.3,8.3-5.5,8.3c-5,0-6.9-3.6-6.9-7.7v-18h-9v33h8.3l0.2-4.2
		c1.8,2.8,5.1,5,9.9,5c9,0,11.8-6.4,11.8-13.1L562.3,436.5L562.3,436.5z M528.1,444.2l-0.6-7.5c-2.1-0.6-4-0.8-6.3-0.8
		c-8.4,0-10.8,3.9-10.8,11.6v31.3h8.9v-9.3h8.9l-0.6-7.7h-8.3v-13.6c0-3.1,0.9-4.8,4-4.8C524.7,443.4,526.2,443.5,528.1,444.2
		 M507.4,469.5l-0.7-7.7h-2.4c-5,0-7.5-4-7.5-7.9v-17.4h-8.9v33h8.5l0.2-4.1c1.8,2.8,4.9,4.1,8.7,4.1H507.4L507.4,469.5z
		 M447.6,440.1c-6.1-3.2-12.1-5.1-20.1-4.9c-14.8,0.5-25.5,9.6-25.5,25.2c0,15.5,10.8,25.3,25.5,25.6c7.5,0.1,14.1-1.8,19.3-6.4
		l-6.3-6.4c-3.2,2.8-8,4.4-13.6,4.1c-9.3-0.4-14.8-7.2-15-16.4c-0.1-10,6-16.9,15.6-17.2c4.5-0.1,7.8,0.5,10.6,1.8v10.2h-10l0.7,8.4
		h18.7L447.6,440.1L447.6,440.1z M599.8,449.8h-24.5c0.7-4.2,4-6.8,8.1-6.9c4-0.1,6.3,1.1,9.2,4.1l5.8-4.4c-4.1-5.1-9.1-7-14.8-7
		c-10,0-17.4,7-17.4,17.3c0,10.4,7.4,17.3,17,17.3c10.6,0,16.4-6.4,16.4-17.8v-2.6H599.8z M590.8,456.8c-0.3,4.2-3.4,6.8-7.7,6.6
		c-4.3-0.2-7.2-3-7.8-6.6H590.8z M482.2,458.1v-21.6h-7.9l-0.2,3.3c-2.4-3-6.3-4.1-10.4-4.1c-6.1,0-11.8,3-11.9,10
		c-0.2,11,12.3,11.7,20.2,11.7h1.6v0.4c0,3.6-2.4,5.6-6.9,5.6c-3.2,0-6.4-1.3-8.8-3.5l-5.1,5.2c4.7,3.8,9.5,5.2,14.7,5.2
		C477.7,470.3,482.2,465.6,482.2,458.1 M473.6,450.9h-1.2c-4.2,0-11.6-0.2-11.6-4.6c0-6.2,12.9-4.2,12.9,3.3L473.6,450.9
		L473.6,450.9z M617.1,440.3c0,2.1,1.6,3.7,3.6,3.7s3.6-1.6,3.6-3.7s-1.6-3.7-3.6-3.7C618.7,436.6,617.1,438.2,617.1,440.3
		 M620.8,435.9c2.4,0,4.5,1.9,4.5,4.5s-2.1,4.4-4.5,4.4s-4.5-1.9-4.5-4.4C616.2,437.7,618.3,435.9,620.8,435.9 M619.8,440h0.9
		l1.3-2.2h0.9l-1.5,2.3c0.8,0.1,1.3,0.5,1.3,1.4c0,1-0.6,1.5-1.8,1.5h-2v-5.1h0.8L619.8,440L619.8,440z M619.8,440.6v1.6h1.1
		c0.5,0,1.1-0.1,1.1-0.8c0-0.8-0.6-0.8-1.2-0.8L619.8,440.6L619.8,440.6z"/>
</g>
</svg>
