<?xml version="1.0" encoding="utf-8"?>
<!-- Generator: Adobe Illustrator 23.0.6, SVG Export Plug-In . SVG Version: 6.00 Build 0)  -->
<svg version="1.1"
	 id="svg2606" xmlns:cc="http://creativecommons.org/ns#" xmlns:dc="http://purl.org/dc/elements/1.1/" xmlns:inkscape="http://www.inkscape.org/namespaces/inkscape" xmlns:rdf="http://www.w3.org/1999/02/22-rdf-syntax-ns#" xmlns:sodipodi="http://sodipodi.sourceforge.net/DTD/sodipodi-0.dtd" xmlns:svg="http://www.w3.org/2000/svg"
	 xmlns="http://www.w3.org/2000/svg" xmlns:xlink="http://www.w3.org/1999/xlink" x="0px" y="0px" viewBox="0 0 360 45"
	 style="enable-background:new 0 0 360 45;" xml:space="preserve">
<style type="text/css">
	.st0{fill:#231F1B;}
</style>
<defs>
	
	
		<inkscape:perspective  id="perspective2614" inkscape:persp3d-origin="372.04724 : 350.78739 : 1" inkscape:vp_x="0 : 526.18109 : 1" inkscape:vp_y="0 : 1000 : 0" inkscape:vp_z="744.09448 : 526.18109 : 1" sodipodi:type="inkscape:persp3d">
		</inkscape:perspective>
</defs>
<sodipodi:namedview  bordercolor="#666666" borderopacity="1.0" gridtolerance="10000" guidetolerance="10" id="base" inkscape:current-layer="layer1" inkscape:cx="170.09849" inkscape:cy="91.428571" inkscape:document-units="pt" inkscape:pageopacity="0.0" inkscape:pageshadow="2" inkscape:window-height="949" inkscape:window-width="1279" inkscape:window-x="0" inkscape:window-y="25" inkscape:zoom="1.979899" objecttolerance="10" pagecolor="#ffffff" showgrid="true" units="pt">
	
		<inkscape:grid  empspacing="8" enabled="true" id="grid2664" spacingx="9pt" spacingy="9pt" type="xygrid" units="pt" visible="true">
		</inkscape:grid>
</sodipodi:namedview>
<g id="layer1" inkscape:groupmode="layer" inkscape:label="Layer 1">
	<path id="path29" class="st0" d="M281.2,11.6c-1.3,0-2.3,0.4-3.2,1.3c-0.8,0.9-1.2,1.8-1.2,2.9c0,1.4,0.6,2.9,1.8,4.6
		c-2,1.4-3.4,2.5-4.2,3.4c-0.7,0.9-1.1,2-1.1,3.3c0,1.2,0.3,2.2,0.9,3c0.6,0.9,1.3,1.6,2.2,2.1c0.9,0.5,1.9,0.8,2.9,0.8
		c2.1,0,4-1,5.9-3.1c1.6,2.1,3.4,3.1,5.4,3.1c0.9,0,1.8-0.3,2.5-0.8s1.2-1.2,1.4-2.1h-0.8c-0.5,0.9-1.3,1.4-2.3,1.4
		c-0.7,0-1.4-0.2-2-0.7c-0.6-0.4-1.5-1.5-2.7-3.1c0.5-0.6,1-1.6,1.6-2.9c0.7-1.6,1.3-2.7,2-3.3c0.6-0.6,1.4-1,2.2-1.2v-0.8h-6.8v0.8
		c1.7,0.2,2.5,0.9,2.5,2.1c0,0.5-0.2,1.2-0.5,2.1s-0.8,1.8-1.4,2.6c-1.7-2.4-3.4-4.8-5.3-7.3c3-1.5,4.5-3.1,4.5-4.7
		c0-1-0.4-1.9-1.3-2.5C283.4,11.9,282.4,11.6,281.2,11.6z M309.9,11.7c-1.8,0-3.5,0.4-5.1,1.3s-2.7,2.2-3.6,4s-1.3,3.7-1.3,5.7
		c0,3.1,0.9,5.5,2.8,7.4s4.3,2.8,7.2,2.8c2.8,0,5.1-1,6.8-3c0.5,0.6,0.8,1.3,1,2.2h0.7v-7.2h-0.7c-0.1,1.2-0.5,2.4-1.2,3.7
		c-0.7,1.3-1.6,2.2-2.7,2.7s-2.3,0.8-3.3,0.8c-2,0-3.8-0.8-5.1-2.4c-1.4-1.6-2-4-2-7c0-3.2,0.6-5.7,1.9-7.5c1.3-1.7,2.9-2.6,5.1-2.6
		c1.7,0,3.3,0.5,4.7,1.6c1.4,1.1,2.3,3,2.8,5.7h0.7l-0.2-7.7h-0.7c-0.1,0.9-0.3,1.8-0.8,2.7c-0.6-0.8-1.5-1.4-2.8-2.1
		C312.8,12,311.4,11.7,309.9,11.7z M189.9,11.8c-1.8,0-3.5,0.4-5.1,1.3c-1.5,0.9-2.7,2.2-3.6,4c-0.9,1.8-1.3,3.7-1.3,5.7
		c0,3.1,0.9,5.5,2.8,7.4c1.9,1.9,4.3,2.8,7.2,2.8c2.8,0,5.1-1,6.8-3c0.5,0.6,0.8,1.3,1,2.2h0.7V25h-0.7c-0.1,1.2-0.5,2.4-1.2,3.7
		c-0.7,1.3-1.5,2.2-2.7,2.7c-1.1,0.5-2.3,0.8-3.3,0.8c-2,0-3.8-0.8-5.1-2.5c-1.4-1.6-2-4-2-7c0-3.2,0.6-5.7,1.9-7.4
		c1.3-1.7,2.9-2.6,5.1-2.6c1.7,0,3.3,0.5,4.7,1.6s2.3,3,2.8,5.7h0.7l-0.2-7.7h-0.7c-0.1,0.9-0.4,1.8-0.8,2.6
		c-0.6-0.8-1.5-1.4-2.8-2.1C192.8,12.1,191.4,11.8,189.9,11.8z M41.2,11.8c-1.1,0-2.8,0-4.8,0.1L33.8,12v0.7h0.4c1,0,1.7,0.1,2,0.3
		s0.5,0.5,0.6,1s0.2,1.5,0.2,3.2v10c0,1.7-0.1,2.8-0.2,3.3s-0.3,0.8-0.6,1s-1,0.3-1.8,0.3h-0.5v0.7h9.4v-0.7h-0.7
		c-0.9,0-1.5-0.1-1.9-0.3c-0.3-0.2-0.5-0.6-0.6-1.1C40,29.8,40,28.8,40,27.2v-4.3h2.2c2.3,0,4-0.2,4.9-0.7c0.9-0.4,1.6-1.1,2.1-1.9
		c0.5-0.9,0.8-1.9,0.8-3c0-1.3-0.4-2.3-1.1-3.2s-1.7-1.4-2.8-1.8C45,12,43.4,11.8,41.2,11.8z M21.9,12.1v0.7h0.5c1,0,1.7,0.1,2,0.3
		s0.5,0.5,0.6,1s0.1,1.5,0.1,3.2v6.9c0,2.3-0.1,3.9-0.2,4.9c-0.2,1-0.7,1.8-1.4,2.6c-0.8,0.7-1.7,1.1-2.9,1.1c-0.6,0-1-0.1-1.4-0.3
		s-0.6-0.4-0.6-0.8c0-0.1,0-0.3,0.2-0.5c0.1-0.3,0.2-0.5,0.2-0.8c0-0.4-0.1-0.8-0.4-1.1c-0.3-0.3-0.7-0.4-1.1-0.4s-0.8,0.2-1.1,0.5
		c-0.3,0.3-0.4,0.7-0.4,1.2c0,0.8,0.4,1.5,1.2,2c0.8,0.6,2,0.8,3.5,0.8c1.4,0,2.6-0.2,3.6-0.7s1.9-1.1,2.5-2s1-1.8,1.1-2.7
		c0.1-0.9,0.2-2.2,0.2-3.9v-7c0-1.7,0.1-2.8,0.2-3.2c0.1-0.5,0.3-0.8,0.6-0.9c0.3-0.2,1-0.2,2-0.2h0.5v-0.7
		C31.4,12.1,21.9,12.1,21.9,12.1z M52.8,12.1v0.7h0.6c1,0,1.7,0.1,2,0.3s0.5,0.5,0.6,1s0.1,1.5,0.1,3.2V26c0,1.7,0,2.8-0.2,3.5
		c-0.1,0.6-0.5,1.2-1,1.6c-0.6,0.4-1.2,0.6-2.1,0.7v0.7h7.3v-0.7c-0.9-0.1-1.7-0.3-2.2-0.8c-0.5-0.4-0.8-1-0.9-1.6
		c-0.1-0.6-0.2-1.7-0.2-3.3V14.2L65,32.5h0.7l8-18.3v13c0,1.7,0,2.8-0.1,3.2s-0.3,0.8-0.7,1c-0.3,0.2-0.9,0.3-1.8,0.3h-0.7v0.7h9.8
		v-0.7h-0.9c-0.9,0-1.5-0.1-1.9-0.3c-0.3-0.2-0.5-0.6-0.6-1.1s-0.1-1.6-0.1-3.2v-10c0-1.7,0-2.8,0.2-3.2c0.1-0.5,0.3-0.8,0.6-0.9
		c0.3-0.2,1-0.2,2-0.2h0.8v-0.7H74L66.5,29L59,12.1H52.8z M281.3,12.4c0.8,0,1.4,0.3,1.8,0.8c0.5,0.5,0.7,1.2,0.7,2
		c0,1.4-1.1,2.7-3.2,4c-1.3-1.8-1.9-3.2-1.9-4.2c0-0.7,0.2-1.3,0.7-1.8C279.9,12.7,280.5,12.4,281.3,12.4z M41.6,12.6
		c1.9,0,3.2,0.4,4,1.2s1.2,2,1.2,3.7c0,1.1-0.2,2.1-0.7,2.8c-0.5,0.8-1.1,1.2-1.8,1.5c-0.7,0.2-1.7,0.4-2.8,0.4H40v-9.5
		C40.4,12.6,40.9,12.6,41.6,12.6z M243.6,16.4c-1.2,0-2.2,0.3-2.9,1.1c-0.8,0.7-1.2,1.7-1.2,2.8c0,0.7,0.2,1.4,0.6,2.1
		c0.4,0.6,0.8,1.2,1.5,1.6c0.6,0.4,1.6,0.9,2.9,1.4c1.4,0.6,2.4,1.2,2.9,1.7s0.8,1.2,0.8,2s-0.3,1.5-0.9,2.1
		c-0.6,0.6-1.5,0.9-2.6,0.9c-2.5,0-4-1.6-4.7-4.9h-0.6v5.1h0.6c0.1-0.7,0.3-1.2,0.6-1.5c1.2,1.3,2.6,2,4.3,2c1.5,0,2.7-0.4,3.6-1.2
		c0.9-0.8,1.3-1.9,1.3-3.3c0-0.8-0.2-1.6-0.6-2.2c-0.4-0.6-0.9-1.1-1.5-1.5s-1.6-0.9-3-1.5s-2.4-1.2-2.9-1.7
		c-0.6-0.5-0.8-1.1-0.8-1.8c0-0.6,0.2-1.2,0.7-1.7c0.4-0.5,1.1-0.8,2.1-0.8s1.9,0.4,2.6,1c0.8,0.7,1.3,1.6,1.6,2.8h0.5v-4.1H248
		c0,0.5-0.2,1-0.6,1.4c-0.6-0.7-1.2-1.1-1.8-1.3C244.9,16.5,244.3,16.4,243.6,16.4z M89.8,16.5c-2.4,0-4.4,0.7-6,2.2
		s-2.4,3.4-2.4,5.8c0,2.5,0.8,4.5,2.4,6s3.6,2.3,6.1,2.3c2.6,0,4.6-0.8,6.2-2.3s2.3-3.4,2.3-5.9s-0.8-4.5-2.5-5.9
		C94.3,17.2,92.3,16.5,89.8,16.5z M126.1,16.5c-2.4,0-4.4,0.8-5.8,2.5s-2.2,3.7-2.2,5.9c0,2.3,0.8,4.1,2.2,5.6
		c1.5,1.5,3.4,2.2,5.6,2.2c1.1,0,2.3-0.3,3.6-0.8c1-0.4,1.8-0.5,2.3-0.5c0.1,0,0.3,0,0.5,0v-1.7c0-1.4,0-2.2,0.1-2.6
		s0.3-0.6,0.5-0.8c0.3-0.2,0.8-0.2,1.5-0.2v-0.5h-6.8v0.5h0.4c0.6,0,1,0.1,1.3,0.2c0.2,0.1,0.4,0.3,0.5,0.6c0.1,0.3,0.2,0.8,0.2,1.7
		c0,0.7-0.1,1.3-0.4,1.8c-0.2,0.5-0.7,0.9-1.3,1.2c-0.7,0.3-1.4,0.5-2.2,0.5c-1.6,0-2.9-0.6-3.9-1.7c-1.1-1.2-1.6-3.2-1.6-5.9
		c0-2.8,0.6-4.7,1.7-5.8c1.1-1.1,2.4-1.7,3.8-1.7s2.6,0.5,3.6,1.4s1.6,2.2,1.8,3.8h0.5V17h-0.5c-0.1,0.6-0.2,1.2-0.5,1.8
		C130,17.2,128.2,16.5,126.1,16.5z M330.8,16.5c-2.4,0-4.4,0.7-6,2.2s-2.4,3.4-2.4,5.8c0,2.5,0.8,4.5,2.4,6s3.6,2.3,6.1,2.3
		c2.6,0,4.6-0.8,6.2-2.3s2.4-3.4,2.4-5.9s-0.8-4.5-2.5-5.9C335.3,17.2,333.2,16.5,330.8,16.5z M229.1,16.5l-4.6,10.9
		c-0.3,0.8-0.5,1.2-0.6,1.3c-0.5,1.2-0.9,2-1.2,2.4s-0.9,0.6-1.6,0.8v0.5h4.7v-0.5c-0.5,0-0.9-0.1-1.2-0.4c-0.3-0.2-0.5-0.6-0.5-1.1
		c0-0.4,0.3-1.4,0.9-2.8l0.4-1h5.9l1.2,2.9c0.4,0.8,0.5,1.3,0.5,1.5c0,0.3-0.1,0.6-0.4,0.7c-0.3,0.1-0.8,0.2-1.5,0.2v0.5h6.2v-0.5
		c-0.6-0.1-0.9-0.2-1.2-0.4c-0.3-0.2-0.5-0.5-0.7-0.9l-0.7-1.6l-5.2-12.5C229.5,16.5,229.1,16.5,229.1,16.5z M106.3,16.6
		c-0.9,0-2.1,0-3.6,0.1l-2.2,0.1v0.5h0.2c0.8,0,1.3,0.1,1.6,0.2c0.2,0.1,0.4,0.4,0.5,0.8s0.1,1.2,0.1,2.4v7.7c0,1.3,0,2.1-0.1,2.5
		s-0.2,0.6-0.5,0.8c-0.3,0.2-0.7,0.2-1.4,0.2h-0.5v0.5h7.5v-0.5h-0.8c-0.7,0-1.2-0.1-1.5-0.3c-0.3-0.2-0.4-0.5-0.5-0.8
		c-0.1-0.4-0.1-1.2-0.1-2.4V25h0.6c0.4,0,0.7,0.1,0.9,0.2c0.2,0.1,0.6,0.5,1.1,1.2c0.5,0.6,1,1.3,1.5,2c1.5,2.2,2.7,3.6,3.4,4.1h4.2
		V32c-0.9,0-1.7-0.3-2.4-0.8c-0.7-0.5-1.6-1.5-2.8-3.1c-1.5-2-2.5-3.1-3.2-3.4c1.5-0.2,2.6-0.6,3.3-1.3c0.8-0.7,1.1-1.6,1.1-2.7
		c0-0.9-0.3-1.6-0.9-2.2s-1.3-1.1-2.2-1.4C109.1,16.7,107.8,16.6,106.3,16.6z M143.8,16.6l-4.6,10.8c-0.3,0.8-0.5,1.2-0.6,1.3
		c-0.5,1.2-0.9,2.1-1.2,2.4c-0.3,0.4-0.8,0.6-1.5,0.7v0.5h4.7v-0.5c-0.5,0-0.9-0.1-1.2-0.3c-0.3-0.2-0.5-0.6-0.5-1.1
		c0-0.4,0.3-1.4,0.9-2.8l0.4-1h5.9l1.2,2.9c0.4,0.8,0.6,1.4,0.6,1.5c0,0.3-0.1,0.5-0.4,0.7c-0.3,0.1-0.8,0.2-1.5,0.2v0.5h6.2v-0.5
		c-0.5-0.1-0.9-0.2-1.2-0.4c-0.3-0.2-0.5-0.5-0.7-0.9l-0.7-1.7l-5.2-12.4L143.8,16.6L143.8,16.6z M202.1,16.7v0.5h0.3
		c0.8,0,1.3,0.1,1.5,0.2s0.4,0.4,0.5,0.8s0.1,1.2,0.1,2.4v7.7c0,1.3-0.1,2.2-0.1,2.5c-0.1,0.4-0.2,0.6-0.5,0.8
		c-0.3,0.2-0.7,0.2-1.4,0.2h-0.4v0.5h7.1v-0.5h-0.4c-0.7,0-1.2-0.1-1.5-0.3c-0.3-0.2-0.4-0.5-0.5-0.8c-0.1-0.4-0.1-1.2-0.1-2.4v-3.8
		h8.2v3.8c0,1.3,0,2.1-0.1,2.5s-0.2,0.6-0.5,0.8c-0.3,0.2-0.7,0.2-1.4,0.2h-0.5v0.5h7.1v-0.5h-0.3c-0.7,0-1.2-0.1-1.4-0.3
		c-0.3-0.2-0.4-0.5-0.5-0.8c-0.1-0.4-0.1-1.2-0.1-2.4v-7.7c0-1.3,0-2.1,0.1-2.5c0.1-0.3,0.2-0.6,0.5-0.7c0.2-0.1,0.8-0.2,1.5-0.2
		h0.2v-0.5h-7.1v0.5h0.4c0.8,0,1.3,0.1,1.5,0.2s0.4,0.4,0.5,0.8s0.1,1.2,0.1,2.4v3.1h-8.2v-3.1c0-1.3,0-2.1,0.1-2.5s0.3-0.6,0.5-0.7
		s0.7-0.2,1.5-0.2h0.3v-0.5C209.1,16.7,202.1,16.7,202.1,16.7z M252.8,16.7v0.5c0.8,0,1.3,0.1,1.5,0.2s0.4,0.4,0.5,0.8
		s0.1,1.2,0.1,2.4v7.7c0,1.3,0,2.1-0.1,2.5c-0.1,0.3-0.2,0.6-0.4,0.8c-0.2,0.2-0.7,0.3-1.5,0.3h-0.3v0.5h12.9l0.3-4.9h-0.5
		c-0.3,1.2-0.7,2.1-1.2,2.8c-0.5,0.7-1,1.1-1.5,1.3c-0.5,0.2-1.2,0.3-2,0.3h-1.2c-1,0-1.7-0.2-1.9-0.5c-0.2-0.3-0.3-1.4-0.3-3.3
		v-3.7h1.7c0.7,0,1.2,0.1,1.4,0.2c0.3,0.1,0.5,0.3,0.6,0.6c0.1,0.3,0.2,0.9,0.2,1.8h0.5v-5.3h-0.5c0,0.8-0.1,1.3-0.2,1.6
		c-0.1,0.3-0.3,0.5-0.6,0.6c-0.3,0.1-0.8,0.2-1.6,0.2h-1.6v-6.6h2.2c1.1,0,1.9,0.1,2.3,0.2c0.5,0.1,0.9,0.4,1.3,0.8
		c0.4,0.5,0.7,1.3,0.9,2.3h0.5l-0.4-3.9h-11.1V16.7z M154.1,16.8v0.5c0.8,0,1.4,0.1,1.6,0.2c0.2,0.1,0.4,0.4,0.5,0.8
		s0.2,1.2,0.2,2.4V29c0,0.9-0.1,1.5-0.1,1.8c-0.1,0.3-0.3,0.5-0.7,0.7s-0.9,0.4-1.7,0.4v0.5h5.8v-0.5c-0.8,0-1.4-0.1-1.8-0.3
		c-0.4-0.2-0.7-0.5-0.8-0.8S157,29.9,157,29V18.1l11.2,14.7h0.5v-13c0-0.7,0.1-1.1,0.2-1.4c0.1-0.3,0.3-0.5,0.7-0.8
		c0.4-0.2,0.9-0.3,1.6-0.4v-0.5h-5.7v0.5c0.6,0,1.1,0.1,1.6,0.2c0.4,0.2,0.7,0.4,0.9,0.7c0.1,0.3,0.2,0.8,0.2,1.5V29l-9.3-12.3
		L154.1,16.8L154.1,16.8z M89.9,17c1.9,0,3.4,0.7,4.4,2s1.5,3.2,1.5,5.6c0,2.5-0.5,4.4-1.5,5.7s-2.4,1.9-4.2,1.9
		c-2,0-3.5-0.6-4.5-1.9s-1.5-3.1-1.5-5.7c0-2.5,0.5-4.4,1.5-5.7C86.6,17.7,88,17,89.9,17z M330.8,17c1.9,0,3.4,0.7,4.4,2
		s1.5,3.2,1.5,5.6c0,2.5-0.5,4.4-1.5,5.7s-2.4,1.9-4.2,1.9c-2,0-3.5-0.6-4.5-1.9s-1.5-3.1-1.5-5.7c0-2.5,0.5-4.4,1.5-5.7
		C327.5,17.7,328.9,17,330.8,17z M106.2,17.1c1.8,0,3,0.3,3.6,1c0.5,0.7,0.8,1.6,0.8,2.7c0,0.6-0.1,1.2-0.2,1.6
		c-0.2,0.4-0.4,0.8-0.7,1.1c-0.3,0.3-0.6,0.5-1.1,0.6c-0.4,0.1-1,0.2-1.6,0.2s-1.2,0-1.8,0.1v-7.2C105.6,17.1,105.9,17.1,106.2,17.1
		z M228.4,19.4l2.8,6.6h-5.5L228.4,19.4z M143.1,19.4l2.8,6.7h-5.5L143.1,19.4z M279.1,21.1c1.6,2.1,3.5,4.8,5.7,8.2
		c-1.2,1.4-2.6,2.2-4.1,2.2c-1.3,0-2.5-0.6-3.6-1.7c-1-1.1-1.6-2.4-1.6-3.7c0-0.8,0.3-1.7,0.9-2.6C277.2,22.5,278,21.8,279.1,21.1z
		 M342.4,29.4c-0.5,0-0.9,0.2-1.2,0.5c-0.3,0.3-0.5,0.7-0.5,1.2s0.2,0.9,0.5,1.2s0.7,0.5,1.2,0.5s0.9-0.2,1.2-0.5
		c0.3-0.3,0.5-0.7,0.5-1.2s-0.2-0.9-0.5-1.2C343.3,29.6,342.9,29.4,342.4,29.4z"/>
</g>
</svg>
