<?xml version="1.0" encoding="utf-8"?>
<!-- Generator: Adobe Illustrator 23.0.6, SVG Export Plug-In . SVG Version: 6.00 Build 0)  -->
<svg version="1.1" id="Layer_1" xmlns="http://www.w3.org/2000/svg" xmlns:xlink="http://www.w3.org/1999/xlink" x="0px" y="0px"
	 viewBox="0 0 250.4 245.8" style="enable-background:new 0 0 250.4 245.8;" xml:space="preserve">
<style type="text/css">
	.st0{fill:#231F1B;}
	.st1{fill-rule:evenodd;clip-rule:evenodd;fill:#231F1B;}
</style>
<g id="Black_Background">
</g>
<g id="Logo">
	<g>
		<g>
			<path class="st0" d="M242,55.5L194.5,8c0,0-30.5,28.3-69.3-1.6C86.6,36.3,55.9,8,55.9,8L8.4,55.5c20.2,23.7,23.1,38,10,71.7
				c-4.9,12.5-6.2,24.6-6.2,34.5c0,14.5,5.7,29.8,14.6,38.8c13.9,14.2,23,16.7,47.2,19.4c19.4,2.2,38.6,5.1,51.3,19.4
				c12.7-14.3,31.9-17.5,51.2-19.4c24.3-2.4,33.8-4.9,47.2-19.4c8.7-9.4,14.5-24,14.5-38.8c0-9.9-1.6-22.1-6.2-34.5
				C219.4,93.3,222.3,79.2,242,55.5z M216.9,195.7c-12.8,12.7-24.2,14.1-41.8,16.7c-20.2,3-30.2,2.7-49.9,15.4
				c-19.7-12.7-29.1-12.4-49.9-15.4c-17.7-2.5-29.1-3.9-41.8-16.7c-17.8-18.1-16.5-43.6-5.4-72.8c12.9-34,1.3-53.4-9.2-66.9
				l37.8-37.8c0,0,29.7,23.5,68.5-1.9c38.8,25.3,68.5,1.9,68.5,1.9L231.4,56c-10.6,13.5-21.8,33.2-9.1,66.9
				C233.2,152,235,177.7,216.9,195.7z"/>
			<g>
				<polygon class="st0" points="70.4,44 76.9,44 76.9,57.8 83.6,57.8 83.6,44 90.5,44 90.5,78.8 83.6,78.8 83.6,63.9 76.9,63.9 
					76.9,78.8 70.4,78.8 				"/>
				<polygon class="st0" points="97.5,44 104.5,44 104.5,78.8 97.5,78.8 				"/>
				<path class="st0" d="M195.2,42.8c9.9,0,10.7,6.3,10.5,11.2h-6.9c0-7.7-7.5-6.5-7.5-1.7c0,2.6,4.9,5.4,8.9,7.9
					c3.6,2.2,6.1,5.8,6.2,9.7c0.1,3.4-1.5,9.9-11.2,9.9c-9.9,0-10.7-7.4-10.7-11.5h6.6c0,8.5,8,7.5,8.1,1.9c0,0,0.5-2.6-3.9-5.3
					c-5-3-10.6-5.2-10.4-12.4C184.8,50.4,185.3,42.8,195.2,42.8L195.2,42.8z"/>
				<polygon class="st0" points="129.7,44 136.7,44 136.7,73.3 144.3,73.3 144.3,78.8 129.7,78.8 				"/>
				<polygon class="st0" points="111.6,43.9 118.6,43.9 118.6,73.3 126.2,73.3 126.2,78.7 111.6,78.7 				"/>
				<path class="st1" d="M53.1,49.1v12.6c1,0,7.3,1.4,7.2-6.4C60.4,48.4,54.6,49.1,53.1,49.1L53.1,49.1z M46.1,43.9V79h7V67.5
					c2-0.1,13.4,1.1,13.7-11.2c0.4-13.7-11.3-12.4-13.7-12.4H46.1L46.1,43.9z"/>
				<path class="st1" d="M168.7,49.1v12.6c1,0,7.2,1.4,7.2-6.4C175.9,48.4,170.2,49.1,168.7,49.1L168.7,49.1z M161.7,43.9V79h7V67.5
					c1.9-0.1,13.4,1.1,13.7-11.2c0.3-13.7-11.3-12.4-13.7-12.4H161.7L161.7,43.9z"/>
				<polygon class="st0" points="147.8,44 154.8,44 154.8,78.8 147.8,78.8 				"/>
			</g>
			<g>
				<path class="st0" d="M78,153.8c-2.7,6.1-5.1,15.9,0.2,17.2c5.6,1.5,10.1-5.2,12.4-11.3s4.5-14.7-2-16
					C83.9,142.7,80.4,148.4,78,153.8z"/>
				<path class="st0" d="M148.9,153.8c-2.7,6.1-4.9,15.9,0.3,17.2c5.6,1.5,10.1-5.2,12.4-11.3c2.3-6.1,4.5-14.7-2-16
					C154.9,142.7,151.3,148.4,148.9,153.8z"/>
				<path class="st0" d="M219.2,147.6c-0.6-3.3-1.8-8.4-2.8-11.2c-3.3-9.6-10.8-28-9.6-46.4H43.5c1.5,19.2-6.7,38.8-9.9,47.9
					c-0.7,2-1.6,5.7-2.1,7.9c-2.6,11.6-7.2,48.8,35.4,55.6c25.5,4.1,36.9,2.5,58.3,14.3c21.3-11.8,34.3-10.6,58.2-14.3
					C224.3,195.1,221.8,160.9,219.2,147.6z M121.4,126.8l-19.3-1.4c0,0,1.2-7.9-4.3-7.9c-8.5,0-14,18.1-14,18.1s8.1-6.9,20.9-2.2
					c14.4,5.2,10.9,23.7,3.6,35.6c-9,14.8-28.8,16.6-40.5,12.1c-18.6-7.1-13-27.8-6.9-44.9c8.6-24,25.1-36.3,48-28.7
					C120.9,111.3,122.6,123.4,121.4,126.8z M192.5,126.8l-19.3-1.4c0,0,1.2-7.9-4.3-7.9c-8.5,0-14,18.1-14,18.1s8.1-6.9,20.8-2.2
					c14.4,5.2,10.9,23.7,3.6,35.6c-9,14.8-28.8,16.6-40.4,12.1c-18.6-7.1-13-27.8-6.9-44.9c8.8-24.5,25.8-36.2,48-28.7
					C192,111.4,193.7,123.4,192.5,126.8z"/>
			</g>
		</g>
	</g>
</g>
<g id="Blue_guides">
</g>
</svg>
