<?xml version="1.0" encoding="utf-8"?>
<!-- Generator: Adobe Illustrator 23.0.6, SVG Export Plug-In . SVG Version: 6.00 Build 0)  -->
<svg version="1.1"
	 id="svg2" xmlns:cc="http://creativecommons.org/ns#" xmlns:dc="http://purl.org/dc/elements/1.1/" xmlns:inkscape="http://www.inkscape.org/namespaces/inkscape" xmlns:rdf="http://www.w3.org/1999/02/22-rdf-syntax-ns#" xmlns:sodipodi="http://sodipodi.sourceforge.net/DTD/sodipodi-0.dtd" xmlns:svg="http://www.w3.org/2000/svg"
	 xmlns="http://www.w3.org/2000/svg" xmlns:xlink="http://www.w3.org/1999/xlink" x="0px" y="0px" viewBox="0 0 1000 759"
	 style="enable-background:new 0 0 1000 759;" xml:space="preserve">
<style type="text/css">
	.st0{fill:#231F1B;}
</style>
<sodipodi:namedview  bordercolor="#666666" borderopacity="1" gridtolerance="10" guidetolerance="10" id="namedview2890" inkscape:current-layer="svg2" inkscape:cx="500" inkscape:cy="379.49731" inkscape:pageopacity="0" inkscape:pageshadow="2" inkscape:window-height="725" inkscape:window-maximized="1" inkscape:window-width="1280" inkscape:window-x="-9" inkscape:window-y="-9" inkscape:zoom="0.62582788" objecttolerance="10" pagecolor="#ffffff" showgrid="false">
	</sodipodi:namedview>
<defs>
	
	
		<inkscape:perspective  id="perspective2894" inkscape:persp3d-origin="500 : 252.99821 : 1" inkscape:vp_x="0 : 379.49731 : 1" inkscape:vp_y="0 : 1000 : 0" inkscape:vp_z="1000 : 379.49731 : 1" sodipodi:type="inkscape:persp3d">
		</inkscape:perspective>
	
		<inkscape:perspective  id="perspective2938" inkscape:persp3d-origin="0.5 : 0.33333333 : 1" inkscape:vp_x="0 : 0.5 : 1" inkscape:vp_y="0 : 1000 : 0" inkscape:vp_z="1 : 0.5 : 1" sodipodi:type="inkscape:persp3d">
		</inkscape:perspective>
	
		<inkscape:perspective  id="perspective2997" inkscape:persp3d-origin="0.5 : 0.33333333 : 1" inkscape:vp_x="0 : 0.5 : 1" inkscape:vp_y="0 : 1000 : 0" inkscape:vp_z="1 : 0.5 : 1" sodipodi:type="inkscape:persp3d">
		</inkscape:perspective>
	
		<inkscape:perspective  id="perspective3018" inkscape:persp3d-origin="0.5 : 0.33333333 : 1" inkscape:vp_x="0 : 0.5 : 1" inkscape:vp_y="0 : 1000 : 0" inkscape:vp_z="1 : 0.5 : 1" sodipodi:type="inkscape:persp3d">
		</inkscape:perspective>
	
		<inkscape:perspective  id="perspective3039" inkscape:persp3d-origin="0.5 : 0.33333333 : 1" inkscape:vp_x="0 : 0.5 : 1" inkscape:vp_y="0 : 1000 : 0" inkscape:vp_z="1 : 0.5 : 1" sodipodi:type="inkscape:persp3d">
		</inkscape:perspective>
	
		<inkscape:perspective  id="perspective3060" inkscape:persp3d-origin="0.5 : 0.33333333 : 1" inkscape:vp_x="0 : 0.5 : 1" inkscape:vp_y="0 : 1000 : 0" inkscape:vp_z="1 : 0.5 : 1" sodipodi:type="inkscape:persp3d">
		</inkscape:perspective>
	
		<inkscape:perspective  id="perspective3081" inkscape:persp3d-origin="0.5 : 0.33333333 : 1" inkscape:vp_x="0 : 0.5 : 1" inkscape:vp_y="0 : 1000 : 0" inkscape:vp_z="1 : 0.5 : 1" sodipodi:type="inkscape:persp3d">
		</inkscape:perspective>
	
		<inkscape:perspective  id="perspective3102" inkscape:persp3d-origin="0.5 : 0.33333333 : 1" inkscape:vp_x="0 : 0.5 : 1" inkscape:vp_y="0 : 1000 : 0" inkscape:vp_z="1 : 0.5 : 1" sodipodi:type="inkscape:persp3d">
		</inkscape:perspective>
	
		<inkscape:perspective  id="perspective3123" inkscape:persp3d-origin="0.5 : 0.33333333 : 1" inkscape:vp_x="0 : 0.5 : 1" inkscape:vp_y="0 : 1000 : 0" inkscape:vp_z="1 : 0.5 : 1" sodipodi:type="inkscape:persp3d">
		</inkscape:perspective>
	
		<inkscape:perspective  id="perspective3144" inkscape:persp3d-origin="0.5 : 0.33333333 : 1" inkscape:vp_x="0 : 0.5 : 1" inkscape:vp_y="0 : 1000 : 0" inkscape:vp_z="1 : 0.5 : 1" sodipodi:type="inkscape:persp3d">
		</inkscape:perspective>
	
		<inkscape:perspective  id="perspective3165" inkscape:persp3d-origin="0.5 : 0.33333333 : 1" inkscape:vp_x="0 : 0.5 : 1" inkscape:vp_y="0 : 1000 : 0" inkscape:vp_z="1 : 0.5 : 1" sodipodi:type="inkscape:persp3d">
		</inkscape:perspective>
	
		<inkscape:perspective  id="perspective3186" inkscape:persp3d-origin="0.5 : 0.33333333 : 1" inkscape:vp_x="0 : 0.5 : 1" inkscape:vp_y="0 : 1000 : 0" inkscape:vp_z="1 : 0.5 : 1" sodipodi:type="inkscape:persp3d">
		</inkscape:perspective>
	
		<inkscape:perspective  id="perspective3207" inkscape:persp3d-origin="0.5 : 0.33333333 : 1" inkscape:vp_x="0 : 0.5 : 1" inkscape:vp_y="0 : 1000 : 0" inkscape:vp_z="1 : 0.5 : 1" sodipodi:type="inkscape:persp3d">
		</inkscape:perspective>
	
		<inkscape:perspective  id="perspective3228" inkscape:persp3d-origin="0.5 : 0.33333333 : 1" inkscape:vp_x="0 : 0.5 : 1" inkscape:vp_y="0 : 1000 : 0" inkscape:vp_z="1 : 0.5 : 1" sodipodi:type="inkscape:persp3d">
		</inkscape:perspective>
	
		<inkscape:perspective  id="perspective3249" inkscape:persp3d-origin="0.5 : 0.33333333 : 1" inkscape:vp_x="0 : 0.5 : 1" inkscape:vp_y="0 : 1000 : 0" inkscape:vp_z="1 : 0.5 : 1" sodipodi:type="inkscape:persp3d">
		</inkscape:perspective>
	
		<inkscape:perspective  id="perspective2840" inkscape:persp3d-origin="0.5 : 0.33333333 : 1" inkscape:vp_x="0 : 0.5 : 1" inkscape:vp_y="0 : 1000 : 0" inkscape:vp_z="1 : 0.5 : 1" sodipodi:type="inkscape:persp3d">
		</inkscape:perspective>
</defs>
<path id="path4061" class="st0" d="M1000,325.9H636.3v-93.1H1000V325.9z"/>
<path id="path4103" class="st0" d="M952.8,325.9H636.3V93.1h316.5L952.8,325.9L952.8,325.9z"/>
<path id="path4089" class="st0" d="M822,325.9H636.3V0H822V325.9z"/>
<path id="path4075" class="st0" d="M858.5,325.9H636.3V36.4h222.3V325.9z"/>
<path id="path4688" class="st0" d="M636.2,36.4v289.5H822V36.4C822,36.4,636.2,36.4,636.2,36.4z"/>
<path id="path4119" class="st0" d="M450,325.9h186.2v46.6H450L450,325.9L450,325.9z"/>
<path id="path4698" class="st0" d="M636.2,93v232.9h222.4V93H636.2z"/>
<path id="path4693" class="st0" d="M636.2,93v232.9H822V93H636.2z"/>
<path id="path4117" class="st0" d="M752.4,325.9H636.3V186.1h116.1L752.4,325.9L752.4,325.9z"/>
<path id="path4713" class="st0" d="M636.2,232.9v93h316.6v-93H636.2z"/>
<path id="path4708" class="st0" d="M636.2,232.9v93h222.4v-93H636.2z"/>
<path id="path4703" class="st0" d="M636.2,232.9v93H822v-93H636.2z"/>
<path id="path4625" class="st0" d="M636.2,232.9v93h116.3v-93H636.2z"/>
<g id="g2925" transform="translate(-128.49892,323.79178)">
	<path id="path2850" class="st0" d="M805.3,177.5c-31.7,5.6-48.6,29.6-48.6,71.1c0,42.3,22.5,70.4,55.6,70.4
		c16.2,0,30.3-5.6,59.9-20.4c0,34.5,0,34.5,0,34.5c-35.9,16.9-57,21.1-85.2,21.1c-31.7,0-54.2-7.7-71.8-26.8
		c-18.3-18.3-28.2-42.3-28.2-69.7c0-59.9,45.1-101.4,110.6-101.4c43,0,73.2,20.4,73.2,49.3c0,19-14.1,32.4-34.5,32.4
		c-10.6,0-19-3.5-31-9.9"/>
	<path id="path2852" class="st0" d="M646.8,257.7c28.9-35.9,39.4-50.7,39.4-68.3s-14.1-33.1-33.8-33.1c-11.3,0-21.8,6.3-26.8,12
		c0,73.9,0,73.9,0,73.9c-47.2,63.4-47.2,63.4-47.2,63.4c0-143.7,0-143.7,0-143.7c-45.1,0-45.1,0-45.1,0
		c-74.6,123.2-74.6,123.2-74.6,123.2c0-123.2,0-123.2,0-123.2c-25.4,0-25.4,0-25.4,0c-68.3,15.5-68.3,15.5-68.3,15.5
		c0,17.6,0,17.6,0,17.6c37.3,3.5,37.3,3.5,37.3,3.5c0,152.8,0,152.8,0,152.8c47.2,0,47.2,0,47.2,0c71.8-118.3,71.8-118.3,71.8-118.3
		c0,118.3,0,118.3,0,118.3c52.8,0,52.8,0,52.8,0"/>
	<path id="path2862" class="st0" d="M222.2,327.5c5.6,0,7,0,10.6,0c38,0,59.2-23.2,59.2-69.7c0-38.7-16.9-59.9-48.6-59.9
		c-4.2,0-10.6,0.7-21.1,2.8L222.2,327.5L222.2,327.5z M222.2,410.6c31,7,31,7,31,7c0,17.6,0,17.6,0,17.6c-121.8,0-121.8,0-121.8,0
		c0-17.6,0-17.6,0-17.6c28.2-7,28.2-7,28.2-7c0-212.7,0-212.7,0-212.7c-31,0-31,0-31,0c0-17.6,0-17.6,0-17.6
		c73.9-22.5,73.9-22.5,73.9-22.5c19.7,0,19.7,0,19.7,0c0,25.4,0,25.4,0,25.4c34.5-21.1,46.5-24.6,64.8-24.6
		c40.8,0,71.8,38,71.8,90.8c0,60.6-41.5,102.1-104.9,102.1c-7,0-19-0.7-31.7-1.4"/>
</g>
</svg>
