<?xml version="1.0" encoding="utf-8"?>
<!-- Generator: Adobe Illustrator 23.0.6, SVG Export Plug-In . SVG Version: 6.00 Build 0)  -->
<svg version="1.1" id="Southwest_Logo_1_" xmlns="http://www.w3.org/2000/svg" xmlns:xlink="http://www.w3.org/1999/xlink" x="0px"
	 y="0px" viewBox="0 0 214.4 34" style="enable-background:new 0 0 214.4 34;" xml:space="preserve">
<style type="text/css">
	.st0{fill:#231F1B;}
</style>
<g id="Type">
	<g>
		<path class="st0" d="M59,27c-0.9,0.2-2,0.3-3.1,0.3c-3.2,0-3.9-1.1-3.9-3.2V12h-6v12.8c0,5.7,3.2,8.3,9.6,8.3c3.1,0,6-0.6,9.5-1.4
			V12H59V27z M78.5,27.6c-2.2,0-2.5-1-2.5-2.7v-7.8h5V12h-5V6h-6v6h-3v5h3v8.2c0,3.6,0.7,7.8,6.7,7.8c1.8,0,3.3-0.4,5-0.9l-0.6-5
			C80.2,27.4,79.4,27.6,78.5,27.6z M15.4,16.3c-1.1-0.4-2.4-0.8-3.7-1.2c-3.5-1-4.6-1.5-4.6-3.1c0-1.8,1.3-2.7,4.5-2.7
			c2.6,0,4.9,0.7,7.2,1.5L20.1,5c-2.7-1-5.2-1.9-8.3-1.9c-7.2,0-11.2,4.1-11.2,9c0,3.7,1.6,6.1,5.2,7.6c1,0.4,2.3,0.8,3.6,1.2
			c3.9,1.2,5.1,1.8,5.1,3.3C14.5,26,13,27,9.9,27c-2.8,0-5.4-0.8-8.1-2l-1.4,6c3,1.2,5.9,2,9.5,2c7.4,0,11.2-4.1,11.2-9.1
			C21.1,19.9,18.8,17.6,15.4,16.3z M94.2,11c-2,0-3.9,0.5-5.2,0.9V2h-6v31h6V17.5c1.1-0.4,2.3-0.8,3.8-0.8c2.3,0,3.2,0.9,3.2,3.1V33
			h6V19.1C102,13.6,99.5,11,94.2,11z M33.4,10.9c-6.1,0-11,4.3-11,11s4.9,11.2,11,11.2s11-4.4,11-11.2S39.5,10.9,33.4,10.9z
			 M33.4,27.1c-2.6,0-4.7-1.9-4.7-5.3s2-5.2,4.7-5.2s4.7,1.8,4.7,5.2C38.1,25.3,36,27.1,33.4,27.1z M168.1,20.2
			c-0.9-0.3-1.8-0.6-2.9-0.9c-2.1-0.6-2.9-0.9-2.9-1.8s0.8-1.5,2.7-1.5c2,0,3.8,0.4,5.8,1l1-5.2c-2.2-0.5-4.3-0.9-6.7-0.9
			c-5.7,0-8.8,2.9-8.8,6.9c0,2.8,1.4,4.6,4.2,5.8c0.8,0.3,1.7,0.7,2.8,1c2.2,0.6,3.3,0.9,3.3,1.9s-1.3,1.4-3.1,1.4
			c-2.2,0-4.2-0.4-6.3-1.2l-0.9,5.2c2.6,0.7,5,1.2,7.7,1.2c6,0,8.7-3.1,8.7-7C172.6,23.4,171.5,21.4,168.1,20.2z M145.6,10.9
			c-6.3,0-10.8,4.4-10.8,11.4c0,6.5,3.9,10.8,10.9,10.8c3.1,0,5.6-0.9,8.2-2l-0.9-5c-2,0.9-4,1.6-6.4,1.6c-3.6,0-5.1-1.5-5.3-3.7
			h13.5c0,0,0.2-2.4,0.2-2.9C155,15.4,151.9,10.9,145.6,10.9z M141.4,20c0.4-1.8,1.3-4.1,3.9-4.1c2.6,0,3.4,2.6,3.4,4.1H141.4z
			 M184.5,27.6c-2.2,0-2.5-1-2.5-2.7v-7.8h5V12h-5V6h-6v6h-3.1v5.1h3.1v8.2c0,3.6,0.9,7.8,6.9,7.8c1.8,0,3.3-0.4,5-0.9l-0.7-5
			C186.2,27.4,185.4,27.6,184.5,27.6z M188.5,3.2c-1.5,0-2.6,1.2-2.7,2.7s1.2,2.7,2.6,2.7c1.5,0,2.7-1.2,2.7-2.7S190,3.2,188.5,3.2z
			 M188.5,8.1c-1.2,0-2.1-0.9-2.1-2.2s0.9-2.2,2.2-2.2c1.2,0,2.2,0.9,2.1,2.2S189.7,8.1,188.5,8.1z M188.8,6
			c0.5-0.1,0.8-0.3,0.8-0.8s-0.4-0.9-1-0.9h-1v3.1h0.6V6.1c0.2,0,0.3,0.1,0.4,0.3l0.7,1h0.7l-0.6-1C189,6.2,188.9,6.1,188.8,6z
			 M188.4,5.7h-0.3V4.8h0.4c0.4,0,0.5,0.2,0.5,0.4C189,5.6,188.7,5.7,188.4,5.7z M129.2,12l-3.8,11.5L121.6,12h-5.2l-3.9,11.5
			L108.7,12h-6.5l7.5,21h5.5l3.8-11.4l3.8,11.4h5.5l7.5-21H129.2z"/>
	</g>
</g>
<g>
	<g>
		<path class="st0" d="M190.9,18.1c0,5.6,6,10.9,11,14.4c1.5-1,3-2.2,4.4-3.4c-6.7-5.6-13.1-10.7-15.3-12.5
			C191,17,190.9,17.5,190.9,18.1z"/>
		<path class="st0" d="M212.6,20.7c-4.9-4-7.8-6.1-11-8c-0.9-0.5-2.6-1.3-4.5-1.3c-1.8,0-3.4,0.6-4.5,1.7c-0.7,0.7-1.2,1.6-1.4,2.7
			c2.5,1.8,9.4,6.7,16.3,12.2C209.8,25.8,211.7,23.3,212.6,20.7z"/>
		<path class="st0" d="M211.3,13.1c-1.1-1.1-2.6-1.7-4.4-1.7c-1.9,0-3.3,0.6-4.4,1.2c1.9,1.1,6,3.4,10.3,6.6
			c0.1-0.4,0.1-0.9,0.1-1.3C213,15.9,212.4,14.2,211.3,13.1z"/>
	</g>
</g>
</svg>
