<?xml version="1.0" encoding="utf-8"?>
<!-- Generator: Adobe Illustrator 23.0.6, SVG Export Plug-In . SVG Version: 6.00 Build 0)  -->
<svg version="1.1" id="Layer_1" xmlns="http://www.w3.org/2000/svg" xmlns:xlink="http://www.w3.org/1999/xlink" x="0px" y="0px"
	 viewBox="0 0 183.2 189.5" style="enable-background:new 0 0 183.2 189.5;" xml:space="preserve">
<style type="text/css">
	.st0{fill:#231F1B;}
</style>
<title>Asset 1</title>
<g>
	<g id="Layer_1-2">
		<path class="st0" d="M0.5,138.3v31c0,17.3,10.6,20.2,19.4,20.2c13.1,0,19.1-8.6,19.1-20.4v-30.8h-8.7v31.9c0,4-1.3,11.6-10.5,11.4
			c-8.3-0.1-9.9-7.8-9.9-12.8v-30.5H0.5z"/>
		<path class="st0" d="M75.2,140.4c-3.7-1.7-7.7-2.7-11.8-2.8c-7.8,0-17.7,4-17.7,15c0,7.6,5.6,11.2,9.4,13.1c2,1,4.5,2.1,6.5,3.2
			c1,0.6,5.2,2,5.2,6.5c0,4.8-5.3,6.5-7.6,6.5c-5,0-9.9-1.3-14.2-3.8l0.9,9.7c0,0,3.5,1.8,13.8,1.8c9.9,0,17-6.4,17-15.1
			c0-6.7-4.6-10.7-8.5-12.6c-3.1-1.5-4.9-2.3-7.5-3.6s-5.4-3.4-5.4-6.8c0-3.6,3.3-6.2,8.2-6.2c7.2,0,10,3.2,11.8,4.3V140.4z"/>
		<path class="st0" d="M134.5,172.9l6.9-19.6l6.2,19.6H134.5z M93,172.9l6.9-19.6l6.1,19.6H93z M145.7,138.3h-10.4l1.6,4.2
			l-16.1,43.1l-16.6-47.3H93.8l1.7,4.2l-17.2,45.9h9.4l3-8.8h17.8l3,8.8h17.7l3-8.8h17.8l3,8.8h10.4L145.7,138.3z"/>
		<path class="st0" d="M0,82l0.4,15.6c2.4-1.7,5.2-2.7,8.1-2.8c4.3,0,9.2,3.1,9.2,3.1l38.5,22.5l3.3-14.2L17.7,81.8
			c0,0-4.8-3.1-9.2-3.1S0,82,0,82"/>
		<path class="st0" d="M0,61.5l0.4,15.7c2.4-1.7,5.2-2.7,8.1-2.8c4.3,0,9.2,3.1,9.2,3.1l42.7,25l3.2-14.2L17.7,61.3
			c0,0-4.8-3.1-9.2-3.1S0,61.5,0,61.5"/>
		<path class="st0" d="M0,41l0.4,15.7C2.8,55,5.6,54,8.6,53.8c4.3,0,9.2,3.1,9.2,3.1l46.8,27.4l3.2-14.2l-50-29.3
			c0,0-4.8-3.1-9.2-3.1S0,41,0,41"/>
		<path class="st0" d="M80.2,16.1l4.3,18.5l58.6,34.3c0,0,4.6,3.1,9.1,3.1s8.6-3.2,8.6-3.2L160.4,53c-2.4,1.7-5.2,2.7-8.1,2.8
			c-4.5,0-9.1-3.1-9.1-3.1L97.8,26.2l-3.1-11.9c0-0.4,0.3-0.7,0.6-0.8l7.7-2.4c0.9,0,1.6,0.7,1.6,1.6c0,0,0,0,0,0l0.4,0.9
			c0.3,0.1,1.4-0.4,1.5-0.5V8.5c0-3.2-2.6-5.8-5.8-5.9c0,0-0.1,0-0.1,0H93C92.2,1,90.5-0.1,88.6,0H74c-2.2,0-4.2,1.5-4.8,3.6
			l-10.1,41L17.7,20.4c0,0-4.5-3.1-9.2-3.1S0,20.5,0,20.5l0.4,15.7c2.3-1.8,5.2-2.8,8.1-2.8c4.7,0,9.2,3.1,9.2,3.1l50.9,29.8
			L80.2,16.1z"/>
		<path class="st0" d="M85.7,39.6l4.3,18.6l53.2,31.1c0,0,4.8,3.1,9.1,3.1s8.6-3.2,8.6-3.2l-0.4-15.7c-2.3,1.8-5.2,2.8-8.1,2.8
			c-4.8,0-9.1-3.1-9.1-3.1L85.7,39.6z"/>
		<path class="st0" d="M91.1,63.3l4.3,18.6l47.7,27.9c0,0,4.8,3.1,9.1,3.1s8.6-3.2,8.6-3.2L160.4,94c-2.3,1.8-5.2,2.8-8.1,2.8
			c-4.8,0-9.1-3.1-9.1-3.1L91.1,63.3z"/>
		<path class="st0" d="M96.6,87l4.3,18.5l42.3,24.8c0,0,4.8,3.1,9.1,3.1s8.6-3.2,8.6-3.2l-0.4-15.7c-2.3,1.8-5.2,2.8-8.1,2.8
			c-4.8,0-9.1-3.1-9.1-3.1L96.6,87z"/>
		<path class="st0" d="M172.9,135.4c5.7,0,10.3,4.7,10.3,10.4c0,5.7-4.7,10.3-10.4,10.3s-10.3-4.7-10.3-10.4
			C162.6,140.1,167.2,135.4,172.9,135.4L172.9,135.4z M172.9,137c-4.6,0-8.4,3.8-8.4,8.4s3.8,8.4,8.4,8.4s8.4-3.8,8.4-8.4
			C181.3,140.8,177.6,137.1,172.9,137L172.9,137z M171,151.9h-1.9v-11.6c1.1-0.2,2.2-0.3,3.3-0.3c1.3-0.1,2.5,0.2,3.6,0.9
			c0.7,0.6,1.1,1.5,1.1,2.4c0,1.4-0.9,2.5-2.3,2.8v0.1c1,0.2,1.7,1.1,1.9,2.8c0.1,1,0.3,2,0.7,2.9h-2c-0.4-0.9-0.7-2-0.8-3
			c-0.1-1.2-1.1-2.1-2.3-2.1c-0.1,0-0.2,0-0.2,0H171V151.9z M171,145.5h1.3c1.5,0,2.8-0.6,2.8-2c0-1-0.7-2-2.8-2
			c-0.4,0-0.9,0-1.3,0.1V145.5z"/>
	</g>
</g>
</svg>
