<svg id="Layer_1" data-name="Layer 1" xmlns="http://www.w3.org/2000/svg" viewBox="0 0 394.07 120.96"><defs><style>.cls-1{isolation:isolate;}.cls-2{fill:#00c0ef;}.cls-3{fill:#f3888f;}.cls-10,.cls-12,.cls-13,.cls-4,.cls-9{fill:none;stroke-miterlimit:10;}.cls-4{stroke:#f4b2d2;}.cls-5{fill:#f16991;}.cls-6{fill:#f99da9;}.cls-7{fill:#ec1c24;}.cls-8{fill:#f9b8a4;}.cls-9{stroke:#f3888f;}.cls-10{stroke:#fff;}.cls-11{fill:#9be7ff;}.cls-12{stroke:#00c0ef;}.cls-13{stroke:#a992f4;}</style></defs><title>th_logo_path_e</title><g class="cls-1"><path class="cls-2" d="M234.14,120a8,8,0,0,0,.42,2.94,3.76,3.76,0,0,0,1.08,1.57,2.81,2.81,0,0,0,1.44.62,12.59,12.59,0,0,0,1.57.1q1,0,1.76,0a3.69,3.69,0,0,0,1.11-.16v1.31l-1.14.13q-.56.07-2.06.07a5.85,5.85,0,0,1-3.89-1.34q-1.6-1.34-1.6-4.93v-26h-6.14V92.94h6.14V82.37h1.31V92.94h7.57v1.31h-7.57Z" transform="translate(-91.26 -43.87)"/><path class="cls-2" d="M247.19,98.92a10.1,10.1,0,0,1,2.45-3.56A11.34,11.34,0,0,1,253.56,93a15.86,15.86,0,0,1,5.45-.85,18.79,18.79,0,0,1,4.21.46,9,9,0,0,1,3.49,1.6,8.38,8.38,0,0,1,2.42,3,10.78,10.78,0,0,1,1,4.57v21.35a2.18,2.18,0,0,0,.39,1.44,2,2,0,0,0,1,.62,4.84,4.84,0,0,0,1.4.13q.75,0,1.4-.1v1.31h-2a4.58,4.58,0,0,1-2.51-.69,2.82,2.82,0,0,1-1.08-2.58v-4.37h-.13A10.44,10.44,0,0,1,267,122a12.15,12.15,0,0,1-2.87,2.68,14.73,14.73,0,0,1-4,1.86,16.31,16.31,0,0,1-4.83.69,13.48,13.48,0,0,1-8.16-2.25,7.84,7.84,0,0,1-3.07-6.76,10.68,10.68,0,0,1,1-5,8,8,0,0,1,2.64-3,10.46,10.46,0,0,1,3.72-1.5,30.62,30.62,0,0,1,4.18-.56l5.94-.36a18.33,18.33,0,0,0,4.08-.65,4.42,4.42,0,0,0,2.35-1.5,4.82,4.82,0,0,0,.75-2.91,19.89,19.89,0,0,0-.26-3.13,6.82,6.82,0,0,0-1.27-3,7.33,7.33,0,0,0-3-2.25,13.12,13.12,0,0,0-5.29-.88q-5.29,0-8.23,2.58a10.17,10.17,0,0,0-3.26,7.28h-1.31A13.42,13.42,0,0,1,247.19,98.92Zm21.48,7.87a4.08,4.08,0,0,1-2,1.4,16.56,16.56,0,0,1-3.13.75,33.3,33.3,0,0,1-3.82.33q-2.06.07-4,.2a31.23,31.23,0,0,0-3.82.49,9,9,0,0,0-3.3,1.31,6.69,6.69,0,0,0-2.29,2.61,9.57,9.57,0,0,0-.85,4.34,8.56,8.56,0,0,0,.49,2.84,6,6,0,0,0,1.67,2.48,9.08,9.08,0,0,0,3,1.76,13.42,13.42,0,0,0,4.6.69,14.4,14.4,0,0,0,5.81-1.11,13.14,13.14,0,0,0,4.28-2.91,12,12,0,0,0,2.61-4.15,13.66,13.66,0,0,0,.88-4.83v-6.2Z" transform="translate(-91.26 -43.87)"/><path class="cls-2" d="M279,92.94v8.29h.13a12.4,12.4,0,0,1,1.44-3.59A11.78,11.78,0,0,1,283,94.77a11,11,0,0,1,3.17-1.93,9.92,9.92,0,0,1,3.69-.69,9.62,9.62,0,0,1,6.56,2,10.1,10.1,0,0,1,3.49,5.84H300a10.37,10.37,0,0,1,3.85-5.68,11,11,0,0,1,6.79-2.15,12.4,12.4,0,0,1,5.09.91A8.44,8.44,0,0,1,319,95.59a9.83,9.83,0,0,1,1.76,3.85,22.17,22.17,0,0,1,.52,5v22.07H320V104.44a22.07,22.07,0,0,0-.42-4.51,8.64,8.64,0,0,0-1.5-3.46,7,7,0,0,0-2.87-2.22,11.4,11.4,0,0,0-4.54-.78A9.82,9.82,0,0,0,303,97a11.53,11.53,0,0,0-2.09,3.75,13.84,13.84,0,0,0-.72,4.47v21.29h-1.31V105a26.28,26.28,0,0,0-.36-4.44,10,10,0,0,0-1.34-3.66,6.9,6.9,0,0,0-2.74-2.48,9.93,9.93,0,0,0-4.57-.91,9,9,0,0,0-4.51,1.14,10.73,10.73,0,0,0-3.43,3.07,14.43,14.43,0,0,0-2.16,4.47,18.84,18.84,0,0,0-.75,5.35v19h-1.31V92.94Z" transform="translate(-91.26 -43.87)"/><path class="cls-2" d="M352.65,126.51v-8.29h-.13a11.55,11.55,0,0,1-4,6.46,12.3,12.3,0,0,1-8.06,2.55,14.74,14.74,0,0,1-4.8-.75,10.14,10.14,0,0,1-3.79-2.29,10.41,10.41,0,0,1-2.48-3.79,14.19,14.19,0,0,1-.88-5.19V92.94h1.31V115a13.08,13.08,0,0,0,.85,5,9.31,9.31,0,0,0,2.32,3.4,9.13,9.13,0,0,0,3.4,2,13.21,13.21,0,0,0,4.08.62,11.68,11.68,0,0,0,5.29-1.14,11.21,11.21,0,0,0,3.82-3.07,13.44,13.44,0,0,0,2.32-4.47,18.1,18.1,0,0,0,.78-5.35v-19H354v33.56Z" transform="translate(-91.26 -43.87)"/></g><g class="cls-1"><path class="cls-3" d="M362.45,79.88v21.35h.13A11.86,11.86,0,0,1,364,97.64a11.34,11.34,0,0,1,6.11-4.8,14,14,0,0,1,4.51-.69,14.14,14.14,0,0,1,4.8.78,10.54,10.54,0,0,1,3.79,2.32A10.42,10.42,0,0,1,385.73,99a14.17,14.17,0,0,1,.88,5.19v22.27H385.3V104.44a13.1,13.1,0,0,0-.85-5,9.33,9.33,0,0,0-2.32-3.4,9.17,9.17,0,0,0-3.4-2,13.25,13.25,0,0,0-4.08-.62,11.69,11.69,0,0,0-5.29,1.14,11.23,11.23,0,0,0-3.82,3.07,13.43,13.43,0,0,0-2.32,4.47,18.13,18.13,0,0,0-.78,5.35v19h-1.31V79.88Z" transform="translate(-91.26 -43.87)"/><path class="cls-3" d="M394.71,98.92a10.1,10.1,0,0,1,2.45-3.56A11.34,11.34,0,0,1,401.07,93a15.86,15.86,0,0,1,5.45-.85,18.79,18.79,0,0,1,4.21.46,9,9,0,0,1,3.49,1.6,8.38,8.38,0,0,1,2.42,3,10.77,10.77,0,0,1,1,4.57v21.35a2.18,2.18,0,0,0,.39,1.44,2,2,0,0,0,1,.62,4.85,4.85,0,0,0,1.4.13q.75,0,1.4-.1v1.31h-2a4.58,4.58,0,0,1-2.51-.69,2.82,2.82,0,0,1-1.08-2.58v-4.37h-.13a10.43,10.43,0,0,1-1.67,3.13,12.13,12.13,0,0,1-2.87,2.68,14.73,14.73,0,0,1-4,1.86,16.31,16.31,0,0,1-4.83.69,13.48,13.48,0,0,1-8.16-2.25,7.84,7.84,0,0,1-3.07-6.76,10.67,10.67,0,0,1,1-5,8,8,0,0,1,2.64-3,10.46,10.46,0,0,1,3.72-1.5,30.61,30.61,0,0,1,4.18-.56l5.94-.36a18.33,18.33,0,0,0,4.08-.65,4.42,4.42,0,0,0,2.35-1.5,4.82,4.82,0,0,0,.75-2.91,19.9,19.9,0,0,0-.26-3.13,6.81,6.81,0,0,0-1.27-3,7.32,7.32,0,0,0-3-2.25,13.11,13.11,0,0,0-5.29-.88q-5.29,0-8.23,2.58a10.17,10.17,0,0,0-3.26,7.28h-1.31A13.4,13.4,0,0,1,394.71,98.92Zm21.48,7.87a4.08,4.08,0,0,1-2,1.4,16.57,16.57,0,0,1-3.13.75,33.32,33.32,0,0,1-3.82.33q-2.06.07-4,.2a31.22,31.22,0,0,0-3.82.49,9,9,0,0,0-3.3,1.31,6.69,6.69,0,0,0-2.29,2.61,9.57,9.57,0,0,0-.85,4.34,8.58,8.58,0,0,0,.49,2.84,6,6,0,0,0,1.67,2.48,9.09,9.09,0,0,0,3,1.76,13.42,13.42,0,0,0,4.6.69,14.39,14.39,0,0,0,5.81-1.11,13.14,13.14,0,0,0,4.28-2.91,12,12,0,0,0,2.61-4.15,13.65,13.65,0,0,0,.88-4.83v-6.2Z" transform="translate(-91.26 -43.87)"/><path class="cls-3" d="M450.86,120.14A12.12,12.12,0,0,1,448,124a12.84,12.84,0,0,1-4.18,2.42,15.59,15.59,0,0,1-5.26.85,14.49,14.49,0,0,1-6.37-1.34,13.68,13.68,0,0,1-4.67-3.62,15.89,15.89,0,0,1-2.87-5.32,21,21,0,0,1-1-6.5,25.07,25.07,0,0,1,.95-7,17.26,17.26,0,0,1,2.87-5.81,14,14,0,0,1,4.9-4,15.23,15.23,0,0,1,7-1.5,14.16,14.16,0,0,1,4.51.72A12.25,12.25,0,0,1,447.66,95a11.58,11.58,0,0,1,2.84,3.43,12.9,12.9,0,0,1,1.47,4.73h-1.31a12.28,12.28,0,0,0-1.44-4.28,10.78,10.78,0,0,0-2.55-3,10.2,10.2,0,0,0-3.4-1.79,13.34,13.34,0,0,0-4-.59A13.79,13.79,0,0,0,432.55,95a12.69,12.69,0,0,0-4.44,4,16.86,16.86,0,0,0-2.42,5.48,24.81,24.81,0,0,0-.75,6,19.49,19.49,0,0,0,.88,5.88,15.36,15.36,0,0,0,2.58,5,12.36,12.36,0,0,0,4.24,3.43,13,13,0,0,0,5.88,1.27,14,14,0,0,0,4.64-.75,11.43,11.43,0,0,0,7.77-10.15h1.31A14.35,14.35,0,0,1,450.86,120.14Z" transform="translate(-91.26 -43.87)"/><path class="cls-3" d="M459.15,126.51h-1.31V79.88h1.31v32.32l23.18-19.26h1.89l-15.41,12.8,16.52,20.76h-1.76l-15.74-19.85-8.68,7.18Z" transform="translate(-91.26 -43.87)"/></g><rect class="cls-4" x="5.04" y="5.13" width="110.9" height="110.9"/><rect class="cls-5" x="63.34" y="30.13" width="8.6" height="25.1"/><rect class="cls-5" x="155.87" y="95.98" width="6.1" height="6.1" transform="translate(-114.74 97.51) rotate(-45)"/><rect class="cls-5" x="155.88" y="70.88" width="6.1" height="6.1" transform="translate(-96.99 90.17) rotate(-45)"/><rect class="cls-6" x="65.44" y="30.13" width="8.6" height="25.1"/><rect class="cls-6" x="157.97" y="95.97" width="6.1" height="6.1" transform="translate(-114.12 98.99) rotate(-45)"/><rect class="cls-6" x="157.98" y="70.86" width="6.1" height="6.1" transform="translate(-96.37 91.64) rotate(-45)"/><polyline class="cls-5" points="69.73 59.53 67.64 59.53 68.73 58.43"/><polygon class="cls-5" points="69.73 25.83 67.64 25.83 68.73 26.83 69.73 25.83"/><rect class="cls-7" x="65.44" y="66.23" width="8.6" height="25.1"/><rect class="cls-7" x="158.01" y="132.16" width="6.1" height="6.1" transform="translate(-139.7 109.62) rotate(-45)"/><rect class="cls-7" x="158.02" y="107.06" width="6.1" height="6.1" transform="translate(-121.95 102.28) rotate(-45)"/><rect class="cls-3" x="63.44" y="66.23" width="8.6" height="25.1"/><rect class="cls-3" x="156.02" y="132.17" width="6.1" height="6.1" transform="translate(-140.29 108.22) rotate(-45)"/><rect class="cls-3" x="156.02" y="107.07" width="6.1" height="6.1" transform="translate(-122.54 100.87) rotate(-45)"/><polygon class="cls-8" points="74.14 66.23 74.14 68.03 74.14 91.33 65.53 91.33 65.53 66.23 74.14 66.23"/><rect class="cls-8" x="158.11" y="132.17" width="6.1" height="6.1" transform="translate(-139.67 109.7) rotate(-45)"/><rect class="cls-8" x="158.12" y="107.07" width="6.1" height="6.1" transform="translate(-121.92 102.35) rotate(-45)"/><polyline class="cls-3" points="69.83 95.63 67.73 95.63 68.83 94.63"/><polygon class="cls-3" points="69.83 61.93 67.73 61.93 68.83 62.93 69.83 61.93"/><line class="cls-9" x1="64.04" y1="70.43" x2="71.14" y2="63.23"/><line class="cls-9" x1="65.24" y1="71.73" x2="72.44" y2="64.53"/><line class="cls-9" x1="64.84" y1="74.93" x2="73.84" y2="65.93"/><line class="cls-9" x1="65.24" y1="77.33" x2="74.34" y2="68.23"/><line class="cls-9" x1="65.24" y1="80.23" x2="74.34" y2="71.13"/><line class="cls-9" x1="65.34" y1="83.03" x2="74.44" y2="73.93"/><line class="cls-9" x1="65.24" y1="86.23" x2="74.34" y2="77.13"/><line class="cls-9" x1="65.24" y1="89.33" x2="74.34" y2="80.23"/><line class="cls-9" x1="65.34" y1="92.43" x2="74.44" y2="83.33"/><line class="cls-9" x1="66.84" y1="94.03" x2="74.44" y2="86.43"/><line class="cls-9" x1="68.64" y1="95.13" x2="74.44" y2="89.33"/><line class="cls-10" x1="74.64" y1="66.23" x2="74.64" y2="91.63"/><rect class="cls-7" x="65.34" y="30.13" width="8.6" height="25.1"/><rect class="cls-7" x="157.87" y="95.97" width="6.1" height="6.1" transform="translate(-114.15 98.92) rotate(-45)"/><rect class="cls-7" x="157.81" y="70.93" width="6.1" height="6.1" transform="translate(-96.46 91.54) rotate(-45)"/><rect class="cls-3" x="63.34" y="30.13" width="8.6" height="25.1"/><rect class="cls-3" x="155.87" y="95.98" width="6.1" height="6.1" transform="translate(-114.74 97.51) rotate(-45)"/><rect class="cls-3" x="155.88" y="70.88" width="6.1" height="6.1" transform="translate(-96.99 90.17) rotate(-45)"/><polygon class="cls-8" points="74.03 30.13 74.03 31.83 74.03 55.23 65.44 55.23 65.44 30.13 74.03 30.13"/><rect class="cls-8" x="157.97" y="95.97" width="6.1" height="6.1" transform="translate(-114.12 98.99) rotate(-45)"/><rect class="cls-8" x="157.98" y="70.86" width="6.1" height="6.1" transform="translate(-96.37 91.64) rotate(-45)"/><polyline class="cls-3" points="69.73 59.53 67.64 59.53 68.73 58.43"/><polygon class="cls-3" points="69.73 25.83 67.64 25.83 68.73 26.83 69.73 25.83"/><line class="cls-9" x1="63.94" y1="34.23" x2="71.04" y2="27.13"/><line class="cls-9" x1="65.14" y1="35.63" x2="72.34" y2="28.43"/><line class="cls-9" x1="64.64" y1="38.83" x2="73.74" y2="29.83"/><line class="cls-9" x1="65.14" y1="41.13" x2="74.24" y2="32.03"/><line class="cls-9" x1="65.14" y1="44.03" x2="74.24" y2="34.93"/><line class="cls-9" x1="65.14" y1="46.93" x2="74.34" y2="37.83"/><line class="cls-9" x1="65.04" y1="50.13" x2="74.14" y2="41.03"/><line class="cls-9" x1="65.14" y1="53.23" x2="74.24" y2="44.13"/><line class="cls-9" x1="65.14" y1="56.33" x2="74.34" y2="47.23"/><line class="cls-9" x1="66.74" y1="57.93" x2="74.34" y2="50.23"/><line class="cls-9" x1="68.34" y1="59.13" x2="74.24" y2="53.13"/><line class="cls-10" x1="74.54" y1="27.63" x2="74.54" y2="55.43"/><rect class="cls-3" x="74.84" y="56.53" width="12.2" height="8.6"/><rect class="cls-3" x="175.31" y="101.67" width="6.1" height="6.1" transform="translate(-113.07 112.93) rotate(-45)"/><rect class="cls-3" x="163.03" y="101.72" width="6.1" height="6.1" transform="translate(-116.7 104.26) rotate(-45)"/><rect class="cls-8" x="76.94" y="56.53" width="12.2" height="8.6"/><rect class="cls-8" x="177.41" y="101.66" width="6.1" height="6.1" transform="translate(-112.45 114.4) rotate(-45)"/><rect class="cls-8" x="165.12" y="101.7" width="6.1" height="6.1" transform="translate(-116.08 105.73) rotate(-45)"/><line class="cls-9" x1="72.74" y1="62.73" x2="79.14" y2="56.33"/><line class="cls-9" x1="74.64" y1="63.73" x2="81.94" y2="56.33"/><line class="cls-9" x1="76.54" y1="64.93" x2="85.14" y2="56.33"/><line class="cls-9" x1="79.14" y1="65.53" x2="88.24" y2="56.33"/><line class="cls-9" x1="81.94" y1="65.63" x2="90.14" y2="57.63"/><line class="cls-9" x1="85.14" y1="65.63" x2="91.74" y2="59.13"/><line class="cls-9" x1="88.24" y1="65.53" x2="93.14" y2="60.53"/><line class="cls-10" x1="76.94" y1="56.03" x2="88.84" y2="56.03"/><line class="cls-10" x1="76.54" y1="65.63" x2="89.24" y2="65.63"/><rect class="cls-2" x="37.24" y="30.03" width="8.6" height="25.1"/><rect class="cls-2" x="129.79" y="96" width="6.1" height="6.1" transform="translate(-122.39 79.08) rotate(-45)"/><rect class="cls-2" x="129.8" y="70.9" width="6.1" height="6.1" transform="translate(-104.64 71.73) rotate(-45)"/><polygon class="cls-11" points="47.94 30.03 47.94 31.83 47.94 55.23 39.34 55.23 39.34 30.03 47.94 30.03"/><rect class="cls-11" x="131.89" y="95.99" width="6.1" height="6.1" transform="translate(-121.77 80.56) rotate(-45)"/><rect class="cls-11" x="131.9" y="70.88" width="6.1" height="6.1" transform="translate(-104.02 73.21) rotate(-45)"/><polyline class="cls-2" points="43.63 59.53 41.53 59.53 42.63 58.43"/><polygon class="cls-2" points="43.63 25.73 41.53 25.73 42.63 26.83 43.63 25.73"/><rect class="cls-2" x="48.44" y="56.53" width="12.2" height="8.6"/><rect class="cls-2" x="148.93" y="101.68" width="6.1" height="6.1" transform="translate(-120.8 94.28) rotate(-45)"/><rect class="cls-2" x="136.72" y="101.66" width="6.1" height="6.1" transform="translate(-124.36 85.63) rotate(-45)"/><rect class="cls-11" x="50.54" y="56.53" width="12.2" height="8.6"/><rect class="cls-11" x="151.03" y="101.66" width="6.1" height="6.1" transform="translate(-120.18 95.75) rotate(-45)"/><rect class="cls-11" x="138.75" y="101.71" width="6.1" height="6.1" transform="translate(-123.81 87.08) rotate(-45)"/><line class="cls-12" x1="37.74" y1="34.23" x2="44.94" y2="27.03"/><line class="cls-12" x1="39.04" y1="35.63" x2="46.24" y2="28.43"/><line class="cls-12" x1="38.64" y1="38.83" x2="47.64" y2="29.73"/><line class="cls-12" x1="39.04" y1="41.13" x2="48.14" y2="32.03"/><line class="cls-12" x1="39.04" y1="44.03" x2="48.14" y2="34.93"/><line class="cls-12" x1="39.14" y1="46.93" x2="48.24" y2="37.83"/><line class="cls-12" x1="39.04" y1="50.13" x2="48.14" y2="41.03"/><line class="cls-12" x1="39.04" y1="53.23" x2="48.14" y2="44.13"/><line class="cls-12" x1="39.14" y1="56.33" x2="48.24" y2="47.23"/><line class="cls-12" x1="40.64" y1="57.83" x2="48.24" y2="50.23"/><line class="cls-12" x1="42.24" y1="59.13" x2="48.24" y2="53.13"/><line class="cls-10" x1="48.44" y1="29.63" x2="48.44" y2="54.83"/><rect class="cls-7" x="39.24" y="66.53" width="8.6" height="25.1"/><rect class="cls-7" x="131.76" y="132.39" width="6.1" height="6.1" transform="translate(-147.55 91.13) rotate(-45)"/><rect class="cls-7" x="131.77" y="107.29" width="6.1" height="6.1" transform="translate(-129.8 83.78) rotate(-45)"/><rect class="cls-2" x="37.24" y="66.53" width="8.6" height="25.1"/><rect class="cls-2" x="129.77" y="132.41" width="6.1" height="6.1" transform="translate(-148.14 89.72) rotate(-45)"/><rect class="cls-2" x="129.77" y="107.31" width="6.1" height="6.1" transform="translate(-130.4 82.38) rotate(-45)"/><polygon class="cls-11" points="47.94 66.53 47.94 68.23 47.94 91.63 39.34 91.63 39.34 66.53 47.94 66.53"/><rect class="cls-11" x="131.87" y="132.4" width="6.1" height="6.1" transform="translate(-147.52 91.21) rotate(-45)"/><rect class="cls-11" x="131.87" y="107.3" width="6.1" height="6.1" transform="translate(-129.77 83.86) rotate(-45)"/><polyline class="cls-2" points="43.63 95.93 41.53 95.93 42.63 94.93"/><polygon class="cls-2" points="43.63 62.23 41.53 62.23 42.63 63.23 43.63 62.23"/><line class="cls-12" x1="37.74" y1="70.63" x2="44.94" y2="63.43"/><line class="cls-12" x1="38.94" y1="72.23" x2="46.24" y2="64.83"/><line class="cls-12" x1="38.64" y1="75.23" x2="47.64" y2="66.23"/><line class="cls-12" x1="39.04" y1="77.63" x2="48.34" y2="68.33"/><line class="cls-12" x1="39.04" y1="80.53" x2="48.44" y2="71.13"/><line class="cls-12" x1="38.84" y1="83.53" x2="48.34" y2="74.03"/><line class="cls-12" x1="39.04" y1="86.53" x2="48.34" y2="77.23"/><line class="cls-12" x1="38.84" y1="89.83" x2="48.34" y2="80.33"/><line class="cls-12" x1="39.14" y1="92.73" x2="48.44" y2="83.43"/><line class="cls-12" x1="40.64" y1="94.33" x2="48.34" y2="86.63"/><line class="cls-12" x1="42.34" y1="95.53" x2="48.34" y2="89.43"/><line class="cls-10" x1="48.44" y1="66.53" x2="48.44" y2="92.03"/><rect class="cls-2" x="22.54" y="56.53" width="12.2" height="8.6"/><rect class="cls-2" x="122.95" y="101.71" width="6.1" height="6.1" transform="translate(-128.44 75.91) rotate(-45)"/><rect class="cls-2" x="110.74" y="101.69" width="6.1" height="6.1" transform="translate(-132 67.27) rotate(-45)"/><rect class="cls-11" x="24.54" y="56.53" width="12.2" height="8.6"/><rect class="cls-11" x="125.04" y="101.7" width="6.1" height="6.1" transform="translate(-127.82 77.39) rotate(-45)"/><rect class="cls-11" x="112.83" y="101.67" width="6.1" height="6.1" transform="translate(-131.37 68.75) rotate(-45)"/><line class="cls-12" x1="20.44" y1="62.63" x2="26.74" y2="56.33"/><line class="cls-12" x1="22.24" y1="63.73" x2="29.64" y2="56.33"/><line class="cls-12" x1="24.24" y1="64.93" x2="32.74" y2="56.33"/><line class="cls-12" x1="26.94" y1="65.33" x2="35.94" y2="56.33"/><line class="cls-12" x1="30.14" y1="65.33" x2="37.84" y2="57.53"/><line class="cls-12" x1="33.24" y1="65.33" x2="39.44" y2="59.13"/><line class="cls-12" x1="36.04" y1="65.33" x2="40.84" y2="60.53"/><line class="cls-10" x1="24.64" y1="56.03" x2="36.44" y2="56.03"/><line class="cls-10" x1="22.44" y1="65.63" x2="37.04" y2="65.63"/><rect class="cls-2" x="48.54" y="56.53" width="12.2" height="8.6"/><rect class="cls-2" x="149.03" y="101.67" width="6.1" height="6.1" transform="translate(-120.77 94.34) rotate(-45)"/><rect class="cls-2" x="136.82" y="101.65" width="6.1" height="6.1" transform="translate(-124.33 85.7) rotate(-45)"/><rect class="cls-11" x="50.64" y="56.53" width="12.2" height="8.6"/><rect class="cls-11" x="151.12" y="101.66" width="6.1" height="6.1" transform="translate(-120.15 95.81) rotate(-45)"/><rect class="cls-11" x="138.84" y="101.7" width="6.1" height="6.1" transform="translate(-123.78 87.15) rotate(-45)"/><line class="cls-12" x1="46.44" y1="62.73" x2="52.94" y2="56.23"/><line class="cls-12" x1="48.34" y1="63.73" x2="55.64" y2="56.33"/><line class="cls-12" x1="50.24" y1="64.93" x2="58.84" y2="56.33"/><line class="cls-12" x1="52.64" y1="65.63" x2="61.94" y2="56.33"/><line class="cls-12" x1="55.94" y1="65.53" x2="63.84" y2="57.53"/><line class="cls-12" x1="59.04" y1="65.53" x2="65.44" y2="59.13"/><line class="cls-12" x1="61.84" y1="65.63" x2="66.84" y2="60.53"/><line class="cls-10" x1="48.34" y1="56.03" x2="63.04" y2="56.03"/><line class="cls-10" x1="48.44" y1="65.63" x2="63.24" y2="65.63"/><rect class="cls-7" x="91.84" y="66.23" width="8.6" height="25.1"/><rect class="cls-7" x="184.42" y="132.17" width="6.1" height="6.1" transform="translate(-131.97 128.3) rotate(-45)"/><rect class="cls-7" x="184.42" y="107.07" width="6.1" height="6.1" transform="translate(-114.22 120.95) rotate(-45)"/><rect class="cls-3" x="89.84" y="66.23" width="8.6" height="25.1"/><rect class="cls-3" x="182.42" y="132.18" width="6.1" height="6.1" transform="translate(-132.56 126.89) rotate(-45)"/><rect class="cls-3" x="182.42" y="107.08" width="6.1" height="6.1" transform="translate(-114.82 119.54) rotate(-45)"/><polygon class="cls-8" points="100.53 66.23 100.53 68.03 100.53 91.33 91.94 91.33 91.94 66.23 100.53 66.23"/><rect class="cls-8" x="184.52" y="132.17" width="6.1" height="6.1" transform="translate(-131.94 128.37) rotate(-45)"/><rect class="cls-8" x="184.52" y="107.07" width="6.1" height="6.1" transform="translate(-114.19 121.02) rotate(-45)"/><polyline class="cls-3" points="96.23 95.63 94.14 95.63 95.23 94.63"/><polygon class="cls-3" points="96.23 61.93 94.14 61.93 95.23 62.93 96.23 61.93"/><line class="cls-9" x1="90.44" y1="70.43" x2="97.54" y2="63.23"/><line class="cls-9" x1="91.64" y1="71.73" x2="98.84" y2="64.53"/><line class="cls-9" x1="91.24" y1="74.93" x2="100.24" y2="65.93"/><line class="cls-9" x1="91.64" y1="77.33" x2="100.94" y2="68.03"/><line class="cls-9" x1="91.64" y1="80.23" x2="100.94" y2="70.93"/><line class="cls-9" x1="91.74" y1="83.03" x2="100.94" y2="73.83"/><line class="cls-9" x1="91.64" y1="86.23" x2="100.94" y2="76.93"/><line class="cls-9" x1="91.64" y1="89.33" x2="100.94" y2="80.03"/><line class="cls-9" x1="91.74" y1="92.43" x2="100.94" y2="83.23"/><line class="cls-9" x1="93.24" y1="94.03" x2="100.94" y2="86.33"/><line class="cls-9" x1="94.94" y1="95.23" x2="100.94" y2="89.23"/><line class="cls-10" x1="101.04" y1="66.03" x2="101.04" y2="90.63"/><rect class="cls-13" x="96.29" y="48.9" width="110.9" height="110.9" transform="translate(-99.54 -30.66) rotate(-4.85)"/></svg>