<?xml version="1.0" encoding="utf-8"?>
<!-- Generator: Adobe Illustrator 19.1.0, SVG Export Plug-In . SVG Version: 6.00 Build 0)  -->
<svg version="1.1" id="Layer_1" xmlns="http://www.w3.org/2000/svg" xmlns:xlink="http://www.w3.org/1999/xlink" x="0px" y="0px"
	 viewBox="116.1 93.4 389.1 115.1" style="enable-background:new 116.1 93.4 389.1 115.1;" xml:space="preserve">
<style type="text/css">
	.st0{fill:none;}
	.st1{clip-path:url(#SVGID_2_);}
	.st2{fill:#09C1EF;}
	.st3{fill:#A3DEF5;}
	.st4{fill:none;stroke:#09C1EF;stroke-width:0.95;stroke-miterlimit:10;}
	.st5{clip-path:url(#SVGID_4_);}
	.st6{clip-path:url(#SVGID_6_);}
	.st7{fill:#F16991;}
	.st8{fill:#F69DA9;}
	.st9{fill:#EB2227;}
	.st10{fill:#F48990;}
	.st11{fill:#F8B8A4;}
	.st12{fill:none;stroke:#F48990;stroke-width:0.95;stroke-miterlimit:10;}
	.st13{clip-path:url(#SVGID_8_);}
	.st14{fill:none;stroke:#F2B2D0;stroke-width:0.95;stroke-miterlimit:10;}
	.st15{fill:none;stroke:#A091C6;stroke-width:0.95;stroke-miterlimit:10;}
	.st16{clip-path:url(#SVGID_10_);}
	.st17{clip-path:url(#SVGID_12_);}
	.st18{clip-path:url(#SVGID_14_);}
	.st19{clip-path:url(#SVGID_16_);}
	.st20{fill:#0CC1EE;}
	.st21{fill:#9E90C5;stroke:#A988BE;stroke-width:0.42;stroke-miterlimit:10;}
	.st22{fill:none;stroke:#0CC1EE;stroke-width:0.41;stroke-miterlimit:10;}
	.st23{fill:#9E90C5;stroke:#A988BE;stroke-width:0.41;stroke-miterlimit:10;}
	.st24{fill:none;stroke:#F48990;stroke-width:0.41;stroke-miterlimit:10;}
</style>
<title>logovars</title>
<rect x="-449.3" y="-520.8" class="st0" width="595.3" height="841.9"/>
<rect x="-449.3" y="-520.8" class="st0" width="595.3" height="841.9"/>
<g>
	<defs>
		<rect id="SVGID_1_" x="133.6" y="147.3" width="21.9" height="8.2"/>
	</defs>
	<clipPath id="SVGID_2_">
		<use xlink:href="#SVGID_1_"  style="overflow:visible;"/>
	</clipPath>
	<g class="st1">
		<rect x="137.6" y="147.3" class="st2" width="11.6" height="8.2"/>
		
			<rect x="146.4" y="148.4" transform="matrix(-0.7071 0.7071 -0.7071 -0.7071 361.9382 152.7763)" class="st2" width="5.8" height="5.8"/>
		
			<rect x="134.9" y="148.5" transform="matrix(-0.7071 0.7071 -0.7071 -0.7071 342.2099 160.9988)" class="st2" width="5.8" height="5.8"/>
		<rect x="139.6" y="147.3" class="st3" width="11.6" height="8.2"/>
		
			<rect x="148.5" y="148.5" transform="matrix(-0.7071 0.7071 -0.7071 -0.7071 365.4332 151.3802)" class="st3" width="5.8" height="5.8"/>
		
			<rect x="136.8" y="148.5" transform="matrix(-0.7071 0.7071 -0.7071 -0.7071 345.4398 159.6539)" class="st3" width="5.8" height="5.8"/>
		<rect x="137.8" y="147.3" class="st2" width="11.6" height="8.2"/>
		
			<rect x="146.6" y="148.5" transform="matrix(-0.7071 0.7071 -0.7071 -0.7071 362.2003 152.7463)" class="st2" width="5.8" height="5.8"/>
		
			<rect x="134.9" y="148.5" transform="matrix(-0.7071 0.7071 -0.7071 -0.7071 342.3189 160.9264)" class="st2" width="5.8" height="5.8"/>
		<rect x="139.7" y="147.3" class="st3" width="11.6" height="8.2"/>
		
			<rect x="148.5" y="148.5" transform="matrix(-0.7071 0.7071 -0.7071 -0.7071 365.5493 151.3249)" class="st3" width="5.8" height="5.8"/>
		
			<rect x="136.8" y="148.5" transform="matrix(-0.7071 0.7071 -0.7071 -0.7071 345.5829 159.6297)" class="st3" width="5.8" height="5.8"/>
		<line class="st4" x1="135.8" y1="153.2" x2="141.9" y2="147"/>
		<line class="st4" x1="137.6" y1="154.2" x2="144.5" y2="147.1"/>
		<line class="st4" x1="139.4" y1="155.3" x2="147.5" y2="147.1"/>
		<line class="st4" x1="141.6" y1="156" x2="150.5" y2="147.1"/>
		<line class="st4" x1="144.8" y1="155.9" x2="152.3" y2="148.3"/>
		<line class="st4" x1="147.7" y1="155.9" x2="153.8" y2="149.8"/>
		<line class="st4" x1="150.4" y1="156" x2="155.1" y2="151.1"/>
	</g>
</g>
<g>
	<defs>
		<rect id="SVGID_3_" x="152" y="152.6" width="10.2" height="32.2"/>
	</defs>
	<clipPath id="SVGID_4_">
		<use xlink:href="#SVGID_3_"  style="overflow:visible;"/>
	</clipPath>
	<g class="st5">
		<rect x="152" y="156.7" class="st2" width="8.2" height="23.9"/>
		
			<rect x="153.2" y="177.7" transform="matrix(-0.7071 0.7071 -0.7071 -0.7071 394.2376 197.9914)" class="st2" width="5.8" height="5.8"/>
		
			<rect x="153.2" y="153.9" transform="matrix(-0.7071 0.7071 -0.7071 -0.7071 377.3522 157.2059)" class="st2" width="5.8" height="5.8"/>
		<polygon class="st3" points="162.2,156.7 162.2,158.4 162.2,180.7 154,180.7 154,156.7 		"/>
		
			<rect x="155.2" y="177.7" transform="matrix(-0.7071 0.7071 -0.7071 -0.7071 397.6006 196.5358)" class="st3" width="5.8" height="5.8"/>
		
			<rect x="155.2" y="153.8" transform="matrix(-0.7071 0.7071 -0.7071 -0.7071 380.6941 155.7532)" class="st3" width="5.8" height="5.8"/>
		<polyline class="st2" points="158.1,184.8 156.1,184.8 157.1,183.8 		"/>
		<polygon class="st2" points="158.1,152.6 156.1,152.6 157.1,153.7 		"/>
		<line class="st4" x1="152.5" y1="160.7" x2="159.3" y2="153.9"/>
		<line class="st4" x1="153.7" y1="162.1" x2="160.6" y2="155.2"/>
		<line class="st4" x1="153.4" y1="165.1" x2="161.9" y2="156.4"/>
		<line class="st4" x1="153.7" y1="167.3" x2="162.4" y2="158.6"/>
		<line class="st4" x1="153.7" y1="170.1" x2="162.4" y2="161.4"/>
		<line class="st4" x1="153.8" y1="172.8" x2="162.5" y2="164.1"/>
		<line class="st4" x1="153.7" y1="175.9" x2="162.4" y2="167.2"/>
		<line class="st4" x1="153.7" y1="178.8" x2="162.4" y2="170.1"/>
		<line class="st4" x1="153.8" y1="181.8" x2="162.5" y2="173.1"/>
		<line class="st4" x1="155.3" y1="183.2" x2="162.5" y2="175.9"/>
		<line class="st4" x1="156.8" y1="184.4" x2="162.5" y2="178.7"/>
	</g>
</g>
<g>
	<defs>
		<rect id="SVGID_5_" x="202.1" y="152.4" width="10.2" height="32.2"/>
	</defs>
	<clipPath id="SVGID_6_">
		<use xlink:href="#SVGID_5_"  style="overflow:visible;"/>
	</clipPath>
	<g class="st6">
		<rect x="201.9" y="156.5" class="st7" width="8.2" height="23.9"/>
		
			<rect x="203.2" y="177.5" transform="matrix(-0.7071 0.7071 -0.7071 -0.7071 479.4263 162.2209)" class="st7" width="5.8" height="5.8"/>
		
			<rect x="203.2" y="153.6" transform="matrix(-0.7071 0.7071 -0.7071 -0.7071 462.5651 121.4594)" class="st7" width="5.8" height="5.8"/>
		<rect x="203.9" y="156.5" class="st8" width="8.2" height="23.9"/>
		
			<rect x="205.2" y="177.5" transform="matrix(-0.7071 0.7071 -0.7071 -0.7071 482.8065 160.7923)" class="st8" width="5.8" height="5.8"/>
		
			<rect x="205.2" y="153.6" transform="matrix(-0.7071 0.7071 -0.7071 -0.7071 465.8828 119.9826)" class="st8" width="5.8" height="5.8"/>
		<polyline class="st7" points="208,184.5 206,184.5 207.1,183.5 		"/>
		<polygon class="st7" points="208,152.4 206,152.4 207.1,153.4 		"/>
		<rect x="203.9" y="156.5" class="st9" width="8.2" height="23.9"/>
		
			<rect x="205.1" y="177.5" transform="matrix(-0.7071 0.7071 -0.7071 -0.7071 482.6421 160.8477)" class="st9" width="5.8" height="5.8"/>
		
			<rect x="205.1" y="153.6" transform="matrix(-0.7071 0.7071 -0.7071 -0.7071 465.6548 120.1175)" class="st9" width="5.8" height="5.8"/>
		<rect x="201.9" y="156.5" class="st10" width="8.2" height="23.9"/>
		
			<rect x="203.2" y="177.5" transform="matrix(-0.7071 0.7071 -0.7071 -0.7071 479.4263 162.2209)" class="st10" width="5.8" height="5.8"/>
		
			<rect x="203.2" y="153.6" transform="matrix(-0.7071 0.7071 -0.7071 -0.7071 462.5651 121.4594)" class="st10" width="5.8" height="5.8"/>
		<polygon class="st11" points="212.1,156.5 212.1,158.2 212.1,180.4 203.9,180.4 203.9,156.5 		"/>
		
			<rect x="205.2" y="177.5" transform="matrix(-0.7071 0.7071 -0.7071 -0.7071 482.8065 160.7923)" class="st11" width="5.8" height="5.8"/>
		
			<rect x="205.2" y="153.6" transform="matrix(-0.7071 0.7071 -0.7071 -0.7071 465.8828 119.9826)" class="st11" width="5.8" height="5.8"/>
		<polyline class="st10" points="208,184.5 206,184.5 207.1,183.5 		"/>
		<polygon class="st10" points="208,152.4 206,152.4 207.1,153.4 		"/>
		<line class="st12" x1="202.5" y1="160.4" x2="209.3" y2="153.7"/>
		<line class="st12" x1="203.7" y1="161.8" x2="210.5" y2="154.9"/>
		<line class="st12" x1="203.2" y1="164.8" x2="211.9" y2="156.3"/>
		<line class="st12" x1="203.7" y1="167" x2="212.3" y2="158.4"/>
		<line class="st12" x1="203.7" y1="169.8" x2="212.3" y2="161.1"/>
		<line class="st12" x1="203.7" y1="172.5" x2="212.4" y2="163.9"/>
		<line class="st12" x1="203.6" y1="175.6" x2="212.2" y2="166.9"/>
		<line class="st12" x1="203.7" y1="178.5" x2="212.3" y2="169.9"/>
		<line class="st12" x1="203.7" y1="181.5" x2="212.4" y2="172.8"/>
		<line class="st12" x1="205.2" y1="183" x2="212.4" y2="175.7"/>
		<line class="st12" x1="206.7" y1="184.1" x2="212.3" y2="178.4"/>
	</g>
</g>
<g>
	<defs>
		<rect id="SVGID_7_" x="176.8" y="152.4" width="10.2" height="32.2"/>
	</defs>
	<clipPath id="SVGID_8_">
		<use xlink:href="#SVGID_7_"  style="overflow:visible;"/>
	</clipPath>
	<g class="st13">
		<rect x="176.8" y="156.5" class="st7" width="8.2" height="23.9"/>
		
			<rect x="178" y="177.5" transform="matrix(-0.7071 0.7071 -0.7071 -0.7071 436.4323 180.0902)" class="st7" width="5.8" height="5.8"/>
		
			<rect x="178" y="153.7" transform="matrix(-0.7071 0.7071 -0.7071 -0.7071 419.5782 139.3117)" class="st7" width="5.8" height="5.8"/>
		<rect x="178.8" y="156.5" class="st8" width="8.2" height="23.9"/>
		
			<rect x="180" y="177.5" transform="matrix(-0.7071 0.7071 -0.7071 -0.7071 439.8195 178.6446)" class="st8" width="5.8" height="5.8"/>
		
			<rect x="180" y="153.6" transform="matrix(-0.7071 0.7071 -0.7071 -0.7071 422.8888 137.8519)" class="st8" width="5.8" height="5.8"/>
		<polyline class="st7" points="182.9,184.5 180.9,184.5 182,183.5 		"/>
		<polygon class="st7" points="182.9,152.4 180.9,152.4 182,153.4 		"/>
		<rect x="178.7" y="156.5" class="st9" width="8.2" height="23.9"/>
		
			<rect x="179.9" y="177.5" transform="matrix(-0.7071 0.7071 -0.7071 -0.7071 439.6481 178.717)" class="st9" width="5.8" height="5.8"/>
		
			<rect x="179.9" y="153.6" transform="matrix(-0.7071 0.7071 -0.7071 -0.7071 422.6679 138.0039)" class="st9" width="5.8" height="5.8"/>
		<rect x="176.8" y="156.5" class="st10" width="8.2" height="23.9"/>
		
			<rect x="178" y="177.5" transform="matrix(-0.7071 0.7071 -0.7071 -0.7071 436.4323 180.0902)" class="st10" width="5.8" height="5.8"/>
		
			<rect x="178" y="153.7" transform="matrix(-0.7071 0.7071 -0.7071 -0.7071 419.5782 139.3117)" class="st10" width="5.8" height="5.8"/>
		<polygon class="st11" points="187,156.5 187,158.2 187,180.4 178.8,180.4 178.8,156.5 		"/>
		
			<rect x="180" y="177.5" transform="matrix(-0.7071 0.7071 -0.7071 -0.7071 439.8195 178.6446)" class="st11" width="5.8" height="5.8"/>
		
			<rect x="180" y="153.6" transform="matrix(-0.7071 0.7071 -0.7071 -0.7071 422.8888 137.8519)" class="st11" width="5.8" height="5.8"/>
		<polyline class="st10" points="182.9,184.5 180.9,184.5 182,183.5 		"/>
		<polygon class="st10" points="182.9,152.4 180.9,152.4 182,153.4 		"/>
		<line class="st12" x1="177.4" y1="160.4" x2="184.2" y2="153.7"/>
		<line class="st12" x1="178.6" y1="161.8" x2="185.4" y2="154.9"/>
		<line class="st12" x1="178.1" y1="164.8" x2="186.7" y2="156.3"/>
		<line class="st12" x1="178.6" y1="167" x2="187.2" y2="158.4"/>
		<line class="st12" x1="178.6" y1="169.8" x2="187.2" y2="161.1"/>
		<line class="st12" x1="178.6" y1="172.5" x2="187.3" y2="163.9"/>
		<line class="st12" x1="178.5" y1="175.6" x2="187.1" y2="166.9"/>
		<line class="st12" x1="178.6" y1="178.5" x2="187.2" y2="169.9"/>
		<line class="st12" x1="178.6" y1="181.5" x2="187.3" y2="172.8"/>
		<line class="st12" x1="180.1" y1="183" x2="187.3" y2="175.7"/>
		<line class="st12" x1="181.6" y1="184.1" x2="187.2" y2="178.4"/>
	</g>
</g>
<rect x="121.1" y="98.4" class="st14" width="105.5" height="105.5"/>
<rect x="121.1" y="98.3" transform="matrix(-0.9964 8.454742e-002 -8.454742e-002 -0.9964 359.9318 286.7789)" class="st15" width="105.5" height="105.5"/>
<g>
	<defs>
		<rect id="SVGID_9_" x="176.6" y="118" width="10.2" height="32.2"/>
	</defs>
	<clipPath id="SVGID_10_">
		<use xlink:href="#SVGID_9_"  style="overflow:visible;"/>
	</clipPath>
	<g class="st16">
		<rect x="176.6" y="122.2" class="st7" width="8.2" height="23.9"/>
		
			<rect x="177.8" y="143.1" transform="matrix(-0.7071 0.7071 -0.7071 -0.7071 411.7683 121.4295)" class="st7" width="5.8" height="5.8"/>
		
			<rect x="177.8" y="119.2" transform="matrix(-0.7071 0.7071 -0.7071 -0.7071 394.9071 80.6681)" class="st7" width="5.8" height="5.8"/>
		<rect x="178.6" y="122.2" class="st8" width="8.2" height="23.9"/>
		
			<rect x="179.8" y="143.1" transform="matrix(-0.7071 0.7071 -0.7071 -0.7071 415.1485 120.001)" class="st8" width="5.8" height="5.8"/>
		
			<rect x="179.8" y="119.2" transform="matrix(-0.7071 0.7071 -0.7071 -0.7071 398.2319 79.2083)" class="st8" width="5.8" height="5.8"/>
		<polyline class="st7" points="182.6,150.2 180.6,150.2 181.7,149.1 		"/>
		<polygon class="st7" points="182.6,118.1 180.6,118.1 181.7,119.1 		"/>
		<rect x="178.5" y="122.2" class="st9" width="8.2" height="23.9"/>
		
			<rect x="179.7" y="143.1" transform="matrix(-0.7071 0.7071 -0.7071 -0.7071 414.9912 120.0734)" class="st9" width="5.8" height="5.8"/>
		
			<rect x="179.7" y="119.2" transform="matrix(-0.7071 0.7071 -0.7071 -0.7071 398.0039 79.3432)" class="st9" width="5.8" height="5.8"/>
		<rect x="176.6" y="122.2" class="st10" width="8.2" height="23.9"/>
		
			<rect x="177.8" y="143.1" transform="matrix(-0.7071 0.7071 -0.7071 -0.7071 411.7683 121.4295)" class="st10" width="5.8" height="5.8"/>
		
			<rect x="177.8" y="119.2" transform="matrix(-0.7071 0.7071 -0.7071 -0.7071 394.9071 80.6681)" class="st10" width="5.8" height="5.8"/>
		<polygon class="st11" points="186.7,122.2 186.7,123.8 186.7,146.1 178.6,146.1 178.6,122.2 		"/>
		
			<rect x="179.8" y="143.1" transform="matrix(-0.7071 0.7071 -0.7071 -0.7071 415.1485 120.001)" class="st11" width="5.8" height="5.8"/>
		
			<rect x="179.8" y="119.2" transform="matrix(-0.7071 0.7071 -0.7071 -0.7071 398.2319 79.2083)" class="st11" width="5.8" height="5.8"/>
		<polyline class="st10" points="182.6,150.2 180.6,150.2 181.7,149.1 		"/>
		<polygon class="st10" points="182.6,118.1 180.6,118.1 181.7,119.1 		"/>
		<line class="st12" x1="177.1" y1="126.1" x2="183.9" y2="119.3"/>
		<line class="st12" x1="178.3" y1="127.4" x2="185.1" y2="120.6"/>
		<line class="st12" x1="177.8" y1="130.5" x2="186.4" y2="121.9"/>
		<line class="st12" x1="178.3" y1="132.7" x2="186.9" y2="124"/>
		<line class="st12" x1="178.3" y1="135.4" x2="186.9" y2="126.8"/>
		<line class="st12" x1="178.3" y1="138.2" x2="187" y2="129.5"/>
		<line class="st12" x1="178.2" y1="141.2" x2="186.8" y2="132.6"/>
		<line class="st12" x1="178.3" y1="144.2" x2="186.9" y2="135.5"/>
		<line class="st12" x1="178.3" y1="147.1" x2="187" y2="138.5"/>
		<line class="st12" x1="179.8" y1="148.6" x2="187" y2="141.3"/>
		<line class="st12" x1="181.3" y1="149.8" x2="186.9" y2="144.1"/>
	</g>
</g>
<g>
	<defs>
		<rect id="SVGID_11_" x="183.5" y="147.3" width="21.8" height="8.2"/>
	</defs>
	<clipPath id="SVGID_12_">
		<use xlink:href="#SVGID_11_"  style="overflow:visible;"/>
	</clipPath>
	<g class="st17">
		<rect x="187.5" y="147.3" class="st10" width="11.6" height="8.2"/>
		
			<rect x="196.3" y="148.5" transform="matrix(-0.7071 0.7071 -0.7071 -0.7071 447.1869 117.5641)" class="st10" width="5.8" height="5.8"/>
		
			<rect x="184.6" y="148.6" transform="matrix(-0.7071 0.7071 -0.7071 -0.7071 427.147 125.981)" class="st10" width="5.8" height="5.8"/>
		<rect x="189.5" y="147.3" class="st11" width="11.6" height="8.2"/>
		
			<rect x="198.3" y="148.5" transform="matrix(-0.7071 0.7071 -0.7071 -0.7071 450.56 116.1044)" class="st11" width="5.8" height="5.8"/>
		
			<rect x="186.5" y="148.5" transform="matrix(-0.7071 0.7071 -0.7071 -0.7071 430.4677 124.5595)" class="st11" width="5.8" height="5.8"/>
		<line class="st12" x1="185.5" y1="153.2" x2="191.6" y2="147.1"/>
		<line class="st12" x1="187.3" y1="154.2" x2="194.3" y2="147.1"/>
		<line class="st12" x1="189.1" y1="155.3" x2="197.3" y2="147.1"/>
		<line class="st12" x1="191.6" y1="155.9" x2="200.2" y2="147.1"/>
		<line class="st12" x1="194.3" y1="156" x2="202.1" y2="148.4"/>
		<line class="st12" x1="197.3" y1="156" x2="203.6" y2="149.8"/>
		<line class="st12" x1="200.2" y1="155.9" x2="204.9" y2="151.1"/>
	</g>
</g>
<g>
	<defs>
		<rect id="SVGID_13_" x="151.7" y="118" width="10.2" height="32.2"/>
	</defs>
	<clipPath id="SVGID_14_">
		<use xlink:href="#SVGID_13_"  style="overflow:visible;"/>
	</clipPath>
	<g class="st18">
		<rect x="151.7" y="122.1" class="st2" width="8.2" height="23.9"/>
		
			<rect x="153" y="143.1" transform="matrix(-0.7071 0.7071 -0.7071 -0.7071 369.3522 138.9313)" class="st2" width="5.8" height="5.8"/>
		
			<rect x="153" y="119.2" transform="matrix(-0.7071 0.7071 -0.7071 -0.7071 352.4668 98.1458)" class="st2" width="5.8" height="5.8"/>
		<polygon class="st3" points="161.9,122.1 161.9,123.8 161.9,146.1 153.7,146.1 153.7,122.1 		"/>
		
			<rect x="155" y="143" transform="matrix(-0.7071 0.7071 -0.7071 -0.7071 372.7153 137.5099)" class="st3" width="5.8" height="5.8"/>
		
			<rect x="155" y="119.2" transform="matrix(-0.7071 0.7071 -0.7071 -0.7071 355.9689 96.7809)" class="st3" width="5.8" height="5.8"/>
		<polyline class="st2" points="157.8,150.2 155.8,150.2 156.9,149.1 		"/>
		<polygon class="st2" points="157.8,118 155.8,118 156.9,119.1 		"/>
		<line class="st4" x1="152.2" y1="126.1" x2="159.1" y2="119.3"/>
		<line class="st4" x1="153.4" y1="127.4" x2="160.3" y2="120.6"/>
		<line class="st4" x1="153.1" y1="130.5" x2="161.6" y2="121.8"/>
		<line class="st4" x1="153.4" y1="132.7" x2="162.1" y2="124"/>
		<line class="st4" x1="153.4" y1="135.4" x2="162.1" y2="126.8"/>
		<line class="st4" x1="153.5" y1="138.2" x2="162.2" y2="129.5"/>
		<line class="st4" x1="153.4" y1="141.2" x2="162.1" y2="132.6"/>
		<line class="st4" x1="153.4" y1="144.2" x2="162.1" y2="135.5"/>
		<line class="st4" x1="153.5" y1="147.1" x2="162.2" y2="138.5"/>
		<line class="st4" x1="155" y1="148.5" x2="162.2" y2="141.3"/>
		<line class="st4" x1="156.5" y1="149.8" x2="162.2" y2="144.1"/>
	</g>
</g>
<g>
	<defs>
		<rect id="SVGID_15_" x="158.4" y="147.3" width="21.9" height="8.2"/>
	</defs>
	<clipPath id="SVGID_16_">
		<use xlink:href="#SVGID_15_"  style="overflow:visible;"/>
	</clipPath>
	<g class="st19">
		<rect x="162.4" y="147.3" class="st2" width="11.6" height="8.2"/>
		
			<rect x="171.1" y="148.5" transform="matrix(-0.7071 0.7071 -0.7071 -0.7071 404.1688 135.381)" class="st2" width="5.8" height="5.8"/>
		
			<rect x="159.6" y="148.5" transform="matrix(-0.7071 0.7071 -0.7071 -0.7071 384.4504 143.5935)" class="st2" width="5.8" height="5.8"/>
		<rect x="164.4" y="147.3" class="st3" width="11.6" height="8.2"/>
		
			<rect x="173.2" y="148.5" transform="matrix(-0.7071 0.7071 -0.7071 -0.7071 407.6637 133.9849)" class="st3" width="5.8" height="5.8"/>
		
			<rect x="161.5" y="148.5" transform="matrix(-0.7071 0.7071 -0.7071 -0.7071 387.6874 142.2657)" class="st3" width="5.8" height="5.8"/>
		<rect x="162.5" y="147.3" class="st2" width="11.6" height="8.2"/>
		
			<rect x="171.3" y="148.5" transform="matrix(-0.7071 0.7071 -0.7071 -0.7071 404.4309 135.351)" class="st2" width="5.8" height="5.8"/>
		
			<rect x="159.7" y="148.5" transform="matrix(-0.7071 0.7071 -0.7071 -0.7071 384.5836 143.5311)" class="st2" width="5.8" height="5.8"/>
		<rect x="164.5" y="147.3" class="st3" width="11.6" height="8.2"/>
		
			<rect x="173.3" y="148.5" transform="matrix(-0.7071 0.7071 -0.7071 -0.7071 407.7969 133.9366)" class="st3" width="5.8" height="5.8"/>
		
			<rect x="161.6" y="148.5" transform="matrix(-0.7071 0.7071 -0.7071 -0.7071 387.8135 142.2003)" class="st3" width="5.8" height="5.8"/>
		<line class="st4" x1="160.5" y1="153.2" x2="166.7" y2="147"/>
		<line class="st4" x1="162.3" y1="154.2" x2="169.2" y2="147.1"/>
		<line class="st4" x1="164.1" y1="155.3" x2="172.3" y2="147.1"/>
		<line class="st4" x1="166.4" y1="156" x2="175.2" y2="147.1"/>
		<line class="st4" x1="169.5" y1="155.9" x2="177" y2="148.3"/>
		<line class="st4" x1="172.5" y1="155.9" x2="178.6" y2="149.8"/>
		<line class="st4" x1="175.1" y1="156" x2="179.9" y2="151.1"/>
	</g>
</g>
<g>
	<path class="st20" d="M252.8,140.6c-0.1,0.9,0.1,1.9,0.4,2.8c0.2,0.6,0.5,1.1,1,1.5c0.4,0.3,0.8,0.5,1.3,0.6c0.5,0.1,1,0.1,1.5,0.1
		h1.7c0.3,0,0.7-0.1,1-0.2v1.2c-0.4,0-0.8,0.1-1,0.1c-0.2,0-1,0.1-2,0.1c-1.3,0-2.7-0.4-3.7-1.2c-1-0.9-1.5-2.4-1.5-4.7v-24.6h-5.8
		V115h5.8V105h1.2V115h7.3v1.2h-7.2L252.8,140.6L252.8,140.6L252.8,140.6z"/>
	<path class="st20" d="M265.1,120.7c0.5-1.3,1.3-2.4,2.3-3.4c1.1-1,2.3-1.7,3.7-2.2c1.7-0.6,3.4-0.8,5.1-0.8c1.3,0,2.7,0.2,4,0.5
		c1.2,0.2,2.3,0.8,3.3,1.5c1,0.8,1.8,1.7,2.3,2.8c0.6,1.4,1,2.9,1,4.4v20.3c-0.1,0.5,0.1,1,0.4,1.3c0.3,0.3,0.6,0.5,1,0.6
		c0.4,0.1,0.9,0.2,1.3,0.1c0.5,0,1-0.1,1.3-0.1v1.2H289c-0.8,0-1.7-0.2-2.4-0.7c-0.7-0.6-1.1-1.5-1-2.5v-4.2h-0.1
		c-0.3,1.1-0.9,2.1-1.6,2.9c-0.8,1-1.7,1.9-2.8,2.6c-1.2,0.8-2.4,1.4-3.7,1.8c-1.5,0.5-3,0.7-4.6,0.7c-3.2,0-5.8-0.7-7.7-2.1
		c-2-1.5-3.1-3.9-2.9-6.4c-0.1-1.6,0.3-3.3,1-4.8c0.6-1.1,1.5-2.1,2.5-2.8c1.1-0.7,2.3-1.2,3.5-1.4c1.3-0.3,2.7-0.5,4-0.6
		c2.2-0.1,4.1-0.2,5.6-0.4c1.3,0,2.6-0.3,3.9-0.7c0.9-0.2,1.7-0.7,2.2-1.4c0.5-0.8,0.7-1.8,0.7-2.8c0-1-0.1-2-0.3-2.9
		c-0.2-1-0.6-2-1.2-2.8c-0.8-1-1.8-1.7-3-2.1c-1.6-0.6-3.3-0.9-5-0.9c-3.3,0-6,0.9-7.8,2.5c-1.8,1.6-2.9,3.9-3.1,6.9h-1.2
		C264.3,123.3,264.6,122,265.1,120.7z M285.6,128.2c-0.5,0.6-1.1,1.1-1.9,1.3c-1,0.3-1.9,0.6-2.9,0.7c-1.2,0.2-2.4,0.3-3.6,0.3
		c-1.3,0-2.6,0.1-3.8,0.2c-1.2,0.1-2.5,0.3-3.6,0.5c-1.1,0.2-2.2,0.6-3.1,1.2c-0.9,0.6-1.7,1.5-2.2,2.5c-0.6,1.3-0.8,2.7-0.8,4.1
		c0,0.9,0.2,1.8,0.5,2.7c0.3,0.9,0.9,1.7,1.6,2.4c0.9,0.7,1.8,1.3,2.9,1.7c1.4,0.5,2.9,0.7,4.4,0.7c1.9,0,3.8-0.3,5.5-1
		c1.5-0.6,2.9-1.6,4.1-2.8c1.1-1.1,1.9-2.4,2.5-3.9c0.6-1.5,0.9-3,0.9-4.6v-5.9L285.6,128.2L285.6,128.2z"/>
	<path class="st20" d="M295.4,115v7.9h0.1c0.3-1.2,0.7-2.3,1.3-3.4c0.7-1,1.4-1.9,2.3-2.8c0.9-0.8,1.9-1.4,3-1.8
		c3.2-1.2,6.9-0.7,9.7,1.2c1.7,1.4,2.9,3.4,3.3,5.5h0.1c0.6-2.1,1.9-4,3.6-5.4c1.9-1.4,4.1-2.1,6.5-2.1c1.7,0,3.3,0.2,4.9,0.9
		c1.2,0.5,2.3,1.4,3.1,2.4c0.8,1.1,1.4,2.3,1.7,3.6c0.3,1.6,0.5,3.2,0.5,4.8v20.9h-1.2v-20.9c0-1.4-0.1-2.9-0.4-4.3
		c-0.3-1.2-0.7-2.3-1.4-3.3c-0.7-0.9-1.6-1.7-2.7-2.1c-1.4-0.5-2.8-0.8-4.3-0.8c-1.4,0-2.9,0.3-4.2,0.9c-1.2,0.6-2.3,1.4-3.1,2.5
		c-0.9,1-1.5,2.2-2,3.5c-0.5,1.4-0.7,2.8-0.7,4.3v20.2h-1.2v-20.5c0-1.4-0.1-2.8-0.4-4.2c-0.2-1.2-0.6-2.4-1.2-3.4
		c-0.7-1-1.5-1.8-2.6-2.4c-1.4-0.6-2.9-0.9-4.4-0.9c-1.5,0-3,0.3-4.3,1c-1.3,0.7-2.4,1.8-3.2,2.9c-0.9,1.3-1.6,2.8-2.1,4.3
		c-0.5,1.6-0.7,3.3-0.7,5v18.1h-1.2v-31.8h1.2L295.4,115L295.4,115z"/>
	<path class="st20" d="M365.3,146.8v-7.9h-0.1c-0.5,2.4-1.9,4.6-3.8,6.2c-2.2,1.7-4.9,2.5-7.6,2.4c-1.5,0-3.1-0.2-4.6-0.7
		c-1.3-0.5-2.6-1.2-3.6-2.2c-1.1-1-1.9-2.2-2.4-3.6c-0.6-1.6-0.9-3.3-0.9-4.9V115h1.2v20.9c0,1.6,0.2,3.2,0.8,4.8
		c0.5,1.2,1.2,2.3,2.2,3.2c0.9,0.8,2,1.5,3.2,1.9c1.3,0.4,2.6,0.6,3.9,0.6c1.7,0,3.4-0.3,5-1c1.4-0.7,2.6-1.7,3.6-2.9
		c1-1.3,1.7-2.7,2.2-4.3c0.5-1.6,0.7-3.3,0.8-5V115h1.2v31.9H365.3L365.3,146.8z"/>
</g>
<g>
	<path class="st10" d="M374.5,102.6v20.3h0.1c0.3-1.2,0.7-2.4,1.4-3.4c0.7-1,1.5-2,2.4-2.8c1-0.8,2.2-1.4,3.4-1.8
		c1.4-0.5,2.8-0.7,4.3-0.7c1.6,0,3.1,0.3,4.6,0.8c1.3,0.5,2.6,1.2,3.6,2.2c1.1,1,1.9,2.2,2.4,3.6c0.6,1.6,0.9,3.3,0.9,4.9v21.1h-1.2
		v-20.9c0-1.6-0.2-3.2-0.8-4.8c-0.5-1.2-1.2-2.3-2.2-3.2c-0.9-0.8-2-1.5-3.2-1.9c-1.3-0.4-2.6-0.6-3.9-0.6c-1.7,0-3.4,0.3-5,1
		c-1.4,0.7-2.6,1.7-3.6,2.9c-1,1.3-1.7,2.7-2.2,4.3c-0.5,1.6-0.7,3.3-0.8,5v18.2h-1.2v-44.2H374.5L374.5,102.6z"/>
	<path class="st10" d="M405.1,120.7c0.5-1.3,1.3-2.4,2.3-3.4c1.1-1,2.3-1.7,3.7-2.2c1.7-0.6,3.4-0.8,5.1-0.8c1.3,0,2.7,0.2,4,0.5
		c1.2,0.2,2.3,0.8,3.3,1.5c1,0.8,1.8,1.7,2.3,2.8c0.6,1.4,1,2.9,1,4.4v20.3c-0.1,0.5,0.1,1,0.4,1.3c0.3,0.3,0.6,0.5,1,0.6
		c0.4,0.1,0.9,0.2,1.3,0.1c0.5,0,1-0.1,1.3-0.1v1.2H429c-0.8,0-1.7-0.2-2.4-0.7c-0.7-0.6-1.1-1.5-1-2.5v-4.2h-0.1
		c-0.3,1.1-0.9,2.1-1.6,2.9c-0.8,1-1.7,1.9-2.8,2.6c-1.2,0.8-2.4,1.4-3.7,1.8c-1.5,0.5-3,0.7-4.6,0.7c-3.2,0-5.8-0.7-7.7-2.1
		c-2-1.5-3.1-3.9-3-6.4c-0.1-1.6,0.3-3.3,1-4.8c0.6-1.1,1.5-2.1,2.5-2.8c1.1-0.7,2.3-1.2,3.5-1.4c1.3-0.3,2.7-0.5,4-0.6
		c2.2-0.1,4.1-0.2,5.6-0.4c1.3,0,2.6-0.3,3.9-0.7c0.9-0.2,1.7-0.7,2.2-1.4c0.5-0.8,0.7-1.8,0.7-2.8c0-1-0.1-2-0.3-2.9
		c-0.2-1-0.6-2-1.2-2.8c-0.8-1-1.9-1.7-3-2.1c-1.6-0.6-3.3-0.9-5-0.9c-3.3,0-6,0.9-7.8,2.5s-2.9,3.9-3.1,6.9h-1.2
		C404.3,123.3,404.7,122,405.1,120.7z M425.6,128.2c-0.5,0.6-1.1,1.1-1.9,1.3c-1,0.3-1.9,0.6-3,0.7c-1.2,0.2-2.4,0.3-3.6,0.3
		c-1.3,0-2.6,0.1-3.8,0.2c-1.2,0.1-2.5,0.3-3.6,0.5c-1.1,0.2-2.2,0.6-3.1,1.2c-0.9,0.6-1.7,1.5-2.2,2.5c-0.6,1.3-0.8,2.7-0.8,4.1
		c0,0.9,0.2,1.8,0.5,2.7c0.3,0.9,0.9,1.7,1.6,2.4c0.9,0.7,1.8,1.3,2.9,1.7c1.4,0.5,2.9,0.7,4.4,0.7c1.9,0,3.8-0.3,5.5-1
		c1.5-0.6,2.9-1.6,4.1-2.8c1.1-1.1,1.9-2.4,2.5-3.9c0.6-1.5,0.9-3,0.9-4.6v-5.9L425.6,128.2L425.6,128.2z"/>
	<path class="st10" d="M458.5,140.8c-0.6,1.4-1.6,2.6-2.8,3.6c-1.2,1-2.5,1.8-4,2.3c-3.6,1.1-7.5,1-11-0.5c-1.7-0.8-3.2-2-4.5-3.4
		c-1.2-1.5-2.2-3.2-2.8-5c-0.7-2-1-4.1-1-6.2c0-2.2,0.3-4.4,0.9-6.6c0.5-2,1.5-3.9,2.8-5.5c1.2-1.6,2.8-2.9,4.7-3.8
		c2-1,4.3-1.5,6.6-1.4c1.5,0,2.9,0.2,4.3,0.7c1.3,0.5,2.5,1.1,3.6,2c1.1,0.9,2,2,2.7,3.2c0.7,1.4,1.2,2.9,1.4,4.5h-1.2
		c-0.2-1.4-0.6-2.8-1.3-4.1c-0.6-1.1-1.4-2.1-2.4-2.8c-0.9-0.8-2-1.4-3.2-1.7c-1.2-0.4-2.5-0.6-3.8-0.6c-2.2-0.1-4.4,0.4-6.4,1.4
		c-1.7,0.9-3.1,2.2-4.2,3.8c-1.1,1.6-1.8,3.4-2.3,5.2c-0.5,1.9-0.7,3.8-0.7,5.7c0,1.9,0.3,3.8,0.9,5.6c0.5,1.7,1.4,3.3,2.5,4.8
		c1.1,1.4,2.4,2.5,4,3.2c3.1,1.4,6.7,1.6,10,0.6c1.3-0.5,2.6-1.2,3.6-2.1c1-0.9,1.9-2,2.6-3.2c0.7-1.3,1.1-2.8,1.1-4.3h1.2
		C459.6,137.8,459.2,139.4,458.5,140.8z"/>
	<path class="st10" d="M466.3,146.8h-1.2v-44.2h1.2v30.7l22-18.3h1.8l-14.7,12.2l15.7,19.7h-1.7l-14.9-18.8l-8.3,6.8L466.3,146.8
		L466.3,146.8L466.3,146.8z"/>
</g>
<path class="st21" d="M262.9,158l-5.6,14.9h-0.7l-6.1-14.9h0.7l5.8,14.3h0.1l5.3-14.3H262.9z"/>
<path class="st21" d="M263.8,162.5c0.3-0.9,0.7-1.7,1.3-2.5c0.6-0.7,1.3-1.3,2.1-1.7c0.9-0.4,1.9-0.7,2.9-0.6c1,0,2,0.2,2.9,0.6
	c0.8,0.4,1.5,1,2.1,1.7c0.6,0.7,1,1.6,1.3,2.5c0.6,1.9,0.6,4,0,5.9c-0.3,0.9-0.7,1.7-1.3,2.5c-0.6,0.7-1.3,1.3-2.1,1.7
	c-0.9,0.4-1.9,0.7-2.9,0.6c-1,0-2-0.2-2.9-0.6c-0.8-0.4-1.5-1-2.1-1.7c-0.6-0.7-1-1.6-1.3-2.5C263.2,166.5,263.2,164.4,263.8,162.5z
	 M264.3,168.2c0.2,0.8,0.6,1.6,1.2,2.3c0.5,0.7,1.2,1.2,1.9,1.6c0.8,0.4,1.7,0.6,2.7,0.6c0.9,0,1.8-0.2,2.6-0.6
	c0.8-0.4,1.4-0.9,1.9-1.6c0.5-0.7,0.9-1.5,1.2-2.3c0.3-0.9,0.4-1.8,0.4-2.7c0-0.9-0.1-1.8-0.4-2.7c-0.2-0.8-0.6-1.6-1.2-2.3
	c-0.5-0.7-1.2-1.2-1.9-1.6c-0.8-0.4-1.7-0.6-2.6-0.6c-0.9,0-1.8,0.2-2.7,0.6c-0.7,0.4-1.4,0.9-1.9,1.6c-0.5,0.7-0.9,1.5-1.2,2.3
	c-0.3,0.9-0.4,1.8-0.4,2.7C263.9,166.4,264.1,167.3,264.3,168.2z"/>
<path class="st21" d="M279.8,152.2v20.7h-0.6v-20.7H279.8z"/>
<path class="st21" d="M293.7,172.9v-3.7h-0.1c-0.3,1.1-0.9,2.1-1.8,2.9c-1,0.8-2.3,1.2-3.6,1.1c-0.7,0-1.4-0.1-2.1-0.3
	c-0.6-0.2-1.2-0.5-1.7-1c-0.5-0.5-0.9-1-1.1-1.7c-0.3-0.7-0.4-1.5-0.4-2.3V158h0.6v9.8c0,0.8,0.1,1.5,0.4,2.2c0.2,0.6,0.6,1.1,1,1.5
	c0.4,0.4,0.9,0.7,1.5,0.9c0.6,0.2,1.2,0.3,1.8,0.3c0.8,0,1.6-0.2,2.4-0.5c0.7-0.3,1.2-0.8,1.7-1.4c0.5-0.6,0.8-1.3,1-2
	c0.2-0.8,0.4-1.6,0.4-2.4V158h0.6v14.9L293.7,172.9L293.7,172.9z"/>
<path class="st21" d="M298,158v3.7h0.1c0.1-0.6,0.3-1.1,0.6-1.6c0.6-1,1.6-1.8,2.7-2.1c0.6-0.2,1.3-0.3,2-0.3c0.7,0,1.4,0.1,2.1,0.4
	c0.6,0.2,1.2,0.6,1.7,1c0.5,0.5,0.9,1,1.1,1.7c0.3,0.7,0.4,1.5,0.4,2.3v9.9h-0.6v-9.8c0-0.8-0.1-1.5-0.4-2.2c-0.2-0.6-0.6-1.1-1-1.5
	c-0.4-0.4-0.9-0.7-1.5-0.9c-0.6-0.2-1.2-0.3-1.8-0.3c-0.8,0-1.6,0.2-2.4,0.5c-0.7,0.3-1.2,0.8-1.7,1.4c-0.5,0.6-0.8,1.3-1,2
	c-0.2,0.8-0.4,1.6-0.4,2.4v8.4h-0.6V158H298z"/>
<path class="st21" d="M313.5,170c0,0.4,0,0.9,0.2,1.3c0.1,0.3,0.3,0.5,0.5,0.7c0.2,0.2,0.4,0.2,0.6,0.3c0.2,0,0.5,0,0.7,0h0.8
	c0.2,0,0.3,0,0.5-0.1v0.6l-0.5,0.1c-0.2,0-0.5,0-0.9,0c-0.6,0-1.2-0.2-1.7-0.6c-0.5-0.6-0.8-1.4-0.7-2.2v-11.5h-2.7V158h2.8v-4.7
	h0.6v4.7h3.4v0.6h-3.4L313.5,170L313.5,170z"/>
<path class="st21" d="M319,168.4c0.2,0.8,0.5,1.6,1,2.3c0.5,0.6,1.1,1.2,1.8,1.5c0.8,0.4,1.8,0.6,2.7,0.6c1.4,0.1,2.8-0.4,3.9-1.2
	c1.1-0.9,1.8-2.3,1.9-3.7h0.6c-0.1,1.6-0.9,3-2.1,4c-1.2,1-2.7,1.5-4.3,1.4c-1,0.1-2.1-0.1-3-0.6c-0.8-0.4-1.5-0.9-2-1.6
	c-0.5-0.7-0.9-1.6-1.2-2.5c-0.3-1-0.4-2-0.4-3.1c0-1.1,0.2-2.2,0.6-3.3c0.3-0.9,0.8-1.7,1.4-2.4c0.6-0.7,1.3-1.2,2.1-1.5
	c0.8-0.3,1.6-0.5,2.4-0.5c1,0,2.1,0.2,3,0.7c0.8,0.4,1.5,1,2.1,1.8c0.5,0.8,0.9,1.6,1.2,2.5c0.2,1,0.3,2,0.3,3h-12.4
	C318.7,166.5,318.8,167.4,319,168.4z M330.1,162.4c-0.2-0.8-0.6-1.5-1.1-2.2c-0.5-0.6-1.1-1.1-1.8-1.5c-0.8-0.4-1.7-0.6-2.5-0.5
	c-0.8,0-1.6,0.1-2.3,0.5c-0.7,0.3-1.3,0.8-1.9,1.4c-0.6,0.6-1,1.3-1.3,2.1c-0.3,0.9-0.5,1.8-0.6,2.8h11.9
	C330.5,164.1,330.4,163.2,330.1,162.4L330.1,162.4z"/>
<path class="st21" d="M333.5,168.4c0.2,0.8,0.5,1.6,1,2.3c0.5,0.6,1.1,1.2,1.8,1.5c0.8,0.4,1.8,0.6,2.7,0.6c1.4,0.1,2.8-0.4,3.9-1.2
	c1.1-0.9,1.8-2.3,1.9-3.7h0.6c-0.1,1.6-0.9,3-2.1,4c-1.2,1-2.7,1.5-4.3,1.4c-1,0.1-2.1-0.1-3-0.6c-0.8-0.4-1.5-0.9-2-1.6
	c-0.5-0.7-0.9-1.6-1.2-2.5c-0.3-1-0.4-2-0.4-3.1c0-1.1,0.2-2.2,0.5-3.3c0.3-0.9,0.8-1.7,1.5-2.4c0.6-0.7,1.3-1.2,2.1-1.5
	c0.8-0.3,1.6-0.5,2.4-0.5c1,0,2.1,0.2,3,0.7c0.8,0.4,1.5,1,2.1,1.8c0.5,0.8,0.9,1.6,1.2,2.5c0.2,1,0.3,2,0.3,3h-12.4
	C333.2,166.5,333.3,167.4,333.5,168.4z M344.6,162.4c-0.2-0.8-0.6-1.5-1.1-2.2c-0.5-0.6-1.1-1.1-1.8-1.5c-0.8-0.4-1.7-0.6-2.5-0.5
	c-0.8,0-1.6,0.1-2.3,0.5c-0.7,0.3-1.3,0.8-1.9,1.4c-0.6,0.6-1,1.3-1.3,2.1c-0.3,0.9-0.5,1.8-0.6,2.8H345
	C345,164.1,344.9,163.2,344.6,162.4L344.6,162.4z"/>
<path class="st21" d="M347.9,172.9V158h0.6v3.7h0.1c0.1-0.6,0.3-1.1,0.6-1.6c0.3-0.5,0.7-0.9,1.2-1.3c0.5-0.4,1.1-0.7,1.7-0.9
	c0.8-0.2,1.5-0.3,2.3-0.3v0.6c-0.9-0.1-1.8,0.1-2.6,0.4c-0.7,0.3-1.3,0.8-1.8,1.4c-0.5,0.6-0.8,1.3-1.1,2c-0.2,0.8-0.4,1.6-0.4,2.4
	v8.4L347.9,172.9L347.9,172.9z"/>
<path class="st21" d="M363.5,155.1v-2.9h0.6v2.9H363.5z M363.5,172.9V158h0.6v14.9L363.5,172.9L363.5,172.9z"/>
<path class="st21" d="M367.9,158v3.7h0.1c0.1-0.6,0.3-1.1,0.6-1.6c0.6-1,1.6-1.8,2.7-2.1c0.6-0.2,1.3-0.3,2-0.3
	c0.7,0,1.4,0.1,2.1,0.4c0.6,0.2,1.2,0.6,1.7,1c0.5,0.5,0.9,1,1.1,1.7c0.3,0.7,0.4,1.5,0.4,2.3v9.9H378v-9.8c0-0.8-0.1-1.5-0.4-2.2
	c-0.2-0.6-0.6-1.1-1-1.5c-0.4-0.4-0.9-0.7-1.5-0.9c-0.6-0.2-1.2-0.3-1.8-0.3c-0.8,0-1.6,0.2-2.4,0.5c-0.7,0.3-1.2,0.8-1.7,1.4
	c-0.5,0.6-0.8,1.3-1,2c-0.2,0.8-0.4,1.6-0.4,2.4v8.4h-0.6V158H367.9L367.9,158z"/>
<path class="st21" d="M380.2,158h2.5v-3.3c0-0.5,0.1-1,0.3-1.4c0.2-0.3,0.4-0.6,0.7-0.7c0.3-0.2,0.6-0.3,1-0.3c0.3,0,0.7-0.1,1-0.1
	c0.2,0,0.5,0,0.7,0l0.5,0.1v0.6l-0.7-0.1h-0.6c-0.6-0.1-1.3,0.1-1.8,0.5c-0.3,0.5-0.5,1-0.4,1.6v3.1h3.2v0.6h-3.2v14.3h-0.6v-14.4
	h-2.5L380.2,158L380.2,158z"/>
<path class="st21" d="M387.3,162.5c0.3-0.9,0.7-1.7,1.3-2.5c0.6-0.7,1.3-1.3,2.1-1.7c0.9-0.4,1.9-0.7,2.9-0.6c1,0,2,0.2,2.9,0.6
	c0.8,0.4,1.5,1,2.1,1.7c0.6,0.7,1,1.6,1.3,2.5c0.6,1.9,0.6,4,0,5.9c-0.3,0.9-0.7,1.7-1.3,2.5c-0.6,0.7-1.3,1.3-2.1,1.7
	c-0.9,0.4-1.9,0.7-2.9,0.6c-1,0-2-0.2-2.9-0.6c-0.8-0.4-1.5-1-2.1-1.7c-0.6-0.7-1-1.6-1.3-2.5C386.8,166.5,386.8,164.4,387.3,162.5z
	 M387.9,168.2c0.2,0.8,0.6,1.6,1.2,2.3c0.5,0.7,1.2,1.2,1.9,1.6c0.8,0.4,1.7,0.6,2.6,0.6c0.9,0,1.8-0.2,2.6-0.6
	c0.8-0.4,1.4-0.9,1.9-1.6c0.5-0.7,0.9-1.5,1.2-2.3c0.3-0.9,0.4-1.8,0.4-2.7c0-0.9-0.1-1.8-0.4-2.7c-0.2-0.8-0.6-1.6-1.2-2.3
	c-0.5-0.7-1.2-1.2-1.9-1.6c-0.8-0.4-1.7-0.6-2.6-0.6c-0.9,0-1.8,0.2-2.6,0.6c-0.7,0.4-1.4,0.9-1.9,1.6c-0.5,0.7-0.9,1.5-1.2,2.3
	c-0.3,0.9-0.4,1.8-0.4,2.7C387.5,166.3,387.6,167.3,387.9,168.2z"/>
<path class="st21" d="M402.7,172.9V158h0.6v3.7h0.1c0.1-0.6,0.3-1.1,0.6-1.6c0.3-0.5,0.7-0.9,1.2-1.3c0.5-0.4,1.1-0.7,1.7-0.9
	c0.8-0.2,1.5-0.3,2.3-0.3v0.6c-0.9-0.1-1.8,0.1-2.6,0.4c-0.7,0.3-1.3,0.8-1.8,1.4c-0.5,0.6-0.8,1.3-1.1,2c-0.2,0.8-0.4,1.6-0.4,2.4
	v8.4L402.7,172.9L402.7,172.9z"/>
<path class="st21" d="M410.8,158v3.7h0.1c0.1-0.6,0.3-1.1,0.6-1.6c0.3-0.5,0.6-0.9,1.1-1.3c0.4-0.4,0.9-0.7,1.4-0.9
	c0.5-0.2,1.1-0.3,1.6-0.3c1-0.1,2.1,0.2,2.9,0.9c0.8,0.7,1.3,1.6,1.5,2.6h0.1c0.3-1,0.9-1.9,1.7-2.5c0.9-0.7,1.9-1,3-1
	c0.8,0,1.5,0.1,2.3,0.4c0.6,0.2,1.1,0.6,1.5,1.1c0.4,0.5,0.6,1.1,0.8,1.7c0.2,0.7,0.2,1.5,0.2,2.2v9.8H429v-9.8c0-0.7-0.1-1.3-0.2-2
	c-0.1-0.6-0.3-1.1-0.7-1.5c-0.3-0.4-0.8-0.8-1.3-1c-0.6-0.3-1.3-0.4-2-0.4c-1.3,0-2.6,0.6-3.4,1.6c-0.4,0.5-0.7,1.1-0.9,1.7
	c-0.2,0.6-0.3,1.3-0.3,2v9.4h-0.6v-9.6c0-0.7,0-1.3-0.2-2c-0.1-0.6-0.3-1.1-0.6-1.6c-0.3-0.5-0.7-0.9-1.2-1.1
	c-0.6-0.3-1.3-0.4-2-0.4c-0.7,0-1.4,0.2-2,0.5c-0.6,0.3-1.1,0.8-1.5,1.4c-0.4,0.6-0.8,1.3-1,2c-0.2,0.8-0.3,1.6-0.3,2.4v8.4h-0.6
	V158H410.8L410.8,158z"/>
<path class="st21" d="M433.2,160.6c0.2-0.6,0.6-1.1,1.1-1.6c0.5-0.4,1.1-0.8,1.7-1c0.8-0.3,1.6-0.4,2.4-0.4c0.6,0,1.3,0.1,1.9,0.2
	c0.6,0.1,1.1,0.4,1.5,0.7c0.5,0.4,0.8,0.8,1.1,1.3c0.3,0.6,0.4,1.3,0.4,2v9.5c0,0.2,0,0.5,0.2,0.6c0.1,0.1,0.3,0.2,0.5,0.3
	c0.2,0.1,0.4,0.1,0.6,0.1h0.6v0.6h-0.9c-0.4,0-0.8-0.1-1.1-0.3c-0.4-0.3-0.5-0.7-0.5-1.1v-1.9h-0.1c-0.2,0.5-0.4,1-0.7,1.4
	c-0.4,0.5-0.8,0.9-1.3,1.2c-0.5,0.4-1.1,0.6-1.8,0.8c-0.7,0.2-1.4,0.3-2.1,0.3c-1.3,0.1-2.6-0.3-3.6-1c-0.9-0.7-1.4-1.8-1.4-3
	c0-0.8,0.1-1.5,0.5-2.2c0.3-0.5,0.7-1,1.2-1.3c0.5-0.3,1.1-0.6,1.6-0.7c0.6-0.1,1.2-0.2,1.9-0.3l2.6-0.2c0.6,0,1.2-0.1,1.8-0.3
	c0.4-0.1,0.7-0.3,1-0.7c0.2-0.4,0.4-0.8,0.3-1.3c0-0.5,0-0.9-0.1-1.4c-0.1-0.5-0.3-0.9-0.6-1.3c-0.3-0.4-0.8-0.8-1.3-1
	c-0.7-0.3-1.5-0.4-2.4-0.4c-1.3-0.1-2.6,0.3-3.6,1.1c-0.9,0.8-1.4,2-1.5,3.2h-0.6C432.8,162,432.9,161.3,433.2,160.6z M442.8,164.1
	c-0.2,0.3-0.5,0.5-0.9,0.6c-0.5,0.2-0.9,0.3-1.4,0.3c-0.6,0.1-1.1,0.1-1.7,0.1c-0.6,0-1.2,0-1.8,0.1c-0.6,0-1.1,0.1-1.7,0.2
	c-0.5,0.1-1,0.3-1.5,0.6c-0.4,0.3-0.8,0.7-1,1.2c-0.3,0.6-0.4,1.3-0.4,1.9c0,0.4,0.1,0.9,0.2,1.3c0.2,0.4,0.4,0.8,0.7,1.1
	c0.4,0.3,0.9,0.6,1.4,0.8c0.6,0.2,1.3,0.3,2,0.3c0.9,0,1.8-0.2,2.6-0.5c0.7-0.3,1.4-0.7,1.9-1.3c0.5-0.5,0.9-1.2,1.2-1.8
	c0.3-0.7,0.4-1.4,0.4-2.1L442.8,164.1L442.8,164.1L442.8,164.1z"/>
<path class="st21" d="M448.4,170c0,0.4,0,0.9,0.2,1.3c0.1,0.3,0.3,0.5,0.5,0.7c0.2,0.2,0.4,0.2,0.6,0.3c0.2,0,0.5,0,0.7,0h0.8
	c0.2,0,0.3,0,0.5-0.1v0.6l-0.5,0.1c-0.2,0-0.5,0-0.9,0c-0.6,0-1.2-0.2-1.7-0.6c-0.5-0.6-0.8-1.4-0.7-2.2v-11.5H445V158h2.7v-4.7h0.6
	v4.7h3.4v0.6h-3.4L448.4,170L448.4,170z"/>
<path class="st21" d="M453.8,155.1v-2.9h0.6v2.9H453.8z M453.8,172.9V158h0.6v14.9L453.8,172.9L453.8,172.9z"/>
<path class="st21" d="M457.2,162.5c0.3-0.9,0.7-1.7,1.3-2.5c0.6-0.7,1.3-1.3,2.1-1.7c0.9-0.4,1.9-0.7,2.9-0.6c1,0,2,0.2,2.9,0.6
	c0.8,0.4,1.5,1,2.1,1.7c0.6,0.7,1,1.6,1.3,2.5c0.6,1.9,0.6,4,0,5.9c-0.3,0.9-0.7,1.7-1.3,2.5c-0.6,0.7-1.3,1.3-2.1,1.7
	c-0.9,0.4-1.9,0.7-2.9,0.6c-1,0-2-0.2-2.9-0.6c-0.8-0.4-1.5-1-2.1-1.7c-0.6-0.7-1-1.6-1.3-2.5C456.6,166.5,456.6,164.4,457.2,162.5z
	 M457.7,168.2c0.2,0.8,0.6,1.6,1.2,2.3c0.5,0.7,1.2,1.2,1.9,1.6c0.8,0.4,1.7,0.6,2.6,0.6c0.9,0,1.8-0.2,2.6-0.6
	c0.8-0.4,1.4-0.9,1.9-1.6c0.5-0.7,0.9-1.5,1.2-2.3c0.3-0.9,0.4-1.8,0.4-2.7c0-0.9-0.1-1.8-0.4-2.7c-0.2-0.8-0.6-1.6-1.2-2.3
	c-0.5-0.7-1.2-1.2-1.9-1.6c-0.8-0.4-1.7-0.6-2.6-0.6c-0.9,0-1.8,0.2-2.6,0.6c-0.7,0.4-1.4,0.9-1.9,1.6c-0.5,0.7-0.9,1.5-1.2,2.3
	c-0.3,0.9-0.4,1.8-0.4,2.7C457.3,166.4,457.4,167.3,457.7,168.2L457.7,168.2z"/>
<path class="st21" d="M473.1,158v3.7h0.1c0.1-0.6,0.3-1.1,0.6-1.6c0.6-1,1.6-1.8,2.7-2.1c0.6-0.2,1.3-0.3,2-0.3
	c0.7,0,1.4,0.1,2.1,0.4c0.6,0.2,1.2,0.6,1.7,1c0.5,0.5,0.9,1,1.1,1.7c0.3,0.7,0.4,1.5,0.4,2.3v9.9h-0.6v-9.8c0-0.8-0.1-1.5-0.4-2.2
	c-0.2-0.6-0.6-1.1-1-1.5c-0.4-0.4-0.9-0.7-1.5-0.9c-0.6-0.2-1.2-0.3-1.8-0.3c-0.8,0-1.6,0.2-2.4,0.5c-0.7,0.3-1.2,0.8-1.7,1.4
	c-0.5,0.6-0.8,1.3-1,2c-0.2,0.8-0.4,1.6-0.4,2.4v8.4h-0.6V158H473.1L473.1,158z"/>
<path class="st22" d="M251.6,185.6c0-0.7,0.1-1.4,0.3-2c0.2-0.6,0.5-1.1,0.9-1.6c0.4-0.5,0.9-0.8,1.4-1.1c1.2-0.5,2.6-0.5,3.9,0
	c0.5,0.3,1,0.6,1.4,1.1c0.4,0.5,0.7,1,0.9,1.6c0.4,1.3,0.4,2.7,0,3.9c-0.2,0.6-0.5,1.1-0.9,1.6c-0.4,0.5-0.9,0.8-1.4,1.1
	c-1.2,0.5-2.6,0.5-3.9,0c-0.5-0.3-1-0.6-1.4-1.1c-0.4-0.5-0.7-1-0.9-1.6C251.6,186.9,251.5,186.3,251.6,185.6z M251.8,185.6
	c0,0.7,0.1,1.3,0.3,1.9c0.2,0.6,0.5,1.1,0.8,1.5c0.4,0.4,0.8,0.8,1.3,1c1.1,0.5,2.4,0.5,3.5,0c0.5-0.2,1-0.6,1.3-1
	c0.4-0.5,0.7-1,0.8-1.5c0.4-1.3,0.4-2.6,0-3.9c-0.2-0.6-0.5-1.1-0.8-1.5c-0.4-0.4-0.8-0.8-1.3-1c-1.1-0.5-2.4-0.5-3.5,0
	c-0.5,0.2-1,0.6-1.3,1c-0.4,0.5-0.7,1-0.8,1.5C251.9,184.3,251.8,185,251.8,185.6L251.8,185.6z"/>
<path class="st22" d="M267.1,189.2c-0.1,0.3-0.4,0.6-0.6,0.8c-0.3,0.2-0.6,0.4-0.9,0.5c-0.4,0.1-0.7,0.2-1.1,0.2
	c-0.5,0-0.9-0.1-1.3-0.3c-0.4-0.2-0.7-0.4-1-0.8c-0.3-0.3-0.5-0.7-0.6-1.1c-0.1-0.4-0.2-0.9-0.2-1.4c0-0.5,0.1-1,0.2-1.5
	c0.1-0.4,0.3-0.9,0.6-1.2c0.3-0.4,0.6-0.6,1-0.8c0.5-0.2,1-0.3,1.5-0.3c0.3,0,0.6,0.1,0.9,0.1c0.3,0.1,0.6,0.2,0.8,0.4
	c0.2,0.2,0.4,0.4,0.6,0.7c0.2,0.3,0.3,0.6,0.3,1H267c0-0.3-0.1-0.6-0.3-0.9c-0.1-0.2-0.3-0.5-0.5-0.6c-0.2-0.2-0.5-0.3-0.7-0.4
	c-0.3-0.1-0.5-0.1-0.8-0.1c-0.5,0-1,0.1-1.4,0.3c-0.4,0.2-0.7,0.5-0.9,0.8c-0.2,0.3-0.4,0.7-0.5,1.1c-0.1,0.4-0.2,0.8-0.2,1.3
	c0,0.4,0.1,0.8,0.2,1.2c0.1,0.4,0.3,0.7,0.5,1c0.2,0.3,0.5,0.5,0.9,0.7c0.4,0.2,0.8,0.3,1.2,0.3c0.3,0,0.7,0,1-0.2
	c0.9-0.3,1.6-1.1,1.6-2.1h0.3C267.3,188.5,267.2,188.8,267.1,189.2z"/>
<path class="st22" d="M269.3,189.1c0,0.2,0,0.4,0.1,0.6c0,0.1,0.1,0.2,0.2,0.3c0.1,0.1,0.2,0.1,0.3,0.1h0.3h0.4c0.1,0,0.2,0,0.2,0
	v0.3h-0.2h-0.4c-0.3,0-0.6-0.1-0.8-0.3c-0.2-0.3-0.4-0.6-0.3-1v-5.4h-1.3v-0.3h1.3v-2.2h0.3v2.2h1.6v0.3h-1.6L269.3,189.1
	L269.3,189.1z"/>
<path class="st22" d="M271.7,185.6c0.1-0.4,0.3-0.8,0.6-1.2c0.3-0.3,0.6-0.6,1-0.8c0.9-0.4,1.9-0.4,2.7,0c0.4,0.2,0.7,0.5,1,0.8
	c0.3,0.3,0.5,0.7,0.6,1.2c0.3,0.9,0.3,1.9,0,2.8c-0.1,0.4-0.3,0.8-0.6,1.2c-0.6,0.7-1.4,1.1-2.4,1.1c-0.5,0-0.9-0.1-1.4-0.3
	c-0.4-0.2-0.7-0.5-1-0.8c-0.3-0.3-0.5-0.7-0.6-1.2C271.4,187.5,271.4,186.5,271.7,185.6z M271.9,188.3c0.1,0.4,0.3,0.8,0.5,1.1
	c0.2,0.3,0.6,0.6,0.9,0.8c0.8,0.4,1.7,0.4,2.5,0c0.4-0.2,0.7-0.4,0.9-0.8c0.3-0.3,0.4-0.7,0.6-1.1c0.2-0.8,0.2-1.7,0-2.6
	c-0.1-0.4-0.3-0.8-0.6-1.1c-0.2-0.3-0.6-0.6-0.9-0.8c-0.8-0.4-1.7-0.4-2.5,0c-0.4,0.2-0.7,0.4-0.9,0.8c-0.3,0.3-0.4,0.7-0.5,1.1
	C271.7,186.6,271.7,187.4,271.9,188.3L271.9,188.3z"/>
<path class="st22" d="M279.2,185.4c0.3-1.3,1.5-2.2,2.8-2.1c0.4,0,0.9,0.1,1.3,0.3c0.4,0.2,0.7,0.5,0.9,0.8c0.3,0.4,0.5,0.7,0.6,1.2
	c0.3,0.9,0.3,1.9,0,2.9c-0.1,0.4-0.3,0.8-0.6,1.1c-0.3,0.3-0.6,0.6-0.9,0.8c-1,0.5-2.2,0.3-3.1-0.3c-0.5-0.4-0.8-0.9-1-1.5l0,0v2
	H279v-9.8h0.3L279.2,185.4L279.2,185.4L279.2,185.4z M279.4,188.3c0.1,0.4,0.3,0.8,0.5,1.1c0.2,0.3,0.5,0.6,0.9,0.7
	c0.4,0.2,0.8,0.3,1.2,0.3c0.4,0,0.8-0.1,1.2-0.3c0.3-0.2,0.6-0.4,0.9-0.7c0.2-0.3,0.4-0.7,0.5-1.1c0.1-0.4,0.2-0.8,0.2-1.3
	c0-0.4-0.1-0.8-0.2-1.2c-0.1-0.4-0.3-0.8-0.5-1.1c-0.2-0.3-0.5-0.6-0.8-0.8c-0.4-0.2-0.8-0.3-1.2-0.3c-0.8,0-1.5,0.3-2.1,0.9
	c-0.6,0.7-0.8,1.6-0.8,2.5C279.2,187.5,279.3,187.9,279.4,188.3L279.4,188.3z"/>
<path class="st22" d="M286.3,188.4c0.1,0.4,0.3,0.7,0.5,1.1c0.2,0.3,0.5,0.5,0.9,0.7c0.4,0.2,0.8,0.3,1.3,0.3c0.7,0,1.3-0.2,1.8-0.6
	c0.5-0.4,0.8-1.1,0.9-1.7h0.3c-0.1,0.7-0.4,1.4-1,1.9c-0.6,0.5-1.3,0.7-2,0.7c-0.5,0-1-0.1-1.4-0.3c-0.4-0.2-0.7-0.4-1-0.8
	c-0.3-0.4-0.4-0.7-0.6-1.2c-0.1-0.5-0.2-1-0.2-1.5c0-0.5,0.1-1.1,0.3-1.6c0.2-0.4,0.4-0.8,0.7-1.1c0.5-0.6,1.3-1,2.1-1
	c0.5,0,1,0.1,1.4,0.3c0.4,0.2,0.7,0.5,1,0.8c0.3,0.4,0.4,0.8,0.6,1.2c0.1,0.5,0.2,0.9,0.1,1.4h-5.9
	C286.1,187.5,286.2,187.9,286.3,188.4z M291.6,185.5c-0.1-0.4-0.3-0.7-0.5-1c-0.2-0.3-0.5-0.5-0.9-0.7c-0.4-0.2-0.8-0.3-1.2-0.3
	c-0.4,0-0.7,0.1-1.1,0.2c-0.3,0.1-0.6,0.4-0.9,0.6c-0.3,0.3-0.5,0.6-0.6,1c-0.2,0.4-0.3,0.9-0.3,1.3h5.6
	C291.7,186.4,291.7,186,291.6,185.5L291.6,185.5z"/>
<path class="st22" d="M293.1,190.5v-7h0.3v1.7l0,0c0.1-0.3,0.2-0.5,0.3-0.7c0.1-0.2,0.3-0.4,0.6-0.6c0.2-0.2,0.5-0.3,0.8-0.4
	c0.4-0.1,0.7-0.2,1.1-0.1v0.3c-0.4,0-0.9,0-1.3,0.2c-0.3,0.1-0.6,0.4-0.9,0.7c-0.2,0.3-0.4,0.6-0.5,1c-0.1,0.4-0.2,0.7-0.2,1.1v4
	L293.1,190.5L293.1,190.5z"/>
<path class="st22" d="M303.7,181.6c-0.3,0.4-0.7,0.7-1.1,1c-0.4,0.3-0.9,0.5-1.4,0.6v-0.3c0.3-0.1,0.5-0.2,0.8-0.3
	c0.2-0.1,0.4-0.2,0.6-0.4c0.2-0.1,0.4-0.3,0.5-0.5c0.2-0.2,0.4-0.4,0.5-0.6h0.3v9.3h-0.3L303.7,181.6L303.7,181.6L303.7,181.6z"/>
<path class="st22" d="M310.8,186.7v0.3h-2.4v-0.3L310.8,186.7L310.8,186.7z"/>
<path class="st22" d="M318.9,190.5h-6.3c0-0.4,0.1-0.7,0.3-1.1c0.2-0.3,0.4-0.6,0.7-0.9c0.3-0.3,0.6-0.6,1-0.8l1-0.7
	c0.4-0.2,0.7-0.5,1-0.8c0.3-0.2,0.6-0.5,0.9-0.8c0.3-0.3,0.5-0.6,0.6-0.9c0.3-0.6,0.3-1.4,0-2c-0.1-0.3-0.3-0.5-0.5-0.7
	c-0.2-0.2-0.5-0.3-0.8-0.4c-0.3-0.1-0.7-0.1-1-0.1c-0.4,0-0.8,0.1-1.2,0.2c-0.3,0.1-0.6,0.3-0.8,0.6c-0.2,0.3-0.4,0.6-0.5,0.9
	c-0.1,0.4-0.2,0.8-0.1,1.2h-0.3c0-0.9,0.2-1.7,0.8-2.4c0.6-0.6,1.4-0.9,2.2-0.8c0.4,0,0.8,0.1,1.1,0.2c0.3,0.1,0.6,0.3,0.9,0.5
	c0.3,0.2,0.5,0.5,0.6,0.8c0.4,0.8,0.3,1.7-0.2,2.5c-0.3,0.4-0.6,0.8-1,1.2c-0.4,0.4-0.9,0.7-1.4,1c-0.5,0.3-0.9,0.7-1.4,1
	c-0.4,0.3-0.8,0.6-1.1,1c-0.3,0.3-0.5,0.7-0.5,1.1h6L318.9,190.5L318.9,190.5z"/>
<path class="st22" d="M330.3,190.5H324c0-0.4,0.1-0.7,0.3-1.1c0.2-0.3,0.4-0.6,0.7-0.9c0.3-0.3,0.6-0.6,1-0.8l1-0.7
	c0.4-0.2,0.7-0.5,1-0.8c0.3-0.2,0.6-0.5,0.9-0.8c0.3-0.3,0.5-0.6,0.6-0.9c0.3-0.6,0.3-1.4,0-2c-0.1-0.3-0.3-0.5-0.5-0.7
	c-0.2-0.2-0.5-0.3-0.8-0.4c-0.3-0.1-0.7-0.1-1-0.1c-0.4,0-0.8,0.1-1.2,0.2c-0.3,0.1-0.6,0.3-0.9,0.6c-0.2,0.3-0.4,0.6-0.5,0.9
	c-0.1,0.4-0.2,0.8-0.1,1.2h-0.3c0-0.9,0.2-1.7,0.8-2.4c0.6-0.6,1.4-0.9,2.2-0.8c0.4,0,0.8,0.1,1.1,0.2c0.3,0.1,0.6,0.3,0.9,0.5
	c0.3,0.2,0.5,0.5,0.6,0.8c0.4,0.8,0.3,1.7-0.2,2.5c-0.3,0.4-0.6,0.8-1,1.2c-0.4,0.4-0.9,0.7-1.4,1c-0.5,0.3-0.9,0.7-1.4,1
	c-0.4,0.3-0.8,0.6-1.1,1c-0.3,0.3-0.5,0.7-0.5,1.1h6L330.3,190.5L330.3,190.5z"/>
<path class="st22" d="M338,187.6c-0.1,0.5-0.3,1.1-0.6,1.5c-0.3,0.4-0.6,0.8-1.1,1.1c-1.1,0.6-2.3,0.6-3.4,0
	c-0.4-0.3-0.8-0.6-1.1-1.1c-0.3-0.5-0.5-1-0.6-1.5c-0.2-1.1-0.2-2.3,0-3.5c0.1-0.5,0.3-1.1,0.6-1.5c0.3-0.5,0.6-0.8,1.1-1.1
	c1-0.6,2.3-0.6,3.4,0c0.4,0.3,0.8,0.7,1.1,1.1c0.3,0.5,0.5,1,0.6,1.5C338.2,185.3,338.2,186.5,338,187.6z M337.8,184.3
	c-0.1-0.5-0.3-1-0.5-1.5c-0.2-0.4-0.6-0.8-1-1.1c-1-0.6-2.2-0.6-3.2,0c-0.4,0.3-0.8,0.6-1,1.1c-0.3,0.5-0.4,0.9-0.5,1.5
	c-0.2,1-0.2,2.1,0,3.2c0.1,0.5,0.3,1,0.5,1.5c0.2,0.4,0.6,0.8,1,1.1c1,0.6,2.2,0.6,3.2,0c0.4-0.3,0.8-0.6,1-1.1
	c0.3-0.5,0.4-0.9,0.5-1.5C337.9,186.4,337.9,185.3,337.8,184.3L337.8,184.3z"/>
<path class="st22" d="M342.5,181.6c-0.3,0.4-0.7,0.7-1.1,1c-0.4,0.3-0.9,0.5-1.4,0.6v-0.3c0.3-0.1,0.5-0.2,0.8-0.3
	c0.2-0.1,0.4-0.2,0.6-0.4c0.2-0.1,0.4-0.3,0.5-0.5c0.2-0.2,0.4-0.4,0.5-0.6h0.3v9.3h-0.3L342.5,181.6L342.5,181.6L342.5,181.6z"/>
<path class="st22" d="M352.2,182.4c-0.3-0.5-0.8-0.9-1.4-1c-0.2-0.1-0.5-0.1-0.8-0.1c-0.6,0-1.2,0.2-1.7,0.5c-0.4,0.3-0.8,0.8-1,1.3
	c-0.2,0.5-0.4,1.1-0.5,1.7c-0.1,0.6-0.1,1.1-0.1,1.7l0,0c0.1-0.3,0.2-0.6,0.4-0.9c0.2-0.3,0.4-0.5,0.7-0.7c0.3-0.2,0.6-0.4,0.9-0.5
	c0.3-0.1,0.7-0.2,1.1-0.2c0.4,0,0.8,0.1,1.2,0.2c0.8,0.3,1.4,0.9,1.8,1.7c0.2,0.4,0.3,0.9,0.3,1.3c0,0.9-0.4,1.7-1,2.3
	c-0.3,0.3-0.6,0.5-1,0.7c-0.4,0.2-0.8,0.2-1.2,0.2c-0.3,0-0.6,0-0.9-0.1c-0.5-0.1-1-0.4-1.4-0.8c-0.2-0.2-0.3-0.3-0.4-0.5
	c-0.3-0.4-0.4-0.9-0.5-1.4c-0.1-0.6-0.1-1.1-0.1-1.7c0-0.6,0.1-1.2,0.2-1.8c0.1-0.6,0.3-1.1,0.6-1.6c0.3-0.5,0.6-0.9,1.1-1.2
	c0.5-0.3,1.1-0.5,1.7-0.5c0.4,0,0.7,0.1,1.1,0.2c0.3,0.1,0.6,0.3,0.9,0.5c0.2,0.2,0.4,0.5,0.6,0.8c0.2,0.3,0.3,0.6,0.3,0.9h-0.3
	C352.6,183,352.4,182.7,352.2,182.4z M352.6,186.3c-0.3-0.7-0.9-1.3-1.6-1.6c-0.7-0.3-1.6-0.3-2.3,0c-0.7,0.3-1.3,0.9-1.6,1.6
	c-0.3,0.7-0.3,1.6,0,2.3c0.3,0.7,0.9,1.3,1.6,1.6c0.7,0.3,1.6,0.3,2.3,0c0.7-0.3,1.3-0.9,1.6-1.6C352.9,187.9,352.9,187,352.6,186.3
	L352.6,186.3z"/>
<path class="st23" d="M358.8,179.8h0.3v13.6h-0.3V179.8z"/>
<path class="st24" d="M370,183.5l-2.6,7H367l-2.9-7h0.3l2.7,6.8l0,0l2.5-6.8H370z"/>
<path class="st24" d="M370.4,185.6c0.1-0.4,0.3-0.8,0.6-1.2c0.3-0.3,0.6-0.6,1-0.8c0.4-0.2,0.9-0.3,1.4-0.3c0.5,0,0.9,0.1,1.4,0.3
	c0.4,0.2,0.7,0.5,1,0.8c0.3,0.3,0.5,0.7,0.6,1.2c0.3,0.9,0.3,1.9,0,2.8c-0.1,0.4-0.3,0.8-0.6,1.2c-0.6,0.7-1.4,1.1-2.4,1.1
	c-0.5,0-0.9-0.1-1.4-0.3c-0.4-0.2-0.7-0.5-1-0.8c-0.3-0.3-0.5-0.7-0.6-1.2C370.2,187.5,370.2,186.5,370.4,185.6z M370.7,188.3
	c0.1,0.4,0.3,0.8,0.5,1.1c0.2,0.3,0.6,0.6,0.9,0.8c0.8,0.4,1.7,0.4,2.5,0c0.4-0.2,0.7-0.4,0.9-0.8c0.3-0.3,0.4-0.7,0.5-1.1
	c0.2-0.8,0.2-1.7,0-2.6c-0.1-0.4-0.3-0.8-0.5-1.1c-0.2-0.3-0.6-0.6-0.9-0.8c-0.8-0.4-1.7-0.4-2.5,0c-0.4,0.2-0.7,0.4-0.9,0.8
	c-0.3,0.3-0.4,0.7-0.5,1.1C370.4,186.6,370.4,187.4,370.7,188.3z"/>
<path class="st24" d="M378,180.8v9.8h-0.3v-9.8H378z"/>
<path class="st24" d="M384.5,190.5v-1.7l0,0c-0.1,0.5-0.4,1-0.8,1.4c-0.5,0.4-1.1,0.6-1.7,0.5c-0.3,0-0.7-0.1-1-0.2
	c-0.3-0.1-0.6-0.3-0.8-0.5c-0.2-0.2-0.4-0.5-0.5-0.8c-0.1-0.3-0.2-0.7-0.2-1.1v-4.7h0.3v4.6c0,0.3,0.1,0.7,0.2,1
	c0.1,0.3,0.3,0.5,0.5,0.7c0.2,0.2,0.4,0.3,0.7,0.4c0.3,0.1,0.6,0.1,0.9,0.1c0.4,0,0.8-0.1,1.1-0.2c0.3-0.2,0.6-0.4,0.8-0.6
	c0.2-0.3,0.4-0.6,0.5-0.9c0.1-0.4,0.2-0.7,0.2-1.1v-4h0.3v7h-0.3L384.5,190.5z"/>
<path class="st24" d="M386.6,183.5v1.7l0,0c0.1-0.3,0.2-0.5,0.3-0.8c0.3-0.5,0.7-0.8,1.3-1c0.3-0.1,0.6-0.1,0.9-0.1
	c0.3,0,0.7,0.1,1,0.2c0.3,0.1,0.6,0.3,0.8,0.5c0.2,0.2,0.4,0.5,0.5,0.8c0.1,0.3,0.2,0.7,0.2,1.1v4.7h-0.3v-4.6c0-0.3-0.1-0.7-0.2-1
	c-0.2-0.5-0.7-0.9-1.2-1.1c-0.3-0.1-0.6-0.1-0.9-0.1c-0.4,0-0.8,0.1-1.1,0.2c-0.3,0.2-0.6,0.4-0.8,0.6c-0.2,0.3-0.4,0.6-0.5,0.9
	c-0.1,0.4-0.2,0.7-0.2,1.1v4h-0.3v-7h0.3L386.6,183.5z"/>
<path class="st24" d="M393.9,189.1c0,0.2,0,0.4,0.1,0.6c0,0.1,0.1,0.2,0.2,0.3c0.1,0.1,0.2,0.1,0.3,0.1h0.3h0.4c0.1,0,0.2,0,0.2,0
	v0.3h-0.2h-0.4c-0.3,0-0.6-0.1-0.8-0.3c-0.2-0.3-0.4-0.6-0.3-1v-5.4h-1.3v-0.3h1.3v-2.2h0.3v2.2h1.6v0.3h-1.6L393.9,189.1
	L393.9,189.1z"/>
<path class="st24" d="M396.4,188.4c0.1,0.4,0.3,0.7,0.5,1.1c0.2,0.3,0.5,0.5,0.9,0.7c0.4,0.2,0.8,0.3,1.3,0.3c0.7,0,1.3-0.2,1.8-0.6
	c0.5-0.4,0.8-1.1,0.9-1.7h0.3c-0.1,0.7-0.4,1.4-1,1.9c-0.6,0.5-1.3,0.7-2,0.7c-0.5,0-1-0.1-1.4-0.3c-0.4-0.2-0.7-0.4-1-0.8
	c-0.3-0.4-0.4-0.7-0.5-1.2c-0.1-0.5-0.2-1-0.2-1.4c0-0.5,0.1-1.1,0.3-1.6c0.2-0.4,0.4-0.8,0.7-1.1c0.5-0.6,1.3-1,2.1-1
	c0.5,0,1,0.1,1.4,0.3c0.4,0.2,0.7,0.5,1,0.8c0.3,0.4,0.4,0.8,0.5,1.2c0.1,0.5,0.2,0.9,0.1,1.4h-5.9
	C396.3,187.5,396.3,187.9,396.4,188.4z M401.7,185.5c-0.1-0.4-0.3-0.7-0.5-1c-0.2-0.3-0.5-0.5-0.9-0.7c-0.4-0.2-0.8-0.3-1.2-0.3
	c-0.4,0-0.7,0.1-1.1,0.2c-0.3,0.1-0.6,0.4-0.9,0.6c-0.3,0.3-0.5,0.6-0.6,1c-0.2,0.4-0.3,0.9-0.3,1.3h5.6
	C401.9,186.4,401.8,186,401.7,185.5L401.7,185.5z"/>
<path class="st24" d="M403.3,188.4c0.1,0.4,0.3,0.7,0.5,1.1c0.2,0.3,0.5,0.5,0.9,0.7c0.4,0.2,0.8,0.3,1.3,0.3c0.7,0,1.3-0.2,1.8-0.6
	c0.5-0.4,0.8-1.1,0.9-1.7h0.3c-0.1,0.7-0.4,1.4-1,1.9c-0.6,0.5-1.3,0.7-2,0.7c-0.5,0-1-0.1-1.4-0.3c-0.4-0.2-0.7-0.4-1-0.8
	c-0.3-0.4-0.4-0.7-0.5-1.2c-0.1-0.5-0.2-1-0.2-1.5c0-0.5,0.1-1.1,0.3-1.6c0.2-0.4,0.4-0.8,0.7-1.1c0.5-0.6,1.3-1,2.1-1
	c0.5,0,1,0.1,1.4,0.3c0.4,0.2,0.7,0.5,1,0.8c0.3,0.4,0.4,0.8,0.5,1.2c0.1,0.5,0.2,0.9,0.1,1.4h-5.9
	C403.1,187.5,403.2,187.9,403.3,188.4z M408.5,185.5c-0.1-0.4-0.3-0.7-0.5-1c-0.2-0.3-0.5-0.5-0.9-0.7c-0.4-0.2-0.8-0.3-1.2-0.3
	c-0.4,0-0.7,0.1-1.1,0.2c-0.3,0.1-0.6,0.4-0.9,0.6c-0.3,0.3-0.5,0.6-0.6,1c-0.2,0.4-0.3,0.9-0.3,1.3h5.6
	C408.7,186.4,408.7,186,408.5,185.5L408.5,185.5z"/>
<path class="st24" d="M410.1,190.5v-7h0.3v1.7l0,0c0.1-0.3,0.2-0.5,0.3-0.7c0.1-0.2,0.3-0.4,0.5-0.6c0.2-0.2,0.5-0.3,0.8-0.4
	c0.4-0.1,0.7-0.2,1.1-0.1v0.3c-0.4,0-0.9,0-1.3,0.2c-0.3,0.1-0.6,0.4-0.9,0.7c-0.2,0.3-0.4,0.6-0.5,1c-0.1,0.4-0.2,0.7-0.2,1.1v4
	L410.1,190.5L410.1,190.5z"/>
<path class="st24" d="M421.3,183l-1.5,3.9c-0.1,0.2-0.1,0.4-0.2,0.6c0,0.2,0,0.3,0,0.5c0,0.1,0.1,0.2,0.2,0.3
	c0.1,0.1,0.3,0.1,0.4,0.1c0.3,0,0.6-0.1,0.9-0.3c0.3-0.2,0.6-0.5,0.9-0.8c0.3-0.3,0.5-0.7,0.6-1.1c0.2-0.4,0.3-0.9,0.3-1.4
	c0-0.5-0.1-1.1-0.3-1.6c-0.2-0.5-0.5-0.9-0.9-1.2c-0.4-0.3-0.8-0.6-1.3-0.8c-0.5-0.2-1.1-0.3-1.6-0.3c-0.6,0-1.3,0.1-1.9,0.4
	c-1.7,0.7-2.8,2.4-2.8,4.3c0,0.7,0.1,1.4,0.4,2c0.5,1.1,1.4,2,2.5,2.4c0.6,0.2,1.2,0.3,1.8,0.3c0.4,0,0.8-0.1,1.2-0.2
	c0.4-0.1,0.7-0.3,1.1-0.5c0.3-0.2,0.7-0.4,0.9-0.7c0.3-0.3,0.5-0.5,0.7-0.9h0.3c-0.2,0.4-0.5,0.7-0.8,1c-0.6,0.6-1.4,1-2.2,1.3
	c-0.4,0.1-0.8,0.2-1.3,0.2c-0.6,0-1.2-0.1-1.8-0.3c-1.2-0.4-2.2-1.3-2.7-2.4c-0.3-0.7-0.4-1.5-0.4-2.2c0-0.7,0.1-1.4,0.4-2
	c0.3-0.6,0.6-1.1,1.1-1.6c0.5-0.4,1-0.8,1.6-1c0.6-0.2,1.3-0.4,1.9-0.4c0.6,0,1.2,0.1,1.7,0.3c0.5,0.2,1,0.5,1.4,0.8
	c0.4,0.4,0.8,0.8,1,1.3c0.2,0.5,0.4,1.1,0.4,1.7c0,0.5-0.1,1-0.3,1.5c-0.2,0.4-0.4,0.8-0.7,1.2c-0.3,0.3-0.6,0.6-1,0.8
	c-0.3,0.2-0.6,0.3-1,0.3c-0.2,0-0.5-0.1-0.6-0.2c-0.2-0.2-0.2-0.4-0.2-0.6l0,0c-0.2,0.3-0.5,0.6-0.9,0.7c-0.3,0.1-0.7,0.2-1,0.2
	c-0.3,0-0.5-0.1-0.7-0.2c-0.2-0.1-0.4-0.2-0.6-0.4c-0.2-0.2-0.3-0.4-0.4-0.6c-0.1-0.2-0.1-0.5-0.1-0.8c0-0.5,0.1-0.9,0.2-1.3
	c0.2-0.5,0.4-0.9,0.7-1.3c0.3-0.4,0.6-0.7,1-1c0.4-0.2,0.9-0.4,1.3-0.4c0.4,0,0.8,0.1,1.2,0.3c0.3,0.2,0.6,0.5,0.7,0.9l0,0l0.3-0.8
	H421.3L421.3,183z M420.2,183.7c-0.1-0.2-0.3-0.3-0.4-0.4c-0.2-0.1-0.3-0.2-0.5-0.2c-0.2,0-0.4-0.1-0.5-0.1c-0.4,0-0.8,0.1-1.2,0.4
	c-0.4,0.2-0.7,0.6-0.9,0.9c-0.3,0.4-0.5,0.8-0.6,1.2c-0.1,0.4-0.2,0.8-0.2,1.2c0,0.2,0,0.5,0.1,0.7c0.1,0.2,0.2,0.4,0.3,0.5
	c0.1,0.2,0.3,0.3,0.5,0.4c0.2,0.1,0.4,0.1,0.7,0.1c0.2,0,0.4,0,0.6-0.1c0.2,0,0.4-0.1,0.6-0.3c0.2-0.1,0.4-0.3,0.5-0.5
	c0.2-0.2,0.3-0.5,0.4-0.8l1-2.5C420.5,184.1,420.4,183.9,420.2,183.7z"/>
<path class="st24" d="M425.3,189.1c0,0.2,0,0.4,0.1,0.6c0,0.1,0.1,0.2,0.2,0.3c0.1,0.1,0.2,0.1,0.3,0.1h0.3h0.4c0.1,0,0.2,0,0.2,0
	v0.3h-0.2h-0.4c-0.3,0-0.6-0.1-0.8-0.3c-0.2-0.3-0.4-0.6-0.3-1v-5.4h-1.3v-0.3h1.2v-2.2h0.3v2.2h1.6v0.3h-1.6V189.1L425.3,189.1z"/>
<path class="st24" d="M428,184.7c0.1-0.3,0.3-0.5,0.5-0.8c0.2-0.2,0.5-0.4,0.8-0.5c0.4-0.1,0.8-0.2,1.1-0.2c0.3,0,0.6,0,0.9,0.1
	c0.3,0.1,0.5,0.2,0.7,0.3c0.2,0.2,0.4,0.4,0.5,0.6c0.1,0.3,0.2,0.7,0.2,1v4.5c0,0.1,0,0.2,0.1,0.3c0.1,0.1,0.1,0.1,0.2,0.1
	c0.1,0,0.2,0,0.3,0h0.3v0.3h-0.4c-0.2,0-0.4,0-0.5-0.1c-0.2-0.1-0.2-0.3-0.2-0.5v-0.9l0,0c-0.1,0.2-0.2,0.5-0.4,0.7
	c-0.2,0.2-0.4,0.4-0.6,0.6c-0.3,0.2-0.5,0.3-0.8,0.4c-0.3,0.1-0.7,0.1-1,0.1c-0.6,0-1.2-0.1-1.7-0.5c-0.4-0.3-0.7-0.9-0.6-1.4
	c0-0.4,0.1-0.7,0.2-1.1c0.1-0.2,0.3-0.5,0.5-0.6c0.2-0.2,0.5-0.3,0.8-0.3c0.3-0.1,0.6-0.1,0.9-0.1l1.2-0.1c0.3,0,0.6-0.1,0.9-0.1
	c0.2,0,0.4-0.2,0.5-0.3c0.1-0.2,0.2-0.4,0.2-0.6c0-0.2,0-0.4,0-0.7c0-0.2-0.1-0.4-0.3-0.6c-0.2-0.2-0.4-0.4-0.6-0.5
	c-0.4-0.1-0.7-0.2-1.1-0.2c-0.6,0-1.2,0.2-1.7,0.5c-0.4,0.4-0.7,0.9-0.7,1.5h-0.3C427.8,185.4,427.9,185,428,184.7z M432.5,186.4
	c-0.1,0.1-0.3,0.2-0.4,0.3c-0.2,0.1-0.4,0.1-0.7,0.2c-0.3,0-0.5,0.1-0.8,0.1h-0.8c-0.3,0-0.5,0-0.8,0.1c-0.2,0-0.5,0.1-0.7,0.3
	c-0.2,0.1-0.4,0.3-0.5,0.6c-0.1,0.3-0.2,0.6-0.2,0.9c0,0.2,0,0.4,0.1,0.6c0.1,0.2,0.2,0.4,0.4,0.5c0.2,0.2,0.4,0.3,0.6,0.4
	c0.3,0.1,0.7,0.2,1,0.1c0.4,0,0.8-0.1,1.2-0.2c0.3-0.1,0.6-0.3,0.9-0.6c0.2-0.2,0.4-0.5,0.5-0.9c0.1-0.3,0.2-0.7,0.2-1L432.5,186.4
	L432.5,186.4L432.5,186.4z"/>
<path class="st24" d="M434.7,183.5v1.7l0,0c0.1-0.3,0.2-0.5,0.3-0.8c0.1-0.2,0.3-0.4,0.5-0.6c0.2-0.2,0.4-0.3,0.7-0.4
	c0.2-0.1,0.5-0.1,0.8-0.1c0.5,0,1,0.1,1.4,0.4c0.4,0.3,0.6,0.7,0.7,1.2l0,0c0.1-0.5,0.4-0.9,0.8-1.2c0.4-0.3,0.9-0.5,1.4-0.4
	c0.4,0,0.7,0.1,1.1,0.2c0.3,0.1,0.5,0.3,0.7,0.5c0.2,0.2,0.3,0.5,0.4,0.8c0.1,0.3,0.1,0.7,0.1,1v4.6h-0.3v-4.6c0-0.3,0-0.6-0.1-0.9
	c0-0.3-0.2-0.5-0.3-0.7c-0.2-0.2-0.4-0.4-0.6-0.5c-0.3-0.1-0.6-0.2-1-0.2c-0.6,0-1.2,0.3-1.6,0.7c-0.2,0.2-0.3,0.5-0.4,0.8
	c-0.1,0.3-0.2,0.6-0.1,0.9v4.5h-0.3V186c0-0.3,0-0.6-0.1-0.9c0-0.3-0.1-0.5-0.3-0.8c-0.1-0.2-0.3-0.4-0.6-0.5
	c-0.3-0.1-0.7-0.2-1-0.2c-0.3,0-0.7,0.1-0.9,0.2c-0.3,0.2-0.5,0.4-0.7,0.6c-0.2,0.3-0.4,0.6-0.5,0.9c-0.1,0.4-0.2,0.7-0.2,1.1v4
	h-0.3v-7L434.7,183.5L434.7,183.5z"/>
<path class="st24" d="M450.1,190.5v-1.7l0,0c-0.1,0.5-0.4,1-0.8,1.4c-0.5,0.4-1.1,0.6-1.7,0.5c-0.3,0-0.7-0.1-1-0.2
	c-0.3-0.1-0.6-0.3-0.8-0.5c-0.2-0.2-0.4-0.5-0.5-0.8c-0.1-0.3-0.2-0.7-0.2-1.1v-4.7h0.3v4.6c0,0.3,0.1,0.7,0.2,1
	c0.1,0.3,0.3,0.5,0.5,0.7c0.2,0.2,0.4,0.3,0.7,0.4c0.3,0.1,0.6,0.1,0.9,0.1c0.4,0,0.8-0.1,1.1-0.2c0.3-0.2,0.6-0.4,0.8-0.6
	c0.2-0.3,0.4-0.6,0.5-0.9c0.1-0.4,0.2-0.7,0.2-1.1v-4h0.3v7h-0.3V190.5z"/>
<path class="st24" d="M452.1,180.8v4.5l0,0c0.1-0.3,0.2-0.5,0.3-0.8c0.3-0.5,0.7-0.8,1.3-1c0.3-0.1,0.6-0.1,0.9-0.1
	c0.3,0,0.7,0.1,1,0.2c0.3,0.1,0.6,0.3,0.8,0.5c0.2,0.2,0.4,0.5,0.5,0.8c0.1,0.3,0.2,0.7,0.2,1.1v4.7h-0.3v-4.6c0-0.3-0.1-0.7-0.2-1
	c-0.2-0.5-0.7-0.9-1.2-1.1c-0.3-0.1-0.6-0.1-0.9-0.1c-0.4,0-0.8,0.1-1.1,0.2c-0.3,0.2-0.6,0.4-0.8,0.6c-0.2,0.3-0.4,0.6-0.5,0.9
	c-0.1,0.4-0.2,0.7-0.2,1.1v4h-0.3v-9.8L452.1,180.8L452.1,180.8z"/>
<path class="st24" d="M458.9,184.7c0.1-0.3,0.3-0.5,0.5-0.8c0.2-0.2,0.5-0.4,0.8-0.5c0.4-0.1,0.8-0.2,1.1-0.2c0.3,0,0.6,0,0.9,0.1
	c0.3,0.1,0.5,0.2,0.7,0.3c0.2,0.2,0.4,0.4,0.5,0.6c0.1,0.3,0.2,0.7,0.2,1v4.5c0,0.1,0,0.2,0.1,0.3c0.1,0.1,0.1,0.1,0.2,0.1
	c0.1,0,0.2,0,0.3,0h0.3v0.3h-0.4c-0.2,0-0.4,0-0.5-0.1c-0.2-0.1-0.2-0.3-0.2-0.5v-0.9l0,0c-0.1,0.2-0.2,0.5-0.4,0.7
	c-0.2,0.2-0.4,0.4-0.6,0.6c-0.3,0.2-0.5,0.3-0.8,0.4c-0.3,0.1-0.7,0.1-1,0.1c-0.6,0-1.2-0.1-1.7-0.5c-0.4-0.3-0.7-0.9-0.6-1.4
	c0-0.4,0.1-0.7,0.2-1.1c0.1-0.2,0.3-0.5,0.5-0.6c0.2-0.2,0.5-0.3,0.8-0.3c0.3-0.1,0.6-0.1,0.9-0.1l1.2-0.1c0.3,0,0.6-0.1,0.9-0.1
	c0.2,0,0.4-0.2,0.5-0.3c0.1-0.2,0.2-0.4,0.2-0.6c0-0.2,0-0.4,0-0.7c0-0.2-0.1-0.4-0.3-0.6c-0.2-0.2-0.4-0.4-0.6-0.5
	c-0.4-0.1-0.7-0.2-1.1-0.2c-0.6,0-1.2,0.2-1.7,0.5c-0.4,0.4-0.7,0.9-0.7,1.5h-0.3C458.7,185.4,458.8,185,458.9,184.7z M463.4,186.4
	c-0.1,0.1-0.3,0.2-0.4,0.3c-0.2,0.1-0.4,0.1-0.7,0.2c-0.3,0-0.5,0.1-0.8,0.1h-0.8c-0.3,0-0.5,0-0.8,0.1c-0.2,0-0.5,0.1-0.7,0.3
	c-0.2,0.1-0.4,0.3-0.5,0.6c-0.1,0.3-0.2,0.6-0.2,0.9c0,0.2,0,0.4,0.1,0.6c0.1,0.2,0.2,0.4,0.4,0.5c0.2,0.2,0.4,0.3,0.6,0.4
	c0.3,0.1,0.7,0.2,1,0.1c0.4,0,0.8-0.1,1.2-0.2c0.3-0.1,0.6-0.3,0.9-0.6c0.2-0.2,0.4-0.5,0.5-0.9c0.1-0.3,0.2-0.7,0.2-1L463.4,186.4
	L463.4,186.4L463.4,186.4z"/>
<path class="st24" d="M470.7,189.2c-0.1,0.3-0.4,0.6-0.6,0.8c-0.3,0.2-0.6,0.4-0.9,0.5c-0.4,0.1-0.7,0.2-1.1,0.2
	c-0.5,0-0.9-0.1-1.3-0.3c-0.4-0.2-0.7-0.4-1-0.8c-0.3-0.3-0.5-0.7-0.6-1.1c-0.1-0.4-0.2-0.9-0.2-1.4c0-0.5,0.1-1,0.2-1.5
	c0.1-0.4,0.3-0.9,0.6-1.2c0.3-0.4,0.6-0.6,1-0.8c0.5-0.2,1-0.3,1.5-0.3c0.3,0,0.6,0.1,0.9,0.1c0.3,0.1,0.6,0.2,0.8,0.4
	c0.2,0.2,0.4,0.4,0.6,0.7c0.2,0.3,0.3,0.6,0.3,1h-0.3c0-0.3-0.1-0.6-0.3-0.9c-0.1-0.2-0.3-0.5-0.5-0.6c-0.2-0.2-0.5-0.3-0.7-0.4
	c-0.3-0.1-0.5-0.1-0.8-0.1c-0.5,0-1,0.1-1.4,0.3c-0.4,0.2-0.7,0.5-0.9,0.8c-0.2,0.4-0.4,0.7-0.5,1.1c-0.1,0.4-0.2,0.8-0.2,1.3
	c0,0.4,0.1,0.8,0.2,1.2c0.1,0.4,0.3,0.7,0.5,1c0.2,0.3,0.5,0.5,0.9,0.7c0.4,0.2,0.8,0.3,1.2,0.3c0.3,0,0.7,0,1-0.2
	c0.9-0.3,1.6-1.1,1.6-2.1h0.3C470.9,188.5,470.8,188.8,470.7,189.2z"/>
<path class="st24" d="M472.4,190.5h-0.3v-9.8h0.3v6.8l4.9-4h0.4l-3.2,2.7l3.5,4.4h-0.4l-3.3-4.1l-1.8,1.5L472.4,190.5L472.4,190.5z"
	/>
<path class="st24" d="M479.2,190.5v-1.3h0.3v1.3H479.2z"/>
<path class="st24" d="M487.4,189.2c-0.1,0.3-0.4,0.6-0.6,0.8c-0.3,0.2-0.6,0.4-0.9,0.5c-0.4,0.1-0.7,0.2-1.1,0.2
	c-0.5,0-0.9-0.1-1.3-0.3c-0.4-0.2-0.7-0.4-1-0.8c-0.3-0.3-0.5-0.7-0.6-1.1c-0.1-0.4-0.2-0.9-0.2-1.4c0-0.5,0.1-1,0.2-1.5
	c0.1-0.4,0.3-0.9,0.6-1.2c0.3-0.4,0.6-0.6,1-0.8c0.5-0.2,1-0.3,1.5-0.3c0.3,0,0.6,0.1,0.9,0.1c0.3,0.1,0.6,0.2,0.8,0.4
	c0.2,0.2,0.4,0.4,0.6,0.7c0.2,0.3,0.3,0.6,0.3,1h-0.3c0-0.3-0.1-0.6-0.3-0.9c-0.1-0.2-0.3-0.5-0.5-0.6c-0.2-0.2-0.5-0.3-0.7-0.4
	c-0.3-0.1-0.5-0.1-0.8-0.1c-0.5,0-1,0.1-1.4,0.3c-0.4,0.2-0.7,0.5-0.9,0.8c-0.2,0.4-0.4,0.7-0.5,1.1c-0.1,0.4-0.2,0.8-0.2,1.3
	c0,0.4,0.1,0.8,0.2,1.2c0.1,0.4,0.3,0.7,0.5,1c0.2,0.3,0.5,0.5,0.9,0.7c0.4,0.2,0.8,0.3,1.2,0.3c0.3,0,0.7,0,1-0.2
	c0.9-0.3,1.6-1.1,1.6-2.1h0.3C487.6,188.5,487.5,188.8,487.4,189.2z"/>
<path class="st24" d="M488.6,185.6c0.1-0.4,0.3-0.8,0.6-1.2c0.3-0.3,0.6-0.6,1-0.8c0.4-0.2,0.9-0.3,1.4-0.3c0.5,0,0.9,0.1,1.4,0.3
	c0.4,0.2,0.7,0.5,1,0.8c0.3,0.3,0.5,0.7,0.6,1.2c0.3,0.9,0.3,1.9,0,2.8c-0.1,0.4-0.3,0.8-0.6,1.2c-0.6,0.7-1.4,1.1-2.4,1.1
	c-0.5,0-0.9-0.1-1.4-0.3c-0.4-0.2-0.7-0.5-1-0.8c-0.3-0.3-0.5-0.7-0.6-1.2C488.4,187.5,488.4,186.5,488.6,185.6z M488.9,188.3
	c0.1,0.4,0.3,0.8,0.5,1.1c0.2,0.3,0.6,0.6,0.9,0.8c0.8,0.4,1.7,0.4,2.5,0c0.4-0.2,0.7-0.4,0.9-0.8c0.3-0.3,0.4-0.7,0.5-1.1
	c0.2-0.8,0.2-1.7,0-2.6c-0.1-0.4-0.3-0.8-0.5-1.1c-0.2-0.3-0.6-0.6-0.9-0.8c-0.8-0.4-1.7-0.4-2.5,0c-0.4,0.2-0.7,0.4-0.9,0.8
	c-0.3,0.3-0.4,0.7-0.5,1.1C488.7,186.6,488.7,187.4,488.9,188.3L488.9,188.3z"/>
<path class="st24" d="M496.2,183.5v1.7l0,0c0.1-0.3,0.2-0.5,0.3-0.8c0.1-0.2,0.3-0.4,0.5-0.6c0.2-0.2,0.4-0.3,0.7-0.4
	c0.2-0.1,0.5-0.1,0.8-0.1c0.5,0,1,0.1,1.4,0.4c0.4,0.3,0.6,0.7,0.7,1.2l0,0c0.1-0.5,0.4-0.9,0.8-1.2c0.4-0.3,0.9-0.5,1.4-0.4
	c0.4,0,0.7,0.1,1.1,0.2c0.3,0.1,0.5,0.3,0.7,0.5c0.2,0.2,0.3,0.5,0.4,0.8c0.1,0.3,0.1,0.7,0.1,1v4.6h-0.3v-4.6c0-0.3,0-0.6-0.1-0.9
	c0-0.3-0.2-0.5-0.3-0.7c-0.2-0.2-0.4-0.4-0.6-0.5c-0.3-0.1-0.6-0.2-1-0.2c-0.6,0-1.2,0.3-1.6,0.7c-0.2,0.2-0.3,0.5-0.4,0.8
	c-0.1,0.3-0.2,0.6-0.1,0.9v4.5h-0.3V186c0-0.3,0-0.6-0.1-0.9c0-0.3-0.1-0.5-0.3-0.8c-0.1-0.2-0.3-0.4-0.6-0.5
	c-0.3-0.1-0.7-0.2-1-0.2c-0.3,0-0.7,0.1-0.9,0.2c-0.3,0.2-0.5,0.4-0.7,0.6c-0.2,0.3-0.4,0.6-0.5,0.9c-0.1,0.4-0.2,0.7-0.2,1.1v4
	h-0.3v-7L496.2,183.5L496.2,183.5z"/>
</svg>