<?xml version="1.0" encoding="utf-8"?>
<!-- Generator: Adobe Illustrator 23.0.1, SVG Export Plug-In . SVG Version: 6.00 Build 0)  -->
<svg version="1.1" id="Layer_1" xmlns="http://www.w3.org/2000/svg" xmlns:xlink="http://www.w3.org/1999/xlink" x="0px" y="0px"
	 viewBox="0 0 101 19" style="enable-background:new 0 0 101 19;" xml:space="preserve">
<style type="text/css">
	.st0{fill:#3A3A3A;}
</style>
<path class="st0" d="M6.4,10V7.9c0,0,0,0,0,0H4.6c0,0,0,0,0,0V4.2c0,0,0,0,0,0H2.2c0,0,0,0,0,0v3.7c0,0,0,0,0,0H0.5c0,0,0,0,0,0V10
	c0,0,0,0,0,0h1.7c0,0,0,0,0,0V18c0,0,0,0,0,0h2.3c0,0,0,0,0,0V10c0,0,0,0,0,0L6.4,10C6.4,10,6.4,10,6.4,10z M16.5,9
	c-1-1.2-2.3-1.4-3-1.4c-2.7,0-4.9,2-4.9,5.3c0,2.8,1.8,5.4,4.9,5.4c0.7,0,2-0.2,3-1.4V18h2.3c0,0,0,0,0,0V7.9c0,0,0,0,0,0h-2.3V9z
	 M13.8,9.7c1.5,0,2.9,1.1,2.9,3.3c0,2.1-1.4,3.2-2.9,3.2c-1.7,0-2.8-1.5-2.8-3.2C11,11.1,12.1,9.7,13.8,9.7z M23.1,18h2.3
	c0,0,0,0,0,0v-5.2c0-0.9,0-1.7,0.5-2.3c0.3-0.4,0.8-0.7,1.4-0.7c0.8,0,1.2,0.5,1.3,0.9c0.1,0.2,0.2,0.7,0.2,1.8V18c0,0,0,0,0,0h2.3
	c0,0,0,0,0,0v-5.2c0-0.9,0-1.7,0.5-2.3C32,10,32.5,9.7,33,9.7c0.8,0,1.2,0.5,1.3,0.9c0.1,0.2,0.2,0.7,0.2,1.8V18c0,0,0,0,0,0h2.3
	c0,0,0,0,0,0v-6.2c0-1.5-0.3-2.2-0.5-2.5c-0.6-1-1.7-1.6-2.9-1.6c-0.9,0-2.2,0.3-3,1.5c0,0,0,0,0,0c-0.6-1-1.6-1.5-2.6-1.5
	c-0.8,0-1.7,0.2-2.5,1.2V7.9h-2.3c0,0,0,0,0,0L23.1,18C23.1,18,23.1,18,23.1,18z M41.1,7.9C41.1,7.9,41.1,7.9,41.1,7.9l0,5.9
	c0,1.3,0.1,2.4,1.1,3.3c0.9,0.9,2.2,1.2,3.2,1.2c1.1,0,2.4-0.3,3.3-1.2c0.9-0.9,1.1-2,1.1-3.3V7.9c0,0,0,0,0,0h-2.3c0,0,0,0,0,0v5.8
	c0,0.6,0,1.3-0.4,1.8c-0.3,0.4-0.9,0.7-1.5,0.7c-0.7,0-1.2-0.3-1.5-0.7c-0.4-0.5-0.4-1.2-0.4-1.8V7.9c0,0,0,0,0,0H41.1z M54,18h2.3
	c0,0,0,0,0,0v-4.9c0-1.3,0.1-2.1,0.5-2.5c0.3-0.5,0.9-0.8,1.7-0.8c0.6,0,1.1,0.2,1.3,0.5c0.5,0.5,0.5,1.2,0.5,1.8v6c0,0,0,0,0,0h2.3
	c0,0,0,0,0,0v-6.2c0-0.7,0-1.9-0.6-2.8c-0.3-0.4-1.1-1.4-3-1.4c-0.6,0-1.7,0.1-2.7,1.1c0,0,0,0,0,0V0.5c0,0,0,0,0,0H54c0,0,0,0,0,0
	L54,18C53.9,18,54,18,54,18z M74.2,9c-1-1.2-2.3-1.4-3-1.4c-2.7,0-4.9,2-4.9,5.3c0,2.8,1.8,5.4,4.9,5.4c0.7,0,2-0.2,3-1.4V18h2.3
	c0,0,0,0,0,0V7.9c0,0,0,0,0,0h-2.3V9z M71.5,9.7c1.5,0,2.9,1.1,2.9,3.3c0,2.1-1.4,3.2-2.9,3.2c-1.7,0-2.8-1.5-2.8-3.2
	C68.7,11.1,69.8,9.7,71.5,9.7z M88.6,8.3C88.6,8.3,88.6,8.3,88.6,8.3c-1.1-0.6-2-0.7-2.8-0.7c-2,0-3.3,0.7-4.1,1.5
	c-0.7,0.7-1.5,2-1.5,3.9c0,1.8,0.7,3,1.4,3.8c1,1,2.2,1.5,3.8,1.5c1.6,0,2.5-0.4,3.1-0.8c0,0,0,0,0,0v-2.6c0,0,0,0,0,0
	c-0.8,0.9-1.9,1.3-2.9,1.3c-0.9,0-1.6-0.3-2.1-0.8c-0.5-0.5-0.9-1.2-0.9-2.4c0-1.1,0.4-1.9,0.9-2.3s1.1-0.9,2.2-0.9
	c0.7,0,1.8,0.2,2.8,1.2c0,0,0,0,0,0V8.3z M92,0.5V18c0,0,0,0,0,0h2.3c0,0,0,0,0,0v-3.9l0.4-0.4l3.3,4.3c0,0,0,0,0,0h3c0,0,0,0,0,0
	l-4.6-5.9c0,0,0,0,0,0l4.3-4.2c0,0,0,0,0,0h-3.1c0,0,0,0,0,0l-3.3,3.4c0,0,0,0,0,0V0.5c0,0,0,0,0,0L92,0.5C92,0.5,92,0.5,92,0.5z"/>
</svg>
