<?xml version="1.0" encoding="utf-8"?>
<!-- Generator: Adobe Illustrator 23.0.6, SVG Export Plug-In . SVG Version: 6.00 Build 0)  -->
<svg version="1.1" id="Layer_1" xmlns="http://www.w3.org/2000/svg" xmlns:xlink="http://www.w3.org/1999/xlink" x="0px" y="0px"
	 viewBox="0 0 308 308" style="enable-background:new 0 0 308 308;" xml:space="preserve">
<path d="M203.1,154c0,27.1-21.9,49-49,49s-49-21.9-49-49s21.9-49,49-49S203.1,126.9,203.1,154z"/>
<path d="M268.7,67.3c-2.4-6.4-6.1-12.2-11-16.9c-4.7-4.9-10.5-8.6-16.9-11c-5.2-2-13-4.4-27.3-5.1c-15.5-0.7-20.2-0.9-59.4-0.9
	c-39.3,0-43.9,0.1-59.4,0.9c-14.3,0.7-22.1,3.1-27.3,5.1c-6.4,2.4-12.2,6.1-16.9,11c-4.9,4.7-8.6,10.5-11,16.9
	c-2,5.2-4.4,13-5.1,27.3c-0.7,15.5-0.9,20.1-0.9,59.4c0,39.2,0.2,43.9,0.9,59.4c0.7,14.3,3,22.1,5.1,27.3c2.4,6.4,6.1,12.2,11,16.9
	c4.7,4.9,10.5,8.6,16.9,11c5.2,2,13,4.4,27.3,5.1c15.5,0.7,20.1,0.9,59.4,0.9s43.9-0.1,59.4-0.9c14.3-0.7,22.1-3,27.3-5.1
	c12.8-4.9,23-15.1,27.9-27.9c2-5.2,4.4-13,5.1-27.3c0.7-15.5,0.9-20.2,0.9-59.4c0-39.3-0.1-43.9-0.9-59.4
	C273.1,80.3,270.7,72.5,268.7,67.3z M154.1,229.5c-41.7,0-75.5-33.8-75.5-75.5s33.8-75.5,75.5-75.5s75.5,33.8,75.5,75.5
	S195.8,229.5,154.1,229.5z M232.6,93.2c-9.7,0-17.6-7.9-17.6-17.6S222.9,58,232.6,58s17.6,7.9,17.6,17.6S242.3,93.2,232.6,93.2z"/>
<path d="M154.1,308c-39.8,0-45.1-0.2-60.9-0.9c-15-0.7-26.7-2.9-37.9-7.3c-10.6-4-20.5-10.4-28.5-18.5c-8.1-8-14.5-17.8-18.6-28.5
	c-4.3-11.2-6.6-22.9-7.3-37.8C0.2,199.2,0,194,0,154.1s0.2-45.2,0.9-60.9c0.7-15,2.9-26.7,7.3-37.9c4-10.6,10.4-20.5,18.5-28.5
	c8-8.1,17.8-14.5,28.5-18.6C66.4,3.9,78.1,1.6,93,0.9C108.9,0.2,114.1,0,153.9,0s45.1,0.2,60.9,0.9c15,0.7,26.7,2.9,37.9,7.3
	c10.6,4,20.5,10.4,28.5,18.5c8.1,8,14.5,17.9,18.6,28.5c4.3,11.2,6.6,22.8,7.3,37.8c0.7,15.8,0.9,21,0.9,60.9s-0.2,45.2-0.9,60.9
	c-0.7,15-2.9,26.7-7.3,37.9c-8.3,21.5-25.5,38.7-47,47c-11.2,4.4-22.9,6.6-37.9,7.3C199.2,307.8,193.9,308,154.1,308z M154.1,14
	c-39.5,0-44.7,0.2-60.3,0.9c-13.4,0.6-23.7,2.6-33.5,6.4c-8.9,3.3-17,8.6-23.6,15.3l-0.1,0.1c-6.7,6.6-12,14.7-15.3,23.5
	c-3.8,9.8-5.8,20.1-6.4,33.5C14.2,109.2,14,114.4,14,154s0.2,44.8,0.9,60.3c0.6,13.4,2.6,23.7,6.4,33.5c3.3,8.9,8.6,17,15.3,23.6
	l0.1,0.1c6.6,6.7,14.7,12,23.5,15.3c9.8,3.8,20.1,5.8,33.5,6.4c15.6,0.7,20.8,0.9,60.3,0.9s44.7-0.2,60.3-0.9
	c13.4-0.6,23.7-2.6,33.5-6.4c17.9-6.9,32.1-21.1,39-39c3.8-9.8,5.8-20.1,6.4-33.5l0,0c0.7-15.5,0.9-20.7,0.9-60.3
	s-0.2-44.8-0.9-60.3c-0.6-13.4-2.6-23.7-6.4-33.5c-3.3-8.9-8.6-17-15.3-23.6l-0.1-0.1c-6.6-6.7-14.7-12-23.5-15.3
	c-9.8-3.8-20.2-5.8-33.5-6.4C198.8,14.2,193.6,14,154.1,14z"/>
</svg>
