<svg width="9" height="9" viewBox="0 0 9 9" fill="none" xmlns="http://www.w3.org/2000/svg">
<path d="M2.01294 8.4375H0.146647V3.17988H2.01294V8.4375ZM1.07879 2.4627C0.482138 2.4627 -0.00201416 2.03027 -0.00201416 1.5082C-0.00201416 0.986133 0.482138 0.5625 1.07879 0.5625C1.67544 0.5625 2.15959 0.986133 2.15959 1.5082C2.15959 2.03027 1.67544 2.4627 1.07879 2.4627ZM8.99798 8.4375H7.13571V5.87812C7.13571 5.26816 7.12164 4.48594 6.1654 4.48594C5.19508 4.48594 5.04642 5.14863 5.04642 5.83418V8.4375H3.18214V3.17988H4.97209V3.89707H4.99821C5.24731 3.48398 5.85602 3.04805 6.76406 3.04805C8.65245 3.04805 8.99999 4.13613 8.99999 5.54941V8.4375H8.99798Z" fill="#999999"/>
</svg>
