<svg width="130" height="130" viewBox="0 0 130 130" fill="none" xmlns="http://www.w3.org/2000/svg">
<path d="M38.625 62.25V102.875C38.625 102.875 38.625 103.5 38 103.5H23.625C23.625 103.5 23 103.5 23 102.875V62.25C23 62.25 23 61.625 22.375 61.625H13.625C13.625 61.625 13 61.625 13 61V49.125C13 49.125 13 48.5 13.625 48.5H22.375C22.375 48.5 23 48.5 23 47.875V30.375C23 30.375 23 29.75 23.625 29.75H38C38 29.75 38.625 29.75 38.625 30.375V47.875C38.625 47.875 38.625 48.5 39.25 48.5H48.625C48.625 48.5 49.25 48.5 49.25 49.125V61C49.25 61 49.25 61.625 48.625 61.625L38.625 62.25C38.625 61.625 38.625 61.625 38.625 62.25Z" fill="#3E688C"/>
<path d="M59.2502 11H73.6252C73.6252 11 74.2502 11 74.2502 11.625V54.125C74.8752 54.125 74.8752 54.75 74.8752 54.75C78.6252 49.75 84.8752 47.25 91.1252 47.25C97.3752 47.25 103 49.125 107.375 54.125C110.5 58.5 112.375 64.125 111.75 69.75V103.5C111.75 103.5 111.75 104.125 111.125 104.125H96.7502C96.7502 104.125 96.1252 104.125 96.1252 103.5V73.5C96.1252 70.375 96.1252 65.375 93.0002 62.875C91.1252 61 88.6252 59.75 86.1252 59.75C82.3752 59.75 78.6252 61.625 76.7502 64.75C74.8752 67.875 74.2502 71.625 74.2502 74.75V102.25C74.2502 102.25 74.2502 102.875 73.6252 102.875H59.2502C59.2502 102.875 58.6252 102.875 58.6252 102.25V11.625C59.2502 11 59.2502 11 59.2502 11Z" fill="#F27B93"/>
</svg>
