<svg width="9" height="10" viewBox="0 0 9 10" fill="none" xmlns="http://www.w3.org/2000/svg">
<path d="M8.07486 2.96331C8.08058 3.05214 8.08058 3.14099 8.08058 3.22981C8.08058 5.93919 6.22463 9.06103 2.83249 9.06103C1.78743 9.06103 0.816627 8.72472 0 8.14099C0.148482 8.16001 0.291234 8.16636 0.44543 8.16636C1.30772 8.16636 2.10152 7.84276 2.7354 7.29073C1.92449 7.27169 1.24492 6.68159 1.01078 5.8694C1.125 5.88843 1.23921 5.90112 1.35914 5.90112C1.52474 5.90112 1.69037 5.87573 1.84454 5.83134C0.999369 5.64097 0.365467 4.8161 0.365467 3.81991V3.79454C0.611016 3.94683 0.896572 4.042 1.19921 4.05468C0.702387 3.68665 0.376893 3.05849 0.376893 2.34782C0.376893 1.96712 0.468246 1.61813 0.628154 1.31356C1.53615 2.55722 2.90101 3.36939 4.43145 3.45823C4.4029 3.30595 4.38576 3.14733 4.38576 2.9887C4.38576 1.85925 5.2081 0.939209 6.2303 0.939209C6.76139 0.939209 7.24108 1.18667 7.57802 1.58642C7.99488 1.49759 8.39463 1.32626 8.7487 1.09149C8.61163 1.56739 8.32039 1.96714 7.93779 2.22093C8.30899 2.17653 8.66876 2.06229 8.99996 1.90368C8.74874 2.30976 8.43463 2.67142 8.07486 2.96331Z" fill="#999999"/>
</svg>
