<svg width="37" height="19" viewBox="0 0 37 19" fill="none" xmlns="http://www.w3.org/2000/svg">
<path d="M34.5979 7.79002L36.8747 4.4433C36.9483 4.33549 36.9912 4.20944 36.9988 4.07882C37.0064 3.94819 36.9784 3.81796 36.9178 3.70223C36.8572 3.58651 36.7663 3.48969 36.6551 3.42228C36.5438 3.35486 36.4164 3.31941 36.2866 3.31976H29.3565C26.4678 1.33085 21.6628 0.0543213 16.1274 0.0543213C7.08655 0.0543213 0 3.44885 0 7.79002C0 11.2324 4.47297 14.0819 10.8385 15.105V17.0174C10.8385 17.4612 11.0134 17.8868 11.3248 18.2007C11.6361 18.5145 12.0584 18.6908 12.4987 18.6908H19.922C20.3623 18.6908 20.7846 18.5145 21.096 18.2007C21.4073 17.8868 21.5822 17.4612 21.5822 17.0174V15.105C24.7792 14.5695 27.4877 13.5751 29.3803 12.2746H36.2866C36.4164 12.275 36.5438 12.2395 36.6551 12.1721C36.7663 12.1047 36.8572 12.0079 36.9178 11.8922C36.9784 11.7764 37.0064 11.6462 36.9988 11.5156C36.9912 11.3849 36.9483 11.2589 36.8747 11.1511L34.5979 7.79002ZM34.9347 4.75885L33.3599 7.07287H32.1741V7.0394C32.1408 6.86618 32.0964 6.6953 32.0413 6.52783L31.9891 6.3844C31.9385 6.25053 31.8816 6.11666 31.8183 5.98279L31.7567 5.84893C31.6757 5.69472 31.587 5.54473 31.491 5.39951L31.3535 5.20349C31.2776 5.09831 31.2017 4.9979 31.1163 4.8975C31.0309 4.7971 31.0499 4.80188 31.0072 4.75885H34.9347ZM1.423 7.79002C1.423 4.37637 8.1538 1.48863 16.1274 1.48863C21.345 1.48863 26.0599 2.7317 28.6688 4.55327C28.6909 4.57724 28.7146 4.59961 28.7399 4.6202C29.5652 5.21305 30.5329 6.12623 30.7701 7.25933V7.3167C30.8356 7.63202 30.8356 7.95759 30.7701 8.27291V8.33028C30.5281 9.4586 29.5652 10.3718 28.7399 10.9694C28.7163 10.9902 28.6941 11.0125 28.6735 11.0363C26.8283 12.3224 23.9302 13.3217 20.5624 13.795L19.7228 13.9002L19.4714 13.9241L18.5939 14.0006H18.4658C18.1022 14.0261 17.7385 14.0452 17.3749 14.058H17.3322C16.5875 14.0866 15.8428 14.0866 15.0981 14.058H14.9842C14.6269 14.058 14.2711 14.0404 13.917 14.0054H13.8079L12.9968 13.9384L12.5699 13.8954L12.0528 13.8332C5.99084 13.0492 1.423 10.6013 1.423 7.79002ZM20.1402 17.0174C20.1402 17.0808 20.1152 17.1416 20.0708 17.1864C20.0263 17.2313 19.966 17.2565 19.9031 17.2565H12.4987C12.4358 17.2565 12.3755 17.2313 12.331 17.1864C12.2865 17.1416 12.2615 17.0808 12.2615 17.0174V15.3058C12.5778 15.3409 12.894 15.3727 13.2102 15.4014L14.1589 15.4684H14.23C14.8514 15.5018 15.4823 15.5209 16.1274 15.5209C16.4831 15.5209 16.8341 15.5209 17.1804 15.5209H17.2326C18.2334 15.4875 19.2058 15.4205 20.145 15.3058L20.1402 17.0174ZM31.0025 10.8021C31.0452 10.7543 31.0736 10.7064 31.1163 10.6586C31.159 10.6108 31.2728 10.4578 31.3487 10.3574L31.4863 10.1566C31.5823 10.0114 31.6709 9.86142 31.7519 9.70721L31.8136 9.57335C31.8768 9.44267 31.9338 9.3088 31.9844 9.17174L32.0365 9.02831C32.0917 8.86084 32.136 8.68996 32.1693 8.51674V8.48327H33.3552L34.9347 10.8021H31.0025Z" fill="#FF7C93"/>
</svg>
