<svg xmlns="http://www.w3.org/2000/svg" viewBox="0 0 513.25 254.86"><defs><style>.cls-1{fill:#fff;}.cls-2{fill:#606161;}</style></defs><title>Asset 8</title><g id="Layer_2" data-name="Layer 2"><g id="Layer_4" data-name="Layer 4"><path class="cls-1" d="M508.92,127v-2.06h-1.2l-.12-16.62h2.26v-2.87h-2.25v-8h-6.71v1.73H466.37V97.68h-7.92v1.11H327.51V97.22H312.27V95.67h-.45V85h4.26V80h-2.66V75h-2.06V73.22h-.62V66.83H294.18V51.91h2.28V43.6h-2.28V36.8h-2.32c0-26.28-27.44-31.66-27.44-31.66V.54H248.85V5.13s-27.44,5.38-27.44,31.66h-2.33v6.8H216.8v8.31h2.28V66.83H202.52v6.39h-.62V75h-2.05V80h-2.67v5h4.27V95.67H201v1.55H185.75v1.57H54.81V97.68H46.9v1.47H12.37V97.42H5.66v8H3.4v2.87H5.66l-.12,16.62H4.35V127H.71v2.93H4.35V254.31H54.81v-9.5H210.07v9.5h93.12v-9.5H458.45v9.5h50.47V129.93h3.64V127ZM46.85,127h-34V108.38H46.85Zm454,0h-34V108.38h34Z"/><path class="cls-2" d="M95.43,109H78.76v14.89H95.43Zm-15.67,1h6.83v12.89H79.76Zm14.67,12.89H87.59V110h6.84Z"/><path class="cls-2" d="M74.63,123.88V109H58v14.89Zm-1-1H66.79V110h6.84ZM59,110h6.83v12.89H59Z"/><path class="cls-2" d="M137.23,109H120.56v14.89h16.67Zm-15.67,1h6.84v12.89h-6.84Zm14.67,12.89H129.4V110h6.83Z"/><path class="cls-2" d="M116.43,109H99.76v14.89h16.67Zm-15.67,1h6.84v12.89h-6.84Zm14.67,12.89H108.6V110h6.83Z"/><path class="cls-2" d="M179.4,109H162.74v14.89H179.4Zm-15.66,1h6.83v12.89h-6.83Zm14.66,12.89h-6.83V110h6.83Z"/><path class="cls-2" d="M158.6,109H141.94v14.89H158.6Zm-15.66,1h6.83v12.89h-6.83Zm14.66,12.89h-6.83V110h6.83Z"/><path class="cls-2" d="M59,167.1H73.52V143.84h2v-2h-19v2H59Zm13.56-1H60V143.84H72.52Z"/><path class="cls-2" d="M80.4,167.1H95V143.84h2v-2H78v2H80.4Zm13.57-1H81.4V143.84H94Z"/><path class="cls-2" d="M101.84,167.1h14.57V143.84h2v-2h-19v2h2.41Zm13.57-1H102.84V143.84h12.57Z"/><path class="cls-2" d="M123.29,167.1h14.56V143.84h2v-2h-19v2h2.42Zm13.56-1H124.29V143.84h12.56Z"/><path class="cls-2" d="M144.73,167.1h14.56V143.84h2v-2h-19v2h2.42Zm13.56-1H145.73V143.84h12.56Z"/><path class="cls-2" d="M166.17,167.1h14.56V143.84h2v-2h-19v2h2.42Zm13.56-1H167.17V143.84h12.56Z"/><path class="cls-2" d="M59,200.11H73.52V176.85h2v-2h-19v2H59Zm13.56-1H60V176.85H72.52Z"/><path class="cls-2" d="M80.4,200.11H95V176.85h2v-2H78v2H80.4Zm13.57-1H81.4V176.85H94Z"/><path class="cls-2" d="M101.84,200.11h14.57V176.85h2v-2h-19v2h2.41Zm13.57-1H102.84V176.85h12.57Z"/><path class="cls-2" d="M123.29,200.11h14.56V176.85h2v-2h-19v2h2.42Zm13.56-1H124.29V176.85h12.56Z"/><path class="cls-2" d="M144.73,200.11h14.56V176.85h2v-2h-19v2h2.42Zm13.56-1H145.73V176.85h12.56Z"/><path class="cls-2" d="M166.17,200.11h14.56V176.85h2v-2h-19v2h2.42Zm13.56-1H167.17V176.85h12.56Z"/><path class="cls-2" d="M222.13,179.63h1.7V199.1h10.49V179.63h1.4v-1.54H222.13Zm11.42,18.7h-9v-18.7h9Z"/><path class="cls-2" d="M222.13,147.73h1.7V167.2h10.49V147.73h1.4v-1.55H222.13Zm11.42,18.69h-9V147.73h9Z"/><path class="cls-2" d="M434.49,109H417.83v14.89h16.66Zm-15.66,1h6.83v12.89h-6.83Zm14.66,12.89h-6.83V110h6.83Z"/><path class="cls-2" d="M455.29,109H438.63v14.89h16.66Zm-15.66,1h6.83v12.89h-6.83Zm14.66,12.89h-6.83V110h6.83Z"/><path class="cls-2" d="M392.69,109H376v14.89h16.67ZM377,110h6.84v12.89H377Zm14.67,12.89h-6.83V110h6.83Z"/><path class="cls-2" d="M413.49,109H396.82v14.89h16.67Zm-15.67,1h6.84v12.89h-6.84Zm14.67,12.89h-6.83V110h6.83Z"/><path class="cls-2" d="M350.51,109H333.85v14.89h16.66Zm-15.66,1h6.83v12.89h-6.83Zm14.66,12.89h-6.83V110h6.83Z"/><path class="cls-2" d="M371.31,109H354.65v14.89h16.66Zm-15.66,1h6.83v12.89h-6.83Zm14.66,12.89h-6.83V110h6.83Z"/><path class="cls-2" d="M513.25,126.48h-3.64v-2h-1.19V108.81h2.13v-3.87H508.3v-2.53h0v-5.5h-7.71v1.72H467.06V96.91h-8.91v1.37H328.09V96.6H312.84v-.06l.06-1.38h-.39V85.53h4.56v-6h-3V74.45h-2.05V72.71h-.62V66.32H294.88V52.4h2.27V43.09h-2.24V36.26h-2.25c-.26-15.26-11.92-28-27.52-31.48V0h-17V4.77C232.51,8.23,220.85,21,220.59,36.25h-2.25v6.83H216.1V52.4h2.28V66.32H201.82v6.39h-.62v1.74h-2.06v5.07h-2.67v4.85h4.27V95.16h-.39l.07,1.38v.06H185.16v1.68h-130V96.91H46.19v1.72H12.67V96.91H5v5.5H5v2.53H2.7v3.87H4.84v15.62H3.64v2H0v3.94H3.64V254.3h.5v.5H17.35v.06h24v-.06H55.11v-9.49H75.24v0h3v0H98.44v0h3v0h20.19v0h3v0h20.18v0h3v0H168v0h3v0h20.18v0h18v9.51h94.87v-9.51h18v0H342.2v0h3v0H365.4v0h3v0H388.6v0h3v0H411.8v0h3v0H435v0h3v0h20.14v9.49h13.73v.06h24v-.06h13.71V130.42h3.64Zm-5.83-2H501V108.81h6.38Zm1.19,70.46h-7.67v-3.45h7.67Zm-8.67,1v.75H498.6V140.29a2.84,2.84,0,0,0,1.34-.64v50.76h0v1h0v3.45h-.12v1Zm0,7.76h-9.38v-6h9.38Zm1-6h7.67v6h-7.67ZM439,241.31h18.13v3H439Zm-23.2,3v-3H434v3Zm-23.19,0v-3h18.12v3Zm-23.2,0v-3h18.12v3Zm-23.2,0v-3h18.12v3Zm-23.2,0v-3h18.13v3Zm-151,0v-3H190.2v3Zm-23.2,0v-3H167v3Zm-23.2,0v-3H143.8v3Zm-23.2,0v-3h18.13v3Zm-23.2,0v-3H97.41v3ZM4.64,209.43H54.11v3H4.64Zm8.68-4.74H23.69v-8H22.1v-1.09H36.34v1.09H35.2v8H45.46v3.74H13.32Zm0-7h9.37v6H13.32Zm-1,6H4.64v-6h7.68Zm1-8.8v-3.45h0v-1h0V139.65a2.8,2.8,0,0,0,1.33.64v56.39H13.32v-.75h.11v-1ZM4.64,133.7h7.68V137H4.64Zm41.55-7.22h-33V108.81H45.9v1.77h.29v15.9Zm1-15.9h6.92v13.85H47.19Zm280.9-4.2H458.15v20.1H328.54l-.45-18.26Zm-.55,20.1h-25v-2.4H210.68v2.4h-25l.43-17.75H215v8.51l-4.64,2.34v-9.42H193.7v14.89h16.67v-2.79l.13,0h92.25l.14,0v2.79h16.66V110.16H302.89v9.42l-4.65-2.34v-8.51H327.1Zm148.37,41.68v2.17h-.06v25.26h.06v1.09h-5.44V140.34h5.44v2.56h-.06v25.26Zm15.25,0v2.17H476.91v-2.17ZM477,167V144H491.1v23Zm15.19-24.14v-2.56h5.44v56.34h-5.44v-1.09h0V170.33h0v-2.17h0V142.9Zm16.45-.57h-7.67v-2.94h7.67Zm0,21.18h-7.67V160h7.67Zm0-25.16h-7.67V138h7.67Zm-10.51,1h-.73v-3.67h.73a1.84,1.84,0,1,1,0,3.67Zm-4.78-2.91h3.05v2.91h-3.05Zm-1,2.91h-.73a1.84,1.84,0,1,1,0-3.67h.73Zm-1.22,32.11v23H477v-23Zm-32,26.23h7.64v6h-7.64Zm8.64,0h9.26v6h-9.26ZM459.15,187h7.64v3.37h-7.64Zm8.64-5.6V178h1.68v7.85h-1.68v-3.36h1.66V181.4Zm-8.64-42h7.64v2.85h-7.64Zm0,25.15h7.64V168h-7.64ZM469.47,150h-1.68v-2.58h1.68Zm-2.68,0h-7.64v-2.58h7.64Zm-7.64,1.12h7.64V154h-7.64Zm8.64,0h1.68V154h-1.68Zm1.68,4v3.83h-1.68V155.1Zm0,4.94v3.43h-1.68V160Zm0,4.54V168h-1.68v-3.37Zm-10.32,4.49h7.64v3.36h-7.64Zm8.64,0h1.68v3.36h-1.68Zm1.68-22.81h-1.68V143.4h1.68Zm-2.68,0h-7.64V143.4h7.64Zm-7.64,8.84h7.64v3.83h-7.64Zm7.64,4.94v3.43h-7.64V160Zm-7.64,13.51h7.64v3.37h-7.64Zm8.64,0h1.68v3.37h-1.68ZM469.47,187v3.37h-1.68V187Zm-10.32,4.48h7.64v3.37h-7.64Zm8.64,0h1.68v3.37h-1.68Zm1.68,4.49v.71h-1.68V196Zm2.16-59.54h3.05v2.91h-3.05Zm4.78,2.91h-.73v-3.67h.73a1.84,1.84,0,1,1,0,3.67Zm-5.78,0h-.73a1.84,1.84,0,1,1,0-3.67h.73Zm-1.16,1v2h-1.68v-2.85h0A2.78,2.78,0,0,0,469.47,140.3Zm-2.68-2h-7.64V138h7.64ZM459.15,178h7.64v3.37h-7.64Zm7.64,4.49v3.36h-7.64v-3.36ZM459.15,196h7.64v.71h-7.64Zm7.64,8.72v3.74h-7.64v-3.74Zm41.82,15.69H495a12.12,12.12,0,0,0-1.83-3h15.49Zm-13.71,4.69v.18h-3.76v-.05a7.33,7.33,0,0,0-1.08-3.82h4.19A11.05,11.05,0,0,1,494.9,225.07Zm13.71,5H495.9v-3.81h12.71Zm-13.71,0h-3.76v-3.81h3.76Zm-232.69-10,1.92-2.61a11.39,11.39,0,0,1,2.28,2.93h-3.9Zm7.21,5.61v2.68h-.5v-2.68c0-.06,0-.11,0-.17h.51Zm-1.68,0v2.68h-3.48V225.5h3.47C267.73,225.56,267.74,225.61,267.74,225.67Zm-3.48,3.68h3.48v3h-3.48Zm4.66,0h.5v3h-.5Zm1.67,0h3.29v3h-3.29Zm0-1v-2.68c0-.06,0-.11,0-.17h3.28v2.85Zm-1.1-4h-.64a12.44,12.44,0,0,0-.72-3h2.08A12,12,0,0,0,269.49,224.37ZM259.8,215a11.15,11.15,0,0,1,3.1,1.51l-2,2.49a7.73,7.73,0,0,0-1.61-.78Zm7.09,6.43a11.05,11.05,0,0,1,.77,3h-3.44a7.31,7.31,0,0,0-1-3Zm-2.63,12h3.48v3h-3.48Zm4.66,0h.5v3h-.5Zm1.67,0h3.29v3h-3.29Zm0-13H267.7a12.46,12.46,0,0,0-2-3h7A12.21,12.21,0,0,0,270.63,220.38Zm-6.37,16.94h3.48v3h-3.48Zm4.66,0h.5v3h-.5Zm1.67,0h3.29v3h-3.29Zm.08-12.95a11.45,11.45,0,0,1,.78-3h3.48a7.32,7.32,0,0,0-1,3Zm1.25-4a11.44,11.44,0,0,1,2.26-2.91L276,220a4.86,4.86,0,0,0-.38.41Zm4.85-1.07-1.83-2.49A11.11,11.11,0,0,1,278.5,215l.55,3.16A7.41,7.41,0,0,0,276.77,219.31Zm4.85-5.85a12.12,12.12,0,0,0-7.92,2.94h-9.07a12.1,12.1,0,0,0-7.92-2.94h-.17a12.12,12.12,0,0,0-7.92,2.94h-9.07a12.12,12.12,0,0,0-7.92-2.94h-.17a12.1,12.1,0,0,0-7.92,2.94H210.37v-3h92.52v3H289.72a12.14,12.14,0,0,0-7.92-2.94h-.18ZM237.24,220l1.83-2.5a11.44,11.44,0,0,1,2.26,2.91h-3.72C237.49,220.24,237.37,220.1,237.24,220Zm7.09,5.7v2.68h-.49v-2.68c0-.06,0-.11,0-.17h.51C244.34,225.56,244.33,225.61,244.33,225.67Zm-1.68-.17c0,.06,0,.11,0,.17v2.68h-3.29V225.5Zm0,3.85v3h-3.29v-3Zm1.18,0h.49v3h-.49Zm1.67,0H249v3h-3.48Zm-1.11-5h-.63a12.44,12.44,0,0,0-.72-3h2.07A12.93,12.93,0,0,0,244.4,224.37Zm-2.6-3a11.07,11.07,0,0,1,.78,3h-3.25a7.31,7.31,0,0,0-1-3Zm-2.43,12h3.29v3h-3.29Zm4.47,0h.49v3h-.49Zm1.67,0H249v3h-3.48Zm0-5v-2.68c0-.06,0-.11,0-.17H249v2.85Zm4.84-11.89a11.15,11.15,0,0,1,3.1-1.51l.56,3.22a7.73,7.73,0,0,0-1.61.78Zm-4.8,3.92h-2.93a12.21,12.21,0,0,0-2-3h7A12.21,12.21,0,0,0,245.55,220.38Zm-7.24-3.56-1.83,2.49a7.3,7.3,0,0,0-2.28-1.19l.55-3.16A11.11,11.11,0,0,1,238.31,216.82Zm1.06,20.5h3.29v3h-3.29Zm4.47,0h.49v3h-.49Zm1.67,0H249v3h-3.48Zm.08-12.95a11.07,11.07,0,0,1,.78-3H250a7.31,7.31,0,0,0-1,3Zm1.25-4a11.39,11.39,0,0,1,2.28-2.93l1.92,2.61c-.1.11-.2.21-.29.32ZM54.11,225.25H41.38v-.18a11.93,11.93,0,0,0-.59-3.69H54.11Zm-49.47,1H17.35v3.81H4.64Zm13.71,0h3.77v3.81H18.35Zm.65-4.87h4.2a7.33,7.33,0,0,0-1.08,3.82v.05H18.35v-.18A11.05,11.05,0,0,1,19,221.38Zm27.46-16.69h7.65v3.74H46.46Zm-9.12-9.1h.06V170.33h-.06v-2.17h.06V142.9h-.06v-2.56h5.45v56.34H37.34ZM22.1,170.33v-2.17H36.34v2.17Zm14.18,1.12v23H22.16v-23ZM21.1,195.59v1.09H15.65V140.34H21.1v2.56H21v25.26h.06v2.17H21v25.26ZM4.64,155.06h7.68V159H4.64Zm17-15.72h-.74v-3.67h.74a1.84,1.84,0,0,1,0,3.67Zm-4.79-2.91h3.05v2.91H16.88Zm-1,2.91h-.73a1.84,1.84,0,0,1,0-3.67h.73ZM22.16,167V144H36.28v23Zm23.3,15.48v3.36H43.79V178h1.67v3.37H43.8v1.12Zm-1.67-35.15h1.67V150H43.79ZM54.11,154H46.46v-2.92h7.65Zm0-4H46.46v-2.58h7.65Zm-10.32,1.12h1.67V154H43.79Zm0,4h1.67v3.83H43.79Zm0,4.94h1.67v3.43H43.79Zm0,9h1.67v3.36H43.79Zm2.67,0h7.65v3.36H46.46ZM54.11,168H46.46v-3.37h7.65Zm-8.65,0H43.79v-3.37h1.67Zm-1.67,23.53h1.67v3.37H43.79Zm2.67,0h7.65v3.37H46.46Zm7.65-1.11H46.46V187h7.65Zm-8.65,0H43.79V187h1.67Zm-1.67-13.45v-3.37h1.67v3.37Zm2.67-3.37h7.65v3.37H46.46Zm7.65-10.08H46.46V160h7.65Zm-7.65-4.54V155.1h7.65v3.83Zm7.65-16.65H46.46v-2.85h7.65Zm0,1.12v2.86H46.46V143.4Zm-8.65,2.86H43.79V143.4h1.67ZM43.79,196h1.67v.71H43.79Zm2.67,0h7.65v.71H46.46Zm7.65-10.09H46.46v-3.36h7.65Zm-7.65-4.48V178h7.65v3.37Zm7.65-43.09H46.46V138h7.65Zm-8.69,1.12h0v2.85H43.79v-2A2.78,2.78,0,0,0,45.42,139.43Zm-2.07-.09h-.73v-3.67h.73a1.84,1.84,0,1,1,0,3.67Zm-4.78-2.91h3v2.91h-3Zm-1,2.91h-.73a1.84,1.84,0,0,1,0-3.67h.73Zm6.22,58.34h1.67v6H36.2v-6h7.59Zm2.67,0h7.65v6H46.46Zm164.65-67.26v7.94H184.76v-8Zm1,3.58h89v4.38h-76.2v0H212.11ZM328.5,205.71h-10v-3.56h10Zm-24.44,2.72v-1.26h.33v-5h11.86V178.89h1.26v29.54Zm182,9.77.55-3.79a10.84,10.84,0,0,1,3.76,1.77l-2.35,3A7.23,7.23,0,0,0,486,218.2Zm-3.89-.23-.85-3.59a11.07,11.07,0,0,1,2.59-.32,10.76,10.76,0,0,1,1.71.15l-.54,3.75a7.71,7.71,0,0,0-1.28-.12h-.29A7.34,7.34,0,0,0,482.15,218Zm-1.81-3.31.84,3.56a7.12,7.12,0,0,0-2,1l-2.43-2.55A10.93,10.93,0,0,1,480.34,214.66Zm-4.29,2.69,2.4,2.5c-.18.17-.35.35-.51.53h-4A11,11,0,0,1,476.05,217.35Zm-3.22,3H459.15v-3h15.51A11.83,11.83,0,0,0,472.83,220.38Zm-15.66,6v2h-1.95v-.46a7.5,7.5,0,0,0-.45-2.52h2.34C457.14,225.7,457.17,226,457.17,226.37Zm-1.95,7h1.95v3h-1.95Zm0-1v-3h1.95v3Zm-.9-8a7.23,7.23,0,0,0-1-1.4l1.94-2.09a9,9,0,0,1,1.66,3.49Zm-13.85,8H439v-3h1.43Zm-22.3-8h-2.09a8.85,8.85,0,0,1,1.61-3.42l1.7,1.77A7.35,7.35,0,0,0,418.17,224.37Zm-.9,8h-1.43v-3h1.43Zm0-4.45v.46h-1.43v-2c0-.34,0-.67.06-1h1.82A7.5,7.5,0,0,0,417.27,227.89Zm-8.9-2.52h2.34a8.26,8.26,0,0,1,.06,1v2h-1.95v-.46A7.26,7.26,0,0,0,408.37,225.37Zm-14.3,7h-1.42v-3h1.42Zm-23.19,0h-1.43v-3h1.43ZM360.54,223l1.94-2.09a9,9,0,0,1,1.66,3.49h-2.61A7.23,7.23,0,0,0,360.54,223Zm-12.86,9.37h-1.43v-3h1.43Zm-23.2,0h-1.43v-3h1.43Zm-150.46,0h-1.94v-3H174Zm-22.3-8h-2.61a9.16,9.16,0,0,1,1.66-3.49l1.95,2.09A7.28,7.28,0,0,0,151.72,224.37Zm-.89,8h-2v-3h2Zm-22.31-8h-2.6a8.88,8.88,0,0,1,1.66-3.49l1.94,2.09A7.74,7.74,0,0,0,128.52,224.37Zm-.89,8h-1.95v-3h1.95Zm-23.2-4.45v.46h-2v-2c0-.34,0-.67.06-1h2.34A7.26,7.26,0,0,0,104.43,227.89ZM96,229.35h1.43v3H96Zm0-1v-.46a7.26,7.26,0,0,0-.45-2.52h1.82a8.26,8.26,0,0,1,.06,1v2Zm-2.12-5.63,1.7-1.77a8.85,8.85,0,0,1,1.61,3.42H95.09A7.39,7.39,0,0,0,93.86,222.72Zm-12.63,9.62h-2v-3h2ZM34.8,219.85l2.4-2.5a11,11,0,0,1,2.11,3h-4C35.15,220.2,35,220,34.8,219.85ZM28.19,218l-.54-3.75a10.76,10.76,0,0,1,1.71-.15,11,11,0,0,1,2.59.32L31.1,218a7.31,7.31,0,0,0-1.33-.13h-.3A7.81,7.81,0,0,0,28.19,218Zm4.72-3.3a11,11,0,0,1,3.56,2L34,219.22a7,7,0,0,0-2-1Zm5.68,2.74H54.11v3H40.42A11.83,11.83,0,0,0,38.59,217.4Zm146.17-78h10v2.53h-10Zm116.46,0a1.84,1.84,0,1,1,0,3.67h-.72v-3.67Zm2.81,7.19h11.25v22.28H304Zm12.2,23.23V146.57h1.28v30.32H301.68l-.17-30.32h1.57V169.8ZM440,220.38h-7v0a10.06,10.06,0,0,0-3.63-3h14.27A10,10,0,0,0,440,220.38Zm-2,8h-3v-2c0-.34,0-.67-.05-1h3.11c0,.33-.05.66-.05,1Zm-3.22-4a9.75,9.75,0,0,0-1.14-3h5.71a9.75,9.75,0,0,0-1.14,3Zm-18-4h-7.05a10,10,0,0,0-3.61-3h14.28A10.08,10.08,0,0,0,416.83,220.38Zm-.67,1a10,10,0,0,0-1.14,3H411.6a10,10,0,0,0-1.15-3Zm-22.53-1h-7v.05a9.94,9.94,0,0,0-3.65-3h14.28A10.08,10.08,0,0,0,393.63,220.38Zm-2,8h-3v-2c0-.34,0-.67-.05-1h3.12a8.27,8.27,0,0,0-.05,1Zm-3.22-4a10,10,0,0,0-1.15-3H393a10,10,0,0,0-1.14,3Zm-18-4h-7a10.08,10.08,0,0,0-3.62-3h14.28A10.08,10.08,0,0,0,370.43,220.38Zm-2,8h-3v-2c0-.34,0-.67,0-1h3.12c0,.33-.05.66-.05,1Zm-3.22-4a10,10,0,0,0-1.15-3h5.72a10,10,0,0,0-1.15,3Zm-18-4h-7a10.08,10.08,0,0,0-3.62-3h14.28A10.08,10.08,0,0,0,347.23,220.38Zm-2,8h-3v-2a8.27,8.27,0,0,0-.05-1h3.12c0,.33,0,.66,0,1Zm-3.22-4a10,10,0,0,0-1.14-3h5.71a10,10,0,0,0-1.15,3Zm-18-4h-20v-3h23.59A10,10,0,0,0,324,220.38Zm-2,8h-18v-2.86l18-.1c0,.32-.05.65-.05,1Zm-28-2.85h8.9v2.85H294v-2.68C294,225.61,294,225.56,294,225.5Zm8.9-1h-8.95a12,12,0,0,0-.73-3.12h9.68Zm-10.07,7.84h-3.66v-3h3.66Zm1.18-3h8.89v3H294Zm10.06-4.86v-3.11h19.31a10,10,0,0,0-1.15,3ZM185.6,217.4h23.59v3H189.36v.19A10,10,0,0,0,185.6,217.4ZM173,220.47v-.09h-7a10.08,10.08,0,0,0-3.62-3h14.28A10,10,0,0,0,173,220.47Zm-1.95,7.88h-3v-2c0-.34,0-.67-.05-1h3.12c0,.33,0,.66,0,1Zm-3.22-4a10,10,0,0,0-1.15-3h5.72a10,10,0,0,0-1.15,3Zm-18-3.92v-.07h-7a10.08,10.08,0,0,0-3.62-3h14.28A10.14,10.14,0,0,0,149.81,220.45Zm-2,7.9h-3v-2a8.27,8.27,0,0,0-.05-1h3.12c0,.33-.05.66-.05,1Zm-3.22-4a10,10,0,0,0-1.14-3h5.71a10,10,0,0,0-1.15,3Zm-18-3.94v-.05h-7a10,10,0,0,0-3.62-3h14.28A9.94,9.94,0,0,0,126.63,220.43Zm-2,7.92h-3v-2a8.26,8.26,0,0,0-.06-1h3.12c0,.33,0,.66,0,1Zm-3.22-4a10,10,0,0,0-1.14-3H126a10,10,0,0,0-1.15,3Zm-18-4v0h-7a10,10,0,0,0-3.61-3h14.28A10,10,0,0,0,103.45,220.41Zm-.65,1a9.75,9.75,0,0,0-1.14,3H98.24a10,10,0,0,0-1.15-3Zm-22.54-1h-7a10.08,10.08,0,0,0-3.62-3H83.89A10.05,10.05,0,0,0,80.26,220.39Zm-2,8h-3v-2c0-.34,0-.67,0-1h3.12a8.27,8.27,0,0,0,0,1Zm-3.22-4a10,10,0,0,0-1.15-3H79.6a10,10,0,0,0-1.14,3Zm-18-4h-2v-3h5.58A10.08,10.08,0,0,0,57.07,220.38Zm162.18,5.29v2.68h-8.88V225.5h8.89C219.26,225.56,219.25,225.61,219.25,225.67Zm-10.06-4.29v3.11l-18.16-.1a9.79,9.79,0,0,0-1.15-3Zm0,4.11v2.86h-18v-2c0-.33,0-.66,0-1Zm1.18,3.86h8.88v3h-8.88Zm8.95-5h-8.95v-3H220A12.44,12.44,0,0,0,219.32,224.37Zm-23.58-77.8H197V169.8h13.14V146.57h1.57l-.16,30.32H195.74Zm2.24,0h11.24v22.28H198Zm12.89-6.76h1.89v3.24H212a1.83,1.83,0,0,1-1.83-1.83A1.8,1.8,0,0,1,210.87,139.81Zm9.51,1.41a1.83,1.83,0,0,1-1.84,1.83h-.73v-3.24h1.89A1.81,1.81,0,0,1,220.38,141.22Zm1.33,60.35h15.21v2.05H221.71Zm20.1-61.42h3.05v2.9h-3.05Zm-1,60.31v-1h0l0-55.41h5.05l-.27,55.41h0v1l2.16,0v.13h-.87v4.6h-8v-4.71Zm24.71,0h2.17v-1h0l-.26-55.41h5l0,55.41h0v1l1.86,0v4.73h-8v-4.6h-.88Zm2.91-60.31h3.06v2.9h-3.06Zm7.95,61.42h15.2v2.05h-15.2Zm19.36-1.11v-1h0l-.26-55.41h5.05l0,55.41h0v1l1.86,0v4.73h-8.85v-4.71Zm.74-60.31h3.06v2.9h-3.06Zm5.25,39v-.28h0Zm-51.93,22.4h13.73v2.2H249.76ZM263.55,200a1.67,1.67,0,0,0-.06.44v.13H257.2V179.36h6.35Zm-7.5.57h-6.29v-.13a2.12,2.12,0,0,0,0-.44V179.36h6.34Zm-44.48-21.68v0Zm8.14,26.28h-8.85v-4.71h1.87v-1h0l0-55.41h5.05l-.27,55.41h0v1l2.16,0Zm-6-65h3.05v2.9h-3.05ZM198,178.89h12.56v19.6a2,2,0,0,0-1.69,1.95v.71H198Zm23.71,25.73h15.21v2H221.71Zm28,.15h13.73v1.9H249.76Zm26.58-.15h15.2v2h-15.2Zm26.35-6.13v-19.6h12.56v22.26H304.39v-.71A2,2,0,0,0,302.69,198.49Zm-7.25-55.44h-.73a1.84,1.84,0,1,1,0-3.67h.73Zm-1,1-.58,54.43h-.33a2,2,0,0,0-2,2v.13h-15.2v-.13a2,2,0,0,0-2-2h-.62L273.44,144a2.81,2.81,0,0,0,1.87-4.65h17.26a2.81,2.81,0,0,0,1.87,4.65ZM275,141.22a1.84,1.84,0,0,1-1.84,1.83h-.72v-3.67h.72A1.85,1.85,0,0,1,275,141.22Zm-7.62,1.83h-.73a1.84,1.84,0,1,1,0-3.67h.73Zm-1,1-.58,54.43h-.33a2,2,0,0,0-.81.17V179.36h1v-1h-18v1h1v19.27a2,2,0,0,0-.8-.17h-.33L246.86,144a2.83,2.83,0,0,0,2.57-2.81,2.86,2.86,0,0,0-.69-1.84h15.78a2.81,2.81,0,0,0,1.87,4.65Zm-18-2.81a1.83,1.83,0,0,1-1.84,1.83h-.73v-3.67h.73A1.84,1.84,0,0,1,248.43,141.22Zm-7.62,1.83h-.73a1.84,1.84,0,0,1,0-3.67h.73Zm-1,1-.29,54.43h-.62a2,2,0,0,0-2,2v.13H221.71v-.13a2,2,0,0,0-2-2h-.33L218.81,144a2.83,2.83,0,0,0,2.57-2.81,5,5,0,0,0-.64-1.85h17.2a2.82,2.82,0,0,0,1.87,4.65ZM210,139.37a5.3,5.3,0,0,0-.82,1.85,2.82,2.82,0,0,0,2.55,2.81v.54h-16v-5.2H210Zm-25.26,3.53h10v3.56h-10Zm0,4.56h10V151h-10Zm0,4.55h10v3.56h-10Zm0,4.56h10v3.56h-10Zm0,4.56h10v3.56h-10Zm0,4.56h10v3.55h-10Zm0,4.55h10v3.56h-10Zm0,4.56h10v3.56h-10Zm0,4.56h10v3.56h-10Zm0,4.56h10v3.56h-10Zm0,4.56h10V192h-10Zm0,4.55h10v3.56h-10Zm0,4.56h10v3.56h-10Zm0,4.56h10v3.56h-10Zm11-23.26H197v23.26h11.87v5h.32v1.26H195.74Zm13.45,37.51H181.53l-.29,0H181l-.29,0H158.33l-.29,0h-.2l-.29,0H135.13l-.29,0h-.2l-.29,0H111.94l-.29,0h-.21l-.29,0H88.74l-.29,0h-.2l-.29,0H65.54l-.29,0h-.2l-.29,0H55.11v-3H209.19Zm-152.78,5a10,10,0,0,0-1.15,3h-.15v-3Zm-1.3,4h0v0Zm2.92,7H56.09v-3H58Zm-1.94,1H58v3H56.09ZM58,227.89v.46H56.09v-2a8.26,8.26,0,0,1,.06-1h2.33A7.5,7.5,0,0,0,58,227.89Zm.9-3.52H56.32A9,9,0,0,1,58,220.88L59.92,223A7.23,7.23,0,0,0,58.93,224.37Zm1.71-2.1-2-2.15A8.92,8.92,0,0,1,62,218l1.17,2.9A7.39,7.39,0,0,0,60.64,222.27Zm3.46-1.64-1.19-2.95a8.83,8.83,0,0,1,2.14-.27h.2a8.85,8.85,0,0,1,2.53.37l-1.13,2.84a8.41,8.41,0,0,0-1.24-.11A8.08,8.08,0,0,0,64.1,220.63Zm4.62-2.52a8.92,8.92,0,0,1,3,2.07l-1.8,1.88a7.27,7.27,0,0,0-2.27-1.2ZM72.36,221A8.72,8.72,0,0,1,74,224.37H71.89a7.39,7.39,0,0,0-1.23-1.65Zm1.79,4.42a8.26,8.26,0,0,1,.06,1v2H72.78v-.46a7.26,7.26,0,0,0-.45-2.52Zm-1.37,4h1.43v3H72.78Zm2.46,0h3v3h-3Zm6-1.46v.46h-2v-2c0-.34,0-.67.06-1h2.34A7.5,7.5,0,0,0,81.23,227.89Zm.9-3.52H79.52a9,9,0,0,1,1.66-3.49L83.12,223A7.23,7.23,0,0,0,82.13,224.37Zm1.7-2.1-2-2.15A8.92,8.92,0,0,1,85.15,218l1.17,2.9A7.53,7.53,0,0,0,83.83,222.27Zm3.47-1.64-1.2-2.95a9,9,0,0,1,2.15-.27h.2a8.73,8.73,0,0,1,2.52.37l-1.12,2.84a8.41,8.41,0,0,0-1.24-.11A8,8,0,0,0,87.3,220.63Zm4.62-2.52a9,9,0,0,1,3,2.07l-1.8,1.88a7.32,7.32,0,0,0-2.28-1.2Zm6.47,7.26h3.11c0,.33,0,.66,0,1v2h-3v-2C98.44,226,98.42,225.7,98.39,225.37Zm4.33-1a8.88,8.88,0,0,1,1.66-3.49l1.94,2.09a7.29,7.29,0,0,0-1,1.45v0Zm4.31-2.1-2-2.15a8.88,8.88,0,0,1,3.3-2.14l1.18,2.9A7.53,7.53,0,0,0,107,222.27Zm3.47-1.64-1.2-2.95a8.9,8.9,0,0,1,2.14-.27h.21a8.78,8.78,0,0,1,2.52.37l-1.12,2.84a8.54,8.54,0,0,0-1.25-.11A8,8,0,0,0,110.5,220.63Zm4.62-2.52a9,9,0,0,1,3,2.07l-1.8,1.88a7.32,7.32,0,0,0-2.28-1.2Zm3.64,2.84a8.85,8.85,0,0,1,1.61,3.42h-1.91v.37a7.24,7.24,0,0,0-1.4-2Zm1.79,4.42c0,.33.06.66.06,1v2h-1.43v-.46a7.5,7.5,0,0,0-.45-2.52Zm-1.37,4h1.43v3h-1.43Zm2.46,0h3v3h-3Zm6-1.46v.46h-1.95v-2a8.26,8.26,0,0,1,.06-1h2.34A7.26,7.26,0,0,0,127.63,227.89Zm2.6-5.62-2-2.15a8.92,8.92,0,0,1,3.31-2.14l1.18,2.9A7.34,7.34,0,0,0,130.23,222.27Zm3.47-1.64-1.2-2.95a8.9,8.9,0,0,1,2.14-.27h.2a8.8,8.8,0,0,1,2.53.37l-1.12,2.84a8.54,8.54,0,0,0-1.25-.11A8,8,0,0,0,133.7,220.63Zm4.61-2.52a8.92,8.92,0,0,1,3,2.07l-1.79,1.88a7.43,7.43,0,0,0-2.28-1.2ZM142,221a8.85,8.85,0,0,1,1.61,3.42h-2.09a7.35,7.35,0,0,0-1.22-1.65Zm1.78,4.42a8.26,8.26,0,0,1,.06,1v2h-1.42v-.46a7.5,7.5,0,0,0-.45-2.52Zm-1.36,4h1.42v3h-1.42Zm2.45,0h3v3h-3Zm6-1.46v.46h-2v-2a8.26,8.26,0,0,1,.06-1h2.34A7.26,7.26,0,0,0,150.83,227.89Zm2.6-5.62-2-2.15a8.92,8.92,0,0,1,3.31-2.14l1.17,2.9A7.39,7.39,0,0,0,153.43,222.27Zm3.47-1.64-1.2-2.95a8.9,8.9,0,0,1,2.14-.27h.2a8.8,8.8,0,0,1,2.53.37l-1.12,2.84a8.54,8.54,0,0,0-1.25-.11A7.85,7.85,0,0,0,156.9,220.63Zm4.61-2.52a8.92,8.92,0,0,1,3,2.07l-1.79,1.88a7.43,7.43,0,0,0-2.28-1.2Zm3.65,2.84a8.85,8.85,0,0,1,1.61,3.42h-2.09a7.35,7.35,0,0,0-1.22-1.65Zm1.78,4.42a8.26,8.26,0,0,1,.06,1v2h-1.42v-.46a7.27,7.27,0,0,0-.46-2.52Zm-1.36,4H167v3h-1.42Zm2.45,0h3v3h-3Zm6-1.46v.46h-1.94v-2a8.26,8.26,0,0,1,.06-1h2.34A7.27,7.27,0,0,0,174,227.89Zm.9-3.52h-2.61a9,9,0,0,1,1.66-3.49l1.94,2.09A7.23,7.23,0,0,0,174.92,224.37Zm1.71-2.1-2-2.15a8.92,8.92,0,0,1,3.31-2.14l1.17,2.9A7.39,7.39,0,0,0,176.63,222.27Zm3.46-1.64-1.19-2.95a8.83,8.83,0,0,1,2.14-.27h.2a8.85,8.85,0,0,1,2.53.37l-1.13,2.84a8.41,8.41,0,0,0-1.24-.11A8.08,8.08,0,0,0,180.09,220.63Zm4.62-2.52a8.92,8.92,0,0,1,3,2.07l-1.8,1.88a7.27,7.27,0,0,0-2.27-1.2Zm3.64,2.84a8.83,8.83,0,0,1,1.62,3.43h-2.09a7.39,7.39,0,0,0-1.23-1.65Zm1.79,4.43a8.22,8.22,0,0,1,.06,1v2h-1.43v-.46a7.26,7.26,0,0,0-.45-2.52Zm-1.37,4h1.43v3h-1.43Zm2.46,0h18v3h-18Zm19.14,4h8.88v3h-8.88Zm10.06,0h3.67v3h-3.67Zm0-1v-3h3.67v3Zm0-4v-2.68c0-.06,0-.11,0-.17h3.66v2.85Zm0-8h-10.1v-3h12.14A12.21,12.21,0,0,0,220.47,220.38Zm-10.1-12.71h92.52v4.74H210.37Zm92.52,12.71H292.78a12.18,12.18,0,0,0-2-3h12.14Zm-11.4,0H287.4a9.08,9.08,0,0,0-.76-.76l2.12-2.58A11.14,11.14,0,0,1,291.49,220.38Zm.48,1a11.26,11.26,0,0,1,.79,3.12h-3.64a7.41,7.41,0,0,0-1-3.12Zm-2.81,4.12h3.65a1,1,0,0,1,0,.17v2.68h-3.66Zm0,7.84h3.66v3h-3.66Zm4.84,0h8.89v3H294Zm10.06-4h18v3h-18Zm20.42-1.46v.46h-1.43v-2a8.22,8.22,0,0,1,.06-1h1.82A7.26,7.26,0,0,0,324.48,227.89Zm.89-3.52h-2.09A8.83,8.83,0,0,1,324.9,221l1.7,1.77A7.39,7.39,0,0,0,325.37,224.37Zm2-2.31-1.8-1.88a9,9,0,0,1,3-2.07l1.09,2.75A7.32,7.32,0,0,0,327.35,222.06Zm3.26-1.44-1.12-2.84a8.73,8.73,0,0,1,2.52-.37h.2a9,9,0,0,1,2.15.27l-1.2,2.95a8,8,0,0,0-1.31-.12A8.41,8.41,0,0,0,330.61,220.62Zm4.7-2.64a8.92,8.92,0,0,1,3.31,2.14l-2,2.15a7.53,7.53,0,0,0-2.49-1.39Zm4,2.9a9,9,0,0,1,1.66,3.49h-2.61a7.23,7.23,0,0,0-1-1.4Zm1.84,4.49c0,.33.06.66.06,1v2h-1.95v-.46a7.5,7.5,0,0,0-.45-2.52Zm-1.89,4h1.95v3h-1.95Zm3,0h3v3h-3Zm5.48-1.46v.46h-1.43v-2a8.26,8.26,0,0,1,.06-1h1.82A7.26,7.26,0,0,0,347.68,227.89Zm.89-3.52h-2.09A8.72,8.72,0,0,1,348.1,221l1.7,1.77A7.39,7.39,0,0,0,348.57,224.37Zm2-2.31-1.8-1.88a8.92,8.92,0,0,1,3-2.07l1.08,2.75A7.27,7.27,0,0,0,350.55,222.06Zm3.26-1.44-1.13-2.84a8.85,8.85,0,0,1,2.53-.37h.2a8.83,8.83,0,0,1,2.14.27l-1.19,2.95a8.08,8.08,0,0,0-1.31-.12A8.41,8.41,0,0,0,353.81,220.62Zm4.7-2.64a8.92,8.92,0,0,1,3.31,2.14l-2,2.15a7.39,7.39,0,0,0-2.48-1.39Zm5.8,7.39a8.26,8.26,0,0,1,.06,1v2h-1.94v-.46a7.27,7.27,0,0,0-.46-2.52Zm-1.88,4h1.94v3h-1.94Zm3,0h3v3h-3Zm5.48-1.46v.46h-1.43v-2a8.26,8.26,0,0,1,.06-1h1.82A7.26,7.26,0,0,0,370.88,227.89Zm.89-3.52h-2.09A8.72,8.72,0,0,1,371.3,221l1.69,1.77A7.35,7.35,0,0,0,371.77,224.37Zm2-2.31-1.8-1.88a8.92,8.92,0,0,1,3-2.07l1.08,2.75A7.27,7.27,0,0,0,373.75,222.06Zm3.25-1.44-1.12-2.84a8.8,8.8,0,0,1,2.53-.37h.2a8.9,8.9,0,0,1,2.14.27l-1.19,2.95a8.08,8.08,0,0,0-1.31-.12A8.54,8.54,0,0,0,377,220.62Zm4.71-2.64a8.92,8.92,0,0,1,3.31,2.14l-2,2.15a7.39,7.39,0,0,0-2.48-1.39Zm4,2.9a9,9,0,0,1,1.66,3.49h-2.61a7.69,7.69,0,0,0-1-1.4Zm1.83,4.49a8.26,8.26,0,0,1,.06,1v2h-1.95v-.46a7.26,7.26,0,0,0-.45-2.52Zm-1.89,4h1.95v3h-1.95Zm3,0h3v3h-3Zm5.47-1.46v.46h-1.42v-2a8.26,8.26,0,0,1,.06-1h1.82A7.27,7.27,0,0,0,394.07,227.89Zm.9-3.52h-2.09a8.85,8.85,0,0,1,1.61-3.42l1.7,1.77A7.35,7.35,0,0,0,395,224.37Zm2-2.31-1.79-1.88a8.92,8.92,0,0,1,3-2.07l1.08,2.75A7.43,7.43,0,0,0,396.94,222.06Zm3.26-1.44-1.12-2.84a8.8,8.8,0,0,1,2.53-.37h.2a8.9,8.9,0,0,1,2.14.27l-1.2,2.95a8,8,0,0,0-1.3-.12A8.54,8.54,0,0,0,400.2,220.62Zm4.71-2.64a8.92,8.92,0,0,1,3.31,2.14l-2,2.15a7.34,7.34,0,0,0-2.49-1.39Zm4,2.9a9.16,9.16,0,0,1,1.66,3.49H408v0a7.78,7.78,0,0,0-1-1.45Zm2.87,4.49h3.12a8.26,8.26,0,0,0-.06,1v2h-3v-2C411.8,226,411.78,225.7,411.75,225.37Zm8.39-3.31-1.8-1.88a9,9,0,0,1,3-2.07l1.09,2.75A7.32,7.32,0,0,0,420.14,222.06Zm3.26-1.44-1.12-2.84a8.78,8.78,0,0,1,2.52-.37H425a8.9,8.9,0,0,1,2.14.27l-1.2,2.95a8,8,0,0,0-1.3-.12A8.54,8.54,0,0,0,423.4,220.62Zm4.71-2.64a9,9,0,0,1,3.31,2.14l-2,2.15a7.53,7.53,0,0,0-2.49-1.39Zm4,2.9a8.88,8.88,0,0,1,1.66,3.49h-2.6a7.74,7.74,0,0,0-1-1.4Zm1.84,4.49c0,.33.06.66.06,1v2h-2v-.46a7.26,7.26,0,0,0-.45-2.52Zm-1.89,4h2v3h-2Zm3,0h3v3h-3Zm5.47-1.46v.46H439v-2c0-.34,0-.67.06-1h1.82A7.26,7.26,0,0,0,440.47,227.89Zm.89-3.52h-2.08a8.85,8.85,0,0,1,1.61-3.42l1.7,1.77A7.39,7.39,0,0,0,441.36,224.37Zm2-2.31-1.8-1.88a9,9,0,0,1,3-2.07l1.09,2.75A7.32,7.32,0,0,0,443.34,222.06Zm3.26-1.44-1.12-2.84a8.73,8.73,0,0,1,2.52-.37h.21a9,9,0,0,1,2.14.27l-1.2,2.95a8,8,0,0,0-1.31-.12A8.41,8.41,0,0,0,446.6,220.62Zm4.71-2.64a8.88,8.88,0,0,1,3.3,2.14l-2,2.15a7.53,7.53,0,0,0-2.49-1.39Zm1.25-.58h5.59v3h-2A10.08,10.08,0,0,0,452.56,217.4Zm5.59-1h-9.66l-.28,0H448l-.29,0H425.3l-.29,0h-.21l-.28,0H402.1l-.29,0h-.2l-.29,0H378.9l-.29,0h-.2l-.29,0H355.7l-.29,0h-.2l-.29,0H332.5l-.29,0H332l-.29,0H304.06v-3H458.15ZM328.5,201.15h-10v-3.56h10Zm0-4.56h-10V193h10Zm0-4.56h-10v-3.55h10Zm0-4.55h-10v-3.56h10Zm0-4.56h-10v-3.56h10Zm0-4.56h-10V174.8h10Zm0-4.56h-10v-3.56h10Zm0-4.56h-10v-3.55h10Zm0-4.55h-10v-3.56h10Zm0-4.56h-10v-3.56h10Zm0-4.56h-10V152h10Zm0-4.56h-10v-3.55h10Zm0-4.55h-10V142.9h10Zm0-4.56h-10v-2.53h10Zm-11,2.67h-16V144a2.83,2.83,0,0,0,2.56-2.81,2.78,2.78,0,0,0-.71-1.85h14.16ZM213.33,128.22h86.59v4.84H213.33Zm-28.57,78.49h10v1.72h-10Zm24.43,2.72v3H55.11v-3Zm-155.08,7H37.77v.1a12,12,0,0,0-5.57-3.09H54.11Zm-27.44-2,.54,3.79a7.53,7.53,0,0,0-2,1l-2.35-3A10.89,10.89,0,0,1,26.67,214.41Zm-4.55,2.39,2.35,3c-.19.18-.37.37-.54.56H19.41A11.24,11.24,0,0,1,22.12,216.8Zm0,14.26v3.38H18.35v-3.38Zm0,4.38v3.39H18.35v-3.39Zm1-10.24a6.37,6.37,0,0,1,6.35-6.36h.3a6.37,6.37,0,0,1,6.35,6.36v28.6h-13ZM36,221.38h3.69a11.05,11.05,0,0,1,.65,3.69v.18H37.12v-.05A7.33,7.33,0,0,0,36,221.38Zm20.05,15.94H58v3H56.09Zm2.69,3V227.89a6.63,6.63,0,0,1,13.26,0v12.42Zm14-7h1.43v3H72.78Zm2.46,0h3v3h-3Zm4,0h2v3h-2Zm2.7,7V227.89a6.62,6.62,0,0,1,12.61-2.83v.31h.15a6.59,6.59,0,0,1,.5,2.52v12.42Zm14-7h1.43v3H96Zm2.46,0h3v3h-3Zm0-1v-3h3v3Zm4-3h2v3h-2Zm2.69,11V227.89a6.64,6.64,0,0,1,13.27,0v12.42Zm14-7h1.43v3h-1.43Zm2.46,0h3v3h-3Zm4,0h1.95v3h-1.95Zm2.69,7V227.89a6.59,6.59,0,0,1,.5-2.52h.3v-.63a6.63,6.63,0,0,1,12.46,3.15v12.42Zm14-7h1.42v3h-1.42Zm2.45,0h3v3h-3Zm4,0h2v3h-2Zm2.69,7V227.89a6.59,6.59,0,0,1,.5-2.52h.05v-.12a6.63,6.63,0,0,1,12.71,2.64v12.42Zm14-7H167v3h-1.42Zm2.45,0h3v3h-3Zm4.05,0H174v3h-1.94Zm2.69,7V227.89a6.63,6.63,0,0,1,13.26,0v12.42Zm14-7h1.43v3h-1.43Zm2.46,0h18v3h-18Zm19.14,4h8.88v3h-8.88Zm10.06,0h3.67v3h-3.67Zm.08-12.95a11.05,11.05,0,0,1,.77-3h3.86a7.31,7.31,0,0,0-1,3Zm1.25-4a11.45,11.45,0,0,1,2.73-3.34l2.12,2.58a7.68,7.68,0,0,0-.75.76Zm5.65-1.37-2.12-2.57a11.35,11.35,0,0,1,3.24-1.53l.71,3.22A7.54,7.54,0,0,0,227.41,219ZM288,216.44,285.85,219a7.6,7.6,0,0,0-1.84-.88l.71-3.22A11.35,11.35,0,0,1,288,216.44Zm1.2,20.88h3.66v3h-3.66Zm4.84,0h8.89v3H294Zm10.06-4h18v3h-18Zm19,0h1.43v3h-1.43Zm2.17,7V227.89a6.63,6.63,0,0,1,13.26,0v12.42Zm14-7h1.95v3h-1.95Zm3,0h3v3h-3Zm4.05,0h1.43v3h-1.43Zm2.17,7V227.89a6.63,6.63,0,0,1,12.71-2.64v.12h.05a6.59,6.59,0,0,1,.5,2.52v12.42Zm14-7h1.94v3h-1.94Zm3,0h3v3h-3Zm4.05,0h1.43v3h-1.43Zm2.17,7V227.89a6.63,6.63,0,0,1,13.26,0v12.42Zm14-7h1.95v3h-1.95Zm3,0h3v3h-3Zm4,0h1.42v3h-1.42Zm2.17,7V227.89a6.63,6.63,0,1,1,13.26,0v12.42Zm14-11h1.95v3h-1.95Zm3,0h3v3h-3Zm3,4v3h-3v-3Zm1,0h1.43v3h-1.43Zm2.18,7V227.89a6.58,6.58,0,0,1,.49-2.52h.15v-.31a6.63,6.63,0,0,1,12.62,2.83v12.42Zm14-7h2v3h-2Zm3,0h3v3h-3Zm4,0h1.43v3H439Zm2.17-5.45a6.64,6.64,0,0,1,13.27,0v12.42H441.21Zm14,9.43h1.95v3h-1.95Zm2.93-11.93v0h0Zm0-1H458a10,10,0,0,0-1.14-3h1.3Zm1-3h13.31a12.23,12.23,0,0,0-.58,3.69v.18H459.15Zm13.73,3.69a10.81,10.81,0,0,1,.65-3.69h3.68a7.33,7.33,0,0,0-1.08,3.82v.05h-3.25Zm4.25.13a6.37,6.37,0,0,1,6.36-6.36h.29a6.38,6.38,0,0,1,6.36,6.36v28.6h-13Zm14,10.24h3.76v3.39h-3.76Zm0-1v-3.38h3.76v3.38Zm-1.81-14.06c-.18-.19-.36-.38-.55-.56l2.35-3a11.09,11.09,0,0,1,2.71,3.58Zm19.28-4H492.18a12,12,0,0,0-5.45-3h21.88Zm-33.12.1v-.1H459.15v-3h21.9A12,12,0,0,0,475.49,216.5Zm-17.34-4.09H304.06v-3H458.15Zm-139.64-4v-1.72h10v1.72Zm10-70.06h-26v-7h-.39v-1H328.5Zm-116.81-11.1V125h89.87v2.25Zm-17-3.22V111.16h6.83v12.89Zm7.83-12.89h6.84v9.18a1.26,1.26,0,0,0-.14.94,1.15,1.15,0,0,0,.14.32v2.45h-6.84ZM221.38,114v-5.3h10.53Zm-1,.5-4.37,2.2v-8h4.37Zm36.25-11.48,12.25,5.52,27,12.49c.1,0,.09.09.09.11s-.07.11-.2.11h-9.23a.92.92,0,0,0-.56-.82l-23-10.52-5.75-2.71a1.08,1.08,0,0,0-.53-.08,1,1,0,0,0-.53.08L250.3,110l-23,10.5h0a.92.92,0,0,0-.56.82h-9.23a.19.19,0,0,1-.2-.11s0-.07.09-.11l27-12.5Zm0,5.12,7.38,3.37,20.83,9.74h-56.3l22.2-10.42Zm61.9,3v12.89h-6.83V111.16Zm-7.83,12.89h-6.83V121.6a1.13,1.13,0,0,0,.13-.32,1.31,1.31,0,0,0-.13-.94v-9.18h6.83Zm-17.85-9.52v-5.8h4.37v8Zm-1-.5-10.52-5.3h10.52Zm35.22-6.3H298.24v-.1h-1v.1H279.36l-1.1-.55-9.13-4.74h58Zm-49.25.35,24.34,12.62a.31.31,0,0,1,.16.35.3.3,0,0,1-.3.23h-4.33a1.08,1.08,0,0,0-.66-1.13l-27.77-12.5-11.95-5.53a1.14,1.14,0,0,0-.7-.1,1.16,1.16,0,0,0-.71.1L244,107.64,216.2,120.15a1.08,1.08,0,0,0-.66,1.13h-4.32a.28.28,0,0,1-.3-.23.29.29,0,0,1,.15-.35l24.36-12.63,21.2-10.67ZM235,107.17l-1.11.56H216v-.1h-1v.1H186.16v-5.29h58Zm-49.84,1-.44,18.26H55.11v-20.1H185.16Zm-130,19.26H210.68v.74h1.39v1.2h-157Zm128.65,2.94v78H55.11v-3.74h.15v-8h-.15V182.52h0V181.4h0v-51ZM54.11,137H46.46V133.7h7.65Zm-8.65-1.37a2.83,2.83,0,0,0-2.11-1H36.84a2.83,2.83,0,0,0-.5,5.62v2.61H22.1v-2.6a2.83,2.83,0,0,0-.43-5.63H15.15a2.82,2.82,0,0,0-1.83.69V133.7H45.46ZM4.64,138h7.68v.33H4.64Zm0,1.37h7.68v2.94H4.64Zm0,4h7.68v2.94H4.64Zm0,4h7.68V150H4.64Zm0,3.7h7.68v3H4.64Zm0,9h7.68v3.51H4.64Zm7.68,4.54V168H4.64v-3.45Zm0,4.49v3.45H4.64V169Zm0,4.48V177H4.64v-3.45Zm0,4.48v3.45H4.64V178Zm0,4.49v3.44H4.64v-3.44Zm0,4.48v3.45H4.64V187Zm-7.68,4.48h7.68v3.45H4.64Zm0,22H26.53a12.07,12.07,0,0,0-8.22,7H4.64Zm0,8h13.3a11.93,11.93,0,0,0-.59,3.69v.18H4.64Zm0,9.68H17.35v3.38H4.64Zm0,4.38H17.35v3.39H4.64Zm0,4.39H17.35v3.39H4.64Zm13.71,0h3.77v3.39H18.35Zm3.77,4.39v9.58H18.35v-9.58Zm15,9.58v-9.58h3.26v9.58Zm0-10.58v-3.39h3.26v3.39Zm0-4.39v-3.39h3.26v3.39Zm0-4.39v-3.38h3.26v3.38Zm0-4.38v-3.81h3.26v3.81Zm4.26-3.81H54.11v3.81H41.38Zm14.71,18v-3H74.21v3Zm16.69-4v-3h1.43v3Zm2.46-3h3v3h-3Zm4,0h2v3h-2Zm16.7,3v-3h1.43v3Zm2.46-3h3v3h-3Zm4,0h1.84v-1h-1.84v-3h2v7h-2Zm16.7,3v-3h1.43v3Zm2.46-3h3v3h-3Zm4,0h1.95v3h-1.95Zm16.7,3v-3h1.42v3Zm2.45-3h3v3h-3Zm4,0h2v3h-2Zm16.7,3v-3H167v3Zm2.45-3h3v3h-3Zm4.05,0H174v3h-1.94Zm16.69,3v-3h1.43v3Zm2.46-3h18v3h-18Zm19.14,4h8.88v3h-8.88Zm10.06,0h3.67v3h-3.67Zm11-23.52a7.12,7.12,0,0,0-1.23.11l-.72-3.23a10.61,10.61,0,0,1,2-.2,11,11,0,0,1,2.24.24l-.55,3.19a7,7,0,0,0-1.21-.11h-.57Zm7.92,23.52h3.29v3h-3.29Zm4.47,0h.49v3h-.49Zm1.67,0H249v3h-3.48Zm10.84-23.52a6.41,6.41,0,0,0-1.09.09l-.71-3.2a10.36,10.36,0,0,1,4.15,0l-.71,3.2a6.38,6.38,0,0,0-1.08-.09h-.56Zm7.91,23.52h3.48v3h-3.48Zm4.66,0h.5v3h-.5Zm1.67,0h3.29v3h-3.29Zm10.65-23.52a7,7,0,0,0-1.22.11l-.55-3.19a11,11,0,0,1,2.24-.24,10.53,10.53,0,0,1,2,.2L283,217.9a7.12,7.12,0,0,0-1.23-.11h-.56Zm7.92,23.52h3.66v3h-3.66Zm4.84,0h8.89v3H294Zm10.06-4h18v3h-18Zm19,0h1.43v3h-1.43Zm16.18,3v-3h1.95v3Zm3-3h3v3h-3Zm4.05,0h1.43v3h-1.43Zm16.18,3v-3h1.94v3Zm3-3h3v3h-3Zm4.05,0h1.43v3h-1.43Zm16.17,3v-3h1.95v3Zm3-3h3v3h-3Zm4,0h1.42v3h-1.42Zm16.17,3v-7h1.95v3h-1.84v1h1.84v3Zm3-3h3v3h-3Zm4,0h1.43v3h-1.43Zm16.18,3v-3h2v3Zm3-3h3v3h-3Zm4,0h1.43v3H439Zm20.11-11.07h12.73v3.81H459.15Zm13.73,0h3.25v3.81h-3.25Zm3.25,4.81v3.38h-3.25v-3.38Zm0,4.38v3.39h-3.25v-3.39Zm0,4.39v3.39h-3.25v-3.39Zm0,4.39v9.58h-3.25v-9.58Zm15,9.58v-9.58h3.76v9.58Zm0-10.58v-3.39h3.76v3.39Zm4.76-3.39h12.71v3.39H495.9Zm0-1v-3.39h12.71v3.39Zm0-4.39v-3.38h12.71v3.38Zm0-9.19v-.18a12.23,12.23,0,0,0-.58-3.69h13.29v3.87Zm12.71-12.84H459.15v-3h49.46Zm-40.82-4v-3.74h10.26v-8h-1.14v-1.09h14.25v1.09h-1.6v8h10.38v3.74Zm40.82-18h-7.67V187h7.67Zm0-4.49h-7.67v-3.44h7.67Zm0-4.48h-7.67V178h7.67Zm0-4.48h-7.67v-3.45h7.67Zm0-4.48h-7.67V169h7.67Zm0-4.49h-7.67v-3.45h7.67Zm0-9h-7.67v-3.91h7.67Zm0-4.94h-7.67v-3h7.67Zm0-4h-7.67v-2.66h7.67Zm-7.67-3.69v-2.94h7.67v2.94Zm7.67-9.31h-7.67V133.7h7.67Zm-8.67-1.63a2.86,2.86,0,0,0-1.84-.69h-6.51a2.83,2.83,0,0,0-.43,5.63v2.6H476.91v-2.61a2.83,2.83,0,0,0-.5-5.62H469.9a2.83,2.83,0,0,0-2.11,1V133.7h32.15ZM466.79,137h-7.64V133.7h7.64Zm-8.64,44.41h0v1.12h0v14.16H458v8h.15v3.74H329.5v-78H458.15Zm-157-52v-1.2h1.39v-.74H458.15v1.94Zm158-18.84h6.91v13.85h-6.91Zm7.91,13.85V110.58h.29v-1.77H500v17.67h-33Zm42.49-18.49v1.87h-43.2v.5h-.29v1.27h-6.91v-6.17H507.3v2.53Zm-43.49-8v1.72h35.53V97.91h5.71v4.5H459.15v-4.5Zm-7.91,1.37v6.1H328.09v-6.1ZM311.51,95.16H286.27V85.53h25.24Zm1.6-19.71v4.07h-27V79h.44V74.76h-.44V73.71h25v1.74ZM225,66.32h-3.78V62.65a1.9,1.9,0,0,1,3.78-.3Zm11.72,2h-4.93v-9a2.47,2.47,0,0,1,4.93,0Zm53.35-7.59a1.91,1.91,0,0,1,1.9,1.91v3.67h-3.78v-4A1.91,1.91,0,0,1,290.1,60.74Zm-2.78,5.58h-4.43v-5.4a2.22,2.22,0,0,1,4.43,0Zm-55.5,6.44h4.93v2h-4.93Zm5.93,0h7.48v2h-7.48Zm13.42-1h-4.74V69.33h4.74Zm-4.74,1h4.74v2h-4.74Zm5.94,0H253v2h-.65Zm6.59-1h-4.67V69.33H259Zm-4.67,1H259v2h-4.67Zm5.94,0h.65v2h-.65Zm6.59-1h-4.73V69.33h4.73Zm-4.73,1h4.73v2h-4.73Zm5.93,0h7.48v2H268Zm8.48,0h4.94v2H276.5Zm4.94-4.43H276.5v-9a2.47,2.47,0,0,1,4.94,0Zm0,1v2.43H276.5V69.33Zm-5.94,2.43H268V69.33h7.48Zm-8.68-12.45v9h-4.73v-9a2.37,2.37,0,1,1,4.73,0Zm-5.94,12.45h-.65V69.33h.65ZM259,59.31v9h-4.67v-9a2.34,2.34,0,1,1,4.67,0ZM253,71.76h-.65V69.33H253Zm-1.85-12.45v9h-4.74v-9a2.37,2.37,0,1,1,4.74,0Zm-5.94,12.45h-7.48V69.33h7.48Zm-8.48,0h-4.93V69.33h4.93Zm-6.38-5.44h-4.44v-5.4a2.22,2.22,0,0,1,4.44,0Zm.45,9.44h53.49V78H229V75.76ZM228.19,79h56.88v.54H228.19Zm82.25-6.27H285.07v2.05h-2.2v-2h.23v-1h-.23V69.33h.23v-1h-.23v-1h27.57ZM217.31,46.38h78.63v2H217.31Zm76.54-3.29H281.08c-.42-20.94-11.62-33.25-15.9-37.2,15.12,3.5,26.34,16,26.34,30.89v.53h2.33ZM250.44,5.43l.11,0c-2.59,4.11-11.74,20-10.82,37.68h-6.29C233.93,18.92,249,6.52,250.44,5.43ZM241,43.09c-1-19,9.83-35.91,11.17-37.91a37,37,0,0,1,8.92,0c1.33,2,12.17,18.89,11.16,37.91ZM262.7,5.41l.11,0c1.41,1.09,16.51,13.49,17,37.66h-6.3C274.44,25.37,265.29,9.52,262.7,5.41Zm.92-4.35V4.47a38.72,38.72,0,0,0-6.95-.62h-.09a38.53,38.53,0,0,0-6.94.62V1.06ZM219.41,37.31h2.32v-.53c0-14.87,11.22-27.39,26.35-30.89-4.29,4-15.49,16.26-15.91,37.2H219.41Zm76.53,6.78v1.29H217.31V44.09Zm-78.63,5.3h78.63v2H217.31Zm76.57,3v4.42c-2.33-1.31-10.07-3.4-35.85-3.4h-2.8c-25.79,0-33.53,2.09-35.85,3.4V52.4ZM219.38,58c.46-.49,4.61-3.61,35.85-3.61H258c31.93,0,35.56,3.26,35.85,3.57v8.33h-1V62.65a2.74,2.74,0,0,0-2.74-2.74,2.7,2.7,0,0,0-1.9.77,3.1,3.1,0,0,0-5.76-1.34v0a3.47,3.47,0,0,0-6.94,0v9H268v-9a3.46,3.46,0,0,0-3.46-3.46h-.21a3.47,3.47,0,0,0-3.47,3.46v9h-.65v-9a3.47,3.47,0,0,0-3.47-3.46h-.27A3.47,3.47,0,0,0,253,59.31v9h-.65v-9a3.47,3.47,0,0,0-3.47-3.46h-.2a3.47,3.47,0,0,0-3.47,3.46v9h-7.48v-9a3.47,3.47,0,0,0-6.93,0v0a3.1,3.1,0,0,0-5.77,1.34,2.69,2.69,0,0,0-1.89-.77,2.75,2.75,0,0,0-2.75,2.74v3.67h-1Zm-16.56,9.29h27.56v1h-.23v1h.23v2.43h-.23v1h.23v2h-2.19V72.71H202.82Zm-2.68,8.13h2.06V73.71h25v1.05h-.45V79h.45v.54H200.14Zm-2.67,5.07h118.6v4h-30.8V95.16H227.79V83.37H197.47Zm4.27,3.85h25V95.16h-25Zm-.32,13.23v0h0l0-1v-.36H311.84v.36l0,1h0v0h15.25v3.84h-59.2v.36l-10.36-5.37a1.34,1.34,0,0,0-.9-.11,1.3,1.3,0,0,0-.91.11l-10.36,5.37v-.36h-59.2V97.6Zm-16.26,1.68v6.1h-130v-6.1ZM6,97.91h5.71v1.72H47.19V97.91h6.92v4.5H6Zm-2.26,8H6v-2.53H54.11v6.17H47.19v-1.27H46.9v-.5H3.7Zm2.14,9.25v-6.38h6.37v15.62H5.84ZM1,127.48H4.64v-2h7.09v2H47.19v-2h6.92v4H1Zm53.11,2.94v2.28H4.64v-2.28ZM4.64,195.93h7.68v.75H4.64Zm7.68,8.76v3.74H4.64v-3.74ZM4.64,253.8v-9.58H17.35v9.58Zm36.74,0v-9.58H54v-1H41.38v-3.39H54v-1H41.38v-3.39H54v-1H41.38v-3.38H54.11V253.8Zm33.86-9.51v-3h3v3Zm23.2,0v-3h3v3Zm23.2,0v-3h3v3Zm23.19,0v-3h3v3Zm23.2,0v-3h3v3Zm23.2,0v-3h18v3Zm19.14,9.51v-8.51h8.88v8.51Zm10.06,0v-8.51h3.67v8.51Zm4.94,0V225.15a6.36,6.36,0,0,1,6.35-6.36h0a6.36,6.36,0,0,1,6.35,6.36V253.8Zm14,0v-8.51h3.29v8.51Zm4.47,0v-8.51h.49v8.51Zm1.67,0v-8.51H249v8.51Zm4.75,0V225.15a6.36,6.36,0,0,1,6.36-6.36h0a6.36,6.36,0,0,1,6.35,6.36V253.8Zm14,0v-8.51h3.48v8.51Zm4.66,0v-8.51h.5v8.51Zm1.67,0v-8.51h3.29v8.51Zm4.56,0V225.15a6.36,6.36,0,0,1,6.36-6.36h0a6.37,6.37,0,0,1,6.36,6.36V253.8Zm14,0v-8.51h3.66v8.51Zm4.84,0v-8.51h8.89v8.51Zm10.06-9.51v-3h18v3Zm38.14,0v-3h3v3Zm23.2,0v-3h3v3Zm23.2,0v-3h3v3Zm23.2,0v-3h3v3Zm23.2,0v-3h3v3Zm24.15,9.51V231.06h12.73v3.38H459.29v1h12.59v3.39H459.29v1h12.59v3.39H459.29v1h12.59v9.58Zm36.75,0v-9.58h12.71v9.58Zm12.71-45.37h-7.67v-3.74h7.67Zm-7.67-11.75v-.75h7.67v.75Zm7.67-64H459.15v-2.28h49.46Zm3.64-3.28h-53.1v-4h6.91v2h35.46v-2h7.09V127h.5v.5h3.14Z"/><path class="cls-2" d="M439.73,167.1h14.56V143.84h2.42v-2h-19v2h2Zm13.56-1H440.73V143.84h12.56Z"/><path class="cls-2" d="M418.29,167.1h14.56V143.84h2.41v-2h-19v2h2Zm13.56-1H419.29V143.84h12.56Z"/><path class="cls-2" d="M396.85,167.1h14.56V143.84h2.41v-2h-19v2h2Zm13.56-1H397.85V143.84h12.56Z"/><path class="cls-2" d="M375.4,167.1H390V143.84h2.41v-2h-19v2h2Zm13.57-1H376.4V143.84H389Z"/><path class="cls-2" d="M354,167.1h14.57V143.84h2.41v-2H352v2h2Zm13.57-1H355V143.84h12.57Z"/><path class="cls-2" d="M332.52,167.1h14.56V143.84h2.42v-2h-19v2h2Zm13.56-1H333.52V143.84h12.56Z"/><path class="cls-2" d="M439.73,200.11h14.56V176.85h2.42v-2h-19v2h2Zm13.56-1H440.73V176.85h12.56Z"/><path class="cls-2" d="M418.29,200.11h14.56V176.85h2.41v-2h-19v2h2Zm13.56-1H419.29V176.85h12.56Z"/><path class="cls-2" d="M396.85,200.11h14.56V176.85h2.41v-2h-19v2h2Zm13.56-1H397.85V176.85h12.56Z"/><path class="cls-2" d="M375.4,200.11H390V176.85h2.41v-2h-19v2h2Zm13.57-1H376.4V176.85H389Z"/><path class="cls-2" d="M354,200.11h14.57V176.85h2.41v-2H352v2h2Zm13.57-1H355V176.85h12.57Z"/><path class="cls-2" d="M332.52,176.85v23.26h14.56V176.85h2.42v-2h-19v2Zm13.56,22.26H333.52V176.85h12.56Z"/><path class="cls-2" d="M277.53,179.63h1.4V199.1h10.49V179.63h1.7v-1.54H277.53Zm11.12,18.7H279.7v-18.7h8.95Z"/><path class="cls-2" d="M258.05,145.55H247.6v1h1v21.16h0v.5h16.08v-.5h0V146.55h1v-1h-7.6Zm-8.34,1h6.34v20.66h-6.34Zm13.84,0v20.66H257.2V146.55h6.35Z"/><path class="cls-2" d="M277.53,147.73h1.4V167.2h10.49V147.73h1.7v-1.55H277.53Zm11.12,18.69H279.7V147.73h8.95Z"/><path class="cls-2" d="M256.62,120h0a4.19,4.19,0,1,0,0-8.37h0a4.19,4.19,0,0,0,0,8.37Zm3.19-4.18a3.19,3.19,0,1,1-3.18-3.19A3.19,3.19,0,0,1,259.81,115.83Z"/></g></g></svg>