<svg width="50" height="30" viewBox="0 0 50 30" fill="none" xmlns="http://www.w3.org/2000/svg">
<path fill-rule="evenodd" clip-rule="evenodd" d="M12.2999 9.85396C12.7309 -2.22347 30.0922 -3.25005 32.9858 7.74041C36.4335 7.49886 39.758 9.37086 40.743 12.6922C54.4105 12.3902 50.8397 31.8953 35.8178 26.4604C31.6314 30.6271 22.5197 30.3856 17.9023 26.7624C-4.13798 34.6731 -5.61554 9.43125 12.2999 9.85396ZM35.3253 24.5884C32.4317 28.7551 22.6429 29.4194 18.2717 25.0111C-2.90667 33.2238 -3.46076 9.43125 13.9622 11.5448C12.6077 -0.95534 30.5232 -1.55921 31.7545 9.49163C36.6797 8.28389 39.5117 11.8467 39.4502 14.3226C52.2557 12.511 49.4853 30.7479 35.3253 24.5884Z" fill="#FF7C93"/>
</svg>
