<svg width="75" height="74" viewBox="0 0 75 74" fill="none" xmlns="http://www.w3.org/2000/svg">
<g clip-path="url(#clip0)">
<path d="M18.8133 26.3665L10.0751 22.0935L9.38556 23.4805L18.0676 27.7395C16.7308 30.4153 15.9428 33.4135 15.8302 36.5657L6.05067 36.5657L6.05067 38.1068L15.8584 38.1068C15.8865 39.0594 15.985 39.9841 16.1398 40.8947L0.450289 45.4479L0.8865 46.933L16.4494 42.4078C16.8152 43.9068 17.3358 45.3498 17.9831 46.7088L9.39963 50.9958L10.0891 52.3688L18.7008 48.0678C19.545 49.5388 20.5582 50.8977 21.712 52.1306L10.8208 64.1791L11.9747 65.2158L22.8096 53.2234C23.7946 54.134 24.8781 54.9606 26.0178 55.6891L20.9662 64.053L22.2889 64.8516L27.3405 56.4737C28.818 57.2722 30.4081 57.9027 32.0826 58.337L28.3115 73.5937L29.8171 73.958L33.6023 58.6452C34.6717 58.8413 35.7692 58.9674 36.8809 59.0095L36.8809 68.7883L38.4287 68.7883L38.4287 59.0235C39.5966 58.9814 40.7364 58.8553 41.848 58.6312L46.3368 74L47.8283 73.5657L43.3537 58.2809C44.7749 57.9027 46.1257 57.3843 47.4203 56.7399L53.0347 65.1178L54.3152 64.2632L48.7711 55.9973C50.3049 55.0867 51.712 53.9939 52.9784 52.7611L65.1642 63.6607L66.2054 62.5119L54.0478 51.6263C55.0047 50.5335 55.863 49.3567 56.5807 48.0958L65.3471 52.2147L66.0084 50.8137L57.2983 46.7228C57.9597 45.3499 58.4944 43.8928 58.8602 42.3658L74.6201 46.2185L75 44.7474L59.1698 40.8807C59.3246 39.928 59.4231 38.9614 59.4512 37.9807L69.4841 37.1541L69.3574 35.613L59.4372 36.4396C59.3949 35.2908 59.2542 34.184 59.0432 33.0912L74.5779 28.5661L74.1417 27.081L58.6914 31.5642C58.2411 29.925 57.6079 28.3699 56.8058 26.9129L65.1079 22.1916L64.334 20.8466L56.0038 25.582C55.1736 24.293 54.2167 23.1022 53.1332 22.0235L64.1792 9.80686L63.0253 8.77013L52.0075 20.9587C50.9522 20.0481 49.8265 19.2215 48.6023 18.521L52.894 10.2692L51.515 9.55469L47.2233 17.7785C45.8161 17.092 44.3105 16.5456 42.7486 16.1673L46.6464 0.364225L45.1407 -4.07574e-05L41.2289 15.8591C40.061 15.663 38.8649 15.5649 37.6407 15.5649L37.8377 5.82806L36.2899 5.80005L36.0929 15.6209C35.1501 15.691 34.2214 15.8031 33.3068 15.9852L28.607 -0.028065L27.1154 0.406246L31.7871 16.3495C30.2111 16.7838 28.6914 17.3862 27.2842 18.1567L22.2467 9.54067L20.91 10.3112L25.9475 18.9413C24.6951 19.7398 23.5272 20.6505 22.4578 21.6732L10.2017 10.7455L9.1745 11.8943L21.3884 22.794C20.4456 23.8868 19.5732 25.0916 18.8133 26.3665ZM37.6548 17.134C48.8274 17.134 57.9175 26.1844 57.9175 37.3082C57.9175 48.432 48.8274 57.4824 37.6548 57.4824C26.4822 57.4824 17.3921 48.432 17.3921 37.3082C17.3921 26.1844 26.4681 17.134 37.6548 17.134Z" fill="#FF7C93"/>
<path d="M16.1331 33.2098L16.5024 31.7132L0.378188 27.7688L0.00887288 29.2653L16.1331 33.2098Z" fill="#FF7C93"/>
</g>
<defs>
<clipPath id="clip0">
<rect x="75" y="74" width="75" height="74" transform="rotate(-180 75 74)" fill="white"/>
</clipPath>
</defs>
</svg>
