<svg xmlns="http://www.w3.org/2000/svg" viewBox="0 0 194.58 35.67"><defs><style>.cls-1{fill:#3e688c;}.cls-2{fill:#f27b93;}</style></defs><title>Asset 1</title><g id="Layer_2" data-name="Layer 2"><g id="Layer_1-2" data-name="Layer 1"><path class="cls-1" d="M9.68,19.4V34.8a.2.2,0,0,1-.2.2H4a.2.2,0,0,1-.2-.2V19.4a.19.19,0,0,0-.2-.2l-3.42,0A.2.2,0,0,1,0,19V14.44a.2.2,0,0,1,.2-.2l3.42,0a.19.19,0,0,0,.2-.2V7.3A.2.2,0,0,1,4,7.1H9.48a.2.2,0,0,1,.2.2V14a.2.2,0,0,0,.2.2h3.63a.2.2,0,0,1,.2.2V19a.2.2,0,0,1-.2.2H9.88A.2.2,0,0,0,9.68,19.4Z"/><path class="cls-1" d="M32.92,14.21h5.46a.2.2,0,0,1,.2.2V34.8a.2.2,0,0,1-.2.2H32.92a.2.2,0,0,1-.2-.2V32.31a7.45,7.45,0,0,1-6.38,3.36c-6.39,0-10.61-5-10.61-11.09s4.17-11,10.32-11a7.54,7.54,0,0,1,6.67,3.36V14.41A.2.2,0,0,1,32.92,14.21ZM20.78,24.58a5.76,5.76,0,1,0,11.52,0,5.76,5.76,0,1,0-11.52,0Z"/><path class="cls-1" d="M42.34,14.21H47.8a.2.2,0,0,1,.2.2v2.15a7.65,7.65,0,0,1,6.19-3A6.9,6.9,0,0,1,60.62,17a.19.19,0,0,0,.33,0,7.58,7.58,0,0,1,6.49-3.51,6.62,6.62,0,0,1,5.62,2.54c1.34,1.78,1.44,3.55,1.44,5.86V34.8a.2.2,0,0,1-.2.2H68.84a.2.2,0,0,1-.2-.2V23.67c0-2.45-.53-3.56-1-4.08a3,3,0,0,0-2.4-1.06,3.43,3.43,0,0,0-3.21,1.82,7.91,7.91,0,0,0-.82,4V34.8a.2.2,0,0,1-.2.2H55.59a.2.2,0,0,1-.2-.2V23.67c0-2.45-.53-3.56-1-4.08A3,3,0,0,0,52,18.53a3.43,3.43,0,0,0-3.21,1.82,7.91,7.91,0,0,0-.82,4V34.8a.2.2,0,0,1-.2.2H42.34a.2.2,0,0,1-.2-.2V14.41A.2.2,0,0,1,42.34,14.21Z"/><path class="cls-1" d="M83.72,14.21a.2.2,0,0,1,.2.2V26a4.7,4.7,0,0,0,1.25,3.65,4.74,4.74,0,0,0,6,0A4.7,4.7,0,0,0,92.37,26V14.41a.2.2,0,0,1,.2-.2H98a.2.2,0,0,1,.2.2V26.93a7.83,7.83,0,0,1-2.55,6.38c-1.92,1.69-5,2.36-7.54,2.36s-5.61-.67-7.53-2.36a7.83,7.83,0,0,1-2.55-6.38V14.41a.2.2,0,0,1,.2-.2Z"/><path class="cls-2" d="M102,0h5.46a.2.2,0,0,1,.2.2V16.31a.2.2,0,0,0,.35.13,7.53,7.53,0,0,1,6.08-2.9,8,8,0,0,1,6.14,2.54,8.72,8.72,0,0,1,1.64,5.86V34.8a.2.2,0,0,1-.2.2H116.2a.2.2,0,0,1-.2-.2V23.67c0-1.16,0-3-1.1-4.08a3.77,3.77,0,0,0-2.74-1.06,4,4,0,0,0-3.6,1.82,7.22,7.22,0,0,0-.91,4V34.8a.2.2,0,0,1-.2.2H102a.2.2,0,0,1-.2-.2V.2A.2.2,0,0,1,102,0Z"/><path class="cls-2" d="M142.56,14.21H148a.2.2,0,0,1,.2.2V34.8a.2.2,0,0,1-.2.2h-5.46a.2.2,0,0,1-.2-.2V32.31A7.46,7.46,0,0,1,136,35.67c-6.39,0-10.61-5-10.61-11.09s4.17-11,10.32-11a7.54,7.54,0,0,1,6.67,3.36V14.41A.2.2,0,0,1,142.56,14.21ZM130.42,24.58a5.76,5.76,0,1,0,11.52,0,5.76,5.76,0,1,0-11.52,0Z"/><path class="cls-2" d="M168.43,20.11a.19.19,0,0,1-.32.15,6.75,6.75,0,0,0-4.48-1.54,5.59,5.59,0,0,0-5.86,5.86,5.79,5.79,0,0,0,6,5.9,6.73,6.73,0,0,0,4.28-1.54.2.2,0,0,1,.33.15v5.16a.18.18,0,0,1-.11.17A12,12,0,0,1,155,32.64a10.65,10.65,0,0,1-3.31-8,10.72,10.72,0,0,1,11.08-11.13,12.36,12.36,0,0,1,5.5,1.19.19.19,0,0,1,.12.18Z"/><path class="cls-2" d="M178.7.2V21.32a.2.2,0,0,0,.34.14l7.38-7.19a.2.2,0,0,1,.14-.06h7a.2.2,0,0,1,.13.35l-9.23,8.64a.2.2,0,0,0,0,.28l10.08,11.18a.2.2,0,0,1-.15.34h-7.23a.2.2,0,0,1-.15-.07l-7.67-8.82-.63.58V34.8a.2.2,0,0,1-.2.2h-5.45a.2.2,0,0,1-.2-.2V.2a.2.2,0,0,1,.2-.2h5.45A.2.2,0,0,1,178.7.2Z"/></g></g></svg>