<svg xmlns="http://www.w3.org/2000/svg" viewBox="0 0 814.58 382.25"><defs><style>.cls-1{fill:#fef7fa;}.cls-2{fill:#fff;}.cls-3,.cls-4{fill:#ffd7e0;}.cls-4{stroke:#eaedef;}.cls-4,.cls-5{stroke-miterlimit:10;}.cls-5{fill:none;stroke:#ffd7e0;}.cls-6{fill:#ffe1e9;}.cls-7{fill:#ff7c93;}</style></defs><title>th20-hub-pink-buildings</title><g id="Layer_4" data-name="Layer 4"><polyline class="cls-1" points="0.6 165.39 37.14 165.39 57.71 191.25 0.53 191.25 0.6 165.39"/><polyline class="cls-2" points="28.06 180 32.47 171.1 36.91 179.79 36.87 185.54 28.06 185.54 28.06 180"/><polyline class="cls-2" points="-2.85 180 1.56 171.1 6 179.79 5.96 185.54 -2.85 185.54 -2.85 180"/><polyline class="cls-1" points="11.3 331.94 11.3 363.17 -1.5 363.17 -1.5 331.4 11.3 330.54 11.3 331.94"/><polyline class="cls-1" points="73.1 347.46 98.63 347.46 98.63 379.82 73.1 379.89 73.1 347.46"/><polyline class="cls-1" points="495.42 178.33 608 178.33 587.47 152.47 516.28 152.47 495.42 178.33"/><polyline class="cls-2" points="578.42 167.68 582.83 158.78 587.27 167.47 587.23 173.22 578.42 173.22 578.42 167.68"/><polyline class="cls-2" points="547.51 167.68 551.92 158.78 556.36 167.47 556.32 173.22 547.51 173.22 547.51 167.68"/><polyline class="cls-2" points="516.64 167.08 521.05 158.18 525.49 166.87 525.45 172.62 516.64 172.62 516.64 167.08"/><polygon class="cls-1" points="726.8 331.81 726.8 300.9 743.01 299.42 744.25 332.06 726.8 331.81"/></g><g id="Layer_1" data-name="Layer 1"><g id="Layer_2" data-name="Layer 2"><g id="Layer_1-2" data-name="Layer 1-2"><path class="cls-3" d="M44.22,322.66H27.4v25.71H44.22Zm-1.4,13.44H36.51v-4h6.31Zm-7.71,0H28.79v-4h6.32Zm7.71-5.35H36.51v-6.69h6.31Zm-7.71-6.69v6.69H28.79v-6.69Zm-6.32,13.43h6.32v6.2H28.79Zm14,9.48h-14v-1.89h14Zm-6.31-3.28v-6.2h6.31v6.2Z"/><rect class="cls-3" x="3.72" y="341.64" width="1.4" height="2.86"/><path class="cls-3" d="M59.38,187.1,38.1,160.35a1,1,0,0,0-.75-.36H29.87v-2.25H34v-6.51H16.81v6.51h4.41V160H.6v1.39H37.14l20.57,25.86H.53V190H51.21v4.57H.53V196H51.21v20.18h-7V201.6H27.4v14.5H10.84V201.6H.53V203h1.2v6.7H.53v1.4h1.2V215H.53v1.4h1.2v6.19H.53V224H9.45v1.89H.53v1.39H10.84V217.5H27.4v9.81H44.22v-9.75h7V239H.53v1.4H51.21v28.75h-7V245.87H27.4v23.29H10.84V245.87H.53v1.4h1.2V254H.53v1.4h1.2v3.94H.53v1.4h1.2v6.19H.53v1.4H9.45v1.88H.53v1.4H10.84v-1H27.4v1H44.22v-1h7v5.79H.53v2.8H51.21v30.46H43.72V286.32H26.9v23.29H10.34V286.32H.53v1.4h.7v6.69H.53v1.4h.7v3.95H.53v1.39h.7v6.2H.53v1.39H9v1.89H.53V312h9.81v-1H26.9v1H43.72v-1h7.49v7.62H.53V320H51.21v29.62H17.49v-2.55H12.73V327.94h2.38v-4.57H.53v1.4H13.71v1.77H.53v1.4h1.1l.1,30.5H.53v1.4h10.8v13.27H.53v1H52.21v-.3h.2V349.64h-.2V279.15h2.3v-2.8h-2.3V190h2.3v-1.38h4.13a1,1,0,0,0,.85-.54A.94.94,0,0,0,59.38,187.1ZM18.07,156.48v-4H32.75v4Zm10.53,1.26v1.81H22.48v-1.81ZM3.13,203H9.45v6.7H3.13Zm0,8.1H9.45V215H3.13Zm0,11.53v-6.19H9.45v6.19ZM36.51,211.1h6.31V215H36.51Zm-1.4,3.9H28.79v-3.9h6.32Zm7.71-5.34H36.51V203h6.31ZM35.11,203v6.7H28.79V203Zm-6.32,13.44h6.32v6.19H28.79Zm14,9.48h-14V224h14Zm-6.31-3.29v-6.19h6.31v6.19ZM3.13,247.27H9.45V254H3.13Zm0,8.1H9.45v3.94H3.13Zm0,11.53v-6.19H9.45v6.19Zm33.38-11.53h6.31v3.94H36.51Zm-1.4,3.94H28.79v-3.94h6.32Zm7.71,1.4v6.19H36.51v-6.19Zm0-6.74H36.51v-6.7h6.31Zm-7.71-6.7V254H28.79v-6.7Zm-6.32,13.44h6.32v6.19H28.79Zm14,9.47h-14V268.3h14ZM2.63,287.72H9v6.69H2.63Zm0,8.09H9v3.95H2.63Zm0,11.54v-6.2H9v6.2ZM36,295.81h6.31v3.95H36Zm-1.4,3.95H28.29v-3.95h6.32Zm7.71,1.39v6.2H36v-6.2Zm0-6.74H36v-6.69h6.31Zm-7.71-6.69v6.69H28.29v-6.69Zm-6.32,13.43H34.6v6.2H28.29Zm14,9.48h-14v-1.89h14ZM51,351v21.38H17.49V351ZM3.12,358.4,3,327.94h8.3v30.5Zm9.6-10h3.36v23.94H12.73V348.4Z"/><path class="cls-3" d="M.53,181.49v1.27H7.22v-5.17l1-.68-6.67-9.82L0,169.4l.91.61v7.23H.53v1.27H.91v3Zm1.65-11.21L6,175.84v1.4H2.18Zm0,8.23H6v3H2.18Z"/><path class="cls-3" d="M38.14,182.76v-5.23l1-.68-6.67-9.75-7,10.42,1.05.71.26-.38v4.91Zm-5-12.49,3.77,5.52v1.45H33.1Zm-1.27,7H28.06V176l3.77-5.64Zm-3.77,1.27h3.77v3H28.06Zm5,3v-3h3.77v3Z"/><path class="cls-3" d="M609.71,178.19l-21.28-26.76a1,1,0,0,0-.75-.36H580.2v-2.24h4.15v-6.52H567.14v6.52h4.41v2.24H516.07a.93.93,0,0,0-.74.36l-21.59,26.75a1,1,0,0,0-.11,1,.94.94,0,0,0,.85.54h5.23v1.37h2.1v45h1.39v-45h98.14v4.58H503.49v1.39h97.85v20.11h-6.79V192.69H577.73v14.49H561.17V192.69H544.35v14.49H527.8V192.69H511v14.49h-7.48v1.4H511v9.82h16.8v-9.82h16.55v9.82h16.82v-9.82h16.56v9.82h16.82v-9.82h6.79v17.47h1.39v-45h2.11v-1.37H609a1,1,0,0,0,.85-.54A.94.94,0,0,0,609.71,178.19ZM568.4,147.56v-4h14.68v4Zm10.53,1.27v1.8h-6.12v-1.8Zm-58.85,53.35h6.32v3.95h-6.32Zm-1.4,3.95h-6.31v-3.95h6.31Zm7.72-5.34h-6.32v-6.7h6.32Zm-7.72-6.7v6.7h-6.31v-6.7Zm-6.31,13.44h6.31v6.19h-6.31Zm14,9.47h-14v-1.88h14Zm-6.32-3.28v-6.19h6.32v6.19Zm33.38-11.54h6.32v3.95h-6.32Zm-1.4,3.95h-6.31v-3.95H552Zm7.72-5.34h-6.32v-6.7h6.32Zm-7.72-6.7v6.7h-6.31v-6.7Zm-6.31,13.44H552v6.19h-6.31Zm14,9.47h-14v-1.88h14Zm-6.32-3.28v-6.19h6.32v6.19Zm33.38-11.54h6.31v3.95h-6.31Zm-1.4,3.95h-6.32v-3.95h6.32Zm7.71-5.34h-6.31v-6.7h6.31Zm-7.71-6.7v6.7h-6.32v-6.7Zm-6.32,13.44h6.32v6.19h-6.32Zm14,9.47h-14v-1.88h14Zm-6.31-3.28v-6.19h6.31v6.19Zm18-35.39H495.42l20.86-25.86h71.19L608,178.33Z"/><path class="cls-3" d="M526.63,167v-.47h-.3L521,158.15l-7,10.46,1,.7.26-.38v4.91H526.6v-4.58l1-.64Zm-5-5.56,3.77,5.93v.92h-3.77Zm-1.27-.08v6.93h-3.77V167Zm-3.77,8.19h3.77v3h-3.77Zm5,3v-3h3.77v3Z"/><path class="cls-3" d="M557.55,167v-.47h-.3l-5.36-8.42-7,10.46,1.05.7.26-.38v4.91h11.34v-4.58l1-.64Zm-5-5.56,3.77,5.93v.92h-3.77Zm-1.27-.08v6.93h-3.77V167Zm-3.77,8.19h3.77v3h-3.77Zm5,3v-3h3.77v3Z"/><path class="cls-3" d="M588.17,166.57l-5.36-8.42-7,10.46,1,.7.26-.38v4.91h11.34v-4.58l1-.64-1-1.58v-.47Zm-4.74-5.09,3.77,5.93v.92h-3.77Zm-1.27-.08v6.93h-3.77V167Zm-3.77,8.19h3.77v3h-3.77Zm5,3v-3h3.77v3Z"/></g><g id="Layer_2-2" data-name="Layer 2-2"><line class="cls-4" x1="661.17" y1="235.78" x2="661.17" y2="244.9"/><polygon class="cls-3" points="685.27 316.6 685.27 316.55 735.99 316.55 735.99 315.27 685.27 315.27 685.27 274.21 684.02 274.21 684.02 315.27 680.33 315.27 680.33 322.12 735.99 322.12 735.99 320.85 681.6 320.85 681.6 316.55 684.02 316.55 684.02 316.6 685.27 316.6"/><polygon class="cls-3" points="684.02 267.32 680.33 267.32 680.33 274.17 735.95 274.17 735.95 272.89 681.6 272.89 681.6 268.6 684.02 268.6 684.02 268.64 685.27 268.64 685.27 268.6 735.95 268.6 735.95 267.32 685.27 267.32 685.27 227.47 736.06 227.47 736.06 226.21 681.6 226.21 681.6 221.91 736.06 221.91 736.06 220.63 680.33 220.63 680.33 227.47 684.02 227.47 684.02 267.32"/><path class="cls-3" d="M677.62,307.65h4v-6.84h-4V259.7h4v-6.84h-4V213h4v-6.83H604.73V213h3.69v13.34h1.25V213h66.7v39.86H660.89v1.27h19.49v4.3H660.74v1.27h15.63v41.11H661v1.27h19.34v4.3H660.57v1.27h15.8v40.16H673.6v-7.27h-4.31V348h-5.58V318.22h7.83v-3.43H660.83v3.43h1.88V348h-1.88v.85h8.46v1.89h-8.46v.85h8.46v2h-8.46v.85h8.46v4.2h12.35V347.81h-4ZM606,211.74v-4.31h74.39v4.31Zm66.36,136.07v9.59h-1.81V341.79h1.81Zm8,1.25v8.34H673.6v-8.34Z"/><path class="cls-3" d="M660.74,278.38v1.26h7.14V289h-6.71v.63h-.43V294h10.44v-4.36h-2v-15.3c0-4.23-3.42-10.76-8-10.76v1.26c3.64,0,6.71,5.84,6.71,9.5v4Z"/><polygon class="cls-3" points="635.04 241.66 633.01 241.66 633.01 235.19 631.74 235.19 631.74 241.03 625.67 241.03 625.67 235.19 624.4 235.19 624.4 241.03 618.19 241.03 618.19 241.66 618.19 241.66 618.19 246.02 635.04 246.02 635.04 241.66"/><path class="cls-3" d="M624.4,216.93V226h1.27v-9.09c3.35.62,6.07,6,6.07,9.43H633c0-4.23-3.43-10.76-8-10.76-3.62,0-6.76,4.32-7.7,8.49l1.24.28C619.32,221,621.7,217.43,624.4,216.93Z"/><path class="cls-3" d="M671.18,246v-4.36h-2v-15.3c0-4.23-3.42-10.76-8-10.76-3.67,0-6.81,4.37-7.72,8.6l1.23.27c.75-3.45,3.2-7.16,6-7.56v13.46h-1.24v1.27h1.24v.68h1v-.68h6.21V241h-8.33v1.27h.14V246Zm-9.51-15.65V216.92c3.42.49,6.21,6,6.21,9.44v4Z"/><rect class="cls-3" x="611.57" y="216.23" width="7.29" height="1.82"/><rect class="cls-3" x="635.79" y="216.23" width="7.29" height="1.82"/><rect class="cls-3" x="667.53" y="215.32" width="7.29" height="1.82"/><rect class="cls-3" x="636.54" y="237.19" width="7.29" height="1.82"/><rect class="cls-3" x="629.8" y="249.57" width="7.29" height="1.82"/><rect class="cls-3" x="666.37" y="295.92" width="7.29" height="1.82"/><rect class="cls-3" x="667.89" y="309.36" width="7.29" height="1.82"/><rect class="cls-3" x="667.53" y="262.73" width="7.29" height="1.82"/><rect class="cls-3" x="709.05" y="276.29" width="7.29" height="1.82"/><path class="cls-3" d="M726.9,367.87v-1.6h9.16V365H726.9v-1.48h9.16v-1.27h-2.84V332.69H736v-3.43H724.85v3.43h1.3V355h-3.54v7.27H685.27V322.17H684v40.11h-3.68v10.84H726.9v-4h11.5v-1.25Zm.51-35.18H732v29.59h-4.54Zm-4.8,39.18h-41v-8.33H684v0h1.25v0h37.32Zm3.06,0h-1.8V356.26h1.74Z"/><path class="cls-3" d="M712.52,349h-8.66v-9.28h8.66v-1.26h-8.66V330.3h8.66V349h6V329.2h-6v-1.11H693.94v1.11h-5.5V349h5.5v2.22h18.58Zm-9.92,0h-8.14v-9.28h8.15Zm0-10.54h-8.14V330.3h8.14Z"/><path class="cls-3" d="M700.61,278.08c-4.55,0-8,6.53-8,10.76v15.3h-2v4.33h20v-4.36h-2v-15.3C708.61,284.61,705.19,278.08,700.61,278.08ZM700,303.47h-6.07v-9.39H700Zm0-10.66h-6.07v-4c0-3.45,2.72-8.81,6.07-9.43Zm7.34,10.66h-6.07v-9.39h6.07Zm0-10.66h-6.07v-13.4c3.35.62,6.07,6,6.07,9.43Z"/><path class="cls-3" d="M710.61,256.13h-2v-15.3c0-4.23-3.42-10.76-8-10.76s-8,6.53-8,10.76v15.3h-2v4.34h20ZM700,255.47h-6.07v-9.39H700Zm0-10.66h-6.07v-4c0-3.45,2.72-8.81,6.07-9.43Zm7.34,10.66h-6.07v-9.39h6.07Zm0-10.66h-6.07V231.4c3.35.62,6.07,6,6.07,9.43Z"/><path class="cls-3" d="M736.14,231.4l-.23-1.25c-3.94.73-7.11,6.44-7.11,10.68v15.3h-2v4.34h9.29v-5h-6v-9.39H736v-1.27h-5.88v-4C730.07,237.17,732.93,232,736.14,231.4Z"/><path class="cls-3" d="M736.14,279.24l-.23-1.24c-3.94.72-7.11,6.44-7.11,10.68V304h-2v4.35h9.29v-5h-6v-9.39H736v-1.27h-5.88v-4C730.07,285,732.93,279.84,736.14,279.24Z"/><rect class="cls-3" x="687.17" y="230.7" width="7.29" height="1.82"/><rect class="cls-3" x="711.39" y="230.7" width="7.29" height="1.82"/><rect class="cls-3" x="718.14" y="242.26" width="7.29" height="1.82"/><rect class="cls-3" x="712.14" y="251.66" width="7.29" height="1.82"/><rect class="cls-3" x="705.4" y="264.04" width="7.29" height="1.82"/><rect class="cls-3" x="688.61" y="261.59" width="7.29" height="1.82"/><rect class="cls-3" x="719.98" y="282.05" width="7.29" height="1.82"/><rect class="cls-3" x="714.5" y="294.73" width="7.29" height="1.82"/><rect class="cls-3" x="715.14" y="309.31" width="7.29" height="1.82"/><rect class="cls-3" x="689.17" y="311.3" width="7.29" height="1.82"/><rect class="cls-3" x="718.14" y="323.83" width="7.29" height="1.82"/><rect class="cls-3" x="690.29" y="357.91" width="7.29" height="1.82"/><rect class="cls-3" x="711.89" y="355.63" width="7.29" height="1.82"/><rect class="cls-3" x="688.09" y="277.54" width="7.29" height="1.82"/><polygon class="cls-3" points="499.34 199.69 463.07 199.69 463.07 200.86 498.17 200.86 498.17 204.86 465.76 204.86 465.76 206.04 494.59 206.04 494.59 225.57 495.85 225.57 495.85 206.04 499.34 206.04 499.34 199.69"/><path class="cls-3" d="M480.31,208.45c-4.22,0-7.41,6.07-7.41,10v5.89h1.18v-1h5.65v2.21h1.17v-2.21h5.65v2.21h1.18v-7.12C487.73,214.52,484.54,208.45,480.31,208.45Zm-6.23,13.73v-3.73c0-3.2,2.53-8.19,5.65-8.76v12.49Zm12.47,0H480.9V209.69c3.12.57,5.65,5.56,5.65,8.76Z"/><rect class="cls-3" x="486.23" y="208.2" width="6.78" height="1.69"/><rect class="cls-3" x="464.66" y="219.78" width="5.11" height="1.69"/><path class="cls-3" d="M55.83,209.44H58l3.76,4.42v5.84h1L64.17,380v1.27h91.57v-1.45H98.63V347.46l2.29-3.4h.73v-3.89H70.09v3.89h.73l2.28,3.4v32.43H65.62L64.25,219.7H181.11v6.51h1.44V219.7h1.21V213l3-3.52h1.45v-9.36H55.83Zm36,138.34V380h-5.3V347.78ZM85.21,380H79.92V347.78h5.29Zm-6.62,0H74.43V347.78h4.16Zm14.55,0V347.78h4.17v18.63a1.77,1.77,0,1,0,0,.88V380Zm2.78-13.17a.33.33,0,1,1-.33-.33h0a.32.32,0,0,1,.32.32v0ZM71.54,341.61H100.2v1H71.54Zm27.64,2.45-1.63,2.43H74.19l-1.63-2.43ZM180.41,208v-6.47H183V208ZM179,208h-2.52v-6.47H179Zm-4,0h-2.52v-6.47H175Zm-4,0h-2.51v-6.47H171Zm-4,0h-2.52v-6.47H167Zm-4,0h-2.52v-6.47H163Zm-4,0h-2.52v-6.47H159Zm-4,0h-2.52v-6.47H155Zm-4,0h-2.3v-6.47h2.51Zm-4.36,0h-2.12v-6.47h2.12Zm-4,0h-2.12v-6.47h2.12Zm-4,0H136.8v-6.47h2.12Zm-4,0h-2.52v-6.47H135Zm-4,0h-2.12v-6.47H131Zm-4,0h-2.12v-6.47H127Zm-4,0H121v-6.47h2.12Zm-4,0H117v-6.47h2.12Zm-4,0H113v-6.47h2.12Zm-4,0h-2.52v-6.47h2.52Zm-4,0H104.7v-6.47h2.51Zm-4,0h-2.52v-6.47h2.52Zm-4,0H96.77v-6.47h2.51Zm-4,0H92.8v-6.47h2.52Zm-4,0h-1.8v-6.47h2.52Zm-4,0H84.88v-6.47h2.51Zm-4,0H80.91v-6.47h2.52Zm-4,0H77v-6.47h2.51Zm-4,0H73v-6.47h2.5Zm-4,0H69v-6.47h2.52Zm-4,0H65.06v-6.47h2.51Zm-4,0H61.09v-6.47h2.52Zm-.44,10.25v-3.94H182.31v3.94ZM181,212.87H62.78l-2.92-3.43h125Zm4.81-4.87h-2.27v-6.47h2.27Zm-128.5-6.47h2.37V208H57.28Z"/><path class="cls-3" d="M93.85,238v-4.58H71.54V238h1.52v20.81H71.55v7.7H93.83v-7.7H92.32V238ZM73,234.87H92.4v1.7H73ZM82,238v4.05H74.5V238Zm8.94,12.42H83.42V243.5h7.49Zm-8.94,0H74.5V243.5H82Zm-7.5,1.45H82v6.94H74.5Zm18,8.35v4.87H73v-4.87H92.5Zm-9-1.41v-6.94H91v6.94ZM91,242.05H83.42V238h7.49Z"/><path class="cls-3" d="M133.89,238v-4.58H111.58V238h1.53v20.81H111.6v7.7h22.28v-7.7h-1.51V238ZM113,234.87h19.42v1.7H113Zm9,3.14v4.05h-7.49V238Zm9,12.42h-7.5V243.5H131Zm-9,0h-7.49V243.5H122Zm-7.49,1.45H122v6.94h-7.49Zm17.94,8.35v4.87H113v-4.87Zm-9-1.41v-6.94H131v6.94Zm7.5-16.76h-7.5V238H131Z"/><path class="cls-3" d="M93.85,293.23v-4.59H71.54v4.59h1.52V314H71.55v7.69H93.83V314H92.32V293.23ZM73,290.09H92.4v1.69H73Zm9,3.14v4H74.5v-4Zm8.94,12.42H83.42v-6.93h7.49Zm-8.94,0H74.5v-6.93H82Zm-7.5,1.44H82v7H74.5Zm18,8.36v4.87H73v-4.87H92.5Zm-9-1.41v-7H91v7ZM91,297.27H83.42v-4h7.49Z"/><path class="cls-3" d="M133.89,293.23v-4.59H111.58v4.59h1.53V314H111.6v7.69h22.28V314h-1.51V293.23ZM113,290.09h19.42v1.69H113Zm9,3.14v4h-7.49v-4Zm9,12.42h-7.5v-6.93H131Zm-9,0h-7.49v-6.93H122Zm-7.49,1.44H122v7h-7.49Zm17.94,8.36v4.87H113v-4.87Zm-9-1.41v-7H131v7Zm7.5-16.77h-7.5v-4H131Z"/><path class="cls-3" d="M133.89,348.45v-4.59H111.58v4.59h1.53v20.8H111.6V377h22.28v-7.7h-1.51V348.5ZM113,345.3h19.42V347H113Zm9,3.15v4h-7.49v-4Zm9,12.41h-7.5v-6.92H131Zm-9,0h-7.49v-6.92H122Zm-7.49,1.45H122v6.94h-7.49Zm17.94,8.36v4.87H113v-4.87Zm-9-1.42v-6.94H131v6.94Zm7.5-16.76h-7.5v-4H131Z"/><polygon class="cls-3" points="154.56 353.94 155.91 353.94 155.91 352.49 154.56 352.49 154.56 348.44 155.74 348.44 155.74 348.43 155.74 347.02 155.74 347 153.07 347 153.07 345.3 155.74 345.3 155.74 343.86 151.63 343.86 151.63 348.44 153.15 348.44 153.15 369.25 151.65 369.25 151.65 376.95 155.74 376.95 155.74 375.54 153.06 375.54 153.06 370.67 155.74 370.67 155.74 369.25 154.56 369.25 154.56 362.31 156.05 362.31 156.05 360.86 154.56 360.86 154.56 353.94"/><rect class="cls-3" x="65.86" y="224.84" width="10.37" height="2.89"/><rect class="cls-3" x="105.5" y="221.95" width="10.37" height="2.89"/><rect class="cls-3" x="95.35" y="245.3" width="10.37" height="2.89"/><rect class="cls-3" x="70.81" y="270.93" width="10.37" height="2.89"/><rect class="cls-3" x="100.31" y="278.37" width="10.37" height="2.89"/><rect class="cls-3" x="135.68" y="228.08" width="10.37" height="2.89"/><rect class="cls-3" x="143.61" y="272.96" width="10.37" height="2.89"/><rect class="cls-3" x="135.68" y="299.76" width="10.37" height="2.89"/><rect class="cls-3" x="143.61" y="325.9" width="10.37" height="2.89"/><rect class="cls-3" x="135.68" y="354.01" width="10.37" height="2.89"/><rect class="cls-3" x="139.58" y="371.66" width="10.37" height="2.89"/><rect class="cls-3" x="94.82" y="298.42" width="10.37" height="2.89"/><rect class="cls-3" x="100.54" y="329.01" width="10.37" height="2.89"/><rect class="cls-3" x="68.59" y="324.46" width="10.37" height="2.89"/><path class="cls-3" d="M372.88,161.55V160.1H261.1v9.36h1.69l3.82,4.49v5.71h1l.39,46.17h1.45l-.4-46.16h100V173H267.65l-3-3.49H370.14V168h-1.22v-6.47ZM267.93,174.27h99.82v4.06H267.93Zm1.95-12.72h2.52V168h-2.52ZM268.44,168h-2.52v-6.47h2.52Zm5.41-6.47h2.51V168h-2.51Zm4,0h2.52V168h-2.52Zm4,0h2.52V168h-2.52Zm4,0h2.52V168h-2.52Zm4,0h2.52V168H289.7Zm4,0h2.51V168h-2.51Zm4,0h2.52V168h-2.52Zm4,0h2.52V168h-2.52Zm4,0h2.52V168h-2.52Zm4,0H312V168h-2.52Zm4,0H316V168h-2.51Zm4,0H320V168h-2.52Zm4,0h2.52V168h-2.52Zm4,0h2.52V168h-2.52Zm4,0h2.52V168h-2.52Zm4,0h2.51V168h-2.51Zm4,0h2.52V168h-2.52Zm4,0h2.52V168h-2.52Zm4,0h2.52V168H345.2Zm4,0h2.52V168h-2.52Zm4,0h2.51V168h-2.51Zm4,0h2.52V168h-2.52Zm4,0h2.52V168h-2.52Zm-98.5,0h1.92V168h-1.92ZM367.47,168H365v-6.47h2.45Z"/><path class="cls-3" d="M276.36,198h1.53v20.81h-1.51v7.69h22.28v-7.69h-1.51V198h1.52v-4.59H276.36Zm10.44,0v4h-7.5v-4Zm8.94,12.42h-7.5v-6.93h7.5Zm-8.94,0h-7.5v-6.93h7.5Zm-7.5,1.45h7.5v6.94h-7.5Zm17.95,8.35v4.87H277.79v-4.87Zm-9-1.41V211.9h7.5v6.94Zm7.5-16.77h-7.5v-4h7.5Zm-17.93-7.18h19.42v1.69H277.81Z"/><path class="cls-3" d="M316.41,198h1.53v20.81h-1.51v7.69H338.7v-7.69h-1.51V198h1.53v-4.59H316.41Zm10.43,0v4h-7.49v-4Zm8.94,12.42h-7.49v-6.93h7.49Zm-8.94,0h-7.49v-6.93h7.49Zm-7.49,1.45h7.49v6.94h-7.49Zm17.94,8.35v4.87H317.84v-4.87Zm-9-1.41V211.9h7.49v6.94ZM335.78,202h-7.49v-4h7.49Zm-17.92-7.18h19.41v1.69H317.86Z"/><rect class="cls-3" x="270.68" y="184.86" width="10.37" height="2.89"/><rect class="cls-3" x="310.32" y="181.96" width="10.37" height="2.89"/><rect class="cls-3" x="300.18" y="205.32" width="10.37" height="2.89"/><rect class="cls-3" x="340.51" y="188.1" width="10.37" height="2.89"/><path class="cls-3" d="M188.13,188.47h3.71v38h1.27v-38h67.16v37.61h1.27V188.47h4v-6.88H188.13Zm1.28-5.61h74.9v4.34h-74.9Z"/><path class="cls-3" d="M216.61,201.92c0-4.26-3.45-10.83-8-10.83s-8,6.57-8,10.83v15.41H198.5v4.39h20.15v-4.39h-2Zm-14.79,5.32h6.12v9.46h-6.12Zm7.4,0h6.11v9.46h-6.11Zm6.11-5.32v4h-6.11V192.43C212.59,193.05,215.33,198.45,215.33,201.92Zm-7.39-9.49V206h-6.12v-4C201.82,198.45,204.56,193.05,207.94,192.43Z"/><path class="cls-3" d="M253,201.92c0-4.26-3.45-10.83-8-10.83s-8,6.57-8,10.83v15.41H235v4.39h20.16v-4.39H253Zm-14.78,5.32h6.11v9.46h-6.11Zm7.39,0h6.12v9.46h-6.12Zm6.12-5.32v4h-6.12V192.43C249,193.05,251.73,198.45,251.73,201.92Zm-7.4-9.49V206h-6.11v-4C238.22,198.45,241,193.05,244.33,192.43Z"/><rect class="cls-3" x="195.02" y="191.72" width="7.34" height="1.83"/><rect class="cls-3" x="219.41" y="191.72" width="7.34" height="1.83"/><rect class="cls-3" x="251.38" y="190.81" width="7.34" height="1.83"/><rect class="cls-3" x="226.21" y="203.36" width="7.34" height="1.83"/><rect class="cls-3" x="220.16" y="212.83" width="7.34" height="1.83"/><rect class="cls-3" x="196.47" y="222.83" width="7.34" height="1.83"/><rect class="cls-3" x="243.48" y="222.83" width="7.34" height="1.83"/><rect class="cls-3" x="181.04" y="235.2" width="1.23" height="19.62"/><polygon class="cls-3" points="152.67 234.85 154.66 234.85 154.66 233.39 151.21 233.39 151.21 238.02 153.15 238.02 153.15 254.29 154.56 254.29 154.56 238.02 156.93 238.02 156.93 238 156.93 236.58 156.93 236.56 152.67 236.56 152.67 234.85"/><polygon class="cls-3" points="171.81 236.56 164.19 236.56 164.19 238.02 171 238.02 171 254.29 172.41 254.29 172.41 236.58 171.81 236.58 171.81 236.56"/><line class="cls-4" x1="736.89" y1="250.25" x2="736.89" y2="259.37"/><path class="cls-3" d="M752.39,322.12h4v-6.84h-4V274.17h4v-6.84h-4V227.47h4v-6.83h-76v6.83H684v13.34h1.24V227.47h65.94v39.86h-15.3v1.27h19.27v4.3H735.7v1.27h15.45v41.11H736v1.27h19.12v4.29H735.53v1.27h15.62v40.16h-2.74V355h-4.26v7.46h-5.51V332.69h7.74v-3.43H735.79v3.43h1.86v29.78h-1.86v.85h8.36v1.89h-8.36v.85h8.36v2h-8.36v.85h8.36v4.2h12.21V362.28h-4Zm-70.81-95.91V221.9h73.55v4.31Zm65.61,136.07v9.59H745.4V356.26h1.79Zm7.91,1.25v8.34h-6.69v-8.34Z"/><polygon class="cls-3" points="710.76 256.13 708.73 256.13 708.73 249.66 707.46 249.66 707.46 255.5 701.39 255.5 701.39 249.66 700.12 249.66 700.12 255.5 693.91 255.5 693.91 256.13 693.91 256.13 693.91 260.49 710.76 260.49 710.76 256.13"/><path class="cls-3" d="M700.12,231.4v9.07h1.27v-9.09c3.35.62,6.07,6,6.07,9.43h1.26c0-4.23-3.43-10.76-8-10.76-3.62,0-6.76,4.32-7.7,8.49l1.24.28C695,235.47,697.42,231.9,700.12,231.4Z"/><rect class="cls-3" x="687.29" y="230.7" width="7.29" height="1.82"/><rect class="cls-3" x="711.51" y="230.7" width="7.29" height="1.82"/><rect class="cls-3" x="743.25" y="229.79" width="7.29" height="1.82"/><rect class="cls-3" x="712.26" y="251.66" width="7.29" height="1.82"/><rect class="cls-3" x="705.52" y="264.04" width="7.29" height="1.82"/><rect class="cls-3" x="742.09" y="310.39" width="7.29" height="1.82"/><rect class="cls-3" x="743.61" y="323.83" width="7.29" height="1.82"/><rect class="cls-3" x="743.25" y="277.2" width="7.29" height="1.82"/><path class="cls-3" d="M736.89,278c-4.55,0-8,6.53-8,10.76V304h-2v4.33h20V304h-2V288.7C744.89,284.5,741.47,278,736.89,278Zm-.61,25.39h-6.07V294h6.07Zm0-10.66h-6.07v-4c0-3.45,2.72-8.81,6.07-9.43Zm7.34,10.66h-6.07V294h6.07Zm0-10.66h-6.07V279.3c3.35.62,6.07,6,6.07,9.43Z"/><path class="cls-3" d="M746.89,256.13h-2v-15.3c0-4.23-3.42-10.76-8-10.76s-8,6.53-8,10.76v15.3h-2v4.34h20Zm-10.61-.66h-6.07v-9.39h6.07Zm0-10.66h-6.07v-4c0-3.45,2.72-8.81,6.07-9.43Zm7.34,10.66h-6.07v-9.39h6.07Zm0-10.66h-6.07V231.4c3.35.62,6.07,6,6.07,9.43Z"/><line class="cls-5" x1="744.15" y1="362.47" x2="744.15" y2="332.4"/><path class="cls-3" d="M753.08,201.4h2.17l3.76,4.42v5.84h1L761.42,372v1.27H853v-1.45H795.88V339.42l2.29-3.4h.73v-3.89H767.34V336h.73l2.28,3.4v32.43h-7.48L761.5,211.66H878.36v6.51h1.44v-6.51H881V205l3-3.52h1.45v-9.36H753.08Zm36,138.34V372h-5.3V339.74ZM782.46,372h-5.29V339.74h5.29Zm-6.62,0h-4.16V339.74h4.16Zm14.55,0V339.74h4.17v18.63a1.77,1.77,0,1,0,0,.88V372Zm2.78-13.17a.33.33,0,0,1-.66,0,.33.33,0,0,1,.33-.33h0a.31.31,0,0,1,.32.31v0Zm-24.38-25.22h28.66v1H768.79ZM796.43,336l-1.63,2.43H771.44L769.81,336ZM877.66,200v-6.47h2.59V200Zm-1.41,0h-2.52v-6.47h2.52Zm-4,0h-2.52v-6.47h2.52Zm-4,0h-2.51v-6.47h2.51Zm-4,0h-2.52v-6.47h2.52Zm-4,0h-2.52v-6.47h2.52Zm-4,0h-2.52v-6.47h2.52Zm-4,0h-2.52v-6.47h2.52Zm-4,0H846v-6.47h2.51Zm-4.36,0h-2.12v-6.47h2.12Zm-4,0h-2.12v-6.47h2.12Zm-4,0h-1.84v-6.47h2.12Zm-4,0h-2.52v-6.47h2.88Zm-4,0h-2.12v-6.47h2.48Zm-4,0h-2.12v-6.47h2.48Zm-4,0h-1.64v-6.47h2.12Zm-4,0h-1.64v-6.47h2.12Zm-4,0h-1.64v-6.47h2.12Zm-4,0h-2.52v-6.47h2.52Zm-4,0H802v-6.47h2.51Zm-4,0h-2.52v-6.47h2.52Zm-4,0H794v-6.47h2.51Zm-4,0h-1.84v-6.47h2.52Zm-4,0h-1.8v-6.47h2.52Zm-4,0h-1.76v-6.47h2.51Zm-4,0h-1.73v-6.47h2.52Zm-4,0h-1.64v-6.47h2.51Zm-4,0h-1.64v-6.47h2.5Zm-4,0h-1.64v-6.47h2.52Zm-4,0h-1.58v-6.47h2.51Zm-4,0h-1.55v-6.47h2.52Zm-.44,10.25v-3.94H879.56v3.94Zm118.77-5.38H760l-2.92-3.43h125ZM883,200h-2.27v-6.47H883Zm-128.5-6.47h2.37V200h-2.37Z"/><path class="cls-3" d="M791.1,230v-4.58H768.79V230h1.52v20.81H768.8v7.7h22.28v-7.7h-1.51V230Zm-20.85-3.13h19.4v1.7h-19.4Zm9,3.13v4h-7.5v-4Zm8.94,12.42h-7.52v-6.92h7.49Zm-8.94,0h-7.5v-6.92h7.5Zm-7.5,1.45h7.5v6.94h-7.5Zm18,8.35v4.87h-19.5v-4.87h19.5Zm-9-1.41v-6.94h7.49v6.94ZM788.24,234h-7.57v-4h7.49Z"/><path class="cls-3" d="M831.14,230v-4.58H808.83V230h1.53v20.81h-1.51v7.7h22.28v-7.7h-1.51V230Zm-20.89-3.13h19.42v1.7H810.25Zm9,3.14V234h-7.49V230Zm9,12.42h-7.5v-6.93h7.5Zm-9,0h-7.49v-6.93h7.49Zm-7.49,1.45h7.49v6.94h-7.49Zm17.94,8.35v4.87H810.25v-4.87Zm-9-1.41v-6.94h7.55v6.94ZM828.2,234h-7.5V230h7.55Z"/><path class="cls-3" d="M791.1,285.19V280.6H768.79v4.59h1.52V306H768.8v7.69h22.28V306h-1.51V285.19Zm-20.85-3.14h19.4v1.69h-19.4Zm9,3.14v4h-7.5v-4Zm8.94,12.42h-7.52v-6.93h7.49Zm-8.94,0h-7.5v-6.93h7.5Zm-7.5,1.44h7.5v7h-7.5Zm18,8.36v4.87h-19.5v-4.87h19.5Zm-9-1.41v-7h7.49v7Zm7.49-16.77h-7.57v-4h7.49Z"/><path class="cls-3" d="M831.14,285.19V280.6H808.83v4.59h1.53V306h-1.51v7.69h22.28V306h-1.51V285.19Zm-20.89-3.14h19.42v1.69H810.25Zm9,3.14v4h-7.49v-4Zm9,12.42h-7.5v-6.93h7.5Zm-9,0h-7.49v-6.93h7.49Zm-7.49,1.44h7.49v7h-7.49Zm17.94,8.36v4.87H810.25v-4.87Zm-9-1.41v-7h7.55v7Zm7.5-16.77h-7.5v-4h7.55Z"/><path class="cls-3" d="M831.14,340.41v-4.59H808.83v4.59h1.53v20.8h-1.51V369h22.28v-7.7h-1.51v-20.8Zm-20.89-3.15h19.42V339H810.25Zm9,3.15v4h-7.49v-4Zm9,12.41h-7.5V345.9h7.5Zm-9,0h-7.49V345.9h7.49Zm-7.49,1.45h7.49v6.94h-7.49Zm17.94,8.36v4.87H810.25v-4.87Zm-9-1.42v-6.94h7.55v6.94Zm7.5-16.77h-7.5v-4h7.55Z"/><rect class="cls-3" x="763.11" y="216.8" width="10.37" height="2.89"/><rect class="cls-3" x="802.75" y="213.91" width="10.37" height="2.89"/><rect class="cls-3" x="792.6" y="237.26" width="10.37" height="2.89"/><rect class="cls-3" x="768.06" y="262.89" width="10.37" height="2.89"/><rect class="cls-3" x="797.56" y="270.33" width="10.37" height="2.89"/><rect class="cls-3" x="792.07" y="290.38" width="10.37" height="2.89"/><rect class="cls-3" x="797.79" y="320.97" width="10.37" height="2.89"/><rect class="cls-3" x="765.84" y="316.42" width="10.37" height="2.89"/></g></g></g><g id="Layer_2-2-2" data-name="Layer 2"><path class="cls-6" d="M447.53,171.27v-6.92h-2.28C445,148.9,433.18,136,417.39,132.49v-4.84H400.17v4.84c-15.79,3.49-27.6,16.41-27.86,31.86H370v6.92"/><path class="cls-6" d="M429.42,235.49l24.34,12.61a.29.29,0,0,1,.15.35.28.28,0,0,1-.29.23h-4.33a1.08,1.08,0,0,0-.66-1.13L420.88,235l-12-5.53a1.33,1.33,0,0,0-.71-.1,1.29,1.29,0,0,0-.7.1L395.59,235,367.8,247.51a1.08,1.08,0,0,0-.66,1.13h-4.33a.27.27,0,0,1-.29-.23.29.29,0,0,1,.15-.35L387,235.44l21.19-10.68Z"/><polyline class="cls-6" points="362.84 248.64 362.31 255.62 454.19 254.91 453.65 248.68 362.84 248.64"/><circle class="cls-2" cx="408.22" cy="243.22" r="3.69"/><path class="cls-6" d="M408.16,230.45,420.42,236l27,12.49c.1,0,.09.09.09.11a.21.21,0,0,1-.2.11h-9.23a.92.92,0,0,0-.56-.82l-23-10.52-5.76-2.71a1,1,0,0,0-.52-.08,1.08,1.08,0,0,0-.53.08l-5.8,2.73-23,10.5h0a.94.94,0,0,0-.56.82h-9.23c-.13,0-.18,0-.2-.11s0-.06.09-.11L395.91,236Z"/><polyline class="cls-6" points="362 335.06 361.95 381.16 454.47 381.16 454.53 335.06 362 335.06"/><path class="cls-2" d="M377,381.2V352.58a6.37,6.37,0,0,1,6.35-6.36h0a6.36,6.36,0,0,1,6.36,6.36v28.65Z"/><path class="cls-2" d="M402,381.16V352.54a6.36,6.36,0,0,1,6.35-6.36h0a6.36,6.36,0,0,1,6.36,6.36v28.65Z"/><path class="cls-2" d="M426.74,381.2V352.58a6.37,6.37,0,0,1,6.35-6.36h0a6.36,6.36,0,0,1,6.36,6.36v28.65Z"/><polyline class="cls-6" points="373.34 329 388.55 329 388.55 334.05 373.34 334.05 373.34 329"/><polyline class="cls-6" points="400.23 329 415.44 329 415.44 334.05 400.23 334.05 400.23 329"/><polyline class="cls-6" points="427.99 329 443.2 329 443.2 334.05 427.99 334.05 427.99 329"/></g><g id="Layer_5" data-name="Layer 5"><path class="cls-7" d="M664.88,253.88h-3.64v-2.06h-1.19V236.2h2.13v-3.87h-2.25v-2.52h0V224.3h-7.7V226H618.69v-1.7h-8.92v1.37h-130V224h-15.3v-.07l.06-1.38h-.39v-9.63h4.55v-6h-2.95v-5.06h-2.05V200.1h-.62v-6.38H446.51V179.79h2.27v-9.31h-2.24v-6.83h-2.25c-.26-15.26-11.92-28-27.52-31.47V127.4h-17v4.78c-15.6,3.45-27.26,16.21-27.52,31.47H370v6.83h-2.24v9.31H370v13.93H353.44v6.38h-.62v1.75h-2.05v5.06H348.1v4.85h4.27v10.79H352l.06,1.38V224H336.79v1.67h-130V224.3h-8.92V226H164.29v-1.7h-7.7v5.51h0v2.52h-2.25v3.87h2.13v15.62h-1.19v2.06h-3.64v3.93h3.64V381.69h.5v.5H169v.06h24v-.06h13.74V372.7H360.82v9.5h94.87v-9.5H609.77v9.49h13.74v.06h24v-.06h13.71V257.81h3.64Zm-5.83-2.06h-6.38V236.2h6.38Zm1.19,70.46h-7.68v-3.45h7.68Zm-8.68,1V324h-1.33V267.68a2.8,2.8,0,0,0,1.33-.64V317.8h0v1h0v3.45h-.11v1Zm0,7.77h-9.37v-6h9.37Zm1-6h7.68v6h-7.68ZM590.67,368.7h18.12v3H590.67Zm-23.2,3v-3H585.6v3Zm-23.2,0v-3H562.4v3Zm-23.19,0v-3H539.2v3Zm-23.2,0v-3H516v3Zm-23.2,0v-3H492.8v3Zm-151,0v-3H341.8v3Zm-23.2,0v-3H318.6v3Zm-23.2,0v-3H295.4v3Zm-23.2,0v-3h18.13v3Zm-23.2,0v-3H249v3Zm-74.64-34.85h49.47v3H156.27Zm8.68-4.73h10.37v-8H173.7V323H188v1.09h-1.14v8h10.26v3.73H165Zm0-7h9.37v6H165Zm-1,6h-7.68v-6H164Zm1-8.81v-3.45h0v-1h0V267a2.8,2.8,0,0,0,1.33.64V324H165v-.75h.11v-1Zm-8.68-61.19H164v3.29h-7.68Zm41.55-7.21h-33V236.2h32.69V238h.29v15.91Zm1-15.91h6.92v13.85h-6.92Zm280.9-4.2h130v20.11H480.17l-.45-18.27Zm-.55,20.11h-25V251.5H362.31v2.41h-25l.44-17.76h28.86v8.51L362,247v-9.41H345.33v14.88H362v-2.79h92.53v2.79h16.66V237.56H454.52V247l-4.65-2.34v-8.51h28.86Zm148.37,41.67v2.17h-.06V323h.06v1.09H622.1V267.73h5.44v2.57h-.06v25.25Zm15.24,0v2.17H628.54v-2.17Zm-14.18-1.11v-23H642.7v23Zm15.18-24.14v-2.57h5.45V324.1h-5.45V323h.06V297.72h-.06v-2.17h.06V270.3Zm16.46-.58h-7.68v-2.94h7.68Zm0,21.18h-7.68v-3.5h7.68Zm0-25.15h-7.68v-.33h7.68Zm-10.51,1H649v-3.67h.73a1.84,1.84,0,0,1,0,3.67Zm-4.78-2.9h3v2.9h-3Zm-1,2.9h-.73a1.84,1.84,0,0,1-.27-3.67H644Zm-1.22,32.11v23H628.6v-23Zm-32,26.23h7.65v6H610.7Zm8.65,0h9.26v6h-9.26Zm-8.65-10.68h7.65v3.37H610.7Zm8.65-5.6v-3.36H621v7.85h-1.68V310H621v-1.12Zm-8.65-42h7.65v2.86H610.7Zm0,25.16h7.65v3.36H610.7ZM621,277.36h-1.68v-2.58H621Zm-2.68,0H610.7v-2.58h7.65Zm-7.65,1.12h7.65v2.92H610.7Zm8.65,0H621v2.92h-1.68Zm1.68,4v3.82h-1.68v-3.8Zm0,4.94v3.42h-1.68v-3.42Zm0,4.54v3.36h-1.68V292Zm-10.33,4.48h7.65v3.37H610.7Zm8.65,0H621v3.37h-1.68ZM621,273.63h-1.68v-2.86H621Zm-2.68,0H610.7v-2.86h7.65Zm-7.65,8.85h7.65v3.82H610.7Zm7.65,4.94v3.42H610.7v-3.42Zm-7.65,13.5h7.65v3.37H610.7Zm8.65,0H621v3.37h-1.68ZM621,314.37v3.37h-1.68v-3.37Zm-10.33,4.49h7.65v3.36H610.7Zm8.65,0H621v3.36h-1.68Zm1.68,4.48v.71h-1.68v-.71Zm2.16-59.53h3v2.9h-3Zm4.78,2.9h-.73V263H628a1.84,1.84,0,0,1,0,3.67Zm-5.78,0h-.73a1.84,1.84,0,0,1-.27-3.67,1.22,1.22,0,0,1,.27,0h.73Zm-1.16,1v2h-1.68v-2.86h0a2.76,2.76,0,0,0,1.75.84Zm-2.68-2H610.7v-.29h7.65Zm-7.65,39.72h7.65v3.36H610.7Zm7.65,4.48v3.37H610.7v-3.37Zm-7.65,13.45h7.65v.71H610.7Zm7.65,8.73v3.73H610.7v-3.73Zm41.82,15.69H646.58a12.63,12.63,0,0,0-1.83-3h15.49Zm-13.71,4.69v.17H642.7v-.05a7.32,7.32,0,0,0-1.08-3.81h4.19a11.1,11.1,0,0,1,.72,3.69Zm13.71,5H647.53v-3.81h12.71Zm-13.71,0H642.7v-3.81h3.76Zm-232.69-10,1.92-2.61a11,11,0,0,1,2.28,2.93h-3.91a1.19,1.19,0,0,0-.22-.33Zm7.2,5.6v2.69h-.49V352.9H421c.06.1,0,.1,0,.16Zm-1.67,0v2.69h-3.48V352.9h3.47c.07.1.08.1.08.16Zm-3.48,3.69h3.48v3h-3.48Zm4.66,0H421v3h-.49Zm1.67,0h3.29v3h-3.29Zm0-1V352.9h3.28v2.86Zm-1.1-4h-.64a11.94,11.94,0,0,0-.72-3h2.07a12.35,12.35,0,0,0-.64,3Zm-9.69-9.42a11.15,11.15,0,0,1,3.1,1.51l-2,2.49a7.23,7.23,0,0,0-1.61-.77Zm7.09,6.44a10.78,10.78,0,0,1,.77,3h-3.44a7.26,7.26,0,0,0-1-3Zm-2.63,12h3.48v3h-3.48Zm4.66,0H421v3h-.49Zm1.67,0h3.29v3h-3.29Zm0-13h-2.93a12.56,12.56,0,0,0-2-3h7a12.12,12.12,0,0,0-2,3Zm-6.37,16.94h3.48v3h-3.48Zm4.66,0H421v3h-.49Zm1.67,0h3.29v3h-3.29Zm.08-13a11.15,11.15,0,0,1,.78-3h3.47a7.26,7.26,0,0,0-1,3Zm1.25-4a11.22,11.22,0,0,1,2.26-2.91l1.83,2.49a5,5,0,0,0-.37.42Zm4.85-1.08-1.83-2.48a11.15,11.15,0,0,1,3.56-1.87l.55,3.16a7.35,7.35,0,0,0-2.17,1.25Zm4.85-5.84a12.17,12.17,0,0,0-7.92,2.93h-9.07a12.15,12.15,0,0,0-7.92-2.93h-.17a12.15,12.15,0,0,0-7.92,2.93h-9.07a12.19,12.19,0,0,0-7.92-2.93H383a12.15,12.15,0,0,0-7.91,2.93H362v-3h92.53v3H441.34a12.15,12.15,0,0,0-7.91-2.93h-.29Zm-44.38,6.5,1.83-2.49a11.22,11.22,0,0,1,2.26,2.91h-3.72l-.26-.36Zm7.09,5.7v2.69h-.49v-2.86H396v.23Zm-1.68-.17v2.86H391v-2.86Zm0,3.86v3H391v-3Zm1.18,0H396v3h-.49Zm1.67,0h3.48v3H397Zm-1.11-5h-.63a12.87,12.87,0,0,0-.72-3h2.07a12.32,12.32,0,0,0-.63,3.07Zm-2.6-3a11.15,11.15,0,0,1,.78,3H391a7.26,7.26,0,0,0-1-3Zm-2.43,12h3.29v3H391Zm4.47,0H396v3h-.49Zm1.67,0h3.48v3H397Zm0-5v-2.86h3.47v2.86Zm4.84-11.9a11.15,11.15,0,0,1,3.1-1.51l.56,3.23a7.23,7.23,0,0,0-1.61.77Zm-4.8,3.93h-2.93a12.56,12.56,0,0,0-2-3h7a12.14,12.14,0,0,0-1.95,3.06Zm-7.24-3.56L388,346.64a7.31,7.31,0,0,0-2.28-1.19l.55-3.16a11.09,11.09,0,0,1,3.68,1.93Zm1.06,20.5h3.29v3H391Zm4.47,0H396v3h-.49Zm1.67,0h3.48v3H397Zm.08-13a11.52,11.52,0,0,1,.77-3h3.67a7.26,7.26,0,0,0-1,3Zm1.25-4a11,11,0,0,1,2.28-2.93l1.92,2.61c-.1.1-.2.21-.29.32Zm-192.73,4.86H193v-.17a11.86,11.86,0,0,0-.58-3.69h13.32Zm-49.47,1H169v3.81H156.27Zm13.71,0h3.77v3.81H170Zm.65-4.86h4.2a7.32,7.32,0,0,0-1.08,3.81v0H170v-.17a10.86,10.86,0,0,1,.63-3.57ZM198,332h7.65v3.73H198Zm-9-9h0V297.72h0v-2.17h0V270.3h0v-2.57h5.45v56.34H189Zm-15.24-25.26v-2.17H188v2.17Zm14.18,1.12v23H173.78v-23ZM172.73,323v1.09h-5.45V267.73h5.45v2.57h-.06v25.25h.06v2.17h-.06V323Zm-16.46-40.53H164v3.91h-7.68Zm17-15.72h-.73v-3.67h.73a1.84,1.84,0,0,1,.27,3.67Zm-4.78-2.9h3v2.9h-3Zm-1,2.9h-.73a1.84,1.84,0,0,1,0-3.67h.73Zm6.27,27.71v-23h14.13v23Zm23.31,15.47v3.37H195.4v-7.85h1.67v3.36h-1.66v1.12Zm-1.67-35.15h1.67v2.58H195.4Zm10.32,6.62h-7.65v-2.92h7.65Zm0-4h-7.65v-2.58h7.65Zm-10.32,1.12h1.67v2.92H195.4Zm0,4h1.67v3.82H195.4Zm0,4.94h1.67v3.42H195.4Zm0,9h1.67v3.37H195.4Zm2.67,0h7.65v3.37h-7.65Zm7.65-1.12h-7.65V292h7.65Zm-8.65,0H195.4V292h1.67Zm-1.67,23.54h1.67v3.36H195.4Zm2.67,0h7.65v3.36h-7.65Zm7.65-1.12h-7.65v-3.37h7.65Zm-8.65,0H195.4v-3.37h1.67Zm-1.67-13.45v-3.37h1.67v3.37Zm2.67-3.37h7.65v3.37h-7.65Zm7.65-10.08h-7.65v-3.42h7.65Zm-7.65-4.54V282.5h7.65v3.82Zm7.65-16.64h-7.65v-2.86h7.65Zm0,1.11v2.86h-7.65v-2.86Zm-8.65,2.86H195.4v-2.86h1.67Zm-1.67,49.71h1.67v.71H195.4Zm2.67,0h7.65v.71h-7.65Zm7.65-10.08h-7.65v-3.37h7.65Zm-7.65-4.49v-3.36h7.65v3.36Zm7.65-43.08h-7.65v-.29h7.65ZM197,266.82h0v2.86h-1.67v-2a2.76,2.76,0,0,0,1.69-.86Zm-2.07-.09h-.73v-3.67H195a1.84,1.84,0,0,1,.27,3.67H195Zm-4.78-2.9h3v2.9h-3Zm-1,2.9h-.73a1.84,1.84,0,0,1,0-3.67h.73Zm6.22,58.34h1.67v6h-9.26v-6Zm2.67,0h7.65v6h-7.65Zm164.65-67.26v7.94H336.38v-8Zm1,3.58h89v4.39h-89ZM480.13,333.1h-10v-3.56h10Zm-24.44,2.72v-1.26H456v-5h11.86V306.28h1.26v29.54Zm182,9.78.55-3.8a11.19,11.19,0,0,1,3.76,1.77l-2.35,3a6.88,6.88,0,0,0-2-1Zm-3.89-.24-.85-3.59a10.81,10.81,0,0,1,2.59-.32,9.88,9.88,0,0,1,1.71.15l-.54,3.76a6.85,6.85,0,0,0-1.28-.12h-.29a7.73,7.73,0,0,0-1.36.12Zm-1.8-3.31.84,3.56a7.5,7.5,0,0,0-2,1l-2.44-2.55A11.21,11.21,0,0,1,632,342.05Zm-4.29,2.69,2.4,2.51a6.38,6.38,0,0,0-.51.53h-4a11.09,11.09,0,0,1,2.08-3Zm-3.22,3H610.77v-3h15.52a11.78,11.78,0,0,0-1.83,3Zm-15.67,6v2h-1.94v-.47a7.48,7.48,0,0,0-.45-2.52h2.33a8.69,8.69,0,0,1,0,1Zm-1.94,7h1.94v3h-1.94Zm0-1v-3h1.94v3Zm-.9-8a7.21,7.21,0,0,0-1-1.39l1.94-2.09a8.83,8.83,0,0,1,1.66,3.48Zm-13.85,8H590.7v-3h1.43Zm-22.31-8h-2.08a9,9,0,0,1,1.61-3.42l1.7,1.77a7.88,7.88,0,0,0-1.26,1.67Zm-.89,8H567.5v-3h1.43Zm0-4.45v.47H567.5v-2a5.49,5.49,0,0,1,.06-1h1.82a7.23,7.23,0,0,0-.48,2.52Zm-8.9-2.52h2.34a8.39,8.39,0,0,1,.06,1v2h-1.95v-.47a7.34,7.34,0,0,0-.48-2.54Zm-14.3,7H544.3v-3h1.43Zm-23.2,0h-1.42v-3h1.42Zm-10.33-9.36,1.94-2.09a8.83,8.83,0,0,1,1.66,3.48h-2.61a6.89,6.89,0,0,0-1-1.43Zm-12.86,9.36h-1.43v-3h1.43Zm-23.2,0h-1.43v-3h1.43Zm-150.46,0h-1.94v-3h1.94Zm-22.3-8h-2.61a8.83,8.83,0,0,1,1.66-3.48l1.94,2.09a7.24,7.24,0,0,0-1,1.38Zm-.9,8h-1.94v-3h1.94Zm-22.3-8h-2.61a9,9,0,0,1,1.66-3.48l1.95,2.09a7.75,7.75,0,0,0-1,1.38Zm-.89,8h-2v-3h2Zm-23.2-4.45v.47h-1.95v-2a8.39,8.39,0,0,1,.06-1h2.34a7.34,7.34,0,0,0-.48,2.49Zm-8.45,1.47H249v3h-1.43Zm0-1v-.47a7.24,7.24,0,0,0-.45-2.52H249c0,.33.06.67.06,1v2Zm-2.12-5.64,1.7-1.77a9,9,0,0,1,1.61,3.42h-2.08a7.44,7.44,0,0,0-1.26-1.69Zm-12.63,9.62h-2v-3h2Zm-46.43-12.48,2.4-2.51a10.85,10.85,0,0,1,2.11,3h-4a5.39,5.39,0,0,0-.54-.53Zm-6.61-1.89-.54-3.76a9.88,9.88,0,0,1,1.71-.15,10.81,10.81,0,0,1,2.59.32l-.85,3.59a7.5,7.5,0,0,0-1.34-.12h-.29a6.37,6.37,0,0,0-1.31.08Zm4.72-3.31a11.08,11.08,0,0,1,3.56,2l-2.44,2.55a7.5,7.5,0,0,0-2-1Zm5.68,2.74h15.52v3H192.05a11.78,11.78,0,0,0-1.83-3Zm146.16-78h10v2.52h-10Zm116.47,0a1.84,1.84,0,1,1,.27,3.67h-1v-3.67Zm2.81,7.18h11.25V296.3H455.66Zm12.19,23.23V274h1.29v30.32H453.3L453.14,274h1.57v23.23Zm123.81,50.59h-7a10.18,10.18,0,0,0-3.64-3h14.28a10,10,0,0,0-3.67,2.95Zm-2,8h-3v-3h3.11c0,.33,0,.67,0,1Zm-3.22-4a9.5,9.5,0,0,0-1.14-3H591a10,10,0,0,0-1.15,3Zm-18-4h-7.05a10.08,10.08,0,0,0-3.61-3h14.28a9.91,9.91,0,0,0-3.63,2.95Zm-.67,1a9.5,9.5,0,0,0-1.14,3h-3.42a10,10,0,0,0-1.15-3Zm-22.53-1h-7a10.13,10.13,0,0,0-3.65-3H548.9a10,10,0,0,0-3.64,2.95Zm-2,8h-3v-2a6.57,6.57,0,0,0,0-1h3.12a8.34,8.34,0,0,0,0,1Zm-3.22-4a10,10,0,0,0-1.15-3h5.71a9.75,9.75,0,0,0-1.14,3Zm-18-4h-7a10,10,0,0,0-3.62-3h14.28a10.06,10.06,0,0,0-3.65,2.95Zm-2,8h-3v-3h3.12c0,.33,0,.67,0,1Zm-3.22-4a10,10,0,0,0-1.15-3h5.72a10,10,0,0,0-1.15,3Zm-18-4h-7a10,10,0,0,0-3.62-3h14.28a10.2,10.2,0,0,0-3.63,2.95Zm-2,8h-3v-2a8.37,8.37,0,0,0-.05-1h3.12v1Zm-3.22-4a9.75,9.75,0,0,0-1.14-3h5.71a10,10,0,0,0-1.15,3Zm-18-4h-20v-3H479.2a10.2,10.2,0,0,0-3.54,2.95Zm-2,8h-18V353l18-.11c0,.33-.05.65-.05,1Zm-28-2.86h8.9v2.86h-8.89v-2.69a2.07,2.07,0,0,0,0-.25Zm8.9-1h-8.95a11.94,11.94,0,0,0-.73-3.11h9.68Zm-10.07,7.84h-3.66v-3h3.66Zm1.18-3h8.89v3h-8.89ZM455.68,352v-3.11H475a10,10,0,0,0-1.15,3Zm-118.46-7.1h23.59v3H341V348a10,10,0,0,0-3.77-3.21Zm-12.6,3.07v-.08h-7a10,10,0,0,0-3.62-3h14.28a10.08,10.08,0,0,0-3.65,3Zm-1.95,7.89h-3v-2a6.57,6.57,0,0,0-.05-1h3.12a8.37,8.37,0,0,0-.05,1Zm-3.22-4a10,10,0,0,0-1.15-3H324a9.52,9.52,0,0,0-1.15,3Zm-18-3.92v-.06h-7a10,10,0,0,0-3.62-3h14.28a10.12,10.12,0,0,0-3.67,3Zm-2,7.91h-3v-2a8.34,8.34,0,0,0,0-1h3.12v1Zm-3.22-4a9.52,9.52,0,0,0-1.15-3h5.72a10,10,0,0,0-1.15,3Zm-18-3.94h-7a10,10,0,0,0-3.62-3h14.28a10,10,0,0,0-3.63,3Zm-2,7.93h-3v-2a8.37,8.37,0,0,0-.05-1h3.12c0,.33-.05.67-.05,1Zm-3.22-4a9.75,9.75,0,0,0-1.14-3h5.71a10,10,0,0,0-1.15,3Zm-18-4h-7a10.08,10.08,0,0,0-3.61-3h14.27a10,10,0,0,0-3.59,3Zm-.65,1a9.5,9.5,0,0,0-1.14,3h-3.43a9.5,9.5,0,0,0-1.14-3Zm-22.54-1h-7a10.08,10.08,0,0,0-3.61-3h14.28a10,10,0,0,0-3.6,3Zm-2,8h-3v-2a6.57,6.57,0,0,0,0-1h3.12a8.39,8.39,0,0,0-.06,1Zm-3.21-4a10,10,0,0,0-1.15-3h5.71a9.75,9.75,0,0,0-1.14,3Zm-18-4h-2v-3h5.58a10.16,10.16,0,0,0-3.49,3Zm162.18,5.28v2.69H362V352.9h8.9c0,.1,0,.1,0,.16Zm-10.06-4.28v3.11l-18.16-.11a10,10,0,0,0-1.15-3Zm0,4.11v2.86h-18v-2a6.7,6.7,0,0,0-.05-1Zm1.17,3.86h8.89v3H362Zm9-5h-9v-3h9.68a11.8,11.8,0,0,0-.58,3ZM347.37,274h1.29v23.23H361.8V274h1.57l-.16,30.32H347.37Zm2.23,0h11.25v22.29H349.6Zm12.9-6.76h1.89v3.25h-.73a1.86,1.86,0,0,1-1.84-1.84,1.81,1.81,0,0,1,.68-1.45Zm9.51,1.41a1.86,1.86,0,0,1-1.84,1.84h-.73V267.2h1.89a1.83,1.83,0,0,1,.67,1.41ZM373.34,329h15.21v2H373.34Zm20.1-61.42h3.05v2.91h-3.05Zm-1,60.31v-1h0V271.48h5l-.26,55.41h0v1h2.16V328h-.87v4.6h-8v-4.71Zm24.7,0h2.18v-1h0L419,271.45h5v55.41h0v1h2v4.72h-8V328h-.89ZM420,267.54h3.05v2.91H420ZM428,329h15.2v2H428Zm19.36-1.11v-1h0l-.26-55.41h5v55.41h0v1H454v4.72h-8.85V327.9Zm.74-60.31h3v2.91h-3Zm5.25,39v-.28h0Zm-52,22.42h13.73v2.21H401.39Zm13.79-1.56a1.61,1.61,0,0,0-.06.44V328h-6.29V306.75h6.35Zm-7.5.56h-6.29v-.12a1.61,1.61,0,0,0-.06-.44V306.75h6.35Zm-44.49-21.68Zm8.15,26.28h-8.85v-4.71h1.87v-1h0V271.48h5l-.26,55.41h0v1h2.16Zm-5.95-65h3.05v2.91h-3.05Zm-15.76,38.74h12.56v19.6a2,2,0,0,0-1.7,2v.7H349.63ZM373.34,332h15.21v2.05H373.34Zm28.05.16h13.73v1.89H401.39ZM428,332h15.2v2.05H428Zm26.35-6.13v-19.6h12.56v22.26H456v-.7a2,2,0,0,0-1.68-1.95Zm-7.25-55.43h-.73a1.84,1.84,0,0,1-.27-3.67h1Zm-1,1-.58,54.43h-.34a2,2,0,0,0-2,2V328H428v-.12a2,2,0,0,0-2-2h-.62l-.29-54.43a2.84,2.84,0,0,0,2.57-2.81,2.75,2.75,0,0,0-.7-1.83H444.2a2.75,2.75,0,0,0-.7,1.83,2.83,2.83,0,0,0,2.57,2.78Zm-19.43-2.81a1.86,1.86,0,0,1-1.84,1.84h-.73V266.8h.73a1.85,1.85,0,0,1,1.81,1.81ZM419,270.45h-.73a1.84,1.84,0,0,1-.27-3.67h1Zm-1,1-.58,54.43h-.34a2,2,0,0,0-.8.18V306.75h1v-1h-18v1h1V326a2,2,0,0,0-.8-.18h-.34l-.58-54.43a2.81,2.81,0,0,0,2.56-3,2.88,2.88,0,0,0-.68-1.6h15.77a2.81,2.81,0,0,0,1.88,4.64Zm-18-2.81a1.86,1.86,0,0,1-1.84,1.84h-.73v-3.67h.73a1.84,1.84,0,0,1,1.9,1.78v0Zm-7.62,1.84h-.73a1.84,1.84,0,1,1-.27-3.67h1Zm-1,1-.29,54.43h-.62a2,2,0,0,0-2,2V328H373.34v-.12a2,2,0,0,0-2-2H371l-.58-54.43a2.83,2.83,0,0,0,2.57-2.81,5.1,5.1,0,0,0-.64-1.85h17.21a2.75,2.75,0,0,0-.7,1.83,2.83,2.83,0,0,0,2.58,2.8Zm-29.79-4.66a5.51,5.51,0,0,0-.83,1.85,2.82,2.82,0,0,0,2.56,2.81V272h-16v-5.19h14.27Zm-25.27,3.53h10v3.56h-10Zm0,4.56h10v3.56h-10Zm0,4.56h10V283h-10Zm0,4.55h10v3.56h-10Zm0,4.56h10v3.56h-10Zm0,4.56h10v3.56h-10Zm0,4.56h10v3.56h-10Zm0,4.56h10v3.55h-10Zm0,4.55h10v3.56h-10Zm0,4.56h10v3.56h-10Zm0,4.56h10v3.56h-10Zm0,4.56h10V324h-10Zm0,4.55h10v3.56h-10Zm0,4.56h10v3.56h-10Zm11-23.26h1.26V329.6h11.86v5h.33v1.26h-13.4Zm13.45,37.51h-154v-3H360.82Zm-152.78,5a9.52,9.52,0,0,0-1.15,3h-.15v-3Zm-1.3,4Zm2.92,7h-1.94v-3h1.94Zm-1.94,1h1.94v3h-1.94Zm1.94-5.45v.47h-1.94v-2a8.39,8.39,0,0,1,.06-1h2.33a7.61,7.61,0,0,0-.4,2.41Zm.9-3.52H208a8.83,8.83,0,0,1,1.66-3.48l1.94,2.09a7.49,7.49,0,0,0-1,1.27Zm1.71-2.09-2-2.15a9,9,0,0,1,3.31-2.15l1.17,2.9a7.27,7.27,0,0,0-2.43,1.28Zm3.46-1.64-1.19-3a9.08,9.08,0,0,1,2.14-.26h.2a9,9,0,0,1,2.53.36L218.28,348a6.43,6.43,0,0,0-1.24-.12,7.17,7.17,0,0,0-1.31.12Zm4.62-2.52a8.84,8.84,0,0,1,3,2.06l-1.8,1.88a7.5,7.5,0,0,0-2.27-1.2Zm3.64,2.83a8.92,8.92,0,0,1,1.62,3.42h-2.09a7.62,7.62,0,0,0-1.23-1.65Zm1.79,4.42a8.39,8.39,0,0,1,.06,1v2h-1.43v-.47a7.24,7.24,0,0,0-.45-2.52Zm-1.37,4h1.43v3h-1.43Zm2.46,0h3v3h-3Zm6-1.47v.47h-2v-2a5.49,5.49,0,0,1,.06-1h2.34a7.24,7.24,0,0,0-.36,2.4Zm.89-3.52h-2.6a8.83,8.83,0,0,1,1.66-3.48l1.94,2.09a8.38,8.38,0,0,0-1,1.26Zm1.71-2.09-2-2.15a9,9,0,0,1,3.3-2.15l1.18,2.9a7.48,7.48,0,0,0-2.44,1.27Zm3.47-1.64-1.2-3a9.64,9.64,0,0,1,2.14-.26H240a9,9,0,0,1,2.52.36L241.48,348a6.54,6.54,0,0,0-1.25-.12,7.07,7.07,0,0,0-1.3.12Zm4.62-2.52a9.13,9.13,0,0,1,3,2.06l-1.8,1.88a7.67,7.67,0,0,0-2.28-1.2Zm6.47,7.25h3.11v3h-3v-2a10.58,10.58,0,0,0-.09-1.13Zm4.33-1a8.83,8.83,0,0,1,1.66-3.48l1.94,2.09a7.2,7.2,0,0,0-1,1.45v-.06Zm4.31-2.09-2-2.15a9,9,0,0,1,3.31-2.15l1.18,2.9a7.16,7.16,0,0,0-2.45,1.27Zm3.47-1.64-1.2-3a8.6,8.6,0,0,1,2.14-.27h.21a9,9,0,0,1,2.52.36l-1.08,2.7a6.54,6.54,0,0,0-1.25-.12,7.07,7.07,0,0,0-1.3.12Zm4.62-2.52a9.13,9.13,0,0,1,3,2.06l-1.8,1.88a7.67,7.67,0,0,0-2.28-1.2Zm3.64,2.83a9,9,0,0,1,1.61,3.42h-1.91v.37a7.51,7.51,0,0,0-1.4-2Zm1.79,4.42c0,.33.06.67.06,1v2h-1.43v-.47a7.48,7.48,0,0,0-.45-2.52Zm-1.37,4h1.43v3h-1.43Zm2.45,0h3v3h-3Zm6-1.47v.47h-2v-2a8.39,8.39,0,0,1,.06-1h2.34a7.23,7.23,0,0,0-.41,2.39Zm2.6-5.61-2-2.15a9,9,0,0,1,3.31-2.15l1.18,2.9a7.32,7.32,0,0,0-2.45,1.26Zm3.47-1.64-1.2-3a9.08,9.08,0,0,1,2.14-.26h.2a9,9,0,0,1,2.53.36L287.88,348a6.54,6.54,0,0,0-1.25-.12,7.07,7.07,0,0,0-1.3.12Zm4.61-2.52a8.84,8.84,0,0,1,3,2.06l-1.79,1.88a7.67,7.67,0,0,0-2.28-1.2Zm3.65,2.83a9,9,0,0,1,1.61,3.42h-2.09a7.58,7.58,0,0,0-1.22-1.65Zm1.78,4.42a8.39,8.39,0,0,1,.06,1v2H294v-.47a7.25,7.25,0,0,0-.46-2.52Zm-1.36,4h1.42v3H294Zm2.45,0h3v3h-3Zm6-1.47v.47h-1.94v-2a8.39,8.39,0,0,1,.06-1h2.34a7.15,7.15,0,0,0-.43,2.38Zm2.61-5.61-2-2.15a9,9,0,0,1,3.31-2.15l1.17,2.9a7.29,7.29,0,0,0-2.45,1.25Zm3.46-1.64-1.19-3a9.08,9.08,0,0,1,2.14-.26h.2a9,9,0,0,1,2.53.36L311.08,348a6.54,6.54,0,0,0-1.25-.12,7.17,7.17,0,0,0-1.31.12Zm4.62-2.52a8.84,8.84,0,0,1,3,2.06l-1.8,1.88a7.5,7.5,0,0,0-2.27-1.2Zm3.64,2.83a8.92,8.92,0,0,1,1.62,3.42h-2.09a7.58,7.58,0,0,0-1.22-1.65Zm1.79,4.42a8.39,8.39,0,0,1,.06,1v2h-1.4v-.47a7.24,7.24,0,0,0-.45-2.52Zm-1.37,4h1.43v3h-1.4Zm2.46,0h3v3h-3Zm6-1.47v.47h-1.94v-2a8.39,8.39,0,0,1,.06-1h2.33a7.35,7.35,0,0,0-.43,2.37Zm.9-3.52h-2.61a8.83,8.83,0,0,1,1.66-3.48l1.94,2.09a7.2,7.2,0,0,0-1,1.23Zm1.71-2.09-2-2.15a9,9,0,0,1,3.31-2.15l1.17,2.9a7.14,7.14,0,0,0-2.46,1.24Zm3.46-1.64-1.19-3a9.08,9.08,0,0,1,2.14-.26h.2a9,9,0,0,1,2.53.36L334.27,348a6.43,6.43,0,0,0-1.24-.12,7.17,7.17,0,0,0-1.31.12Zm4.62-2.52a8.84,8.84,0,0,1,3,2.06l-1.8,1.88a7.5,7.5,0,0,0-2.27-1.2ZM340,348.5a8.89,8.89,0,0,1,1.62,3.43h-2.09a7.62,7.62,0,0,0-1.23-1.65Zm1.79,4.44a8.39,8.39,0,0,1,.06,1v2H340.4v-.47A7.24,7.24,0,0,0,340,353Zm-1.37,4h1.43v3H340.4Zm2.46,0h18v3h-18Zm19.13,4h8.89v3H362Zm10.07,0h3.67v3H372Zm0-1v-3h3.67v3Zm0-4v-2.86h3.66v2.86Zm0-8H362v-3h12.14a12.41,12.41,0,0,0-2,2.84Zm-10-12.88h92.53v4.75H362Zm92.53,12.72H444.41a12.56,12.56,0,0,0-2-3h12.14Zm-11.4,0H439a9.2,9.2,0,0,0-.76-.77l2.12-2.57a11.11,11.11,0,0,1,2.76,3.34Zm.48,1a11.11,11.11,0,0,1,.79,3.11h-3.64a7.3,7.3,0,0,0-1-3.11Zm-2.81,4.11h3.65v2.86h-3.66Zm0,7.84h3.66v3H440.8Zm4.84,0h8.89v3h-8.89Zm10.06-4h18v3h-18Zm20.42-1.47v.47h-1.43v-2a8.39,8.39,0,0,1,.06-1h1.82a7.42,7.42,0,0,0-.46,2.55Zm.89-3.52h-2.09a8.89,8.89,0,0,1,1.62-3.43l1.7,1.77a7.53,7.53,0,0,0-1.24,1.68Zm2-2.31-1.8-1.88a8.84,8.84,0,0,1,3-2.06l1.08,2.74a7.44,7.44,0,0,0-2.29,1.22Zm3.26-1.43-1.13-2.85a9,9,0,0,1,2.53-.36h.2a9.08,9.08,0,0,1,2.14.26l-1.19,3a7.18,7.18,0,0,0-1.31-.13,7.74,7.74,0,0,0-1.27.08Zm4.7-2.65a9,9,0,0,1,3.31,2.15l-2,2.15a7.26,7.26,0,0,0-2.48-1.4Zm4,2.91a8.83,8.83,0,0,1,1.66,3.48H490a7.21,7.21,0,0,0-1-1.39Zm1.83,4.48a8.39,8.39,0,0,1,.06,1v2h-1.94v-.47a7.48,7.48,0,0,0-.45-2.52Zm-1.88,4h1.94v3h-1.94Zm3,0h3v3h-3Zm5.48-1.47v.47H498v-2a8.39,8.39,0,0,1,.06-1h1.82a7.4,7.4,0,0,0-.54,2.54Zm.89-3.52H498.2a8.92,8.92,0,0,1,1.62-3.42l1.69,1.77a7.8,7.8,0,0,0-1.31,1.66Zm2-2.31-1.8-1.88a8.84,8.84,0,0,1,3-2.06l1.08,2.74a7.7,7.7,0,0,0-2.39,1.21Zm3.26-1.43-1.13-2.85a9,9,0,0,1,2.53-.36h.2a9.08,9.08,0,0,1,2.14.26L508,348a7.18,7.18,0,0,0-1.31-.13,7.46,7.46,0,0,0-1.25.13Zm4.7-2.65a9,9,0,0,1,3.31,2.15l-2,2.15a7.26,7.26,0,0,0-2.48-1.4Zm5.8,7.39a8.39,8.39,0,0,1,.06,1v2h-1.94v-.47a7.25,7.25,0,0,0-.46-2.52Zm-1.88,4H516v3h-1.94Zm3,0h3v3h-3Zm5.47-1.47v.47h-1.42v-2a8.39,8.39,0,0,1,.06-1H523a7.08,7.08,0,0,0-.5,2.53Zm.9-3.52h-2.09a9,9,0,0,1,1.61-3.42l1.7,1.77a7.43,7.43,0,0,0-1.36,1.65Zm2-2.31-1.79-1.88a8.84,8.84,0,0,1,3-2.06l1.08,2.74a7.71,7.71,0,0,0-2.46,1.2ZM528.8,348l-1.12-2.85a9,9,0,0,1,2.53-.36h.2a9.08,9.08,0,0,1,2.14.26l-1.2,3a7.07,7.07,0,0,0-1.3-.13,6.76,6.76,0,0,0-1.42.06Zm4.71-2.65a9,9,0,0,1,3.31,2.15l-2,2.15a7.21,7.21,0,0,0-2.49-1.4Zm4,2.91a9,9,0,0,1,1.66,3.48h-2.61a7.21,7.21,0,0,0-1-1.39Zm1.83,4.48a8.39,8.39,0,0,1,.06,1v2h-2v-.47a7.24,7.24,0,0,0-.45-2.52Zm-1.89,4h2v3h-2Zm3,0h3v3h-3Zm5.47-1.47v.47h-1.43v-2a5.49,5.49,0,0,1,.06-1h1.82a7.36,7.36,0,0,0-.67,2.52Zm.9-3.52h-2.09a9,9,0,0,1,1.61-3.42l1.7,1.77a7.51,7.51,0,0,0-1.44,1.64Zm2-2.31-1.8-1.88a9.13,9.13,0,0,1,3-2.06l1.08,2.74a7.63,7.63,0,0,0-2.53,1.19Zm3.26-1.43L551,345.18a9,9,0,0,1,2.52-.36h.21a8.6,8.6,0,0,1,2.14.27l-1.2,3a7.07,7.07,0,0,0-1.3-.13,7.56,7.56,0,0,0-1.5.09Zm4.71-2.65a9,9,0,0,1,3.31,2.15l-2,2.15a7.31,7.31,0,0,0-2.49-1.4Zm4,2.91a8.83,8.83,0,0,1,1.66,3.48h-2.58v.06a7.2,7.2,0,0,0-1-1.45Zm2.88,4.48h3.11v3h-3v-2a1.38,1.38,0,0,1-.4-1Zm8.39-3.31-1.8-1.88a9.13,9.13,0,0,1,3-2.06l1.09,2.74a7.49,7.49,0,0,0-2.58,1.19ZM575,348l-1.12-2.85a9,9,0,0,1,2.52-.36h.21a9.08,9.08,0,0,1,2.14.26l-1.2,3a7.07,7.07,0,0,0-1.3-.13A7.43,7.43,0,0,0,575,348Zm4.71-2.65a9,9,0,0,1,3.3,2.15l-2,2.15a7.48,7.48,0,0,0-2.49-1.4Zm4,2.91a8.83,8.83,0,0,1,1.66,3.48h-2.6a7.67,7.67,0,0,0-1-1.39Zm1.84,4.48c0,.33.06.67.06,1v2h-2v-.47a7.24,7.24,0,0,0-.45-2.52Zm-1.89,4h2v3h-2Zm3,0h3v3h-3Zm5.47-1.47v.47H590.7v-2a8.39,8.39,0,0,1,.06-1h1.82a7.34,7.34,0,0,0-.48,2.54Zm.89-3.52h-2.08a8.76,8.76,0,0,1,1.61-3.42l1.7,1.77a7.53,7.53,0,0,0-1.25,1.66Zm2-2.31-1.8-1.88a8.84,8.84,0,0,1,3-2.06l1.08,2.74a7.68,7.68,0,0,0-2.3,1.21Zm3.26-1.43-1.12-2.85a9,9,0,0,1,2.52-.36h.2a9.08,9.08,0,0,1,2.14.26l-1.19,3a7.18,7.18,0,0,0-1.31-.13,7,7,0,0,0-1.29.07Zm4.71-2.65a9,9,0,0,1,3.3,2.15l-2,2.15a7.26,7.26,0,0,0-2.48-1.4Zm1.25-.58h5.58v3h-2a10.12,10.12,0,0,0-3.63-3Zm5.58-1H455.69v-3H609.77ZM480.13,328.54h-10V325h10Zm0-4.56h-10v-3.55h10Zm0-4.55h-10v-3.56h10Zm0-4.56h-10v-3.56h10Zm0-4.56h-10v-3.56h10Zm0-4.56h-10V302.2h10Zm0-4.55h-10v-3.56h10Zm0-4.56h-10v-3.56h10Zm0-4.56h-10v-3.56h10Zm0-4.56h-10V284h10Zm0-4.56h-10v-3.55h10Zm0-4.55h-10v-3.56h10Zm0-4.56h-10v-3.56h10Zm0-4.56h-10v-2.52h10Zm-11,2.67h-16v-.54a2.82,2.82,0,0,0,2.56-2.81,2.72,2.72,0,0,0-.71-1.84h14.16ZM365,255.61h86.59v4.84H365ZM336.38,334.1h10v1.72h-10Zm24.44,2.72v3H206.74v-3Zm-155.08,7H189.4v.11a12,12,0,0,0-5.57-3.09h21.91Zm-27.44-2,.54,3.8a6.82,6.82,0,0,0-2,1l-2.35-3a11,11,0,0,1,3.81-1.82Zm-4.55,2.39,2.35,3a7.27,7.27,0,0,0-.54.57H171a11,11,0,0,1,2.75-3.59Zm0,14.26v3.39H170v-3.39Zm0,4.39v3.39H170v-3.39Zm1-10.25a6.37,6.37,0,0,1,6.35-6.35h.29a6.36,6.36,0,0,1,6.36,6.35v28.6h-13Zm12.92-3.81h3.69a11,11,0,0,1,.64,3.69v.17h-3.25v-.05a7.29,7.29,0,0,0-1.08-3.83Zm20.05,15.94h1.94v3h-1.94Zm2.69,3V355.28a6.63,6.63,0,0,1,13.26,0V367.7Zm14-7h1.43v3h-1.43Zm2.46,0h3v3h-3Zm4,0h2v3h-2Zm2.69,7V355.28a6.63,6.63,0,0,1,12.62-2.83v.31h.15a6.62,6.62,0,0,1,.5,2.52V367.7Zm14-7H249v3h-1.43Zm2.46,0h3v3h-3Zm0-1v-3h3v3Zm4-3H256v3H254Zm2.69,10.95V355.28a6.63,6.63,0,0,1,13.26,0V367.7Zm14-7h1.43v3h-1.43Zm2.45,0h3v3h-3Zm4,0h2v3h-2Zm2.69,7V355.28a6.62,6.62,0,0,1,.5-2.52h.3v-.63a6.63,6.63,0,0,1,12.46,3.15V367.7Zm14-7h1.42v3H294Zm2.45,0h3v3h-3Zm4,0h1.94v3H300.4Zm2.69,7V355.28a6.62,6.62,0,0,1,.5-2.52h.05v-.12a6.63,6.63,0,0,1,12.71,2.64V367.7Zm14-7h1.43v3H317.2Zm2.46,0h3v3h-3Zm4,0h1.94v3h-1.94Zm2.69,7V355.28a6.63,6.63,0,0,1,13.26,0V367.7Zm14-7h1.43v3H340.4Zm2.46,0h18v3h-18Zm19.13,4h8.89v3H362Zm10.07,0h3.67v3H371.9Zm.08-13a10.78,10.78,0,0,1,.77-3h3.86a7.26,7.26,0,0,0-1,3Zm1.25-4a11.14,11.14,0,0,1,2.73-3.34l2.12,2.57a9.2,9.2,0,0,0-.76.77ZM379,346.4l-2.12-2.57a11.46,11.46,0,0,1,3.24-1.53l.71,3.22A7.72,7.72,0,0,0,379,346.4Zm60.55-2.57-2.12,2.57a7.72,7.72,0,0,0-1.83-.88l.71-3.22a11.3,11.3,0,0,1,3.28,1.53Zm1.2,20.89h3.66v3h-3.66Zm4.84,0h8.89v3h-8.89Zm10.06-4h18v3h-18Zm19,0h1.43v3h-1.43Zm2.17,7V355.28a6.63,6.63,0,0,1,13.26,0V367.7Zm14-7h1.94v3h-1.94Zm3,0h3v3h-3Zm4.05,0h1.43v3h-1.43Zm2.17,7V355.28a6.63,6.63,0,0,1,12.71-2.64v.12h0a6.62,6.62,0,0,1,.5,2.52V367.7Zm14-7h2v3h-1.94Zm3,0h3v3h-3Zm4.05,0h1.42v3h-1.42Zm2.17,7V355.28a6.63,6.63,0,1,1,13.26,0V367.7Zm14-7h2v3h-2Zm3,0h3v3h-3Zm4,0h1.43v3h-1.43Zm2.18,7V355.28a6.63,6.63,0,1,1,13.26,0V367.7Zm14-11h1.95v3h-1.95Zm3,0h3v3h-3Zm3,4v3h-3v-3Zm1,0h1.43v3h-1.43Zm2.17,7V355.28a6.62,6.62,0,0,1,.5-2.52h.15v-.31a6.63,6.63,0,0,1,12.62,2.83V367.7Zm14-7h2v3h-2Zm3,0h3v3h-3Zm4,0H592v3h-1.43Zm2.17-5.45a6.63,6.63,0,1,1,13.26,0V367.7h-13.2Zm14,9.44h1.94v3h-1.94Zm2.92-11.94Zm0-1h-.15a9.75,9.75,0,0,0-1.14-3h1.29Zm1-3H624a11.86,11.86,0,0,0-.58,3.69v.17H610.77Zm13.74,3.69a11,11,0,0,1,.64-3.69h3.69a7.32,7.32,0,0,0-1.08,3.81v.05h-3.25Zm4.25.12a6.36,6.36,0,0,1,6.36-6.35h.29a6.37,6.37,0,0,1,6.36,6.35v28.6h-13Zm14,10.25h3.76v3.39h-3.76Zm0-1v-3.39h3.76v3.39ZM641,347.78c-.18-.2-.36-.39-.55-.57l2.35-3a11.1,11.1,0,0,1,2.71,3.59Zm19.28-4H643.8a11.88,11.88,0,0,0-5.45-3h21.89Zm-33.13.11v-.11H610.77v-3h21.91a12.07,12.07,0,0,0-5.57,3.12Zm-17.34-4.09H455.69v-3H609.77Zm-139.63-4v-1.7h10v1.72Zm10-70.05h-26v-7h-.39v-1h26.36Zm-116.81-11.1v-2.26h89.87v2.26Zm-17-3.23V238.56h6.83v12.88Zm7.83-12.88H361v9.17a1.34,1.34,0,0,0-.13.94,2.26,2.26,0,0,0,.13.33v2.44h-6.83Zm18.8,2.88v-5.3h10.52Zm-1,.51-4.37,2.2v-8H372Zm36.25-11.48L420.51,236l27,12.49c.1,0,.09.09.09.11a.21.21,0,0,1-.2.11h-9.23a.92.92,0,0,0-.56-.82l-23-10.52-5.76-2.71a1,1,0,0,0-.52-.08,1.08,1.08,0,0,0-.53.08l-5.8,2.73-23,10.5h0a.92.92,0,0,0-.56.82h-9.23c-.13,0-.18,0-.2-.11s0-.06.09-.11L396,236Zm0,5.12,7.38,3.37,20.84,9.73h-56.3l22.2-10.42Zm61.91,3v12.88h-6.83V238.56Zm-7.83,12.88H455.5V249a2.26,2.26,0,0,0,.13-.33,1.34,1.34,0,0,0-.13-.94v-9.17h6.83Zm-17.85-9.51v-5.81h4.37v8Zm-1-.51L433,236.12h10.5Zm35.22-6.3H449.87V235h-1v.1H431l-1.1-.55-9.13-4.73h58Zm-49.25.36,24.34,12.61a.29.29,0,0,1,.15.35.27.27,0,0,1-.29.23h-4.33a1.08,1.08,0,0,0-.66-1.13L420.91,235l-12-5.53a1.33,1.33,0,0,0-.71-.1,1.29,1.29,0,0,0-.7.1L395.62,235l-27.79,12.51a1.08,1.08,0,0,0-.66,1.13h-4.33a.27.27,0,0,1-.29-.23.29.29,0,0,1,.15-.35l24.36-12.62,21.19-10.68Zm-42.84-.92-1.11.56H367.64V235h-1v.1H337.79v-5.28h58Zm-49.84,1.05-.45,18.27H206.74V233.77H336.79Zm-130,19.27H362.31v.73h1.39v1.2h-157Zm128.64,2.93v78H206.74v-3.73h.14v-8h-.14V309.91h0v-1.12h0v-51Zm-129.64,6.57h-7.65V261.1h7.65ZM197.09,263a2.87,2.87,0,0,0-2.11-1h-6.51a2.83,2.83,0,0,0-.5,5.62v2.62H173.73v-2.61a2.83,2.83,0,0,0-.44-5.63h-6.51a2.75,2.75,0,0,0-1.83.7V261h32.14Zm-40.82,2.4H164v.33h-7.68Zm0,1.36H164v2.94h-7.68Zm0,4H164v2.94h-7.68Zm0,4H164v2.67h-7.68Zm0,3.7H164v3h-7.68Zm0,9H164V291h-7.68ZM164,292v3.45h-7.68V292Zm0,4.48v3.45h-7.68v-3.45Zm0,4.48v3.45h-7.68V300.9Zm0,4.49v3.44h-7.68v-3.44Zm0,4.48v3.45h-7.68v-3.45Zm0,4.48v3.45h-7.68v-3.45Zm-7.68,4.48H164v3.45h-7.68Zm0,22h21.89a12,12,0,0,0-8.23,7H156.27Zm0,8h13.3a11.87,11.87,0,0,0-.59,3.69v.17H156.27Zm0,9.67H169V362H156.27Zm0,4.39H169v3.39H156.27Zm0,4.39H169v3.39H156.27Zm13.71,0h3.77v3.39H170Zm3.77,4.39v9.57H170v-9.57Zm15,9.57v-9.57H192v9.57Zm0-10.57v-3.39H192v3.39Zm0-4.39V363H192v3.39Zm0-4.39v-3.39H192V362Zm0-4.39v-3.81H192v3.81Zm4.25-3.81h12.74v3.81H193Zm14.72,18v-3h18.12v3Zm16.69-4v-3h1.43v3Zm2.46-3h3v3h-3Zm4,0h2v3h-2Zm16.7,3v-3H249v3Zm2.46-3h3v3h-3Zm4,0h2v-1h-1.84v-3h2v7h-2Zm16.7,3v-3h1.43v3Zm2.45-3h3v3h-3Zm4.05,0h1.95v3h-1.95Zm16.7,3v-3h1.42v3Zm2.45-3h3v3h-3Zm4.05,0h1.94v3h-1.94Zm16.69,3v-3h1.43v3Zm2.46-3h3v3h-3Zm4,0h1.94v3h-1.94Zm16.69,3v-3h1.43v3Zm2.46-3h18v3h-18Zm19.13,4h8.89v3H362Zm10.07,0h3.67v3h-3.67Zm11-23.52a8.52,8.52,0,0,0-1.23.11l-.72-3.23a12.21,12.21,0,0,1,2-.2,12.09,12.09,0,0,1,2.24.24l-.55,3.19a7.1,7.1,0,0,0-1.22-.11h-.52ZM391,368.7h3.29v3H391Zm4.47,0H396v3h-.49Zm1.67,0h3.48v3h-3.48ZM408,345.18a6.56,6.56,0,0,0-1.08.09l-.71-3.2a10.36,10.36,0,0,1,4.15,0l-.71,3.2a6.56,6.56,0,0,0-1.08-.09Zm7.92,23.52h3.48v3h-3.48Zm4.66,0H421v3h-.49Zm1.67,0h3.29v3h-3.29Zm10.65-23.52a7.1,7.1,0,0,0-1.22.11l-.55-3.19a12.09,12.09,0,0,1,2.24-.24,12.21,12.21,0,0,1,2,.2l-.72,3.23a8.52,8.52,0,0,0-1.23-.11h-.52Zm7.92,23.52h3.66v3h-3.66Zm4.84,0h8.89v3h-8.89Zm10.06-4h18v3h-18Zm19,0h1.43v3h-1.43Zm16.18,3v-3h1.94v3Zm3-3h3v3h-3Zm4.05,0h1.43v3H498Zm16.18,3v-3H516v3Zm3-3h3v3h-3Zm4,0h1.42v3h-1.42Zm16.17,3v-3h2v3Zm3-3h3v3h-3Zm4,0h1.43v3h-1.43Zm16.18,3v-7h2v3h-1.84v1h1.84v3Zm3-3h3v3h-3Zm4,0H569v3h-1.43Zm16.18,3v-3h2v3Zm3-3h3v3h-3Zm4,0h1.43v3h-1.43Zm20.1-11.08h12.74v3.81H610.77Zm13.74,0h3.25v3.81h-3.25Zm3.25,4.81v3.39h-3.25v-3.39Zm0,4.39v3.39h-3.25v-3.39Zm0,4.39v3.39h-3.25v-3.39Zm0,4.39v9.57h-3.25V371.6Zm15,9.57V371.6h3.76v9.57Zm0-10.57v-3.39h3.76v3.39Zm4.76-3.39h12.71v3.39H647.53Zm0-1v-3.39h12.71v3.39Zm0-4.39v-3.39h12.71v3.39Zm0-9.2v-.17a11.87,11.87,0,0,0-.59-3.69h13.3v3.86Zm12.71-12.83h-49.5v-3h49.47Zm-40.82-4v-3.73h10.26v-8h-1.14V323h14.24v1.09h-1.59v8h10.37v3.73Zm40.82-18h-7.68v-3.45h7.68Zm0-4.48h-7.68v-3.45h7.68Zm0-4.49h-7.68v-3.44h7.68Zm0-4.48h-7.68V300.9h7.68Zm0-4.48h-7.68v-3.45h7.68Zm0-4.48h-7.68v-3.45h7.68Zm0-9h-7.68v-3.91h7.68Zm0-4.94h-7.68v-3h7.68Zm0-4h-7.68v-2.67h7.68Zm-7.68-3.7V270.8h7.68v2.94Zm7.68-9.31h-7.68v-3.29h7.68Zm-8.68-1.62a2.75,2.75,0,0,0-1.83-.7h-6.51a2.83,2.83,0,0,0-.44,5.63v2.61H628.54v-2.62a2.83,2.83,0,0,0-.5-5.62h-6.51a2.87,2.87,0,0,0-2.11,1v-1.93h32.14Zm-33.14,1.62H610.8v-3.29h7.65Zm-8.65,44.41h0V310h0v14.16h-.14v8h.14v3.73H481.13v-78H609.77Zm-157-52v-1.2h1.39v-.73H609.77v1.93ZM610.8,238h6.92v13.85H610.8Zm7.92,13.85V238H619v-1.8h32.69v17.68h-33Zm42.49-18.49v1.87H618v.5h-.29V237h-6.92v-6.16H659v2.52Zm-43.49-8V227h35.53v-1.7H659v4.51H610.77V225.3Zm-7.92,1.37v6.1h-130v-6.1Zm-146.63-4.12H437.89V213h25.25Zm1.6-19.7V207H437.69v-.54h.45v-4.22h-.45V201.1h25v1.75Zm-88.08-9.13h-3.78V190a1.9,1.9,0,0,1,3.78-.3Zm11.72,2h-4.93v-9a2.47,2.47,0,0,1,4.93-.31,1.61,1.61,0,0,1,0,.31Zm53.35-7.58a1.91,1.91,0,0,1,1.9,1.9v3.68h-3.78v-4a1.9,1.9,0,0,1,1.85-1.64ZM439,193.72h-4.43v-5.4A2.22,2.22,0,0,1,439,188a1.5,1.5,0,0,1,0,.3Zm-55.5,6.43h4.93v2H383.5Zm5.93,0h7.48v2h-7.48Zm13.41-1h-4.73v-2.43h4.73Zm-4.73,1h4.73v2h-4.73Zm5.94,0h.65v2H404Zm6.59-1H406v-2.43h4.67Zm-4.67,1h4.67v2H406Zm5.94,0h.65v2h-.65Zm6.59-1h-4.73v-2.43h4.73Zm-4.73,1h4.73v2h-4.73Zm5.93,0h7.48v2H419.7Zm8.48,0h4.94v2h-4.94Zm4.94-4.43h-4.94v-9a2.47,2.47,0,0,1,4.94,0Zm0,1v2.43h-4.94v-2.43Zm-5.94,2.43H419.7v-2.43h7.48Zm-8.68-12.44v9h-4.73v-9a2.37,2.37,0,1,1,4.73-.31A1.61,1.61,0,0,1,418.5,186.71Zm-5.94,12.44h-.65v-2.43h.65Zm-1.92-12.44v9H406v-9a2.34,2.34,0,0,1,4.67-.31A1.6,1.6,0,0,1,410.64,186.71Zm-5.94,12.44H404v-2.43h.65Zm-1.86-12.44v9h-4.73v-9a2.37,2.37,0,1,1,4.73-.31A1.61,1.61,0,0,1,402.84,186.71Zm-5.93,12.44h-7.48v-2.43h7.48Zm-8.48,0H383.5v-2.43h4.93ZM382,193.72h-4.44v-5.4a2.22,2.22,0,0,1,4.44,0Zm.45,9.43h53.48v2.22H380.58v-2.22Zm-2.63,3.22h56.87v.54H379.82Zm82.25-6.27H436.69v2.05H434.5v-2h.23v-1h-.23v-2.43h.23v-1h-.23v-1h27.57Zm-93.13-26.33h78.63v2H368.94Zm76.53-3.29H432.71c-.42-20.94-11.62-33.25-15.91-37.2,15.13,3.5,26.35,16,26.35,30.89v.53h2.32Zm-43.4-37.66h.11c-2.59,4.11-11.74,20-10.82,37.68h-6.29c.49-24.19,15.59-36.58,17-37.68Zm-9.44,37.66c-1-19,9.83-35.91,11.17-37.9a35.9,35.9,0,0,1,8.91,0c1.34,2,12.18,18.88,11.17,37.9Zm21.7-37.68h.11c1.41,1.1,16.51,13.49,17,37.66h-6.29c.92-17.69-8.23-33.55-10.82-37.66Zm.92-4.34v3.4a39.47,39.47,0,0,0-6.95-.62h-.09a39.47,39.47,0,0,0-6.95.62v-3.4ZM371,164.71h2.32v-.53c0-14.87,11.22-27.39,26.35-30.89-4.29,4-15.49,16.26-15.91,37.2H371Zm76.53,6.77v1.29H368.94v-1.29Zm-78.63,5.3h78.63v2H368.94Zm76.57,3v4.42c-2.33-1.31-10.07-3.4-35.86-3.4h-2.79c-25.79,0-33.53,2.09-35.86,3.4v-4.42ZM371,185.42c.46-.49,4.62-3.61,35.86-3.61h2.79c31.94,0,35.57,3.26,35.86,3.58v8.33h-1V190a2.74,2.74,0,0,0-2.74-2.74,2.7,2.7,0,0,0-1.9.77,3.1,3.1,0,0,0-5.76-1.34h0a3.47,3.47,0,0,0-6.94,0v9h-7.48v-9a3.47,3.47,0,0,0-3.47-3.47H416a3.47,3.47,0,0,0-3.47,3.47h0v9h-.65v-9a3.47,3.47,0,0,0-3.47-3.47h-.27a3.47,3.47,0,0,0-3.47,3.47h0v9H404v-9a3.47,3.47,0,0,0-3.47-3.47h-.2a3.47,3.47,0,0,0-3.47,3.47h0v9h-7.48v-9a3.47,3.47,0,1,0-6.93-.37,2.29,2.29,0,0,0,0,.37h0a3.1,3.1,0,0,0-5.77,1.34,2.7,2.7,0,0,0-1.9-.77A2.74,2.74,0,0,0,372,190v3.72h-1Zm-16.56,9.3H382v1h-.23v1H382v2.43h-.23v1H382v2h-2.19V200.1H354.44Zm-2.67,8.13h2.05V201.1h25v1.05h-.45v4.22h.45v.54H351.77Zm-2.67,5.06H467.69v4h-30.8v10.63H379.42V210.76H349.1Zm4.27,3.85h25.05v10.79H353.37ZM353,225v-.06h0v-1.36H463.47v.36l-.05,1h.05V225h15.25v3.84h-59.2v.36l-10.36-5.38a1.34,1.34,0,0,0-.9-.11,1.36,1.36,0,0,0-.91.11L397,229.2v-.36H337.8V225Zm-16.25,1.67v6.1h-130v-6.1Zm-179.2-1.37h5.7V227h35.53v-1.7h6.92v4.51H157.59Zm-2.26,8h2.25v-2.52H205.7V237h-6.92v-1.3h-.29v-.5h-43.2Zm2.13,9.25V236.2h6.38v15.62h-6.38Zm-4.83,12.3h3.64v-2.06h7.09v2.06h35.46v-2.06h6.92v4H152.63Zm53.11,2.93v2.28H156.27v-2.28Zm-49.47,65.51H164V324h-7.68Zm7.68,8.77v3.73h-7.68v-3.73Zm-7.68,49.1v-9.57H169v9.57Zm36.73,0v-9.57h12.59v-1H193V367.2h12.59v-1H193v-3.39h12.59v-1H193v-3.39h12.74v22.74Zm33.87-9.5v-3h3v3Zm23.2,0v-3h3v3Zm23.19,0v-3h3v3Zm23.2,0v-3h3v3Zm23.2,0v-3h3v3Zm23.2,0v-3h18v3Zm19.13,9.5v-8.5h8.89v8.5Zm10.07,0v-8.5h3.67v8.5Zm4.94,0V352.54a6.36,6.36,0,0,1,6.35-6.36h0a6.36,6.36,0,0,1,6.36,6.36v28.65Zm14,0v-8.5h3.29v8.5Zm4.47,0v-8.5H396v8.5Zm1.67,0v-8.5h3.48v8.5Zm4.75,0V352.54a6.36,6.36,0,0,1,6.35-6.36h0a6.36,6.36,0,0,1,6.35,6.36v28.65Zm14,0v-8.5h3.48v8.5Zm4.66,0v-8.5H421v8.5Zm1.67,0v-8.5h3.29v8.5Zm4.56,0V352.54a6.36,6.36,0,0,1,6.36-6.36h0a6.36,6.36,0,0,1,6.35,6.36v28.65Zm14,0v-8.5h3.66v8.5Zm4.84,0v-8.5h8.89v8.5Zm10.06-9.5v-3h18v3Zm38.14,0v-3h3v3Zm23.2,0v-3h3v3Zm23.2,0v-3h3v3Zm23.2,0v-3h3v3Zm23.2,0v-3h3v3Zm24.14,9.5V358.45h12.74v3.39H610.92v1h12.59v3.39H610.92v1h12.59v3.39H610.92v1h12.59v9.57Zm36.76,0v-9.57h12.71v9.57Zm12.71-45.37h-7.68v-3.73h7.68ZM652.51,324v-.75h7.68V324Zm7.68-64H610.77v-2.28h49.47Zm3.64-3.28H610.77v-4h6.92v2.06h35.46v-2.06h7.09v1.56h.5v.5h3.14Z"/><path class="cls-7" d="M247.05,236.38H230.39v14.89h16.66Zm-15.66,1h6.83v12.89h-6.83Zm14.66,12.89h-6.83V237.38h6.83Z"/><path class="cls-7" d="M226.26,251.27V236.38H209.59v14.89Zm-1-1h-6.84V237.38h6.84Zm-14.67-12.89h6.83v12.89h-6.83Z"/><path class="cls-7" d="M288.86,236.38H272.19v14.89h16.67Zm-15.67,1H280v12.89h-6.83Zm14.67,12.89H281V237.38h6.84Z"/><path class="cls-7" d="M268.06,236.38H251.39v14.89h16.67Zm-15.67,1h6.83v12.89h-6.83Zm14.67,12.89h-6.84V237.38h6.84Z"/><path class="cls-7" d="M331,236.38H314.37v14.89H331Zm-15.66,1h6.83v12.89h-6.83ZM330,250.27h-6.8V237.38H330Z"/><path class="cls-7" d="M310.23,236.38H293.57v14.89h16.66Zm-15.66,1h6.83v12.89h-6.83Zm14.66,12.89H302.4V237.38h6.83Z"/><path class="cls-7" d="M210.59,294.5h14.56V271.24h2v-2h-19v2h2.41Zm13.56-1H211.59V271.24h12.56Z"/><path class="cls-7" d="M232,294.5h14.6V271.24h2v-2h-19v2H232Zm13.57-1H233V271.24h12.6Z"/><path class="cls-7" d="M253.47,294.5H268V271.24h2v-2H251v2h2.41Zm13.57-1H254.47V271.24H267Z"/><path class="cls-7" d="M274.91,294.5h14.57V271.24h2v-2h-19v2h2.41Zm13.57-1H275.91V271.24h12.57Z"/><path class="cls-7" d="M296.36,294.5h14.56V271.24h2v-2h-19v2h2.42Zm13.56-1H297.36V271.24h12.56Z"/><path class="cls-7" d="M317.8,294.5h14.56V271.24h2v-2h-19v2h2.42Zm13.56-1H318.8V271.24h12.56Z"/><path class="cls-7" d="M210.59,327.51h14.56V304.25h2v-2h-19v2h2.41Zm13.56-1H211.59V304.25h12.56Z"/><path class="cls-7" d="M232,327.51h14.6V304.25h2v-2h-19v2H232Zm13.57-1H233V304.25h12.6Z"/><path class="cls-7" d="M253.47,327.51H268V304.25h2v-2H251v2h2.41Zm13.57-1H254.47V304.25H267Z"/><path class="cls-7" d="M274.91,327.51h14.57V304.25h2v-2h-19v2h2.41Zm13.57-1H275.91V304.25h12.57Z"/><path class="cls-7" d="M296.36,327.51h14.56V304.25h2v-2h-19v2h2.42Zm13.56-1H297.36V304.25h12.56Z"/><path class="cls-7" d="M317.8,327.51h14.56V304.25h2v-2h-19v2h2.42Zm13.56-1H318.8V304.25h12.56Z"/><path class="cls-7" d="M373.76,307h1.7v19.46H386V307h1.4v-1.55H373.76Zm11.42,18.69h-8.95V307h8.95Z"/><path class="cls-7" d="M373.76,275.12h1.7v19.47H386V275.12h1.4v-1.54H373.76Zm11.42,18.7h-8.95v-18.7h8.95Z"/><path class="cls-7" d="M586.12,236.38H569.46v14.89h16.66Zm-15.66,1h6.83v12.89h-6.83Zm14.66,12.89h-6.83V237.38h6.83Z"/><path class="cls-7" d="M606.92,236.38H590.25v14.89h16.67Zm-15.67,1h6.84v12.89h-6.84Zm14.67,12.89h-6.83V237.38h6.83Z"/><path class="cls-7" d="M544.32,236.38H527.65v14.89h16.67Zm-15.67,1h6.84v12.89h-6.84Zm14.67,12.89h-6.83V237.38h6.83Z"/><path class="cls-7" d="M565.12,236.38H548.45v14.89h16.67Zm-15.67,1h6.84v12.89h-6.84Zm14.67,12.89h-6.83V237.38h6.83Z"/><path class="cls-7" d="M502.14,236.38H485.48v14.89h16.66Zm-15.66,1h6.83v12.89h-6.83Zm14.66,12.89h-6.83V237.38h6.83Z"/><path class="cls-7" d="M522.94,236.38H506.28v14.89h16.66Zm-15.66,1h6.83v12.89h-6.83Zm14.66,12.89h-6.83V237.38h6.83Z"/><path class="cls-7" d="M591.36,294.5h14.56V271.24h2.41v-2h-19v2h2Zm13.56-1H592.36V271.24h12.56Z"/><path class="cls-7" d="M569.92,294.5h14.56V271.24h2.41v-2h-19v2h2Zm13.56-1H570.92V271.24h12.56Z"/><path class="cls-7" d="M548.47,294.5H563V271.24h2.41v-2h-19v2h2Zm13.57-1H549.47V271.24H562Z"/><path class="cls-7" d="M527,294.5h14.6V271.24H544v-2H525v2h2Zm13.57-1H528V271.24h12.6Z"/><path class="cls-7" d="M505.59,294.5h14.56V271.24h2.42v-2h-19v2h2Zm13.56-1H506.59V271.24h12.56Z"/><path class="cls-7" d="M484.15,294.5h14.56V271.24h2.42v-2h-19v2h2Zm13.56-1H485.15V271.24h12.56Z"/><path class="cls-7" d="M591.36,327.51h14.56V304.25h2.41v-2h-19v2h2Zm13.56-1H592.36V304.25h12.56Z"/><path class="cls-7" d="M569.92,327.51h14.56V304.25h2.41v-2h-19v2h2Zm13.56-1H570.92V304.25h12.56Z"/><path class="cls-7" d="M548.47,327.51H563V304.25h2.41v-2h-19v2h2Zm13.57-1H549.47V304.25H562Z"/><path class="cls-7" d="M527,327.51h14.6V304.25H544v-2H525v2h2Zm13.57-1H528V304.25h12.6Z"/><path class="cls-7" d="M505.59,327.51h14.56V304.25h2.42v-2h-19v2h2Zm13.56-1H506.59V304.25h12.56Z"/><path class="cls-7" d="M484.15,304.25v23.26h14.56V304.25h2.42v-2h-19v2Zm13.56,22.26H485.15V304.25h12.56Z"/><path class="cls-7" d="M429.16,307h1.4v19.46h10.49V307h1.7v-1.55H429.16Zm11.12,18.69h-8.95V307h8.95Z"/><path class="cls-7" d="M409.68,272.94H399.23v1h1v21.17h0v.5H416.3v-.5h0V273.94h1v-1h-7.62Zm-8.35,1h6.35v20.67h-6.35Zm13.85,0v20.67h-6.35V273.94Z"/><path class="cls-7" d="M429.16,275.12h1.4v19.47h10.49V275.12h1.7v-1.54H429.16Zm11.12,18.7h-8.95v-18.7h8.95Z"/><path class="cls-7" d="M408.25,247.41h0a4.19,4.19,0,0,0,0-8.38h0a4.19,4.19,0,0,0,0,8.38Zm3.19-4.19a3.19,3.19,0,1,1-3.19-3.19h0A3.19,3.19,0,0,1,411.44,243.22Z"/></g></svg>