<svg xmlns="http://www.w3.org/2000/svg" viewBox="0 0 310.54 315.51"><defs><style>.cls-1{fill:#345562;}</style></defs><title>Asset 2</title><g id="Layer_2" data-name="Layer 2"><g id="Layer_1-2" data-name="Layer 1"><path class="cls-1" d="M251.24,136.53A151.65,151.65,0,0,0,105.18,176.8C88,194.08,72.06,217,73.43,242.52c1.18,21.9,14.54,39.63,32.08,51.78,39.28,27.22,93.8,27.44,135.14,5.21,43.11-23.19,76.8-70,68.68-120.64-7.38-46-58.45-66.37-99.78-53.63a65.37,65.37,0,0,0-15.25,6.86c-7.34,4.55-2.68,17.67,6.12,14.52,17.12-6.15,34.76-9.36,52.34-4.57,15.39,4.19,29,14,35.22,29.11,7.51,18.32,4.44,40.64-3.83,58.15-8.87,18.77-23.24,34.77-40.33,46.44s-36.87,19.83-57.56,21c-19.46,1.08-39.75-2.15-57.44-10.57A81.46,81.46,0,0,1,106,270.68a48.94,48.94,0,0,1-12.15-18.87C88,234,96,215.33,107.61,200.47c33.07-42.42,87.3-62.45,139.73-49.8,9.17,2.21,13.06-11.76,3.9-14.14Z"/><path class="cls-1" d="M239.68,32.66a124.36,124.36,0,0,0-6.88,53.41c.69,8.49,2,16.92,3.42,25.31,1.58,9.15,2.66,18.52,4.6,27.6,2.06,9.6,17.84,7.59,17.26-2.34-1-16.7-5.94-33.16-8-49.75-2.15-17.1-1.09-33.77,4.21-50.21,3-9.37-11.27-13-14.59-4Z"/><path class="cls-1" d="M286.48,37.42c-2.68,17.25-5,34.57-9.68,51.42-2.42,8.6-5.33,17.15-10,24.83a33,33,0,0,1-6.62,8.27,10.52,10.52,0,0,1-3.07,2.24c-2.73,1.65-1.81.79-5.3,2.6-7.31,3.79-4.33,17.39,4.41,16.28,21.13-2.68,30.65-28.11,35.31-45.87,5-19,6.65-38.49,8.86-57.89.9-7.87-12.71-9.79-13.94-1.88Z"/><path class="cls-1" d="M153.8,159.57c32.17-5.76,49.08-40.28,50.66-70,1.61-30.16-10.44-63.54-36.93-80A63.57,63.57,0,0,0,123,1C110.11,3.38,99.31,11.4,91.67,21.83,76.17,43,74.37,73.65,81.8,98.14c4.36,14.35,12.27,27.94,24.17,37.28,14,11,30.85,14.62,48.26,11.79,9.53-1.56,7.26-17.2-2.28-16.8a90.24,90.24,0,0,1-10-.17,37.64,37.64,0,0,1-8.36-1.31c-1.34-.33-2.67-.7-4-1.14-.65-.21-4-1.56-2.34-.82a48.81,48.81,0,0,1-7.6-4.18c-.44-.29-.86-.59-1.29-.89-2.12-1.46,1.38,1.18-.62-.45-1-.82-2-1.66-2.92-2.55a54.83,54.83,0,0,1-5.78-6.32c1.2,1.54-1-1.47-1.33-2-.74-1.1-1.44-2.22-2.1-3.35a67.93,67.93,0,0,1-4-7.85c.73,1.7-.77-2.07-1-2.69q-.68-1.92-1.26-3.87a84.33,84.33,0,0,1-2.19-9.17c-.13-.68-.68-4.39-.43-2.44-.18-1.36-.32-2.72-.43-4.09-.24-3-.34-6-.29-9A57.91,57.91,0,0,1,97.82,53a75.06,75.06,0,0,1,2.12-7.53c.42-1.21.86-2.41,1.34-3.6-.73,1.83.88-1.91,1.24-2.63a55.8,55.8,0,0,1,3.93-6.67c.34-.5.69-1,1-1.48,1.42-1.95-1.24,1.41.34-.41.93-1.08,1.87-2.15,2.88-3.16.84-.83,1.72-1.61,2.6-2.39,1.76-1.57-.54.18,1.5-1.14a45.69,45.69,0,0,1,6.8-3.79c-2.06.89,1.34-.42,1.9-.59,1.19-.37,2.39-.68,3.6-.94.62-.13,1.24-.23,1.87-.35,1.49-.27-2.23.18.27,0,1.6-.13,3.2-.24,4.81-.24a46.2,46.2,0,0,1,17.68,3.44c10,3.85,19.17,12.75,25.06,22.83a82,82,0,0,1,10.38,34.87,88.07,88.07,0,0,1-1.12,21.22,73.87,73.87,0,0,1-6.45,19.65c-6.51,12.62-16.17,20.58-29.52,26.11-8.18,3.39-5.27,15,3.7,13.41Z"/><path class="cls-1" d="M110.24,122.55l-1.68-.17c-.1,0,1.19.21-.45-.09-1.4-.25-2.79-.51-4.18-.8-3.31-.69-6.6-1.5-9.88-2.32-7.88-2-15.75-3.9-23.72-5.47-15.54-3.06-33.74-6.58-49.23-1.44C13.93,114.63,7.45,119,3.74,125.7-.71,133.78-.56,143.15,1,152c2,11.87,7.83,22,17.94,28.71,9.64,6.43,21.56,8.56,32.87,9.78,13.78,1.48,28.43,2.47,42.09-.16a82.32,82.32,0,0,0,21.48-7.76c7.31-3.73,14.6-7.61,20.81-13,5.68-5-.46-13.4-7-11.94-11.78,2.64-21.71,10.46-33.23,14-11.12,3.46-22.58,2.72-34.06,2.13-16.84-.87-38.62-2.87-43.35-22.09a34.83,34.83,0,0,1-1.33-10.78c0-.81.07-1.62.16-2.43.05-.49-.26.93.16-.67.18-.69.37-1.37.55-2,.5-1.88-.39.45.25-.72.35-.66.73-1.29,1.11-1.94.84-1.43-.13.07.15-.23s.87-.87,1.29-1.32c1.29-1.38-.72.35.43-.4a33.69,33.69,0,0,1,3.31-1.89c1.45-.72-1.19.38.39-.14.76-.24,1.52-.5,2.29-.72,1.39-.38,2.8-.65,4.21-.92,1.64-.31.24-.07.71-.12.9-.1,1.81-.19,2.72-.25a87.67,87.67,0,0,1,10.38,0,152.3,152.3,0,0,1,21.52,2.69c14.22,2.56,28.86,6.86,43.38,7.13,9.3.18,9-13.53,0-14.28Z"/><path class="cls-1" d="M158.86,157.45c-11,12.67-16.55,29.53-19.29,45.86-2.31,13.84-3.8,30.27.42,43.92,3.24,10.44,8.78,20.42,14.85,29.46,6.39,9.51,14.22,19.9,24.61,25.33,5.39,2.82,11.57,4.22,17.49,2.2,7.12-2.42,13.26-9.21,13.38-16.93.08-5.36-6.42-9.51-11.1-6.37a34.24,34.24,0,0,0-5.56,4.92c-1.5,1.56.22-.32-.71.71a4.65,4.65,0,0,1-1.14.65c2.32-1.09.39,0,.08-.12-.11,0-1.88.27-.29.11s0-.11,0-.08a6.44,6.44,0,0,1-1.22,0c2.34.26,1,.22.53.06-.85-.26-1.7-.45-2.54-.76,1.84.68-.41-.28-1.08-.67-.91-.53-1.77-1.11-2.62-1.71-.06-.05-1.12-.86-.4-.3s-.57-.49-.73-.64a71.34,71.34,0,0,1-5.21-5.08,81.41,81.41,0,0,1-8.67-11.12,149.29,149.29,0,0,1-7.81-13c-1-1.93-2.05-3.88-3-5.86-.39-.84-.78-1.69-1.15-2.54-.55-1.24.49,1.23,0,0-.21-.53-.43-1.06-.63-1.6-3.75-10.15-3-22-2.47-32.64.75-15.19,3.82-32.22,13.63-44.39,5.26-6.52-3.7-15.89-9.37-9.37Z"/><path class="cls-1" d="M206.6,144.91c-26.13,11.87-18.7,46.62-10.13,67.49a165.41,165.41,0,0,0,22.62,39c7.2,9.23,15.94,19.18,26.74,24.24,5.22,2.46,11.25,4.17,17,2.45,6.13-1.84,11.72-7.35,11.7-14a6.73,6.73,0,0,0-10-5.76,19.35,19.35,0,0,0-3,2.15c-.34.32-.64.68-1,1,1.66-1.32.92-.64.53-.41-.61.36-1.21.68-1.83,1,2.37-1.21-2-.3,1.05-.31-.68,0-1.4,0-2.08,0-2,.18,1.58.65-.37-.05-.74-.26-1.56-.47-2.32-.68-1.75-.48,1.83.93.16.08l-1.47-.72a51.46,51.46,0,0,1-5.11-3.14c-.54-.37-1.06-.76-1.59-1.15.24.17,1.41,1.13.17.11s-2.18-1.83-3.24-2.78a109.22,109.22,0,0,1-11.41-12.24c-1.14-1.41-1.41-1.77-1.84-2.34q-1.34-1.77-2.61-3.58c-1.93-2.71-3.76-5.48-5.52-8.31a174.63,174.63,0,0,1-9.35-16.89c-4.36-9.09-8.73-21.92-9.3-31.24a61.67,61.67,0,0,1,.06-7.81c0-.29.37-2.48.06-.61.11-.65.21-1.31.37-1.94.31-1.24.64-2.46,1.07-3.67.69-2-.66,1.36.22-.51.26-.56.52-1.12.81-1.66s2.07-3.13,1.28-2.13a15.22,15.22,0,0,1,5-4.34c7.35-4.43.93-14.7-6.59-11.28Z"/><path class="cls-1" d="M240.42,190c6.37,1.3,13.22-.08,16.79-6a6.58,6.58,0,0,0-1-7.86,6.84,6.84,0,0,0-7.86-1c2.36-1.07-3.27,1.28-.88.45-.59.21-1.19.36-1.79.51-1.78.42.91.23-.49.06a8.32,8.32,0,0,1-1.12,0c1,.14,1,.13.2,0-3.68-.82-8,1.11-8.9,5-.82,3.61,1.09,8.1,5.06,8.9Z"/></g></g></svg>