<svg xmlns="http://www.w3.org/2000/svg" viewBox="0 0 183.56 340.67"><defs><style>.cls-1{fill:#345562;}</style></defs><title>Asset 4</title><g id="Layer_2" data-name="Layer 2"><g id="Layer_1-2" data-name="Layer 1"><path class="cls-1" d="M146.4,61c5.2,9.57,13.37,18.25,18.37,28.74a300.1,300.1,0,0,1,14,33.59,68.9,68.9,0,0,1,3.47,18.41c1,12.34,2.1,24.89.48,37.1-1.57,11.81-7.85,23-13.54,33.81-5.1,9.74-10.64,17-16.74,26.63C147,244,141.64,248.86,136,253.59s-11.45,9.68-17.18,14.51c-3.74,3.16-7.53,5.33-12.65,8.71-5.93,4.09-5.54,9.76-5.94,13.32-1.74,15.75-.46,31.72-1.79,47.52-.45,5.37-7.9,1.79-12.06,2.49-3.73.63-2.46-2.16-2.48-3.63-.12-7.83-.06-15.67-.05-23.5-.67-11.4,3.47-23.71-5.36-33.68-4.89-5.52-13.23-8.77-19.38-13.61-5.32-4.18-9.89-9.06-14.56-13.79-6.25-6.34-12.72-12.74-17.89-19.47-4.07-5.3-7.46-10.14-11.47-16L.82,176.55c.11-13-2.11-27.93.34-40.62,3.08-16,7-32.52,15.47-46.74,6-10,11.6-20.75,19-30C42.18,51,48.91,43.06,55.06,34.6c6-8.25,14.92-15,22.85-22.26,5.16-4.7,5.17-15.65,18-11.37,3,1,5.55,3.72,7.17,6.3C109,15.55,114.94,19,120,25.45A100.93,100.93,0,0,0,128,35.2m23.68,61c-7.51-11.61-11.64-18.84-18.66-27.7-3.75-4.72-7.18-9.62-11-14.29-6.12-7.51-12.34-15-18.76-22.3-2-2.3-4.38-5-7.32-6C83,21.65,81.57,31.56,76.52,35.71c-9.23,7.58-14.19,15.49-21,24.72-5.33,7.25-9.83,16-15.68,23.62-6.17,8-9,17.34-13.55,25.77C19.4,122.59,18.2,137.75,15.82,152c-2.27,13.71,2,26.21,6.14,39.24,3.38,10.57,11,20,17.37,29.32,7,10.13,16.42,18.35,25.33,27.08,4.86,4.75,18,11.83,19.27,10.25,0-13,1.06-32.58-1.69-38.1-2.55-4.34-11.86-9.94-18.33-16.54C60,199.35,55.44,196,51.64,191.9c-2.61-2.82-3.35-5.71-2.45-7.15,1.59-2.51,5.09-4.68,8.37-5.74,1.93-.62,6-1.7,6.92,3.05,1.16,6.35,13,13.54,18.75,16.23a79.9,79.9,0,0,0,.9-17.73c-1-13.24.65-30.54-3.8-32.49-7.39-4-23.6-14-29.77-19.54-1.52-1.35-2.54-3.07-4.07-4.48-3.22-3-2.76-7,4.32-8,8.73-1.21,15,.56,19.47,7.39.84,1.3,9.91,7.86,11.54,6.72,2.18-1.54,2.26-13.51,2.09-18.86-.18-5.5-1.51-14.61,3.85-15.38C105.53,93.35,98.4,107,98.43,113.73c0,6.92,1.46,18.32,1.46,18.32,3.87,1.16,14.5-10,17.88-13.92s9.15-2.31,13.92-2c.77,0,1.91,3.28,1.79,5-.82,11.84-23.94,21.34-32.61,26.8-1.27,3.91-2.11,10.28-2,18.53,0,7.5-.22,12.74.09,17.94.19,3.3,1,12.68,2.63,13.21,2.65,0,10-5,12.34-9.91,2.57-5.29,9.41-10.83,17.19-8.38,4.62,1.45,4.38,9.27,1.53,11.76-7.65,6.71-23.54,19.06-30.21,25.4-1.92,4.54-4.06,31.38-2.29,35.84.22.55,1.24,4.51,2,4.74,8.76,2.63,18.59-12,25.31-17.21,10.26-7.9,18.34-18.5,24.67-29.09s10.45-22.56,13.86-34.25c4.69-16.06-1.39-32-3-48"/></g></g></svg>