<?xml version="1.0" encoding="utf-8"?>
<!-- Generator: Adobe Illustrator 23.0.6, SVG Export Plug-In . SVG Version: 6.00 Build 0)  -->
<svg version="1.1" id="Layer_1" xmlns="http://www.w3.org/2000/svg" xmlns:xlink="http://www.w3.org/1999/xlink" x="0px" y="0px"
	 viewBox="0 0 296.4 59" style="enable-background:new 0 0 296.4 59;" xml:space="preserve">
<style type="text/css">
	.st0{fill:#231F1B;}
</style>
<title>CSCEArtboard 1</title>
<rect x="67.5" y="2.5" class="st0" width="1.2" height="53.2"/>
<path class="st0" d="M87.9,8.2h-1.2V2h-2.1V1H90v1h-2.1L87.9,8.2z"/>
<path class="st0" d="M95.6,8.2h-4V1h4v1h-2.9v2h2.7v1h-2.7v2.2h2.9V8.2z"/>
<path class="st0" d="M102.9,8.2h-1.3l-1.8-2.9L98,8.2h-1.2l2.4-3.7L96.9,1h1.3l1.7,2.7l1.6-2.7h1.3l-2.2,3.4L102.9,8.2z"/>
<path class="st0" d="M108.8,8.2l-0.7-2h-2.7l-0.7,2h-1.2l2.7-7.2h1.3l2.7,7.2L108.8,8.2z M107.8,5.2l-0.7-2c0-0.1-0.1-0.3-0.2-0.6
	s-0.2-0.5-0.2-0.6c-0.1,0.4-0.2,0.8-0.4,1.3l-0.7,1.9H107.8z"/>
<path class="st0" d="M115.6,6.2c0,0.6-0.2,1.1-0.7,1.5c-0.6,0.4-1.2,0.6-1.9,0.5c-0.7,0-1.4-0.1-2-0.4V6.8c0.3,0.2,0.7,0.3,1,0.4
	c0.3,0.1,0.7,0.1,1,0.1c0.4,0,0.7-0.1,1-0.3c0.2-0.2,0.3-0.4,0.3-0.7c0-0.3-0.1-0.5-0.3-0.7c-0.3-0.3-0.7-0.5-1.1-0.6
	c-0.5-0.2-1-0.5-1.4-0.9c-0.3-0.3-0.4-0.8-0.4-1.2c0-0.5,0.2-1.1,0.6-1.4c0.5-0.4,1.1-0.6,1.7-0.5c0.7,0,1.4,0.2,2,0.4l-0.4,1
	C114.6,2.2,114,2,113.4,2c-0.3,0-0.6,0.1-0.9,0.2c-0.2,0.2-0.3,0.4-0.3,0.7c0,0.2,0,0.3,0.1,0.5c0.1,0.1,0.2,0.3,0.4,0.4
	c0.3,0.2,0.7,0.3,1,0.5c0.4,0.2,0.8,0.4,1.2,0.6c0.2,0.2,0.4,0.4,0.5,0.6C115.6,5.7,115.6,6,115.6,6.2z"/>
<path class="st0" d="M125,8.2l-0.7-2h-2.7l-0.7,2h-1.2l2.7-7.2h1.3l2.7,7.2L125,8.2z M124,5.2l-0.7-2c0-0.1-0.1-0.3-0.2-0.6
	S123,2.1,123,2c-0.1,0.4-0.2,0.9-0.4,1.3L122,5.2L124,5.2z"/>
<path class="st0" d="M127.2,6.3c0-0.4,0.1-0.8,0.3-1.1c0.3-0.4,0.7-0.8,1.1-1c-0.3-0.3-0.5-0.6-0.6-0.9c-0.1-0.2-0.2-0.5-0.2-0.8
	c0-0.5,0.2-0.9,0.5-1.2c0.4-0.3,0.9-0.5,1.4-0.4c0.5,0,1,0.1,1.4,0.4c0.3,0.3,0.5,0.7,0.5,1.1c0,0.4-0.1,0.7-0.3,1
	c-0.3,0.4-0.7,0.7-1.1,0.9L132,6c0.3-0.5,0.5-1,0.7-1.5h1.2c-0.2,0.8-0.6,1.6-1.1,2.3l1.5,1.4h-1.5L132,7.4
	c-0.3,0.3-0.7,0.5-1.1,0.6c-0.4,0.1-0.8,0.2-1.2,0.2c-0.6,0-1.3-0.2-1.8-0.5C127.5,7.4,127.2,6.8,127.2,6.3z M129.7,7.3
	c0.6,0,1.1-0.2,1.5-0.5l-1.9-1.8c-0.3,0.2-0.5,0.4-0.7,0.6c-0.1,0.2-0.2,0.4-0.2,0.7c0,0.3,0.1,0.6,0.3,0.8
	C129,7.2,129.4,7.3,129.7,7.3L129.7,7.3z M129,2.6c0,0.2,0.1,0.4,0.2,0.6c0.1,0.2,0.3,0.4,0.5,0.6c0.3-0.1,0.6-0.3,0.8-0.6
	c0.1-0.2,0.2-0.4,0.2-0.6c0-0.2-0.1-0.4-0.2-0.5c-0.2-0.1-0.4-0.2-0.6-0.2c-0.2,0-0.4,0.1-0.6,0.2C129.1,2.2,129,2.4,129,2.6z"/>
<path class="st0" d="M138.7,8.2l-2.1-6l0,0c0.1,0.9,0.1,1.7,0.1,2.5v3.5h-1.1V1h1.6l2,5.7l0,0l2-5.7h1.7v7.2h-1.1V4.6
	c0-0.3,0-0.8,0-1.4c0-0.6,0-0.9,0-1l0,0l-2.1,5.9L138.7,8.2z"/>
<path class="st0" d="M154.1,1v4.7c0,0.5-0.1,0.9-0.3,1.3c-0.2,0.4-0.6,0.7-1,0.9c-0.5,0.2-1,0.3-1.5,0.3c-0.8,0-1.5-0.2-2.1-0.7
	c-0.5-0.5-0.8-1.2-0.7-1.9V1h1.2v4.6c0,0.5,0.1,0.9,0.4,1.3c0.3,0.3,0.8,0.5,1.3,0.4c1.1,0,1.6-0.6,1.6-1.7V1H154.1z"/>
<path class="st0" d="M162.3,8.2h-1.4l-3.5-5.7l0,0v0.3c0,0.6,0.1,1.2,0.1,1.7v3.7h-1.1V1h1.4l3.5,5.7l0,0c0-0.1,0-0.3,0-0.8
	s0-0.8,0-1.1V1h1.1L162.3,8.2z"/>
<path class="st0" d="M164.7,8.2V1h1.2v7.2H164.7z"/>
<path class="st0" d="M172.3,1h1.2L171,8.2h-1.2L167.3,1h1.2l1.5,4.5c0.1,0.2,0.2,0.5,0.2,0.8c0.1,0.2,0.1,0.5,0.2,0.8
	c0.1-0.2,0.1-0.5,0.2-0.9s0.2-0.6,0.2-0.7L172.3,1z"/>
<path class="st0" d="M179,8.2h-4V1h4v1h-2.9v2h2.7v1h-2.7v2.2h2.9V8.2z"/>
<path class="st0" d="M182.2,5.3v2.8h-1.2V1h2c0.7-0.1,1.4,0.1,2.1,0.5c0.5,0.4,0.7,1,0.7,1.6c0,0.9-0.5,1.7-1.4,1.9l2,3.2h-1.3
	l-1.7-2.8L182.2,5.3z M182.2,4.3h0.8c0.4,0,0.8-0.1,1.2-0.3c0.3-0.2,0.4-0.6,0.4-0.9c0-0.3-0.1-0.7-0.4-0.9C183.8,2.1,183.4,2,183,2
	h-0.8V4.3z"/>
<path class="st0" d="M192.1,6.2c0,0.6-0.2,1.1-0.7,1.5c-0.6,0.4-1.2,0.6-1.9,0.5c-0.7,0-1.4-0.1-2-0.4V6.8c0.3,0.2,0.7,0.3,1,0.4
	c0.3,0.1,0.7,0.1,1,0.1c0.4,0,0.7-0.1,1-0.3c0.2-0.2,0.3-0.4,0.3-0.7c0-0.3-0.1-0.5-0.3-0.7c-0.3-0.3-0.7-0.5-1.2-0.6
	c-0.5-0.2-1-0.5-1.4-0.9c-0.3-0.3-0.4-0.8-0.4-1.2c0-0.5,0.2-1.1,0.6-1.4c0.5-0.4,1.1-0.6,1.7-0.5c0.7,0,1.4,0.2,2,0.4l-0.4,1
	C191,2.1,190.5,2,189.9,2c-0.3,0-0.6,0.1-0.9,0.2c-0.2,0.2-0.3,0.4-0.3,0.7c0,0.2,0,0.3,0.1,0.5c0.1,0.1,0.2,0.3,0.4,0.4
	c0.3,0.2,0.7,0.3,1,0.5c0.4,0.2,0.8,0.4,1.2,0.6c0.2,0.2,0.4,0.4,0.5,0.6C192,5.7,192.1,6,192.1,6.2z"/>
<path class="st0" d="M194,8.2V1h1.2v7.2H194z"/>
<path class="st0" d="M200,8.2h-1.2V2h-2.1V1h5.4v1H200V8.2z"/>
<path class="st0" d="M205.7,4.3l1.7-3.3h1.3l-2.4,4.4v2.8h-1.2V5.4L202.7,1h1.3L205.7,4.3z"/>
<path class="st0" d="M96.8,23.6c0.1,1.8-0.5,3.7-1.8,5c-1.4,1.2-3.2,1.8-5.1,1.7h-3.6V17.1h4c1.8-0.1,3.5,0.5,4.8,1.7
	C96.3,20.1,96.9,21.8,96.8,23.6z M95.2,23.6c0.1-1.4-0.4-2.8-1.3-3.9c-1-0.9-2.4-1.4-3.8-1.3h-2.2V29h1.9c1.5,0.1,3-0.4,4.1-1.3
	C94.8,26.6,95.3,25.1,95.2,23.6z"/>
<path class="st0" d="M103.3,30.5c-1.3,0.1-2.5-0.4-3.4-1.3c-0.9-1-1.3-2.3-1.3-3.7c-0.1-1.4,0.3-2.7,1.2-3.8
	c0.8-0.9,1.9-1.4,3.2-1.4c1.1,0,2.2,0.4,2.9,1.2c0.7,0.9,1.1,2,1.1,3.2v0.9h-6.8c0,1,0.3,1.9,0.9,2.6c0.6,0.6,1.5,1,2.3,0.9
	c1.1,0,2.1-0.2,3.1-0.7v1.3c-0.5,0.2-1,0.4-1.5,0.5C104.5,30.4,103.9,30.5,103.3,30.5z M102.9,21.5c-0.7,0-1.4,0.3-1.9,0.8
	c-0.5,0.6-0.8,1.4-0.8,2.1h5.1c0-0.8-0.2-1.5-0.6-2.2C104.3,21.7,103.6,21.5,102.9,21.5z"/>
<path class="st0" d="M113.7,30.5c-0.6,0-1.2-0.1-1.7-0.4c-0.5-0.2-1-0.6-1.4-1.1h-0.1c0.1,0.5,0.1,1.1,0.1,1.6v4h-1.5V20.4h1.2
	l0.2,1.4h0.1c0.3-0.5,0.8-0.9,1.4-1.2c0.5-0.2,1.1-0.4,1.8-0.4c1.2-0.1,2.3,0.4,3,1.3c0.8,1.1,1.1,2.4,1.1,3.8
	c0.1,1.3-0.3,2.7-1.1,3.8C116,30,114.9,30.5,113.7,30.5z M113.5,21.5c-0.8-0.1-1.6,0.2-2.2,0.8c-0.5,0.8-0.8,1.7-0.7,2.7v0.3
	c-0.1,1,0.2,2.1,0.7,3c0.6,0.6,1.4,1,2.2,0.9c0.8,0,1.6-0.3,2-1c0.5-0.9,0.8-1.8,0.7-2.9c0.1-1-0.2-2-0.7-2.8
	C115.1,21.9,114.3,21.5,113.5,21.5z"/>
<path class="st0" d="M126.1,30.3l-0.3-1.4h-0.1c-0.4,0.5-0.9,1-1.5,1.2c-0.6,0.2-1.2,0.3-1.8,0.3c-0.8,0.1-1.6-0.2-2.3-0.8
	c-0.6-0.6-0.9-1.3-0.8-2.1c0-2,1.6-3,4.8-3.1l1.7-0.1v-0.6c0.1-0.6-0.1-1.2-0.5-1.7c-0.4-0.4-1-0.6-1.6-0.5c-1,0-1.9,0.3-2.8,0.8
	l-0.5-1.1c0.5-0.3,1-0.5,1.6-0.6c0.6-0.1,1.2-0.2,1.7-0.2c0.9-0.1,1.9,0.2,2.6,0.8c0.6,0.7,0.9,1.6,0.8,2.5v6.7H126.1z M122.8,29.2
	c0.8,0,1.6-0.2,2.2-0.8c0.6-0.6,0.8-1.3,0.8-2.1v-0.9l-1.5,0.1c-0.9,0-1.8,0.2-2.6,0.5c-0.5,0.3-0.8,0.9-0.8,1.5
	c0,0.5,0.1,0.9,0.5,1.2C121.8,29.1,122.3,29.3,122.8,29.2z"/>
<path class="st0" d="M134.5,20.2c0.4,0,0.8,0,1.2,0.1l-0.2,1.4c-0.4-0.1-0.7-0.1-1.1-0.1c-0.8,0-1.5,0.4-2,1
	c-0.6,0.7-0.9,1.5-0.9,2.4v5.3H130v-9.9h1.2l0.2,1.8h0.1c0.3-0.6,0.8-1.1,1.3-1.5C133.3,20.4,133.9,20.3,134.5,20.2z"/>
<path class="st0" d="M140.3,29.2c0.3,0,0.5,0,0.8-0.1c0.2,0,0.4-0.1,0.6-0.1v1.1c-0.2,0.1-0.5,0.2-0.7,0.2c-0.3,0-0.6,0.1-0.9,0.1
	c-1.9,0-2.9-1-2.9-3v-5.9h-1.4v-0.7l1.4-0.6l0.6-2.1h0.9v2.3h2.9v1.2h-2.9v5.8c0,0.5,0.1,1,0.4,1.4
	C139.5,29.1,139.9,29.2,140.3,29.2z"/>
<path class="st0" d="M155.9,30.3v-6.4c0.1-0.6-0.1-1.3-0.5-1.8c-0.4-0.4-1-0.6-1.6-0.6c-0.8-0.1-1.5,0.2-2.1,0.8
	c-0.5,0.7-0.7,1.6-0.7,2.5v5.5h-1.5v-6.4c0-0.6-0.1-1.3-0.5-1.8c-0.4-0.4-1-0.6-1.6-0.6c-0.8,0-1.5,0.3-2,0.8
	c-0.5,0.8-0.7,1.8-0.6,2.8v5.2h-1.5v-9.8h1.2l0.2,1.4h0.1c0.3-0.5,0.6-0.9,1.1-1.1c0.5-0.3,1.1-0.4,1.7-0.4c1.3-0.1,2.5,0.5,3,1.7
	h0.1c0.3-0.5,0.7-0.9,1.3-1.2c0.6-0.3,1.2-0.5,1.9-0.5c0.9-0.1,1.8,0.2,2.5,0.9c0.6,0.8,0.9,1.8,0.8,2.7v6.4H155.9z"/>
<path class="st0" d="M164.2,30.5c-1.3,0.1-2.5-0.4-3.4-1.3c-0.9-1-1.3-2.3-1.3-3.7c-0.1-1.4,0.3-2.7,1.2-3.8
	c0.8-0.9,1.9-1.4,3.1-1.4c1.1,0,2.2,0.4,2.9,1.2c0.8,0.9,1.1,2,1.1,3.2v0.9h-6.8c0,1,0.3,1.9,0.9,2.6c0.6,0.6,1.5,1,2.3,0.9
	c1.1,0,2.1-0.2,3.1-0.7v1.3c-0.5,0.2-1,0.4-1.5,0.5C165.4,30.4,164.8,30.5,164.2,30.5z M163.9,21.5c-0.7,0-1.4,0.3-1.9,0.8
	c-0.5,0.6-0.8,1.4-0.8,2.1h5.1c0.1-0.8-0.2-1.5-0.6-2.2C165.2,21.7,164.5,21.5,163.9,21.5z"/>
<path class="st0" d="M176.8,30.3v-6.4c0-0.6-0.1-1.3-0.6-1.8c-0.5-0.4-1.1-0.6-1.7-0.6c-0.8-0.1-1.7,0.2-2.3,0.8
	c-0.6,0.8-0.8,1.8-0.7,2.8v5.2h-1.5v-9.8h1.2l0.2,1.4h0.1c0.3-0.5,0.8-0.9,1.3-1.1c0.6-0.3,1.2-0.4,1.8-0.4c1-0.1,1.9,0.2,2.7,0.9
	c0.7,0.8,1,1.7,0.9,2.7v6.4L176.8,30.3z"/>
<path class="st0" d="M184.2,29.2c0.3,0,0.5,0,0.8-0.1c0.2,0,0.4-0.1,0.6-0.1v1.1c-0.2,0.1-0.5,0.2-0.7,0.2c-0.3,0-0.6,0.1-0.9,0.1
	c-1.9,0-2.9-1-2.9-3v-5.9h-1.4v-0.7l1.4-0.6l0.6-2.1h0.9v2.3h2.9v1.2h-2.9v5.8c0,0.5,0.1,1,0.4,1.4
	C183.4,29.1,183.8,29.2,184.2,29.2z"/>
<path class="st0" d="M200.1,25.3c0.1,1.4-0.3,2.7-1.2,3.8c-0.9,0.9-2.1,1.4-3.4,1.4c-0.8,0-1.6-0.2-2.3-0.6c-0.7-0.4-1.2-1-1.6-1.8
	c-0.4-0.9-0.6-1.8-0.6-2.7c-0.1-1.4,0.3-2.7,1.2-3.8c0.9-0.9,2.1-1.4,3.3-1.3c1.2-0.1,2.5,0.4,3.3,1.4
	C199.8,22.7,200.2,24,200.1,25.3z M192.6,25.3c-0.1,1,0.2,2,0.8,2.9c1.1,1.2,3,1.3,4.2,0.2c0.1-0.1,0.1-0.1,0.2-0.2
	c0.6-0.9,0.8-1.9,0.8-2.9c0.1-1-0.2-2-0.8-2.9c-0.5-0.7-1.4-1-2.2-1c-0.9-0.1-1.7,0.3-2.2,1C192.8,23.3,192.6,24.3,192.6,25.3z"/>
<path class="st0" d="M206.9,21.6h-2.5v8.7h-1.5v-8.7h-1.8v-0.7l1.8-0.5v-0.5c0-2.4,1.1-3.6,3.2-3.6c0.6,0,1.2,0.1,1.8,0.3l-0.4,1.2
	c-0.5-0.2-1-0.3-1.5-0.3c-0.5,0-1,0.2-1.2,0.6c-0.3,0.5-0.5,1.2-0.4,1.8v0.6h2.5L206.9,21.6z"/>
<path class="st0" d="M218.6,18.3c-1.3-0.1-2.6,0.5-3.4,1.4c-0.9,1.1-1.3,2.5-1.2,3.9c-0.1,1.4,0.3,2.9,1.2,4c0.9,1,2.1,1.5,3.4,1.4
	c1.1,0,2.1-0.2,3.1-0.5V30c-1.1,0.4-2.2,0.5-3.4,0.5c-1.7,0.1-3.3-0.5-4.5-1.8c-1.1-1.4-1.7-3.2-1.6-5c0-1.2,0.2-2.4,0.8-3.6
	c0.5-1,1.2-1.8,2.2-2.4c1-0.6,2.2-0.9,3.4-0.8c1.2,0,2.5,0.2,3.6,0.8l-0.7,1.3C220.7,18.6,219.7,18.3,218.6,18.3z"/>
<path class="st0" d="M232.5,25.3c0.1,1.4-0.4,2.7-1.2,3.8c-0.9,0.9-2.1,1.4-3.3,1.4c-0.8,0-1.6-0.2-2.3-0.6c-0.7-0.4-1.2-1-1.6-1.8
	c-0.4-0.9-0.6-1.8-0.6-2.7c-0.1-1.4,0.3-2.7,1.2-3.8c0.8-0.9,2-1.4,3.3-1.3c1.2-0.1,2.4,0.5,3.3,1.4C232.2,22.7,232.6,24,232.5,25.3
	z M225,25.3c-0.1,1,0.2,2,0.8,2.9c1.1,1.2,3,1.3,4.2,0.2c0.1-0.1,0.1-0.1,0.2-0.2c0.6-0.8,0.8-1.9,0.8-2.9c0.1-1-0.2-2-0.8-2.9
	c-1.1-1.2-3-1.3-4.2-0.2c-0.1,0.1-0.1,0.1-0.2,0.2C225.2,23.3,224.9,24.3,225,25.3L225,25.3z"/>
<path class="st0" d="M247.4,30.3v-6.4c0-0.6-0.1-1.3-0.5-1.8c-0.4-0.4-1-0.6-1.6-0.6c-0.8-0.1-1.5,0.2-2.1,0.8
	c-0.5,0.7-0.7,1.6-0.7,2.5v5.5h-1.5v-6.4c0-0.6-0.1-1.3-0.5-1.8c-0.4-0.4-1-0.6-1.6-0.6c-0.8,0-1.5,0.3-2,0.8
	c-0.5,0.8-0.7,1.8-0.6,2.8v5.2h-1.5v-9.8h1.1l0.2,1.4h0.1c0.3-0.5,0.7-0.9,1.2-1.1c0.5-0.3,1.1-0.4,1.7-0.4c1.3-0.2,2.5,0.5,3,1.7
	h0.1c0.3-0.5,0.7-0.9,1.3-1.2c0.6-0.3,1.2-0.5,1.9-0.5c0.9-0.1,1.8,0.2,2.5,0.9c0.6,0.8,0.9,1.8,0.8,2.7v6.4L247.4,30.3z"/>
<path class="st0" d="M256.2,30.5c-0.6,0-1.2-0.1-1.8-0.4c-0.5-0.2-1-0.6-1.3-1.1H253c0.1,0.5,0.1,1.1,0.1,1.6v4h-1.5V20.4h1.2
	l0.2,1.4h0.1c0.3-0.5,0.8-0.9,1.3-1.2c0.6-0.2,1.2-0.4,1.8-0.4c1.2-0.1,2.3,0.4,3,1.3c0.8,1.1,1.1,2.4,1.1,3.8
	c0.1,1.3-0.3,2.7-1.1,3.8C258.4,30,257.3,30.5,256.2,30.5z M256,21.5c-0.8-0.1-1.6,0.2-2.2,0.8c-0.5,0.8-0.8,1.7-0.7,2.7v0.3
	c-0.1,1,0.1,2.1,0.7,3c0.6,0.6,1.4,1,2.2,0.9c0.8,0,1.6-0.3,2-1c0.5-0.9,0.8-1.8,0.7-2.9c0.1-1-0.2-2-0.8-2.9
	C257.5,21.9,256.8,21.5,256,21.5z"/>
<path class="st0" d="M263.9,20.4v6.4c-0.1,0.6,0.1,1.3,0.5,1.8c0.5,0.4,1.1,0.6,1.7,0.6c0.8,0.1,1.7-0.2,2.3-0.8
	c0.5-0.8,0.8-1.8,0.7-2.8v-5.2h1.5v9.8h-1.2l-0.2-1.3h-0.1c-0.3,0.5-0.8,0.9-1.3,1.1c-0.6,0.3-1.2,0.4-1.9,0.4
	c-1,0.1-1.9-0.2-2.7-0.9c-0.7-0.7-1-1.7-0.9-2.7v-6.5H263.9z"/>
<path class="st0" d="M276.7,29.2c0.3,0,0.5,0,0.8-0.1c0.2,0,0.4-0.1,0.6-0.2v1.1c-0.2,0.1-0.5,0.2-0.7,0.2c-0.3,0-0.6,0.1-0.8,0.1
	c-1.9,0-2.9-1-2.9-3v-5.8h-1.4v-0.7l1.4-0.6l0.6-2.1h0.9v2.3h2.9v1.2h-2.9v5.8c0,0.5,0.1,1,0.4,1.4
	C275.8,29.1,276.3,29.2,276.7,29.2z"/>
<path class="st0" d="M283.8,30.5c-1.3,0.1-2.5-0.4-3.4-1.3c-0.9-1-1.3-2.3-1.3-3.7c-0.1-1.4,0.3-2.7,1.2-3.8
	c0.8-0.9,1.9-1.4,3.1-1.4c1.1-0.1,2.2,0.4,2.9,1.2c0.8,0.9,1.1,2,1.1,3.2v0.9h-6.8c0,1,0.3,1.9,0.9,2.6c0.6,0.6,1.5,1,2.3,0.9
	c1.1,0,2.1-0.2,3.1-0.7v1.3c-0.5,0.2-1,0.4-1.5,0.5C284.9,30.4,284.4,30.5,283.8,30.5z M283.4,21.5c-0.7,0-1.4,0.3-1.9,0.8
	c-0.5,0.6-0.8,1.4-0.8,2.1h5.1c0.1-0.8-0.2-1.5-0.6-2.2C284.8,21.7,284.1,21.5,283.4,21.5z"/>
<path class="st0" d="M294.1,20.2c0.4,0,0.8,0,1.2,0.1l-0.2,1.4c-0.4-0.1-0.7-0.1-1.1-0.1c-0.8,0-1.5,0.4-2,1
	c-0.6,0.7-0.9,1.5-0.9,2.4v5.3h-1.5v-9.9h1.2l0.2,1.8h0.1c0.3-0.6,0.8-1.1,1.3-1.5C293,20.4,293.5,20.3,294.1,20.2z"/>
<path class="st0" d="M93.7,50.2c0,1.1-0.4,2.1-1.2,2.7c-1,0.7-2.2,1.1-3.4,1c-1.2,0.1-2.5-0.1-3.6-0.6v-1.5c0.6,0.2,1.2,0.4,1.8,0.5
	c0.6,0.1,1.3,0.2,1.9,0.2c0.8,0.1,1.6-0.1,2.3-0.5c0.5-0.4,0.8-1,0.8-1.6c0-0.4-0.1-0.8-0.3-1.1c-0.2-0.3-0.6-0.6-0.9-0.8
	c-0.6-0.3-1.3-0.6-2-0.8c-1-0.3-1.9-0.9-2.6-1.6c-0.5-0.7-0.8-1.5-0.8-2.3c0-0.9,0.4-1.8,1.1-2.4c0.9-0.6,1.9-0.9,3-0.9
	c1.2,0,2.5,0.2,3.6,0.7l-0.5,1.3c-1-0.4-2.1-0.7-3.2-0.7c-0.7,0-1.3,0.1-1.9,0.5c-0.5,0.3-0.7,0.9-0.7,1.5c0,0.4,0.1,0.8,0.2,1.1
	c0.2,0.3,0.5,0.6,0.8,0.8c0.6,0.3,1.2,0.6,1.8,0.8c1.1,0.3,2,0.9,2.9,1.6C93.5,48.6,93.7,49.4,93.7,50.2z"/>
<path class="st0" d="M99.8,53.9c-1.2,0.1-2.5-0.4-3.3-1.3c-0.8-1.1-1.3-2.4-1.2-3.7c-0.1-1.4,0.3-2.7,1.2-3.8
	c0.9-0.9,2.1-1.4,3.4-1.3c0.5,0,1,0.1,1.4,0.2c0.4,0.1,0.8,0.2,1.1,0.4l-0.4,1.3c-0.4-0.1-0.7-0.2-1.1-0.3c-0.3-0.1-0.7-0.1-1-0.1
	c-2,0-3,1.3-3,3.8c-0.1,1,0.2,2,0.7,2.8c0.5,0.7,1.3,1,2.2,1c0.9,0,1.7-0.2,2.5-0.5v1.3C101.5,53.8,100.7,53.9,99.8,53.9z"/>
<path class="st0" d="M104.1,41.2c0-0.3,0.1-0.5,0.2-0.8c0.4-0.3,0.9-0.3,1.2,0c0.2,0.2,0.3,0.5,0.3,0.8c0,0.3-0.1,0.5-0.3,0.8
	c-0.4,0.3-0.9,0.3-1.2,0C104.2,41.7,104.1,41.5,104.1,41.2z M105.8,53.7h-1.5v-9.9h1.5V53.7z"/>
<path class="st0" d="M112.8,53.9c-1.3,0.1-2.5-0.4-3.4-1.3c-0.9-1-1.4-2.3-1.3-3.7c-0.1-1.4,0.3-2.7,1.2-3.8
	c0.8-0.9,1.9-1.4,3.2-1.4c1.1,0,2.2,0.4,2.9,1.2c0.8,0.9,1.1,2,1.1,3.2V49h-6.8c0,1,0.3,1.9,0.9,2.6c0.6,0.6,1.5,0.9,2.3,0.9
	c1.1,0,2.1-0.2,3.1-0.7v1.3c-0.5,0.2-1,0.4-1.5,0.5C113.9,53.8,113.3,53.9,112.8,53.9z M112.3,44.9c-0.7,0-1.4,0.3-1.9,0.8
	c-0.5,0.6-0.8,1.4-0.8,2.1h5.2c0.1-0.8-0.2-1.5-0.6-2.2C113.7,45.1,113,44.9,112.3,44.9L112.3,44.9z"/>
<path class="st0" d="M125.3,53.7v-6.4c0.1-0.6-0.1-1.3-0.6-1.8c-0.5-0.4-1.1-0.6-1.7-0.6c-0.8-0.1-1.7,0.2-2.3,0.8
	c-0.5,0.8-0.8,1.8-0.7,2.8v5.2h-1.5v-9.9h1.2l0.2,1.3h0.1c0.3-0.5,0.8-0.9,1.3-1.1c0.6-0.3,1.2-0.4,1.8-0.4c1-0.1,1.9,0.2,2.7,0.9
	c0.7,0.8,1,1.7,0.9,2.7v6.4H125.3z"/>
<path class="st0" d="M133.5,53.9c-1.2,0.1-2.5-0.4-3.3-1.3c-0.8-1.1-1.2-2.4-1.2-3.7c-0.1-1.4,0.3-2.7,1.2-3.8
	c0.9-0.9,2.1-1.4,3.4-1.3c0.5,0,1,0.1,1.4,0.2c0.4,0.1,0.8,0.2,1.1,0.4l-0.5,1.3c-0.4-0.1-0.7-0.2-1.1-0.3c-0.3-0.1-0.7-0.1-1-0.1
	c-2,0-3,1.3-3,3.8c-0.1,1,0.2,2,0.7,2.8c0.5,0.7,1.3,1,2.2,1c0.9,0,1.7-0.2,2.5-0.6v1.3C135.2,53.7,134.3,53.9,133.5,53.9z"/>
<path class="st0" d="M142.1,53.9c-1.3,0.1-2.5-0.4-3.4-1.3c-0.9-1-1.3-2.3-1.3-3.7c-0.1-1.4,0.3-2.7,1.2-3.8
	c0.8-0.9,1.9-1.4,3.1-1.4c1.1,0,2.2,0.4,2.9,1.2c0.7,0.9,1.1,2,1.1,3.2V49H139c0,1,0.3,1.9,0.9,2.6c0.6,0.6,1.5,0.9,2.3,0.9
	c1.1,0,2.1-0.2,3.1-0.7v1.3c-0.5,0.2-1,0.4-1.5,0.5C143.3,53.8,142.7,53.9,142.1,53.9z M141.7,44.9c-0.7,0-1.4,0.3-1.9,0.8
	c-0.5,0.6-0.8,1.4-0.8,2.1h5.1c0.1-0.8-0.2-1.5-0.6-2.2C143.1,45.1,142.4,44.9,141.7,44.9L141.7,44.9z"/>
<path class="st0" d="M151.8,50.3c0-0.7,0.2-1.5,0.6-2.1c0.6-0.8,1.4-1.4,2.2-1.8c-0.4-0.4-0.7-0.8-1-1.3c-0.2-0.3-0.3-0.6-0.4-0.9
	c-0.1-0.3-0.2-0.7-0.2-1c0-0.8,0.3-1.6,0.9-2.1c0.7-0.5,1.6-0.8,2.5-0.8c0.8,0,1.6,0.2,2.3,0.8c0.6,0.5,0.9,1.3,0.8,2.1
	c0,0.7-0.2,1.3-0.7,1.8c-0.6,0.7-1.2,1.2-2,1.7l3.6,3.5c0.3-0.4,0.6-0.8,0.8-1.3c0.2-0.5,0.4-1.1,0.5-1.6h1.5
	c-0.3,1.4-0.9,2.8-1.8,3.9l2.7,2.6h-2.1l-1.7-1.6c-0.6,0.6-1.4,1-2.1,1.4c-0.8,0.3-1.6,0.4-2.4,0.4c-1.1,0.1-2.2-0.3-3-1
	C152.2,52.2,151.8,51.3,151.8,50.3z M155.9,52.5c1.3,0,2.6-0.5,3.6-1.4l-3.9-3.8c-0.5,0.3-1,0.6-1.4,1c-0.5,0.5-0.8,1.2-0.8,1.9
	c0,0.6,0.2,1.2,0.7,1.7C154.6,52.3,155.2,52.6,155.9,52.5L155.9,52.5z M154.5,43.2c0,0.4,0.1,0.8,0.3,1.2c0.3,0.5,0.7,0.9,1.1,1.4
	c0.6-0.3,1.2-0.7,1.6-1.2c0.3-0.4,0.5-0.8,0.4-1.3c0-0.4-0.2-0.8-0.5-1.1c-0.3-0.3-0.8-0.5-1.2-0.4c-0.5,0-1,0.1-1.4,0.4
	C154.7,42.3,154.5,42.7,154.5,43.2L154.5,43.2z"/>
<path class="st0" d="M177.5,53.7h-7.3V40.6h7.3v1.3h-5.8v4.2h5.4v1.3h-5.4v4.8h5.8V53.7z"/>
<path class="st0" d="M186.6,53.7v-6.4c0-0.6-0.1-1.3-0.5-1.8c-0.5-0.4-1.1-0.6-1.7-0.6c-0.8-0.1-1.7,0.2-2.3,0.8
	c-0.6,0.8-0.8,1.8-0.7,2.8v5.2h-1.5v-9.9h1.2l0.2,1.3h0.1c0.3-0.5,0.8-0.9,1.3-1.1c0.6-0.3,1.2-0.4,1.8-0.4c1-0.1,1.9,0.2,2.7,0.9
	c0.7,0.8,1,1.7,0.9,2.7v6.4H186.6z"/>
<path class="st0" d="M198.8,43.8v1L197,45c0.2,0.3,0.3,0.5,0.4,0.8c0.1,0.4,0.2,0.8,0.2,1.2c0,0.9-0.3,1.7-1,2.3
	c-0.8,0.6-1.7,0.9-2.7,0.9c-0.3,0-0.5,0-0.8-0.1c-0.5,0.2-0.9,0.7-0.9,1.3c0,0.2,0.1,0.5,0.3,0.6c0.4,0.2,0.8,0.2,1.1,0.2h1.7
	c0.9-0.1,1.7,0.2,2.5,0.7c0.6,0.5,0.9,1.2,0.9,2c0,1-0.5,2-1.3,2.5c-1.2,0.6-2.5,0.9-3.8,0.8c-1,0.1-2.1-0.2-3-0.7
	c-1.1-0.8-1.4-2.3-0.6-3.4c0,0,0.1-0.1,0.1-0.1c0.4-0.5,1-0.8,1.6-0.9c-0.3-0.1-0.5-0.3-0.6-0.5c-0.2-0.2-0.3-0.5-0.2-0.8
	c0-0.3,0.1-0.7,0.3-0.9c0.3-0.3,0.6-0.6,0.9-0.8c-0.5-0.2-0.9-0.6-1.2-1.1c-0.8-1.4-0.6-3.1,0.5-4.2c0.8-0.6,1.7-0.9,2.7-0.9
	c0.5,0,0.9,0.1,1.4,0.2L198.8,43.8z M191,55.3c0,0.5,0.2,1,0.7,1.2c0.6,0.3,1.3,0.5,1.9,0.4c1,0.1,1.9-0.1,2.8-0.6
	c0.6-0.3,0.9-0.9,0.9-1.5c0-0.4-0.1-0.9-0.5-1.1c-0.6-0.3-1.2-0.4-1.9-0.3h-1.8c-0.6,0-1.1,0.1-1.6,0.5
	C191.2,54.3,191,54.8,191,55.3z M191.8,47c0,0.6,0.2,1.1,0.6,1.6c0.5,0.4,1,0.6,1.6,0.5c1,0.2,2-0.5,2.2-1.6c0-0.2,0-0.3,0-0.5
	c0.1-1.1-0.6-2.1-1.7-2.2c-0.2,0-0.3,0-0.5,0c-0.6,0-1.2,0.2-1.6,0.6C192,45.8,191.8,46.4,191.8,47z"/>
<path class="st0" d="M200.4,41.2c0-0.3,0.1-0.5,0.2-0.8c0.4-0.3,0.9-0.3,1.2,0c0.2,0.2,0.3,0.5,0.3,0.8c0,0.3-0.1,0.5-0.3,0.8
	c-0.4,0.3-0.9,0.3-1.2,0C200.5,41.7,200.4,41.5,200.4,41.2z M202,53.7h-1.5v-9.8h1.5V53.7z"/>
<path class="st0" d="M211.6,53.7v-6.4c0-0.6-0.2-1.3-0.6-1.8c-0.5-0.4-1.1-0.6-1.7-0.6c-0.8-0.1-1.7,0.2-2.3,0.8
	c-0.6,0.8-0.8,1.8-0.7,2.8v5.2h-1.5v-9.9h1.2l0.2,1.3h0.1c0.3-0.5,0.8-0.9,1.3-1.1c0.6-0.3,1.2-0.4,1.8-0.4c1-0.1,1.9,0.2,2.7,0.9
	c0.7,0.8,1,1.7,0.9,2.7v6.4H211.6z"/>
<path class="st0" d="M220,53.9c-1.3,0.1-2.5-0.4-3.4-1.3c-0.9-1-1.3-2.3-1.3-3.7c-0.1-1.4,0.3-2.7,1.2-3.8c0.8-0.9,1.9-1.4,3.1-1.4
	c1.1,0,2.2,0.4,2.9,1.2c0.7,0.9,1.1,2,1.1,3.2V49h-6.8c0,1,0.3,1.9,0.9,2.6c0.6,0.6,1.5,0.9,2.3,0.9c1.1,0,2.1-0.2,3.1-0.7v1.3
	c-0.5,0.2-1,0.4-1.5,0.5C221.1,53.8,220.6,53.9,220,53.9z M219.6,44.9c-0.7,0-1.4,0.3-1.9,0.8c-0.5,0.6-0.8,1.4-0.8,2.1h5.1
	c0.1-0.8-0.2-1.5-0.6-2.2C220.9,45.1,220.2,44.9,219.6,44.9L219.6,44.9z"/>
<path class="st0" d="M230,53.9c-1.3,0.1-2.5-0.4-3.4-1.3c-0.9-1-1.3-2.3-1.3-3.7c-0.1-1.4,0.3-2.7,1.2-3.8c0.8-0.9,1.9-1.4,3.1-1.4
	c1.1-0.1,2.2,0.4,2.9,1.2c0.8,0.9,1.1,2,1.1,3.2V49h-6.8c0,1,0.3,1.9,0.9,2.6c0.6,0.6,1.5,0.9,2.3,0.9c1.1,0,2.1-0.2,3.1-0.7v1.3
	c-0.5,0.2-1,0.4-1.5,0.5C231.1,53.8,230.6,53.9,230,53.9z M229.6,44.9c-0.7,0-1.4,0.3-1.9,0.8c-0.5,0.6-0.8,1.4-0.8,2.1h5.1
	c0.1-0.8-0.2-1.5-0.6-2.2C230.9,45.1,230.2,44.8,229.6,44.9L229.6,44.9z"/>
<path class="st0" d="M240.3,43.7c0.4,0,0.8,0,1.2,0.1l-0.2,1.4c-0.4-0.1-0.7-0.1-1.1-0.1c-0.8,0-1.5,0.4-2,1
	c-0.6,0.7-0.9,1.5-0.9,2.4v5.3h-1.5v-9.9h1.2l0.2,1.8h0.1c0.3-0.6,0.8-1.1,1.3-1.5C239.1,43.8,239.7,43.7,240.3,43.7z"/>
<path class="st0" d="M242.8,41.2c0-0.3,0.1-0.5,0.2-0.8c0.4-0.3,0.9-0.3,1.2,0c0.2,0.2,0.3,0.5,0.3,0.8c0,0.3-0.1,0.5-0.3,0.8
	c-0.4,0.3-0.9,0.3-1.2,0C242.9,41.7,242.8,41.5,242.8,41.2z M244.4,53.7H243v-9.9h1.5L244.4,53.7z"/>
<path class="st0" d="M254,53.7v-6.4c0-0.6-0.1-1.3-0.5-1.8c-0.5-0.4-1.1-0.6-1.7-0.6c-0.8-0.1-1.7,0.2-2.3,0.8
	c-0.6,0.8-0.8,1.8-0.7,2.8v5.2h-1.5v-9.9h1.2l0.2,1.3h0.1c0.3-0.5,0.8-0.9,1.3-1.1c0.6-0.3,1.2-0.4,1.8-0.4c1-0.1,1.9,0.2,2.7,0.9
	c0.7,0.8,1,1.7,0.9,2.7v6.4H254z"/>
<path class="st0" d="M266.3,43.8v1l-1.8,0.2c0.2,0.2,0.3,0.5,0.5,0.8c0.1,0.4,0.2,0.8,0.2,1.2c0,0.9-0.3,1.7-1,2.3
	c-0.8,0.6-1.7,0.9-2.7,0.9c-0.3,0-0.5,0-0.8-0.1c-0.5,0.2-0.9,0.7-1,1.3c0,0.2,0.1,0.5,0.3,0.6c0.4,0.2,0.8,0.2,1.1,0.2h1.7
	c0.9-0.1,1.7,0.2,2.5,0.7c0.6,0.5,0.9,1.2,0.9,2c0,1-0.5,2-1.3,2.5c-1.2,0.6-2.5,0.9-3.8,0.8c-1,0.1-2.1-0.2-3-0.7
	c-1.1-0.8-1.4-2.3-0.6-3.4c0,0,0.1-0.1,0.1-0.1c0.4-0.5,1-0.8,1.6-0.9c-0.3-0.1-0.5-0.3-0.6-0.5c-0.2-0.2-0.3-0.5-0.2-0.8
	c0-0.3,0.1-0.7,0.3-0.9c0.3-0.3,0.6-0.6,0.9-0.8c-0.5-0.2-0.9-0.6-1.2-1.1c-0.8-1.4-0.6-3.1,0.5-4.2c0.8-0.6,1.7-0.9,2.7-0.9
	c0.5,0,0.9,0.1,1.4,0.2L266.3,43.8z M258.4,55.3c0,0.5,0.2,1,0.7,1.2c0.6,0.3,1.3,0.5,1.9,0.4c1,0.1,1.9-0.1,2.8-0.6
	c0.6-0.3,0.9-0.9,0.9-1.5c0-0.4-0.1-0.9-0.5-1.1c-0.6-0.3-1.2-0.4-1.9-0.3h-1.8c-0.6,0-1.1,0.2-1.6,0.5
	C258.6,54.3,258.4,54.8,258.4,55.3z M259.2,47c0,0.6,0.2,1.1,0.6,1.6c0.5,0.4,1,0.6,1.6,0.5c1,0.2,2-0.5,2.2-1.6c0-0.2,0-0.3,0-0.5
	c0.1-1.1-0.7-2.1-1.8-2.2c-0.2,0-0.3,0-0.5,0c-0.6,0-1.2,0.2-1.6,0.6C259.4,45.8,259.2,46.4,259.2,47z"/>
<path class="st0" d="M38.3,49.4c0-0.9,0.7-1.7,1.6-1.7c0.9,0,1.7,0.7,1.7,1.6c0,0.9-0.7,1.7-1.6,1.7c0,0,0,0,0,0
	C39,51,38.3,50.3,38.3,49.4 M41.2,49.4c0.1-0.7-0.4-1.3-1.1-1.4s-1.3,0.4-1.4,1.1c0,0.1,0,0.1,0,0.2c-0.1,0.7,0.4,1.3,1.1,1.4
	s1.3-0.4,1.4-1.1C41.2,49.5,41.2,49.4,41.2,49.4 M39.3,48.4H40c0.5,0,0.7,0.2,0.7,0.5c0,0.3-0.2,0.5-0.4,0.5c0,0,0,0-0.1,0l0.5,0.8
	h-0.3l-0.5-0.8h-0.2v0.8h-0.3L39.3,48.4z M39.6,49.2h0.3c0.2,0,0.4,0,0.4-0.3s-0.2-0.3-0.4-0.3h-0.3V49.2z"/>
<polygon class="st0" points="54,21.6 48.7,21.6 48.4,21.6 48.2,21.9 44.4,29.9 40.5,21.9 40.4,21.6 40.1,21.6 35,21.6 34.5,21.6 
	34.5,22.1 34.5,24.8 34.5,25.3 35,25.3 35.9,25.3 35.9,36.7 34.9,36.7 34.4,36.7 34.4,37.2 34.4,40 34.4,40.5 34.9,40.5 40.7,40.5 
	41.1,40.5 41.1,40 41.1,37.2 41.1,36.7 40.7,36.7 39.7,36.7 39.7,28.6 44,37.5 44.4,38.4 44.8,37.5 49.2,28.6 49.2,36.7 48.2,36.7 
	47.7,36.7 47.7,37.2 47.7,40 47.7,40.5 48.2,40.5 54,40.5 54.5,40.5 54.5,40 54.5,37.2 54.5,36.7 54,36.7 53,36.7 53,25.3 54,25.3 
	54.5,25.3 54.5,24.8 54.5,22.1 54.5,21.6 "/>
<path class="st0" d="M20.6,36.7h-1.5l-5-11.5h1v-3.7h-8v3.7h1.1l-5,11.5H1.1v3.7h7.2v-3.7H7.3l0.8-1.9h6l0.8,1.9h-1.1v3.7h7.2v-3.7
	H20.6z M12.5,31.1H9.7l1.4-3.2L12.5,31.1z"/>
<path class="st0" d="M47.9,7.2H7.6H7v0.6v10.8v0.6h0.6h7h0.6v-0.6v-4h8.6v28.4h-4h-0.6v0.6v7V51h0.6h16.1h0.6v-0.5v-7v-0.6h-0.6h-4
	V14.6h8.5v4v0.6h0.6h7h0.5v-0.6V7.8V7.2H47.9z M33,46.3l1.7-1.8v4.8L33,47.7V46.3z M30.1,44.6l-1.7,1.7V11.2l1.7,1.7V44.6z
	 M10.4,10.6L8.7,8.9h37.3l-2.2,1.7H10.4z M46.8,17.5l-1.7-1.6v-4.3l1.7-1.8V17.5z"/>
</svg>
