<svg width="95" height="132" viewBox="0 0 95 132" fill="none" xmlns="http://www.w3.org/2000/svg">
<path d="M94.4277 104.17C93.8554 114.997 87.5602 125.825 76.6867 129.615C67.5301 132.863 55.5121 133.404 47.5001 126.908C41.2049 122.577 38.9156 112.832 45.2108 107.959C51.506 102.546 62.9518 107.418 62.3795 115.539C64.6686 120.953 52.6507 124.201 58.9459 128.532C66.3856 130.156 73.8254 124.742 76.1145 117.704C78.976 107.959 78.976 97.6732 76.1145 87.9285C74.97 83.0561 71.5361 75.477 65.2409 77.6425C56.6566 79.808 51.506 87.9284 48.6446 94.9663C46.9277 84.6801 40.0603 75.4769 32.0482 68.439C32.0482 89.5527 32.0482 110.666 32.0482 131.78H26.8976C26.8976 88.47 26.8976 44.077 26.8976 0.766846H32.0482C32.0482 21.8806 32.0482 43.5357 32.0482 64.1081C40.0603 57.0701 46.9277 48.408 48.6446 37.5804C51.506 45.1597 57.2289 53.8217 66.3856 55.4458C73.253 55.9872 75.5421 47.8666 76.6867 42.9942C78.4036 33.7908 78.976 23.5047 75.5422 14.3013C73.2531 7.80475 65.8133 2.39104 58.3735 4.55655C52.6507 8.88757 64.0963 11.5944 62.3795 17.0082C63.524 24.5874 53.7952 30.5425 46.9278 26.7529C39.488 22.9632 40.0602 12.6771 45.7831 7.80468C49.7891 4.01504 57.2289 1.84967 62.3795 1.84967C68.1024 1.84967 70.9639 2.39085 76.1145 4.01498C86.988 7.80462 93.8554 18.6324 94.4277 28.9185C96.1446 40.8288 88.7048 54.3633 76.6867 58.6943C68.6746 61.4012 60.0903 59.2355 53.7951 53.8218C52.6506 59.2355 50.3615 64.1078 47.5001 67.8974C49.7892 71.6871 52.6506 78.1837 53.7951 79.8078C61.2349 73.3113 74.3975 72.7698 82.4096 78.725C90.4216 84.1387 95.5723 94.425 94.4277 104.17Z" fill="black"/>
<path d="M16.0242 131.839H0V0.254272H16.0242V131.839Z" fill="black"/>
</svg>
