<svg width="109" height="116" viewBox="0 0 109 116" fill="none" xmlns="http://www.w3.org/2000/svg">
<path d="M108.11 18.6086C108.11 20.7147 107.219 22.8209 105.438 24.225C103.148 26.0971 99.7138 26.4481 96.9153 25.512C94.1167 24.576 92.0813 22.0018 91.9541 19.1936C91.6997 17.0875 92.463 14.7474 94.2439 13.2263C95.8976 11.7052 98.1873 10.8861 100.477 11.0032C102.894 11.0032 105.184 12.1732 106.583 13.9283C107.601 15.3324 108.11 16.9705 108.11 18.6086Z" fill="black"/>
<path d="M108.11 52.3068C108.11 54.4129 107.219 56.5191 105.438 57.9232C103.148 59.7953 99.7138 60.1463 96.9153 59.2102C94.1167 58.2742 92.0813 55.7 91.9541 52.8918C91.6997 50.7857 92.5902 48.5625 94.1167 46.9243C95.6432 45.2862 98.0601 44.5842 100.35 44.7012C103.403 44.8182 106.074 46.6903 107.346 49.1475C107.855 50.2006 108.11 51.2537 108.11 52.3068Z" fill="black"/>
<path d="M81.2683 42.0108C81.5227 58.2748 73.6358 74.0709 61.1693 85.4206C45.6499 99.6955 25.1693 108.822 4.43435 114.906C1.63576 116.311 -2.43491 114.438 1.89018 112.566C10.2859 109.056 18.9361 106.014 26.6958 101.334C43.7418 91.622 58.1163 76.411 61.5509 57.8068C63.5863 46.457 63.0775 34.7563 59.8973 23.6406C57.6075 15.4501 51.5015 7.02555 41.7065 5.85548C32.9291 4.56839 23.5156 7.37653 17.1552 13.3439C15.5015 14.865 12.3213 19.1943 12.8301 24.1086C16.6464 21.4174 16.392 21.6515 19.445 20.4814C26.5686 17.5562 35.9821 21.7685 37.763 28.906C39.6711 35.5754 38.1446 43.8829 31.1481 47.5101C23.77 51.2544 12.8301 49.7333 8.63223 42.3618C1.76298 31.1291 5.57923 15.8011 16.6464 7.9616C27.9679 -0.69696 44.3778 -0.931003 57.6075 3.39827C71.2188 8.07858 79.3601 21.0665 80.7594 33.9373C81.1411 36.6285 81.2683 39.3196 81.2683 42.0108Z" fill="black"/>
</svg>
