<svg width="159" height="295" viewBox="0 0 159 295" fill="none" xmlns="http://www.w3.org/2000/svg">
<path d="M79.8984 0.598145H79.6258C77.2128 0.598145 75.2566 2.55254 75.2566 4.9634V290.576C75.2566 292.987 77.2128 294.941 79.6258 294.941H79.8984C82.3115 294.941 84.2676 292.987 84.2676 290.576V4.9634C84.2676 2.55254 82.3115 0.598145 79.8984 0.598145Z" fill="#333333"/>
<path d="M158.687 247.97C158.687 249.095 157.252 250.012 155.472 250.012H94.6345C92.8624 250.012 91.4204 249.095 91.4204 247.97C91.4204 246.844 92.8553 245.919 94.6345 245.919H155.472C157.244 245.919 158.687 246.844 158.687 247.97Z" fill="#220800"/>
<path d="M68.1111 247.97C68.1111 249.095 66.6762 250.012 64.897 250.012H4.05905C2.28699 250.012 0.844971 249.095 0.844971 247.97C0.844971 246.844 2.27982 245.919 4.05905 245.919H64.897C66.6691 245.919 68.1111 246.844 68.1111 247.97Z" fill="#220800"/>
<path d="M158.687 210.768C158.687 211.894 157.252 212.811 155.472 212.811H94.6345C92.8624 212.811 91.4204 211.894 91.4204 210.768C91.4204 209.643 92.8553 208.718 94.6345 208.718H155.472C157.244 208.718 158.687 209.671 158.687 210.768Z" fill="#220800"/>
<path d="M68.1111 210.768C68.1111 211.894 66.6762 212.811 64.897 212.811H4.05905C2.28699 212.811 0.844971 211.894 0.844971 210.768C0.844971 209.643 2.27982 208.718 4.05905 208.718H64.897C66.6691 208.718 68.1111 209.671 68.1111 210.768Z" fill="#220800"/>
<path d="M158.687 229.369C158.687 230.494 157.252 231.412 155.472 231.412H94.6345C92.8624 231.412 91.4204 230.494 91.4204 229.369C91.4204 228.243 92.8553 227.319 94.6345 227.319H155.472C157.244 227.319 158.687 228.236 158.687 229.369Z" fill="#220800"/>
<path d="M68.1111 229.369C68.1111 230.494 66.6762 231.412 64.897 231.412H4.05905C2.28699 231.412 0.844971 230.494 0.844971 229.369C0.844971 228.243 2.27982 227.319 4.05905 227.319H64.897C66.6691 227.319 68.1111 228.236 68.1111 229.369Z" fill="#220800"/>
<path d="M158.687 193.644C158.687 194.769 157.252 195.694 155.472 195.694H94.6345C92.8624 195.694 91.4204 194.769 91.4204 193.644C91.4204 192.519 92.8553 191.601 94.6345 191.601H155.472C157.244 191.601 158.687 192.519 158.687 193.644Z" fill="#220800"/>
<path d="M68.1111 193.644C68.1111 194.769 66.6762 195.694 64.897 195.694H4.05905C2.28699 195.694 0.844971 194.769 0.844971 193.644C0.844971 192.519 2.27982 191.601 4.05905 191.601H64.897C66.6691 191.601 68.1111 192.519 68.1111 193.644Z" fill="#220800"/>
<path d="M158.687 156.443C158.687 157.568 157.252 158.485 155.472 158.485H94.6345C92.8624 158.485 91.4204 157.568 91.4204 156.443C91.4204 155.317 92.8553 154.393 94.6345 154.393H155.472C157.244 154.393 158.687 155.31 158.687 156.443Z" fill="#220800"/>
<path d="M68.1111 156.443C68.1111 157.568 66.6762 158.485 64.897 158.485H4.05905C2.28699 158.485 0.844971 157.568 0.844971 156.443C0.844971 155.317 2.27982 154.393 4.05905 154.393H64.897C66.6691 154.393 68.1111 155.31 68.1111 156.443Z" fill="#220800"/>
<path d="M158.687 175.043C158.687 176.168 157.252 177.086 155.472 177.086H94.6345C92.8624 177.086 91.4204 176.168 91.4204 175.043C91.4204 173.918 92.8553 172.993 94.6345 172.993H155.472C157.244 172.993 158.687 173.911 158.687 175.043Z" fill="#220800"/>
<path d="M68.1111 175.043C68.1111 176.168 66.6762 177.086 64.897 177.086H4.05905C2.28699 177.086 0.844971 176.168 0.844971 175.043C0.844971 173.918 2.27982 172.993 4.05905 172.993H64.897C66.6691 172.993 68.1111 173.911 68.1111 175.043Z" fill="#220800"/>
<path d="M158.687 139.089C158.687 140.222 157.252 141.139 155.472 141.139H94.6345C92.8624 141.139 91.4204 140.222 91.4204 139.089C91.4204 137.956 92.8553 137.046 94.6345 137.046H155.472C157.244 137.046 158.687 137.992 158.687 139.089Z" fill="#220800"/>
<path d="M68.1111 139.089C68.1111 140.222 66.6762 141.139 64.897 141.139H4.05905C2.28699 141.139 0.844971 140.222 0.844971 139.089C0.844971 137.956 2.27982 137.046 4.05905 137.046H64.897C66.6691 137.046 68.1111 137.992 68.1111 139.089Z" fill="#220800"/>
<path d="M158.687 101.888C158.687 103.02 157.252 103.938 155.472 103.938H94.6345C92.8624 103.938 91.4204 103.02 91.4204 101.888C91.4204 100.755 92.8553 99.8447 94.6345 99.8447H155.472C157.244 99.8447 158.687 100.762 158.687 101.888Z" fill="#220800"/>
<path d="M68.1111 101.888C68.1111 103.02 66.6762 103.938 64.897 103.938H4.05905C2.28699 103.938 0.844971 103.02 0.844971 101.888C0.844971 100.755 2.27982 99.8447 4.05905 99.8447H64.897C66.6691 99.8447 68.1111 100.762 68.1111 101.888Z" fill="#220800"/>
<path d="M158.687 120.489C158.687 121.621 157.252 122.539 155.472 122.539H94.6345C92.8624 122.539 91.4204 121.621 91.4204 120.489C91.4204 119.356 92.8553 118.446 94.6345 118.446H155.472C157.244 118.446 158.687 119.356 158.687 120.489Z" fill="#220800"/>
<path d="M68.1111 120.489C68.1111 121.621 66.6762 122.539 64.897 122.539H4.05905C2.28699 122.539 0.844971 121.621 0.844971 120.489C0.844971 119.356 2.27982 118.446 4.05905 118.446H64.897C66.6691 118.446 68.1111 119.356 68.1111 120.489Z" fill="#220800"/>
<path d="M158.687 84.7636C158.687 85.8962 157.252 86.8136 155.472 86.8136H94.6345C92.8624 86.8136 91.4204 85.8962 91.4204 84.7636C91.4204 83.6311 92.8553 82.7207 94.6345 82.7207H155.472C157.244 82.7207 158.687 83.6383 158.687 84.7636Z" fill="#220800"/>
<path d="M68.1111 84.7636C68.1111 85.8962 66.6762 86.8136 64.897 86.8136H4.05905C2.28699 86.8136 0.844971 85.8962 0.844971 84.7636C0.844971 83.6311 2.27982 82.7207 4.05905 82.7207H64.897C66.6691 82.7207 68.1111 83.6383 68.1111 84.7636Z" fill="#220800"/>
<path d="M158.687 47.5621C158.687 48.6946 157.252 49.6124 155.472 49.6124H94.6345C92.8624 49.6124 91.4204 48.6946 91.4204 47.5621C91.4204 46.4296 92.8553 45.5195 94.6345 45.5195H155.472C157.244 45.5267 158.687 46.4367 158.687 47.5621Z" fill="#220800"/>
<path d="M68.1111 47.5621C68.1111 48.6946 66.6762 49.6124 64.897 49.6124H4.05905C2.28699 49.6124 0.844971 48.6946 0.844971 47.5621C0.844971 46.4296 2.27982 45.5195 4.05905 45.5195H64.897C66.6691 45.5267 68.1111 46.4367 68.1111 47.5621Z" fill="#220800"/>
<path d="M158.687 66.163C158.687 67.2956 157.252 68.2129 155.472 68.2129H94.6345C92.8624 68.2129 91.4204 67.2956 91.4204 66.163C91.4204 65.0305 92.8553 64.1201 94.6345 64.1201H155.472C157.244 64.1201 158.687 65.0377 158.687 66.163Z" fill="#220800"/>
<path d="M68.1111 66.163C68.1111 67.2956 66.6762 68.2129 64.897 68.2129H4.05905C2.28699 68.2129 0.844971 67.2956 0.844971 66.163C0.844971 65.0305 2.27982 64.1201 4.05905 64.1201H64.897C66.6691 64.1201 68.1111 65.0377 68.1111 66.163Z" fill="#220800"/>
<path d="M128.332 70.5067L125.398 60.3139V38.9105L128.332 28.7178" fill="#42210B"/>
<path d="M128.332 28.7178L125.498 38.6955H34.0332L31.1993 28.7178" fill="url(#paint0_linear)"/>
<path d="M31.1993 28.7178L34.1335 38.9105V60.3139L31.1993 70.5067" fill="#42210B"/>
<path d="M31.1993 70.5065L34.0332 60.5288H125.498L128.332 70.5065" fill="url(#paint1_linear)"/>
<path d="M125.376 38.6953H34.1552V60.5216H125.376V38.6953Z" fill="#603813"/>
<path d="M125.376 49.6125C125.376 50.4727 123.418 51.1679 121.014 51.1679H38.51C36.0994 51.1679 34.1479 50.4512 34.1479 49.6125C34.1479 48.7739 36.0994 48.0498 38.51 48.0498H121.014C123.418 48.0498 125.376 48.7524 125.376 49.6125Z" fill="white"/>
<defs>
<linearGradient id="paint0_linear" x1="135719" y1="1221.75" x2="148870" y2="1221.75" gradientUnits="userSpaceOnUse">
<stop stop-color="#8C6239"/>
<stop offset="1" stop-color="#754C24"/>
</linearGradient>
<linearGradient id="paint1_linear" x1="135719" y1="1696.38" x2="148870" y2="1696.38" gradientUnits="userSpaceOnUse">
<stop stop-color="#A67C52"/>
<stop offset="1" stop-color="#754C24"/>
</linearGradient>
</defs>
</svg>
