<?xml version="1.0" encoding="utf-8"?>
<!-- Generator: Adobe Illustrator 23.0.6, SVG Export Plug-In . SVG Version: 6.00 Build 0)  -->
<svg version="1.1" id="Layer_1" xmlns="http://www.w3.org/2000/svg" xmlns:xlink="http://www.w3.org/1999/xlink" x="0px" y="0px"
	 viewBox="0 0 553 508.7" style="enable-background:new 0 0 553 508.7;" xml:space="preserve">
<style type="text/css">
	.st0{clip-path:url(#SVGID_2_);}
	.st1{fill:none;}
	.st2{fill:none;stroke:#000000;stroke-width:2;stroke-linecap:round;stroke-miterlimit:10;stroke-dasharray:1.000000e-02,8;}
	.st3{fill:#FFFFFF;}
	.st4{fill:#6F85FB;}
	.st5{fill:#231F1B;}
	.st6{fill:#231F1B;stroke:#231F1B;stroke-width:2;stroke-miterlimit:10;}
	.st7{fill:none;stroke:#231F1B;stroke-width:2;stroke-miterlimit:10;}
	.st8{fill:none;stroke:#231F1B;stroke-width:3;stroke-miterlimit:10;}
	.st9{clip-path:url(#SVGID_4_);}
	.st10{fill:#82C0FD;}
	.st11{clip-path:url(#SVGID_6_);}
	.st12{fill:#F8658C;}
	.st13{clip-path:url(#SVGID_8_);}
</style>
<title>Asset 2</title>
<g>
	<g id="Layer_1-2">
		<g>
			<defs>
				<path id="SVGID_1_" d="M215.8,50.2c-8.2,4.9-15.6,12.7-22,23.4c-6.6,11.1-11.3,23.3-13.8,36c-2.8,13.5-3.8,27.3-2.9,41.1
					c0.8,14.3,3.4,28.4,7.7,42c4.3,13.8,10.4,26.9,18.3,39c7.8,12.1,16.2,21.3,25.1,27.7c8.9,6.4,17.7,10,26.6,10.7
					c9,0.7,17.9-1.5,25.5-6.4c8.2-5,15.5-12.8,21.9-23.5c6.6-11.1,11.3-23.2,13.9-35.9c2.8-13.4,3.8-27.2,3-40.9
					c-0.8-14.3-3.4-28.4-7.7-42c-4.3-13.8-10.4-26.9-18.3-39c-7.9-12.1-16.2-21.3-25.1-27.7c-8.9-6.4-17.7-9.9-26.6-10.7
					C232.4,43.3,223.4,45.5,215.8,50.2z"/>
			</defs>
			<clipPath id="SVGID_2_">
				<use xlink:href="#SVGID_1_"  style="overflow:visible;"/>
			</clipPath>
			<g class="st0">
				<path class="st1" d="M215.8,50.2c-8.2,4.9-15.6,12.7-22,23.4c-6.6,11.1-11.3,23.3-13.8,36c-2.8,13.5-3.8,27.3-2.9,41.1
					c0.8,14.3,3.4,28.4,7.7,42c4.3,13.8,10.4,26.9,18.3,39c7.8,12.1,16.2,21.3,25.1,27.7c8.9,6.4,17.7,10,26.6,10.7
					c9,0.7,17.9-1.5,25.5-6.4c8.2-5,15.5-12.8,21.9-23.5c6.6-11.1,11.3-23.2,13.9-35.9c2.8-13.4,3.8-27.2,3-40.9
					c-0.8-14.3-3.4-28.4-7.7-42c-4.3-13.8-10.4-26.9-18.3-39c-7.9-12.1-16.2-21.3-25.1-27.7c-8.9-6.4-17.7-9.9-26.6-10.7
					C232.4,43.3,223.4,45.5,215.8,50.2z"/>
				<line class="st2" x1="206" y1="395" x2="348.1" y2="158.1"/>
				<line class="st2" x1="203.3" y1="389.5" x2="345.4" y2="152.6"/>
				<line class="st2" x1="200.6" y1="384" x2="342.7" y2="147"/>
				<line class="st2" x1="197.9" y1="378.5" x2="340" y2="141.5"/>
				<line class="st2" x1="195.2" y1="373" x2="337.3" y2="136"/>
				<line class="st2" x1="192.5" y1="367.4" x2="334.6" y2="130.5"/>
				<line class="st2" x1="189.9" y1="361.9" x2="331.9" y2="125"/>
				<line class="st2" x1="187.2" y1="356.4" x2="329.2" y2="119.5"/>
				<line class="st2" x1="184.5" y1="350.9" x2="326.5" y2="114"/>
				<line class="st2" x1="181.8" y1="345.4" x2="323.8" y2="108.4"/>
				<line class="st2" x1="179.1" y1="339.9" x2="321.1" y2="102.9"/>
				<line class="st2" x1="176.4" y1="334.4" x2="318.4" y2="97.4"/>
				<line class="st2" x1="173.7" y1="328.8" x2="315.7" y2="91.9"/>
				<line class="st2" x1="171" y1="323.3" x2="313" y2="86.4"/>
				<line class="st2" x1="168.3" y1="317.8" x2="310.3" y2="80.9"/>
				<line class="st2" x1="165.6" y1="312.3" x2="307.6" y2="75.3"/>
				<line class="st2" x1="162.9" y1="306.8" x2="304.9" y2="69.8"/>
				<line class="st2" x1="160.2" y1="301.3" x2="302.2" y2="64.3"/>
				<line class="st2" x1="157.5" y1="295.7" x2="299.5" y2="58.8"/>
				<line class="st2" x1="154.8" y1="290.2" x2="296.8" y2="53.3"/>
				<line class="st2" x1="152.1" y1="284.7" x2="294.1" y2="47.8"/>
				<line class="st2" x1="149.4" y1="279.2" x2="291.5" y2="42.2"/>
				<line class="st2" x1="146.7" y1="273.7" x2="288.8" y2="36.7"/>
				<line class="st2" x1="144" y1="268.2" x2="286.1" y2="31.2"/>
				<line class="st2" x1="141.3" y1="262.6" x2="283.4" y2="25.7"/>
				<line class="st2" x1="138.6" y1="257.1" x2="280.7" y2="20.2"/>
				<line class="st2" x1="135.9" y1="251.6" x2="278" y2="14.7"/>
				<line class="st2" x1="133.3" y1="246.1" x2="275.3" y2="9.1"/>
				<line class="st2" x1="130.6" y1="240.6" x2="272.6" y2="3.6"/>
				<line class="st2" x1="127.9" y1="235.1" x2="269.9" y2="-1.9"/>
				<line class="st2" x1="125.2" y1="229.5" x2="267.2" y2="-7.4"/>
				<line class="st2" x1="122.5" y1="224" x2="264.5" y2="-12.9"/>
				<line class="st2" x1="119.8" y1="218.5" x2="261.8" y2="-18.4"/>
				<line class="st2" x1="117.1" y1="213" x2="259.1" y2="-23.9"/>
				<line class="st2" x1="114.4" y1="207.5" x2="256.4" y2="-29.5"/>
				<line class="st2" x1="111.7" y1="202" x2="253.7" y2="-35"/>
				<line class="st2" x1="109" y1="196.5" x2="251" y2="-40.5"/>
				<line class="st2" x1="203.3" y1="389.5" x2="345.3" y2="152.6"/>
			</g>
		</g>
		<path class="st3" d="M357.9,113.1c-3.7-13.8-8.9-27.1-15.5-39.6C335.9,61.3,328,50,318.9,39.7c-8.4-9.6-18.4-17.7-29.4-24.2
			c-10.6-6.1-20.4-9.2-29.4-9.4c-7-0.3-13.9,1.3-20,4.8l-49.4,28.6l0.2-0.1c-1.2,0.7-2.4,1.5-3.5,2.3c-6.6,4.9-11.7,12.2-15.4,22
			c-3.7,9.8-5.5,21.7-5.5,35.9c0,14.3,1.9,28.4,5.6,42.2c3.6,13.8,8.9,27.1,15.5,39.7c6.4,12.1,14.3,23.4,23.4,33.6
			c8.5,9.5,18.4,17.6,29.4,24c10.6,6.1,20.4,9.2,29.4,9.6c7.1,0.4,14.2-1.3,20.4-4.9L290,244l49.3-28.7c1.1-0.7,2.2-1.4,3.3-2.2
			c6.6-4.9,11.7-12.2,15.4-22s5.5-21.7,5.5-35.9C363.5,141.1,361.6,126.9,357.9,113.1z M193.1,38.2l-0.4,0.2L193.1,38.2z
			 M208.2,34.7L208.2,34.7z M205.4,34.9H205H205.4z M202.6,35.3L202.6,35.3z M200.3,35.7l-0.4,0.1L200.3,35.7z M197.8,36.4l-0.4,0.1
			L197.8,36.4z M195.2,37.3L195.2,37.3z M291.3,243.2l0.5-0.3L291.3,243.2z"/>
		<path class="st4" d="M277.6,175.1c-1.8-0.3-3.5-1-5.1-1.9c-6.3-3.6-11.9-10-15.6-19.7c-1.3-3.3-3.3-10.5-3.3-10.5l-35.1,20.2
			c0,0,2,7.3,3.3,10.6c3.8,9.7,9.4,16.1,15.7,19.7c1.6,0.9,3.3,1.6,5.1,1.9L277.6,175.1"/>
		<path class="st4" d="M193.5,47.5L237,22.2c5.4-3,11.5-4.5,17.7-4.2c7.9,0.2,16.6,3,26,8.3c9.8,5.7,18.5,12.9,26,21.4
			c8.1,9.1,15,19.1,20.7,29.8c5.9,11.1,10.5,22.9,13.7,35.1l-47.5,27.1c-3.3-12.4-7-20.8-12.8-31.8c-5.7-10.7-12.6-20.8-20.7-29.8
			c-7.5-8.5-16.2-15.7-26-21.4c-7.7-4.1-15.9-7.1-24.4-9.1C202,45.8,195.9,46.1,193.5,47.5z"/>
		<path class="st5" d="M258.7,133l-25.9,15l-10.5,6.1c0,0-9.9-50.4,8.9-56.2C249,92.3,258.7,133,258.7,133z"/>
		<path class="st6" d="M339.3,215.3L290,244c1.1-0.7,2.2-1.4,3.3-2.2c6.6-4.9,11.7-12.2,15.4-22c3.7-9.8,5.5-21.7,5.5-35.9
			c0-14.3-1.9-28.4-5.6-42.2l49.3-28.7c3.7,13.8,5.6,28,5.6,42.2c0,14.1-1.8,26.1-5.5,35.9s-8.8,17.1-15.4,22
			C341.5,214,340.4,214.7,339.3,215.3z"/>
		<path class="st7" d="M308.5,141.8c3.7,13.8,5.6,28,5.6,42.2c0,14.1-1.8,26.1-5.5,35.9c-3.7,9.8-8.8,17.1-15.4,22
			c-6.6,4.9-14.4,7.2-23.4,6.9c-9-0.3-18.8-3.5-29.4-9.6c-11-6.4-20.9-14.5-29.4-24c-9.2-10.2-17.1-21.5-23.5-33.6
			c-6.7-12.6-11.9-25.9-15.5-39.7c-3.7-13.8-5.6-28-5.6-42.2c0-14.1,1.8-26.1,5.5-35.8s8.8-17.1,15.4-22c6.6-4.9,14.4-7.2,23.4-7
			c9,0.2,18.8,3.4,29.4,9.4c11,6.4,21,14.6,29.4,24.2c9.2,10.3,17,21.6,23.5,33.8C299.7,114.7,304.9,128,308.5,141.8z M255,180.2
			c3.8-5.4,5.7-14.3,5.7-26.8s-1.9-23.6-5.8-33.5c-3.8-9.8-8.7-16.5-14.6-19.9c-6.4-3.7-11.5-2.7-15.3,2.8s-5.7,14.5-5.7,26.9
			s1.9,23.5,5.8,33.3s8.8,16.4,15.1,20C246.3,186.6,251.2,185.6,255,180.2"/>
		<path class="st8" d="M308.5,141.8c3.7,13.8,5.6,28,5.6,42.2c0,14.1-1.8,26.1-5.5,35.9c-3.7,9.8-8.8,17.1-15.4,22
			c-6.6,4.9-14.4,7.2-23.4,6.9c-9-0.3-18.8-3.5-29.4-9.6c-11-6.4-20.9-14.5-29.4-24c-9.2-10.2-17.1-21.5-23.5-33.6
			c-6.7-12.6-11.9-25.9-15.5-39.7c-3.7-13.8-5.6-28-5.6-42.2c0-14.1,1.8-26.1,5.5-35.8s8.8-17.1,15.4-22c6.6-4.9,14.4-7.2,23.4-7
			c9,0.2,18.8,3.4,29.4,9.4c11,6.4,21,14.6,29.4,24.2c9.2,10.3,17,21.6,23.5,33.8C299.7,114.7,304.9,128,308.5,141.8z M255,180.2
			c3.8-5.4,5.7-14.3,5.7-26.8s-1.9-23.6-5.8-33.5c-3.8-9.8-8.7-16.5-14.6-19.9c-6.4-3.7-11.5-2.7-15.3,2.8s-5.7,14.5-5.7,26.9
			s1.9,23.5,5.8,33.3s8.8,16.4,15.1,20C246.3,186.6,251.2,185.6,255,180.2"/>
		<path class="st8" d="M190.7,39.5L240,10.8c6.1-3.4,13-5.1,20-4.8c9,0.2,18.8,3.4,29.4,9.4c11,6.4,21,14.6,29.4,24.2
			c9.2,10.3,17.1,21.6,23.5,33.8c6.7,12.6,11.9,25.9,15.5,39.6l-49.3,28.7c-3.6-13.8-8.9-27.1-15.5-39.7
			c-6.4-12.2-14.3-23.5-23.5-33.8c-8.4-9.6-18.4-17.8-29.4-24.2c-10.6-6.1-20.4-9.2-29.4-9.4C203.7,34.4,196.8,36.1,190.7,39.5z"/>
		<g>
			<defs>
				<path id="SVGID_3_" d="M510.4,256.9c21.4,12.3,33.2,24.3,35.5,35.7s-4.4,21.8-20.1,30.9c-5.5,3.2-11.4,5.8-17.5,7.6
					c-5.9,1.7-11.9,2.9-18,3.5c-6.3,0.6-12.6,0.8-18.9,0.5c-6.5-0.3-13-0.9-19.5-1.6c-7.8-0.9-15.7-1.9-23.6-3.2
					c-5.7-0.9-11.6-1.7-17.6-2.4c-0.8-0.1-1.6,0.5-1.7,1.3c-0.1,0.6,0.2,1.2,0.7,1.5l55.1,31.9l-47.1,27.3L270.9,305
					c8.5-5,17.4-9.3,26.6-12.9c8.5-3.2,17.3-5.5,26.2-6.9c9.3-1.4,18.7-1.8,28.1-1.3c11,0.6,21.9,1.9,32.7,3.8
					c15.4,2.7,27.6,4.8,36.7,6.3c9.1,1.5,16.1,2.5,21.1,3.1c3.6,0.5,7.2,0.6,10.8,0.3c2-0.3,4-0.9,5.8-1.9c4.6-2.7,6.5-5.5,5.8-8.5
					c-0.8-3-3.7-6-8.9-9c-6.9-3.8-14.4-6.3-22.1-7.3c-8.6-1.3-19.4-1.7-32.4-1l5.6-42c8.1-0.2,16.3,0.4,24.3,1.7
					c9.1,1.4,18,3.4,26.9,5.9c9.2,2.6,18.2,5.7,27,9.3C493.8,248.1,502.2,252.2,510.4,256.9z"/>
			</defs>
			<clipPath id="SVGID_4_">
				<use xlink:href="#SVGID_3_"  style="overflow:visible;"/>
			</clipPath>
			<g class="st9">
				<path class="st1" d="M509.4,256.9c21.4,12.3,33.2,24.3,35.5,35.7s-4.4,21.8-20.1,30.9c-5.5,3.2-11.4,5.8-17.5,7.6
					c-5.9,1.7-11.9,2.9-18,3.5c-6.3,0.6-12.6,0.8-18.9,0.5c-6.5-0.3-13-0.9-19.5-1.6c-7.8-0.9-15.7-1.9-23.6-3.2
					c-5.7-0.9-11.6-1.7-17.6-2.4c-0.8-0.1-1.6,0.5-1.7,1.3c-0.1,0.6,0.2,1.2,0.7,1.5l55.1,31.9l-47.1,27.3L269.9,305
					c8.5-5,17.4-9.3,26.6-12.9c8.5-3.2,17.3-5.5,26.2-6.9c9.3-1.4,18.7-1.8,28.1-1.3c11,0.6,21.9,1.9,32.7,3.8
					c15.4,2.7,27.6,4.8,36.7,6.3c9.1,1.5,16.1,2.5,21.1,3.1c3.6,0.5,7.2,0.6,10.8,0.3c2-0.3,4-0.9,5.8-1.9c4.6-2.7,6.5-5.5,5.8-8.5
					c-0.8-3-3.7-6-8.9-9c-6.9-3.8-14.4-6.3-22.1-7.3c-8.6-1.3-19.4-1.7-32.4-1l5.6-42c8.1-0.2,16.3,0.4,24.3,1.7
					c9.1,1.4,18,3.4,26.9,5.9c9.2,2.6,18.2,5.7,27,9.3C492.8,248.1,501.2,252.2,509.4,256.9z"/>
				<line class="st2" x1="240" y1="287.7" x2="474.7" y2="422.3"/>
				<line class="st2" x1="245.5" y1="285.3" x2="480.2" y2="419.8"/>
				<line class="st2" x1="251" y1="282.8" x2="485.8" y2="417.4"/>
				<line class="st2" x1="256.6" y1="280.3" x2="491.3" y2="414.9"/>
				<line class="st2" x1="262.1" y1="277.8" x2="496.9" y2="412.4"/>
				<line class="st2" x1="267.7" y1="275.4" x2="502.4" y2="410"/>
				<line class="st2" x1="273.2" y1="272.9" x2="507.9" y2="407.5"/>
				<line class="st2" x1="278.7" y1="270.4" x2="513.5" y2="405"/>
				<line class="st2" x1="284.3" y1="268" x2="519" y2="402.5"/>
				<line class="st2" x1="289.8" y1="265.5" x2="524.6" y2="400.1"/>
				<line class="st2" x1="295.4" y1="263" x2="530.1" y2="397.6"/>
				<line class="st2" x1="300.9" y1="260.5" x2="535.6" y2="395.1"/>
				<line class="st2" x1="306.4" y1="258.1" x2="541.2" y2="392.6"/>
				<line class="st2" x1="312" y1="255.6" x2="546.7" y2="390.2"/>
				<line class="st2" x1="317.5" y1="253.1" x2="552.3" y2="387.7"/>
				<line class="st2" x1="323.1" y1="250.6" x2="557.8" y2="385.2"/>
				<line class="st2" x1="328.6" y1="248.2" x2="563.3" y2="382.7"/>
				<line class="st2" x1="334.1" y1="245.7" x2="568.9" y2="380.3"/>
				<line class="st2" x1="339.7" y1="243.2" x2="574.4" y2="377.8"/>
				<line class="st2" x1="345.2" y1="240.7" x2="580" y2="375.3"/>
				<line class="st2" x1="350.8" y1="238.3" x2="585.5" y2="372.8"/>
				<line class="st2" x1="356.3" y1="235.8" x2="591" y2="370.4"/>
				<line class="st2" x1="361.8" y1="233.3" x2="596.6" y2="367.9"/>
				<line class="st2" x1="367.4" y1="230.8" x2="602.1" y2="365.4"/>
				<line class="st2" x1="372.9" y1="228.4" x2="607.7" y2="362.9"/>
				<line class="st2" x1="378.5" y1="225.9" x2="613.2" y2="360.5"/>
				<line class="st2" x1="384" y1="223.4" x2="618.7" y2="358"/>
				<line class="st2" x1="389.5" y1="220.9" x2="624.3" y2="355.5"/>
				<line class="st2" x1="395.1" y1="218.5" x2="629.8" y2="353.1"/>
				<line class="st2" x1="400.6" y1="216" x2="635.4" y2="350.6"/>
				<line class="st2" x1="406.2" y1="213.5" x2="640.9" y2="348.1"/>
				<line class="st2" x1="411.7" y1="211.1" x2="646.4" y2="345.6"/>
				<line class="st2" x1="417.2" y1="208.6" x2="652" y2="343.2"/>
				<line class="st2" x1="238.6" y1="281.3" x2="473.3" y2="415.9"/>
			</g>
		</g>
		<path class="st3" d="M545.1,224.4c0.2-2.1,0.1-4.2-0.3-6.3c-2.3-11.5-14.1-23.4-35.5-35.7c-8.2-4.7-16.7-8.8-25.4-12.4
			c-8.8-3.6-17.8-6.7-27-9.3c-8.8-2.5-17.8-4.5-26.9-5.9c-8-1.3-16.2-1.9-24.3-1.7l-5.6,42l1.5-0.1l-0.1,0.9l-2.6,0.1V216l-15.7-2.7
			c-10.8-1.9-21.7-3.1-32.7-3.8c-9.4-0.5-18.8-0.1-28.1,1.3c-9,1.3-17.7,3.6-26.2,6.8c-9.2,3.6-18.1,7.9-26.6,12.9l10.3,6l-0.5,0.3
			l-10.8-6.3l-0.2,56.1l146.9,84.8l0.1-45.1l1,0.6l-0.1,46.2l47.1-28.1l0.5-27.7c2,0.1,4,0.3,6,0.4c6.3,0.3,12.6,0.2,18.9-0.5
			c6.1-0.6,12.1-1.8,18-3.5c6.1-1.8,12-4.3,17.5-7.6c13.7-8,20.5-16.8,20.5-26.5l0.1-44.9c0-0.4,0-0.9,0-1.3v-10.9
			C545.2,223.1,545.2,223.7,545.1,224.4z M544.4,228.1c0.1-0.4,0.2-0.8,0.3-1.1C544.6,227.4,544.5,227.8,544.4,228.1L544.4,228.1z
			 M544.8,226.3c0.1-0.5,0.2-1,0.2-1.4C545,225.4,544.9,225.8,544.8,226.3L544.8,226.3z"/>
		<path class="st10" d="M508.3,196c21.4,12.4,33.2,24.3,35.5,35.7s-4.4,21.8-20.1,30.9c-5.5,3.2-11.4,5.8-17.5,7.6
			c-5.9,1.7-11.9,2.9-18,3.5c-6.3,0.7-12.6,0.8-18.9,0.5c-6.5-0.3-13-0.9-19.5-1.6c-7.8-0.9-15.7-1.9-23.6-3.2s-16.2-2.3-24.8-3.2
			l61.3,35.4l-47.1,27.4l-147-84.8c8.5-5,17.4-9.3,26.6-12.9c8.5-3.2,17.3-5.5,26.2-6.8c9.3-1.4,18.7-1.8,28.1-1.3
			c11,0.6,21.9,1.9,32.7,3.8c15.4,2.7,27.6,4.8,36.7,6.3c9.1,1.5,16.1,2.5,21.1,3.1c3.6,0.5,7.2,0.6,10.8,0.3c2-0.3,4-0.9,5.8-1.9
			c4.6-2.7,6.5-5.5,5.8-8.5c-0.8-3-3.7-6-8.9-9c-6.9-3.8-14.4-6.3-22.1-7.3c-8.6-1.3-19.4-1.7-32.4-1l5.6-42
			c8.1-0.2,16.3,0.4,24.3,1.7c9.1,1.4,18,3.4,26.9,5.9c9.2,2.6,18.2,5.7,27,9.3C491.7,187.2,500.2,191.3,508.3,196z"/>
		<path class="st5" d="M545.2,222.5l-0.2,57c0,9.7-6.8,18.6-20.5,26.5c-5.5,3.2-11.4,5.8-17.5,7.6c-5.9,1.7-11.9,2.9-18,3.5
			c-6.3,0.6-12.6,0.8-18.9,0.5c-6.5-0.3-13-0.9-19.5-1.6c-7.8-0.9-15.7-1.9-23.6-3.2c-8-1.3,39-22.3,36.8-24.9l-55.2-32.6
			c-0.4-0.2-0.5-0.7-0.3-1.1c0.2-0.3,0.6-0.5,0.9-0.4c6.4,1.4,11.5,0.9,18,2c8,1.3,15.9,2.4,23.6,3.2c6.5,0.8,13,1.3,19.5,1.6
			c6.3,0.3,12.6,0.2,18.9-0.5c6.1-0.7,12.1-1.8,18-3.5c6.1-1.8,12-4.3,17.5-7.6C538.3,241.1,545.2,232.2,545.2,222.5z"/>
		<polygon class="st5" points="464.6,287.9 463.6,345 416.5,373.2 416.6,315.3 		"/>
		<polyline class="st8" points="415.7,315.4 415.5,371.4 268.6,286.6 268.2,230.5 		"/>
		<path class="st8" d="M509.3,182.4c21.4,12.3,33.2,24.3,35.5,35.7c2.3,11.5-4.4,21.8-20.1,30.9c-5.5,3.2-11.4,5.8-17.5,7.6
			c-5.9,1.7-11.9,2.9-18,3.5c-6.3,0.6-12.6,0.8-18.9,0.5c-6.5-0.3-13-0.9-19.5-1.6c-7.8-0.9-15.7-1.9-23.6-3.2
			c-5.7-0.9-11.6-1.7-17.6-2.4c-0.8-0.1-1.6,0.5-1.7,1.4c-0.1,0.6,0.2,1.2,0.7,1.5l55.1,31.8l-47.1,27.4l-146.9-84.8
			c8.5-5,17.4-9.3,26.6-12.9c8.5-3.2,17.3-5.5,26.2-6.8c9.3-1.4,18.7-1.8,28.1-1.3c11,0.6,21.9,1.9,32.7,3.8
			c15.4,2.7,27.6,4.8,36.7,6.3s16.1,2.5,21.1,3.1c3.6,0.5,7.2,0.6,10.8,0.3c2-0.3,4-0.9,5.8-1.9c4.6-2.7,6.5-5.5,5.8-8.5
			c-0.8-3-3.7-6-8.9-9c-6.9-3.8-14.4-6.3-22.1-7.3c-8.6-1.3-19.4-1.7-32.4-1l5.6-42c8.1-0.2,16.3,0.4,24.3,1.7
			c9.1,1.4,18,3.3,26.8,5.8c9.2,2.6,18.2,5.7,27,9.3C492.6,173.5,501.1,177.7,509.3,182.4z"/>
		<path class="st5" d="M463.6,215.7v-2.5c0-0.4-0.1-0.9-0.2-1.3c-0.7-3-3.7-6-8.9-9c-6.9-3.8-14.4-6.3-22.1-7.3
			c-8.6-1.3-20.5-0.1-33.4,0.5v20c0,0,43.5,8.3,53,6.8S463.6,215.7,463.6,215.7z"/>
		<path class="st7" d="M237.7,370.8c0-1.8,0.5-3.5,1.2-5.1c2.7-6,9.5-12.1,20.2-18.4c10.7-6.2,21.3-10.2,31.8-11.9
			c10.5-1.7,18.9-0.7,25.2,3c4,2.3,6,5.3,6,8.8"/>
		<g>
			<defs>
				<path id="SVGID_5_" d="M149.9,341.4c-0.8-0.1-1.6,0.5-1.7,1.3c-0.1,0.6,0.2,1.2,0.7,1.5l45.4,26.2c3.1,1.8,4.2,5.8,2.4,8.9
					c-0.6,1-1.4,1.8-2.4,2.4l-34.1,19.8c-2,1.2-4.5,1.2-6.5,0L20.2,324.4c-3.1-1.8-4.2-5.8-2.4-8.9c0.6-1.1,1.6-2,2.7-2.5
					c5.3-2.7,10.7-5.1,16.3-7.2c8.5-3.2,17.3-5.5,26.2-6.8"/>
			</defs>
			<clipPath id="SVGID_6_">
				<use xlink:href="#SVGID_5_"  style="overflow:visible;"/>
			</clipPath>
			<g class="st11">
				<path class="st1" d="M248.7,270.4c21.4,12.3,33.2,24.3,35.5,35.7c2.3,11.5-4.4,21.8-20.1,30.9c-5.5,3.2-11.4,5.8-17.5,7.6
					c-5.9,1.7-11.9,2.9-18,3.5c-6.3,0.7-12.6,0.8-18.9,0.5c-6.5-0.3-13-0.9-19.5-1.6c-7.8-0.9-15.7-1.9-23.6-3.2
					c-5.7-0.9-11.6-1.7-17.6-2.4c-0.8-0.1-1.6,0.5-1.7,1.3c-0.1,0.6,0.2,1.2,0.7,1.5l55.1,31.8l-47.1,27.4l-147-84.8
					c8.5-5,17.4-9.3,26.6-12.9c8.5-3.2,17.3-5.5,26.2-6.8c9.3-1.4,18.7-1.8,28.1-1.3c11,0.6,21.9,1.9,32.7,3.8
					c15.4,2.7,27.6,4.8,36.7,6.3s16.1,2.5,21.1,3.1c3.6,0.5,7.2,0.6,10.8,0.3c2-0.3,4-0.9,5.8-1.9c4.6-2.7,6.5-5.5,5.8-8.5
					c-0.8-3-3.7-6-8.9-9c-6.9-3.8-14.4-6.3-22.2-7.3c-8.6-1.3-19.4-1.7-32.4-1l5.6-42c8.1-0.2,16.3,0.4,24.3,1.7
					c9.1,1.4,18,3.4,26.9,5.9c9.2,2.6,18.2,5.7,27,9.3C232,261.6,240.5,265.8,248.7,270.4z"/>
				<line class="st2" x1="-20.8" y1="301.3" x2="214" y2="435.9"/>
				<line class="st2" x1="-15.2" y1="298.8" x2="219.5" y2="433.4"/>
				<line class="st2" x1="-9.7" y1="296.4" x2="225" y2="430.9"/>
				<line class="st2" x1="-4.2" y1="293.9" x2="230.6" y2="428.5"/>
				<line class="st2" x1="1.4" y1="291.4" x2="236.1" y2="426"/>
				<line class="st2" x1="6.9" y1="288.9" x2="241.7" y2="423.5"/>
				<line class="st2" x1="12.5" y1="286.5" x2="247.2" y2="421"/>
				<line class="st2" x1="18" y1="284" x2="252.7" y2="418.6"/>
				<line class="st2" x1="23.5" y1="281.5" x2="258.3" y2="416.1"/>
				<line class="st2" x1="29.1" y1="279" x2="263.8" y2="413.6"/>
				<line class="st2" x1="34.6" y1="276.6" x2="149.4" y2="342.4"/>
				<line class="st2" x1="157.6" y1="341.4" x2="274.9" y2="408.7"/>
				<line class="st2" x1="40.2" y1="274.1" x2="157.6" y2="341.4"/>
				<line class="st2" x1="153.7" y1="333.5" x2="280.4" y2="406.2"/>
				<line class="st2" x1="90.2" y1="297.1" x2="153.7" y2="333.5"/>
				<line class="st2" x1="45.7" y1="271.6" x2="90.2" y2="297.1"/>
				<line class="st2" x1="51.2" y1="269.2" x2="286" y2="403.7"/>
				<line class="st2" x1="56.8" y1="266.7" x2="291.5" y2="401.3"/>
				<line class="st2" x1="62.3" y1="264.2" x2="297.1" y2="398.8"/>
				<line class="st2" x1="67.9" y1="261.7" x2="302.6" y2="396.3"/>
				<line class="st2" x1="73.4" y1="259.3" x2="308.1" y2="393.8"/>
				<line class="st2" x1="78.9" y1="256.8" x2="313.7" y2="391.4"/>
				<line class="st2" x1="84.5" y1="254.3" x2="319.2" y2="388.9"/>
				<line class="st2" x1="90" y1="251.8" x2="324.8" y2="386.4"/>
				<line class="st2" x1="95.6" y1="249.4" x2="330.3" y2="383.9"/>
				<line class="st2" x1="101.1" y1="246.9" x2="335.8" y2="381.5"/>
				<line class="st2" x1="106.6" y1="244.4" x2="341.4" y2="379"/>
				<line class="st2" x1="112.2" y1="241.9" x2="346.9" y2="376.5"/>
				<line class="st2" x1="117.7" y1="239.5" x2="352.5" y2="374"/>
				<line class="st2" x1="123.3" y1="237" x2="358" y2="371.6"/>
				<line class="st2" x1="128.8" y1="234.5" x2="363.5" y2="369.1"/>
				<line class="st2" x1="134.3" y1="232" x2="369.1" y2="366.6"/>
				<line class="st2" x1="139.9" y1="229.6" x2="374.6" y2="364.1"/>
				<line class="st2" x1="145.4" y1="227.1" x2="380.2" y2="361.7"/>
				<line class="st2" x1="151" y1="224.6" x2="385.7" y2="359.2"/>
				<line class="st2" x1="156.5" y1="222.1" x2="391.2" y2="356.7"/>
				<line class="st2" x1="-22.1" y1="294.9" x2="212.6" y2="429.5"/>
			</g>
		</g>
		<path class="st3" d="M186.4,249.7c2.1-1.2,3.9-2.7,5.6-4.5c2.7-3,4.7-6.6,6-10.5c1.5-4.3,2.3-9.7,2.3-16.3
			c0.3-18.5-5.1-36.7-15.5-52l-1.1-1.1 M183.7,165.4c-11-16.5-26-28.8-47.4-41.1l-1.1-1.1c-7.5-4.4-15.3-8.1-23.4-11.3
			c-7-2.7-14.2-4.8-21.6-6.2c-6.1-1.2-12.3-1.6-18.5-1.1c-4.9,0.5-8.4,1.3-11.8,3.3l-0.6,0.3L9.9,136.8l0,0
			c-0.5,0.3-0.9,0.6-1.4,0.9l33.3,64.5c6-4.7,11.7-7.2,17.2-7.7c5.5-0.5,11.3,1.1,17.4,4.6c3.7,2.1,7,4.7,9.8,7.8l-0.5,0.2
			c-2.4,0.5-4.9,1.2-7.2,2.1c-1.5,0.6-2.9,1.2-4.2,2l-49.3,28.7l0.2-0.1c-3.5,2-6.6,4.8-9,8c-3.3,4.6-5.8,10.5-7.3,17.8
			c-1.7,8.9-2.4,17.9-2.3,26.9l146.9,84.8l0.1-46.4l44.2-25.1L144.6,274l41.9-24.3 M27.3,238.8c-0.2,0.1-0.4,0.2-0.7,0.3
			C26.9,239,27.1,238.9,27.3,238.8z"/>
		<path class="st12" d="M25.1,250.8l49.3-28.7c1.4-0.8,2.8-1.4,4.2-2c5.3-2.1,11.9-3.3,19.7-3.7c10.1-0.4,18-0.8,23.9-1.1
			c4.4-0.2,8.9-0.7,13.3-1.5c1.5-0.3,3-0.8,4.4-1.5L90.6,241c-1.4,0.7-2.9,1.2-4.4,1.5c-4.4,0.8-8.8,1.3-13.3,1.5
			c-5.9,0.4-13.8,0.7-23.9,1.1c-7.8,0.4-14.4,1.6-19.7,3.7C27.9,249.4,26.5,250,25.1,250.8z"/>
		<path class="st12" d="M193,219.2l-49.3,28.7c-7.3-51.9-48.4-81.1-79.4-94.9c-21.2-9.5-37-11-37-11l49.3-28.7c0,0,6.8-0.9,23.4,5.2
			C118.9,125.3,184.7,153.4,193,219.2z"/>
		<polygon class="st12" points="137.1,268.9 87.8,297.6 149.1,333 198,305.2 		"/>
		<path class="st8" d="M59.3,107.5c3.8-2.1,8-3.3,12.3-3.6c6.2-0.5,12.5-0.1,18.6,1.1c7.4,1.4,14.6,3.5,21.6,6.2
			c8.1,3.1,15.9,6.9,23.4,11.3"/>
		<path class="st8" d="M183.9,165.8c11,16.5,16.5,33.9,16.5,52c0,6.6-0.8,12.1-2.3,16.3c-1.3,3.9-3.3,7.4-6,10.5
			c-1.6,1.7-3.5,3.2-5.6,4.4"/>
		<path class="st8" d="M90.6,229.4c-1.4,0.7-2.9,1.2-4.4,1.5c-4.4,0.8-8.8,1.3-13.3,1.5c-5.9,0.4-13.8,0.8-23.9,1.1
			c-7.8,0.4-14.4,1.6-19.7,3.7c-1.5,0.6-2.9,1.2-4.2,2l49.3-28.6c1.4-0.8,2.8-1.4,4.2-2c2.3-0.9,4.7-1.6,7.2-2.1"/>
		<line class="st7" x1="156" y1="266.3" x2="203.2" y2="293.6"/>
		<polyline class="st6" points="154.2,377.6 203,348.1 202.7,294.4 153.8,322.3 153.7,376.7 		"/>
		<path class="st8" d="M85.9,151.1c-7.5-4.4-15.3-8.1-23.4-11.3c-7-2.7-14.2-4.8-21.6-6.2c-6.1-1.2-12.4-1.6-18.6-1.1
			c-4.3,0.3-8.5,1.5-12.3,3.6l49.3-28.6"/>
		<path class="st8" d="M135.2,122.5c21.4,12.3,37.6,26.8,48.6,43.3"/>
		<path class="st8" d="M186.4,249.1l-49.3,28.7c2.1-1.2,3.9-2.7,5.6-4.5c2.7-3,4.7-6.6,6-10.5c1.5-4.3,2.3-9.7,2.3-16.3
			c0-18.2-5.4-35.5-16.5-52s-27.2-31-48.6-43.3"/>
		<path class="st8" d="M153.7,376.7l0.1-54.5l-61.3-35.4c5-1.2,10.1-1.9,15.2-2.3c4.9-0.3,9.8-1,14.7-2c3.8-0.7,7.6-1.8,11.2-3.2
			c3.5-1.3,6.6-3.4,9.1-6.1c2.7-3,4.7-6.6,6-10.5c1.5-4.3,2.3-9.7,2.3-16.3c0-18.2-5.4-35.5-16.5-52s-27.2-30.9-48.6-43.3
			c-7.5-4.4-15.3-8.1-23.4-11.3c-7-2.7-14.2-4.8-21.6-6.2c-6.1-1.2-12.4-1.6-18.6-1.1c-5.6,0.5-10.2,2-13.7,4.4l33.3,64.6
			c6-4.7,11.7-7.2,17.2-7.7c5.5-0.5,11.3,1.1,17.4,4.6c4.8,2.7,9,6.4,12.2,10.9c3,4.2,4.5,9.3,4.4,14.4c0.1,1.6-0.4,3.2-1.3,4.6
			c-0.8,1.1-2.8,2-5.7,2.6c-4.4,0.8-8.8,1.3-13.3,1.5c-5.9,0.4-13.8,0.8-23.9,1.1c-7.8,0.4-14.4,1.6-19.7,3.7c-5.2,2-9.7,5.5-13,10
			C13,251.9,10.6,257.8,9,265c-1.7,8.9-2.4,17.9-2.3,26.9L153.7,376.7l0.1-54.4"/>
		<g>
			<defs>
				<path id="SVGID_7_" d="M383.9,408.7c-4.8-7.7-12.4-14.6-23-20.7c-11.1-6.3-23.2-10.8-35.8-13.3c-13.5-2.8-27.3-3.9-41-3.3
					c-14.2,0.6-28.3,2.7-42.1,6.5c-13.7,3.7-26.9,9.2-39.2,16.3c-12.2,7.1-21.5,14.7-28.1,22.8c-6.5,8.1-10.3,16.2-11.2,24.4
					c-0.9,8.2,1.1,16.1,6,23.7c4.9,7.6,12.6,14.5,23.2,20.6c11.1,6.3,23.1,10.8,35.7,13.4c13.4,2.8,27.1,3.9,40.8,3.4
					c14.2-0.6,28.3-2.7,42.1-6.5c13.7-3.7,26.9-9.2,39.2-16.3c12.2-7.1,21.6-14.7,28.1-22.8c6.5-8.1,10.2-16.2,11.1-24.4
					C390.6,424.3,388.6,416.4,383.9,408.7z"/>
			</defs>
			<clipPath id="SVGID_8_">
				<use xlink:href="#SVGID_7_"  style="overflow:visible;"/>
			</clipPath>
			<g class="st13">
				<path class="st1" d="M383.9,408.7c-4.8-7.7-12.4-14.6-23-20.7c-11.1-6.3-23.2-10.8-35.8-13.3c-13.5-2.8-27.3-3.9-41-3.3
					c-14.2,0.6-28.3,2.7-42.1,6.5c-13.7,3.7-26.9,9.2-39.2,16.3c-12.2,7.1-21.5,14.7-28.1,22.8c-6.5,8.1-10.3,16.2-11.2,24.4
					c-0.9,8.2,1.1,16.1,6,23.7c4.9,7.6,12.6,14.5,23.2,20.6c11.1,6.3,23.1,10.8,35.7,13.4c13.4,2.8,27.1,3.9,40.8,3.4
					c14.2-0.6,28.3-2.7,42.1-6.5c13.7-3.7,26.9-9.2,39.2-16.3c12.2-7.1,21.6-14.7,28.1-22.8c6.5-8.1,10.2-16.2,11.1-24.4
					C390.6,424.3,388.6,416.4,383.9,408.7z"/>
				<line class="st2" x1="39.3" y1="394.8" x2="274" y2="529.4"/>
				<line class="st2" x1="44.8" y1="392.4" x2="279.6" y2="527"/>
				<line class="st2" x1="50.4" y1="390" x2="285.1" y2="524.6"/>
				<line class="st2" x1="56" y1="387.6" x2="290.7" y2="522.2"/>
				<line class="st2" x1="61.5" y1="385.2" x2="296.2" y2="519.8"/>
				<line class="st2" x1="67.1" y1="382.8" x2="301.8" y2="517.3"/>
				<line class="st2" x1="72.6" y1="380.4" x2="307.4" y2="514.9"/>
				<line class="st2" x1="78.2" y1="377.9" x2="312.9" y2="512.5"/>
				<line class="st2" x1="83.7" y1="375.5" x2="318.5" y2="510.1"/>
				<line class="st2" x1="89.3" y1="373.1" x2="324" y2="507.7"/>
				<line class="st2" x1="94.8" y1="370.7" x2="329.6" y2="505.3"/>
				<line class="st2" x1="100.4" y1="368.3" x2="335.1" y2="502.9"/>
				<line class="st2" x1="106" y1="365.9" x2="340.7" y2="500.5"/>
				<line class="st2" x1="111.5" y1="363.5" x2="346.3" y2="498.1"/>
				<line class="st2" x1="117.1" y1="361.1" x2="351.8" y2="495.6"/>
				<line class="st2" x1="122.6" y1="358.6" x2="357.4" y2="493.2"/>
				<line class="st2" x1="128.2" y1="356.2" x2="362.9" y2="490.8"/>
				<line class="st2" x1="133.7" y1="353.8" x2="368.5" y2="488.4"/>
				<line class="st2" x1="139.3" y1="351.4" x2="374" y2="486"/>
				<line class="st2" x1="144.9" y1="349" x2="379.6" y2="483.6"/>
				<line class="st2" x1="150.4" y1="346.6" x2="385.2" y2="481.2"/>
				<line class="st2" x1="156" y1="344.2" x2="390.7" y2="478.8"/>
				<line class="st2" x1="161.5" y1="341.8" x2="396.3" y2="476.3"/>
				<line class="st2" x1="167.1" y1="339.4" x2="401.8" y2="473.9"/>
				<line class="st2" x1="172.6" y1="336.9" x2="407.4" y2="471.5"/>
				<line class="st2" x1="178.2" y1="334.5" x2="412.9" y2="469.1"/>
				<line class="st2" x1="183.8" y1="332.1" x2="418.5" y2="466.7"/>
				<line class="st2" x1="189.3" y1="329.7" x2="424.1" y2="464.3"/>
				<line class="st2" x1="194.9" y1="327.3" x2="429.6" y2="461.9"/>
				<line class="st2" x1="200.4" y1="324.9" x2="435.2" y2="459.5"/>
				<line class="st2" x1="206" y1="322.5" x2="440.7" y2="457"/>
				<line class="st2" x1="211.5" y1="320.1" x2="446.3" y2="454.6"/>
				<line class="st2" x1="217.1" y1="317.6" x2="451.8" y2="452.2"/>
				<line class="st2" x1="222.6" y1="315.2" x2="457.4" y2="449.8"/>
				<line class="st2" x1="228.2" y1="312.8" x2="462.9" y2="447.4"/>
				<line class="st2" x1="233.8" y1="310.4" x2="468.5" y2="445"/>
				<line class="st2" x1="239.3" y1="308" x2="474.1" y2="442.6"/>
				<line class="st2" x1="44.8" y1="392.4" x2="279.6" y2="526.9"/>
			</g>
		</g>
		<path class="st3" d="M272.2,482L272.2,482c14.2-0.6,28.3-2.7,42.1-6.5c13.7-3.7,26.9-9.2,39.2-16.4c12.2-7.1,21.6-14.7,28.1-22.8
			s10.2-16.2,11.1-24.4c0.1-1.2,0.2-2.5,0.2-3.7l0.2-57.1v0.3c0-7.2-2.1-14.3-6-20.3c-4.8-7.7-12.5-14.6-23.1-20.7
			c-11.1-6.3-23.2-10.8-35.8-13.3c-13.5-2.8-27.3-3.9-41-3.3c-14.2,0.6-28.3,2.7-42.1,6.5c-13.7,3.7-26.9,9.2-39.2,16.3
			c-12.2,7.1-21.5,14.7-28.1,22.8c-6.5,8.1-10.2,16.2-11.1,24.4c-0.1,1.3-0.2,2.6-0.2,3.9c0-0.1,0-0.2,0-0.2V380
			c-0.2,2.3-0.2,4.7,0,7l-0.1,37.7c0.1,7.1,2.2,14.1,6.2,20c4.9,7.6,12.6,14.5,23.2,20.6c11.1,6.3,23.1,10.8,35.7,13.4
			C244.8,481.4,258.5,482.6,272.2,482 M393,352.7c0,0.2,0,0.4,0,0.5C393,353,393,352.9,393,352.7z M166.9,372.8v-0.2V372.8z
			 M166.6,370.3c0,0,0-0.1,0-0.1S166.5,370.2,166.6,370.3L166.6,370.3z"/>
		<path class="st4" d="M381.7,395.2c-6.5,8.1-15.9,15.7-28.1,22.8c-12.3,7.1-25.5,12.6-39.2,16.3c-13.7,3.8-27.8,6-42.1,6.5
			c-13.7,0.6-27.4-0.5-40.9-3.4c-12.5-2.6-24.5-7.1-35.6-13.4c-10.6-6.1-18.3-13-23.2-20.6s-6.9-15.5-6-23.7
			c0.9-8.1,4.6-16.3,11.1-24.4s15.9-15.7,28.1-22.8c12.3-7.1,25.5-12.6,39.2-16.3c13.7-3.8,27.8-6,42.1-6.5
			c13.7-0.6,27.5,0.5,41,3.3c12.6,2.5,24.6,7,35.8,13.3c10.6,6.1,18.3,13,23.1,20.7c4.8,7.7,6.7,15.6,5.9,23.8
			C392,379,388.3,387.1,381.7,395.2z M268.5,398.8c10.4-1.6,20.9-5.5,31.6-11.8c10.7-6.2,17.5-12.4,20.3-18.4
			c2.8-6.1,1.3-10.8-4.7-14.2c-6.3-3.6-14.7-4.6-25.2-3c-10.5,1.6-21,5.6-31.7,11.9c-10.7,6.2-17.4,12.4-20.2,18.4s-1,10.8,5.4,14.5
			C250,399.5,258.2,400.5,268.5,398.8"/>
		<path class="st6" d="M272.4,482c14.2-0.6,28.3-2.7,42.1-6.5c13.7-3.7,26.9-9.2,39.2-16.4c12.2-7.1,21.5-14.7,28.1-22.8
			c6.5-8.1,10.2-16.2,11.1-24.4c0.1-1.2,0.2-2.5,0.2-3.7l0.2-57.1c0,1.2-0.1,2.5-0.2,3.7c-0.9,8.2-4.6,16.3-11.1,24.4
			c-6.5,8.1-15.9,15.7-28.1,22.8c-12.3,7.1-25.5,12.6-39.2,16.3c-13.7,3.8-27.8,6-42.1,6.5L272.4,482z"/>
		<path class="st8" d="M272.6,424.9c-13.7,0.6-27.4-0.6-40.9-3.4c-12.5-2.5-24.5-7.1-35.7-13.4c-10.6-6.1-18.3-13-23.2-20.6
			c-4-5.9-6.1-12.9-6.2-20l-0.2,57.1c0.1,7.1,2.2,14.1,6.2,20c4.9,7.6,12.6,14.5,23.2,20.6c11.1,6.3,23.1,10.8,35.6,13.4
			c13.4,2.8,27.2,3.9,40.9,3.4L272.6,424.9z"/>
		<path class="st8" d="M382,379c-6.5,8.1-15.9,15.6-28.1,22.7c-12.3,7.1-25.5,12.6-39.3,16.3c-13.7,3.8-27.9,5.9-42.1,6.5
			c-13.7,0.6-27.5-0.6-40.9-3.4c-12.5-2.5-24.6-7-35.7-13.3c-10.6-6.1-18.3-12.9-23.2-20.5c-4.9-7.6-6.9-15.5-6-23.6
			c0.9-8.1,4.6-16.2,11.1-24.3c6.5-8.1,15.9-15.6,28.1-22.7c12.3-7.1,25.5-12.6,39.3-16.3c13.7-3.8,27.9-5.9,42.1-6.5
			c13.7-0.6,27.5,0.5,41,3.3c12.6,2.5,24.7,6.9,35.8,13.2c10.6,6.1,18.3,13,23.1,20.6c4.8,7.6,6.7,15.5,5.8,23.7
			C392.2,362.9,388.5,371,382,379z M268.6,382.6c10.4-1.6,20.9-5.5,31.6-11.7s17.5-12.3,20.3-18.4c2.8-6,1.3-10.8-4.7-14.2
			c-6.3-3.6-14.7-4.6-25.2-3s-21.1,5.6-31.8,11.8c-10.7,6.2-17.5,12.4-20.2,18.4s-1,10.8,5.4,14.4
			C250.1,383.4,258.3,384.3,268.6,382.6"/>
		<path class="st5" d="M271.6,341.4v41.1c0,0-31.4,5.6-33.7-13.7C236.5,357.9,271.6,341.4,271.6,341.4z"/>
		<polygon class="st6" points="242,424.9 242,479.6 259,481.6 259,425 		"/>
	</g>
</g>
</svg>
