<svg xmlns="http://www.w3.org/2000/svg" xmlns:xlink="http://www.w3.org/1999/xlink" viewBox="0 0 676.12 571.9"><defs><style>.cls-1,.cls-3,.cls-8,.cls-9{fill:none;}.cls-2{clip-path:url(#clip-path);}.cls-3{stroke:#000;stroke-linecap:round;stroke-dasharray:0.01 8;}.cls-3,.cls-7,.cls-8,.cls-9{stroke-miterlimit:10;}.cls-3,.cls-7,.cls-8{stroke-width:2px;}.cls-4{fill:#fff;}.cls-5{fill:#6f85fb;}.cls-6,.cls-7{fill:#231f1b;}.cls-7,.cls-8,.cls-9{stroke:#231f1b;}.cls-9{stroke-width:3px;}.cls-10{clip-path:url(#clip-path-2);}.cls-11{fill:#82c0fd;}.cls-12{clip-path:url(#clip-path-3);}.cls-13{fill:#f8658c;}.cls-14{clip-path:url(#clip-path-4);}</style><clipPath id="clip-path"><path class="cls-1" d="M238.92,91.73q-12.34,7.35-22,23.39a113.93,113.93,0,0,0-13.82,36,157.37,157.37,0,0,0-2.94,41.06,173.27,173.27,0,0,0,7.7,42,156.28,156.28,0,0,0,18.29,38.95q11.76,18.11,25.07,27.71t26.56,10.7a41.29,41.29,0,0,0,25.52-6.36q12.25-7.47,21.94-23.52a115.27,115.27,0,0,0,13.91-35.87,153.44,153.44,0,0,0,3-40.92,173.45,173.45,0,0,0-7.7-42,156.48,156.48,0,0,0-18.28-39q-11.78-18.11-25.08-27.7T264.53,85.51A42.29,42.29,0,0,0,238.92,91.73Z"/></clipPath><clipPath id="clip-path-2"><path class="cls-1" d="M533.54,298.37Q565.6,316.88,569,334.11T548.92,365a78,78,0,0,1-17.47,7.56,104.09,104.09,0,0,1-18,3.55,123.11,123.11,0,0,1-18.9.48q-9.74-.48-19.46-1.61-11.69-1.29-23.65-3.22-8.58-1.38-17.59-2.44a1.51,1.51,0,0,0-.93,2.81L488,404,440.9,431.34,294,346.51a179.68,179.68,0,0,1,26.61-12.88,127.16,127.16,0,0,1,26.22-6.85,141.57,141.57,0,0,1,28.06-1.28,280.75,280.75,0,0,1,32.68,3.78q23.09,4,36.73,6.28t21.13,3.06a49.31,49.31,0,0,0,10.84.32,16.1,16.1,0,0,0,5.83-1.93q6.92-4,5.78-8.53t-8.93-9a63.77,63.77,0,0,0-22.15-7.33q-12.93-2-32.38-1l5.6-42a136.85,136.85,0,0,1,24.33,1.69,221.58,221.58,0,0,1,26.85,5.88,251.88,251.88,0,0,1,27,9.34A211.36,211.36,0,0,1,533.54,298.37Z"/></clipPath><clipPath id="clip-path-3"><path class="cls-1" d="M173.07,382.91a1.51,1.51,0,0,0-.93,2.81l45.36,26.19a6.53,6.53,0,0,1,0,11.29L183.43,443a6.53,6.53,0,0,1-6.54,0L43.29,365.89a6.53,6.53,0,0,1,.28-11.46,166.27,166.27,0,0,1,16.26-7.24,127.14,127.14,0,0,1,26.22-6.84"/></clipPath><clipPath id="clip-path-4"><path class="cls-1" d="M407,450.23q-7.17-11.5-23-20.68a119.07,119.07,0,0,0-35.79-13.28,169.78,169.78,0,0,0-41-3.3,186,186,0,0,0-42.07,6.52,162.85,162.85,0,0,0-39.23,16.34q-18.28,10.62-28.08,22.78T186.67,483q-1.32,12.24,6,23.67t23.18,20.6a120.82,120.82,0,0,0,35.66,13.36A165.8,165.8,0,0,0,292.35,544a186.57,186.57,0,0,0,42.06-6.51,163.49,163.49,0,0,0,39.23-16.34q18.28-10.64,28.09-22.78T412.85,474Q414.16,461.74,407,450.23Z"/></clipPath></defs><title>Asset 2</title><g id="Layer_2" data-name="Layer 2"><g id="Layer_1-2" data-name="Layer 1"><g class="cls-2"><path class="cls-1" d="M238.92,91.73q-12.34,7.35-22,23.39a113.93,113.93,0,0,0-13.82,36,157.37,157.37,0,0,0-2.94,41.06,173.27,173.27,0,0,0,7.7,42,156.28,156.28,0,0,0,18.29,38.95q11.76,18.11,25.07,27.71t26.56,10.7a41.29,41.29,0,0,0,25.52-6.36q12.25-7.47,21.94-23.52a115.27,115.27,0,0,0,13.91-35.87,153.44,153.44,0,0,0,3-40.92,173.45,173.45,0,0,0-7.7-42,156.48,156.48,0,0,0-18.28-39q-11.78-18.11-25.08-27.7T264.53,85.51A42.29,42.29,0,0,0,238.92,91.73Z"/><line class="cls-3" x1="229.16" y1="436.52" x2="371.19" y2="199.57"/><line class="cls-3" x1="226.46" y1="431.01" x2="368.49" y2="194.06"/><line class="cls-3" x1="223.77" y1="425.49" x2="365.8" y2="188.54"/><line class="cls-3" x1="221.07" y1="419.97" x2="363.1" y2="183.03"/><line class="cls-3" x1="218.38" y1="414.46" x2="360.4" y2="177.51"/><line class="cls-3" x1="215.68" y1="408.94" x2="357.71" y2="171.99"/><line class="cls-3" x1="212.99" y1="403.43" x2="355.01" y2="166.48"/><line class="cls-3" x1="210.29" y1="397.91" x2="352.32" y2="160.96"/><line class="cls-3" x1="207.6" y1="392.39" x2="349.62" y2="155.45"/><line class="cls-3" x1="204.9" y1="386.88" x2="346.93" y2="149.93"/><line class="cls-3" x1="202.2" y1="381.36" x2="344.23" y2="144.41"/><line class="cls-3" x1="199.51" y1="375.85" x2="341.54" y2="138.9"/><line class="cls-3" x1="196.81" y1="370.33" x2="338.84" y2="133.38"/><line class="cls-3" x1="194.12" y1="364.81" x2="336.15" y2="127.87"/><line class="cls-3" x1="191.42" y1="359.3" x2="333.45" y2="122.35"/><line class="cls-3" x1="188.73" y1="353.78" x2="330.76" y2="116.83"/><line class="cls-3" x1="186.03" y1="348.27" x2="328.06" y2="111.32"/><line class="cls-3" x1="183.34" y1="342.75" x2="325.37" y2="105.8"/><line class="cls-3" x1="180.64" y1="337.23" x2="322.67" y2="100.29"/><line class="cls-3" x1="177.95" y1="331.72" x2="319.98" y2="94.77"/><line class="cls-3" x1="175.25" y1="326.2" x2="317.28" y2="89.25"/><line class="cls-3" x1="172.56" y1="320.69" x2="314.59" y2="83.74"/><line class="cls-3" x1="169.86" y1="315.17" x2="311.89" y2="78.22"/><line class="cls-3" x1="167.17" y1="309.65" x2="309.2" y2="72.71"/><line class="cls-3" x1="164.47" y1="304.14" x2="306.5" y2="67.19"/><line class="cls-3" x1="161.78" y1="298.62" x2="303.8" y2="61.68"/><line class="cls-3" x1="159.08" y1="293.11" x2="301.11" y2="56.16"/><line class="cls-3" x1="156.39" y1="287.59" x2="298.41" y2="50.64"/><line class="cls-3" x1="153.69" y1="282.07" x2="295.72" y2="45.13"/><line class="cls-3" x1="151" y1="276.56" x2="293.02" y2="39.61"/><line class="cls-3" x1="148.3" y1="271.04" x2="290.33" y2="34.1"/><line class="cls-3" x1="145.6" y1="265.53" x2="287.63" y2="28.58"/><line class="cls-3" x1="142.91" y1="260.01" x2="284.94" y2="23.06"/><line class="cls-3" x1="140.21" y1="254.5" x2="282.24" y2="17.55"/><line class="cls-3" x1="137.52" y1="248.98" x2="279.55" y2="12.03"/><line class="cls-3" x1="134.82" y1="243.46" x2="276.85" y2="6.52"/><line class="cls-3" x1="132.13" y1="237.95" x2="274.16" y2="1"/><line class="cls-3" x1="226.39" y1="431.02" x2="368.42" y2="194.08"/></g><path class="cls-4" d="M381,154.63A187.33,187.33,0,0,0,365.48,115,170.23,170.23,0,0,0,342,81.17,119.31,119.31,0,0,0,312.6,57q-15.9-9.09-29.41-9.42a37.15,37.15,0,0,0-20,4.79L213.83,81l.16-.08a36,36,0,0,0-3.52,2.3q-9.89,7.35-15.42,22t-5.51,35.85a163.91,163.91,0,0,0,5.63,42.21A187.41,187.41,0,0,0,210.7,223a166,166,0,0,0,23.45,33.61,121,121,0,0,0,29.43,24q15.9,9.08,29.4,9.58a36.46,36.46,0,0,0,20.4-4.86l-.28.18,49.33-28.68a33.11,33.11,0,0,0,3.28-2.16q9.87-7.37,15.42-22t5.52-35.85A164.8,164.8,0,0,0,381,154.63ZM216.28,79.73l-.36.17Zm15.07-3.5h0Zm-2.79.17-.45,0Zm-2.8.36h0Zm-2.3.46-.41.1Zm-2.55.69-.4.13Zm-2.54.89,0,0Zm96.08,205.88.46-.3Z"/><path class="cls-5" d="M300.78,216.64a14.92,14.92,0,0,1-5.09-1.89c-6.28-3.63-11.85-10-15.65-19.7-1.3-3.31-3.25-10.46-3.25-10.46l-35.05,20.18s2,7.29,3.31,10.6c3.8,9.74,9.37,16.07,15.65,19.69a14.82,14.82,0,0,0,5.09,1.9l35-20.32"/><path class="cls-5" d="M216.6,89l43.57-25.32a32.84,32.84,0,0,1,17.69-4.23q11.92.3,26,8.32a105.3,105.3,0,0,1,26,21.38A150.44,150.44,0,0,1,350.53,119a165.68,165.68,0,0,1,13.71,35.05l-47.47,27.09c-3.31-12.38-7-20.82-12.81-31.82a150.44,150.44,0,0,0-20.71-29.82,105.3,105.3,0,0,0-26-21.38A102.91,102.91,0,0,0,232.82,89C225.15,87.3,219,87.64,216.6,89Z"/><path class="cls-6" d="M281.8,174.48l-25.88,15-10.53,6.12s-9.88-50.36,8.91-56.23C272.15,133.82,281.8,174.48,281.8,174.48Z"/><path class="cls-7" d="M362.43,256.84,313.1,285.52a37.93,37.93,0,0,0,3.28-2.17q9.87-7.37,15.42-22t5.51-35.85a163.93,163.93,0,0,0-5.64-42.21L381,154.63a164.8,164.8,0,0,1,5.64,42.21q0,21.21-5.52,35.85t-15.42,22A33.11,33.11,0,0,1,362.43,256.84Z"/><path class="cls-8" d="M331.67,183.3a163.93,163.93,0,0,1,5.64,42.21q0,21.21-5.51,35.85t-15.42,22q-9.88,7.35-23.4,6.85t-29.4-9.58a121,121,0,0,1-29.43-24A166,166,0,0,1,210.7,223a187.41,187.41,0,0,1-15.53-39.69,163.91,163.91,0,0,1-5.63-42.21q0-21.21,5.51-35.85t15.42-22q9.87-7.35,23.39-7t29.4,9.42a119.13,119.13,0,0,1,29.43,24.2,169.81,169.81,0,0,1,23.45,33.78A186.8,186.8,0,0,1,331.67,183.3Zm-53.56,38.39q5.68-8.13,5.66-26.77T278,161.46q-5.7-14.76-14.57-19.88c-6.41-3.66-11.47-2.7-15.26,2.83s-5.69,14.51-5.67,26.93,1.94,23.52,5.76,33.3,8.85,16.41,15.13,20c6,3.45,10.91,2.44,14.71-3"/><path class="cls-9" d="M331.67,183.3a163.93,163.93,0,0,1,5.64,42.21q0,21.21-5.51,35.85t-15.42,22q-9.88,7.35-23.4,6.85t-29.4-9.58a121,121,0,0,1-29.43-24A166,166,0,0,1,210.7,223a187.41,187.41,0,0,1-15.53-39.69,163.91,163.91,0,0,1-5.63-42.21q0-21.21,5.51-35.85t15.42-22q9.87-7.35,23.39-7t29.4,9.42a119.13,119.13,0,0,1,29.43,24.2,169.81,169.81,0,0,1,23.45,33.78A186.8,186.8,0,0,1,331.67,183.3Zm-53.56,38.39q5.68-8.13,5.66-26.77T278,161.46q-5.7-14.76-14.57-19.88c-6.41-3.66-11.47-2.7-15.26,2.83s-5.69,14.51-5.67,26.93,1.94,23.52,5.76,33.3,8.85,16.41,15.13,20c6,3.45,10.91,2.44,14.71-3"/><path class="cls-9" d="M213.83,81l49.34-28.67a37.15,37.15,0,0,1,20-4.79q13.51.35,29.41,9.42A119.31,119.31,0,0,1,342,81.17,170.23,170.23,0,0,1,365.48,115,187.33,187.33,0,0,1,381,154.63L331.67,183.3a186.8,186.8,0,0,0-15.53-39.68,169.81,169.81,0,0,0-23.45-33.78,119.13,119.13,0,0,0-29.43-24.2q-15.88-9.08-29.4-9.42A37.27,37.27,0,0,0,213.83,81Z"/><g class="cls-10"><path class="cls-1" d="M532.54,298.37Q564.6,316.88,568,334.11T547.92,365a78,78,0,0,1-17.47,7.56,104.09,104.09,0,0,1-18,3.55,123.11,123.11,0,0,1-18.9.48q-9.74-.48-19.46-1.61-11.69-1.29-23.65-3.22-8.58-1.38-17.59-2.44a1.51,1.51,0,0,0-.93,2.81L487,404,439.9,431.34,293,346.51a179.68,179.68,0,0,1,26.61-12.88,127.16,127.16,0,0,1,26.22-6.85,141.57,141.57,0,0,1,28.06-1.28,280.75,280.75,0,0,1,32.68,3.78q23.09,4,36.73,6.28t21.13,3.06a49.31,49.31,0,0,0,10.84.32,16.1,16.1,0,0,0,5.83-1.93q6.92-4,5.78-8.53t-8.93-9a63.77,63.77,0,0,0-22.15-7.33q-12.93-2-32.38-1l5.6-42a136.85,136.85,0,0,1,24.33,1.69,221.58,221.58,0,0,1,26.85,5.88,251.88,251.88,0,0,1,27,9.34A211.36,211.36,0,0,1,532.54,298.37Z"/><line class="cls-3" x1="263.1" y1="329.24" x2="497.84" y2="463.82"/><line class="cls-3" x1="268.64" y1="326.76" x2="503.38" y2="461.34"/><line class="cls-3" x1="274.18" y1="324.29" x2="508.92" y2="458.87"/><line class="cls-3" x1="279.72" y1="321.82" x2="514.46" y2="456.4"/><line class="cls-3" x1="285.26" y1="319.34" x2="520" y2="453.92"/><line class="cls-3" x1="290.8" y1="316.87" x2="525.54" y2="451.45"/><line class="cls-3" x1="296.34" y1="314.39" x2="531.08" y2="448.97"/><line class="cls-3" x1="301.88" y1="311.92" x2="536.62" y2="446.5"/><line class="cls-3" x1="307.42" y1="309.45" x2="542.16" y2="444.03"/><line class="cls-3" x1="312.96" y1="306.97" x2="547.7" y2="441.55"/><line class="cls-3" x1="318.5" y1="304.5" x2="553.24" y2="439.08"/><line class="cls-3" x1="324.04" y1="302.03" x2="558.78" y2="436.61"/><line class="cls-3" x1="329.58" y1="299.55" x2="564.32" y2="434.13"/><line class="cls-3" x1="335.12" y1="297.08" x2="569.86" y2="431.66"/><line class="cls-3" x1="340.66" y1="294.6" x2="575.4" y2="429.18"/><line class="cls-3" x1="346.2" y1="292.13" x2="580.94" y2="426.71"/><line class="cls-3" x1="351.74" y1="289.66" x2="586.48" y2="424.24"/><line class="cls-3" x1="357.28" y1="287.18" x2="592.02" y2="421.76"/><line class="cls-3" x1="362.82" y1="284.71" x2="597.56" y2="419.29"/><line class="cls-3" x1="368.36" y1="282.23" x2="603.1" y2="416.81"/><line class="cls-3" x1="373.9" y1="279.76" x2="608.64" y2="414.34"/><line class="cls-3" x1="379.44" y1="277.29" x2="614.18" y2="411.87"/><line class="cls-3" x1="384.98" y1="274.81" x2="619.72" y2="409.39"/><line class="cls-3" x1="390.52" y1="272.34" x2="625.26" y2="406.92"/><line class="cls-3" x1="396.06" y1="269.86" x2="630.8" y2="404.44"/><line class="cls-3" x1="401.6" y1="267.39" x2="636.34" y2="401.97"/><line class="cls-3" x1="407.14" y1="264.92" x2="641.88" y2="399.5"/><line class="cls-3" x1="412.68" y1="262.44" x2="647.42" y2="397.02"/><line class="cls-3" x1="418.22" y1="259.97" x2="652.96" y2="394.55"/><line class="cls-3" x1="423.76" y1="257.5" x2="658.5" y2="392.07"/><line class="cls-3" x1="429.3" y1="255.02" x2="664.04" y2="389.6"/><line class="cls-3" x1="434.84" y1="252.55" x2="669.58" y2="387.13"/><line class="cls-3" x1="440.38" y1="250.07" x2="675.12" y2="384.65"/><line class="cls-3" x1="261.74" y1="322.83" x2="496.48" y2="457.41"/></g><path class="cls-4" d="M568.24,265.87a21.84,21.84,0,0,0-.34-6.27q-3.43-17.22-35.5-35.74A209.9,209.9,0,0,0,507,211.47a255.4,255.4,0,0,0-27-9.34,221.51,221.51,0,0,0-26.85-5.87,135.92,135.92,0,0,0-24.33-1.69l-5.6,42,1.55-.06-.12.95-2.58.13v19.89l-15.69-2.72A280.75,280.75,0,0,0,373.72,251a142.41,142.41,0,0,0-28.07,1.29,126.58,126.58,0,0,0-26.21,6.84A180.68,180.68,0,0,0,292.83,272l10.34,6-.55.28L291.85,272l-.16,56.06,146.94,84.83.13-45.07,1,.57-.12,46.23,47.08-28.12.5-27.74c2,.14,4,.27,6,.37a121.85,121.85,0,0,0,18.9-.48,104.18,104.18,0,0,0,18-3.54,78.21,78.21,0,0,0,17.46-7.57q20.52-11.93,20.55-26.53l.13-44.85q0-.66,0-1.32l0-10.89Q568.33,264.93,568.24,265.87Zm-.74,3.76c.11-.37.2-.75.29-1.12-.09.38-.18.76-.28,1.13Zm.45-1.82c.09-.48.16-1,.22-1.44C568.11,266.85,568,267.33,568,267.81Z"/><path class="cls-11" d="M531.47,237.47Q563.54,256,567,273.21t-20.12,30.9a77.81,77.81,0,0,1-17.46,7.57,103.07,103.07,0,0,1-18.05,3.54,120.56,120.56,0,0,1-18.9.48q-9.72-.48-19.45-1.6-11.7-1.31-23.65-3.22t-24.75-3.22l61.34,35.41-47.09,27.37L291.9,285.6a180.68,180.68,0,0,1,26.61-12.88,126.51,126.51,0,0,1,26.22-6.84,142.28,142.28,0,0,1,28.06-1.29,283.12,283.12,0,0,1,32.68,3.79q23.08,4,36.72,6.27t21.14,3.06a48.84,48.84,0,0,0,10.84.33A16.11,16.11,0,0,0,480,276.1q6.92-4,5.78-8.53c-.76-3-3.73-6-8.94-9a63.3,63.3,0,0,0-22.14-7.33q-12.93-2-32.38-1l5.6-42a136.85,136.85,0,0,1,24.33,1.69,219.7,219.7,0,0,1,26.85,5.88,253.09,253.09,0,0,1,27,9.33A208.47,208.47,0,0,1,531.47,237.47Z"/><path class="cls-6" d="M568.33,264,568.17,321q0,14.61-20.55,26.53a78.21,78.21,0,0,1-17.46,7.57,104.18,104.18,0,0,1-18,3.54,121.85,121.85,0,0,1-18.9.48q-9.72-.48-19.46-1.61-11.69-1.29-23.64-3.21c-8-1.29,39-22.32,36.75-24.87l-55.21-32.62a.83.83,0,0,1,.6-1.53c6.42,1.41,11.51.9,18,1.95q12,1.94,23.65,3.22,9.72,1.13,19.45,1.61a123.07,123.07,0,0,0,18.9-.48,105.13,105.13,0,0,0,18.05-3.54,78,78,0,0,0,17.46-7.57Q568.3,278.59,568.33,264Z"/><polygon class="cls-6" points="487.74 329.44 486.7 386.53 439.62 414.65 439.77 356.83 487.74 329.44"/><polyline class="cls-9" points="438.79 356.86 438.63 412.92 291.69 328.09 291.35 271.99"/><path class="cls-9" d="M532.4,223.86q32.07,18.51,35.5,35.74t-20.12,30.91a78,78,0,0,1-17.46,7.57,105.13,105.13,0,0,1-18.05,3.54,123.07,123.07,0,0,1-18.9.48q-9.72-.48-19.45-1.61-11.7-1.29-23.65-3.22-8.58-1.38-17.59-2.44a1.52,1.52,0,0,0-.93,2.82l55.11,31.82-47.09,27.36L292.83,272a180.68,180.68,0,0,1,26.61-12.88,126.58,126.58,0,0,1,26.21-6.84A142.41,142.41,0,0,1,373.72,251a280.75,280.75,0,0,1,32.68,3.78q23.09,4,36.72,6.28t21.14,3.06a48.68,48.68,0,0,0,10.84.32,16.16,16.16,0,0,0,5.83-1.93q6.92-4,5.78-8.53c-.76-3-3.73-6-8.94-9a63.5,63.5,0,0,0-22.14-7.32q-12.94-2-32.38-1l5.6-42a135.92,135.92,0,0,1,24.33,1.69A221.51,221.51,0,0,1,480,202.13a255.4,255.4,0,0,1,27,9.34A209.9,209.9,0,0,1,532.4,223.86Z"/><path class="cls-6" d="M486.75,257.24v-2.51a5.16,5.16,0,0,0-.16-1.28q-1.12-4.51-8.93-9a63.56,63.56,0,0,0-22.15-7.32c-8.62-1.34-20.45-.15-33.41.49v20s43.47,8.28,53,6.81S486.75,257.24,486.75,257.24Z"/><path class="cls-8" d="M260.79,412.32a12.3,12.3,0,0,1,1.25-5.11q4.11-9,20.18-18.35T314,377q15.69-2.49,25.17,3,6.06,3.5,6,8.81"/><g class="cls-12"><path class="cls-1" d="M271.79,311.94q32.07,18.51,35.5,35.74t-20.11,30.9a78.08,78.08,0,0,1-17.47,7.57,103.07,103.07,0,0,1-18,3.54,120.47,120.47,0,0,1-18.89.48q-9.74-.48-19.46-1.6-11.7-1.31-23.65-3.22-8.58-1.39-17.59-2.44a1.51,1.51,0,0,0-.93,2.81l55.11,31.82-47.09,27.37L32.22,360.07a181.69,181.69,0,0,1,26.61-12.88,127.14,127.14,0,0,1,26.22-6.84,141.53,141.53,0,0,1,28.06-1.28,280.75,280.75,0,0,1,32.68,3.78q23.09,4,36.72,6.27t21.14,3.06a48.84,48.84,0,0,0,10.84.33,16.11,16.11,0,0,0,5.83-1.94q6.92-4,5.78-8.53c-.76-3-3.73-6-8.94-9A63.23,63.23,0,0,0,195,325.7q-12.93-2-32.38-1l5.6-42a136.85,136.85,0,0,1,24.33,1.69,219.7,219.7,0,0,1,26.85,5.88,253.09,253.09,0,0,1,27,9.33A208.47,208.47,0,0,1,271.79,311.94Z"/><line class="cls-3" x1="2.36" y1="342.81" x2="237.1" y2="477.39"/><line class="cls-3" x1="7.9" y1="340.33" x2="242.64" y2="474.91"/><line class="cls-3" x1="13.44" y1="337.86" x2="248.18" y2="472.44"/><line class="cls-3" x1="18.98" y1="335.38" x2="253.72" y2="469.96"/><line class="cls-3" x1="24.52" y1="332.91" x2="259.26" y2="467.49"/><line class="cls-3" x1="30.06" y1="330.44" x2="264.8" y2="465.02"/><line class="cls-3" x1="35.6" y1="327.96" x2="270.34" y2="462.54"/><line class="cls-3" x1="41.14" y1="325.49" x2="275.88" y2="460.07"/><line class="cls-3" x1="46.68" y1="323.01" x2="281.42" y2="457.59"/><line class="cls-3" x1="52.22" y1="320.54" x2="286.96" y2="455.12"/><line class="cls-3" x1="57.76" y1="318.07" x2="172.53" y2="383.86"/><line class="cls-3" x1="180.75" y1="382.93" x2="298.04" y2="450.17"/><line class="cls-3" x1="63.3" y1="315.59" x2="180.75" y2="382.93"/><line class="cls-3" x1="176.82" y1="375.02" x2="303.58" y2="447.7"/><line class="cls-3" x1="113.35" y1="338.64" x2="176.82" y2="375.02"/><line class="cls-3" x1="68.84" y1="313.12" x2="113.35" y2="338.64"/><line class="cls-3" x1="74.38" y1="310.65" x2="309.12" y2="445.22"/><line class="cls-3" x1="79.92" y1="308.17" x2="314.66" y2="442.75"/><line class="cls-3" x1="85.46" y1="305.7" x2="320.2" y2="440.28"/><line class="cls-3" x1="91" y1="303.22" x2="325.74" y2="437.8"/><line class="cls-3" x1="96.54" y1="300.75" x2="331.28" y2="435.33"/><line class="cls-3" x1="102.08" y1="298.28" x2="336.82" y2="432.86"/><line class="cls-3" x1="107.62" y1="295.8" x2="342.36" y2="430.38"/><line class="cls-3" x1="113.16" y1="293.33" x2="347.9" y2="427.91"/><line class="cls-3" x1="118.7" y1="290.85" x2="353.44" y2="425.43"/><line class="cls-3" x1="124.24" y1="288.38" x2="358.98" y2="422.96"/><line class="cls-3" x1="129.78" y1="285.91" x2="364.52" y2="420.49"/><line class="cls-3" x1="135.32" y1="283.43" x2="370.06" y2="418.01"/><line class="cls-3" x1="140.86" y1="280.96" x2="375.6" y2="415.54"/><line class="cls-3" x1="146.4" y1="278.48" x2="381.14" y2="413.06"/><line class="cls-3" x1="151.94" y1="276.01" x2="386.68" y2="410.59"/><line class="cls-3" x1="157.48" y1="273.54" x2="392.22" y2="408.12"/><line class="cls-3" x1="163.02" y1="271.06" x2="397.76" y2="405.64"/><line class="cls-3" x1="168.56" y1="268.59" x2="403.3" y2="403.17"/><line class="cls-3" x1="174.1" y1="266.11" x2="408.84" y2="400.69"/><line class="cls-3" x1="179.64" y1="263.64" x2="414.38" y2="398.22"/><line class="cls-3" x1="1" y1="336.39" x2="235.74" y2="470.97"/></g><path class="cls-4" d="M209.58,291.22a24.08,24.08,0,0,0,5.56-4.45,29.64,29.64,0,0,0,6-10.48q2.25-6.39,2.29-16.33a90.67,90.67,0,0,0-15.48-52l-1.1-1.09m0,0c-11-16.54-26-28.79-47.42-41.13l-1.09-1.09a163.41,163.41,0,0,0-23.43-11.28,123.81,123.81,0,0,0-21.62-6.22A68.59,68.59,0,0,0,94.75,146c-4.9.46-8.44,1.34-11.77,3.27l-.57.32L33.08,178.28h0c-.48.28-.93.57-1.37.87L65,243.63q9-7,17.2-7.72t17.45,4.61a39.42,39.42,0,0,1,9.82,7.84l-.47.24a48.36,48.36,0,0,0-7.19,2.13,30.55,30.55,0,0,0-4.23,2L48.28,281.43l.21-.1a28.52,28.52,0,0,0-9,8.05q-5,6.87-7.31,17.76A136,136,0,0,0,29.88,334l146.94,84.84.13-46.37,44.16-25.15-53.38-31.82,41.85-24.32M50.45,280.3c-.22.1-.43.22-.65.33C50,280.52,50.23,280.4,50.45,280.3Z"/><path class="cls-13" d="M48.28,292.3l49.34-28.67a29.49,29.49,0,0,1,4.23-2q8-3.09,19.7-3.71,15.09-.58,23.89-1.13a96.88,96.88,0,0,0,13.26-1.48,15.38,15.38,0,0,0,4.39-1.51l-49.34,28.67a15.42,15.42,0,0,1-4.38,1.51,96.87,96.87,0,0,1-13.27,1.48q-8.79.54-23.88,1.13-11.73.61-19.7,3.72A29,29,0,0,0,48.28,292.3Z"/><path class="cls-13" d="M216.09,260.73,166.76,289.4c-7.31-51.95-48.42-81.08-79.43-94.93-21.22-9.48-36.95-11-36.95-11l49.29-28.69s6.77-.85,23.39,5.16C142,166.8,207.85,194.89,216.09,260.73Z"/><polygon class="cls-13" points="160.27 310.43 110.94 339.11 172.27 374.52 221.11 346.7 160.27 310.43"/><path class="cls-9" d="M82.41,149a29.84,29.84,0,0,1,12.34-3.59,68.59,68.59,0,0,1,18.57,1.1,123.81,123.81,0,0,1,21.62,6.22A163.41,163.41,0,0,1,158.37,164"/><path class="cls-9" d="M207,207.27q16.54,24.79,16.47,52c0,6.63-.78,12.06-2.28,16.33a29.64,29.64,0,0,1-6,10.48,24,24,0,0,1-5.56,4.44"/><path class="cls-9" d="M113.75,270.91a15.14,15.14,0,0,1-4.38,1.5,95.29,95.29,0,0,1-13.27,1.48q-8.79.56-23.88,1.14-11.73.62-19.7,3.71a31.24,31.24,0,0,0-4.24,2L97.62,252.1a30.55,30.55,0,0,1,4.23-2,48.36,48.36,0,0,1,7.19-2.13"/><line class="cls-8" x1="179.12" y1="307.84" x2="226.31" y2="335.08"/><polyline class="cls-7" points="177.3 419.09 226.16 389.55 225.81 335.94 176.97 363.75 176.82 418.22"/><path class="cls-9" d="M109,192.63a163.92,163.92,0,0,0-23.43-11.28A123.9,123.9,0,0,0,64,175.13,68.55,68.55,0,0,0,45.41,174a29.74,29.74,0,0,0-12.33,3.59L82.41,149"/><path class="cls-9" d="M158.37,164q32.06,18.51,48.61,43.31"/><path class="cls-9" d="M209.58,290.55l-49.33,28.68a24.24,24.24,0,0,0,5.55-4.45,29.64,29.64,0,0,0,6-10.48c1.51-4.27,2.27-9.7,2.29-16.33q.07-27.23-16.47-52T109,192.63"/><path class="cls-9" d="M176.82,418.22l.15-54.47-61.33-35.41a97.92,97.92,0,0,1,15.22-2.28,113.13,113.13,0,0,0,14.67-2,62.11,62.11,0,0,0,11.18-3.17,24.17,24.17,0,0,0,9.09-6.14,29.64,29.64,0,0,0,6-10.48c1.51-4.27,2.27-9.7,2.29-16.33q.07-27.23-16.47-52T109,192.63a163.92,163.92,0,0,0-23.43-11.28A123.9,123.9,0,0,0,64,175.13,68.55,68.55,0,0,0,45.41,174q-8.38.78-13.69,4.45L65,243q9-7,17.2-7.72t17.45,4.61a37.15,37.15,0,0,1,12.25,10.94,24.6,24.6,0,0,1,4.43,14.42,7.44,7.44,0,0,1-1.27,4.56c-.84,1.12-2.76,2-5.73,2.63a95.29,95.29,0,0,1-13.27,1.48q-8.79.56-23.88,1.14-11.73.62-19.7,3.71a28.63,28.63,0,0,0-13,10q-5,6.87-7.31,17.76a136,136,0,0,0-2.31,26.9l146.94,84.84.15-54.47"/><g class="cls-14"><path class="cls-1" d="M407,450.23q-7.17-11.5-23-20.68a119.07,119.07,0,0,0-35.79-13.28,169.78,169.78,0,0,0-41-3.3,186,186,0,0,0-42.07,6.52,162.85,162.85,0,0,0-39.23,16.34q-18.28,10.62-28.08,22.78T186.67,483q-1.32,12.24,6,23.67t23.18,20.6a120.82,120.82,0,0,0,35.66,13.36A165.8,165.8,0,0,0,292.35,544a186.57,186.57,0,0,0,42.06-6.51,163.49,163.49,0,0,0,39.23-16.34q18.28-10.64,28.09-22.78T412.85,474Q414.16,461.74,407,450.23Z"/><line class="cls-3" x1="62.42" y1="436.32" x2="297.16" y2="570.9"/><line class="cls-3" x1="67.97" y1="433.91" x2="302.71" y2="568.49"/><line class="cls-3" x1="73.53" y1="431.5" x2="308.27" y2="566.08"/><line class="cls-3" x1="79.09" y1="429.09" x2="313.83" y2="563.67"/><line class="cls-3" x1="84.64" y1="426.67" x2="319.38" y2="561.25"/><line class="cls-3" x1="90.2" y1="424.26" x2="324.94" y2="558.84"/><line class="cls-3" x1="95.76" y1="421.85" x2="330.5" y2="556.43"/><line class="cls-3" x1="101.31" y1="419.44" x2="336.05" y2="554.02"/><line class="cls-3" x1="106.87" y1="417.03" x2="341.61" y2="551.61"/><line class="cls-3" x1="112.43" y1="414.62" x2="347.17" y2="549.19"/><line class="cls-3" x1="117.98" y1="412.2" x2="352.72" y2="546.78"/><line class="cls-3" x1="123.54" y1="409.79" x2="358.28" y2="544.37"/><line class="cls-3" x1="129.1" y1="407.38" x2="363.84" y2="541.96"/><line class="cls-3" x1="134.65" y1="404.97" x2="369.39" y2="539.55"/><line class="cls-3" x1="140.21" y1="402.56" x2="374.95" y2="537.14"/><line class="cls-3" x1="145.77" y1="400.14" x2="380.51" y2="534.72"/><line class="cls-3" x1="151.32" y1="397.73" x2="386.06" y2="532.31"/><line class="cls-3" x1="156.88" y1="395.32" x2="391.62" y2="529.9"/><line class="cls-3" x1="162.43" y1="392.91" x2="397.18" y2="527.49"/><line class="cls-3" x1="167.99" y1="390.5" x2="402.73" y2="525.08"/><line class="cls-3" x1="173.55" y1="388.08" x2="408.29" y2="522.66"/><line class="cls-3" x1="179.1" y1="385.67" x2="413.85" y2="520.25"/><line class="cls-3" x1="184.66" y1="383.26" x2="419.4" y2="517.84"/><line class="cls-3" x1="190.22" y1="380.85" x2="424.96" y2="515.43"/><line class="cls-3" x1="195.77" y1="378.44" x2="430.52" y2="513.02"/><line class="cls-3" x1="201.33" y1="376.02" x2="436.07" y2="510.6"/><line class="cls-3" x1="206.89" y1="373.61" x2="441.63" y2="508.19"/><line class="cls-3" x1="212.44" y1="371.2" x2="447.19" y2="505.78"/><line class="cls-3" x1="218" y1="368.79" x2="452.74" y2="503.37"/><line class="cls-3" x1="223.56" y1="366.38" x2="458.3" y2="500.96"/><line class="cls-3" x1="229.11" y1="363.96" x2="463.86" y2="498.54"/><line class="cls-3" x1="234.67" y1="361.55" x2="469.41" y2="496.13"/><line class="cls-3" x1="240.23" y1="359.14" x2="474.97" y2="493.72"/><line class="cls-3" x1="245.78" y1="356.73" x2="480.53" y2="491.31"/><line class="cls-3" x1="251.34" y1="354.32" x2="486.08" y2="488.9"/><line class="cls-3" x1="256.9" y1="351.9" x2="491.64" y2="486.48"/><line class="cls-3" x1="262.45" y1="349.49" x2="497.2" y2="484.07"/><line class="cls-3" x1="67.96" y1="433.85" x2="302.7" y2="568.43"/></g><path class="cls-4" d="M295.3,523.5h0A186.57,186.57,0,0,0,337.36,517a163.11,163.11,0,0,0,39.23-16.35q18.3-10.62,28.09-22.77t11.12-24.39a35.38,35.38,0,0,0,.2-3.69l.16-57.07V393a37.29,37.29,0,0,0-6-20.32Q403,361.17,387.08,352a119.5,119.5,0,0,0-35.79-13.28,170.25,170.25,0,0,0-41-3.3,186.58,186.58,0,0,0-42.08,6.52A162.88,162.88,0,0,0,229,358.28q-18.27,10.62-28.08,22.77t-11.11,24.39a33.73,33.73,0,0,0-.2,3.88c0-.09,0-.16,0-.25l0,12.38a34,34,0,0,0,0,7l-.11,37.7a36.55,36.55,0,0,0,6.17,20q7.29,11.43,23.18,20.61a120.82,120.82,0,0,0,35.66,13.36,165.8,165.8,0,0,0,40.87,3.38M416.12,394.18c0,.18,0,.35,0,.52C416.11,394.53,416.11,394.36,416.12,394.18ZM190,414.27l0-.25Zm-.29-2.52c0-.05,0-.1,0-.15S189.68,411.7,189.68,411.75Z"/><path class="cls-5" d="M404.87,436.72q-9.8,12.15-28.08,22.78a163.09,163.09,0,0,1-39.23,16.34,186.57,186.57,0,0,1-42.07,6.51A165.72,165.72,0,0,1,254.63,479,120.82,120.82,0,0,1,219,465.61q-15.89-9.17-23.18-20.6t-6-23.67q1.32-12.22,11.12-24.38T229,374.18a162.85,162.85,0,0,1,39.23-16.34,186,186,0,0,1,42.07-6.52,169.78,169.78,0,0,1,41,3.3,118.9,118.9,0,0,1,35.78,13.28q15.9,9.18,23.06,20.68T416,412.33Q414.67,424.56,404.87,436.72Zm-113.23,3.62q15.56-2.41,31.62-11.75t20.33-18.44q4.25-9.09-4.67-14.25-9.48-5.46-25.17-3T282,404.76q-16.07,9.35-20.18,18.35t5.36,14.49q8.93,5.16,24.47,2.74"/><path class="cls-7" d="M295.56,523.5A187.13,187.13,0,0,0,337.63,517a163.28,163.28,0,0,0,39.23-16.35q18.28-10.62,28.08-22.77t11.12-24.39a35.42,35.42,0,0,0,.21-3.69l.16-57.07a32.6,32.6,0,0,1-.21,3.69q-1.32,12.24-11.12,24.4T377,443.58a163.09,163.09,0,0,1-39.23,16.34,186.59,186.59,0,0,1-42.07,6.52Z"/><path class="cls-9" d="M295.72,466.44a165.8,165.8,0,0,1-40.87-3.38A120.86,120.86,0,0,1,219.2,449.7q-15.88-9.18-23.18-20.61a36.58,36.58,0,0,1-6.17-20l-.16,57.07a36.55,36.55,0,0,0,6.17,20q7.29,11.43,23.18,20.61a120.86,120.86,0,0,0,35.65,13.36,165.8,165.8,0,0,0,40.87,3.38Z"/><path class="cls-9" d="M405.1,420.53q-9.81,12.11-28.11,22.7a164,164,0,0,1-39.26,16.28,187.37,187.37,0,0,1-42.09,6.5,167,167,0,0,1-40.9-3.37,121.35,121.35,0,0,1-35.68-13.32q-15.9-9.13-23.2-20.53t-6-23.59Q191.21,393,201,380.9t28.1-22.7a163.92,163.92,0,0,1,39.26-16.29,187.37,187.37,0,0,1,42.11-6.5,171,171,0,0,1,41,3.29,119.58,119.58,0,0,1,35.81,13.24q15.92,9.15,23.07,20.61t5.83,23.67Q414.89,408.42,405.1,420.53Zm-113.32,3.6q15.57-2.4,31.65-11.7t20.33-18.38q4.26-9.06-4.67-14.2-9.48-5.46-25.18-3t-31.78,11.8Q266.05,398,261.93,407t5.36,14.43q8.94,5.14,24.49,2.73"/><path class="cls-6" d="M294.7,382.93v41.15s-31.44,5.61-33.72-13.66C259.68,399.42,294.7,382.93,294.7,382.93Z"/><polygon class="cls-7" points="265.14 466.35 265.14 521.12 282.09 523.08 282.09 466.46 265.14 466.35"/></g></g></svg>