<?xml version="1.0" encoding="utf-8"?>
<!-- Generator: Adobe Illustrator 23.1.1, SVG Export Plug-In . SVG Version: 6.00 Build 0)  -->
<svg version="1.1" id="Layer_1" xmlns="http://www.w3.org/2000/svg" xmlns:xlink="http://www.w3.org/1999/xlink" x="0px" y="0px"
	 viewBox="0 0 567 533.9" style="enable-background:new 0 0 567 533.9;" xml:space="preserve">
<style type="text/css">
	.st0{clip-path:url(#SVGID_2_);}
	.st1{fill:none;}
	.st2{fill:none;stroke:#000000;stroke-width:2;stroke-linecap:round;stroke-miterlimit:10;stroke-dasharray:1.000000e-02,8;}
	.st3{fill:#FFFFFF;}
	.st4{fill:#6F85FB;}
	.st5{fill:#231F1B;}
	.st6{fill:#231F1B;stroke:#231F1B;stroke-width:5;stroke-miterlimit:10;}
	.st7{fill:none;stroke:#231F1B;stroke-width:5;stroke-miterlimit:10;}
	.st8{clip-path:url(#SVGID_4_);}
	.st9{fill:#82C0FD;}
	.st10{fill:none;stroke:#231F1B;stroke-width:2;stroke-miterlimit:10;}
	.st11{clip-path:url(#SVGID_6_);}
	.st12{fill:#F8658C;}
	.st13{fill:#231F1B;stroke:#231F1B;stroke-width:2;stroke-miterlimit:10;}
	.st14{clip-path:url(#SVGID_8_);}
</style>
<title>Asset 9</title>
<g>
	<g id="Layer_1-2">
		<g>
			<defs>
				<path id="SVGID_1_" d="M222.2,62.9c-8.2,4.9-15.6,12.7-22,23.4c-6.6,11.1-11.3,23.3-13.8,36c-2.8,13.5-3.8,27.3-2.9,41.1
					c0.8,14.3,3.4,28.4,7.7,42c4.3,13.8,10.4,26.9,18.3,39c7.8,12.1,16.2,21.3,25.1,27.7c8.9,6.4,17.7,10,26.6,10.7
					c9,0.7,17.9-1.5,25.5-6.4c8.2-5,15.5-12.8,21.9-23.5c6.6-11.1,11.3-23.2,13.9-35.9c2.8-13.4,3.8-27.2,3-40.9
					c-0.8-14.3-3.4-28.4-7.7-42c-4.3-13.8-10.4-26.9-18.3-39c-7.9-12.1-16.2-21.3-25.1-27.7c-8.9-6.4-17.7-9.9-26.6-10.7
					C238.8,55.9,229.8,58.1,222.2,62.9z"/>
			</defs>
			<clipPath id="SVGID_2_">
				<use xlink:href="#SVGID_1_"  style="overflow:visible;"/>
			</clipPath>
			<g class="st0">
				<path class="st1" d="M222.2,62.9c-8.2,4.9-15.6,12.7-22,23.4c-6.6,11.1-11.3,23.3-13.8,36c-2.8,13.5-3.8,27.3-2.9,41.1
					c0.8,14.3,3.4,28.4,7.7,42c4.3,13.8,10.4,26.9,18.3,39c7.8,12.1,16.2,21.3,25.1,27.7c8.9,6.4,17.7,10,26.6,10.7
					c9,0.7,17.9-1.5,25.5-6.4c8.2-5,15.5-12.8,21.9-23.5c6.6-11.1,11.3-23.2,13.9-35.9c2.8-13.4,3.8-27.2,3-40.9
					c-0.8-14.3-3.4-28.4-7.7-42c-4.3-13.8-10.4-26.9-18.3-39c-7.9-12.1-16.2-21.3-25.1-27.7c-8.9-6.4-17.7-9.9-26.6-10.7
					C238.8,55.9,229.8,58.1,222.2,62.9z"/>
				<line class="st2" x1="212.4" y1="407.6" x2="354.4" y2="170.7"/>
				<line class="st2" x1="209.7" y1="402.1" x2="351.7" y2="165.2"/>
				<line class="st2" x1="207" y1="396.6" x2="349" y2="159.7"/>
				<line class="st2" x1="204.3" y1="391.1" x2="346.3" y2="154.2"/>
				<line class="st2" x1="201.6" y1="385.6" x2="343.6" y2="148.6"/>
				<line class="st2" x1="198.9" y1="380.1" x2="340.9" y2="143.1"/>
				<line class="st2" x1="196.2" y1="374.6" x2="338.2" y2="137.6"/>
				<line class="st2" x1="193.5" y1="369" x2="335.6" y2="132.1"/>
				<line class="st2" x1="190.8" y1="363.5" x2="332.9" y2="126.6"/>
				<line class="st2" x1="188.1" y1="358" x2="330.2" y2="121.1"/>
				<line class="st2" x1="185.4" y1="352.5" x2="327.5" y2="115.5"/>
				<line class="st2" x1="182.7" y1="347" x2="324.8" y2="110"/>
				<line class="st2" x1="180" y1="341.5" x2="322.1" y2="104.5"/>
				<line class="st2" x1="177.4" y1="335.9" x2="319.4" y2="99"/>
				<line class="st2" x1="174.7" y1="330.4" x2="316.7" y2="93.5"/>
				<line class="st2" x1="172" y1="324.9" x2="314" y2="88"/>
				<line class="st2" x1="169.3" y1="319.4" x2="311.3" y2="82.4"/>
				<line class="st2" x1="166.6" y1="313.9" x2="308.6" y2="76.9"/>
				<line class="st2" x1="163.9" y1="308.4" x2="305.9" y2="71.4"/>
				<line class="st2" x1="161.2" y1="302.8" x2="303.2" y2="65.9"/>
				<line class="st2" x1="158.5" y1="297.3" x2="300.5" y2="60.4"/>
				<line class="st2" x1="155.8" y1="291.8" x2="297.8" y2="54.9"/>
				<line class="st2" x1="153.1" y1="286.3" x2="295.1" y2="49.3"/>
				<line class="st2" x1="150.4" y1="280.8" x2="292.4" y2="43.8"/>
				<line class="st2" x1="147.7" y1="275.3" x2="289.7" y2="38.3"/>
				<line class="st2" x1="145" y1="269.7" x2="287" y2="32.8"/>
				<line class="st2" x1="142.3" y1="264.2" x2="284.3" y2="27.3"/>
				<line class="st2" x1="139.6" y1="258.7" x2="281.6" y2="21.8"/>
				<line class="st2" x1="136.9" y1="253.2" x2="279" y2="16.3"/>
				<line class="st2" x1="134.2" y1="247.7" x2="276.3" y2="10.7"/>
				<line class="st2" x1="131.5" y1="242.2" x2="273.6" y2="5.2"/>
				<line class="st2" x1="128.8" y1="236.7" x2="270.9" y2="-0.3"/>
				<line class="st2" x1="126.1" y1="231.1" x2="268.2" y2="-5.8"/>
				<line class="st2" x1="123.4" y1="225.6" x2="265.5" y2="-11.3"/>
				<line class="st2" x1="120.8" y1="220.1" x2="262.8" y2="-16.8"/>
				<line class="st2" x1="118.1" y1="214.6" x2="260.1" y2="-22.4"/>
				<line class="st2" x1="115.4" y1="209.1" x2="257.4" y2="-27.9"/>
				<line class="st2" x1="209.6" y1="402.1" x2="351.7" y2="165.2"/>
			</g>
		</g>
		<path class="st3" d="M364.2,125.8c-3.7-13.8-8.9-27.1-15.5-39.6c-6.4-12.2-14.3-23.5-23.5-33.8c-8.4-9.6-18.4-17.7-29.4-24.2
			c-10.6-6.1-20.4-9.2-29.4-9.4c-7-0.3-13.9,1.3-20,4.8l-49.4,28.6l0.2-0.1c-1.2,0.7-2.4,1.5-3.5,2.3c-6.6,4.9-11.7,12.2-15.4,22
			c-3.7,9.8-5.5,21.7-5.5,35.9c0,14.3,1.9,28.4,5.6,42.2c3.6,13.8,8.9,27.1,15.5,39.7c6.4,12.1,14.3,23.4,23.4,33.6
			c8.5,9.5,18.4,17.6,29.4,24c10.6,6.1,20.4,9.2,29.4,9.6c7.1,0.4,14.2-1.3,20.4-4.9l-0.3,0.2l49.3-28.7c1.1-0.7,2.2-1.4,3.3-2.2
			c6.6-4.9,11.7-12.2,15.4-22s5.5-21.7,5.5-35.9C369.8,153.7,367.9,139.5,364.2,125.8z M199.5,50.9l-0.4,0.2L199.5,50.9z
			 M214.6,47.4L214.6,47.4z M211.8,47.5h-0.4H211.8z M209,47.9L209,47.9z M206.7,48.3l-0.4,0.1L206.7,48.3z M204.1,49l-0.4,0.1
			L204.1,49z M201.6,49.9L201.6,49.9z M297.7,255.8l0.5-0.3L297.7,255.8z"/>
		<path class="st4" d="M284,187.8c-1.8-0.3-3.5-1-5.1-1.9c-6.3-3.6-11.9-10-15.6-19.7c-1.3-3.3-3.2-10.5-3.2-10.5L225,175.9
			c0,0,2,7.3,3.3,10.6c3.8,9.7,9.4,16.1,15.7,19.7c1.6,0.9,3.3,1.6,5.1,1.9L284,187.8"/>
		<path class="st4" d="M199.8,60.1l43.6-25.3c5.4-3,11.5-4.5,17.7-4.2c7.9,0.2,16.6,3,26,8.3c9.8,5.7,18.5,12.9,26,21.4
			c8.1,9.1,15,19.1,20.7,29.8c5.9,11.1,10.5,22.9,13.7,35.1L300,152.3c-3.3-12.4-7-20.8-12.8-31.8c-5.7-10.7-12.6-20.8-20.7-29.8
			c-7.5-8.5-16.2-15.7-26-21.4c-7.7-4.1-15.9-7.1-24.4-9.1C208.4,58.4,202.2,58.8,199.8,60.1z"/>
		<path class="st5" d="M265,145.6l-25.9,15l-10.5,6.1c0,0-9.9-50.4,8.9-56.2C255.4,104.9,265,145.6,265,145.6z"/>
		<path class="st6" d="M345.7,228l-49.3,28.7c1.1-0.7,2.2-1.4,3.3-2.2c6.6-4.9,11.7-12.2,15.4-22c3.7-9.8,5.5-21.7,5.5-35.9
			c0-14.3-1.9-28.4-5.6-42.2l49.3-28.7c3.7,13.8,5.6,28,5.6,42.2c0,14.1-1.8,26.1-5.5,35.9s-8.8,17.1-15.4,22
			C347.9,226.6,346.8,227.3,345.7,228z"/>
		<path class="st7" d="M314.9,154.4c3.7,13.8,5.6,28,5.6,42.2c0,14.1-1.8,26.1-5.5,35.9c-3.7,9.8-8.8,17.1-15.4,22
			c-6.6,4.9-14.4,7.2-23.4,6.8c-9-0.3-18.8-3.5-29.4-9.6c-11-6.4-20.9-14.5-29.4-24c-9.2-10.2-17.1-21.5-23.5-33.6
			c-6.7-12.6-11.9-25.9-15.5-39.7c-3.7-13.8-5.6-28-5.6-42.2c0-14.1,1.8-26.1,5.5-35.8s8.8-17.1,15.4-22c6.6-4.9,14.4-7.2,23.4-7
			c9,0.2,18.8,3.4,29.4,9.4c11,6.4,21,14.6,29.4,24.2c9.2,10.3,17,21.6,23.5,33.8C306,127.4,311.3,140.7,314.9,154.4z M261.3,192.8
			c3.8-5.4,5.7-14.3,5.7-26.8s-1.9-23.6-5.8-33.5c-3.8-9.8-8.7-16.5-14.6-19.9c-6.4-3.7-11.5-2.7-15.3,2.8s-5.7,14.5-5.7,26.9
			s1.9,23.5,5.8,33.3s8.8,16.4,15.1,20C252.6,199.2,257.5,198.2,261.3,192.8"/>
		<path class="st7" d="M314.9,154.4c3.7,13.8,5.6,28,5.6,42.2c0,14.1-1.8,26.1-5.5,35.9c-3.7,9.8-8.8,17.1-15.4,22
			c-6.6,4.9-14.4,7.2-23.4,6.8c-9-0.3-18.8-3.5-29.4-9.6c-11-6.4-20.9-14.5-29.4-24c-9.2-10.2-17.1-21.5-23.5-33.6
			c-6.7-12.6-11.9-25.9-15.5-39.7c-3.7-13.8-5.6-28-5.6-42.2c0-14.1,1.8-26.1,5.5-35.8s8.8-17.1,15.4-22c6.6-4.9,14.4-7.2,23.4-7
			c9,0.2,18.8,3.4,29.4,9.4c11,6.4,21,14.6,29.4,24.2c9.2,10.3,17,21.6,23.5,33.8C306,127.4,311.3,140.7,314.9,154.4z M261.3,192.8
			c3.8-5.4,5.7-14.3,5.7-26.8s-1.9-23.6-5.8-33.5c-3.8-9.8-8.7-16.5-14.6-19.9c-6.4-3.7-11.5-2.7-15.3,2.8s-5.7,14.5-5.7,26.9
			s1.9,23.5,5.8,33.3s8.8,16.4,15.1,20C252.6,199.2,257.5,198.2,261.3,192.8"/>
		<path class="st7" d="M197.1,52.1l49.3-28.7c6.1-3.4,13-5.1,20-4.8c9,0.2,18.8,3.4,29.4,9.4c11,6.4,21,14.6,29.4,24.2
			c9.2,10.3,17.1,21.6,23.5,33.8c6.7,12.6,11.9,25.9,15.5,39.6l-49.3,28.7c-3.6-13.8-8.9-27.1-15.5-39.7
			c-6.4-12.2-14.3-23.5-23.5-33.8c-8.4-9.6-18.4-17.8-29.4-24.2c-10.6-6.1-20.4-9.2-29.4-9.4C210.1,47,203.2,48.7,197.1,52.1z"/>
		<g>
			<defs>
				<path id="SVGID_3_" d="M516.8,269.5c21.4,12.3,33.2,24.3,35.5,35.7s-4.4,21.8-20.1,30.9c-5.5,3.2-11.4,5.8-17.5,7.6
					c-5.9,1.7-11.9,2.9-18,3.5c-6.3,0.6-12.6,0.8-18.9,0.5c-6.5-0.3-13-0.9-19.5-1.6c-7.8-0.9-15.7-1.9-23.6-3.2
					c-5.7-0.9-11.6-1.7-17.6-2.4c-0.8-0.1-1.6,0.5-1.7,1.3c-0.1,0.6,0.2,1.2,0.7,1.5l55.1,31.9l-47.1,27.3l-146.9-84.8
					c8.5-5,17.4-9.3,26.6-12.9c8.5-3.2,17.3-5.5,26.2-6.9c9.3-1.4,18.7-1.8,28.1-1.3c11,0.6,21.9,1.9,32.7,3.8
					c15.4,2.7,27.6,4.8,36.7,6.3c9.1,1.5,16.1,2.5,21.1,3.1c3.6,0.5,7.2,0.6,10.8,0.3c2-0.3,4-0.9,5.8-1.9c4.6-2.7,6.5-5.5,5.8-8.5
					c-0.8-3-3.7-6-8.9-9c-6.9-3.8-14.4-6.3-22.1-7.3c-8.6-1.3-19.4-1.7-32.4-1l5.6-42c8.1-0.2,16.3,0.4,24.3,1.7
					c9.1,1.4,18,3.4,26.9,5.9c9.2,2.6,18.2,5.7,27,9.3C500.1,260.7,508.6,264.8,516.8,269.5z"/>
			</defs>
			<clipPath id="SVGID_4_">
				<use xlink:href="#SVGID_3_"  style="overflow:visible;"/>
			</clipPath>
			<g class="st8">
				<path class="st1" d="M515.8,269.5c21.4,12.3,33.2,24.3,35.5,35.7s-4.4,21.8-20.1,30.9c-5.5,3.2-11.4,5.8-17.5,7.6
					c-5.9,1.7-11.9,2.9-18,3.5c-6.3,0.6-12.6,0.8-18.9,0.5c-6.5-0.3-13-0.9-19.5-1.6c-7.8-0.9-15.7-1.9-23.6-3.2
					c-5.7-0.9-11.6-1.7-17.6-2.4c-0.8-0.1-1.6,0.5-1.7,1.3c-0.1,0.6,0.2,1.2,0.7,1.5l55.1,31.9l-47.1,27.3l-146.9-84.8
					c8.5-5,17.4-9.3,26.6-12.9c8.5-3.2,17.3-5.5,26.2-6.9c9.3-1.4,18.7-1.8,28.1-1.3c11,0.6,21.9,1.9,32.7,3.8
					c15.4,2.7,27.6,4.8,36.7,6.3c9.1,1.5,16.1,2.5,21.1,3.1c3.6,0.5,7.2,0.6,10.8,0.3c2-0.3,4-0.9,5.8-1.9c4.6-2.7,6.5-5.5,5.8-8.5
					c-0.8-3-3.7-6-8.9-9c-6.9-3.8-14.4-6.3-22.1-7.3c-8.6-1.3-19.4-1.7-32.4-1l5.6-42c8.1-0.2,16.3,0.4,24.3,1.7
					c9.1,1.4,18,3.4,26.9,5.9c9.2,2.6,18.2,5.7,27,9.3C499.1,260.7,507.6,264.8,515.8,269.5z"/>
				<line class="st2" x1="246.3" y1="300.4" x2="481.1" y2="434.9"/>
				<line class="st2" x1="251.9" y1="297.9" x2="486.6" y2="432.5"/>
				<line class="st2" x1="257.4" y1="295.4" x2="492.2" y2="430"/>
				<line class="st2" x1="263" y1="292.9" x2="497.7" y2="427.5"/>
				<line class="st2" x1="268.5" y1="290.5" x2="503.2" y2="425"/>
				<line class="st2" x1="274" y1="288" x2="508.8" y2="422.6"/>
				<line class="st2" x1="279.6" y1="285.5" x2="514.3" y2="420.1"/>
				<line class="st2" x1="285.1" y1="283" x2="519.9" y2="417.6"/>
				<line class="st2" x1="290.7" y1="280.6" x2="525.4" y2="415.2"/>
				<line class="st2" x1="296.2" y1="278.1" x2="530.9" y2="412.7"/>
				<line class="st2" x1="301.7" y1="275.6" x2="536.5" y2="410.2"/>
				<line class="st2" x1="307.3" y1="273.2" x2="542" y2="407.7"/>
				<line class="st2" x1="312.8" y1="270.7" x2="547.6" y2="405.3"/>
				<line class="st2" x1="318.4" y1="268.2" x2="553.1" y2="402.8"/>
				<line class="st2" x1="323.9" y1="265.7" x2="558.6" y2="400.3"/>
				<line class="st2" x1="329.4" y1="263.3" x2="564.2" y2="397.8"/>
				<line class="st2" x1="335" y1="260.8" x2="569.7" y2="395.4"/>
				<line class="st2" x1="340.5" y1="258.3" x2="575.3" y2="392.9"/>
				<line class="st2" x1="346.1" y1="255.8" x2="580.8" y2="390.4"/>
				<line class="st2" x1="351.6" y1="253.4" x2="586.3" y2="387.9"/>
				<line class="st2" x1="357.1" y1="250.9" x2="591.9" y2="385.5"/>
				<line class="st2" x1="362.7" y1="248.4" x2="597.4" y2="383"/>
				<line class="st2" x1="368.2" y1="245.9" x2="603" y2="380.5"/>
				<line class="st2" x1="373.8" y1="243.5" x2="608.5" y2="378"/>
				<line class="st2" x1="379.3" y1="241" x2="614" y2="375.6"/>
				<line class="st2" x1="384.8" y1="238.5" x2="619.6" y2="373.1"/>
				<line class="st2" x1="390.4" y1="236" x2="625.1" y2="370.6"/>
				<line class="st2" x1="395.9" y1="233.6" x2="630.7" y2="368.1"/>
				<line class="st2" x1="401.5" y1="231.1" x2="636.2" y2="365.7"/>
				<line class="st2" x1="407" y1="228.6" x2="641.7" y2="363.2"/>
				<line class="st2" x1="412.5" y1="226.1" x2="647.3" y2="360.7"/>
				<line class="st2" x1="418.1" y1="223.7" x2="652.8" y2="358.3"/>
				<line class="st2" x1="423.6" y1="221.2" x2="658.4" y2="355.8"/>
				<line class="st2" x1="245" y1="294" x2="479.7" y2="428.5"/>
			</g>
		</g>
		<path class="st3" d="M551.5,237c0.2-2.1,0.1-4.2-0.3-6.3c-2.3-11.5-14.1-23.4-35.5-35.7c-8.2-4.7-16.7-8.8-25.4-12.4
			c-8.8-3.6-17.8-6.7-27-9.3c-8.8-2.5-17.8-4.5-26.9-5.9c-8-1.3-16.2-1.9-24.3-1.7l-5.6,42l1.5-0.1l-0.1,0.9l-2.6,0.1v19.9
			l-15.7-2.7c-10.8-1.9-21.7-3.1-32.7-3.8c-9.4-0.5-18.8-0.1-28.1,1.3c-9,1.3-17.7,3.6-26.2,6.8c-9.2,3.6-18.1,7.9-26.6,12.9l10.3,6
			l-0.5,0.3l-10.8-6.3l-0.2,56.1L421.9,384l0.1-45.1l1,0.6l-0.1,46.2l47.1-28.1l0.5-27.7c2,0.1,4,0.3,6,0.4
			c6.3,0.3,12.6,0.2,18.9-0.5c6.1-0.6,12.1-1.8,18-3.5c6.1-1.8,12-4.3,17.5-7.6c13.7-8,20.5-16.8,20.5-26.5l0.1-44.8
			c0-0.4,0-0.9,0-1.3v-10.9C551.5,235.7,551.5,236.4,551.5,237z M550.7,240.8c0.1-0.4,0.2-0.8,0.3-1.1
			C550.9,240,550.8,240.4,550.7,240.8L550.7,240.8z M551.2,238.9c0.1-0.5,0.2-1,0.2-1.4C551.3,238,551.2,238.5,551.2,238.9
			L551.2,238.9z"/>
		<path class="st9" d="M514.7,208.6c21.4,12.4,33.2,24.3,35.5,35.7s-4.4,21.8-20.1,30.9c-5.5,3.2-11.4,5.8-17.5,7.6
			c-5.9,1.7-11.9,2.9-18,3.5c-6.3,0.7-12.6,0.8-18.9,0.5c-6.5-0.3-13-0.9-19.5-1.6c-7.8-0.9-15.7-1.9-23.6-3.2s-16.2-2.3-24.8-3.2
			l61.3,35.4l-47.1,27.4l-147-84.8c8.5-5,17.4-9.3,26.6-12.9c8.5-3.2,17.3-5.5,26.2-6.8c9.3-1.4,18.7-1.8,28.1-1.3
			c11,0.6,21.9,1.9,32.7,3.8c15.4,2.7,27.6,4.8,36.7,6.3c9.1,1.5,16.1,2.5,21.1,3.1c3.6,0.5,7.2,0.6,10.8,0.3c2-0.3,4-0.9,5.8-1.9
			c4.6-2.7,6.5-5.5,5.8-8.5c-0.8-3-3.7-6-8.9-9c-6.9-3.8-14.4-6.3-22.1-7.3c-8.6-1.3-19.4-1.7-32.4-1l5.6-42
			c8.1-0.2,16.3,0.4,24.3,1.7c9.1,1.4,18,3.4,26.9,5.9c9.2,2.6,18.2,5.7,27,9.3C498.1,199.8,506.5,203.9,514.7,208.6z"/>
		<path class="st5" d="M553.9,234.1l-0.2,57.1c0,9.7-9.2,19.5-22.9,27.5c-5.5,3.2-11.4,5.8-17.5,7.6c-5.9,1.7-11.9,2.9-18,3.5
			c-6.3,0.6-12.6,0.8-18.9,0.5c-6.5-0.3-13-0.9-19.5-1.6c-7.8-0.9-15.7-1.9-23.6-3.2c-8-1.3,39-22.3,36.8-24.9l-55.2-32.6
			c-0.4-0.2-0.5-0.7-0.3-1.1c0.2-0.3,0.6-0.5,0.9-0.4c6.4,1.4,11.5,0.9,18,2c8,1.3,15.9,2.4,23.6,3.2c6.5,0.8,13,1.3,19.5,1.6
			c6.3,0.3,12.6,0.2,18.9-0.5c6.1-0.7,12.1-1.8,18-3.5c6.1-1.8,12-4.3,17.5-7.6C544.7,253.7,553.9,243.9,553.9,234.1z"/>
		<polygon class="st5" points="471,300.6 469.9,357.7 422.9,385.8 423,328 		"/>
		<polyline class="st7" points="422,328 421.9,384 274.1,299.1 273.8,243 		"/>
		<path class="st7" d="M515.6,195c21.4,12.3,33.2,24.3,35.5,35.7c2.3,11.5-4.4,21.8-20.1,30.9c-5.5,3.2-11.4,5.8-17.5,7.6
			c-5.9,1.7-11.9,2.9-18,3.5c-6.3,0.6-12.6,0.8-18.9,0.5c-6.5-0.3-13-0.9-19.5-1.6c-7.8-0.9-15.7-1.9-23.6-3.2
			c-5.7-0.9-11.6-1.7-17.6-2.4c-0.8-0.1-1.6,0.5-1.7,1.4c-0.1,0.6,0.2,1.2,0.7,1.5l55.1,31.8L423,328l-146.9-84.8
			c8.5-5,17.4-9.3,26.6-12.9c8.5-3.2,17.3-5.5,26.2-6.8c9.3-1.4,18.7-1.8,28.1-1.3c11,0.6,21.9,1.9,32.7,3.8
			c15.4,2.7,27.6,4.8,36.7,6.3s16.1,2.5,21.1,3.1c3.6,0.5,7.2,0.6,10.8,0.3c2-0.3,4-0.9,5.8-1.9c4.6-2.7,6.5-5.5,5.8-8.5
			c-0.8-3-3.7-6-8.9-9c-6.9-3.8-14.4-6.3-22.1-7.3c-8.6-1.3-19.4-1.7-32.4-1l5.6-42c8.1-0.2,16.3,0.4,24.3,1.7
			c9.1,1.4,18,3.3,26.8,5.8c9.2,2.6,18.2,5.7,27,9.3C499,186.2,507.5,190.3,515.6,195z"/>
		<path class="st5" d="M470,228.4v-2.5c0-0.4-0.1-0.9-0.2-1.3c-0.7-3-3.7-6-8.9-9c-6.9-3.8-14.4-6.3-22.1-7.3
			c-8.6-1.3-34.9,1.9-34.9,1.9v18.3c0,0,44.9,8.6,54.5,7.2S470,228.4,470,228.4z"/>
		<polygon class="st5" points="403.6,210.4 403.6,228 408.5,228 404.4,209.6 		"/>
		<path class="st10" d="M244,383.4c0-1.8,0.5-3.5,1.2-5.1c2.7-6,9.5-12.1,20.2-18.4c10.7-6.2,21.3-10.2,31.8-11.9
			c10.5-1.7,18.9-0.7,25.2,3c4,2.3,6,5.3,6,8.8"/>
		<g>
			<defs>
				<path id="SVGID_5_" d="M156.3,354c-0.8-0.1-1.6,0.5-1.7,1.3c-0.1,0.6,0.2,1.2,0.7,1.5l45.4,26.2c3.1,1.8,4.2,5.8,2.4,8.9
					c-0.6,1-1.4,1.8-2.4,2.4l-34.1,19.8c-2,1.2-4.5,1.2-6.5,0L26.5,337c-3.1-1.8-4.2-5.8-2.4-8.9c0.6-1.1,1.6-2,2.7-2.5
					c5.3-2.7,10.7-5.1,16.3-7.2c8.5-3.2,17.3-5.5,26.2-6.8"/>
			</defs>
			<clipPath id="SVGID_6_">
				<use xlink:href="#SVGID_5_"  style="overflow:visible;"/>
			</clipPath>
			<g class="st11">
				<path class="st1" d="M255,283.1c21.4,12.3,33.2,24.3,35.5,35.7c2.3,11.5-4.4,21.8-20.1,30.9c-5.5,3.2-11.4,5.8-17.5,7.6
					c-5.9,1.7-11.9,2.9-18,3.5c-6.3,0.7-12.6,0.8-18.9,0.5c-6.5-0.3-13-0.9-19.5-1.6c-7.8-0.9-15.7-1.9-23.6-3.2
					c-5.7-0.9-11.6-1.7-17.6-2.4c-0.8-0.1-1.6,0.5-1.7,1.3c-0.1,0.6,0.2,1.2,0.7,1.5l55.1,31.8L162.4,416l-147-84.8
					c8.5-5,17.4-9.3,26.6-12.9c8.5-3.2,17.3-5.5,26.2-6.8c9.3-1.4,18.7-1.8,28.1-1.3c11,0.6,21.9,1.9,32.7,3.8
					c15.4,2.7,27.6,4.8,36.7,6.3s16.1,2.5,21.1,3.1c3.6,0.5,7.2,0.6,10.8,0.3c2-0.3,4-0.9,5.8-1.9c4.6-2.7,6.5-5.5,5.8-8.5
					c-0.8-3-3.7-6-8.9-9c-6.9-3.8-14.4-6.3-22.2-7.3c-8.6-1.3-19.4-1.7-32.4-1l5.6-42c8.1-0.2,16.3,0.4,24.3,1.7
					c9.1,1.4,18,3.4,26.9,5.9c9.2,2.6,18.2,5.7,27,9.3C238.4,274.3,246.9,278.4,255,283.1z"/>
				<line class="st2" x1="-14.4" y1="313.9" x2="220.3" y2="448.5"/>
				<line class="st2" x1="-8.9" y1="311.5" x2="225.9" y2="446"/>
				<line class="st2" x1="-3.3" y1="309" x2="231.4" y2="443.6"/>
				<line class="st2" x1="2.2" y1="306.5" x2="237" y2="441.1"/>
				<line class="st2" x1="7.8" y1="304" x2="242.5" y2="438.6"/>
				<line class="st2" x1="13.3" y1="301.6" x2="248" y2="436.1"/>
				<line class="st2" x1="18.8" y1="299.1" x2="253.6" y2="433.7"/>
				<line class="st2" x1="24.4" y1="296.6" x2="259.1" y2="431.2"/>
				<line class="st2" x1="29.9" y1="294.1" x2="264.7" y2="428.7"/>
				<line class="st2" x1="35.5" y1="291.7" x2="270.2" y2="426.2"/>
				<line class="st2" x1="41" y1="289.2" x2="155.8" y2="355"/>
				<line class="st2" x1="164" y1="354.1" x2="281.3" y2="421.3"/>
				<line class="st2" x1="46.5" y1="286.7" x2="164" y2="354.1"/>
				<line class="st2" x1="160.1" y1="346.1" x2="286.8" y2="418.8"/>
				<line class="st2" x1="96.6" y1="309.8" x2="160.1" y2="346.1"/>
				<line class="st2" x1="52.1" y1="284.2" x2="96.6" y2="309.8"/>
				<line class="st2" x1="57.6" y1="281.8" x2="292.4" y2="416.3"/>
				<line class="st2" x1="63.2" y1="279.3" x2="297.9" y2="413.9"/>
				<line class="st2" x1="68.7" y1="276.8" x2="303.4" y2="411.4"/>
				<line class="st2" x1="74.2" y1="274.3" x2="309" y2="408.9"/>
				<line class="st2" x1="79.8" y1="271.9" x2="314.5" y2="406.5"/>
				<line class="st2" x1="85.3" y1="269.4" x2="320.1" y2="404"/>
				<line class="st2" x1="90.9" y1="266.9" x2="325.6" y2="401.5"/>
				<line class="st2" x1="96.4" y1="264.5" x2="331.1" y2="399"/>
				<line class="st2" x1="101.9" y1="262" x2="336.7" y2="396.6"/>
				<line class="st2" x1="107.5" y1="259.5" x2="342.2" y2="394.1"/>
				<line class="st2" x1="113" y1="257" x2="347.8" y2="391.6"/>
				<line class="st2" x1="118.6" y1="254.6" x2="353.3" y2="389.1"/>
				<line class="st2" x1="124.1" y1="252.1" x2="358.8" y2="386.7"/>
				<line class="st2" x1="129.6" y1="249.6" x2="364.4" y2="384.2"/>
				<line class="st2" x1="135.2" y1="247.1" x2="369.9" y2="381.7"/>
				<line class="st2" x1="140.7" y1="244.7" x2="375.5" y2="379.2"/>
				<line class="st2" x1="146.3" y1="242.2" x2="381" y2="376.8"/>
				<line class="st2" x1="151.8" y1="239.7" x2="386.5" y2="374.3"/>
				<line class="st2" x1="157.3" y1="237.2" x2="392.1" y2="371.8"/>
				<line class="st2" x1="162.9" y1="234.8" x2="397.6" y2="369.3"/>
				<line class="st2" x1="-15.8" y1="307.5" x2="219" y2="442.1"/>
			</g>
		</g>
		<path class="st3" d="M192.8,262.3c2.1-1.2,3.9-2.7,5.6-4.5c2.7-3,4.7-6.6,6-10.5c1.5-4.3,2.3-9.7,2.3-16.3
			c0.3-18.5-5.1-36.7-15.5-52l-1.1-1.1 M190.1,178c-11-16.5-26-28.8-47.4-41.1l-1.1-1.1c-7.5-4.4-15.3-8.1-23.4-11.3
			c-7-2.7-14.2-4.8-21.6-6.2c-6.1-1.2-12.3-1.6-18.5-1.1c-4.9,0.5-8.4,1.3-11.8,3.3l-0.6,0.3l-49.3,28.7l0,0
			c-0.5,0.3-0.9,0.6-1.4,0.9l33.3,64.5c6-4.7,11.7-7.2,17.2-7.7c5.5-0.5,11.3,1.1,17.4,4.6c3.7,2.1,7,4.7,9.8,7.8l-0.5,0.2
			c-2.4,0.5-4.9,1.2-7.2,2.1c-1.5,0.6-2.9,1.2-4.2,2l-49.3,28.7l0.2-0.1c-3.5,2-6.6,4.8-9,8c-3.3,4.6-5.8,10.5-7.3,17.8
			c-1.7,8.9-2.4,17.9-2.3,26.9L160.1,390l0.1-46.4l44.2-25.1L151,286.6l41.9-24.3 M33.7,251.4c-0.2,0.1-0.4,0.2-0.7,0.3
			C33.2,251.6,33.5,251.5,33.7,251.4z"/>
		<path class="st12" d="M31.5,263.4l49.3-28.7c1.4-0.8,2.8-1.4,4.2-2c5.3-2.1,11.9-3.3,19.7-3.7c10.1-0.4,18-0.8,23.9-1.1
			c4.4-0.2,8.9-0.7,13.3-1.5c1.5-0.3,3-0.8,4.4-1.5L97,253.6c-1.4,0.7-2.9,1.2-4.4,1.5c-4.4,0.8-8.8,1.3-13.3,1.5
			c-5.9,0.4-13.8,0.7-23.9,1.1c-7.8,0.4-14.4,1.6-19.7,3.7C34.3,262,32.9,262.7,31.5,263.4z"/>
		<path class="st12" d="M199.3,231.9L150,260.5c-7.3-51.9-48.4-81.1-79.4-94.9c-21.2-9.5-37-11-37-11l49.3-28.7
			c0,0,6.8-0.9,23.4,5.2C125.2,137.9,191.1,166,199.3,231.9z"/>
		<polygon class="st12" points="143.5,281.6 94.2,310.2 155.5,345.6 204.3,317.8 		"/>
		<path class="st7" d="M65.6,120.1c3.8-2.1,8-3.3,12.3-3.6c6.2-0.5,12.5-0.1,18.6,1.1c7.4,1.4,14.6,3.5,21.6,6.2
			c8.1,3.1,15.9,6.9,23.4,11.3"/>
		<path class="st7" d="M190.2,178.4c11,16.5,16.5,33.9,16.5,52c0,6.6-0.8,12.1-2.3,16.3c-1.3,3.9-3.3,7.4-6,10.5
			c-1.6,1.7-3.5,3.2-5.6,4.4"/>
		<path class="st7" d="M97,242c-1.4,0.7-2.9,1.2-4.4,1.5c-4.4,0.8-8.8,1.3-13.3,1.5c-5.9,0.4-13.8,0.8-23.9,1.1
			c-7.8,0.4-14.4,1.6-19.7,3.7c-1.5,0.6-2.9,1.2-4.2,2l49.3-28.6c1.4-0.8,2.8-1.4,4.2-2c2.3-0.9,4.7-1.6,7.2-2.1"/>
		<line class="st7" x1="162.4" y1="279" x2="209.5" y2="306.2"/>
		<polyline class="st13" points="162,392.9 210.2,359.4 209.8,305.8 160.2,335.9 160.1,389.3 		"/>
		<path class="st7" d="M92.2,163.8c-7.5-4.4-15.3-8.1-23.4-11.3c-7-2.7-14.2-4.8-21.6-6.2c-6.1-1.2-12.4-1.6-18.6-1.1
			c-4.3,0.3-8.5,1.5-12.3,3.6l49.3-28.6"/>
		<path class="st7" d="M141.6,135.1c21.4,12.3,37.6,26.8,48.6,43.3"/>
		<path class="st7" d="M192.8,261.7l-49.3,28.7c2.1-1.2,3.9-2.7,5.6-4.5c2.7-3,4.7-6.6,6-10.5c1.5-4.3,2.3-9.7,2.3-16.3
			c0-18.2-5.4-35.5-16.5-52s-27.2-31-48.6-43.3"/>
		<path class="st7" d="M160.1,389.3l0.1-54.5l-61.3-35.4c5-1.2,10.1-1.9,15.2-2.3c4.9-0.3,9.8-1,14.7-2c3.8-0.7,7.6-1.8,11.2-3.2
			c3.5-1.3,6.6-3.4,9.1-6.1c2.7-3,4.7-6.6,6-10.5c1.5-4.3,2.3-9.7,2.3-16.3c0-18.2-5.4-35.5-16.5-52s-27.2-30.9-48.6-43.3
			c-7.5-4.4-15.3-8.1-23.4-11.3c-7-2.7-14.2-4.8-21.6-6.2c-6.1-1.2-12.4-1.6-18.6-1.1c-5.6,0.5-10.2,2-13.7,4.4l33.3,64.6
			c6-4.7,11.7-7.2,17.2-7.7c5.5-0.5,11.3,1.1,17.4,4.6c4.8,2.7,9,6.4,12.2,10.9c3,4.2,4.5,9.3,4.4,14.4c0.1,1.6-0.4,3.2-1.3,4.6
			c-0.8,1.1-2.8,2-5.7,2.6c-4.4,0.8-8.8,1.3-13.3,1.5c-5.9,0.4-13.8,0.8-23.9,1.1c-7.8,0.4-14.4,1.6-19.7,3.7c-5.2,2-9.7,5.5-13,10
			c-3.3,4.6-5.8,10.5-7.3,17.8c-1.7,8.9-2.4,17.9-2.3,26.9L160.1,389.3l0.1-54.4"/>
		<g>
			<defs>
				<path id="SVGID_7_" d="M390.2,421.4c-4.8-7.7-12.4-14.6-23-20.7c-11.1-6.3-23.2-10.8-35.8-13.3c-13.5-2.8-27.3-3.9-41-3.3
					c-14.2,0.6-28.3,2.7-42.1,6.5c-13.7,3.7-26.9,9.2-39.2,16.3c-12.2,7.1-21.5,14.7-28.1,22.8c-6.5,8.1-10.3,16.2-11.2,24.4
					c-0.9,8.2,1.1,16.1,6,23.7c4.9,7.6,12.6,14.5,23.2,20.6c11.1,6.3,23.1,10.8,35.7,13.4c13.4,2.8,27.1,3.9,40.8,3.4
					c14.2-0.6,28.3-2.7,42.1-6.5c13.7-3.7,26.9-9.2,39.2-16.3c12.2-7.1,21.6-14.7,28.1-22.8c6.5-8.1,10.2-16.2,11.1-24.4
					C397,437,395,429,390.2,421.4z"/>
			</defs>
			<clipPath id="SVGID_8_">
				<use xlink:href="#SVGID_7_"  style="overflow:visible;"/>
			</clipPath>
			<g class="st14">
				<path class="st1" d="M390.2,421.4c-4.8-7.7-12.4-14.6-23-20.7c-11.1-6.3-23.2-10.8-35.8-13.3c-13.5-2.8-27.3-3.9-41-3.3
					c-14.2,0.6-28.3,2.7-42.1,6.5c-13.7,3.7-26.9,9.2-39.2,16.3c-12.2,7.1-21.5,14.7-28.1,22.8c-6.5,8.1-10.3,16.2-11.2,24.4
					c-0.9,8.2,1.1,16.1,6,23.7c4.9,7.6,12.6,14.5,23.2,20.6c11.1,6.3,23.1,10.8,35.7,13.4c13.4,2.8,27.1,3.9,40.8,3.4
					c14.2-0.6,28.3-2.7,42.1-6.5c13.7-3.7,26.9-9.2,39.2-16.3c12.2-7.1,21.6-14.7,28.1-22.8c6.5-8.1,10.2-16.2,11.1-24.4
					C397,437,395,429,390.2,421.4z"/>
				<line class="st2" x1="45.7" y1="407.4" x2="280.4" y2="542"/>
				<line class="st2" x1="51.2" y1="405" x2="285.9" y2="539.6"/>
				<line class="st2" x1="56.8" y1="402.6" x2="291.5" y2="537.2"/>
				<line class="st2" x1="62.3" y1="400.2" x2="297.1" y2="534.8"/>
				<line class="st2" x1="67.9" y1="397.8" x2="302.6" y2="532.4"/>
				<line class="st2" x1="73.4" y1="395.4" x2="308.2" y2="530"/>
				<line class="st2" x1="79" y1="393" x2="313.7" y2="527.6"/>
				<line class="st2" x1="84.5" y1="390.6" x2="319.3" y2="525.1"/>
				<line class="st2" x1="90.1" y1="388.2" x2="324.8" y2="522.7"/>
				<line class="st2" x1="95.7" y1="385.7" x2="330.4" y2="520.3"/>
				<line class="st2" x1="101.2" y1="383.3" x2="336" y2="517.9"/>
				<line class="st2" x1="106.8" y1="380.9" x2="341.5" y2="515.5"/>
				<line class="st2" x1="112.3" y1="378.5" x2="347.1" y2="513.1"/>
				<line class="st2" x1="117.9" y1="376.1" x2="352.6" y2="510.7"/>
				<line class="st2" x1="123.4" y1="373.7" x2="358.2" y2="508.3"/>
				<line class="st2" x1="129" y1="371.3" x2="363.7" y2="505.8"/>
				<line class="st2" x1="134.6" y1="368.9" x2="369.3" y2="503.4"/>
				<line class="st2" x1="140.1" y1="366.4" x2="374.9" y2="501"/>
				<line class="st2" x1="145.7" y1="364" x2="380.4" y2="498.6"/>
				<line class="st2" x1="151.2" y1="361.6" x2="386" y2="496.2"/>
				<line class="st2" x1="156.8" y1="359.2" x2="391.5" y2="493.8"/>
				<line class="st2" x1="162.3" y1="356.8" x2="397.1" y2="491.4"/>
				<line class="st2" x1="167.9" y1="354.4" x2="402.6" y2="489"/>
				<line class="st2" x1="173.5" y1="352" x2="408.2" y2="486.6"/>
				<line class="st2" x1="179" y1="349.6" x2="413.8" y2="484.1"/>
				<line class="st2" x1="184.6" y1="347.1" x2="419.3" y2="481.7"/>
				<line class="st2" x1="190.1" y1="344.7" x2="424.9" y2="479.3"/>
				<line class="st2" x1="195.7" y1="342.3" x2="430.4" y2="476.9"/>
				<line class="st2" x1="201.2" y1="339.9" x2="436" y2="474.5"/>
				<line class="st2" x1="206.8" y1="337.5" x2="441.5" y2="472.1"/>
				<line class="st2" x1="212.3" y1="335.1" x2="447.1" y2="469.7"/>
				<line class="st2" x1="217.9" y1="332.7" x2="452.6" y2="467.3"/>
				<line class="st2" x1="223.5" y1="330.3" x2="458.2" y2="464.8"/>
				<line class="st2" x1="229" y1="327.9" x2="463.8" y2="462.4"/>
				<line class="st2" x1="234.6" y1="325.4" x2="469.3" y2="460"/>
				<line class="st2" x1="240.1" y1="323" x2="474.9" y2="457.6"/>
				<line class="st2" x1="245.7" y1="320.6" x2="480.4" y2="455.2"/>
				<line class="st2" x1="51.2" y1="405" x2="285.9" y2="539.6"/>
			</g>
		</g>
		<path class="st3" d="M278.5,494.6L278.5,494.6c14.2-0.6,28.3-2.7,42.1-6.5c13.7-3.7,26.9-9.2,39.2-16.4
			c12.2-7.1,21.6-14.7,28.1-22.8s10.2-16.2,11.1-24.4c0.1-1.2,0.2-2.5,0.2-3.7l0.2-57.1v0.3c0-7.2-2.1-14.3-6-20.3
			c-4.8-7.7-12.5-14.6-23.1-20.7c-11.1-6.3-23.2-10.8-35.8-13.3c-13.5-2.8-27.3-3.9-41-3.3c-14.2,0.6-28.3,2.7-42.1,6.5
			c-13.7,3.7-26.9,9.2-39.2,16.3c-12.2,7.1-21.5,14.7-28.1,22.8c-6.5,8.1-10.2,16.2-11.1,24.4c-0.1,1.3-0.2,2.6-0.2,3.9
			c0-0.1,0-0.2,0-0.2v12.4c-0.2,2.3-0.2,4.7,0,7l-0.1,37.7c0.1,7.1,2.2,14.1,6.2,20c4.9,7.6,12.6,14.5,23.2,20.6
			c11.1,6.3,23.1,10.8,35.7,13.4C251.2,494.1,264.9,495.2,278.5,494.6 M399.4,365.3c0,0.2,0,0.4,0,0.5
			C399.3,365.7,399.3,365.5,399.4,365.3z M173.2,385.4v-0.2V385.4z M172.9,382.9c0,0,0-0.1,0-0.1S172.9,382.8,172.9,382.9
			L172.9,382.9z"/>
		<path class="st4" d="M388.1,407.8c-6.5,8.1-15.9,15.7-28.1,22.8c-12.3,7.1-25.5,12.6-39.2,16.3c-13.7,3.8-27.8,6-42.1,6.5
			c-13.7,0.6-27.4-0.5-40.9-3.4c-12.5-2.6-24.5-7.1-35.6-13.4c-10.6-6.1-18.3-13-23.2-20.6s-6.9-15.5-6-23.7
			c0.9-8.1,4.6-16.3,11.1-24.4s15.9-15.7,28.1-22.8c12.3-7.1,25.5-12.6,39.2-16.3c13.7-3.8,27.8-6,42.1-6.5
			c13.7-0.6,27.5,0.5,41,3.3c12.6,2.5,24.6,7,35.8,13.3c10.6,6.1,18.3,13,23.1,20.7c4.8,7.7,6.7,15.6,5.9,23.8
			C398.3,391.6,394.6,399.7,388.1,407.8z M274.9,411.5c10.4-1.6,20.9-5.5,31.6-11.8c10.7-6.2,17.5-12.4,20.3-18.4
			c2.8-6.1,1.3-10.8-4.7-14.2c-6.3-3.6-14.7-4.6-25.2-3c-10.5,1.6-21,5.6-31.7,11.9c-10.7,6.2-17.4,12.4-20.2,18.4s-1,10.8,5.4,14.5
			C256.4,412.2,264.5,413.1,274.9,411.5"/>
		<path class="st6" d="M278.8,494.6c14.2-0.6,28.3-2.7,42.1-6.5c13.7-3.7,26.9-9.2,39.2-16.4c12.2-7.1,21.5-14.7,28.1-22.8
			c6.5-8.1,10.2-16.2,11.1-24.4c0.1-1.2,0.2-2.5,0.2-3.7l0.2-57.1c0,1.2-0.1,2.5-0.2,3.7c-0.9,8.2-4.6,16.3-11.1,24.4
			c-6.5,8.1-15.9,15.7-28.1,22.8c-12.3,7.1-25.5,12.6-39.2,16.3c-13.7,3.8-27.8,6-42.1,6.5L278.8,494.6z"/>
		<path class="st7" d="M279,437.6c-13.7,0.6-27.4-0.6-40.9-3.4c-12.5-2.5-24.5-7.1-35.7-13.4c-10.6-6.1-18.3-13-23.2-20.6
			c-4-5.9-6.1-12.9-6.2-20l-0.2,57.1c0.1,7.1,2.2,14.1,6.2,20c4.9,7.6,12.6,14.5,23.2,20.6c11.1,6.3,23.1,10.8,35.6,13.4
			c13.4,2.8,27.2,3.9,40.9,3.4L279,437.6z"/>
		<path class="st7" d="M388.3,391.7c-6.5,8.1-15.9,15.6-28.1,22.7c-12.3,7.1-25.5,12.6-39.3,16.3c-13.7,3.8-27.9,5.9-42.1,6.5
			c-13.7,0.6-27.5-0.6-40.9-3.4c-12.5-2.5-24.6-7-35.7-13.3c-10.6-6.1-18.3-12.9-23.2-20.5c-4.9-7.6-6.9-15.5-6-23.6
			c0.9-8.1,4.6-16.2,11.1-24.3c6.5-8.1,15.9-15.6,28.1-22.7c12.3-7.1,25.5-12.6,39.3-16.3c13.7-3.8,27.9-5.9,42.1-6.5
			c13.7-0.6,27.5,0.5,41,3.3c12.6,2.5,24.7,6.9,35.8,13.2c10.6,6.1,18.3,13,23.1,20.6c4.8,7.6,6.7,15.5,5.8,23.7
			C398.6,375.5,394.9,383.6,388.3,391.7z M275,395.3c10.4-1.6,20.9-5.5,31.6-11.7s17.5-12.3,20.3-18.4c2.8-6,1.3-10.8-4.7-14.2
			c-6.3-3.6-14.7-4.6-25.2-3s-21.1,5.6-31.8,11.8c-10.7,6.2-17.5,12.4-20.2,18.4s-1,10.8,5.4,14.4C256.5,396,264.6,396.9,275,395.3"
			/>
		<path class="st5" d="M277.9,354.1v41.1c0,0-31.4,5.6-33.7-13.7C242.9,370.5,277.9,354.1,277.9,354.1z"/>
		<polygon class="st13" points="248.4,437.5 248.4,492.2 265.3,494.2 265.3,437.6 		"/>
	</g>
</g>
</svg>
