<?xml version="1.0" encoding="utf-8"?>
<!-- Generator: Adobe Illustrator 23.1.1, SVG Export Plug-In . SVG Version: 6.00 Build 0)  -->
<svg version="1.1" id="Layer_1" xmlns="http://www.w3.org/2000/svg" xmlns:xlink="http://www.w3.org/1999/xlink" x="0px" y="0px"
	 viewBox="0 0 564.8 461" style="enable-background:new 0 0 564.8 461;" xml:space="preserve">
<style type="text/css">
	.st0{clip-path:url(#SVGID_2_);}
	.st1{fill:#FF5482;}
	.st2{fill:none;}
	.st3{fill:none;stroke:#000000;stroke-width:1.05;stroke-linecap:round;stroke-miterlimit:10;}
	.st4{fill:none;stroke:#000000;stroke-width:1.05;stroke-linecap:round;stroke-miterlimit:10;stroke-dasharray:1.000000e-02,5.32;}
	.st5{fill:none;stroke:#000000;stroke-width:3.15;stroke-miterlimit:10;}
	.st6{clip-path:url(#SVGID_4_);}
	.st7{clip-path:url(#SVGID_6_);}
	.st8{clip-path:url(#SVGID_8_);}
	.st9{fill:#6F85FB;}
	.st10{clip-path:url(#SVGID_10_);}
	.st11{clip-path:url(#SVGID_12_);}
	.st12{fill:#6F85FB;stroke:#000000;stroke-width:3.15;stroke-miterlimit:10;}
	.st13{clip-path:url(#SVGID_14_);}
	.st14{clip-path:url(#SVGID_16_);}
	.st15{clip-path:url(#SVGID_18_);}
	.st16{clip-path:url(#SVGID_20_);}
	.st17{clip-path:url(#SVGID_22_);}
	.st18{clip-path:url(#SVGID_24_);}
</style>
<title>Asset 8</title>
<g>
	<g id="Layer_1-2">
		<g>
			<g>
				<defs>
					<polygon id="SVGID_1_" points="477.2,180.2 559.8,188 534.9,202.7 476.8,196.2 478.1,205.9 504.5,220.8 480.8,234.9 392,184.6 
						415.8,170.5 452,191.1 444.5,153.5 468.8,139.1 					"/>
				</defs>
				<clipPath id="SVGID_2_">
					<use xlink:href="#SVGID_1_"  style="overflow:visible;"/>
				</clipPath>
				<g class="st0">
					<polygon class="st1" points="477.2,180.2 559.8,188 534.9,202.7 476.8,196.2 478.1,205.9 504.5,220.8 480.8,234.9 392,184.6 
						415.8,170.5 452,191.1 444.5,153.5 468.8,139.1 					"/>
					<line class="st2" x1="392" y1="187.2" x2="488.3" y2="130.2"/>
					<line class="st3" x1="392" y1="187.2" x2="392" y2="187.2"/>
					<line class="st4" x1="396.6" y1="184.5" x2="486" y2="131.5"/>
					<line class="st3" x1="488.3" y1="130.2" x2="488.3" y2="130.2"/>
					<line class="st2" x1="397.2" y1="189.2" x2="493.5" y2="132.2"/>
					<line class="st3" x1="397.2" y1="189.2" x2="397.2" y2="189.2"/>
					<line class="st4" x1="401.8" y1="186.4" x2="491.2" y2="133.5"/>
					<line class="st3" x1="493.5" y1="132.2" x2="493.5" y2="132.2"/>
					<line class="st2" x1="398.1" y1="193.3" x2="494.4" y2="136.3"/>
					<line class="st3" x1="398.1" y1="193.3" x2="398.1" y2="193.3"/>
					<line class="st4" x1="402.7" y1="190.6" x2="492.1" y2="137.6"/>
					<line class="st3" x1="494.4" y1="136.3" x2="494.4" y2="136.3"/>
					<line class="st2" x1="403.3" y1="195.2" x2="499.6" y2="138.3"/>
					<line class="st3" x1="403.3" y1="195.2" x2="403.3" y2="195.2"/>
					<line class="st4" x1="407.9" y1="192.5" x2="497.3" y2="139.6"/>
					<line class="st3" x1="499.6" y1="138.3" x2="499.6" y2="138.3"/>
					<line class="st2" x1="404.2" y1="199.3" x2="500.5" y2="142.4"/>
					<line class="st3" x1="404.2" y1="199.3" x2="404.2" y2="199.3"/>
					<line class="st4" x1="408.8" y1="196.6" x2="498.2" y2="143.7"/>
					<line class="st3" x1="500.5" y1="142.4" x2="500.5" y2="142.4"/>
					<line class="st2" x1="409.4" y1="201.3" x2="505.7" y2="144.3"/>
					<line class="st3" x1="409.4" y1="201.3" x2="409.4" y2="201.3"/>
					<line class="st4" x1="414" y1="198.6" x2="503.4" y2="145.7"/>
					<line class="st3" x1="505.7" y1="144.4" x2="505.7" y2="144.3"/>
					<line class="st2" x1="410.4" y1="205.4" x2="506.6" y2="148.4"/>
					<line class="st3" x1="410.4" y1="205.4" x2="410.4" y2="205.4"/>
					<line class="st4" x1="414.9" y1="202.7" x2="504.3" y2="149.8"/>
					<line class="st3" x1="506.6" y1="148.4" x2="506.6" y2="148.4"/>
					<line class="st2" x1="415.5" y1="207.4" x2="511.8" y2="150.4"/>
					<line class="st3" x1="415.5" y1="207.4" x2="415.5" y2="207.4"/>
					<line class="st4" x1="420.1" y1="204.7" x2="509.5" y2="151.8"/>
					<line class="st3" x1="511.8" y1="150.4" x2="511.8" y2="150.4"/>
					<line class="st2" x1="416.5" y1="211.5" x2="512.8" y2="154.5"/>
					<line class="st3" x1="416.5" y1="211.5" x2="416.5" y2="211.5"/>
					<line class="st4" x1="421" y1="208.8" x2="510.5" y2="155.9"/>
					<line class="st3" x1="512.7" y1="154.5" x2="512.8" y2="154.5"/>
					<line class="st2" x1="416.5" y1="215.9" x2="512.8" y2="158.9"/>
					<line class="st3" x1="416.5" y1="215.9" x2="416.5" y2="215.9"/>
					<line class="st4" x1="421.1" y1="213.1" x2="510.5" y2="160.2"/>
					<line class="st3" x1="512.8" y1="158.9" x2="512.8" y2="158.9"/>
					<line class="st2" x1="421.7" y1="217.9" x2="518" y2="160.9"/>
					<line class="st3" x1="421.7" y1="217.9" x2="421.7" y2="217.9"/>
					<line class="st4" x1="426.2" y1="215.1" x2="515.7" y2="162.2"/>
					<line class="st3" x1="517.9" y1="160.9" x2="518" y2="160.9"/>
					<line class="st2" x1="422.6" y1="221.9" x2="518.9" y2="165"/>
					<line class="st3" x1="422.6" y1="221.9" x2="422.6" y2="221.9"/>
					<line class="st4" x1="427.2" y1="219.2" x2="516.6" y2="166.3"/>
					<line class="st3" x1="518.9" y1="165" x2="518.9" y2="165"/>
					<line class="st2" x1="427.8" y1="223.9" x2="524.1" y2="166.9"/>
					<line class="st3" x1="427.8" y1="223.9" x2="427.8" y2="223.9"/>
					<line class="st4" x1="432.4" y1="221.2" x2="521.8" y2="168.3"/>
					<line class="st3" x1="524" y1="166.9" x2="524.1" y2="166.9"/>
					<line class="st2" x1="428.7" y1="228" x2="525" y2="171"/>
					<line class="st3" x1="428.7" y1="228" x2="428.7" y2="228"/>
					<line class="st4" x1="433.3" y1="225.3" x2="522.7" y2="172.4"/>
					<line class="st3" x1="525" y1="171.1" x2="525" y2="171"/>
					<line class="st2" x1="433.9" y1="230" x2="530.2" y2="173"/>
					<line class="st3" x1="433.9" y1="230" x2="433.9" y2="230"/>
					<line class="st4" x1="438.5" y1="227.3" x2="527.9" y2="174.4"/>
					<line class="st3" x1="530.2" y1="173" x2="530.2" y2="173"/>
					<line class="st2" x1="434.8" y1="234.1" x2="531.1" y2="177.1"/>
					<line class="st3" x1="434.8" y1="234.1" x2="434.8" y2="234.1"/>
					<line class="st4" x1="439.4" y1="231.4" x2="528.8" y2="178.5"/>
					<line class="st3" x1="531.1" y1="177.1" x2="531.1" y2="177.1"/>
					<line class="st2" x1="440" y1="236.1" x2="536.3" y2="179.1"/>
					<line class="st3" x1="440" y1="236.1" x2="440" y2="236.1"/>
					<line class="st4" x1="444.6" y1="233.4" x2="534" y2="180.5"/>
					<line class="st3" x1="536.3" y1="179.1" x2="536.3" y2="179.1"/>
					<line class="st2" x1="441" y1="240.2" x2="537.2" y2="183.2"/>
					<line class="st3" x1="441" y1="240.2" x2="441" y2="240.2"/>
					<line class="st4" x1="445.5" y1="237.5" x2="534.9" y2="184.6"/>
					<line class="st3" x1="537.2" y1="183.2" x2="537.2" y2="183.2"/>
					<line class="st2" x1="450.5" y1="238.9" x2="546.8" y2="182"/>
					<line class="st3" x1="450.5" y1="238.9" x2="450.5" y2="238.9"/>
					<line class="st4" x1="455" y1="236.2" x2="544.5" y2="183.3"/>
					<line class="st3" x1="546.7" y1="182" x2="546.8" y2="182"/>
					<line class="st2" x1="451.4" y1="243.1" x2="547.7" y2="186.1"/>
					<line class="st3" x1="451.4" y1="243.1" x2="451.4" y2="243.1"/>
					<line class="st4" x1="456" y1="240.3" x2="545.4" y2="187.4"/>
					<line class="st3" x1="547.7" y1="186.1" x2="547.7" y2="186.1"/>
					<line class="st2" x1="456.6" y1="245" x2="552.9" y2="188.1"/>
					<line class="st3" x1="456.6" y1="245" x2="456.6" y2="245"/>
					<line class="st4" x1="461.1" y1="242.3" x2="550.6" y2="189.4"/>
					<line class="st3" x1="552.8" y1="188.1" x2="552.9" y2="188.1"/>
					<line class="st2" x1="457.5" y1="249.1" x2="553.8" y2="192.1"/>
					<line class="st3" x1="457.5" y1="249.1" x2="457.5" y2="249.1"/>
					<line class="st4" x1="462.1" y1="246.4" x2="551.5" y2="193.5"/>
					<line class="st3" x1="553.8" y1="192.1" x2="553.8" y2="192.1"/>
				</g>
			</g>
			<line class="st5" x1="444.2" y1="180.7" x2="444.4" y2="146.5"/>
			<line class="st5" x1="533.6" y1="242.1" x2="503.2" y2="238.6"/>
			<polyline class="st5" points="479.8,274.4 390.3,223.5 390.5,178.3 			"/>
		</g>
		<g>
			<g>
				<defs>
					<path id="SVGID_3_" d="M329.5,221.4c7.8-4.6,16.5-7.7,25.5-9c8.6-1.3,17.4-1.1,26,0.6l-4,18c-2.7-0.8-5.5-1.2-8.2-1.4
						c-2.4-0.1-4.8,0-7.2,0.4c-2.1,0.3-4.2,0.9-6.1,1.6c-1.6,0.6-3.2,1.4-4.8,2.2c-3,1.8-4.9,3.7-5.7,5.8c-0.8,2-0.8,4.2,0,6.2
						c1,2.3,2.5,4.4,4.4,6.1c2.2,2,4.7,3.8,7.3,5.3c3.2,1.8,6.5,3.2,10,4.3c3.5,1.1,7.2,1.9,10.9,2.2c3.6,0.3,7.1,0.2,10.7-0.3
						c3.3-0.5,6.4-1.6,9.3-3.3c1.3-0.8,2.6-1.7,3.7-2.8c1-1,1.8-2.2,2.3-3.6c0.5-1.3,0.6-2.7,0.3-4.1c-0.3-1.4,0.6-2.3-0.8-3.8
						l29.6-5.4c2,2.3,3.1,5.2,3.3,8.3c0.1,3-0.6,6-2,8.7c-1.6,3.1-3.6,5.9-6.1,8.3c-2.7,2.7-5.8,5.1-9.1,7
						c-6.3,3.7-13.3,6.3-20.5,7.6c-7.7,1.5-15.6,2.1-23.4,1.8c-7.8-0.3-15.6-1.4-23.2-3.3c-6.9-1.7-13.6-4.2-19.8-7.7
						c-5-2.7-9.5-6.4-13.2-10.7c-3.2-3.6-5.2-8.1-5.9-12.9c-0.5-4.7,0.5-9.5,3-13.5C318.4,229.5,323,225.3,329.5,221.4z"/>
				</defs>
				<clipPath id="SVGID_4_">
					<use xlink:href="#SVGID_3_"  style="overflow:visible;"/>
				</clipPath>
				<g class="st6">
					<path class="st1" d="M329.5,221.4c7.8-4.6,16.5-7.7,25.5-9c8.6-1.3,17.4-1.1,26,0.6l-4,18c-2.7-0.8-5.5-1.2-8.2-1.4
						c-2.4-0.1-4.8,0-7.2,0.4c-2.1,0.3-4.2,0.9-6.1,1.6c-1.6,0.6-3.2,1.4-4.8,2.2c-3,1.8-4.9,3.7-5.7,5.8c-0.8,2-0.8,4.2,0,6.2
						c1,2.3,2.5,4.4,4.4,6.1c2.2,2,4.7,3.8,7.3,5.3c3.2,1.8,6.5,3.2,10,4.3c3.5,1.1,7.2,1.9,10.9,2.2c3.6,0.3,7.1,0.2,10.7-0.3
						c3.3-0.5,6.4-1.6,9.3-3.3c1.3-0.8,2.6-1.7,3.7-2.8c1-1,1.8-2.2,2.3-3.6c0.5-1.3,0.6-2.7,0.3-4.1c-0.3-1.4,0.6-2.3-0.8-3.8
						l29.6-5.4c2,2.3,3.1,5.2,3.3,8.3c0.1,3-0.6,6-2,8.7c-1.6,3.1-3.6,5.9-6.1,8.3c-2.7,2.7-5.8,5.1-9.1,7
						c-6.3,3.7-13.3,6.3-20.5,7.6c-7.7,1.5-15.6,2.1-23.4,1.8c-7.8-0.3-15.6-1.4-23.2-3.3c-6.9-1.7-13.6-4.2-19.8-7.7
						c-5-2.7-9.5-6.4-13.2-10.7c-3.2-3.6-5.2-8.1-5.9-12.9c-0.5-4.7,0.5-9.5,3-13.5C318.4,229.5,323,225.3,329.5,221.4z"/>
					<line class="st2" x1="289.5" y1="246.3" x2="385.8" y2="189.3"/>
					<line class="st3" x1="289.5" y1="246.3" x2="289.5" y2="246.3"/>
					<line class="st4" x1="294.1" y1="243.6" x2="383.5" y2="190.6"/>
					<line class="st3" x1="385.8" y1="189.3" x2="385.8" y2="189.3"/>
					<line class="st2" x1="294.6" y1="248.3" x2="390.9" y2="191.3"/>
					<line class="st3" x1="294.6" y1="248.3" x2="294.6" y2="248.3"/>
					<line class="st4" x1="299.2" y1="245.6" x2="388.6" y2="192.6"/>
					<line class="st3" x1="390.9" y1="191.3" x2="390.9" y2="191.3"/>
					<line class="st2" x1="295.6" y1="252.4" x2="391.9" y2="195.4"/>
					<line class="st3" x1="295.6" y1="252.4" x2="295.6" y2="252.4"/>
					<line class="st4" x1="300.2" y1="249.7" x2="389.6" y2="196.7"/>
					<line class="st3" x1="391.9" y1="195.4" x2="391.9" y2="195.4"/>
					<line class="st2" x1="300.7" y1="254.4" x2="397" y2="197.4"/>
					<line class="st3" x1="300.7" y1="254.4" x2="300.8" y2="254.4"/>
					<line class="st4" x1="305.3" y1="251.6" x2="394.7" y2="198.7"/>
					<line class="st3" x1="397" y1="197.4" x2="397" y2="197.4"/>
					<line class="st2" x1="301.7" y1="258.5" x2="398" y2="201.5"/>
					<line class="st3" x1="301.7" y1="258.5" x2="301.7" y2="258.5"/>
					<line class="st4" x1="306.3" y1="255.7" x2="395.7" y2="202.8"/>
					<line class="st3" x1="398" y1="201.5" x2="398" y2="201.5"/>
					<line class="st2" x1="306.9" y1="260.4" x2="403.1" y2="203.4"/>
					<line class="st3" x1="306.9" y1="260.4" x2="306.9" y2="260.4"/>
					<line class="st4" x1="311.4" y1="257.7" x2="400.9" y2="204.8"/>
					<line class="st3" x1="403.1" y1="203.5" x2="403.1" y2="203.4"/>
					<line class="st2" x1="307.8" y1="264.5" x2="404.1" y2="207.6"/>
					<line class="st3" x1="307.8" y1="264.5" x2="307.8" y2="264.5"/>
					<line class="st4" x1="312.4" y1="261.8" x2="401.8" y2="208.9"/>
					<line class="st3" x1="404.1" y1="207.6" x2="404.1" y2="207.6"/>
					<line class="st2" x1="313" y1="266.5" x2="409.2" y2="209.5"/>
					<line class="st3" x1="313" y1="266.5" x2="313" y2="266.5"/>
					<line class="st4" x1="317.5" y1="263.8" x2="407" y2="210.9"/>
					<line class="st3" x1="409.2" y1="209.5" x2="409.2" y2="209.5"/>
					<line class="st2" x1="313.9" y1="270.6" x2="410.2" y2="213.6"/>
					<line class="st3" x1="313.9" y1="270.6" x2="313.9" y2="270.6"/>
					<line class="st4" x1="318.5" y1="267.9" x2="407.9" y2="215"/>
					<line class="st3" x1="410.2" y1="213.6" x2="410.2" y2="213.6"/>
					<line class="st2" x1="314" y1="275" x2="410.2" y2="218"/>
					<line class="st3" x1="314" y1="275" x2="314" y2="275"/>
					<line class="st4" x1="318.5" y1="272.3" x2="408" y2="219.3"/>
					<line class="st3" x1="410.2" y1="218" x2="410.2" y2="218"/>
					<line class="st2" x1="319.1" y1="277" x2="415.4" y2="220"/>
					<line class="st3" x1="319.1" y1="277" x2="319.1" y2="277"/>
					<line class="st4" x1="323.7" y1="274.2" x2="413.1" y2="221.3"/>
					<line class="st3" x1="415.4" y1="220" x2="415.4" y2="220"/>
					<line class="st2" x1="320.1" y1="281.1" x2="416.4" y2="224.1"/>
					<line class="st3" x1="320.1" y1="281.1" x2="320.1" y2="281"/>
					<line class="st4" x1="324.7" y1="278.3" x2="414.1" y2="225.4"/>
					<line class="st3" x1="416.4" y1="224.1" x2="416.4" y2="224.1"/>
					<line class="st2" x1="325.2" y1="283" x2="421.5" y2="226.1"/>
					<line class="st3" x1="325.2" y1="283" x2="325.2" y2="283"/>
					<line class="st4" x1="329.8" y1="280.3" x2="419.2" y2="227.4"/>
					<line class="st3" x1="421.5" y1="226.1" x2="421.5" y2="226.1"/>
					<line class="st2" x1="326.2" y1="287.1" x2="422.5" y2="230.1"/>
					<line class="st3" x1="326.2" y1="287.1" x2="326.2" y2="287.1"/>
					<line class="st4" x1="330.8" y1="284.4" x2="420.2" y2="231.5"/>
					<line class="st3" x1="422.5" y1="230.1" x2="422.5" y2="230.1"/>
					<line class="st2" x1="331.3" y1="289.1" x2="427.6" y2="232.1"/>
					<line class="st3" x1="331.3" y1="289.1" x2="331.3" y2="289.1"/>
					<line class="st4" x1="335.9" y1="286.4" x2="425.3" y2="233.5"/>
					<line class="st3" x1="427.6" y1="232.1" x2="427.6" y2="232.1"/>
					<line class="st2" x1="332.3" y1="293.2" x2="428.6" y2="236.2"/>
					<line class="st3" x1="332.3" y1="293.2" x2="332.3" y2="293.2"/>
					<line class="st4" x1="336.9" y1="290.5" x2="426.3" y2="237.6"/>
					<line class="st3" x1="428.6" y1="236.2" x2="428.6" y2="236.2"/>
					<line class="st2" x1="337.5" y1="295.2" x2="433.7" y2="238.2"/>
					<line class="st3" x1="337.5" y1="295.2" x2="337.5" y2="295.2"/>
					<line class="st4" x1="342" y1="292.5" x2="431.4" y2="239.6"/>
					<line class="st3" x1="433.7" y1="238.2" x2="433.7" y2="238.2"/>
					<line class="st2" x1="338.4" y1="299.3" x2="434.7" y2="242.3"/>
					<line class="st3" x1="338.4" y1="299.3" x2="338.4" y2="299.3"/>
					<line class="st4" x1="343" y1="296.6" x2="432.4" y2="243.7"/>
					<line class="st3" x1="434.7" y1="242.3" x2="434.7" y2="242.3"/>
					<line class="st2" x1="347.9" y1="298.1" x2="444.2" y2="241.1"/>
					<line class="st3" x1="347.9" y1="298.1" x2="347.9" y2="298.1"/>
					<line class="st4" x1="352.5" y1="295.4" x2="441.9" y2="242.4"/>
					<line class="st3" x1="444.2" y1="241.1" x2="444.2" y2="241.1"/>
					<line class="st2" x1="348.9" y1="302.2" x2="445.2" y2="245.2"/>
					<line class="st3" x1="348.9" y1="302.2" x2="348.9" y2="302.1"/>
					<line class="st4" x1="353.5" y1="299.5" x2="442.9" y2="246.5"/>
					<line class="st3" x1="445.2" y1="245.2" x2="445.2" y2="245.2"/>
					<line class="st2" x1="354" y1="304.1" x2="450.3" y2="247.2"/>
					<line class="st3" x1="354" y1="304.1" x2="354" y2="304.1"/>
					<line class="st4" x1="358.6" y1="301.4" x2="448" y2="248.5"/>
					<line class="st3" x1="450.3" y1="247.2" x2="450.3" y2="247.2"/>
					<line class="st2" x1="355" y1="308.2" x2="451.3" y2="251.2"/>
					<line class="st3" x1="355" y1="308.2" x2="355" y2="308.2"/>
					<line class="st4" x1="359.6" y1="305.5" x2="449" y2="252.6"/>
					<line class="st3" x1="451.3" y1="251.3" x2="451.3" y2="251.2"/>
				</g>
			</g>
			<polyline class="st5" points="382.5,205.2 382.4,250.9 381,258.1 			"/>
			<line class="st5" x1="377" y1="224.7" x2="381.9" y2="206.5"/>
			<g>
				<g>
					<defs>
						<path id="SVGID_5_" d="M344.4,236.4c0-1,0.2-2,0.6-3c0.8-2,2.7-4,5.7-5.8c1.5-0.9,3.1-1.6,4.8-2.2c2-0.8,4-1.3,6.1-1.6
							c5.2-0.8,10.4-0.4,15.4,1l-0.1,32.7"/>
					</defs>
					<clipPath id="SVGID_6_">
						<use xlink:href="#SVGID_5_"  style="overflow:visible;"/>
					</clipPath>
					<g class="st7">
						<g>
							<path class="st2" d="M376.9,257.4l0.1-32.7c-0.9-0.2-1.8-0.4-2.6-0.6s-1.6-0.3-2.4-0.4s-1.3-0.2-2-0.2
								c-0.4,0-0.9-0.1-1.3-0.1h-0.6c-0.9,0-1.7,0-2.5,0s-1.6,0.1-2.4,0.2c-0.6,0.1-1.2,0.1-1.7,0.2l-0.7,0.1
								c-1.3,0.2-2.7,0.6-3.9,1c-0.5,0.2-1,0.3-1.5,0.5c-1.6,0.6-3.2,1.4-4.8,2.2l-0.2,0.1c-1.1,0.6-2.1,1.4-3,2.2
								c-0.4,0.4-0.9,0.9-1.2,1.3c-0.3,0.3-0.5,0.7-0.7,1.1c-0.2,0.3-0.3,0.7-0.5,1l0,0c-0.2,0.4-0.3,0.9-0.4,1.4"/>
						</g>
					</g>
				</g>
				<path class="st5" d="M344.4,236.4c0-1,0.2-2,0.6-3c0.8-2,2.7-4,5.7-5.8c1.5-0.9,3.1-1.6,4.8-2.2c2-0.8,4-1.3,6.1-1.6
					c5.2-0.8,10.4-0.4,15.4,1l-0.1,32.7"/>
			</g>
			<g>
				<g>
					<defs>
						<path id="SVGID_7_" d="M436,243.2l-0.1,44.4c0,2.8-0.7,5.5-2,8c-1.6,3.1-3.6,5.9-6.1,8.2c-2.7,2.7-5.8,5.1-9.1,7
							c-6.3,3.7-13.3,6.3-20.5,7.6c-7.7,1.5-15.6,2.1-23.4,1.8c-7.8-0.3-15.6-1.4-23.2-3.3c-6.9-1.7-13.6-4.2-19.8-7.7
							c-5-2.7-9.5-6.4-13.2-10.7c-3.2-3.6-5.2-8.1-5.9-12.9c-0.1-0.8-0.1-1.6-0.1-2.4l0.1-44.4c0,0.8,0,1.6,0.1,2.4
							c0.7,4.8,2.7,9.2,5.9,12.9c3.7,4.3,8.2,8,13.2,10.7c6.2,3.4,12.9,6,19.8,7.7c7.6,1.9,15.4,3,23.2,3.3
							c7.8,0.3,15.7-0.3,23.4-1.8c7.2-1.3,14.2-3.9,20.5-7.6c3.3-1.9,6.4-4.3,9.1-7c2.5-2.4,4.5-5.2,6.1-8.2
							C435.3,248.7,436,246,436,243.2z"/>
					</defs>
					<clipPath id="SVGID_8_">
						<use xlink:href="#SVGID_7_"  style="overflow:visible;"/>
					</clipPath>
					<g class="st8">
						<path class="st9" d="M436,243.7l0-0.5l0,0C436,243.3,436,243.5,436,243.7l0,0.1c0,0.9-0.1,1.8-0.3,2.7l-0.1,44.4
							c0.2-0.9,0.3-1.9,0.3-2.9L436,243.7C436,243.6,436,243.6,436,243.7z"/>
						<polygon class="st9" points="436,243.6 436,243.6 436,243.6 						"/>
						<path class="st9" d="M434.8,249.3c-0.2,0.6-0.5,1.3-0.8,1.9c-0.2,0.4-0.4,0.8-0.7,1.2c-0.7,1.3-1.6,2.5-2.5,3.7h0
							c-0.9,1.2-1.9,2.3-3,3.3c-0.4,0.4-0.7,0.7-1.1,1.1l0,0.1c-2.2,2-4.6,3.8-7.1,5.4l0,0l-0.4,0.2c-3.9,2.3-8,4.1-12.3,5.5l0,0.1
							c-2.7,0.9-5.4,1.6-8.2,2.1l-1.2,0.2h0c-2.6,0.5-5.2,0.8-7.9,1.1l-0.1,44.4c2.5-0.3,5.1-0.6,7.6-1.1v0l0.3,0c0,0,0,0,0,0v0
							l1.2-0.2c2.8-0.5,5.5-1.2,8.2-2.1l0-0.1c4.3-1.4,8.4-3.2,12.3-5.5l0,0l0,0c2.7-1.6,5.2-3.5,7.5-5.7l0-0.1
							c0.4-0.3,0.7-0.7,1.1-1c1.1-1,2.1-2.1,3-3.3c0.9-1.2,1.8-2.4,2.5-3.7c0.2-0.4,0.5-0.8,0.7-1.2c0.3-0.6,0.6-1.3,0.8-1.9
							c0.4-0.9,0.6-1.9,0.8-2.8l0.1-44.4C435.4,247.4,435.2,248.4,434.8,249.3z"/>
						<path class="st9" d="M376.4,275.8l-0.1,44.4c2.1,0.1,4.1,0.1,6.1,0l0.1-44.4v0C380.4,275.9,378.4,275.9,376.4,275.8z"/>
					</g>
				</g>
				<path class="st5" d="M436,243.2l-0.1,44.4c0,2.8-0.7,5.5-2,8c-1.6,3.1-3.6,5.9-6.1,8.2c-2.7,2.7-5.8,5.1-9.1,7
					c-6.3,3.7-13.3,6.3-20.5,7.6c-7.7,1.5-15.6,2.1-23.4,1.8c-7.8-0.3-15.6-1.4-23.2-3.3c-6.9-1.7-13.6-4.2-19.8-7.7
					c-5-2.7-9.5-6.4-13.2-10.7c-3.2-3.6-5.2-8.1-5.9-12.9c-0.1-0.8-0.1-1.6-0.1-2.4l0.1-44.4c0,0.8,0,1.6,0.1,2.4
					c0.7,4.8,2.7,9.2,5.9,12.9c3.7,4.3,8.2,8,13.2,10.7c6.2,3.4,12.9,6,19.8,7.7c7.6,1.9,15.4,3,23.2,3.3c7.8,0.3,15.7-0.3,23.4-1.8
					c7.2-1.3,14.2-3.9,20.5-7.6c3.3-1.9,6.4-4.3,9.1-7c2.5-2.4,4.5-5.2,6.1-8.2C435.3,248.7,436,246,436,243.2z"/>
			</g>
		</g>
		<g>
			<g>
				<defs>
					<polygon id="SVGID_9_" points="413.9,46.7 376.8,25.2 402.8,10.2 439.8,31.8 					"/>
				</defs>
				<clipPath id="SVGID_10_">
					<use xlink:href="#SVGID_9_"  style="overflow:visible;"/>
				</clipPath>
				<g class="st10">
					<polygon class="st1" points="413.9,46.7 376.8,25.2 402.8,10.2 439.8,31.8 					"/>
					<line class="st3" x1="325.1" y1="58.3" x2="325.1" y2="58.3"/>
					<line class="st4" x1="329.6" y1="55.6" x2="419.2" y2="2.9"/>
					<line class="st3" x1="421.5" y1="1.5" x2="421.5" y2="1.5"/>
					<line class="st3" x1="330.2" y1="60.3" x2="330.2" y2="60.3"/>
					<line class="st4" x1="334.8" y1="57.6" x2="424.3" y2="4.9"/>
					<line class="st3" x1="426.6" y1="3.5" x2="426.6" y2="3.5"/>
					<line class="st3" x1="331.2" y1="64.4" x2="331.2" y2="64.4"/>
					<line class="st4" x1="335.8" y1="61.7" x2="425.3" y2="9"/>
					<line class="st3" x1="427.6" y1="7.6" x2="427.6" y2="7.6"/>
					<line class="st3" x1="336.3" y1="66.4" x2="336.3" y2="66.4"/>
					<line class="st4" x1="340.9" y1="63.7" x2="430.4" y2="11"/>
					<line class="st3" x1="432.7" y1="9.6" x2="432.7" y2="9.6"/>
					<line class="st3" x1="337.3" y1="70.5" x2="337.3" y2="70.5"/>
					<line class="st4" x1="341.8" y1="67.8" x2="431.4" y2="15.1"/>
					<line class="st3" x1="433.7" y1="13.7" x2="433.7" y2="13.7"/>
					<line class="st3" x1="342.4" y1="72.5" x2="342.4" y2="72.5"/>
					<line class="st4" x1="347" y1="69.8" x2="436.5" y2="17.1"/>
					<line class="st3" x1="438.8" y1="15.7" x2="438.8" y2="15.7"/>
					<line class="st3" x1="343.4" y1="76.6" x2="343.4" y2="76.6"/>
					<line class="st4" x1="347.9" y1="73.9" x2="437.5" y2="21.2"/>
					<line class="st3" x1="439.8" y1="19.8" x2="439.8" y2="19.8"/>
					<line class="st3" x1="348.5" y1="78.6" x2="348.5" y2="78.6"/>
					<line class="st4" x1="353.1" y1="75.9" x2="442.6" y2="23.2"/>
					<line class="st3" x1="444.9" y1="21.8" x2="444.9" y2="21.8"/>
					<line class="st3" x1="349.5" y1="82.7" x2="349.5" y2="82.7"/>
					<line class="st4" x1="354" y1="80" x2="443.6" y2="27.3"/>
					<line class="st3" x1="445.9" y1="25.9" x2="445.9" y2="25.9"/>
				</g>
			</g>
			<g>
				<defs>
					<polygon id="SVGID_11_" points="354.6,80.9 317.6,59.4 343.5,44.5 380.5,66 					"/>
				</defs>
				<clipPath id="SVGID_12_">
					<use xlink:href="#SVGID_11_"  style="overflow:visible;"/>
				</clipPath>
				<g class="st11">
					<polygon class="st1" points="354.6,80.9 317.6,59.4 343.5,44.5 380.5,66 					"/>
					<line class="st3" x1="271.4" y1="89.5" x2="271.4" y2="89.5"/>
					<line class="st4" x1="276" y1="86.8" x2="365.6" y2="34.1"/>
					<line class="st3" x1="367.9" y1="32.8" x2="367.9" y2="32.8"/>
					<line class="st3" x1="276.5" y1="91.5" x2="276.5" y2="91.5"/>
					<line class="st4" x1="281.1" y1="88.8" x2="370.7" y2="36.1"/>
					<line class="st3" x1="373" y1="34.8" x2="373" y2="34.8"/>
					<line class="st3" x1="277.5" y1="95.6" x2="277.5" y2="95.6"/>
					<line class="st4" x1="282.1" y1="92.9" x2="371.7" y2="40.2"/>
					<line class="st3" x1="374" y1="38.9" x2="374" y2="38.9"/>
					<line class="st3" x1="282.6" y1="97.6" x2="282.6" y2="97.6"/>
					<line class="st4" x1="287.2" y1="94.9" x2="376.8" y2="42.2"/>
					<line class="st3" x1="379.1" y1="40.9" x2="379.1" y2="40.9"/>
					<line class="st3" x1="283.6" y1="101.7" x2="283.6" y2="101.7"/>
					<line class="st4" x1="288.2" y1="99" x2="377.8" y2="46.3"/>
					<line class="st3" x1="380" y1="45" x2="380" y2="45"/>
					<line class="st3" x1="288.7" y1="103.7" x2="288.7" y2="103.7"/>
					<line class="st4" x1="293.3" y1="101" x2="382.9" y2="48.3"/>
					<line class="st3" x1="385.2" y1="47" x2="385.2" y2="47"/>
					<line class="st3" x1="289.7" y1="107.8" x2="289.7" y2="107.8"/>
					<line class="st4" x1="294.2" y1="105.1" x2="383.8" y2="52.5"/>
					<line class="st3" x1="386.1" y1="51.1" x2="386.1" y2="51.1"/>
					<line class="st3" x1="294.8" y1="109.8" x2="294.8" y2="109.8"/>
					<line class="st4" x1="299.4" y1="107.1" x2="389" y2="54.5"/>
					<line class="st3" x1="391.3" y1="53.1" x2="391.3" y2="53.1"/>
					<line class="st3" x1="295.8" y1="113.9" x2="295.8" y2="113.9"/>
					<line class="st4" x1="300.3" y1="111.2" x2="389.9" y2="58.5"/>
					<line class="st3" x1="392.2" y1="57.2" x2="392.2" y2="57.2"/>
				</g>
			</g>
			<path class="st5" d="M413.6,103.5c0.1-0.7,0.1-1.3,0.2-2l0.1-0.8c0-0.6,0.1-1.2,0.1-1.8v-0.7c0-0.8,0-1.6,0-2.4l0,0l0,0
				l-0.2-55.7l-37-21.5l0.2,55.7l0,0c0,0.8,0,1.6,0,2.4c0,0.2,0,0.5,0,0.7c0,0.6-0.1,1.2-0.1,1.8l-0.1,0.8c-0.1,0.7-0.1,1.3-0.2,2
				c0,0.2,0,0.3,0,0.5c-0.1,0.8-0.2,1.7-0.4,2.5v0.1c-0.1,0.8-0.3,1.6-0.5,2.4s-0.4,1.5-0.5,2.2l-0.1,0.6c-0.1,0.2-0.1,0.5-0.2,0.7
				c-0.2,0.6-0.4,1.2-0.5,1.8c-0.1,0.2-0.1,0.4-0.2,0.6c-0.2,0.7-0.5,1.3-0.8,2c-0.3,0.8-0.7,1.6-1,2.4c-0.6,1.2,0,0.1-0.1,0.1
				c-0.3,0.7-0.7,1.3-1.1,2l-0.1,0.3c-0.4,0.7-0.8,1.3-1.2,1.9l-0.3,0.4c-0.4,0.6-0.9,1.3-1.4,1.9s-0.9,1.1-1.4,1.7l-0.5,0.6
				c-0.5,0.5-1,1-1.5,1.4l-0.1,0.1c-0.6,0.5-1.2,1-1.8,1.4l-0.5,0.3c-0.6,0.4-1.3,0.9-1.9,1.2c-0.5,0.3-1,0.5-1.4,0.8l-0.5,0.2
				c-0.3,0.2-0.6,0.3-0.9,0.4l-0.3,0.1c-0.4,0.1-0.7,0.3-1.1,0.4h-0.1c-0.4,0.1,0.4,1,0,1.1l-1.2-0.8l0,0l32.1,20.6
				c0.5,0.3,1,0.5,1.6,0.7l0,0h0.2l0.5,0.1h0.2l0.4,0.1h0.4h0.2c0.1,0,0.2,0,0.4,0h0.2h0.2h0.5h0.2h0.2c0.2-0.1,0.5-0.1,0.8-0.2h0.2
				c0,0,0.1,0,0.1,0l0.4-0.1l0.6-0.2l0.4-0.1l0.3-0.1l0.2-0.1l0.8-0.4l0.4-0.2c0.4-0.2,0.8-0.4,1.2-0.7l0,0c0.7-0.4,1.3-0.8,1.9-1.2
				l0.5-0.3c0.6-0.4,1.2-0.9,1.8-1.4c0,0,0.1-0.1,0.1-0.1c0.4-0.3,0.7-0.6,1-1l0.4-0.4l0.5-0.6c0.1-0.2,0.3-0.3,0.4-0.4
				c0.3-0.4,0.6-0.8,1-1.2v-0.1c0.4-0.4,0.7-0.9,1-1.4l0.4-0.5l0.3-0.4l0.3-0.4c0.3-0.4,0.6-0.9,0.8-1.3l0.1-0.2
				c0.1-0.1,0.1-0.2,0.2-0.3c0.2-0.3,0.3-0.6,0.5-0.9s0.4-0.8,0.6-1.1c0,0,0-0.1,0.1-0.1v-0.1c0.2-0.5,0.4-0.9,0.6-1.4
				c0.1-0.3,0.2-0.6,0.4-0.9s0.2-0.5,0.3-0.8s0.3-0.8,0.4-1.2c0.1-0.2,0.1-0.4,0.2-0.6l0.1-0.2c0.2-0.5,0.3-1.1,0.5-1.6
				c0.1-0.2,0.2-0.5,0.2-0.7c0,0,0,0,0-0.1c0-0.2,0.1-0.4,0.1-0.5c0.2-0.7,0.4-1.5,0.5-2.2c0-0.1,0-0.2,0-0.2
				c0.2-0.7,0.3-1.5,0.4-2.2s0.3-1.7,0.4-2.5c0,0,0-0.1,0-0.1S413.5,103.7,413.6,103.5z"/>
			<path class="st12" d="M439.8,25.2l0.2,55.7c0,7.6-0.8,15.2-2.5,22.6c-3.3,15.1-10.6,29.1-21.1,40.5c-5.5,6-11.9,11-18.9,15.1
				c-7.5,4.4-14,6.6-19.4,6.8c-5.4,0.2-9.8-1.1-13.2-4.1s-6-7.1-7.6-12.6c-1.7-6.2-2.5-12.7-2.5-19.1l-0.2-55.7l25.9-15l0.2,55.7
				c0,3.3,0.3,6.5,1,9.8c0.5,2.5,1.5,4.9,3,7c1.2,1.7,3.1,2.7,5.1,3c2.1,0.3,4.6-0.5,7.6-2.2c3-1.7,5.6-4,7.7-6.7
				c2.1-2.7,3.9-5.8,5.2-9c1.3-3.3,2.3-6.8,2.9-10.3c0.6-3.6,0.9-7.2,0.9-10.8l-0.2-55.7L439.8,25.2z"/>
			<path class="st5" d="M364.8,161.9c-3.5-2.9-6-7.1-7.6-12.6c-1.7-6.2-2.5-12.7-2.5-19.1l-0.2-55.7l-37-21.5l0.1,55.7
				c-0.1,6.5,0.7,12.9,2.5,19.2c1.6,5.5,4.2,9.8,7.6,12.6c0.7,0.6,1.5,1.1,2.3,1.6l37,21.5C366.3,163,365.6,162.5,364.8,161.9z"/>
			<polyline class="st5" points="316.8,51.5 343.7,36 381.3,58 			"/>
			<polyline class="st5" points="376,17.4 402.9,1.8 440.6,23.9 			"/>
		</g>
		<g>
			<g>
				<defs>
					<polygon id="SVGID_13_" points="310.8,107.5 273.8,85.9 302,69.7 339,91.2 					"/>
				</defs>
				<clipPath id="SVGID_14_">
					<use xlink:href="#SVGID_13_"  style="overflow:visible;"/>
				</clipPath>
				<g class="st13">
					<polygon class="st1" points="310.8,107.5 273.8,85.9 302,69.7 339,91.2 					"/>
					<line class="st3" x1="232.1" y1="112.3" x2="232.1" y2="112.3"/>
					<line class="st4" x1="236.7" y1="109.6" x2="326.7" y2="57.7"/>
					<line class="st3" x1="329" y1="56.3" x2="329" y2="56.3"/>
					<line class="st3" x1="237.2" y1="114.3" x2="237.2" y2="114.3"/>
					<line class="st4" x1="241.8" y1="111.7" x2="331.8" y2="59.7"/>
					<line class="st3" x1="334.1" y1="58.4" x2="334.1" y2="58.4"/>
					<line class="st3" x1="238.1" y1="118.4" x2="238.1" y2="118.4"/>
					<line class="st4" x1="242.7" y1="115.8" x2="332.7" y2="63.8"/>
					<line class="st3" x1="335" y1="62.5" x2="335" y2="62.5"/>
					<line class="st3" x1="243.3" y1="120.5" x2="243.3" y2="120.5"/>
					<line class="st4" x1="247.9" y1="117.8" x2="337.9" y2="65.8"/>
					<line class="st3" x1="340.1" y1="64.5" x2="340.1" y2="64.5"/>
					<line class="st3" x1="244.2" y1="124.6" x2="244.2" y2="124.6"/>
					<line class="st4" x1="248.8" y1="121.9" x2="338.8" y2="69.9"/>
					<line class="st3" x1="341.1" y1="68.6" x2="341.1" y2="68.6"/>
					<line class="st3" x1="249.3" y1="126.6" x2="249.3" y2="126.6"/>
					<line class="st4" x1="253.9" y1="123.9" x2="343.9" y2="72"/>
					<line class="st3" x1="346.2" y1="70.7" x2="346.2" y2="70.7"/>
					<line class="st3" x1="250.2" y1="130.7" x2="250.2" y2="130.7"/>
					<line class="st4" x1="254.8" y1="128.1" x2="344.8" y2="76.1"/>
					<line class="st3" x1="347.1" y1="74.8" x2="347.1" y2="74.8"/>
					<line class="st3" x1="255.3" y1="132.8" x2="255.4" y2="132.8"/>
					<line class="st4" x1="260" y1="130.1" x2="349.9" y2="78.2"/>
					<line class="st3" x1="352.2" y1="76.8" x2="352.2" y2="76.8"/>
					<line class="st3" x1="256.3" y1="136.9" x2="256.3" y2="136.9"/>
					<line class="st4" x1="260.9" y1="134.2" x2="350.8" y2="82.2"/>
					<line class="st3" x1="353.1" y1="80.9" x2="353.1" y2="80.9"/>
				</g>
			</g>
			<g>
				<defs>
					<polygon id="SVGID_15_" points="241.8,147.3 204.7,125.8 233,109.5 270.1,131 					"/>
				</defs>
				<clipPath id="SVGID_16_">
					<use xlink:href="#SVGID_15_"  style="overflow:visible;"/>
				</clipPath>
				<g class="st14">
					<polygon class="st1" points="241.8,147.3 204.7,125.8 233,109.5 270.1,131 					"/>
					<line class="st3" x1="176.9" y1="144.1" x2="176.9" y2="144.1"/>
					<line class="st4" x1="181.5" y1="141.4" x2="271.5" y2="89.5"/>
					<line class="st3" x1="273.8" y1="88.2" x2="273.8" y2="88.2"/>
					<line class="st3" x1="182" y1="146.1" x2="182" y2="146.1"/>
					<line class="st4" x1="186.6" y1="143.5" x2="276.6" y2="91.5"/>
					<line class="st3" x1="278.9" y1="90.2" x2="278.9" y2="90.2"/>
					<line class="st3" x1="182.9" y1="150.2" x2="182.9" y2="150.2"/>
					<line class="st4" x1="187.5" y1="147.6" x2="277.5" y2="95.6"/>
					<line class="st3" x1="279.8" y1="94.3" x2="279.8" y2="94.3"/>
					<line class="st3" x1="188" y1="152.3" x2="188" y2="152.3"/>
					<line class="st4" x1="192.6" y1="149.6" x2="282.6" y2="97.7"/>
					<line class="st3" x1="284.9" y1="96.3" x2="284.9" y2="96.3"/>
					<line class="st3" x1="188.9" y1="156.4" x2="188.9" y2="156.4"/>
					<line class="st4" x1="193.6" y1="153.7" x2="283.5" y2="101.8"/>
					<line class="st3" x1="285.8" y1="100.4" x2="285.8" y2="100.4"/>
					<line class="st3" x1="194.1" y1="158.4" x2="194.1" y2="158.4"/>
					<line class="st4" x1="198.7" y1="155.8" x2="288.7" y2="103.8"/>
					<line class="st3" x1="291" y1="102.5" x2="291" y2="102.5"/>
					<line class="st3" x1="195" y1="162.5" x2="195" y2="162.5"/>
					<line class="st4" x1="199.6" y1="159.9" x2="289.6" y2="107.9"/>
					<line class="st3" x1="291.9" y1="106.6" x2="291.9" y2="106.6"/>
					<line class="st3" x1="200.1" y1="164.6" x2="200.1" y2="164.6"/>
					<line class="st4" x1="204.7" y1="161.9" x2="294.7" y2="110"/>
					<line class="st3" x1="297" y1="108.6" x2="297" y2="108.6"/>
					<line class="st3" x1="201" y1="168.7" x2="201" y2="168.7"/>
					<line class="st4" x1="205.6" y1="166" x2="295.6" y2="114.1"/>
					<line class="st3" x1="297.9" y1="112.8" x2="297.9" y2="112.8"/>
				</g>
			</g>
			<line class="st5" x1="312.7" y1="209.3" x2="275.6" y2="187.8"/>
			<polyline class="st5" points="298.6,142.4 313.2,150.9 313.4,207.9 			"/>
			<line class="st5" x1="284" y1="209" x2="258.5" y2="194.1"/>
			<polyline class="st5" points="260.9,119.2 273.8,79.3 310.8,100.9 290.5,163.7 			"/>
			<polyline class="st5" points="241.2,250.5 205,229.5 204.7,119.2 241.8,140.8 			"/>
			<polygon class="st12" points="339,84.6 339.3,193 313.4,207.9 313.2,150.9 297.5,200.1 283.7,208.1 267.8,177.1 268,234.2 
				242.1,249.1 241.8,140.8 270.1,124.4 290.5,163.7 310.8,100.9 			"/>
		</g>
		<g>
			<g>
				<defs>
					<polygon id="SVGID_17_" points="170.4,189.3 133.4,167.8 154.3,155.6 191.4,177.1 					"/>
				</defs>
				<clipPath id="SVGID_18_">
					<use xlink:href="#SVGID_17_"  style="overflow:visible;"/>
				</clipPath>
				<g class="st15">
					<polygon class="st1" points="170.4,189.3 133.4,167.8 154.3,155.6 191.4,177.1 					"/>
					<line class="st3" x1="95.1" y1="192.5" x2="95.1" y2="192.5"/>
					<line class="st4" x1="99.7" y1="189.8" x2="189.7" y2="137.9"/>
					<line class="st3" x1="192" y1="136.5" x2="192" y2="136.5"/>
					<line class="st3" x1="100.2" y1="194.5" x2="100.2" y2="194.5"/>
					<line class="st4" x1="104.8" y1="191.9" x2="194.8" y2="139.9"/>
					<line class="st3" x1="197.1" y1="138.6" x2="197.1" y2="138.6"/>
					<line class="st3" x1="101.2" y1="198.6" x2="101.2" y2="198.6"/>
					<line class="st4" x1="105.8" y1="196" x2="195.7" y2="144"/>
					<line class="st3" x1="198" y1="142.7" x2="198" y2="142.7"/>
					<line class="st3" x1="106.3" y1="200.7" x2="106.3" y2="200.7"/>
					<line class="st4" x1="110.9" y1="198" x2="200.9" y2="146.1"/>
					<line class="st3" x1="203.2" y1="144.7" x2="203.2" y2="144.7"/>
					<line class="st3" x1="107.2" y1="204.8" x2="107.2" y2="204.8"/>
					<line class="st4" x1="111.8" y1="202.1" x2="201.8" y2="150.2"/>
					<line class="st3" x1="204.1" y1="148.8" x2="204.1" y2="148.8"/>
					<line class="st3" x1="112.3" y1="206.8" x2="112.3" y2="206.8"/>
					<line class="st4" x1="116.9" y1="204.2" x2="206.9" y2="152.2"/>
					<line class="st3" x1="209.2" y1="150.9" x2="209.2" y2="150.9"/>
					<line class="st3" x1="113.2" y1="210.9" x2="113.2" y2="210.9"/>
					<line class="st4" x1="117.8" y1="208.3" x2="207.8" y2="156.3"/>
					<line class="st3" x1="210.1" y1="155" x2="210.1" y2="155"/>
					<line class="st3" x1="118.4" y1="213" x2="118.4" y2="213"/>
					<line class="st4" x1="123" y1="210.3" x2="212.9" y2="158.4"/>
					<line class="st3" x1="215.3" y1="157" x2="215.3" y2="157"/>
					<line class="st3" x1="119.3" y1="217.1" x2="119.3" y2="217.1"/>
					<line class="st4" x1="123.9" y1="214.4" x2="213.9" y2="162.5"/>
					<line class="st3" x1="216.2" y1="161.1" x2="216.2" y2="161.1"/>
				</g>
			</g>
			<line class="st5" x1="199.2" y1="275.5" x2="176.8" y2="262.4"/>
			<polyline class="st1" points="175.9,231.2 189.4,239.1 172.3,249 170.2,247.8 			"/>
			<polyline class="st5" points="174.9,204.1 180.9,207.6 189.4,239.1 172.6,229.3 			"/>
			<path class="st12" d="M191.4,170.6l35.4,88.1l-27.4,15.8l-5.8-17.9l-25.1,14.5l-5.5,24.4l-27.5,15.9l34.9-128.7L191.4,170.6z
				 M189.4,239.1l-8.4-31.5l-8.7,41.4L189.4,239.1z"/>
			<polyline class="st5" points="133.8,313.1 96.3,291.3 131.8,161.5 			"/>
		</g>
		<g>
			<g>
				<defs>
					<polygon id="SVGID_19_" points="40.5,263.8 3.4,242.3 83.7,196 120.7,217.5 					"/>
				</defs>
				<clipPath id="SVGID_20_">
					<use xlink:href="#SVGID_19_"  style="overflow:visible;"/>
				</clipPath>
				<g class="st16">
					<polygon class="st1" points="40.5,263.8 3.4,242.3 83.7,196 120.7,217.5 					"/>
					<line class="st2" x1="0.5" y1="246.3" x2="97.4" y2="190.3"/>
					<line class="st3" x1="0.5" y1="246.3" x2="0.5" y2="246.3"/>
					<line class="st4" x1="5.1" y1="243.6" x2="95.1" y2="191.7"/>
					<line class="st3" x1="97.4" y1="190.3" x2="97.4" y2="190.3"/>
					<line class="st2" x1="5.7" y1="248.3" x2="102.6" y2="192.4"/>
					<line class="st3" x1="5.7" y1="248.3" x2="5.7" y2="248.3"/>
					<line class="st4" x1="10.3" y1="245.7" x2="100.2" y2="193.7"/>
					<line class="st3" x1="102.6" y1="192.4" x2="102.6" y2="192.4"/>
					<line class="st2" x1="6.6" y1="252.4" x2="103.5" y2="196.5"/>
					<line class="st3" x1="6.6" y1="252.4" x2="6.6" y2="252.4"/>
					<line class="st4" x1="11.2" y1="249.8" x2="101.2" y2="197.8"/>
					<line class="st3" x1="103.5" y1="196.5" x2="103.5" y2="196.5"/>
					<line class="st2" x1="11.7" y1="254.5" x2="108.6" y2="198.5"/>
					<line class="st3" x1="11.7" y1="254.5" x2="11.7" y2="254.5"/>
					<line class="st4" x1="16.3" y1="251.8" x2="106.3" y2="199.9"/>
					<line class="st3" x1="108.6" y1="198.5" x2="108.6" y2="198.5"/>
					<line class="st2" x1="12.6" y1="258.6" x2="109.5" y2="202.6"/>
					<line class="st3" x1="12.6" y1="258.6" x2="12.6" y2="258.6"/>
					<line class="st4" x1="17.2" y1="255.9" x2="107.2" y2="204"/>
					<line class="st3" x1="109.5" y1="202.6" x2="109.5" y2="202.6"/>
					<line class="st2" x1="17.7" y1="260.6" x2="114.6" y2="204.7"/>
					<line class="st3" x1="17.7" y1="260.6" x2="17.8" y2="260.6"/>
					<line class="st4" x1="22.4" y1="258" x2="112.3" y2="206"/>
					<line class="st3" x1="114.6" y1="204.7" x2="114.6" y2="204.7"/>
					<line class="st2" x1="18.7" y1="264.7" x2="115.6" y2="208.8"/>
					<line class="st3" x1="18.7" y1="264.7" x2="18.7" y2="264.7"/>
					<line class="st4" x1="23.3" y1="262.1" x2="113.2" y2="210.1"/>
					<line class="st3" x1="115.6" y1="208.8" x2="115.6" y2="208.8"/>
					<line class="st2" x1="23.8" y1="266.8" x2="120.7" y2="210.8"/>
					<line class="st3" x1="23.8" y1="266.8" x2="23.8" y2="266.8"/>
					<line class="st4" x1="28.4" y1="264.1" x2="118.4" y2="212.2"/>
					<line class="st3" x1="120.7" y1="210.8" x2="120.7" y2="210.8"/>
					<line class="st2" x1="24.7" y1="270.9" x2="121.6" y2="214.9"/>
					<line class="st3" x1="24.7" y1="270.9" x2="24.7" y2="270.9"/>
					<line class="st4" x1="29.3" y1="268.2" x2="119.3" y2="216.3"/>
					<line class="st3" x1="121.6" y1="214.9" x2="121.6" y2="214.9"/>
				</g>
			</g>
			<polyline class="st12" points="120.7,210.9 120.8,236.8 93.7,252.5 93.9,333.9 68,348.8 67.8,267.5 40.5,283.2 40.5,257.2 			"/>
			<polyline class="st5" points="67.2,350.2 31,328.4 30.8,279.4 			"/>
			<polyline class="st5" points="39.7,284.5 1.9,262.9 1.8,235.7 			"/>
			<polygon class="st5" points="40.5,257.2 3.4,235.7 82.1,189.4 119.1,210.9 			"/>
			<polyline class="st5" points="204,117.9 232.3,101.6 269.9,123.6 			"/>
			<polyline class="st5" points="273.8,78.4 303.5,61.3 339.8,83.3 			"/>
			<polyline class="st5" points="170.4,182.7 133.4,161.2 154.7,148.5 191.4,169.8 			"/>
		</g>
		<g>
			<g>
				<defs>
					<path id="SVGID_21_" d="M231.1,280.5l120.9,31.2l-25.1,14.9l-22.6-6.7l-23,13.6l12.3,12.9l-25.2,14.9l-56.5-69.4L231.1,280.5z
						 M268.5,322.2l15.7-9.3l-37.4-12.3L268.5,322.2"/>
				</defs>
				<clipPath id="SVGID_22_">
					<use xlink:href="#SVGID_21_"  style="overflow:visible;"/>
				</clipPath>
				<g class="st17">
					<path class="st1" d="M231.1,280.5l120.9,31.2l-25.1,14.9l-22.6-6.7l-23,13.6l12.3,12.9l-25.2,14.9l-56.5-69.4L231.1,280.5z
						 M268.5,322.2l15.7-9.3l-37.4-12.3L268.5,322.2"/>
					<line class="st2" x1="196.1" y1="302.6" x2="292.4" y2="245.6"/>
					<line class="st3" x1="196.1" y1="302.6" x2="196.1" y2="302.6"/>
					<line class="st4" x1="200.7" y1="299.9" x2="290.1" y2="247"/>
					<line class="st3" x1="292.4" y1="245.6" x2="292.4" y2="245.6"/>
					<line class="st2" x1="201.3" y1="304.6" x2="297.5" y2="247.6"/>
					<line class="st3" x1="201.3" y1="304.6" x2="201.3" y2="304.6"/>
					<line class="st4" x1="205.8" y1="301.9" x2="295.2" y2="248.9"/>
					<line class="st3" x1="297.5" y1="247.6" x2="297.5" y2="247.6"/>
					<line class="st2" x1="202.2" y1="308.7" x2="298.5" y2="251.7"/>
					<line class="st3" x1="202.2" y1="308.7" x2="202.2" y2="308.7"/>
					<line class="st4" x1="206.8" y1="306" x2="296.2" y2="253.1"/>
					<line class="st3" x1="298.5" y1="251.7" x2="298.5" y2="251.7"/>
					<line class="st2" x1="207.4" y1="310.7" x2="303.7" y2="253.7"/>
					<line class="st3" x1="207.4" y1="310.7" x2="207.4" y2="310.7"/>
					<line class="st4" x1="211.9" y1="308" x2="301.4" y2="255"/>
					<line class="st3" x1="303.6" y1="253.7" x2="303.7" y2="253.7"/>
					<line class="st2" x1="208.3" y1="314.8" x2="304.6" y2="257.8"/>
					<line class="st3" x1="208.3" y1="314.8" x2="208.3" y2="314.8"/>
					<line class="st4" x1="212.9" y1="312.1" x2="302.3" y2="259.1"/>
					<line class="st3" x1="304.6" y1="257.8" x2="304.6" y2="257.8"/>
					<line class="st2" x1="213.5" y1="316.8" x2="309.8" y2="259.8"/>
					<line class="st3" x1="213.5" y1="316.8" x2="213.5" y2="316.8"/>
					<line class="st4" x1="218.1" y1="314" x2="307.5" y2="261.1"/>
					<line class="st3" x1="309.8" y1="259.8" x2="309.8" y2="259.8"/>
					<line class="st2" x1="214.4" y1="320.9" x2="310.7" y2="263.9"/>
					<line class="st3" x1="214.4" y1="320.9" x2="214.4" y2="320.9"/>
					<line class="st4" x1="219" y1="318.1" x2="308.4" y2="265.2"/>
					<line class="st3" x1="310.7" y1="263.9" x2="310.7" y2="263.9"/>
					<line class="st2" x1="219.6" y1="322.8" x2="315.9" y2="265.9"/>
					<line class="st3" x1="219.6" y1="322.8" x2="219.6" y2="322.8"/>
					<line class="st4" x1="224.2" y1="320.1" x2="313.6" y2="267.2"/>
					<line class="st3" x1="315.9" y1="265.9" x2="315.9" y2="265.9"/>
					<line class="st2" x1="220.6" y1="326.9" x2="316.8" y2="270"/>
					<line class="st3" x1="220.6" y1="326.9" x2="220.6" y2="326.9"/>
					<line class="st4" x1="225.1" y1="324.2" x2="314.5" y2="271.3"/>
					<line class="st3" x1="316.8" y1="270" x2="316.8" y2="270"/>
					<line class="st2" x1="220.6" y1="331.3" x2="316.9" y2="274.3"/>
					<line class="st3" x1="220.6" y1="331.3" x2="220.6" y2="331.3"/>
					<line class="st4" x1="225.2" y1="328.6" x2="314.6" y2="275.6"/>
					<line class="st3" x1="316.9" y1="274.3" x2="316.9" y2="274.3"/>
					<line class="st2" x1="225.8" y1="333.3" x2="322" y2="276.3"/>
					<line class="st3" x1="225.8" y1="333.3" x2="225.8" y2="333.3"/>
					<line class="st4" x1="230.3" y1="330.6" x2="319.7" y2="277.6"/>
					<line class="st3" x1="322" y1="276.3" x2="322" y2="276.3"/>
					<line class="st2" x1="226.7" y1="337.4" x2="323" y2="280.4"/>
					<line class="st3" x1="226.7" y1="337.4" x2="226.7" y2="337.4"/>
					<line class="st4" x1="231.3" y1="334.7" x2="320.7" y2="281.7"/>
					<line class="st3" x1="323" y1="280.4" x2="323" y2="280.4"/>
					<line class="st2" x1="231.9" y1="339.4" x2="328.1" y2="282.4"/>
					<line class="st3" x1="231.9" y1="339.4" x2="231.9" y2="339.4"/>
					<line class="st4" x1="236.4" y1="336.6" x2="325.9" y2="283.7"/>
					<line class="st3" x1="328.1" y1="282.4" x2="328.1" y2="282.4"/>
					<line class="st2" x1="232.8" y1="343.5" x2="329.1" y2="286.5"/>
					<line class="st3" x1="232.8" y1="343.5" x2="232.8" y2="343.5"/>
					<line class="st4" x1="237.4" y1="340.7" x2="326.8" y2="287.8"/>
					<line class="st3" x1="329.1" y1="286.5" x2="329.1" y2="286.5"/>
					<line class="st2" x1="238" y1="345.4" x2="334.2" y2="288.5"/>
					<line class="st3" x1="238" y1="345.4" x2="238" y2="345.4"/>
					<line class="st4" x1="242.6" y1="342.7" x2="332" y2="289.8"/>
					<line class="st3" x1="334.2" y1="288.5" x2="334.2" y2="288.5"/>
					<line class="st2" x1="238.9" y1="349.5" x2="335.2" y2="292.5"/>
					<line class="st3" x1="238.9" y1="349.5" x2="238.9" y2="349.5"/>
					<line class="st4" x1="243.5" y1="346.8" x2="332.9" y2="293.9"/>
					<line class="st3" x1="335.2" y1="292.5" x2="335.2" y2="292.5"/>
					<line class="st2" x1="244.1" y1="351.5" x2="340.4" y2="294.5"/>
					<line class="st3" x1="244.1" y1="351.5" x2="244.1" y2="351.5"/>
					<line class="st4" x1="248.7" y1="348.8" x2="338.1" y2="295.9"/>
					<line class="st3" x1="340.4" y1="294.5" x2="340.4" y2="294.5"/>
					<line class="st2" x1="245" y1="355.6" x2="341.3" y2="298.6"/>
					<line class="st3" x1="245" y1="355.6" x2="245" y2="355.6"/>
					<line class="st4" x1="249.6" y1="352.9" x2="339" y2="300"/>
					<line class="st3" x1="341.3" y1="298.6" x2="341.3" y2="298.6"/>
					<line class="st2" x1="254.6" y1="354.4" x2="350.8" y2="297.4"/>
					<line class="st3" x1="254.6" y1="354.4" x2="254.6" y2="354.4"/>
					<line class="st4" x1="259.1" y1="351.7" x2="348.5" y2="298.7"/>
					<line class="st3" x1="350.8" y1="297.4" x2="350.8" y2="297.4"/>
					<line class="st2" x1="255.5" y1="358.5" x2="351.8" y2="301.5"/>
					<line class="st3" x1="255.5" y1="358.5" x2="255.5" y2="358.5"/>
					<line class="st4" x1="260.1" y1="355.8" x2="349.5" y2="302.8"/>
					<line class="st3" x1="351.8" y1="301.5" x2="351.8" y2="301.5"/>
					<line class="st2" x1="260.7" y1="360.5" x2="356.9" y2="303.5"/>
					<line class="st3" x1="260.7" y1="360.5" x2="260.7" y2="360.5"/>
					<line class="st4" x1="265.2" y1="357.8" x2="354.6" y2="304.8"/>
					<line class="st3" x1="356.9" y1="303.5" x2="356.9" y2="303.5"/>
					<line class="st2" x1="261.6" y1="364.6" x2="357.9" y2="307.6"/>
					<line class="st3" x1="261.6" y1="364.6" x2="261.6" y2="364.5"/>
					<line class="st4" x1="266.2" y1="361.8" x2="355.6" y2="308.9"/>
					<line class="st3" x1="357.9" y1="307.6" x2="357.9" y2="307.6"/>
				</g>
			</g>
			<polyline class="st5" points="325.7,365.9 304.1,358 304.2,313.5 			"/>
			<line class="st5" x1="304.1" y1="358" x2="281.1" y2="371.6"/>
			<polyline class="st5" points="268.2,400.4 211.7,330.1 211.8,285.6 			"/>
			<line class="st5" x1="211.8" y1="285.6" x2="268.3" y2="355"/>
		</g>
		<g>
			<polygon class="st9" points="245.9,368.4 245.8,412.9 222.1,426.9 222.2,382.5 			"/>
			<polygon class="st9" points="193.2,399.7 193.1,444.1 169.3,458.2 169.5,413.8 			"/>
			<g>
				<defs>
					<polygon id="SVGID_23_" points="157.2,324.5 245.9,374.7 222.2,388.8 187.4,369.1 158.5,386.3 193.2,406 169.5,420 80.7,369.8 
						104.5,355.7 137.2,374.3 166.2,357.1 133.4,338.6 					"/>
				</defs>
				<clipPath id="SVGID_24_">
					<use xlink:href="#SVGID_23_"  style="overflow:visible;"/>
				</clipPath>
				<g class="st18">
					<polygon class="st1" points="157.2,324.5 245.9,374.7 222.2,388.8 187.4,369.1 158.5,386.3 193.2,406 169.5,420 80.7,369.8 
						104.5,355.7 137.2,374.3 166.2,357.1 133.4,338.6 					"/>
					<line class="st2" x1="81.9" y1="371.3" x2="178.2" y2="314.3"/>
					<line class="st3" x1="81.9" y1="371.3" x2="81.9" y2="371.3"/>
					<line class="st4" x1="86.5" y1="368.6" x2="175.9" y2="315.7"/>
					<line class="st3" x1="178.2" y1="314.3" x2="178.2" y2="314.3"/>
					<line class="st2" x1="87.1" y1="373.3" x2="183.4" y2="316.3"/>
					<line class="st3" x1="87.1" y1="373.3" x2="87.1" y2="373.3"/>
					<line class="st4" x1="91.7" y1="370.6" x2="181.1" y2="317.7"/>
					<line class="st3" x1="183.4" y1="316.3" x2="183.4" y2="316.3"/>
					<line class="st2" x1="88.1" y1="377.4" x2="184.3" y2="320.4"/>
					<line class="st3" x1="88.1" y1="377.4" x2="88.1" y2="377.4"/>
					<line class="st4" x1="92.6" y1="374.7" x2="182" y2="321.8"/>
					<line class="st3" x1="184.3" y1="320.4" x2="184.3" y2="320.4"/>
					<line class="st2" x1="93.2" y1="379.4" x2="189.5" y2="322.4"/>
					<line class="st3" x1="93.2" y1="379.4" x2="93.2" y2="379.4"/>
					<line class="st4" x1="97.8" y1="376.7" x2="187.2" y2="323.7"/>
					<line class="st3" x1="189.5" y1="322.4" x2="189.5" y2="322.4"/>
					<line class="st2" x1="94.2" y1="383.5" x2="190.4" y2="326.5"/>
					<line class="st3" x1="94.2" y1="383.5" x2="94.2" y2="383.5"/>
					<line class="st4" x1="98.7" y1="380.8" x2="188.1" y2="327.8"/>
					<line class="st3" x1="190.4" y1="326.5" x2="190.4" y2="326.5"/>
					<line class="st2" x1="99.3" y1="385.5" x2="195.6" y2="328.5"/>
					<line class="st3" x1="99.3" y1="385.5" x2="99.3" y2="385.5"/>
					<line class="st4" x1="103.9" y1="382.8" x2="193.3" y2="329.8"/>
					<line class="st3" x1="195.6" y1="328.5" x2="195.6" y2="328.5"/>
					<line class="st2" x1="100.3" y1="389.6" x2="196.6" y2="332.6"/>
					<line class="st3" x1="100.3" y1="389.6" x2="100.3" y2="389.5"/>
					<line class="st4" x1="104.8" y1="386.9" x2="194.3" y2="333.9"/>
					<line class="st3" x1="196.6" y1="332.6" x2="196.6" y2="332.6"/>
					<line class="st2" x1="105.4" y1="391.5" x2="201.7" y2="334.6"/>
					<line class="st3" x1="105.4" y1="391.5" x2="105.4" y2="391.5"/>
					<line class="st4" x1="110" y1="388.8" x2="199.4" y2="335.9"/>
					<line class="st3" x1="201.7" y1="334.6" x2="201.7" y2="334.6"/>
					<line class="st2" x1="106.4" y1="395.6" x2="202.7" y2="338.6"/>
					<line class="st3" x1="106.4" y1="395.6" x2="106.4" y2="395.6"/>
					<line class="st4" x1="111" y1="392.9" x2="200.4" y2="340"/>
					<line class="st3" x1="202.7" y1="338.7" x2="202.7" y2="338.6"/>
					<line class="st2" x1="106.4" y1="400" x2="202.7" y2="343"/>
					<line class="st3" x1="106.4" y1="400" x2="106.4" y2="400"/>
					<line class="st4" x1="111" y1="397.3" x2="200.4" y2="344.4"/>
					<line class="st3" x1="202.7" y1="343" x2="202.7" y2="343"/>
					<line class="st2" x1="111.6" y1="402" x2="207.9" y2="345"/>
					<line class="st3" x1="111.6" y1="402" x2="111.6" y2="402"/>
					<line class="st4" x1="116.2" y1="399.3" x2="205.6" y2="346.4"/>
					<line class="st3" x1="207.9" y1="345" x2="207.9" y2="345"/>
					<line class="st2" x1="112.5" y1="406.1" x2="208.8" y2="349.1"/>
					<line class="st3" x1="112.5" y1="406.1" x2="112.5" y2="406.1"/>
					<line class="st4" x1="117.1" y1="403.4" x2="206.5" y2="350.4"/>
					<line class="st3" x1="208.8" y1="349.1" x2="208.8" y2="349.1"/>
					<line class="st2" x1="117.7" y1="408.1" x2="214" y2="351.1"/>
					<line class="st3" x1="117.7" y1="408.1" x2="117.7" y2="408.1"/>
					<line class="st4" x1="122.3" y1="405.4" x2="211.7" y2="352.4"/>
					<line class="st3" x1="214" y1="351.1" x2="214" y2="351.1"/>
					<line class="st2" x1="118.6" y1="412.2" x2="214.9" y2="355.2"/>
					<line class="st3" x1="118.6" y1="412.2" x2="118.7" y2="412.2"/>
					<line class="st4" x1="123.2" y1="409.5" x2="212.6" y2="356.5"/>
					<line class="st3" x1="214.9" y1="355.2" x2="214.9" y2="355.2"/>
					<line class="st2" x1="123.8" y1="414.1" x2="220.1" y2="357.2"/>
					<line class="st3" x1="123.8" y1="414.1" x2="123.8" y2="414.1"/>
					<line class="st4" x1="128.4" y1="411.4" x2="217.8" y2="358.5"/>
					<line class="st3" x1="220.1" y1="357.2" x2="220.1" y2="357.2"/>
					<line class="st2" x1="124.8" y1="418.2" x2="221" y2="361.3"/>
					<line class="st3" x1="124.8" y1="418.2" x2="124.8" y2="418.2"/>
					<line class="st4" x1="129.3" y1="415.5" x2="218.7" y2="362.6"/>
					<line class="st3" x1="221" y1="361.3" x2="221" y2="361.3"/>
					<line class="st2" x1="129.9" y1="420.2" x2="226.2" y2="363.2"/>
					<line class="st3" x1="129.9" y1="420.2" x2="129.9" y2="420.2"/>
					<line class="st4" x1="134.5" y1="417.5" x2="223.9" y2="364.6"/>
					<line class="st3" x1="226.2" y1="363.2" x2="226.2" y2="363.2"/>
					<line class="st2" x1="130.9" y1="424.3" x2="227.1" y2="367.3"/>
					<line class="st3" x1="130.9" y1="424.3" x2="130.9" y2="424.3"/>
					<line class="st4" x1="135.4" y1="421.6" x2="224.9" y2="368.7"/>
					<line class="st3" x1="227.1" y1="367.3" x2="227.1" y2="367.3"/>
					<line class="st2" x1="140.4" y1="423.1" x2="236.7" y2="366.1"/>
					<line class="st3" x1="140.4" y1="423.1" x2="140.4" y2="423.1"/>
					<line class="st4" x1="145" y1="420.4" x2="234.4" y2="367.5"/>
					<line class="st3" x1="236.7" y1="366.1" x2="236.7" y2="366.1"/>
					<line class="st2" x1="141.3" y1="427.2" x2="237.6" y2="370.2"/>
					<line class="st3" x1="141.3" y1="427.2" x2="141.3" y2="427.2"/>
					<line class="st4" x1="145.9" y1="424.5" x2="235.3" y2="371.5"/>
					<line class="st3" x1="237.6" y1="370.2" x2="237.6" y2="370.2"/>
					<line class="st2" x1="146.5" y1="429.2" x2="242.8" y2="372.2"/>
					<line class="st3" x1="146.5" y1="429.2" x2="146.5" y2="429.2"/>
					<line class="st4" x1="151.1" y1="426.5" x2="240.5" y2="373.5"/>
					<line class="st3" x1="242.8" y1="372.2" x2="242.8" y2="372.2"/>
					<line class="st2" x1="147.4" y1="433.3" x2="243.7" y2="376.3"/>
					<line class="st3" x1="147.4" y1="433.3" x2="147.4" y2="433.3"/>
					<line class="st4" x1="152" y1="430.5" x2="241.4" y2="377.6"/>
					<line class="st3" x1="243.7" y1="376.3" x2="243.7" y2="376.3"/>
				</g>
			</g>
			<polyline class="st12" points="194.9,399.7 194.8,443.2 169.3,458.2 169.5,413.8 			"/>
			<polyline class="st12" points="247.7,368.4 247.6,411.9 222.1,426.9 222.2,382.5 			"/>
			<polyline class="st12" points="294.2,340.4 294.1,383.9 268.6,399 268.8,354.5 			"/>
			<polyline class="st12" points="354.3,305.1 354.1,347.5 326.7,364.6 326.8,320.2 			"/>
			<polyline class="st12" points="506.2,214.5 506.1,258 480.6,273 480.7,228.6 			"/>
			<polyline class="st12" points="563.1,180.6 563,223.2 535,240.7 535.1,196.3 			"/>
			<line class="st5" x1="131.8" y1="364.7" x2="131.9" y2="332.3"/>
			<line class="st5" x1="221.2" y1="428.3" x2="194.1" y2="413"/>
			<line class="st5" x1="187.4" y1="396.4" x2="187.4" y2="362.8"/>
			<polygon class="st5" points="477.2,173.9 559.8,181.7 534.9,196.4 476.8,189.9 478.1,199.6 504.5,214.5 480.8,228.6 392,178.3 
				415.8,164.2 452,184.8 444.5,147.2 468.8,132.8 			"/>
			<path class="st5" d="M329.5,215.1c7.8-4.6,16.5-7.7,25.5-9c8.9-1.4,18-1.3,26.9,0.4l-4.9,18.3c-5-1.4-10.3-1.8-15.4-1
				c-2.1,0.3-4.2,0.9-6.1,1.6c-1.6,0.6-3.2,1.4-4.8,2.2c-3,1.8-4.9,3.7-5.7,5.8c-0.8,2-0.8,4.2,0,6.2c1,2.3,2.5,4.4,4.4,6.1
				c2.2,2,4.7,3.8,7.3,5.3c3.2,1.8,6.5,3.2,10,4.3c3.5,1.1,7.2,1.9,10.9,2.2c3.6,0.3,7.1,0.2,10.7-0.3c3.3-0.5,6.4-1.6,9.3-3.3
				c1.3-0.8,2.6-1.7,3.7-2.9c1-1,1.8-2.2,2.3-3.6c0.5-1.3,0.6-2.7,0.3-4.1c-0.4-1.7-1.3-3.2-2.5-4.4l31.2-4.8
				c1.9,2.3,3.1,5.2,3.2,8.2c0.1,3-0.6,6-2,8.7c-1.6,3.1-3.6,5.9-6.1,8.2c-2.7,2.7-5.8,5.1-9.1,7c-6.3,3.7-13.2,6.2-20.4,7.6
				c-7.7,1.5-15.6,2.1-23.4,1.8c-7.8-0.3-15.6-1.4-23.2-3.3c-6.9-1.7-13.6-4.2-19.8-7.7c-5-2.7-9.5-6.4-13.2-10.7
				c-3.2-3.6-5.2-8.1-5.9-12.9c-0.5-4.7,0.5-9.5,3-13.5C318.4,223.2,323,219,329.5,215.1z"/>
			<path class="st5" d="M231.1,274.2l120.9,31.2l-25.1,14.9l-22.6-6.7l-23,13.6l12.2,12.8l-25.2,15l-56.5-69.4L231.1,274.2z
				 M284.2,306.6l-37.4-12.3l21.7,21.6L284.2,306.6z"/>
			<polygon class="st5" points="157.2,318.2 245.9,368.4 222.2,382.5 187.4,362.8 158.5,380 193.2,399.7 169.5,413.8 80.7,363.5 
				104.5,349.4 137.2,368 166.2,350.8 133.4,332.3 			"/>
			<polyline class="st5" points="168.5,459.6 79,407.6 79.1,363.5 			"/>
		</g>
		<line class="st5" x1="400" y1="237.9" x2="400" y2="251.9"/>
	</g>
</g>
</svg>
