<svg xmlns="http://www.w3.org/2000/svg" xmlns:xlink="http://www.w3.org/1999/xlink" viewBox="0 0 564.75 460.97"><defs><style>.cls-1,.cls-2,.cls-6,.cls-7{fill:none;}.cls-12,.cls-16,.cls-2,.cls-6,.cls-7,.cls-8{stroke:#000;stroke-miterlimit:10;}.cls-12,.cls-16,.cls-2,.cls-8{stroke-width:3.15px;}.cls-3{isolation:isolate;}.cls-4{clip-path:url(#clip-path);}.cls-5{fill:#ff5482;}.cls-6,.cls-7{stroke-linecap:round;stroke-width:1.05px;}.cls-7{stroke-dasharray:0.01 5.32;}.cls-8{fill:#fff;}.cls-9{clip-path:url(#clip-path-2);}.cls-10{clip-path:url(#clip-path-3);}.cls-11{clip-path:url(#clip-path-4);}.cls-13,.cls-16{fill:#6f85fb;}.cls-14{clip-path:url(#clip-path-5);}.cls-15{clip-path:url(#clip-path-6);}.cls-17{clip-path:url(#clip-path-7);}.cls-18{clip-path:url(#clip-path-8);}.cls-19{clip-path:url(#clip-path-9);}.cls-20{clip-path:url(#clip-path-10);}.cls-21{clip-path:url(#clip-path-11);}.cls-22{clip-path:url(#clip-path-12);}</style><clipPath id="clip-path"><polygon class="cls-1" points="477.18 180.19 559.78 188.01 534.94 202.73 476.81 196.2 478.13 205.85 504.5 220.78 480.76 234.85 392.02 184.61 415.76 170.54 452.01 191.06 444.5 153.51 468.84 139.07 477.18 180.19"/></clipPath><clipPath id="clip-path-2"><path class="cls-1" d="M329.53,221.37a70.37,70.37,0,0,1,25.52-9A72.94,72.94,0,0,1,381,213L377,231a36.73,36.73,0,0,0-8.24-1.35,37.82,37.82,0,0,0-7.2.36,30.3,30.3,0,0,0-6.14,1.61,33,33,0,0,0-4.76,2.24c-3,1.79-4.89,3.7-5.67,5.75a8.56,8.56,0,0,0,0,6.22,16.15,16.15,0,0,0,4.39,6.09,40.13,40.13,0,0,0,7.34,5.28,52.71,52.71,0,0,0,10,4.34,50.69,50.69,0,0,0,10.91,2.22,43,43,0,0,0,10.67-.31,25.87,25.87,0,0,0,9.3-3.27,18.65,18.65,0,0,0,3.69-2.84,9.5,9.5,0,0,0,2.34-3.55,7.59,7.59,0,0,0,.27-4.08c-.28-1.43.57-2.3-.78-3.82l29.57-5.35A13.9,13.9,0,0,1,436,248.8a17.94,17.94,0,0,1-2,8.7,31.2,31.2,0,0,1-6.11,8.26,46,46,0,0,1-9.09,7,64,64,0,0,1-20.5,7.59,100.87,100.87,0,0,1-23.4,1.78,111.92,111.92,0,0,1-23.21-3.34,80.12,80.12,0,0,1-19.79-7.67,46.73,46.73,0,0,1-13.2-10.72,24.89,24.89,0,0,1-5.91-12.87,21.51,21.51,0,0,1,3-13.52Q319.67,227.21,329.53,221.37Z"/></clipPath><clipPath id="clip-path-3"><path class="cls-2" d="M344.42,236.39a8.81,8.81,0,0,1,.58-3c.78-2,2.66-4,5.67-5.75a33,33,0,0,1,4.76-2.24,29.66,29.66,0,0,1,6.14-1.61,36.91,36.91,0,0,1,15.44,1l-.09,32.69"/></clipPath><clipPath id="clip-path-4"><path class="cls-2" d="M436,243.18l-.13,44.44a17.94,17.94,0,0,1-2,8,31.17,31.17,0,0,1-6.1,8.25,46.44,46.44,0,0,1-9.1,7,64,64,0,0,1-20.49,7.59,101.55,101.55,0,0,1-23.41,1.77,111.72,111.72,0,0,1-23.2-3.33,79.81,79.81,0,0,1-19.8-7.68,47,47,0,0,1-13.2-10.71,24.92,24.92,0,0,1-5.91-12.87,18.15,18.15,0,0,1-.14-2.44l.12-44.44a19.85,19.85,0,0,0,.15,2.44,24.89,24.89,0,0,0,5.91,12.87,46.7,46.7,0,0,0,13.2,10.71,79.73,79.73,0,0,0,19.79,7.68,112.6,112.6,0,0,0,23.21,3.34A102,102,0,0,0,398.3,274a64,64,0,0,0,20.5-7.59,46.07,46.07,0,0,0,9.09-7,31,31,0,0,0,6.11-8.25A18.21,18.21,0,0,0,436,243.18Z"/></clipPath><clipPath id="clip-path-5"><polygon class="cls-1" points="413.86 46.72 376.84 25.21 402.75 10.25 439.77 31.76 413.86 46.72"/></clipPath><clipPath id="clip-path-6"><polygon class="cls-1" points="354.61 80.93 317.6 59.42 343.5 44.46 380.51 65.97 354.61 80.93"/></clipPath><clipPath id="clip-path-7"><polygon class="cls-1" points="310.84 107.46 273.82 85.95 301.98 69.69 339 91.2 310.84 107.46"/></clipPath><clipPath id="clip-path-8"><polygon class="cls-1" points="241.75 147.34 204.74 125.83 233.04 109.49 270.06 131 241.75 147.34"/></clipPath><clipPath id="clip-path-9"><polygon class="cls-1" points="170.37 189.26 133.35 167.75 154.34 155.64 191.35 177.15 170.37 189.26"/></clipPath><clipPath id="clip-path-10"><polygon class="cls-1" points="40.45 263.81 3.43 242.3 83.67 195.98 120.69 217.49 40.45 263.81"/></clipPath><clipPath id="clip-path-11"><path class="cls-1" d="M231.06,280.51l120.88,31.18-25.08,14.87-22.61-6.73-23,13.63,12.26,12.87-25.2,14.94-56.48-69.36Zm37.46,41.67,15.71-9.31-37.42-12.3,21.71,21.61"/></clipPath><clipPath id="clip-path-12"><polygon class="cls-1" points="157.19 324.49 245.93 374.72 222.19 388.79 187.45 369.13 158.47 386.3 193.22 405.97 169.47 420.04 80.73 369.81 104.47 355.73 137.22 374.27 166.2 357.1 133.45 338.56 157.19 324.49"/></clipPath></defs><title>Asset 8</title><g id="Layer_2" data-name="Layer 2"><g id="Layer_1-2" data-name="Layer 1"><g class="cls-3"><g class="cls-4"><polygon class="cls-5" points="477.18 180.19 559.78 188.01 534.94 202.73 476.81 196.2 478.13 205.85 504.5 220.78 480.76 234.85 392.02 184.61 415.76 170.54 452.01 191.06 444.5 153.51 468.84 139.07 477.18 180.19"/><line class="cls-5" x1="392.02" y1="187.17" x2="488.31" y2="130.19"/><line class="cls-6" x1="392.02" y1="187.17" x2="392.03" y2="187.17"/><line class="cls-7" x1="396.6" y1="184.46" x2="486.01" y2="131.54"/><line class="cls-6" x1="488.3" y1="130.19" x2="488.31" y2="130.19"/><line class="cls-5" x1="397.17" y1="189.16" x2="493.46" y2="132.17"/><line class="cls-6" x1="397.17" y1="189.16" x2="397.18" y2="189.16"/><line class="cls-7" x1="401.75" y1="186.45" x2="491.17" y2="133.53"/><line class="cls-6" x1="493.46" y1="132.18" x2="493.46" y2="132.17"/><line class="cls-5" x1="398.13" y1="193.26" x2="494.42" y2="136.27"/><line class="cls-6" x1="398.13" y1="193.26" x2="398.13" y2="193.26"/><line class="cls-7" x1="402.71" y1="190.55" x2="492.12" y2="137.63"/><line class="cls-6" x1="494.41" y1="136.27" x2="494.42" y2="136.27"/><line class="cls-5" x1="403.28" y1="195.25" x2="499.57" y2="138.26"/><line class="cls-6" x1="403.28" y1="195.25" x2="403.29" y2="195.24"/><line class="cls-7" x1="407.86" y1="192.54" x2="497.28" y2="139.62"/><line class="cls-6" x1="499.57" y1="138.26" x2="499.57" y2="138.26"/><line class="cls-5" x1="404.24" y1="199.34" x2="500.53" y2="142.36"/><line class="cls-6" x1="404.24" y1="199.34" x2="404.24" y2="199.34"/><line class="cls-7" x1="408.82" y1="196.63" x2="498.23" y2="143.71"/><line class="cls-6" x1="500.52" y1="142.36" x2="500.53" y2="142.36"/><line class="cls-5" x1="409.39" y1="201.33" x2="505.68" y2="144.34"/><line class="cls-6" x1="409.39" y1="201.33" x2="409.4" y2="201.33"/><line class="cls-7" x1="413.97" y1="198.62" x2="503.39" y2="145.7"/><line class="cls-6" x1="505.68" y1="144.35" x2="505.68" y2="144.34"/><line class="cls-5" x1="410.35" y1="205.43" x2="506.64" y2="148.44"/><line class="cls-6" x1="410.35" y1="205.43" x2="410.35" y2="205.43"/><line class="cls-7" x1="414.93" y1="202.72" x2="504.34" y2="149.8"/><line class="cls-6" x1="506.63" y1="148.44" x2="506.64" y2="148.44"/><line class="cls-5" x1="415.5" y1="207.42" x2="511.79" y2="150.43"/><line class="cls-6" x1="415.5" y1="207.42" x2="415.51" y2="207.41"/><line class="cls-7" x1="420.08" y1="204.71" x2="509.5" y2="151.79"/><line class="cls-6" x1="511.78" y1="150.43" x2="511.79" y2="150.43"/><line class="cls-5" x1="416.46" y1="211.51" x2="512.75" y2="154.53"/><line class="cls-6" x1="416.46" y1="211.51" x2="416.46" y2="211.51"/><line class="cls-7" x1="421.04" y1="208.8" x2="510.45" y2="155.88"/><line class="cls-6" x1="512.74" y1="154.53" x2="512.75" y2="154.53"/><line class="cls-5" x1="416.51" y1="215.86" x2="512.79" y2="158.87"/><line class="cls-6" x1="416.51" y1="215.86" x2="416.51" y2="215.86"/><line class="cls-7" x1="421.09" y1="213.15" x2="510.5" y2="160.23"/><line class="cls-6" x1="512.79" y1="158.88" x2="512.79" y2="158.87"/><line class="cls-5" x1="421.66" y1="217.85" x2="517.95" y2="160.86"/><line class="cls-6" x1="421.66" y1="217.85" x2="421.66" y2="217.85"/><line class="cls-7" x1="426.24" y1="215.14" x2="515.65" y2="162.22"/><line class="cls-6" x1="517.94" y1="160.86" x2="517.95" y2="160.86"/><line class="cls-5" x1="422.62" y1="221.95" x2="518.9" y2="164.96"/><line class="cls-6" x1="422.62" y1="221.95" x2="422.62" y2="221.94"/><line class="cls-7" x1="427.2" y1="219.24" x2="516.61" y2="166.32"/><line class="cls-6" x1="518.9" y1="164.96" x2="518.9" y2="164.96"/><line class="cls-5" x1="427.77" y1="223.93" x2="524.06" y2="166.95"/><line class="cls-6" x1="427.77" y1="223.93" x2="427.77" y2="223.93"/><line class="cls-7" x1="432.35" y1="221.22" x2="521.76" y2="168.3"/><line class="cls-6" x1="524.05" y1="166.95" x2="524.06" y2="166.95"/><line class="cls-5" x1="428.73" y1="228.03" x2="525.01" y2="171.04"/><line class="cls-6" x1="428.73" y1="228.03" x2="428.73" y2="228.03"/><line class="cls-7" x1="433.31" y1="225.32" x2="522.72" y2="172.4"/><line class="cls-6" x1="525.01" y1="171.05" x2="525.01" y2="171.04"/><line class="cls-5" x1="433.88" y1="230.02" x2="530.17" y2="173.03"/><line class="cls-6" x1="433.88" y1="230.02" x2="433.88" y2="230.02"/><line class="cls-7" x1="438.46" y1="227.31" x2="527.87" y2="174.39"/><line class="cls-6" x1="530.16" y1="173.03" x2="530.17" y2="173.03"/><line class="cls-5" x1="434.84" y1="234.12" x2="531.12" y2="177.13"/><line class="cls-6" x1="434.84" y1="234.12" x2="434.84" y2="234.11"/><line class="cls-7" x1="439.42" y1="231.41" x2="528.83" y2="178.49"/><line class="cls-6" x1="531.12" y1="177.13" x2="531.12" y2="177.13"/><line class="cls-5" x1="439.99" y1="236.1" x2="536.27" y2="179.12"/><line class="cls-6" x1="439.99" y1="236.1" x2="439.99" y2="236.1"/><line class="cls-7" x1="444.57" y1="233.39" x2="533.98" y2="180.47"/><line class="cls-6" x1="536.27" y1="179.12" x2="536.27" y2="179.12"/><line class="cls-5" x1="440.95" y1="240.2" x2="537.23" y2="183.21"/><line class="cls-6" x1="440.95" y1="240.2" x2="440.95" y2="240.2"/><line class="cls-7" x1="445.53" y1="237.49" x2="534.94" y2="184.57"/><line class="cls-6" x1="537.23" y1="183.22" x2="537.23" y2="183.21"/><line class="cls-5" x1="450.46" y1="238.95" x2="546.75" y2="181.96"/><line class="cls-6" x1="450.46" y1="238.95" x2="450.47" y2="238.95"/><line class="cls-7" x1="455.04" y1="236.24" x2="544.45" y2="183.32"/><line class="cls-6" x1="546.74" y1="181.97" x2="546.75" y2="181.96"/><line class="cls-5" x1="451.42" y1="243.05" x2="547.7" y2="186.06"/><line class="cls-6" x1="451.42" y1="243.05" x2="451.42" y2="243.05"/><line class="cls-7" x1="456" y1="240.34" x2="545.41" y2="187.42"/><line class="cls-6" x1="547.7" y1="186.06" x2="547.7" y2="186.06"/><line class="cls-5" x1="456.57" y1="245.04" x2="552.86" y2="188.05"/><line class="cls-6" x1="456.57" y1="245.04" x2="456.58" y2="245.03"/><line class="cls-7" x1="461.15" y1="242.33" x2="550.56" y2="189.41"/><line class="cls-6" x1="552.85" y1="188.05" x2="552.86" y2="188.05"/><line class="cls-5" x1="457.53" y1="249.13" x2="553.81" y2="192.15"/><line class="cls-6" x1="457.53" y1="249.13" x2="457.53" y2="249.13"/><line class="cls-7" x1="462.11" y1="246.42" x2="551.52" y2="193.5"/><line class="cls-6" x1="553.81" y1="192.15" x2="553.81" y2="192.15"/></g><line class="cls-8" x1="444.25" y1="180.72" x2="444.38" y2="146.51"/><line class="cls-8" x1="533.63" y1="242.06" x2="503.25" y2="238.65"/><polyline class="cls-2" points="479.81 274.41 390.34 223.5 390.47 178.34"/></g><g class="cls-3"><g class="cls-9"><path class="cls-5" d="M329.53,221.37a70.37,70.37,0,0,1,25.52-9A72.94,72.94,0,0,1,381,213L377,231a36.73,36.73,0,0,0-8.24-1.35,37.82,37.82,0,0,0-7.2.36,30.3,30.3,0,0,0-6.14,1.61,33,33,0,0,0-4.76,2.24c-3,1.79-4.89,3.7-5.67,5.75a8.56,8.56,0,0,0,0,6.22,16.15,16.15,0,0,0,4.39,6.09,40.13,40.13,0,0,0,7.34,5.28,52.71,52.71,0,0,0,10,4.34,50.69,50.69,0,0,0,10.91,2.22,43,43,0,0,0,10.67-.31,25.87,25.87,0,0,0,9.3-3.27,18.65,18.65,0,0,0,3.69-2.84,9.5,9.5,0,0,0,2.34-3.55,7.59,7.59,0,0,0,.27-4.08c-.28-1.43.57-2.3-.78-3.82l29.57-5.35A13.9,13.9,0,0,1,436,248.8a17.94,17.94,0,0,1-2,8.7,31.2,31.2,0,0,1-6.11,8.26,46,46,0,0,1-9.09,7,64,64,0,0,1-20.5,7.59,100.87,100.87,0,0,1-23.4,1.78,111.92,111.92,0,0,1-23.21-3.34,80.12,80.12,0,0,1-19.79-7.67,46.73,46.73,0,0,1-13.2-10.72,24.89,24.89,0,0,1-5.91-12.87,21.51,21.51,0,0,1,3-13.52Q319.67,227.21,329.53,221.37Z"/><line class="cls-5" x1="289.48" y1="246.28" x2="385.77" y2="189.3"/><line class="cls-6" x1="289.48" y1="246.28" x2="289.49" y2="246.28"/><line class="cls-7" x1="294.06" y1="243.57" x2="383.47" y2="190.65"/><line class="cls-6" x1="385.76" y1="189.3" x2="385.77" y2="189.3"/><line class="cls-5" x1="294.63" y1="248.27" x2="390.92" y2="191.28"/><line class="cls-6" x1="294.63" y1="248.27" x2="294.64" y2="248.27"/><line class="cls-7" x1="299.22" y1="245.56" x2="388.63" y2="192.64"/><line class="cls-6" x1="390.92" y1="191.29" x2="390.92" y2="191.28"/><line class="cls-5" x1="295.59" y1="252.37" x2="391.88" y2="195.38"/><line class="cls-6" x1="295.59" y1="252.37" x2="295.6" y2="252.37"/><line class="cls-7" x1="300.17" y1="249.66" x2="389.58" y2="196.74"/><line class="cls-6" x1="391.87" y1="195.38" x2="391.88" y2="195.38"/><line class="cls-5" x1="300.74" y1="254.36" x2="397.03" y2="197.37"/><line class="cls-6" x1="300.74" y1="254.36" x2="300.75" y2="254.35"/><line class="cls-7" x1="305.32" y1="251.64" x2="394.74" y2="198.72"/><line class="cls-6" x1="397.03" y1="197.37" x2="397.03" y2="197.37"/><line class="cls-5" x1="301.7" y1="258.45" x2="397.99" y2="201.46"/><line class="cls-6" x1="301.7" y1="258.45" x2="301.71" y2="258.45"/><line class="cls-7" x1="306.28" y1="255.74" x2="395.69" y2="202.82"/><line class="cls-6" x1="397.98" y1="201.47" x2="397.99" y2="201.46"/><line class="cls-5" x1="306.85" y1="260.44" x2="403.14" y2="203.45"/><line class="cls-6" x1="306.85" y1="260.44" x2="306.86" y2="260.44"/><line class="cls-7" x1="311.43" y1="257.73" x2="400.85" y2="204.81"/><line class="cls-6" x1="403.14" y1="203.46" x2="403.14" y2="203.45"/><line class="cls-5" x1="307.81" y1="264.54" x2="404.1" y2="207.55"/><line class="cls-6" x1="307.81" y1="264.54" x2="307.81" y2="264.53"/><line class="cls-7" x1="312.39" y1="261.83" x2="401.8" y2="208.91"/><line class="cls-6" x1="404.09" y1="207.55" x2="404.1" y2="207.55"/><line class="cls-5" x1="312.96" y1="266.53" x2="409.25" y2="209.54"/><line class="cls-6" x1="312.96" y1="266.53" x2="312.97" y2="266.52"/><line class="cls-7" x1="317.54" y1="263.81" x2="406.96" y2="210.89"/><line class="cls-6" x1="409.25" y1="209.54" x2="409.25" y2="209.54"/><line class="cls-5" x1="313.92" y1="270.62" x2="410.21" y2="213.63"/><line class="cls-6" x1="313.92" y1="270.62" x2="313.92" y2="270.62"/><line class="cls-7" x1="318.5" y1="267.91" x2="407.91" y2="214.99"/><line class="cls-6" x1="410.2" y1="213.64" x2="410.21" y2="213.63"/><line class="cls-5" x1="313.97" y1="274.97" x2="410.25" y2="217.98"/><line class="cls-6" x1="313.97" y1="274.97" x2="313.97" y2="274.97"/><line class="cls-7" x1="318.55" y1="272.26" x2="407.96" y2="219.34"/><line class="cls-6" x1="410.25" y1="217.99" x2="410.25" y2="217.98"/><line class="cls-5" x1="319.12" y1="276.96" x2="415.41" y2="219.97"/><line class="cls-6" x1="319.12" y1="276.96" x2="319.12" y2="276.96"/><line class="cls-7" x1="323.7" y1="274.25" x2="413.11" y2="221.33"/><line class="cls-6" x1="415.4" y1="219.97" x2="415.41" y2="219.97"/><line class="cls-5" x1="320.08" y1="281.06" x2="416.36" y2="224.07"/><line class="cls-6" x1="320.08" y1="281.06" x2="320.08" y2="281.05"/><line class="cls-7" x1="324.66" y1="278.34" x2="414.07" y2="225.42"/><line class="cls-6" x1="416.36" y1="224.07" x2="416.36" y2="224.07"/><line class="cls-5" x1="325.23" y1="283.04" x2="421.52" y2="226.06"/><line class="cls-6" x1="325.23" y1="283.04" x2="325.23" y2="283.04"/><line class="cls-7" x1="329.81" y1="280.33" x2="419.22" y2="227.41"/><line class="cls-6" x1="421.51" y1="226.06" x2="421.52" y2="226.06"/><line class="cls-5" x1="326.19" y1="287.14" x2="422.47" y2="230.15"/><line class="cls-6" x1="326.19" y1="287.14" x2="326.19" y2="287.14"/><line class="cls-7" x1="330.77" y1="284.43" x2="420.18" y2="231.51"/><line class="cls-6" x1="422.47" y1="230.15" x2="422.47" y2="230.15"/><line class="cls-5" x1="331.34" y1="289.13" x2="427.63" y2="232.14"/><line class="cls-6" x1="331.34" y1="289.13" x2="331.34" y2="289.13"/><line class="cls-7" x1="335.92" y1="286.42" x2="425.33" y2="233.5"/><line class="cls-6" x1="427.62" y1="232.14" x2="427.63" y2="232.14"/><line class="cls-5" x1="332.3" y1="293.23" x2="428.58" y2="236.24"/><line class="cls-6" x1="332.3" y1="293.23" x2="332.3" y2="293.22"/><line class="cls-7" x1="336.88" y1="290.51" x2="426.29" y2="237.59"/><line class="cls-6" x1="428.58" y1="236.24" x2="428.58" y2="236.24"/><line class="cls-5" x1="337.45" y1="295.21" x2="433.74" y2="238.22"/><line class="cls-6" x1="337.45" y1="295.21" x2="337.45" y2="295.21"/><line class="cls-7" x1="342.03" y1="292.5" x2="431.44" y2="239.58"/><line class="cls-6" x1="433.73" y1="238.23" x2="433.74" y2="238.22"/><line class="cls-5" x1="338.41" y1="299.31" x2="434.69" y2="242.32"/><line class="cls-6" x1="338.41" y1="299.31" x2="338.41" y2="299.31"/><line class="cls-7" x1="342.99" y1="296.6" x2="432.4" y2="243.68"/><line class="cls-6" x1="434.69" y1="242.32" x2="434.69" y2="242.32"/><line class="cls-5" x1="347.92" y1="298.06" x2="444.21" y2="241.07"/><line class="cls-6" x1="347.92" y1="298.06" x2="347.93" y2="298.06"/><line class="cls-7" x1="352.5" y1="295.35" x2="441.91" y2="242.43"/><line class="cls-6" x1="444.2" y1="241.08" x2="444.21" y2="241.07"/><line class="cls-5" x1="348.88" y1="302.16" x2="445.16" y2="245.17"/><line class="cls-6" x1="348.88" y1="302.16" x2="348.88" y2="302.15"/><line class="cls-7" x1="353.46" y1="299.45" x2="442.87" y2="246.53"/><line class="cls-6" x1="445.16" y1="245.17" x2="445.16" y2="245.17"/><line class="cls-5" x1="354.03" y1="304.15" x2="450.32" y2="247.16"/><line class="cls-6" x1="354.03" y1="304.15" x2="354.04" y2="304.14"/><line class="cls-7" x1="358.61" y1="301.43" x2="448.02" y2="248.51"/><line class="cls-6" x1="450.31" y1="247.16" x2="450.32" y2="247.16"/><line class="cls-5" x1="354.99" y1="308.24" x2="451.27" y2="251.25"/><line class="cls-6" x1="354.99" y1="308.24" x2="354.99" y2="308.24"/><line class="cls-7" x1="359.57" y1="305.53" x2="448.98" y2="252.61"/><line class="cls-6" x1="451.27" y1="251.26" x2="451.27" y2="251.25"/></g><polyline class="cls-2" points="382.51 205.24 382.38 250.92 380.97 258.07"/><line class="cls-2" x1="377.01" y1="224.73" x2="381.9" y2="206.48"/><g class="cls-3"><g class="cls-10"><g class="cls-3"><path class="cls-1" d="M376.92,257.42l.09-32.69c-.89-.24-1.78-.45-2.65-.63s-1.58-.31-2.35-.41-1.31-.17-1.95-.22c-.44,0-.86-.07-1.29-.08l-.64,0c-.85,0-1.67,0-2.47,0s-1.59.08-2.35.16c-.6.06-1.18.13-1.74.22l-.74.12a30.66,30.66,0,0,0-3.94,1c-.5.16-1,.33-1.46.51a33,33,0,0,0-4.76,2.24l-.21.12a19.33,19.33,0,0,0-3,2.24,11.54,11.54,0,0,0-1.23,1.33,8,8,0,0,0-.73,1.09,6.58,6.58,0,0,0-.46,1l0,0a8.92,8.92,0,0,0-.39,1.38"/></g></g><path class="cls-2" d="M344.42,236.39a8.81,8.81,0,0,1,.58-3c.78-2,2.66-4,5.67-5.75a33,33,0,0,1,4.76-2.24,29.66,29.66,0,0,1,6.14-1.61,36.91,36.91,0,0,1,15.44,1l-.09,32.69"/></g><g class="cls-3"><g class="cls-11"><g class="cls-3"><path class="cls-12" d="M436,243.18l-.13,44.44v.44l.12-44.43c0-.15,0-.3,0-.45"/><path class="cls-13" d="M436,243.63l-.12,44.43a17,17,0,0,1-.33,2.85l.13-44.44a16,16,0,0,0,.32-2.84"/><path class="cls-13" d="M435.64,246.47l-.13,44.44a17.56,17.56,0,0,1-.82,2.84l.13-44.43a19.09,19.09,0,0,0,.82-2.85"/><path class="cls-13" d="M434.82,249.32l-.13,44.43a18.45,18.45,0,0,1-.82,1.9c-.21.42-.43.83-.66,1.25l.13-44.44c.23-.41.45-.83.66-1.25.31-.63.58-1.26.82-1.89"/><path class="cls-13" d="M433.34,252.46l-.13,44.44a29.24,29.24,0,0,1-2.49,3.7l.13-44.44a29.24,29.24,0,0,0,2.49-3.7"/><path class="cls-13" d="M430.85,256.16l-.13,44.44a35.67,35.67,0,0,1-3,3.3c-.37.37-.74.73-1.13,1.08l.13-44.44c.38-.35.76-.71,1.12-1.08a35.81,35.81,0,0,0,3-3.3"/><path class="cls-13" d="M426.77,260.54,426.64,305a46.49,46.49,0,0,1-7.55,5.66l.13-44.44a46.35,46.35,0,0,0,7.55-5.66"/><path class="cls-13" d="M419.22,266.2l-.13,44.44-.42.25a60,60,0,0,1-12.34,5.5l.13-44.44a60.2,60.2,0,0,0,12.34-5.5l.42-.25"/><path class="cls-13" d="M406.46,272l-.13,44.44a71.91,71.91,0,0,1-8.15,2.09l-1.43.26.13-44.43,1.42-.27a72.64,72.64,0,0,0,8.16-2.09"/><path class="cls-13" d="M396.88,274.31l-.13,44.43q-3.9.7-7.86,1.1L389,275.4c2.63-.26,5.25-.63,7.86-1.09"/><path class="cls-13" d="M382.47,275.84l-.13,44.43q-3,.11-6.12,0l.13-44.44q3.07.08,6.12,0"/></g></g><path class="cls-2" d="M436,243.18l-.13,44.44a17.94,17.94,0,0,1-2,8,31.17,31.17,0,0,1-6.1,8.25,46.44,46.44,0,0,1-9.1,7,64,64,0,0,1-20.49,7.59,101.55,101.55,0,0,1-23.41,1.77,111.72,111.72,0,0,1-23.2-3.33,79.81,79.81,0,0,1-19.8-7.68,47,47,0,0,1-13.2-10.71,24.92,24.92,0,0,1-5.91-12.87,18.15,18.15,0,0,1-.14-2.44l.12-44.44a19.85,19.85,0,0,0,.15,2.44,24.89,24.89,0,0,0,5.91,12.87,46.7,46.7,0,0,0,13.2,10.71,79.73,79.73,0,0,0,19.79,7.68,112.6,112.6,0,0,0,23.21,3.34A102,102,0,0,0,398.3,274a64,64,0,0,0,20.5-7.59,46.07,46.07,0,0,0,9.09-7,31,31,0,0,0,6.11-8.25A18.21,18.21,0,0,0,436,243.18Z"/></g></g><g class="cls-3"><g class="cls-14"><polygon class="cls-5" points="413.86 46.72 376.84 25.21 402.75 10.25 439.77 31.76 413.86 46.72"/><line class="cls-6" x1="325.07" y1="58.27" x2="325.07" y2="58.27"/><line class="cls-7" x1="329.65" y1="55.57" x2="419.2" y2="2.87"/><line class="cls-6" x1="421.49" y1="1.52" x2="421.49" y2="1.52"/><line class="cls-6" x1="330.22" y1="60.27" x2="330.22" y2="60.27"/><line class="cls-7" x1="334.8" y1="57.57" x2="424.34" y2="4.87"/><line class="cls-6" x1="426.64" y1="3.52" x2="426.64" y2="3.52"/><line class="cls-6" x1="331.16" y1="64.37" x2="331.17" y2="64.37"/><line class="cls-7" x1="335.75" y1="61.67" x2="425.29" y2="8.97"/><line class="cls-6" x1="427.58" y1="7.62" x2="427.59" y2="7.62"/><line class="cls-6" x1="336.31" y1="66.37" x2="336.32" y2="66.37"/><line class="cls-7" x1="340.9" y1="63.67" x2="430.44" y2="10.97"/><line class="cls-6" x1="432.73" y1="9.62" x2="432.74" y2="9.62"/><line class="cls-6" x1="337.26" y1="70.47" x2="337.26" y2="70.47"/><line class="cls-7" x1="341.84" y1="67.77" x2="431.39" y2="15.07"/><line class="cls-6" x1="433.68" y1="13.72" x2="433.68" y2="13.72"/><line class="cls-6" x1="342.41" y1="72.47" x2="342.41" y2="72.47"/><line class="cls-7" x1="346.99" y1="69.77" x2="436.53" y2="17.07"/><line class="cls-6" x1="438.83" y1="15.72" x2="438.83" y2="15.72"/><line class="cls-6" x1="343.35" y1="76.57" x2="343.36" y2="76.57"/><line class="cls-7" x1="347.94" y1="73.87" x2="437.48" y2="21.17"/><line class="cls-6" x1="439.77" y1="19.82" x2="439.78" y2="19.82"/><line class="cls-6" x1="348.5" y1="78.57" x2="348.51" y2="78.57"/><line class="cls-7" x1="353.09" y1="75.87" x2="442.63" y2="23.17"/><line class="cls-6" x1="444.92" y1="21.82" x2="444.93" y2="21.82"/><line class="cls-6" x1="349.45" y1="82.67" x2="349.45" y2="82.67"/><line class="cls-7" x1="354.03" y1="79.97" x2="443.58" y2="27.27"/><line class="cls-6" x1="445.87" y1="25.92" x2="445.87" y2="25.92"/></g><g class="cls-15"><polygon class="cls-5" points="354.61 80.93 317.6 59.42 343.5 44.46 380.51 65.97 354.61 80.93"/><line class="cls-6" x1="271.39" y1="89.46" x2="271.4" y2="89.46"/><line class="cls-7" x1="275.98" y1="86.76" x2="365.57" y2="34.14"/><line class="cls-6" x1="367.86" y1="32.79" x2="367.87" y2="32.79"/><line class="cls-6" x1="276.54" y1="91.46" x2="276.55" y2="91.46"/><line class="cls-7" x1="281.13" y1="88.77" x2="370.72" y2="36.14"/><line class="cls-6" x1="373.01" y1="34.79" x2="373.01" y2="34.79"/><line class="cls-6" x1="277.48" y1="95.56" x2="277.49" y2="95.56"/><line class="cls-7" x1="282.07" y1="92.87" x2="371.66" y2="40.24"/><line class="cls-6" x1="373.95" y1="38.89" x2="373.96" y2="38.89"/><line class="cls-6" x1="282.63" y1="97.57" x2="282.64" y2="97.56"/><line class="cls-7" x1="287.22" y1="94.87" x2="376.81" y2="42.24"/><line class="cls-6" x1="379.1" y1="40.9" x2="379.1" y2="40.9"/><line class="cls-6" x1="283.57" y1="101.67" x2="283.58" y2="101.67"/><line class="cls-7" x1="288.16" y1="98.97" x2="377.75" y2="46.35"/><line class="cls-6" x1="380.04" y1="45" x2="380.05" y2="45"/><line class="cls-6" x1="288.72" y1="103.67" x2="288.73" y2="103.67"/><line class="cls-7" x1="293.31" y1="100.98" x2="382.9" y2="48.35"/><line class="cls-6" x1="385.19" y1="47" x2="385.19" y2="47"/><line class="cls-6" x1="289.66" y1="107.77" x2="289.67" y2="107.77"/><line class="cls-7" x1="294.25" y1="105.08" x2="383.84" y2="52.45"/><line class="cls-6" x1="386.13" y1="51.1" x2="386.14" y2="51.1"/><line class="cls-6" x1="294.81" y1="109.78" x2="294.81" y2="109.77"/><line class="cls-7" x1="299.4" y1="107.08" x2="388.99" y2="54.45"/><line class="cls-6" x1="391.28" y1="53.11" x2="391.28" y2="53.11"/><line class="cls-6" x1="295.75" y1="113.88" x2="295.76" y2="113.87"/><line class="cls-7" x1="300.34" y1="111.18" x2="389.93" y2="58.55"/><line class="cls-6" x1="392.22" y1="57.21" x2="392.22" y2="57.21"/></g><path class="cls-2" d="M413.56,103.51c.08-.66.15-1.31.21-2l.06-.78c0-.58.08-1.17.11-1.75l0-.74c0-.8,0-1.6,0-2.4v0h0l-.16-55.71-37-21.52L377,74.33h0c0,.81,0,1.61,0,2.42,0,.24,0,.49,0,.73,0,.59-.06,1.17-.11,1.76l-.06.78c-.06.66-.13,1.32-.21,2,0,.16,0,.33-.05.49-.11.85-.23,1.69-.38,2.54v.09c-.14.8-.3,1.6-.47,2.39s-.35,1.47-.54,2.2l-.15.61c-.07.24-.15.47-.22.71-.18.59-.35,1.18-.55,1.76-.07.21-.15.41-.22.62-.24.67-.48,1.34-.75,2q-.48,1.21-1.05,2.37s0,.09-.07.14c-.33.68-.69,1.35-1.06,2l-.15.27c-.38.65-.77,1.29-1.19,1.92l-.29.43c-.43.64-.88,1.28-1.35,1.89s-.94,1.14-1.43,1.68l-.52.56c-.47.49-1,1-1.46,1.41l-.14.13c-.57.49-1.16,1-1.77,1.4l-.45.31c-.62.44-1.26.86-1.93,1.25-.48.28-1,.53-1.42.76l-.45.2c-.31.15-.63.29-.94.42l-.27.1c-.37.14-.72.26-1.07.36l-.15,0c-.41.12.4,1,0,1.06l-1.23-.79h0l32.06,20.61a7.42,7.42,0,0,0,1.61.68l0,0,.19,0,.5.11.17,0,.35.06.43,0h.2c.12,0,.24,0,.36,0h.21l.21,0,.49,0,.22,0,.17,0c.25-.05.51-.1.78-.17l.22,0a.32.32,0,0,0,.09,0l.35-.1.58-.19.38-.15.34-.13.19-.08.81-.37.38-.19q.6-.3,1.23-.66h0c.67-.39,1.31-.81,1.93-1.24l.45-.32c.61-.45,1.2-.91,1.77-1.4a1.59,1.59,0,0,0,.13-.13c.36-.31.71-.63,1.05-1l.42-.44.52-.56c.14-.15.28-.29.42-.45.33-.38.65-.76,1-1.16l0-.07c.35-.44.68-.9,1-1.36l.35-.52.29-.44.28-.42q.42-.65.81-1.32l.09-.17c.06-.09.11-.19.16-.28.16-.29.33-.57.48-.87s.39-.76.58-1.14c0,0,0-.09.07-.14l0-.06c.23-.47.44-.94.65-1.41.13-.3.25-.59.37-.89s.21-.53.31-.79.29-.81.44-1.21c.07-.21.15-.41.22-.62l.07-.18c.17-.52.32-1.05.47-1.57.08-.24.16-.48.22-.72a.19.19,0,0,0,0-.07c0-.18.09-.36.14-.54.19-.73.37-1.46.54-2.2,0-.07,0-.15.05-.22.16-.72.3-1.46.42-2.19s.26-1.65.37-2.47c0,0,0-.09,0-.14S413.54,103.67,413.56,103.51Z"/><path class="cls-16" d="M439.77,25.17l.16,55.72a103.38,103.38,0,0,1-2.47,22.59A87.51,87.51,0,0,1,416.35,144a79.14,79.14,0,0,1-18.91,15.05q-11.29,6.53-19.35,6.81c-5.37.19-9.79-1.15-13.25-4.05s-6-7.1-7.62-12.65a69.46,69.46,0,0,1-2.45-19.15l-.16-55.72,25.9-14.95.16,55.72a48.12,48.12,0,0,0,1,9.76,17.27,17.27,0,0,0,2.95,7,7.56,7.56,0,0,0,5.14,3c2.08.27,4.62-.46,7.64-2.2a26,26,0,0,0,7.69-6.74,38,38,0,0,0,5.17-9,49.1,49.1,0,0,0,2.9-10.31,63.56,63.56,0,0,0,.9-10.77l-.16-55.71Z"/><path class="cls-2" d="M364.84,161.85q-5.19-4.33-7.62-12.65a69.46,69.46,0,0,1-2.45-19.15l-.16-55.72-37-21.51.15,55.72a69.46,69.46,0,0,0,2.45,19.15q2.42,8.31,7.62,12.65a15.83,15.83,0,0,0,2.3,1.61l37,21.52A15.9,15.9,0,0,1,364.84,161.85Z"/><polyline class="cls-2" points="316.8 51.53 343.73 36 381.26 57.99"/><polyline class="cls-2" points="376.01 17.36 402.94 1.82 440.6 23.88"/></g><g class="cls-3"><g class="cls-17"><polygon class="cls-5" points="310.84 107.46 273.82 85.95 301.98 69.69 339 91.2 310.84 107.46"/><line class="cls-6" x1="232.08" y1="112.26" x2="232.09" y2="112.26"/><line class="cls-7" x1="236.69" y1="109.6" x2="326.67" y2="57.65"/><line class="cls-6" x1="328.97" y1="56.32" x2="328.98" y2="56.32"/><line class="cls-6" x1="237.21" y1="114.31" x2="237.22" y2="114.3"/><line class="cls-7" x1="241.82" y1="111.65" x2="331.8" y2="59.69"/><line class="cls-6" x1="334.1" y1="58.37" x2="334.11" y2="58.36"/><line class="cls-6" x1="238.13" y1="118.41" x2="238.13" y2="118.41"/><line class="cls-7" x1="242.73" y1="115.75" x2="332.71" y2="63.8"/><line class="cls-6" x1="335.02" y1="62.47" x2="335.02" y2="62.47"/><line class="cls-6" x1="243.26" y1="120.46" x2="243.26" y2="120.46"/><line class="cls-7" x1="247.87" y1="117.8" x2="337.85" y2="65.85"/><line class="cls-6" x1="340.15" y1="64.52" x2="340.15" y2="64.51"/><line class="cls-6" x1="244.17" y1="124.57" x2="244.17" y2="124.56"/><line class="cls-7" x1="248.78" y1="121.9" x2="338.76" y2="69.95"/><line class="cls-6" x1="341.06" y1="68.62" x2="341.06" y2="68.62"/><line class="cls-6" x1="249.3" y1="126.61" x2="249.31" y2="126.61"/><line class="cls-7" x1="253.91" y1="123.95" x2="343.89" y2="72"/><line class="cls-6" x1="346.19" y1="70.67" x2="346.2" y2="70.66"/><line class="cls-6" x1="250.21" y1="130.72" x2="250.22" y2="130.71"/><line class="cls-7" x1="254.82" y1="128.05" x2="344.8" y2="76.1"/><line class="cls-6" x1="347.1" y1="74.77" x2="347.11" y2="74.77"/><line class="cls-6" x1="255.34" y1="132.76" x2="255.35" y2="132.76"/><line class="cls-7" x1="259.95" y1="130.1" x2="349.93" y2="78.15"/><line class="cls-6" x1="352.24" y1="76.82" x2="352.24" y2="76.81"/><line class="cls-6" x1="256.26" y1="136.87" x2="256.26" y2="136.86"/><line class="cls-7" x1="260.87" y1="134.2" x2="350.84" y2="82.25"/><line class="cls-6" x1="353.15" y1="80.92" x2="353.15" y2="80.92"/></g><g class="cls-18"><polygon class="cls-5" points="241.75 147.34 204.74 125.83 233.04 109.49 270.06 131 241.75 147.34"/><line class="cls-6" x1="176.86" y1="144.09" x2="176.86" y2="144.09"/><line class="cls-7" x1="181.47" y1="141.43" x2="271.45" y2="89.48"/><line class="cls-6" x1="273.75" y1="88.15" x2="273.76" y2="88.15"/><line class="cls-6" x1="181.99" y1="146.13" x2="182" y2="146.13"/><line class="cls-7" x1="186.6" y1="143.47" x2="276.58" y2="91.52"/><line class="cls-6" x1="278.88" y1="90.19" x2="278.89" y2="90.19"/><line class="cls-6" x1="182.9" y1="150.24" x2="182.91" y2="150.24"/><line class="cls-7" x1="187.51" y1="147.58" x2="277.49" y2="95.63"/><line class="cls-6" x1="279.79" y1="94.3" x2="279.8" y2="94.3"/><line class="cls-6" x1="188.04" y1="152.28" x2="188.04" y2="152.28"/><line class="cls-7" x1="192.64" y1="149.62" x2="282.62" y2="97.67"/><line class="cls-6" x1="284.93" y1="96.34" x2="284.93" y2="96.34"/><line class="cls-6" x1="188.95" y1="156.39" x2="188.95" y2="156.39"/><line class="cls-7" x1="193.56" y1="153.73" x2="283.54" y2="101.78"/><line class="cls-6" x1="285.84" y1="100.45" x2="285.84" y2="100.45"/><line class="cls-6" x1="194.08" y1="158.43" x2="194.08" y2="158.43"/><line class="cls-7" x1="198.69" y1="155.77" x2="288.67" y2="103.82"/><line class="cls-6" x1="290.97" y1="102.49" x2="290.97" y2="102.49"/><line class="cls-6" x1="194.99" y1="162.54" x2="195" y2="162.54"/><line class="cls-7" x1="199.6" y1="159.88" x2="289.58" y2="107.93"/><line class="cls-6" x1="291.88" y1="106.6" x2="291.89" y2="106.6"/><line class="cls-6" x1="200.12" y1="164.59" x2="200.13" y2="164.58"/><line class="cls-7" x1="204.73" y1="161.92" x2="294.71" y2="109.97"/><line class="cls-6" x1="297.01" y1="108.64" x2="297.02" y2="108.64"/><line class="cls-6" x1="201.03" y1="168.69" x2="201.04" y2="168.69"/><line class="cls-7" x1="205.64" y1="166.03" x2="295.62" y2="114.08"/><line class="cls-6" x1="297.93" y1="112.75" x2="297.93" y2="112.75"/></g><line class="cls-2" x1="312.67" y1="209.31" x2="275.65" y2="187.8"/><polyline class="cls-2" points="298.62 142.36 313.24 150.85 313.41 207.94"/><line class="cls-2" x1="284.04" y1="208.99" x2="258.51" y2="194.15"/><polyline class="cls-2" points="260.94 119.17 273.82 79.35 310.84 100.86 290.52 163.66"/><polyline class="cls-2" points="241.21 250.49 205.04 229.47 204.74 119.24 241.75 140.75"/><polygon class="cls-16" points="339 84.6 339.31 192.99 313.41 207.94 313.24 150.85 297.55 200.12 283.73 208.1 267.81 177.09 267.97 234.18 242.06 249.13 241.75 140.75 270.06 124.41 290.52 163.66 310.84 100.86 339 84.6"/></g><g class="cls-3"><g class="cls-19"><polygon class="cls-5" points="170.37 189.26 133.35 167.75 154.34 155.64 191.35 177.15 170.37 189.26"/><line class="cls-6" x1="95.1" y1="192.48" x2="95.11" y2="192.48"/><line class="cls-7" x1="99.71" y1="189.82" x2="189.69" y2="137.87"/><line class="cls-6" x1="191.99" y1="136.54" x2="192" y2="136.54"/><line class="cls-6" x1="100.24" y1="194.52" x2="100.24" y2="194.52"/><line class="cls-7" x1="104.84" y1="191.86" x2="194.82" y2="139.91"/><line class="cls-6" x1="197.13" y1="138.58" x2="197.13" y2="138.58"/><line class="cls-6" x1="101.15" y1="198.63" x2="101.15" y2="198.63"/><line class="cls-7" x1="105.76" y1="195.97" x2="195.74" y2="144.02"/><line class="cls-6" x1="198.04" y1="142.69" x2="198.04" y2="142.69"/><line class="cls-6" x1="106.28" y1="200.67" x2="106.28" y2="200.67"/><line class="cls-7" x1="110.89" y1="198.01" x2="200.87" y2="146.06"/><line class="cls-6" x1="203.17" y1="144.73" x2="203.17" y2="144.73"/><line class="cls-6" x1="107.19" y1="204.78" x2="107.2" y2="204.78"/><line class="cls-7" x1="111.8" y1="202.12" x2="201.78" y2="150.17"/><line class="cls-6" x1="204.08" y1="148.84" x2="204.09" y2="148.84"/><line class="cls-6" x1="112.32" y1="206.82" x2="112.33" y2="206.82"/><line class="cls-7" x1="116.93" y1="204.16" x2="206.91" y2="152.21"/><line class="cls-6" x1="209.21" y1="150.88" x2="209.22" y2="150.88"/><line class="cls-6" x1="113.23" y1="210.93" x2="113.24" y2="210.93"/><line class="cls-7" x1="117.84" y1="208.27" x2="207.82" y2="156.32"/><line class="cls-6" x1="210.13" y1="154.99" x2="210.13" y2="154.99"/><line class="cls-6" x1="118.37" y1="212.97" x2="118.37" y2="212.97"/><line class="cls-7" x1="122.98" y1="210.31" x2="212.95" y2="158.36"/><line class="cls-6" x1="215.26" y1="157.03" x2="215.26" y2="157.03"/><line class="cls-6" x1="119.28" y1="217.08" x2="119.28" y2="217.08"/><line class="cls-7" x1="123.89" y1="214.42" x2="213.87" y2="162.47"/><line class="cls-6" x1="216.17" y1="161.14" x2="216.17" y2="161.14"/></g><line class="cls-2" x1="199.24" y1="275.48" x2="176.79" y2="262.43"/><polyline class="cls-5" points="175.85 231.2 189.43 239.09 172.28 248.99 170.22 247.79"/><polyline class="cls-2" points="174.95 204.11 180.95 207.6 189.43 239.09 172.62 229.32"/><path class="cls-16" d="M191.36,170.55l35.38,88.14-27.37,15.8-5.77-17.92-25.11,14.5L163,295.5l-27.5,15.88,34.9-128.71Zm-1.93,68.54L181,207.6,172.28,249Z"/><polyline class="cls-2" points="133.81 313.11 96.28 291.29 131.79 161.54"/></g><g class="cls-3"><g class="cls-20"><polygon class="cls-5" points="40.45 263.81 3.43 242.3 83.67 195.98 120.69 217.49 40.45 263.81"/><line class="cls-5" x1="0.53" y1="246.28" x2="97.42" y2="190.34"/><line class="cls-6" x1="0.53" y1="246.28" x2="0.53" y2="246.28"/><line class="cls-7" x1="5.13" y1="243.62" x2="95.11" y2="191.67"/><line class="cls-6" x1="97.42" y1="190.34" x2="97.42" y2="190.34"/><line class="cls-5" x1="5.66" y1="248.33" x2="102.55" y2="192.38"/><line class="cls-6" x1="5.66" y1="248.33" x2="5.66" y2="248.32"/><line class="cls-7" x1="10.27" y1="245.66" x2="100.25" y2="193.71"/><line class="cls-6" x1="102.55" y1="192.38" x2="102.55" y2="192.38"/><line class="cls-5" x1="6.57" y1="252.43" x2="103.46" y2="196.49"/><line class="cls-6" x1="6.57" y1="252.43" x2="6.57" y2="252.43"/><line class="cls-7" x1="11.18" y1="249.77" x2="101.16" y2="197.82"/><line class="cls-6" x1="103.46" y1="196.49" x2="103.46" y2="196.49"/><line class="cls-5" x1="11.7" y1="254.48" x2="108.6" y2="198.53"/><line class="cls-6" x1="11.7" y1="254.48" x2="11.71" y2="254.47"/><line class="cls-7" x1="16.31" y1="251.82" x2="106.29" y2="199.86"/><line class="cls-6" x1="108.59" y1="198.53" x2="108.6" y2="198.53"/><line class="cls-5" x1="12.61" y1="258.58" x2="109.51" y2="202.64"/><line class="cls-6" x1="12.61" y1="258.58" x2="12.62" y2="258.58"/><line class="cls-7" x1="17.22" y1="255.92" x2="107.2" y2="203.97"/><line class="cls-6" x1="109.5" y1="202.64" x2="109.51" y2="202.64"/><line class="cls-5" x1="17.74" y1="260.63" x2="114.64" y2="204.68"/><line class="cls-6" x1="17.74" y1="260.63" x2="17.75" y2="260.62"/><line class="cls-7" x1="22.35" y1="257.97" x2="112.33" y2="206.01"/><line class="cls-6" x1="114.64" y1="204.69" x2="114.64" y2="204.68"/><line class="cls-5" x1="18.66" y1="264.73" x2="115.55" y2="208.79"/><line class="cls-6" x1="18.66" y1="264.73" x2="18.66" y2="264.73"/><line class="cls-7" x1="23.27" y1="262.07" x2="113.24" y2="210.12"/><line class="cls-6" x1="115.55" y1="208.79" x2="115.55" y2="208.79"/><line class="cls-5" x1="23.79" y1="266.78" x2="120.68" y2="210.83"/><line class="cls-6" x1="23.79" y1="266.78" x2="23.79" y2="266.78"/><line class="cls-7" x1="28.4" y1="264.12" x2="118.38" y2="212.16"/><line class="cls-6" x1="120.68" y1="210.84" x2="120.68" y2="210.83"/><line class="cls-5" x1="24.7" y1="270.88" x2="121.6" y2="214.94"/><line class="cls-6" x1="24.7" y1="270.88" x2="24.7" y2="270.88"/><line class="cls-7" x1="29.31" y1="268.22" x2="119.29" y2="216.27"/><line class="cls-6" x1="121.59" y1="214.94" x2="121.6" y2="214.94"/></g><polyline class="cls-16" points="120.69 210.89 120.76 236.84 93.66 252.49 93.89 333.88 67.98 348.83 67.75 267.45 40.52 283.17 40.45 257.22"/><polyline class="cls-2" points="67.24 350.21 30.97 328.37 30.83 279.42"/><polyline class="cls-2" points="39.74 284.52 1.89 262.89 1.82 235.72"/><polygon class="cls-2" points="40.45 257.22 3.43 235.71 82.06 189.38 119.07 210.89 40.45 257.22"/><polyline class="cls-2" points="203.96 117.89 232.26 101.55 269.92 123.61"/><polyline class="cls-2" points="273.82 78.4 303.5 61.26 339.78 83.3"/><polyline class="cls-2" points="170.37 182.67 133.35 161.16 154.74 148.51 191.4 169.81"/></g><g class="cls-3"><g class="cls-21"><path class="cls-5" d="M231.06,280.51l120.88,31.18-25.08,14.87-22.61-6.73-23,13.63,12.26,12.87-25.2,14.94-56.48-69.36Zm37.46,41.67,15.71-9.31-37.42-12.3,21.71,21.61"/><line class="cls-5" x1="196.11" y1="302.6" x2="292.39" y2="245.61"/><line class="cls-6" x1="196.11" y1="302.6" x2="196.11" y2="302.59"/><line class="cls-7" x1="200.69" y1="299.89" x2="290.1" y2="246.97"/><line class="cls-6" x1="292.39" y1="245.61" x2="292.39" y2="245.61"/><line class="cls-5" x1="201.26" y1="304.58" x2="297.55" y2="247.6"/><line class="cls-6" x1="201.26" y1="304.58" x2="201.27" y2="304.58"/><line class="cls-7" x1="205.84" y1="301.87" x2="295.25" y2="248.95"/><line class="cls-6" x1="297.54" y1="247.6" x2="297.55" y2="247.6"/><line class="cls-5" x1="202.22" y1="308.68" x2="298.5" y2="251.69"/><line class="cls-6" x1="202.22" y1="308.68" x2="202.22" y2="308.68"/><line class="cls-7" x1="206.8" y1="305.97" x2="296.21" y2="253.05"/><line class="cls-6" x1="298.5" y1="251.7" x2="298.5" y2="251.69"/><line class="cls-5" x1="207.37" y1="310.67" x2="303.66" y2="253.68"/><line class="cls-6" x1="207.37" y1="310.67" x2="207.38" y2="310.67"/><line class="cls-7" x1="211.95" y1="307.96" x2="301.36" y2="255.04"/><line class="cls-6" x1="303.65" y1="253.68" x2="303.66" y2="253.68"/><line class="cls-5" x1="208.33" y1="314.77" x2="304.61" y2="257.78"/><line class="cls-6" x1="208.33" y1="314.77" x2="208.33" y2="314.76"/><line class="cls-7" x1="212.91" y1="312.06" x2="302.32" y2="259.14"/><line class="cls-6" x1="304.61" y1="257.78" x2="304.61" y2="257.78"/><line class="cls-5" x1="213.48" y1="316.75" x2="309.77" y2="259.77"/><line class="cls-6" x1="213.48" y1="316.75" x2="213.48" y2="316.75"/><line class="cls-7" x1="218.06" y1="314.04" x2="307.47" y2="261.12"/><line class="cls-6" x1="309.76" y1="259.77" x2="309.77" y2="259.77"/><line class="cls-5" x1="214.44" y1="320.85" x2="310.72" y2="263.86"/><line class="cls-6" x1="214.44" y1="320.85" x2="214.44" y2="320.85"/><line class="cls-7" x1="219.02" y1="318.14" x2="308.43" y2="265.22"/><line class="cls-6" x1="310.72" y1="263.87" x2="310.72" y2="263.86"/><line class="cls-5" x1="219.59" y1="322.84" x2="315.88" y2="265.85"/><line class="cls-6" x1="219.59" y1="322.84" x2="219.59" y2="322.84"/><line class="cls-7" x1="224.17" y1="320.13" x2="313.58" y2="267.21"/><line class="cls-6" x1="315.87" y1="265.85" x2="315.88" y2="265.85"/><line class="cls-5" x1="220.55" y1="326.94" x2="316.83" y2="269.95"/><line class="cls-6" x1="220.55" y1="326.94" x2="220.55" y2="326.93"/><line class="cls-7" x1="225.13" y1="324.22" x2="314.54" y2="271.3"/><line class="cls-6" x1="316.83" y1="269.95" x2="316.83" y2="269.95"/><line class="cls-5" x1="220.59" y1="331.28" x2="316.88" y2="274.3"/><line class="cls-6" x1="220.59" y1="331.28" x2="220.6" y2="331.28"/><line class="cls-7" x1="225.17" y1="328.57" x2="314.59" y2="275.65"/><line class="cls-6" x1="316.87" y1="274.3" x2="316.88" y2="274.3"/><line class="cls-5" x1="225.75" y1="333.27" x2="322.03" y2="276.28"/><line class="cls-6" x1="225.75" y1="333.27" x2="225.75" y2="333.27"/><line class="cls-7" x1="230.33" y1="330.56" x2="319.74" y2="277.64"/><line class="cls-6" x1="322.03" y1="276.29" x2="322.03" y2="276.28"/><line class="cls-5" x1="226.7" y1="337.37" x2="322.99" y2="280.38"/><line class="cls-6" x1="226.7" y1="337.37" x2="226.71" y2="337.37"/><line class="cls-7" x1="231.28" y1="334.66" x2="320.7" y2="281.74"/><line class="cls-6" x1="322.98" y1="280.38" x2="322.99" y2="280.38"/><line class="cls-5" x1="231.86" y1="339.36" x2="328.14" y2="282.37"/><line class="cls-6" x1="231.86" y1="339.36" x2="231.86" y2="339.35"/><line class="cls-7" x1="236.44" y1="336.65" x2="325.85" y2="283.73"/><line class="cls-6" x1="328.14" y1="282.37" x2="328.14" y2="282.37"/><line class="cls-5" x1="232.81" y1="343.45" x2="329.1" y2="286.47"/><line class="cls-6" x1="232.81" y1="343.45" x2="232.82" y2="343.45"/><line class="cls-7" x1="237.39" y1="340.74" x2="326.81" y2="287.82"/><line class="cls-6" x1="329.09" y1="286.47" x2="329.1" y2="286.47"/><line class="cls-5" x1="237.97" y1="345.44" x2="334.25" y2="288.45"/><line class="cls-6" x1="237.97" y1="345.44" x2="237.97" y2="345.44"/><line class="cls-7" x1="242.55" y1="342.73" x2="331.96" y2="289.81"/><line class="cls-6" x1="334.25" y1="288.46" x2="334.25" y2="288.45"/><line class="cls-5" x1="238.92" y1="349.54" x2="335.21" y2="292.55"/><line class="cls-6" x1="238.92" y1="349.54" x2="238.93" y2="349.54"/><line class="cls-7" x1="243.5" y1="346.83" x2="332.92" y2="293.91"/><line class="cls-6" x1="335.2" y1="292.55" x2="335.21" y2="292.55"/><line class="cls-5" x1="244.08" y1="351.53" x2="340.36" y2="294.54"/><line class="cls-6" x1="244.08" y1="351.53" x2="244.08" y2="351.52"/><line class="cls-7" x1="248.66" y1="348.82" x2="338.07" y2="295.9"/><line class="cls-6" x1="340.36" y1="294.54" x2="340.36" y2="294.54"/><line class="cls-5" x1="245.03" y1="355.62" x2="341.32" y2="298.64"/><line class="cls-6" x1="245.03" y1="355.62" x2="245.04" y2="355.62"/><line class="cls-7" x1="249.61" y1="352.91" x2="339.02" y2="299.99"/><line class="cls-6" x1="341.31" y1="298.64" x2="341.32" y2="298.64"/><line class="cls-5" x1="254.55" y1="354.37" x2="350.83" y2="297.39"/><line class="cls-6" x1="254.55" y1="354.37" x2="254.55" y2="354.37"/><line class="cls-7" x1="259.13" y1="351.66" x2="348.54" y2="298.74"/><line class="cls-6" x1="350.83" y1="297.39" x2="350.83" y2="297.39"/><line class="cls-5" x1="255.5" y1="358.47" x2="351.79" y2="301.48"/><line class="cls-6" x1="255.5" y1="358.47" x2="255.51" y2="358.47"/><line class="cls-7" x1="260.08" y1="355.76" x2="349.5" y2="302.84"/><line class="cls-6" x1="351.78" y1="301.49" x2="351.79" y2="301.48"/><line class="cls-5" x1="260.66" y1="360.46" x2="356.94" y2="303.47"/><line class="cls-6" x1="260.66" y1="360.46" x2="260.66" y2="360.46"/><line class="cls-7" x1="265.24" y1="357.75" x2="354.65" y2="304.83"/><line class="cls-6" x1="356.94" y1="303.47" x2="356.94" y2="303.47"/><line class="cls-5" x1="261.61" y1="364.56" x2="357.9" y2="307.57"/><line class="cls-6" x1="261.61" y1="364.56" x2="261.62" y2="364.55"/><line class="cls-7" x1="266.19" y1="361.84" x2="355.61" y2="308.92"/><line class="cls-6" x1="357.89" y1="307.57" x2="357.9" y2="307.57"/></g><polyline class="cls-2" points="325.67 365.94 304.12 357.97 304.25 313.53"/><line class="cls-16" x1="304.12" y1="357.97" x2="281.11" y2="371.61"/><polyline class="cls-2" points="268.17 400.39 211.69 330.06 211.82 285.62"/><line class="cls-8" x1="211.82" y1="285.62" x2="268.3" y2="354.98"/></g><g class="cls-3"><polygon class="cls-13" points="245.93 368.43 245.8 412.87 222.07 426.94 222.19 382.5 245.93 368.43"/><polygon class="cls-13" points="193.22 399.68 193.09 444.12 169.34 458.19 169.47 413.75 193.22 399.68"/><g class="cls-22"><polygon class="cls-5" points="157.19 324.49 245.93 374.72 222.19 388.79 187.45 369.13 158.47 386.3 193.22 405.97 169.47 420.04 80.73 369.81 104.47 355.73 137.22 374.27 166.2 357.1 133.45 338.56 157.19 324.49"/><line class="cls-5" x1="81.94" y1="371.3" x2="178.22" y2="314.31"/><line class="cls-6" x1="81.94" y1="371.3" x2="81.94" y2="371.3"/><line class="cls-7" x1="86.52" y1="368.59" x2="175.93" y2="315.67"/><line class="cls-6" x1="178.22" y1="314.32" x2="178.22" y2="314.31"/><line class="cls-5" x1="87.09" y1="373.29" x2="183.38" y2="316.3"/><line class="cls-6" x1="87.09" y1="373.29" x2="87.09" y2="373.29"/><line class="cls-7" x1="91.67" y1="370.58" x2="181.08" y2="317.66"/><line class="cls-6" x1="183.37" y1="316.3" x2="183.38" y2="316.3"/><line class="cls-5" x1="88.05" y1="377.39" x2="184.33" y2="320.4"/><line class="cls-6" x1="88.05" y1="377.39" x2="88.05" y2="377.38"/><line class="cls-7" x1="92.63" y1="374.68" x2="182.04" y2="321.76"/><line class="cls-6" x1="184.33" y1="320.4" x2="184.33" y2="320.4"/><line class="cls-5" x1="93.2" y1="379.37" x2="189.49" y2="322.39"/><line class="cls-6" x1="93.2" y1="379.37" x2="93.2" y2="379.37"/><line class="cls-7" x1="97.78" y1="376.66" x2="187.19" y2="323.74"/><line class="cls-6" x1="189.48" y1="322.39" x2="189.49" y2="322.39"/><line class="cls-5" x1="94.16" y1="383.47" x2="190.44" y2="326.48"/><line class="cls-6" x1="94.16" y1="383.47" x2="94.16" y2="383.47"/><line class="cls-7" x1="98.74" y1="380.76" x2="188.15" y2="327.84"/><line class="cls-6" x1="190.44" y1="326.49" x2="190.44" y2="326.48"/><line class="cls-5" x1="99.31" y1="385.46" x2="195.6" y2="328.47"/><line class="cls-6" x1="99.31" y1="385.46" x2="99.31" y2="385.46"/><line class="cls-7" x1="103.89" y1="382.75" x2="193.3" y2="329.83"/><line class="cls-6" x1="195.59" y1="328.47" x2="195.6" y2="328.47"/><line class="cls-5" x1="100.27" y1="389.56" x2="196.55" y2="332.57"/><line class="cls-6" x1="100.27" y1="389.56" x2="100.27" y2="389.55"/><line class="cls-7" x1="104.85" y1="386.85" x2="194.26" y2="333.93"/><line class="cls-6" x1="196.55" y1="332.57" x2="196.55" y2="332.57"/><line class="cls-5" x1="105.42" y1="391.54" x2="201.71" y2="334.56"/><line class="cls-6" x1="105.42" y1="391.54" x2="105.42" y2="391.54"/><line class="cls-7" x1="110" y1="388.83" x2="199.41" y2="335.91"/><line class="cls-6" x1="201.7" y1="334.56" x2="201.71" y2="334.56"/><line class="cls-5" x1="106.38" y1="395.64" x2="202.66" y2="338.65"/><line class="cls-6" x1="106.38" y1="395.64" x2="106.38" y2="395.64"/><line class="cls-7" x1="110.96" y1="392.93" x2="200.37" y2="340.01"/><line class="cls-6" x1="202.66" y1="338.66" x2="202.66" y2="338.65"/><line class="cls-5" x1="106.42" y1="399.99" x2="202.71" y2="343"/><line class="cls-6" x1="106.42" y1="399.99" x2="106.43" y2="399.99"/><line class="cls-7" x1="111" y1="397.28" x2="200.42" y2="344.36"/><line class="cls-6" x1="202.7" y1="343" x2="202.71" y2="343"/><line class="cls-5" x1="111.58" y1="401.98" x2="207.86" y2="344.99"/><line class="cls-6" x1="111.58" y1="401.98" x2="111.58" y2="401.97"/><line class="cls-7" x1="116.16" y1="399.27" x2="205.57" y2="346.35"/><line class="cls-6" x1="207.86" y1="344.99" x2="207.86" y2="344.99"/><line class="cls-5" x1="112.53" y1="406.07" x2="208.82" y2="349.09"/><line class="cls-6" x1="112.53" y1="406.07" x2="112.54" y2="406.07"/><line class="cls-7" x1="117.11" y1="403.36" x2="206.53" y2="350.44"/><line class="cls-6" x1="208.81" y1="349.09" x2="208.82" y2="349.09"/><line class="cls-5" x1="117.69" y1="408.06" x2="213.97" y2="351.07"/><line class="cls-6" x1="117.69" y1="408.06" x2="117.69" y2="408.06"/><line class="cls-7" x1="122.27" y1="405.35" x2="211.68" y2="352.43"/><line class="cls-6" x1="213.97" y1="351.08" x2="213.97" y2="351.07"/><line class="cls-5" x1="118.64" y1="412.16" x2="214.93" y2="355.17"/><line class="cls-6" x1="118.64" y1="412.16" x2="118.65" y2="412.16"/><line class="cls-7" x1="123.22" y1="409.45" x2="212.64" y2="356.53"/><line class="cls-6" x1="214.92" y1="355.17" x2="214.93" y2="355.17"/><line class="cls-5" x1="123.8" y1="414.15" x2="220.08" y2="357.16"/><line class="cls-6" x1="123.8" y1="414.15" x2="123.8" y2="414.14"/><line class="cls-7" x1="128.38" y1="411.44" x2="217.79" y2="358.52"/><line class="cls-6" x1="220.08" y1="357.16" x2="220.08" y2="357.16"/><line class="cls-5" x1="124.75" y1="418.24" x2="221.04" y2="361.26"/><line class="cls-6" x1="124.75" y1="418.24" x2="124.76" y2="418.24"/><line class="cls-7" x1="129.33" y1="415.53" x2="218.74" y2="362.61"/><line class="cls-6" x1="221.03" y1="361.26" x2="221.04" y2="361.26"/><line class="cls-5" x1="129.9" y1="420.23" x2="226.19" y2="363.24"/><line class="cls-6" x1="129.9" y1="420.23" x2="129.91" y2="420.23"/><line class="cls-7" x1="134.49" y1="417.52" x2="223.9" y2="364.6"/><line class="cls-6" x1="226.19" y1="363.25" x2="226.19" y2="363.24"/><line class="cls-5" x1="130.86" y1="424.33" x2="227.15" y2="367.34"/><line class="cls-6" x1="130.86" y1="424.33" x2="130.87" y2="424.33"/><line class="cls-7" x1="135.44" y1="421.62" x2="224.85" y2="368.7"/><line class="cls-6" x1="227.14" y1="367.34" x2="227.15" y2="367.34"/><line class="cls-5" x1="140.38" y1="423.08" x2="236.66" y2="366.09"/><line class="cls-6" x1="140.38" y1="423.08" x2="140.38" y2="423.08"/><line class="cls-7" x1="144.96" y1="420.37" x2="234.37" y2="367.45"/><line class="cls-6" x1="236.66" y1="366.09" x2="236.66" y2="366.09"/><line class="cls-5" x1="141.33" y1="427.18" x2="237.62" y2="370.19"/><line class="cls-6" x1="141.33" y1="427.18" x2="141.34" y2="427.17"/><line class="cls-7" x1="145.91" y1="424.47" x2="235.33" y2="371.55"/><line class="cls-6" x1="237.61" y1="370.19" x2="237.62" y2="370.19"/><line class="cls-5" x1="146.49" y1="429.16" x2="242.77" y2="372.18"/><line class="cls-6" x1="146.49" y1="429.16" x2="146.49" y2="429.16"/><line class="cls-7" x1="151.07" y1="426.45" x2="240.48" y2="373.53"/><line class="cls-6" x1="242.77" y1="372.18" x2="242.77" y2="372.18"/><line class="cls-5" x1="147.44" y1="433.26" x2="243.73" y2="376.27"/><line class="cls-6" x1="147.44" y1="433.26" x2="147.45" y2="433.26"/><line class="cls-7" x1="152.02" y1="430.55" x2="241.44" y2="377.63"/><line class="cls-6" x1="243.72" y1="376.28" x2="243.73" y2="376.27"/></g><polyline class="cls-16" points="194.95 399.68 194.83 443.17 169.34 458.19 169.47 413.75"/><polyline class="cls-16" points="247.67 368.43 247.55 411.92 222.07 426.94 222.19 382.5"/><polyline class="cls-16" points="294.25 340.44 294.13 383.94 268.64 398.95 268.77 354.52"/><polyline class="cls-16" points="354.26 305.08 354.14 347.53 326.69 364.61 326.82 320.17"/><polyline class="cls-16" points="506.2 214.51 506.08 258 480.6 273.02 480.72 228.58"/><polyline class="cls-16" points="563.08 180.57 562.96 223.23 534.99 240.74 535.11 196.3"/><line class="cls-2" x1="131.8" y1="364.7" x2="131.89" y2="332.26"/><line class="cls-2" x1="221.23" y1="428.33" x2="194.12" y2="412.98"/><line class="cls-2" x1="187.35" y1="396.36" x2="187.45" y2="362.83"/><polygon class="cls-2" points="477.18 173.9 559.78 181.72 534.94 196.44 476.81 189.91 478.13 199.55 504.5 214.48 480.76 228.56 392.02 178.32 415.76 164.25 452.01 184.77 444.5 147.21 468.84 132.78 477.18 173.9"/><path class="cls-2" d="M329.53,215.07a70.17,70.17,0,0,1,25.52-9,78.59,78.59,0,0,1,26.85.38L377,224.73a36.91,36.91,0,0,0-15.44-1,29.66,29.66,0,0,0-6.14,1.61,33,33,0,0,0-4.76,2.24c-3,1.78-4.89,3.7-5.67,5.75a8.56,8.56,0,0,0,0,6.22,16.15,16.15,0,0,0,4.39,6.09,40.13,40.13,0,0,0,7.34,5.28,53.35,53.35,0,0,0,10,4.34,51.31,51.31,0,0,0,10.91,2.22,43,43,0,0,0,10.67-.31,26.06,26.06,0,0,0,9.3-3.27,18.69,18.69,0,0,0,3.69-2.85,9.5,9.5,0,0,0,2.34-3.55,7.55,7.55,0,0,0,.27-4.07,9.64,9.64,0,0,0-2.45-4.42l31.24-4.75a13.9,13.9,0,0,1,3.21,8.23,18,18,0,0,1-2,8.7,31,31,0,0,1-6.11,8.25,46.07,46.07,0,0,1-9.09,7A64,64,0,0,1,398.3,274a102,102,0,0,1-23.4,1.78,112.6,112.6,0,0,1-23.21-3.34,79.73,79.73,0,0,1-19.79-7.68,46.7,46.7,0,0,1-13.2-10.71,24.89,24.89,0,0,1-5.91-12.87,21.55,21.55,0,0,1,3-13.53Q319.67,220.93,329.53,215.07Z"/><path class="cls-2" d="M231.06,274.21,351.94,305.4l-25.08,14.87-22.61-6.74-23,13.64L293.5,340,268.3,355l-56.48-69.36Zm53.17,32.36-37.42-12.29,21.71,21.6Z"/><polygon class="cls-2" points="157.19 318.19 245.93 368.43 222.19 382.5 187.45 362.83 158.47 380.01 193.22 399.68 169.47 413.75 80.73 363.51 104.47 349.44 137.22 367.98 166.2 350.8 133.45 332.26 157.19 318.19"/><polyline class="cls-2" points="168.52 459.61 79.02 407.63 79.14 363.55"/></g><line class="cls-2" x1="400" y1="237.9" x2="400" y2="251.92"/></g></g></svg>