<?xml version="1.0" encoding="utf-8"?>
<!-- Svg Vector Icons : http://www.onlinewebfonts.com/icon -->
<!DOCTYPE svg PUBLIC "-//W3C//DTD SVG 1.1//EN" "http://www.w3.org/Graphics/SVG/1.1/DTD/svg11.dtd">
<svg version="1.1" xmlns="http://www.w3.org/2000/svg" xmlns:xlink="http://www.w3.org/1999/xlink" x="0px" y="0px" viewBox="0 0 1000 1000" enable-background="new 0 0 1000 1000" xml:space="preserve">
<metadata> Svg Vector Icons : http://www.onlinewebfonts.com/icon </metadata>
<g><path d="M990,489.1c0-60.5-48.5-109.6-108-109.6c-28.4,0-53.9,10.9-73.3,29C737.9,358.8,642.5,326,536,319.9l47.8-159.8l146.5,29.5c5,49.5,46.3,88.2,96.7,88.2c0.2,0,0.2,0,0.4,0c0.2,0,0.2,0,0.4,0c53.7,0,97.1-44.1,97.1-98.4c0-54.3-43.7-98.4-97.3-98.4c-0.2,0-0.2,0-0.4,0H827c-37.5,0-69.8,21.4-86.2,53L545,94.7l-67.2,224.8l-5.5,0.2c-109.8,4.8-208.4,38-280.9,88.8c-19.2-18.1-45-29-73.3-29c-59.6,0-108,49.1-108,109.6c0,42.8,24,79.7,59.1,97.8c-1.7,10.7-2.6,21.4-2.6,32.3C66.7,784.6,260.8,919.1,500,919.1c239.2,0,433.3-134.5,433.3-300.1c0-10.9-0.9-21.6-2.4-32.3C966,568.5,990,531.6,990,489.1z M84.9,533c-14.4-9.8-23.8-26.4-23.8-45.4c0-30.1,24.2-54.8,53.9-54.8c12.2,0,23.6,4.1,32.7,11.1C118.3,469.9,96.4,500,84.9,533z M790.9,179.4c0-20.1,16.2-36.7,36-36.7c19.9,0,36,16.4,36,36.7c0,20.1-16.2,36.7-36,36.7C807.1,216,790.9,199.7,790.9,179.4z M287.2,570.7c0-38.4,31-69.4,69.4-69.4c38.4,0,69.4,31,69.4,69.4s-31,69.4-69.4,69.4C318.2,640.1,287.2,609.1,287.2,570.7z M500,814.3c-103.9-0.4-165.9-62.2-168.5-64.8l27.5-27.1c0.4,0.4,51.7,52.8,141,53.3c88-0.4,140.1-52.8,140.8-53.3l27.5,27.1C665.7,752.1,603.9,813.9,500,814.3z M644.7,640.1c-38.4,0-69.4-31-69.4-69.4s31-69.4,69.4-69.4c38.4,0,69.4,31,69.4,69.4S682.9,640.1,644.7,640.1z M915.6,533.8c-11.8-33.4-34-64.2-64-90.4c9.2-7.2,20.7-11.4,33.2-11.4c30.3,0,54.8,24.9,54.8,55.7C939.8,507,930.2,523.8,915.6,533.8z"/></g>
</svg>