<?xml version="1.0" encoding="utf-8"?>
<!-- Generator: Adobe Illustrator 21.1.0, SVG Export Plug-In . SVG Version: 6.00 Build 0)  -->
<svg version="1.1" xmlns="http://www.w3.org/2000/svg" xmlns:xlink="http://www.w3.org/1999/xlink" x="0px" y="0px"
	 viewBox="0 0 1383.3 1046.6" style="enable-background:new 0 0 1383.3 1046.6;" xml:space="preserve">
<style type="text/css">
	.st0{fill:#273954;}
	.st1{fill:#3E678C;stroke:#000000;stroke-width:9;stroke-miterlimit:10;}
	.st2{fill:#FF7D93;stroke:#000000;stroke-width:9;stroke-miterlimit:10;}
	.st3{fill:#FFC6D0;}
	.st4{fill:#F9ECEE;}
	.st5{fill:#FDF4E9;}
	.st6{fill:#3E678C;}
	.st7{fill:#903460;}
	.st8{fill:#E79DA0;}
	.st9{fill:#91A9CA;}
	.st10{fill:#BAD9F7;}
	.st11{fill:#F9DEE4;}
	.st12{fill:url(#SVGID_1_);}
	.st13{fill:#FFF8F9;}
	.st14{fill:#E2768D;}
	.st15{fill:#FF7D93;}
	.st16{fill:#A5A5A5;}
	.st17{opacity:0.8;fill:#FFF8F9;}
	.st18{opacity:0.7;fill:#E2768D;}
	.st19{opacity:0.4;fill:#E2768D;}
	.st20{opacity:0.4;}
	.st21{fill:#FEFEFE;}
	.st22{clip-path:url(#SVGID_3_);fill:#E2768D;}
	.st23{clip-path:url(#SVGID_3_);fill:#273954;}
	.st24{clip-path:url(#SVGID_5_);fill:#E2768D;}
	.st25{clip-path:url(#SVGID_5_);fill:#273954;}
	.st26{clip-path:url(#SVGID_7_);fill:#E2768D;}
	.st27{clip-path:url(#SVGID_7_);fill:#273954;}
	.st28{clip-path:url(#SVGID_9_);fill:#E2768D;}
	.st29{clip-path:url(#SVGID_9_);fill:#273954;}
	.st30{clip-path:url(#SVGID_11_);fill:#E2768D;}
	.st31{clip-path:url(#SVGID_11_);fill:#273954;}
	.st32{clip-path:url(#SVGID_13_);fill:#E2768D;}
	.st33{clip-path:url(#SVGID_13_);fill:#273954;}
	.st34{clip-path:url(#SVGID_15_);fill:#E2768D;}
	.st35{clip-path:url(#SVGID_15_);fill:#273954;}
	.st36{clip-path:url(#SVGID_17_);fill:#E2768D;}
	.st37{clip-path:url(#SVGID_17_);fill:#273954;}
	.st38{clip-path:url(#SVGID_19_);fill:#E2768D;}
	.st39{clip-path:url(#SVGID_19_);fill:#273954;}
	.st40{clip-path:url(#SVGID_21_);fill:#E2768D;}
	.st41{clip-path:url(#SVGID_21_);fill:#273954;}
	.st42{clip-path:url(#SVGID_23_);fill:#E2768D;}
	.st43{clip-path:url(#SVGID_23_);fill:#273954;}
	.st44{clip-path:url(#SVGID_25_);fill:#E2768D;}
	.st45{clip-path:url(#SVGID_25_);fill:#273954;}
	.st46{clip-path:url(#SVGID_27_);fill:#E2768D;}
	.st47{clip-path:url(#SVGID_27_);fill:#273954;}
	.st48{clip-path:url(#SVGID_29_);fill:#E2768D;}
	.st49{clip-path:url(#SVGID_29_);fill:#273954;}
	.st50{clip-path:url(#SVGID_31_);fill:#E2768D;}
	.st51{clip-path:url(#SVGID_31_);fill:#273954;}
	.st52{clip-path:url(#SVGID_33_);fill:#E2768D;}
	.st53{clip-path:url(#SVGID_33_);fill:#273954;}
	.st54{clip-path:url(#SVGID_35_);fill:#E2768D;}
	.st55{clip-path:url(#SVGID_35_);fill:#273954;}
	.st56{clip-path:url(#SVGID_37_);fill:#E2768D;}
	.st57{clip-path:url(#SVGID_37_);fill:#273954;}
	.st58{clip-path:url(#SVGID_39_);fill:#E2768D;}
	.st59{clip-path:url(#SVGID_39_);fill:#273954;}
	.st60{clip-path:url(#SVGID_41_);fill:#E2768D;}
	.st61{clip-path:url(#SVGID_41_);fill:#273954;}
	.st62{clip-path:url(#SVGID_43_);fill:#E2768D;}
	.st63{clip-path:url(#SVGID_43_);fill:#273954;}
	.st64{clip-path:url(#SVGID_45_);fill:#E2768D;}
	.st65{clip-path:url(#SVGID_45_);fill:#273954;}
	.st66{opacity:0.6;}
	.st67{clip-path:url(#SVGID_47_);fill:#FEFEFE;}
	.st68{clip-path:url(#SVGID_47_);fill:#FFC6D0;}
	.st69{clip-path:url(#SVGID_49_);fill:#F9ECEE;}
	.st70{opacity:0.4;clip-path:url(#SVGID_49_);fill:#E2768D;}
	.st71{clip-path:url(#SVGID_51_);fill:#E2768D;}
	.st72{clip-path:url(#SVGID_51_);fill:#273954;}
	.st73{fill:#3E678C;stroke:#91A9CA;stroke-miterlimit:10;}
	.st74{fill:url(#SVGID_52_);}
	.st75{opacity:0.3;fill:#FFF8F9;}
	.st76{opacity:0.7;fill:#FFF8F9;}
	.st77{fill:#FFFFFF;}
	.st78{fill:#E2E2E2;}
	.st79{fill:#D1D1D1;}
	.st80{fill:url(#SVGID_53_);}
	.st81{clip-path:url(#SVGID_55_);fill:#E2768D;}
	.st82{clip-path:url(#SVGID_55_);fill:#273954;}
	.st83{clip-path:url(#SVGID_57_);fill:#E2768D;}
	.st84{clip-path:url(#SVGID_57_);fill:#273954;}
	.st85{fill:#AD637A;}
	.st86{opacity:0.7;fill:#AD637A;}
	.st87{clip-path:url(#SVGID_59_);fill:#F9ECEE;}
	.st88{opacity:0.4;clip-path:url(#SVGID_59_);fill:#E2768D;}
	.st89{fill:#AF566D;}
	.st90{fill:#1A1A1A;}
	.st91{fill:url(#SVGID_60_);}
	.st92{fill:#FCFCFC;}
	.st93{fill:none;stroke:#FCFCFC;stroke-miterlimit:10;}
	.st94{clip-path:url(#SVGID_62_);fill:#E2768D;}
	.st95{clip-path:url(#SVGID_62_);fill:#273954;}
	.st96{clip-path:url(#SVGID_64_);fill:#E2768D;}
	.st97{clip-path:url(#SVGID_64_);fill:#273954;}
	.st98{clip-path:url(#SVGID_66_);fill:#F9ECEE;}
	.st99{opacity:0.4;clip-path:url(#SVGID_66_);fill:#E2768D;}
	.st100{fill:#606060;}
	.st101{fill:url(#SVGID_67_);}
	.st102{fill:#4A7BA0;}
	.st103{fill:none;stroke:#273954;stroke-miterlimit:10;}
	.st104{fill:url(#SVGID_68_);}
	.st105{opacity:0.5;fill:#FFF8F9;}
	.st106{clip-path:url(#SVGID_70_);fill:#E2768D;}
	.st107{clip-path:url(#SVGID_70_);fill:#273954;}
	.st108{clip-path:url(#SVGID_72_);fill:#E2768D;}
	.st109{clip-path:url(#SVGID_72_);fill:#273954;}
	.st110{clip-path:url(#SVGID_74_);fill:#E2768D;}
	.st111{clip-path:url(#SVGID_74_);fill:#273954;}
	.st112{clip-path:url(#SVGID_76_);fill:#E2768D;}
	.st113{clip-path:url(#SVGID_76_);fill:#273954;}
	.st114{clip-path:url(#SVGID_78_);fill:#E2768D;}
	.st115{clip-path:url(#SVGID_78_);fill:#273954;}
	.st116{clip-path:url(#SVGID_80_);fill:#E2768D;}
	.st117{clip-path:url(#SVGID_80_);fill:#273954;}
	.st118{clip-path:url(#SVGID_82_);fill:#E2768D;}
	.st119{clip-path:url(#SVGID_82_);fill:#273954;}
	.st120{clip-path:url(#SVGID_84_);fill:#E2768D;}
	.st121{clip-path:url(#SVGID_84_);fill:#273954;}
	.st122{clip-path:url(#SVGID_86_);fill:#FEFEFE;}
	.st123{clip-path:url(#SVGID_86_);fill:#FFC6D0;}
	.st124{clip-path:url(#SVGID_88_);fill:#F9ECEE;}
	.st125{opacity:0.4;clip-path:url(#SVGID_88_);fill:#E2768D;}
	.st126{clip-path:url(#SVGID_90_);fill:#E2768D;}
	.st127{clip-path:url(#SVGID_90_);fill:#273954;}
	.st128{opacity:0.4;fill:url(#SVGID_91_);}
	.st129{fill:url(#SVGID_92_);}
	.st130{opacity:0.5;}
	.st131{opacity:0.5;fill:#FFFFFF;}
	.st132{clip-path:url(#SVGID_94_);fill:#E2768D;}
	.st133{clip-path:url(#SVGID_94_);fill:#273954;}
	.st134{clip-path:url(#SVGID_96_);fill:#E2768D;}
	.st135{clip-path:url(#SVGID_96_);fill:#273954;}
	.st136{clip-path:url(#SVGID_98_);fill:#E2768D;}
	.st137{clip-path:url(#SVGID_98_);fill:#273954;}
	.st138{clip-path:url(#SVGID_100_);fill:#E2768D;}
	.st139{clip-path:url(#SVGID_100_);fill:#273954;}
	.st140{clip-path:url(#SVGID_102_);fill:#E2768D;}
	.st141{clip-path:url(#SVGID_102_);fill:#273954;}
	.st142{clip-path:url(#SVGID_104_);fill:#E2768D;}
	.st143{clip-path:url(#SVGID_104_);fill:#273954;}
	.st144{clip-path:url(#SVGID_106_);fill:#E2768D;}
	.st145{clip-path:url(#SVGID_106_);fill:#273954;}
	.st146{clip-path:url(#SVGID_108_);fill:#E2768D;}
	.st147{clip-path:url(#SVGID_108_);fill:#273954;}
	.st148{clip-path:url(#SVGID_110_);fill:#E2768D;}
	.st149{clip-path:url(#SVGID_110_);fill:#273954;}
	.st150{clip-path:url(#SVGID_112_);fill:#E2768D;}
	.st151{clip-path:url(#SVGID_112_);fill:#273954;}
	.st152{clip-path:url(#SVGID_114_);fill:#E2768D;}
	.st153{clip-path:url(#SVGID_114_);fill:#273954;}
	.st154{clip-path:url(#SVGID_116_);fill:#E2768D;}
	.st155{clip-path:url(#SVGID_116_);fill:#273954;}
	.st156{clip-path:url(#SVGID_118_);fill:#E2768D;}
	.st157{clip-path:url(#SVGID_118_);fill:#273954;}
	.st158{clip-path:url(#SVGID_120_);fill:#E2768D;}
	.st159{clip-path:url(#SVGID_120_);fill:#273954;}
	.st160{clip-path:url(#SVGID_122_);fill:#E2768D;}
	.st161{clip-path:url(#SVGID_122_);fill:#273954;}
	.st162{clip-path:url(#SVGID_124_);fill:#E2768D;}
	.st163{clip-path:url(#SVGID_124_);fill:#273954;}
	.st164{clip-path:url(#SVGID_126_);fill:#E2768D;}
	.st165{clip-path:url(#SVGID_126_);fill:#273954;}
	.st166{clip-path:url(#SVGID_128_);fill:#E2768D;}
	.st167{clip-path:url(#SVGID_128_);fill:#273954;}
	.st168{clip-path:url(#SVGID_130_);fill:#E2768D;}
	.st169{clip-path:url(#SVGID_130_);fill:#273954;}
	.st170{clip-path:url(#SVGID_132_);fill:#E2768D;}
	.st171{clip-path:url(#SVGID_132_);fill:#273954;}
	.st172{clip-path:url(#SVGID_134_);fill:#E2768D;}
	.st173{clip-path:url(#SVGID_134_);fill:#273954;}
	.st174{clip-path:url(#SVGID_136_);fill:#E2768D;}
	.st175{clip-path:url(#SVGID_136_);fill:#273954;}
	.st176{clip-path:url(#SVGID_138_);fill:#FEFEFE;}
	.st177{clip-path:url(#SVGID_138_);fill:#FFC6D0;}
	.st178{clip-path:url(#SVGID_140_);fill:#F9ECEE;}
	.st179{opacity:0.4;clip-path:url(#SVGID_140_);fill:#E2768D;}
	.st180{clip-path:url(#SVGID_142_);fill:#E2768D;}
	.st181{clip-path:url(#SVGID_142_);fill:#273954;}
</style>
<g id="Colours">
</g>
<g id="Cloud_shapes">
</g>
<g id="bg-gradient">
</g>
<g id="Layer_14">
</g>
<g id="Layer_15">
</g>
<g id="Layer_9">
</g>
<g id="Layer_7">
</g>
<g id="Layer_6">
</g>
<g id="Layer_11">
</g>
<g id="Layer_12">
</g>
<g id="Layer_13">
	<g>
		<path class="st14" d="M70.6,449.8v27.8c0,0.1-0.4,0.1-1,0.1H67c-0.6,0-1-0.1-1-0.1v-27.8c0-0.1,0.4-0.1,1-0.1h2.7
			C70.2,449.7,70.6,449.7,70.6,449.8z"/>
		<path class="st14" d="M81.7,449.8v27.8c0,0.1-0.4,0.1-1,0.1h-2.7c-0.6,0-1-0.1-1-0.1v-27.8c0-0.1,0.4-0.1,1-0.1h2.7
			C81.3,449.7,81.7,449.7,81.7,449.8z"/>
		<path class="st14" d="M92.9,449.8v27.8c0,0.1-0.4,0.1-1,0.1h-2.7c-0.6,0-1-0.1-1-0.1v-27.8c0-0.1,0.4-0.1,1-0.1h2.7
			C92.4,449.7,92.9,449.7,92.9,449.8z"/>
		<path class="st14" d="M104,449.8v27.8c0,0.1-0.4,0.1-1,0.1h-2.7c-0.6,0-1-0.1-1-0.1v-27.8c0-0.1,0.4-0.1,1-0.1h2.7
			C103.5,449.7,104,449.7,104,449.8z"/>
		<path class="st14" d="M115.1,449.8v27.8c0,0.1-0.4,0.1-1,0.1h-2.7c-0.6,0-1-0.1-1-0.1v-27.8c0-0.1,0.4-0.1,1-0.1h2.7
			C114.6,449.7,115.1,449.7,115.1,449.8z"/>
		<path class="st14" d="M126.2,449.8v27.8c0,0.1-0.4,0.1-1,0.1h-2.7c-0.6,0-1-0.1-1-0.1v-27.8c0-0.1,0.4-0.1,1-0.1h2.7
			C125.7,449.7,126.2,449.7,126.2,449.8z"/>
		<path class="st14" d="M137.3,449.8v27.8c0,0.1-0.4,0.1-1,0.1h-2.7c-0.6,0-1-0.1-1-0.1v-27.8c0-0.1,0.4-0.1,1-0.1h2.7
			C136.9,449.7,137.3,449.7,137.3,449.8z"/>
		<path class="st14" d="M148.4,449.8v27.8c0,0.1-0.4,0.1-1,0.1h-2.7c-0.6,0-1-0.1-1-0.1v-27.8c0-0.1,0.4-0.1,1-0.1h2.7
			C148,449.7,148.4,449.7,148.4,449.8z"/>
		<path class="st14" d="M159.5,449.8v27.8c0,0.1-0.4,0.1-1,0.1h-2.7c-0.6,0-1-0.1-1-0.1v-27.8c0-0.1,0.4-0.1,1-0.1h2.7
			C159.1,449.7,159.5,449.7,159.5,449.8z"/>
		<path class="st14" d="M170.6,449.8v27.8c0,0.1-0.4,0.1-1,0.1H167c-0.6,0-1-0.1-1-0.1v-27.8c0-0.1,0.4-0.1,1-0.1h2.7
			C170.2,449.7,170.6,449.7,170.6,449.8z"/>
		<path class="st14" d="M181.7,449.8v27.8c0,0.1-0.4,0.1-1,0.1h-2.7c-0.6,0-1-0.1-1-0.1v-27.8c0-0.1,0.4-0.1,1-0.1h2.7
			C181.3,449.7,181.7,449.7,181.7,449.8z"/>
		<path class="st14" d="M192.9,449.8v27.8c0,0.1-0.4,0.1-1,0.1h-2.7c-0.6,0-1-0.1-1-0.1v-27.8c0-0.1,0.4-0.1,1-0.1h2.7
			C192.4,449.7,192.9,449.7,192.9,449.8z"/>
		<path class="st14" d="M204,449.8v27.8c0,0.1-0.4,0.1-1,0.1h-2.7c-0.6,0-1-0.1-1-0.1v-27.8c0-0.1,0.4-0.1,1-0.1h2.7
			C203.5,449.7,204,449.7,204,449.8z"/>
		<path class="st14" d="M215.1,449.8v27.8c0,0.1-0.4,0.1-1,0.1h-2.7c-0.6,0-1-0.1-1-0.1v-27.8c0-0.1,0.4-0.1,1-0.1h2.7
			C214.6,449.7,215.1,449.7,215.1,449.8z"/>
		<path class="st14" d="M226.2,449.8v27.8c0,0.1-0.4,0.1-1,0.1h-2.7c-0.6,0-1-0.1-1-0.1v-27.8c0-0.1,0.4-0.1,1-0.1h2.7
			C225.7,449.7,226.2,449.7,226.2,449.8z"/>
		<path class="st14" d="M237.3,449.8v27.8c0,0.1-0.4,0.1-1,0.1h-2.7c-0.6,0-1-0.1-1-0.1v-27.8c0-0.1,0.4-0.1,1-0.1h2.7
			C236.9,449.7,237.3,449.7,237.3,449.8z"/>
		<path class="st14" d="M248.4,449.8v27.8c0,0.1-0.4,0.1-1,0.1h-2.7c-0.6,0-1-0.1-1-0.1v-27.8c0-0.1,0.4-0.1,1-0.1h2.7
			C248,449.7,248.4,449.7,248.4,449.8z"/>
		<path class="st14" d="M60.8,473.7h192.7c0.5,0,0.9,0.4,0.9,1v2.7c0,0.6-0.4,1-0.9,1H60.8c-0.5,0-0.9-0.4-0.9-1v-2.7
			C59.9,474.1,60.3,473.7,60.8,473.7z"/>
	</g>
	<path class="st4" d="M273.2,353.1H42.4c-2.4,0-4.4,1.9-4.4,4.2v685.2c0,2.3,2,4.2,4.4,4.2h230.8c2.4,0,4.4-1.9,4.4-4.2V357.3
		C277.6,355,275.6,353.1,273.2,353.1z M237.8,486.5c0,2.5-2,4.5-4.4,4.5h-152c-2.4,0-4.4-2-4.4-4.5v-87.4c0-2.5,2-4.5,4.4-4.5h152
		c2.4,0,4.4,2,4.4,4.5V486.5z"/>
	<g>
		<g class="st20">
			<g>
				<path class="st14" d="M108.7,531.4h-5.9H87.8h-5.9c0,0-11,274.6,0,286.8h2.3h22.2h2.3C119.6,806,108.7,531.4,108.7,531.4z"/>
				<path class="st14" d="M114.1,531.4H76.5c-4.5,0-8.2-3.7-8.2-8.2V517c0-4.5,3.7-8.2,8.2-8.2h37.7c4.5,0,8.2,3.7,8.2,8.2v6.2
					C122.3,527.7,118.6,531.4,114.1,531.4z"/>
			</g>
			<path class="st14" d="M118,831.7H72.6c-4.5,0-8.2-3.7-8.2-8.2v-10.6c0-4.5,3.7-8.2,8.2-8.2H118c4.5,0,8.2,3.7,8.2,8.2v10.6
				C126.2,828.1,122.5,831.7,118,831.7z"/>
		</g>
		<g>
			<g>
				<path class="st21" d="M113.5,531.4h-5.9H92.6h-5.9c0,0-11,274.6,0,286.8H89h22.2h2.3C124.5,806,113.5,531.4,113.5,531.4z"/>
				<path class="st21" d="M118.9,531.4H81.3c-4.5,0-8.2-3.7-8.2-8.2V517c0-4.5,3.7-8.2,8.2-8.2h37.7c4.5,0,8.2,3.7,8.2,8.2v6.2
					C127.2,527.7,123.5,531.4,118.9,531.4z"/>
			</g>
			<path class="st21" d="M122.8,831.7H77.4c-4.5,0-8.2-3.7-8.2-8.2v-10.6c0-4.5,3.7-8.2,8.2-8.2h45.4c4.5,0,8.2,3.7,8.2,8.2v10.6
				C131.1,828,127.4,831.7,122.8,831.7z"/>
		</g>
	</g>
	<g>
		<g class="st20">
			<g>
				<path class="st14" d="M231.5,531.4h-5.9h-14.9h-5.9c0,0-11,274.6,0,286.8h2.3h22.2h2.3C242.4,806,231.5,531.4,231.5,531.4z"/>
				<path class="st14" d="M236.9,531.4h-37.7c-4.5,0-8.2-3.7-8.2-8.2V517c0-4.5,3.7-8.2,8.2-8.2h37.7c4.5,0,8.2,3.7,8.2,8.2v6.2
					C245.1,527.7,241.4,531.4,236.9,531.4z"/>
			</g>
			<path class="st14" d="M240.8,831.7h-45.4c-4.5,0-8.2-3.7-8.2-8.2v-10.6c0-4.5,3.7-8.2,8.2-8.2h45.4c4.5,0,8.2,3.7,8.2,8.2v10.6
				C249,828.1,245.3,831.7,240.8,831.7z"/>
		</g>
		<g>
			<g>
				<path class="st21" d="M235.1,530.4h-5.9h-14.9h-5.9c0,0-11,274.6,0,286.8h2.3h22.2h2.3C246.1,805,235.1,530.4,235.1,530.4z"/>
				<path class="st21" d="M240.5,530.4h-37.7c-4.5,0-8.2-3.7-8.2-8.2V516c0-4.5,3.7-8.2,8.2-8.2h37.7c4.5,0,8.2,3.7,8.2,8.2v6.2
					C248.7,526.7,245.1,530.4,240.5,530.4z"/>
			</g>
			<path class="st21" d="M244.4,830.7H199c-4.5,0-8.2-3.7-8.2-8.2v-10.6c0-4.5,3.7-8.2,8.2-8.2h45.4c4.5,0,8.2,3.7,8.2,8.2v10.6
				C252.6,827,249,830.7,244.4,830.7z"/>
		</g>
	</g>
	<path class="st3" d="M1969.8,481.3v-14c0-0.7-0.7-1.3-1.7-1.3h-65.5v0H72.4v-0.1H6.8c-0.9,0-1.6,0.6-1.6,1.3v14.2
		c0,0.7,0.6,1.2,1.5,1.3c4.6,0.2,19.1,1.5,32.1,8.8v0.1h1880.4l16.5,0c0.3,0,0.6-0.1,0.9-0.2c12.9-7.1,27-8.3,31.6-8.6"/>
	<rect x="276.7" y="384.8" class="st4" width="1420" height="81.1"/>
	<rect x="38" y="491.4" class="st14" width="1898.1" height="17.9"/>
	<path class="st4" d="M614.2,363.7v7.4c0,0.6,0.4,1,1,1h0c2.6,0,4.9,1.3,6.4,3.3l2.9,4.2c2.1,3,3.2,6.6,3.2,10.3v59.7
		c0,0.6,0.4,1,1,1h45.4c0.6,0,1-0.4,1-1v-85.9c0-0.6-0.4-1-1-1h-58.9C614.7,362.7,614.2,363.1,614.2,363.7z"/>
	<path class="st4" d="M691.2,362.7h-62.8c-0.9,0-1.6-0.7-1.6-1.6v-29.5c0-0.9,0.7-1.6,1.6-1.6h62.8c0.9,0,1.6,0.7,1.6,1.6v29.5
		C692.8,362,692.1,362.7,691.2,362.7z"/>
	<path class="st4" d="M1362.4,363.7v7.4c0,0.6-0.4,1-1,1l0,0c-2.6,0-4.9,1.3-6.4,3.3l-2.9,4.2c-2.1,3-3.2,6.6-3.2,10.3v59.7
		c0,0.6-0.4,1-1,1h-45.4c-0.6,0-1-0.4-1-1v-85.9c0-0.6,0.4-1,1-1h58.9C1361.9,362.7,1362.4,363.1,1362.4,363.7z"/>
	<path class="st3" d="M1934,336h-35.1c-1.1,0-2,0.9-2,2l0,13c0,1-0.8,1.9-1.9,1.9l-156.5,0c-1,0-1.9-0.9-1.9-1.9V338
		c0-1.1-0.9-2-2-2h-35.1c-1.1,0-2,0.9-2,2l0.1,14.9L987,353l-710.6,0l0-14.9c0-1.1-0.9-2-2-2h-35.1c-1.1,0-2,0.9-2,2v13.1
		c0,1-0.8,1.9-1.9,1.9l-156.5,0c-1,0-1.9-0.9-1.9-1.9l0-13c0-1.1-0.9-2-2-2H40c-1.1,0-2,0.9-2,2v16.2v0.8v6.2v15.4H1934
		c1.1,0,2-0.9,2-2v-13.4V355v-0.8V338C1936,336.9,1935.1,336,1934,336z"/>
	<path class="st4" d="M1285.6,368h62.5c1,0,1.7-0.8,1.7-1.7v-34.5c0-1-0.8-1.7-1.7-1.7h-62.5c-1,0-1.7,0.8-1.7,1.7v34.5
		C1283.8,367.2,1284.6,368,1285.6,368z"/>
	<path class="st14" d="M673.9,349.1v16.8c0,1.1,0.9,2,2,2h616.4c1.1,0,2-0.9,2-2v-14.2c0-1.1-0.9-2-2-2L676,347.1
		C674.8,347.1,673.9,348,673.9,349.1z"/>
	<path class="st21" d="M1302.3,443.3H674.9c-0.4,0-0.7-0.3-0.7-0.7v-74.2c0-0.4,0.3-0.7,0.7-0.7h627.5c0.4,0,0.7,0.3,0.7,0.7v74.2
		C1303,443,1302.7,443.3,1302.3,443.3z"/>
	<g>
		<defs>
			<path id="SVGID_61_" d="M775.8,450.6h-61.5c-2.9,0-5.3-2.4-5.3-5.3v-49.8c0-13,10.5-23.5,23.5-23.5h25.2
				c13,0,23.5,10.5,23.5,23.5v49.8C781.2,448.2,778.8,450.6,775.8,450.6z"/>
		</defs>
		<clipPath id="SVGID_1_">
			<use xlink:href="#SVGID_61_"  style="overflow:visible;"/>
		</clipPath>
		<path style="clip-path:url(#SVGID_1_);fill:#E2768D;" d="M775.8,450.6h-61.5c-2.9,0-5.3-2.4-5.3-5.3v-49.8
			c0-13,10.5-23.5,23.5-23.5h25.2c13,0,23.5,10.5,23.5,23.5v49.8C781.2,448.2,778.8,450.6,775.8,450.6z"/>
		<path style="clip-path:url(#SVGID_1_);fill:#273954;" d="M774.8,448h-42.5c-5.1,0-9.3-4.2-9.3-9.3v-32.3
			c0-13.1,10.7-23.8,23.8-23.8h37.3v56.1C784.1,443.8,779.9,448,774.8,448z"/>
	</g>
	<g>
		<defs>
			<path id="SVGID_63_" d="M1196.7,450.6h61.5c2.9,0,5.3-2.4,5.3-5.3v-49.8c0-13-10.5-23.5-23.5-23.5h-25.2
				c-13,0-23.5,10.5-23.5,23.5v49.8C1191.4,448.2,1193.8,450.6,1196.7,450.6z"/>
		</defs>
		<clipPath id="SVGID_3_">
			<use xlink:href="#SVGID_63_"  style="overflow:visible;"/>
		</clipPath>
		<path class="st22" d="M1196.7,450.6h61.5c2.9,0,5.3-2.4,5.3-5.3v-49.8c0-13-10.5-23.5-23.5-23.5h-25.2c-13,0-23.5,10.5-23.5,23.5
			v49.8C1191.4,448.2,1193.8,450.6,1196.7,450.6z"/>
		<path class="st23" d="M1197.7,448h42.5c5.1,0,9.3-4.2,9.3-9.3v-32.3c0-13.1-10.7-23.8-23.8-23.8h-37.3v56.1
			C1188.5,443.8,1192.6,448,1197.7,448z"/>
	</g>
	<rect x="1035.8" y="163.6" class="st4" width="113.1" height="107.4"/>
	<rect x="922.6" y="163.6" class="st3" width="113.1" height="107.4"/>
	<rect x="817.1" y="163.6" class="st15" width="106.9" height="107.4"/>
	<g>
		<path class="st4" d="M673.9,325.1v11.8c0,1.2,1,2.1,2.1,2.1h616.3c1.2,0,2.1-1,2.1-2.1v-9.8c0-1.2-0.9-2.1-2.1-2.1l-616.3-2
			C674.9,323,673.9,324,673.9,325.1z"/>
		<path class="st4" d="M979.9,336l-322.7-1.2c-1.2,0-2.1,1-2.1,2.1v5.9c0,0.7,0.3,1.3,0.9,1.7l8.6,6.3c2,1.4,4.4,2.2,6.8,2.2h308h1
			h308.7c2,0,3.9-0.6,5.6-1.8l9.2-6.7c0.5-0.4,0.9-1,0.9-1.7V337c0-1.2-1-2.1-2.1-2.1L979.9,336z"/>
	</g>
	<path class="st4" d="M1154.1,187.1h-125.2c-4.2,0-7.6-3.4-7.6-7.6v-13.1c0-4.2,3.4-7.6,7.6-7.6h125.2c4.2,0,7.6,3.4,7.6,7.6v13.1
		C1161.6,183.7,1158.2,187.1,1154.1,187.1z"/>
	<path class="st14" d="M1107.4,253.9h-29.1c-1.8,0-3.2-1.4-3.2-3.2v-61.3c0-7.8,6.3-14,14-14h7.4c7.8,0,14,6.3,14,14v61.3
		C1110.6,252.5,1109.2,253.9,1107.4,253.9z"/>
	<path class="st0" d="M1097.7,251.3h-22.5v-61.1h22.5c3.4,0,6.1,2.7,6.1,6.1v48.8C1103.8,248.6,1101.1,251.3,1097.7,251.3z"/>
	<path class="st3" d="M1040.9,187.1H915.7c-4.2,0-7.6-3.4-7.6-7.6v-13.1c0-4.2,3.4-7.6,7.6-7.6h125.2c4.2,0,7.6,3.4,7.6,7.6v13.1
		C1048.4,183.7,1045.1,187.1,1040.9,187.1z"/>
	<path class="st14" d="M1003.2,253.9h-42.5c-2.5,0-4.5-2-4.5-4.5v-54.2c0-10.9,8.9-19.8,19.8-19.8h11.8c10.9,0,19.8,8.9,19.8,19.8
		v54.2C1007.7,251.9,1005.7,253.9,1003.2,253.9z"/>
	<path class="st0" d="M995.3,251.3h-26.8c-4.1,0-7.4-3.3-7.4-7.4v-46.3c0-4.1,3.3-7.4,7.4-7.4h26.8c4.1,0,7.4,3.3,7.4,7.4v46.3
		C1002.7,248,999.4,251.3,995.3,251.3z"/>
	<path class="st15" d="M928.7,187.1h-118c-4.1,0-7.4-3.3-7.4-7.4v-13.6c0-4.1,3.3-7.4,7.4-7.4h118c4.1,0,7.4,3.3,7.4,7.4v13.6
		C936.1,183.8,932.8,187.1,928.7,187.1z"/>
	<path class="st14" d="M885.6,253.9h-29.7c-1.8,0-3.3-1.5-3.3-3.3v-60.9c0-7.9,6.4-14.4,14.4-14.4h7.5c7.9,0,14.4,6.4,14.4,14.4
		v60.9C888.9,252.5,887.4,253.9,885.6,253.9z"/>
	<path class="st0" d="M888.9,251.3h-23.1c-3.4,0-6.2-2.8-6.2-6.2v-48.7c0-3.4,2.8-6.2,6.2-6.2h23.1V251.3z"/>
	<polygon class="st18" points="817.1,163.6 1148.8,163.6 817.1,182.4 	"/>
	<path class="st14" d="M38,375.8v9v4.1c0,1.3,1,2.3,2.3,2.3h34.6c1.3,0,2.3-1,2.3-2.3v-4.1h160.6v4.1c0,1.3,1,2.3,2.3,2.3h34.6
		c1.3,0,2.3-1,2.3-2.3v-4.1h1420.4v4.1c0,1.3,1,2.3,2.3,2.3h34.6c1.3,0,2.3-1,2.3-2.3v-4.1h160.6v4.1c0,1.3,1,2.3,2.3,2.3h34.6
		c1.3,0,2.3-1,2.3-2.3v-4.1v-9H38z"/>
	<path class="st14" d="M1323.1,442.3v16.4c0,0.6-0.5,1-1,1h-9.5c-4.3,0-8.3,1.8-11.2,5l0,0c-0.2,0.2-0.5,0.4-0.8,0.4h-119.7
		c-0.6,0-1-0.5-1-1v-21.8c0-0.6,0.5-1,1-1h141.2C1322.6,441.3,1323.1,441.8,1323.1,442.3z"/>
	<rect x="666" y="465.2" class="st3" width="628.9" height="318.1"/>
	<path class="st21" d="M1186.4,475.4H789.7c-2.2,0-3.9-1.8-3.9-4l-0.1-13.6c0-0.8,0.7-1.5,1.5-1.5h399.1c0.8,0,1.5,0.7,1.5,1.5v16.1
		C1187.9,474.7,1187.2,475.4,1186.4,475.4z"/>
	<g>
		<path class="st21" d="M821.5,496.5h-5.9h-14.9h-5.9c0,0-11,274.6,0,286.8h2.3h22.2h2.3C832.4,771.1,821.5,496.5,821.5,496.5z"/>
		<path class="st21" d="M826.9,496.5h-37.7c-4.5,0-8.2-3.7-8.2-8.2v-6.2c0-4.5,3.7-8.2,8.2-8.2h37.7c4.5,0,8.2,3.7,8.2,8.2v6.2
			C835.1,492.9,831.4,496.5,826.9,496.5z"/>
	</g>
	<g>
		<path class="st21" d="M943.1,496.5h-5.9h-14.9h-5.9c0,0-11,274.6,0,286.8h2.3h22.2h2.3C954,771.1,943.1,496.5,943.1,496.5z"/>
		<path class="st21" d="M948.5,496.5h-37.7c-4.5,0-8.2-3.7-8.2-8.2v-6.2c0-4.5,3.7-8.2,8.2-8.2h37.7c4.5,0,8.2,3.7,8.2,8.2v6.2
			C956.7,492.9,953,496.5,948.5,496.5z"/>
	</g>
	<g>
		<path class="st21" d="M1068.1,496.5h-5.9h-14.9h-5.9c0,0-11,274.6,0,286.8h2.3h22.2h2.3C1079.1,771.1,1068.1,496.5,1068.1,496.5z"
			/>
		<path class="st21" d="M1073.6,496.5h-37.7c-4.5,0-8.2-3.7-8.2-8.2v-6.2c0-4.5,3.7-8.2,8.2-8.2h37.7c4.5,0,8.2,3.7,8.2,8.2v6.2
			C1081.8,492.9,1078.1,496.5,1073.6,496.5z"/>
	</g>
	<g>
		<path class="st21" d="M1177.7,496.5h-5.9h-14.9h-5.9c0,0-11,274.6,0,286.8h2.3h22.2h2.3C1188.7,771.1,1177.7,496.5,1177.7,496.5z"
			/>
		<path class="st21" d="M1183.2,496.5h-37.7c-4.5,0-8.2-3.7-8.2-8.2v-6.2c0-4.5,3.7-8.2,8.2-8.2h37.7c4.5,0,8.2,3.7,8.2,8.2v6.2
			C1191.4,492.9,1187.7,496.5,1183.2,496.5z"/>
	</g>
	<path class="st19" d="M1187.8,465.2l107.1,0L814.8,783.3H614.3l-0.3-318.1l171.6,0l0.2,6.6c0.1,2,1.7,3.6,3.8,3.6h396.7
		c1,0,1.6-0.8,1.6-1.8L1187.8,465.2z"/>
	<g>
		<path class="st14" d="M1017,612.4h-53.6c-3.3,0-5.9-2.6-5.9-5.9v-74.1c0-14.3,11.6-25.9,25.9-25.9H997c14.3,0,25.9,11.6,25.9,25.9
			v74.1C1022.9,609.8,1020.3,612.4,1017,612.4z"/>
		<path class="st0" d="M1006.1,608.9h-32.4c-5.3,0-9.6-4.3-9.6-9.6V536c0-5.3,4.3-9.6,9.6-9.6h32.4c5.3,0,9.6,4.3,9.6,9.6v63.3
			C1015.7,604.6,1011.4,608.9,1006.1,608.9z"/>
	</g>
	<g>
		<path class="st14" d="M1126.1,612.4h-41.4c-2.9,0-5.2-2.3-5.2-5.2v-77.6c0-12.8,10.3-23.1,23.1-23.1h5.7
			c12.8,0,23.1,10.3,23.1,23.1v77.6C1131.4,610.1,1129,612.4,1126.1,612.4z"/>
		<path class="st0" d="M1113.1,608.9h-23.8c-4.7,0-8.5-3.8-8.5-8.5V535c0-4.7,3.8-8.5,8.5-8.5h23.8c4.7,0,8.5,3.8,8.5,8.5v65.4
			C1121.6,605.1,1117.8,608.9,1113.1,608.9z"/>
	</g>
	<g>
		<path class="st14" d="M1248.2,612.4h-41.4c-2.9,0-5.2-2.3-5.2-5.2v-77.6c0-12.8,10.3-23.1,23.1-23.1h5.7
			c12.8,0,23.1,10.3,23.1,23.1v77.6C1253.4,610.1,1251.1,612.4,1248.2,612.4z"/>
		<path class="st0" d="M1239.1,608.9h-23.8c-4.7,0-8.5-3.8-8.5-8.5V535c0-4.7,3.8-8.5,8.5-8.5h23.8c4.7,0,8.5,3.8,8.5,8.5v65.4
			C1247.7,605.1,1243.8,608.9,1239.1,608.9z"/>
		<path class="st14" d="M1248.2,612.4h-41.4c-2.9,0-5.2-2.3-5.2-5.2v-77.6c0-12.8,10.3-23.1,23.1-23.1h5.7
			c12.8,0,23.1,10.3,23.1,23.1v77.6C1253.4,610.1,1251.1,612.4,1248.2,612.4z"/>
		<path class="st0" d="M1233.9,608.9h-32.4v-82.4h32.4c4.7,0,8.5,3.8,8.5,8.5v65.4C1242.4,605.1,1238.6,608.9,1233.9,608.9z"/>
	</g>
	<g>
		<path class="st14" d="M847.8,612.4h41.4c2.9,0,5.2-2.3,5.2-5.2v-77.6c0-12.8-10.3-23.1-23.1-23.1h-5.7
			c-12.8,0-23.1,10.3-23.1,23.1v77.6C842.5,610.1,844.9,612.4,847.8,612.4z"/>
		<path class="st0" d="M860.6,608.9h23.8c4.7,0,8.5-3.8,8.5-8.5V535c0-4.7-3.8-8.5-8.5-8.5h-23.8c-4.7,0-8.5,3.8-8.5,8.5v65.4
			C852.1,605.1,855.9,608.9,860.6,608.9z"/>
	</g>
	<g>
		<path class="st14" d="M725.8,612.4h41.4c2.9,0,5.2-2.3,5.2-5.2v-77.6c0-12.8-10.3-23.1-23.1-23.1h-5.7
			c-12.8,0-23.1,10.3-23.1,23.1v77.6C720.5,610.1,722.9,612.4,725.8,612.4z"/>
		<path class="st0" d="M740.2,608.9h32.4v-82.4h-32.4c-4.7,0-8.5,3.8-8.5,8.5v65.4C731.7,605.1,735.5,608.9,740.2,608.9z"/>
	</g>
	<g>
		<path class="st14" d="M1017,759.7h-53.6c-3.3,0-5.9-2.6-5.9-5.9v-74.1c0-14.3,11.6-25.9,25.9-25.9H997c14.3,0,25.9,11.6,25.9,25.9
			v74.1C1022.9,757.1,1020.3,759.7,1017,759.7z"/>
		<path class="st0" d="M1006.1,756.1h-32.4c-5.3,0-9.6-4.3-9.6-9.6v-63.3c0-5.3,4.3-9.6,9.6-9.6h32.4c5.3,0,9.6,4.3,9.6,9.6v63.3
			C1015.7,751.9,1011.4,756.1,1006.1,756.1z"/>
	</g>
	<g>
		<path class="st14" d="M1126.1,759.7h-41.4c-2.9,0-5.2-2.3-5.2-5.2v-77.6c0-12.8,10.3-23.1,23.1-23.1h5.7
			c12.8,0,23.1,10.3,23.1,23.1v77.6C1131.4,757.4,1129,759.7,1126.1,759.7z"/>
		<path class="st0" d="M1113.1,756.1h-23.8c-4.7,0-8.5-3.8-8.5-8.5v-65.4c0-4.7,3.8-8.5,8.5-8.5h23.8c4.7,0,8.5,3.8,8.5,8.5v65.4
			C1121.6,752.3,1117.8,756.1,1113.1,756.1z"/>
	</g>
	<g>
		<path class="st14" d="M1248.2,759.7h-41.4c-2.9,0-5.2-2.3-5.2-5.2v-77.6c0-12.8,10.3-23.1,23.1-23.1h5.7
			c12.8,0,23.1,10.3,23.1,23.1v77.6C1253.4,757.4,1251.1,759.7,1248.2,759.7z"/>
		<path class="st0" d="M1239.1,756.1h-23.8c-4.7,0-8.5-3.8-8.5-8.5v-65.4c0-4.7,3.8-8.5,8.5-8.5h23.8c4.7,0,8.5,3.8,8.5,8.5v65.4
			C1247.7,752.3,1243.8,756.1,1239.1,756.1z"/>
		<path class="st14" d="M1248.2,759.7h-41.4c-2.9,0-5.2-2.3-5.2-5.2v-77.6c0-12.8,10.3-23.1,23.1-23.1h5.7
			c12.8,0,23.1,10.3,23.1,23.1v77.6C1253.4,757.4,1251.1,759.7,1248.2,759.7z"/>
		<path class="st0" d="M1233.9,756.1h-32.4v-82.4h32.4c4.7,0,8.5,3.8,8.5,8.5v65.4C1242.4,752.3,1238.6,756.1,1233.9,756.1z"/>
	</g>
	<g>
		<path class="st14" d="M847.8,759.7h41.4c2.9,0,5.2-2.3,5.2-5.2v-77.6c0-12.8-10.3-23.1-23.1-23.1h-5.7
			c-12.8,0-23.1,10.3-23.1,23.1v77.6C842.5,757.4,844.9,759.7,847.8,759.7z"/>
		<path class="st0" d="M860.6,756.1h23.8c4.7,0,8.5-3.8,8.5-8.5v-65.4c0-4.7-3.8-8.5-8.5-8.5h-23.8c-4.7,0-8.5,3.8-8.5,8.5v65.4
			C852.1,752.3,855.9,756.1,860.6,756.1z"/>
	</g>
	<g>
		<path class="st14" d="M725.8,759.7h41.4c2.9,0,5.2-2.3,5.2-5.2v-77.6c0-12.8-10.3-23.1-23.1-23.1h-5.7
			c-12.8,0-23.1,10.3-23.1,23.1v77.6C720.5,757.4,722.9,759.7,725.8,759.7z"/>
		<path class="st0" d="M740.2,756.1h32.4v-82.4h-32.4c-4.7,0-8.5,3.8-8.5,8.5v65.4C731.7,752.3,735.5,756.1,740.2,756.1z"/>
	</g>
	<path class="st3" d="M983.5,330.1l-225,78.1c-0.8,0.3-1.2,1.2-0.9,2l6.6,17.2c0.2,0.6,0.8,1,1.4,1h210.3h10.2h216.3
		c0.6,0,1.2-0.4,1.4-1l6.6-17.2c0.3-0.8-0.1-1.7-0.9-2l-225-78.1C984.1,330,983.8,330,983.5,330.1z"/>
	<path class="st14" d="M987.8,428.3L987.8,428.3H764.7l8.5,27.9c0.4,1.2,1.5,2.1,2.8,2.1h211.8v0h204c1.3,0,2.4-0.8,2.8-2.1
		l8.7-27.9H987.8z"/>
	<path class="st14" d="M982.9,350.6l-174.7,62c-1.2,0.4-0.9,2.2,0.4,2.2h27.7c6.8,0,13.5-1.1,19.9-3.3l126.7-43.6
		c0.7-0.2,1.4-0.2,2.1,0l129.6,44.6c4.5,1.6,9.2,2.3,14,2.3h30.7c1.3,0,1.6-1.7,0.4-2.2l-174.7-62
		C984.3,350.3,983.6,350.3,982.9,350.6z"/>
	<g>
		<circle class="st14" cx="983.9" cy="392.4" r="19"/>
		<circle class="st0" cx="983.9" cy="392.4" r="12"/>
	</g>
	<path class="st4" d="M614.2,363.7v7.4c0,0.6,0.4,1,1,1h0c2.6,0,4.9,1.3,6.4,3.3l2.9,4.2c2.1,3,3.2,6.6,3.2,10.3v59.7
		c0,0.6,0.4,1,1,1h45.4c0.6,0,1-0.4,1-1v-85.9c0-0.6-0.4-1-1-1h-58.9C614.7,362.7,614.2,363.1,614.2,363.7z"/>
	<path class="st4" d="M691.2,362.7h-62.8c-0.9,0-1.6-0.7-1.6-1.6v-29.5c0-0.9,0.7-1.6,1.6-1.6h62.8c0.9,0,1.6,0.7,1.6,1.6v29.5
		C692.8,362,692.1,362.7,691.2,362.7z"/>
	<path class="st4" d="M1362.4,363.7v7.4c0,0.6-0.4,1-1,1l0,0c-2.6,0-4.9,1.3-6.4,3.3l-2.9,4.2c-2.1,3-3.2,6.6-3.2,10.3v59.7
		c0,0.6-0.4,1-1,1h-45.4c-0.6,0-1-0.4-1-1v-85.9c0-0.6,0.4-1,1-1h58.9C1361.9,362.7,1362.4,363.1,1362.4,363.7z"/>
	<path class="st4" d="M1285.6,368h62.5c1,0,1.7-0.8,1.7-1.7v-34.5c0-1-0.8-1.7-1.7-1.7h-62.5c-1,0-1.7,0.8-1.7,1.7v34.5
		C1283.8,367.2,1284.6,368,1285.6,368z"/>
	<path class="st14" d="M673.9,349.1v16.8c0,1.1,0.9,2,2,2h616.4c1.1,0,2-0.9,2-2v-14.2c0-1.1-0.9-2-2-2L676,347.1
		C674.8,347.1,673.9,348,673.9,349.1z"/>
	<path class="st21" d="M1302.3,443.3H674.9c-0.4,0-0.7-0.3-0.7-0.7v-74.2c0-0.4,0.3-0.7,0.7-0.7h627.5c0.4,0,0.7,0.3,0.7,0.7v74.2
		C1303,443,1302.7,443.3,1302.3,443.3z"/>
	<path class="st19" d="M1196,465.2l98.9,0L851.5,783.3H666.4l-0.2-318.1l119.5,0l0.2,6.6c0.1,2,1.6,3.6,3.5,3.6h405.3
		c0.9,0,1.5-0.8,1.5-1.8L1196,465.2z"/>
	<rect x="277.6" y="509.3" class="st4" width="1419.1" height="331"/>
	<rect x="276.7" y="854.6" class="st4" width="1420" height="138.2"/>
	<path class="st3" d="M1969.8,840v-8.1c0-0.4-0.7-0.8-1.7-0.8h-65.4v0H76.6V831H11.1c-0.9,0-1.6,0.3-1.6,0.7v8.2
		c0,0.4,0.6,0.7,1.5,0.7c4.6,0.1,19,0.8,32,5.1v0.1h1876.3l16.5,0c0.3,0,0.6,0,0.9-0.1c12.8-4.1,26.9-4.8,31.6-5"/>
	<rect x="41.6" y="845.8" class="st14" width="1894.5" height="10.5"/>
	<rect x="1035.8" y="163.6" class="st4" width="113.1" height="107.4"/>
	<rect x="922.6" y="163.6" class="st3" width="113.1" height="107.4"/>
	<g class="st66">
		<g>
			<path class="st14" d="M817.6,496.9h-5.9h-14.9h-5.9c0,0-11,274.6,0,286.8h2.3h22.2h2.3C828.5,771.5,817.6,496.9,817.6,496.9z"/>
			<path class="st14" d="M823,496.9h-37.7c-4.5,0-8.2-3.7-8.2-8.2v-6.2c0-4.5,3.7-8.2,8.2-8.2H823c4.5,0,8.2,3.7,8.2,8.2v6.2
				C831.2,493.2,827.6,496.9,823,496.9z"/>
		</g>
		<path class="st14" d="M826.9,797.2h-45.4c-4.5,0-8.2-3.7-8.2-8.2v-10.6c0-4.5,3.7-8.2,8.2-8.2h45.4c4.5,0,8.2,3.7,8.2,8.2V789
			C835.1,793.5,831.4,797.2,826.9,797.2z"/>
	</g>
	<rect x="817.1" y="163.6" class="st14" width="106.9" height="107.4"/>
	<g>
		<path class="st0" d="M1136,161.1c0-83.2-67.5-150.7-150.7-150.7S834.6,77.8,834.6,161.1H1136z"/>
		<path class="st0" d="M985.3,10.4c16.1,0,31.7,2.6,46.3,7.3c-3.3-7.5-23.6-13.3-48.3-13.3c-26.3,0-47.7,6.6-48.7,14.8
			C950.4,13.5,967.5,10.4,985.3,10.4z"/>
		<path class="st0" d="M985.4,5.9c11.6,0,22.3,1.3,30.7,3.4C1011,3.8,999.2,0,985.4,0c-13.8,0-25.6,3.8-30.7,9.3
			C963.1,7.2,973.8,5.9,985.4,5.9z"/>
		<path class="st0" d="M1136,161.1c0-83.2-67.5-150.7-150.7-150.7S834.6,77.8,834.6,161.1H1136z"/>
		<path class="st0" d="M985.3,10.4c16.1,0,31.7,2.6,46.3,7.3c-3.3-7.5-23.6-13.3-48.3-13.3c-26.3,0-47.7,6.6-48.7,14.8
			C950.4,13.5,967.5,10.4,985.3,10.4z"/>
		<path class="st0" d="M985.4,5.9c11.6,0,22.3,1.3,30.7,3.4C1011,3.8,999.2,0,985.4,0c-13.8,0-25.6,3.8-30.7,9.3
			C963.1,7.2,973.8,5.9,985.4,5.9z"/>
	</g>
	<g>
		<path class="st4" d="M673.9,325.1v11.8c0,1.2,1,2.1,2.1,2.1h616.3c1.2,0,2.1-1,2.1-2.1v-9.8c0-1.2-0.9-2.1-2.1-2.1l-616.3-2
			C674.9,323,673.9,324,673.9,325.1z"/>
		<path class="st4" d="M979.9,336l-322.7-1.2c-1.2,0-2.1,1-2.1,2.1v5.9c0,0.7,0.3,1.3,0.9,1.7l8.6,6.3c2,1.4,4.4,2.2,6.8,2.2h308h1
			h308.7c2,0,3.9-0.6,5.6-1.8l9.2-6.7c0.5-0.4,0.9-1,0.9-1.7V337c0-1.2-1-2.1-2.1-2.1L979.9,336z"/>
	</g>
	<path class="st4" d="M1154.1,187.1h-125.2c-4.2,0-7.6-3.4-7.6-7.6v-13.1c0-4.2,3.4-7.6,7.6-7.6h125.2c4.2,0,7.6,3.4,7.6,7.6v13.1
		C1161.6,183.7,1158.2,187.1,1154.1,187.1z"/>
	<g>
		<path class="st14" d="M1107.4,268.1h-29.1c-1.8,0-3.2-1.4-3.2-3.2v-61.3c0-7.8,6.3-14,14-14h7.4c7.8,0,14,6.3,14,14v61.3
			C1110.6,266.7,1109.2,268.1,1107.4,268.1z"/>
		<path class="st0" d="M1097.7,265.4h-22.5v-61.1h22.5c3.4,0,6.1,2.7,6.1,6.1v48.8C1103.8,262.7,1101.1,265.4,1097.7,265.4z"/>
	</g>
	<path class="st3" d="M1040.9,187.1H915.7c-4.2,0-7.6-3.4-7.6-7.6v-13.1c0-4.2,3.4-7.6,7.6-7.6h125.2c4.2,0,7.6,3.4,7.6,7.6v13.1
		C1048.4,183.7,1045.1,187.1,1040.9,187.1z"/>
	<g>
		<path class="st14" d="M1003.2,268.1h-42.5c-2.5,0-4.5-2-4.5-4.5v-54.2c0-10.9,8.9-19.8,19.8-19.8h11.8c10.9,0,19.8,8.9,19.8,19.8
			v54.2C1007.7,266.1,1005.7,268.1,1003.2,268.1z"/>
		<path class="st0" d="M995.3,265.4h-26.8c-4.1,0-7.4-3.3-7.4-7.4v-41.3c0-6.8,5.5-12.3,12.3-12.3h16.9c6.8,0,12.3,5.5,12.3,13.3
			V259C1002.7,262.1,999.4,265.4,995.3,265.4z"/>
	</g>
	<path class="st14" d="M928.7,187.1h-118c-4.1,0-7.4-3.3-7.4-7.4v-13.6c0-4.1,3.3-7.4,7.4-7.4h118c4.1,0,7.4,3.3,7.4,7.4v13.6
		C936.1,183.8,932.8,187.1,928.7,187.1z"/>
	<g>
		<path class="st85" d="M885.6,268.1h-29.7c-1.8,0-3.3-1.5-3.3-3.3v-60.9c0-7.9,6.4-14.4,14.4-14.4h7.5c7.9,0,14.4,6.4,14.4,14.4
			v60.9C888.9,266.6,887.4,268.1,885.6,268.1z"/>
		<path class="st0" d="M888.9,265.4h-23.1c-3.4,0-6.2-2.8-6.2-6.2v-48.7c0-3.4,2.8-6.2,6.2-6.2h23.1V265.4z"/>
	</g>
	<polygon class="st86" points="817.1,187.1 1148.8,187.1 817.1,206 	"/>
	<rect x="666" y="465.2" class="st3" width="628.9" height="318.1"/>
	<g>
		<defs>
			<path id="SVGID_65_" d="M1369,441.3h-74.1c-0.7,0-1.3,2-1.3,4.4v15.4H673.9v-15.4c0-2.5-0.6-4.4-1.3-4.4h-74.1
				c-0.7,0-1.3,2-1.3,4.4v32.7c0,2.5,0.6,4.4,1.3,4.4c3.2,0,6.2,5.6,8,14.9l3.7,18.8c2.6,13.4,4,29.3,4,45.6v265.5
				c0,2.5,0.6,4.4,1.3,4.4h49.6h7.5h622.2h8.1h49c0.7,0,1.3-2,1.3-4.4V562.2c0-16.3,1.4-32.2,4-45.6l3.7-18.8
				c1.8-9.3,4.8-14.9,8-14.9c0.7,0,1.3-2,1.3-4.4v-32.7C1370.2,443.3,1369.7,441.3,1369,441.3z"/>
		</defs>
		<clipPath id="SVGID_5_">
			<use xlink:href="#SVGID_65_"  style="overflow:visible;"/>
		</clipPath>
		<path style="clip-path:url(#SVGID_5_);fill:#F9ECEE;" d="M1369,441.3h-74.1c-0.7,0-1.3,2.3-1.3,5.1v17.7H673.9v-17.7
			c0-2.8-0.6-5.1-1.3-5.1h-74.1c-0.7,0-1.3,2.3-1.3,5.1v37.5c0,2.8,0.6,5.1,1.3,5.1c3.2,0,6.2,6.4,8,17.1l3.7,21.5
			c2.6,15.3,4,33.6,4,52.2v304.2c0,2.8,0.6,5.1,1.3,5.1h49.6h7.5h622.2h8.1h49c0.7,0,1.3-2.3,1.3-5.1V579.9c0-18.7,1.4-36.9,4-52.2
			l3.7-21.5c1.8-10.7,4.8-17.1,8-17.1c0.7,0,1.3-2.3,1.3-5.1v-37.5C1370.2,443.6,1369.7,441.3,1369,441.3z"/>
		<path style="opacity:0.4;clip-path:url(#SVGID_5_);fill:#E2768D;" d="M1158,436.4l107.5,0L783.6,832.1H582.4l-0.3-395.7l172.2,0
			l0.2,8.2c0.1,2.5,1.7,4.5,3.8,4.5h398.1c1,0,1.6-1,1.6-2.3L1158,436.4z"/>
	</g>
	<polygon class="st19" points="757.4,832.4 757.4,458.7 1234.3,462 783.6,832.1 	"/>
	<g class="st20">
		<g>
			<path class="st14" d="M939.9,497.9H934H919h-5.9c0,0-11,274.6,0,286.8h2.3h22.2h2.3C950.9,772.5,939.9,497.9,939.9,497.9z"/>
			<path class="st14" d="M945.3,497.9h-37.7c-4.5,0-8.2-3.7-8.2-8.2v-6.2c0-4.5,3.7-8.2,8.2-8.2h37.7c4.5,0,8.2,3.7,8.2,8.2v6.2
				C953.6,494.2,949.9,497.9,945.3,497.9z"/>
		</g>
		<path class="st14" d="M949.2,798.2h-45.4c-4.5,0-8.2-3.7-8.2-8.2v-10.6c0-4.5,3.7-8.2,8.2-8.2h45.4c4.5,0,8.2,3.7,8.2,8.2V790
			C957.4,794.5,953.8,798.2,949.2,798.2z"/>
	</g>
	<g class="st20">
		<g>
			<path class="st14" d="M819.3,498.9h-5.9h-14.9h-5.9c0,0-11,274.6,0,286.8h2.3h22.2h2.3C830.2,773.5,819.3,498.9,819.3,498.9z"/>
			<path class="st14" d="M824.7,498.9H787c-4.5,0-8.2-3.7-8.2-8.2v-6.2c0-4.5,3.7-8.2,8.2-8.2h37.7c4.5,0,8.2,3.7,8.2,8.2v6.2
				C832.9,495.2,829.2,498.9,824.7,498.9z"/>
		</g>
		<path class="st14" d="M828.6,799.2h-45.4c-4.5,0-8.2-3.7-8.2-8.2v-10.6c0-4.5,3.7-8.2,8.2-8.2h45.4c4.5,0,8.2,3.7,8.2,8.2V791
			C836.8,795.5,833.1,799.2,828.6,799.2z"/>
	</g>
	<g>
		<path class="st14" d="M369,992.9h-65.4c-1.4,0-2.5-1.1-2.5-2.5v-68.1c0-18.5,15-33.5,33.5-33.5h3.4c18.5,0,33.5,15,33.5,33.5v68.1
			C371.5,991.8,370.4,992.9,369,992.9z"/>
		<path class="st0" d="M366.1,992.2h-47.2c-1.3,0-2.4-1.1-2.4-2.4v-67.4c0-14.1,11.4-25.6,25.6-25.6h0.9c14.1,0,25.6,11.4,25.6,25.6
			v67.4C368.5,991.1,367.4,992.2,366.1,992.2z"/>
	</g>
	<g>
		<path class="st14" d="M448.2,992.9h-65.4c-1.4,0-2.5-1.1-2.5-2.5v-68.1c0-18.5,15-33.5,33.5-33.5h3.4c18.5,0,33.5,15,33.5,33.5
			v68.1C450.7,991.8,449.6,992.9,448.2,992.9z"/>
		<path class="st0" d="M445.3,992.2h-47.2c-1.3,0-2.4-1.1-2.4-2.4v-67.4c0-14.1,11.4-25.6,25.6-25.6h0.9c14.1,0,25.6,11.4,25.6,25.6
			v67.4C447.7,991.1,446.6,992.2,445.3,992.2z"/>
	</g>
	<path class="st14" d="M1137.1,776.7H830.9c-1.1,0-2-0.9-2-2v-13.5c0-1.1,0.9-2,2-2h306.2c1.1,0,2,0.9,2,2v13.5
		C1139.1,775.8,1138.2,776.7,1137.1,776.7z"/>
	<path class="st14" d="M1148.9,794.9H822.6c-1.1,0-2.1-0.9-2.1-2.1V779c0-1.1,0.9-2.1,2.1-2.1h326.2c1.1,0,2.1,0.9,2.1,2.1v13.9
		C1150.9,794,1150,794.9,1148.9,794.9z"/>
	<rect x="828.9" y="776.2" class="st89" width="310.2" height="1.6"/>
	<path class="st14" d="M217.2,1043.3H111.1c-2.2,0-4-1.8-4-4V927.4c0-30.2,24.5-54.6,54.6-54.6h4.9c30.2,0,54.6,24.5,54.6,54.6
		v111.9C221.3,1041.5,219.5,1043.3,217.2,1043.3z"/>
	<g>
		<g>
			<path class="st21" d="M821.5,497.5h-5.9h-14.9h-5.9c0,0-11,274.6,0,286.8h2.3h22.2h2.3C832.4,772.1,821.5,497.5,821.5,497.5z"/>
			<path class="st21" d="M826.9,497.5h-37.7c-4.5,0-8.2-3.7-8.2-8.2v-6.2c0-4.5,3.7-8.2,8.2-8.2h37.7c4.5,0,8.2,3.7,8.2,8.2v6.2
				C835.1,493.9,831.4,497.5,826.9,497.5z"/>
		</g>
		<path class="st21" d="M830.8,797.9h-45.4c-4.5,0-8.2-3.7-8.2-8.2V779c0-4.5,3.7-8.2,8.2-8.2h45.4c4.5,0,8.2,3.7,8.2,8.2v10.6
			C839,794.2,835.3,797.9,830.8,797.9z"/>
	</g>
	<path class="st0" d="M212.1,1042.2h-81.8c-2.2,0-4.1-1.8-4.1-4.1V928.8c0-23.8,19.3-43,43-43h3.9c23.8,0,43,19.3,43,43v109.3
		C216.2,1040.4,214.3,1042.2,212.1,1042.2z"/>
	<g>
		<path class="st14" d="M774.8,436.7H697c-3.3,0-5.9-2.7-5.9-5.9v-51.9c0-3.3,2.7-5.9,5.9-5.9h77.8c3.3,0,5.9,2.7,5.9,5.9v51.9
			C780.7,434,778.1,436.7,774.8,436.7z"/>
		<path class="st0" d="M769.5,432.9H743c-1.9,0-3.4-1.5-3.4-3.4v-48.8c0-1.9,1.5-3.4,3.4-3.4h26.5c1.9,0,3.4,1.5,3.4,3.4v48.8
			C772.9,431.4,771.4,432.9,769.5,432.9z"/>
		<path class="st0" d="M728.9,432.9h-26.7c-1.9,0-3.4-1.5-3.4-3.4v-48.8c0-1.9,1.5-3.4,3.4-3.4h26.7c1.9,0,3.4,1.5,3.4,3.4v48.8
			C732.3,431.4,730.8,432.9,728.9,432.9z"/>
	</g>
	<g>
		<path class="st14" d="M1281.9,436.7h-77.8c-3.3,0-5.9-2.7-5.9-5.9v-51.9c0-3.3,2.7-5.9,5.9-5.9h77.8c3.3,0,5.9,2.7,5.9,5.9v51.9
			C1287.8,434,1285.2,436.7,1281.9,436.7z"/>
		<path class="st0" d="M1276.6,432.9h-26.5c-1.9,0-3.4-1.5-3.4-3.4v-48.8c0-1.9,1.5-3.4,3.4-3.4h26.5c1.9,0,3.4,1.5,3.4,3.4v48.8
			C1280,431.4,1278.4,432.9,1276.6,432.9z"/>
		<path class="st0" d="M1236,432.9h-26.7c-1.9,0-3.4-1.5-3.4-3.4v-48.8c0-1.9,1.5-3.4,3.4-3.4h26.7c1.9,0,3.4,1.5,3.4,3.4v48.8
			C1239.4,431.4,1237.9,432.9,1236,432.9z"/>
	</g>
	<path class="st3" d="M983.5,330.1l-225,78.1c-0.8,0.3-1.2,1.2-0.9,2l6.6,17.2c0.2,0.6,0.8,1,1.4,1h210.3h10.2h216.3
		c0.6,0,1.2-0.4,1.4-1l6.6-17.2c0.3-0.8-0.1-1.7-0.9-2l-225-78.1C984.1,330,983.8,330,983.5,330.1z"/>
	<path class="st14" d="M987.8,428.3L987.8,428.3H764.7l8.5,27.9c0.4,1.2,1.5,2.1,2.8,2.1h211.8v0h204c1.3,0,2.4-0.8,2.8-2.1
		l8.7-27.9H987.8z"/>
	<path class="st14" d="M982.9,350.6l-174.7,62c-1.2,0.4-0.9,2.2,0.4,2.2h27.7c6.8,0,13.5-1.1,19.9-3.3l126.7-43.6
		c0.7-0.2,1.4-0.2,2.1,0l129.6,44.6c4.5,1.6,9.2,2.3,14,2.3h30.7c1.3,0,1.6-1.7,0.4-2.2l-174.7-62
		C984.3,350.3,983.6,350.3,982.9,350.6z"/>
	<g>
		<circle class="st14" cx="983.9" cy="392.4" r="19"/>
		<circle class="st0" cx="983.9" cy="392.4" r="12"/>
	</g>
	<g class="st20">
		<g>
			<path class="st14" d="M1173.8,498h-5.9H1153h-5.9c0,0-11,274.6,0,286.8h2.3h22.2h2.3C1184.8,772.6,1173.8,498,1173.8,498z"/>
			<path class="st14" d="M1179.2,498h-37.7c-4.5,0-8.2-3.7-8.2-8.2v-6.2c0-4.5,3.7-8.2,8.2-8.2h37.7c4.5,0,8.2,3.7,8.2,8.2v6.2
				C1187.5,494.4,1183.8,498,1179.2,498z"/>
		</g>
		<path class="st14" d="M1183.1,798.4h-45.4c-4.5,0-8.2-3.7-8.2-8.2v-10.6c0-4.5,3.7-8.2,8.2-8.2h45.4c4.5,0,8.2,3.7,8.2,8.2v10.6
			C1191.4,794.7,1187.7,798.4,1183.1,798.4z"/>
	</g>
	<g class="st20">
		<g>
			<path class="st14" d="M1060.3,497.9h-5.9h-14.9h-5.9c0,0-11,274.6,0,286.8h2.3h22.2h2.3C1071.3,772.5,1060.3,497.9,1060.3,497.9z
				"/>
			<path class="st14" d="M1065.8,497.9h-37.7c-4.5,0-8.2-3.7-8.2-8.2v-6.2c0-4.5,3.7-8.2,8.2-8.2h37.7c4.5,0,8.2,3.7,8.2,8.2v6.2
				C1074,494.2,1070.3,497.9,1065.8,497.9z"/>
		</g>
		<path class="st14" d="M1069.7,798.2h-45.4c-4.5,0-8.2-3.7-8.2-8.2v-10.6c0-4.5,3.7-8.2,8.2-8.2h45.4c4.5,0,8.2,3.7,8.2,8.2V790
			C1077.9,794.5,1074.2,798.2,1069.7,798.2z"/>
	</g>
	<path class="st21" d="M1186.4,475.4H789.7c-2.2,0-3.9-1.8-3.9-4l-0.1-13.6c0-0.8,0.7-1.5,1.5-1.5h399.1c0.8,0,1.5,0.7,1.5,1.5v16.1
		C1187.9,474.7,1187.2,475.4,1186.4,475.4z"/>
	<g>
		<g>
			<path class="st21" d="M1177.7,496.5h-5.9h-14.9h-5.9c0,0-11,274.6,0,286.8h2.3h22.2h2.3C1188.7,771.1,1177.7,496.5,1177.7,496.5z
				"/>
			<path class="st21" d="M1183.2,496.5h-37.7c-4.5,0-8.2-3.7-8.2-8.2v-6.2c0-4.5,3.7-8.2,8.2-8.2h37.7c4.5,0,8.2,3.7,8.2,8.2v6.2
				C1191.4,492.9,1187.7,496.5,1183.2,496.5z"/>
		</g>
		<path class="st21" d="M1187,796.9h-45.4c-4.5,0-8.2-3.7-8.2-8.2V778c0-4.5,3.7-8.2,8.2-8.2h45.4c4.5,0,8.2,3.7,8.2,8.2v10.6
			C1195.3,793.2,1191.6,796.9,1187,796.9z"/>
	</g>
	<g>
		<g>
			<path class="st21" d="M943.1,496.5h-5.9h-14.9h-5.9c0,0-11,274.6,0,286.8h2.3h22.2h2.3C954,771.1,943.1,496.5,943.1,496.5z"/>
			<path class="st21" d="M948.5,496.5h-37.7c-4.5,0-8.2-3.7-8.2-8.2v-6.2c0-4.5,3.7-8.2,8.2-8.2h37.7c4.5,0,8.2,3.7,8.2,8.2v6.2
				C956.7,492.9,953,496.5,948.5,496.5z"/>
		</g>
		<path class="st21" d="M952.4,796.9h-45.4c-4.5,0-8.2-3.7-8.2-8.2V778c0-4.5,3.7-8.2,8.2-8.2h45.4c4.5,0,8.2,3.7,8.2,8.2v10.6
			C960.6,793.2,956.9,796.9,952.4,796.9z"/>
	</g>
	<g>
		<g>
			<path class="st21" d="M1064.2,496.5h-5.9h-14.9h-5.9c0,0-11,274.6,0,286.8h2.3h22.2h2.3C1075.2,771.1,1064.2,496.5,1064.2,496.5z
				"/>
			<path class="st21" d="M1069.7,496.5H1032c-4.5,0-8.2-3.7-8.2-8.2v-6.2c0-4.5,3.7-8.2,8.2-8.2h37.7c4.5,0,8.2,3.7,8.2,8.2v6.2
				C1077.9,492.9,1074.2,496.5,1069.7,496.5z"/>
		</g>
		<path class="st21" d="M1073.6,796.9h-45.4c-4.5,0-8.2-3.7-8.2-8.2V778c0-4.5,3.7-8.2,8.2-8.2h45.4c4.5,0,8.2,3.7,8.2,8.2v10.6
			C1081.8,793.2,1078.1,796.9,1073.6,796.9z"/>
	</g>
	<polygon class="st19" points="276.7,384.8 627.8,384.8 276.7,394.6 	"/>
	<polygon class="st19" points="38.2,384.8 276.7,384.8 38.2,394.6 	"/>
	<path class="st0" d="M1134,158.8H836.6c-1.1,0-1.9-0.9-1.9-1.9v-31.5c0-1.1,0.9-1.9,1.9-1.9H1134c1.1,0,1.9,0.9,1.9,1.9v31.5
		C1136,158,1135.1,158.8,1134,158.8z"/>
	<g>
		<g>
			<path class="st14" d="M131.2,665.7h57.2c3.4,0,6.2-2.8,6.2-6.2V549.9c0-3.4-2.8-6.2-6.2-6.2h-57.2c-3.4,0-6.2,2.8-6.2,6.2v109.6
				C125,662.9,127.8,665.7,131.2,665.7z"/>
		</g>
		<path class="st0" d="M146.4,659.3H188c3.6,0,6.6-3,6.6-6.6v-94c0-3.6-3-6.6-6.6-6.6h-41.6c-3.6,0-6.6,3-6.6,6.6v94
			C139.8,656.4,142.7,659.3,146.4,659.3z"/>
	</g>
	<g>
		<g>
			<path class="st14" d="M131.2,793.3h57.2c3.4,0,6.2-2.8,6.2-6.2V677.5c0-3.4-2.8-6.2-6.2-6.2h-57.2c-3.4,0-6.2,2.8-6.2,6.2v109.6
				C125,790.5,127.8,793.3,131.2,793.3z"/>
		</g>
		<path class="st0" d="M146.4,786.9H188c3.6,0,6.6-3,6.6-6.6v-94c0-3.6-3-6.6-6.6-6.6h-41.6c-3.6,0-6.6,3-6.6,6.6v94
			C139.8,784,142.7,786.9,146.4,786.9z"/>
	</g>
	<g>
		<g>
			<path class="st14" d="M655.9,654.5h67c4,0,7.3-3.3,7.3-7.3V518.9c0-4-3.3-7.3-7.3-7.3h-67c-4,0-7.3,3.3-7.3,7.3v128.3
				C648.6,651.2,651.8,654.5,655.9,654.5z"/>
		</g>
		<path class="st0" d="M673.6,647h48.8c4.3,0,7.7-3.5,7.7-7.7V529.2c0-4.3-3.5-7.7-7.7-7.7h-48.8c-4.3,0-7.7,3.5-7.7,7.7v110.1
			C665.9,643.6,669.3,647,673.6,647z"/>
	</g>
	<g>
		<g>
			<path class="st14" d="M655.9,812.5h67c4,0,7.3-3.3,7.3-7.3V677c0-4-3.3-7.3-7.3-7.3h-67c-4,0-7.3,3.3-7.3,7.3v128.3
				C648.6,809.3,651.8,812.5,655.9,812.5z"/>
		</g>
		<path class="st0" d="M673.6,805.1h48.8c4.3,0,7.7-3.5,7.7-7.7V687.3c0-4.3-3.5-7.7-7.7-7.7h-48.8c-4.3,0-7.7,3.5-7.7,7.7v110.1
			C665.9,801.6,669.3,805.1,673.6,805.1z"/>
	</g>
	<g>
		<g>
			<path class="st14" d="M1311,654.5h-67c-4,0-7.3-3.3-7.3-7.3V518.9c0-4,3.3-7.3,7.3-7.3h67c4,0,7.3,3.3,7.3,7.3v128.3
				C1318.3,651.2,1315.1,654.5,1311,654.5z"/>
		</g>
		<path class="st0" d="M1293.3,647h-48.8c-4.3,0-7.7-3.5-7.7-7.7V529.2c0-4.3,3.5-7.7,7.7-7.7h48.8c4.3,0,7.7,3.5,7.7,7.7v110.1
			C1301.1,643.6,1297.6,647,1293.3,647z"/>
	</g>
	<g>
		<g>
			<path class="st14" d="M1311,812.5h-67c-4,0-7.3-3.3-7.3-7.3V677c0-4,3.3-7.3,7.3-7.3h67c4,0,7.3,3.3,7.3,7.3v128.3
				C1318.3,809.3,1315.1,812.5,1311,812.5z"/>
		</g>
		<path class="st0" d="M1293.3,805.1h-48.8c-4.3,0-7.7-3.5-7.7-7.7V687.3c0-4.3,3.5-7.7,7.7-7.7h48.8c4.3,0,7.7,3.5,7.7,7.7v110.1
			C1301.1,801.6,1297.6,805.1,1293.3,805.1z"/>
	</g>
	<polyline class="st19" points="614.2,509.3 276.7,522.1 276.7,509.3 	"/>
	<polyline class="st19" points="276.7,509.3 38,522.5 38,509.8 	"/>
	<polyline class="st19" points="276.7,854.5 777.1,854.6 276.7,866.7 	"/>
	<polyline class="st19" points="37.8,854 291.4,854.6 37.8,866.3 	"/>
	<g>
		<path class="st14" d="M526.3,992.9h-65.4c-1.4,0-2.5-1.1-2.5-2.5v-68.1c0-18.5,15-33.5,33.5-33.5h3.4c18.5,0,33.5,15,33.5,33.5
			v68.1C528.8,991.8,527.7,992.9,526.3,992.9z"/>
		<path class="st0" d="M523.4,992.2h-47.2c-1.3,0-2.4-1.1-2.4-2.4v-67.4c0-14.1,11.4-25.6,25.6-25.6h0.9c14.1,0,25.6,11.4,25.6,25.6
			v67.4C525.8,991.1,524.7,992.2,523.4,992.2z"/>
	</g>
	<g>
		<path class="st14" d="M605.5,992.9h-65.4c-1.4,0-2.5-1.1-2.5-2.5v-68.1c0-18.5,15-33.5,33.5-33.5h3.4c18.5,0,33.5,15,33.5,33.5
			v68.1C607.9,991.8,606.8,992.9,605.5,992.9z"/>
		<path class="st0" d="M602.6,992.2h-47.2c-1.3,0-2.4-1.1-2.4-2.4v-67.4c0-14.1,11.4-25.6,25.6-25.6h0.9c14.1,0,25.6,11.4,25.6,25.6
			v67.4C605,991.1,604,992.2,602.6,992.2z"/>
	</g>
	<g>
		<path class="st14" d="M683.6,992.9h-65.4c-1.4,0-2.5-1.1-2.5-2.5v-68.1c0-18.5,15-33.5,33.5-33.5h3.4c18.5,0,33.5,15,33.5,33.5
			v68.1C686.1,991.8,685,992.9,683.6,992.9z"/>
		<path class="st0" d="M680.8,992.2h-47.2c-1.3,0-2.4-1.1-2.4-2.4v-67.4c0-14.1,11.4-25.6,25.6-25.6h0.9c14.1,0,25.6,11.4,25.6,25.6
			v67.4C683.2,991.1,682.2,992.2,680.8,992.2z"/>
	</g>
	<g>
		<path class="st14" d="M762.8,992.9h-65.4c-1.4,0-2.5-1.1-2.5-2.5v-68.1c0-18.5,15-33.5,33.5-33.5h3.4c18.5,0,33.5,15,33.5,33.5
			v68.1C765.3,991.8,764.2,992.9,762.8,992.9z"/>
		<path class="st0" d="M759.5,992.2h-47.2c-1.3,0-2.4-1.1-2.4-2.4v-67.4c0-14.1,11.4-25.6,25.6-25.6h0.9c14.1,0,25.6,11.4,25.6,25.6
			v67.4C761.9,991.1,760.8,992.2,759.5,992.2z"/>
	</g>
	<g>
		<path class="st14" d="M1367.6,992.9h65.4c1.4,0,2.5-1.1,2.5-2.5v-68.1c0-18.5-15-33.5-33.5-33.5h-3.4c-18.5,0-33.5,15-33.5,33.5
			v68.1C1365.1,991.8,1366.2,992.9,1367.6,992.9z"/>
		<path class="st0" d="M1370.4,992.2h47.2c1.3,0,2.4-1.1,2.4-2.4v-67.4c0-14.1-11.4-25.6-25.6-25.6h-0.9
			c-14.1,0-25.6,11.4-25.6,25.6v67.4C1368,991.1,1369.1,992.2,1370.4,992.2z"/>
	</g>
	<g>
		<path class="st14" d="M1289.4,992.9h65.4c1.4,0,2.5-1.1,2.5-2.5v-68.1c0-18.5-15-33.5-33.5-33.5h-3.4c-18.5,0-33.5,15-33.5,33.5
			v68.1C1287,991.8,1288.1,992.9,1289.4,992.9z"/>
		<path class="st0" d="M1292.2,992.2h47.2c1.3,0,2.4-1.1,2.4-2.4v-67.4c0-14.1-11.4-25.6-25.6-25.6h-0.9
			c-14.1,0-25.6,11.4-25.6,25.6v67.4C1289.8,991.1,1290.9,992.2,1292.2,992.2z"/>
	</g>
	<g>
		<path class="st14" d="M1210.3,992.9h65.4c1.4,0,2.5-1.1,2.5-2.5v-68.1c0-18.5-15-33.5-33.5-33.5h-3.4c-18.5,0-33.5,15-33.5,33.5
			v68.1C1207.8,991.8,1208.9,992.9,1210.3,992.9z"/>
		<path class="st0" d="M1213.6,992.2h47.2c1.3,0,2.4-1.1,2.4-2.4v-67.4c0-14.1-11.4-25.6-25.6-25.6h-0.9
			c-14.1,0-25.6,11.4-25.6,25.6v67.4C1211.2,991.1,1212.3,992.2,1213.6,992.2z"/>
	</g>
	<g>
		<path class="st0" d="M338.3,552.8h-36c-3.2,0-5.7,2.7-5.7,6v85.7c0,3.3,2.6,6,5.7,6h36c3.2,0,5.7-2.7,5.7-6v-85.7
			C344,555.5,341.4,552.8,338.3,552.8z"/>
		<path class="st14" d="M348.3,540.1h-68.8c-1,0-1.9,0.9-1.9,2v5.7c0,1.1,0.8,2,1.9,2h4.3v97.7c0,3.1,2.4,5.7,5.4,5.7h49.4
			c3,0,5.4-2.5,5.4-5.7v-97.7h4.3c1,0,1.9-0.9,1.9-2v-5.7C350.2,541,349.4,540.1,348.3,540.1z M344,644.5c0,3.3-2.6,6-5.7,6h-36
			c-3.2,0-5.7-2.7-5.7-6v-85.7c0-3.3,2.6-6,5.7-6h36c3.2,0,5.7,2.7,5.7,6V644.5z"/>
	</g>
	<g>
		<path class="st0" d="M338.3,693.7h-36c-3.2,0-5.7,2.7-5.7,6v85.7c0,3.3,2.6,6,5.7,6h36c3.2,0,5.7-2.7,5.7-6v-85.7
			C344,696.4,341.4,693.7,338.3,693.7z"/>
		<path class="st14" d="M348.3,680.6h-68.8c-1,0-1.9,0.9-1.9,2v5.7c0,1.1,0.8,2,1.9,2h4.5c-0.1,0.4-0.2,0.9-0.2,1.3v99.8
			c0,3.1,2.4,5.7,5.4,5.7h49.4c3,0,5.4-2.5,5.4-5.7v-99.8c0-0.5-0.1-0.9-0.2-1.3h4.5c1,0,1.9-0.9,1.9-2v-5.7
			C350.2,681.5,349.4,680.6,348.3,680.6z M344,785.4c0,3.3-2.6,6-5.7,6h-36c-3.2,0-5.7-2.7-5.7-6v-85.7c0-3.3,2.6-6,5.7-6h36
			c3.2,0,5.7,2.7,5.7,6V785.4z"/>
	</g>
	<g>
		<path class="st0" d="M424,552.8h-36c-3.2,0-5.7,2.7-5.7,6v85.7c0,3.3,2.6,6,5.7,6h36c3.2,0,5.7-2.7,5.7-6v-85.7
			C429.7,555.5,427.2,552.8,424,552.8z"/>
		<path class="st14" d="M434.1,540.1h-68.8c-1,0-1.9,0.9-1.9,2v5.7c0,1.1,0.8,2,1.9,2h4.3v97.7c0,3.1,2.4,5.7,5.4,5.7h49.4
			c3,0,5.4-2.5,5.4-5.7v-97.7h4.3c1,0,1.9-0.9,1.9-2v-5.7C436,541,435.1,540.1,434.1,540.1z M429.7,644.5c0,3.3-2.6,6-5.7,6h-36
			c-3.2,0-5.7-2.7-5.7-6v-85.7c0-3.3,2.6-6,5.7-6h36c3.2,0,5.7,2.7,5.7,6V644.5z"/>
	</g>
	<g>
		<path class="st0" d="M424,693.7h-36c-3.2,0-5.7,2.7-5.7,6v85.7c0,3.3,2.6,6,5.7,6h36c3.2,0,5.7-2.7,5.7-6v-85.7
			C429.7,696.4,427.2,693.7,424,693.7z"/>
		<path class="st14" d="M434.1,680.6h-68.8c-1,0-1.9,0.9-1.9,2v5.7c0,1.1,0.8,2,1.9,2h4.5c-0.1,0.4-0.2,0.9-0.2,1.3v99.8
			c0,3.1,2.4,5.7,5.4,5.7h49.4c3,0,5.4-2.5,5.4-5.7v-99.8c0-0.5-0.1-0.9-0.2-1.3h4.5c1,0,1.9-0.9,1.9-2v-5.7
			C436,681.5,435.1,680.6,434.1,680.6z M429.7,785.4c0,3.3-2.6,6-5.7,6h-36c-3.2,0-5.7-2.7-5.7-6v-85.7c0-3.3,2.6-6,5.7-6h36
			c3.2,0,5.7,2.7,5.7,6V785.4z"/>
	</g>
	<g>
		<path class="st0" d="M509.7,552.8h-36c-3.2,0-5.7,2.7-5.7,6v85.7c0,3.3,2.6,6,5.7,6h36c3.2,0,5.7-2.7,5.7-6v-85.7
			C515.5,555.5,512.9,552.8,509.7,552.8z"/>
		<path class="st14" d="M519.8,540.1H451c-1,0-1.9,0.9-1.9,2v5.7c0,1.1,0.8,2,1.9,2h4.3v97.7c0,3.1,2.4,5.7,5.4,5.7h49.4
			c3,0,5.4-2.5,5.4-5.7v-97.7h4.3c1,0,1.9-0.9,1.9-2v-5.7C521.7,541,520.9,540.1,519.8,540.1z M515.5,644.5c0,3.3-2.6,6-5.7,6h-36
			c-3.2,0-5.7-2.7-5.7-6v-85.7c0-3.3,2.6-6,5.7-6h36c3.2,0,5.7,2.7,5.7,6V644.5z"/>
	</g>
	<g>
		<path class="st0" d="M509.7,693.7h-36c-3.2,0-5.7,2.7-5.7,6v85.7c0,3.3,2.6,6,5.7,6h36c3.2,0,5.7-2.7,5.7-6v-85.7
			C515.5,696.4,512.9,693.7,509.7,693.7z"/>
		<path class="st14" d="M519.8,680.6H451c-1,0-1.9,0.9-1.9,2v5.7c0,1.1,0.8,2,1.9,2h4.5c-0.1,0.4-0.2,0.9-0.2,1.3v99.8
			c0,3.1,2.4,5.7,5.4,5.7h49.4c3,0,5.4-2.5,5.4-5.7v-99.8c0-0.5-0.1-0.9-0.2-1.3h4.5c1,0,1.9-0.9,1.9-2v-5.7
			C521.7,681.5,520.9,680.6,519.8,680.6z M515.5,785.4c0,3.3-2.6,6-5.7,6h-36c-3.2,0-5.7-2.7-5.7-6v-85.7c0-3.3,2.6-6,5.7-6h36
			c3.2,0,5.7,2.7,5.7,6V785.4z"/>
	</g>
	<g>
		<path class="st0" d="M595.5,552.8h-36c-3.2,0-5.7,2.7-5.7,6v85.7c0,3.3,2.6,6,5.7,6h36c3.2,0,5.7-2.7,5.7-6v-85.7
			C601.2,555.5,598.6,552.8,595.5,552.8z"/>
		<path class="st14" d="M605.5,540.1h-68.8c-1,0-1.9,0.9-1.9,2v5.7c0,1.1,0.8,2,1.9,2h4.3v97.7c0,3.1,2.4,5.7,5.4,5.7h49.4
			c3,0,5.4-2.5,5.4-5.7v-97.7h4.3c1,0,1.9-0.9,1.9-2v-5.7C607.4,541,606.6,540.1,605.5,540.1z M601.2,644.5c0,3.3-2.6,6-5.7,6h-36
			c-3.2,0-5.7-2.7-5.7-6v-85.7c0-3.3,2.6-6,5.7-6h36c3.2,0,5.7,2.7,5.7,6V644.5z"/>
	</g>
	<g>
		<path class="st0" d="M595.5,552.8h-36c-3.2,0-5.7,2.7-5.7,6v85.7c0,3.3,2.6,6,5.7,6h36c3.2,0,5.7-2.7,5.7-6v-85.7
			C601.2,555.5,598.6,552.8,595.5,552.8z"/>
		<path class="st14" d="M605.5,540.1h-68.8c-1,0-1.9,0.9-1.9,2v5.7c0,1.1,0.8,2,1.9,2h4.3v97.7c0,3.1,2.4,5.7,5.4,5.7h49.4
			c3,0,5.4-2.5,5.4-5.7v-97.7h4.3c1,0,1.9-0.9,1.9-2v-5.7C607.4,541,606.6,540.1,605.5,540.1z M601.2,644.5c0,3.3-2.6,6-5.7,6h-36
			c-3.2,0-5.7-2.7-5.7-6v-85.7c0-3.3,2.6-6,5.7-6h36c3.2,0,5.7,2.7,5.7,6V644.5z"/>
	</g>
	<g>
		<path class="st0" d="M595.5,693.7h-36c-3.2,0-5.7,2.7-5.7,6v85.7c0,3.3,2.6,6,5.7,6h36c3.2,0,5.7-2.7,5.7-6v-85.7
			C601.2,696.4,598.6,693.7,595.5,693.7z"/>
		<path class="st14" d="M605.6,680.6h-68.8c-1,0-1.9,0.9-1.9,2v5.7c0,1.1,0.8,2,1.9,2h4.5c-0.1,0.4-0.2,0.9-0.2,1.3v99.8
			c0,3.1,2.4,5.7,5.4,5.7h49.4c3,0,5.4-2.5,5.4-5.7v-99.8c0-0.5-0.1-0.9-0.2-1.3h4.5c1,0,1.9-0.9,1.9-2v-5.7
			C607.5,681.5,606.6,680.6,605.6,680.6z M601.2,785.4c0,3.3-2.6,6-5.7,6h-36c-3.2,0-5.7-2.7-5.7-6v-85.7c0-3.3,2.6-6,5.7-6h36
			c3.2,0,5.7,2.7,5.7,6V785.4z"/>
	</g>
	<g>
		<path class="st0" d="M1371.4,552.7h36c3.2,0,5.7,2.7,5.7,6v85.7c0,3.3-2.6,6-5.7,6h-36c-3.2,0-5.7-2.7-5.7-6v-85.7
			C1365.7,555.4,1368.2,552.7,1371.4,552.7z"/>
		<path class="st14" d="M1359.4,541.9v5.7c0,1.1,0.8,2,1.9,2h4.3v97.7c0,3.1,2.4,5.7,5.4,5.7h49.4c3,0,5.4-2.5,5.4-5.7v-97.7h4.3
			c1,0,1.9-0.9,1.9-2v-5.7c0-1.1-0.8-2-1.9-2h-68.8C1360.3,539.9,1359.4,540.8,1359.4,541.9z M1365.7,558.7c0-3.3,2.6-6,5.7-6h36
			c3.2,0,5.7,2.7,5.7,6v85.7c0,3.3-2.6,6-5.7,6h-36c-3.2,0-5.7-2.7-5.7-6V558.7z"/>
	</g>
	<g>
		<path class="st0" d="M1371.4,693.6h36c3.2,0,5.7,2.7,5.7,6v85.7c0,3.3-2.6,6-5.7,6h-36c-3.2,0-5.7-2.7-5.7-6v-85.7
			C1365.7,696.3,1368.2,693.6,1371.4,693.6z"/>
		<path class="st14" d="M1359.4,682.5v5.7c0,1.1,0.8,2,1.9,2h4.5c-0.1,0.4-0.2,0.9-0.2,1.3v99.8c0,3.1,2.4,5.7,5.4,5.7h49.4
			c3,0,5.4-2.5,5.4-5.7v-99.8c0-0.5-0.1-0.9-0.2-1.3h4.5c1,0,1.9-0.9,1.9-2v-5.7c0-1.1-0.8-2-1.9-2h-68.8
			C1360.3,680.5,1359.4,681.4,1359.4,682.5z M1365.7,699.6c0-3.3,2.6-6,5.7-6h36c3.2,0,5.7,2.7,5.7,6v85.7c0,3.3-2.6,6-5.7,6h-36
			c-3.2,0-5.7-2.7-5.7-6V699.6z"/>
	</g>
	<path class="st14" d="M73.4,445.7H242c0.4,0,0.8,0.4,0.8,1v2.7c0,0.6-0.4,1-0.8,1H73.4c-0.4,0-0.8-0.4-0.8-1v-2.7
		C72.6,446.1,73,445.7,73.4,445.7z"/>
	<path class="st14" d="M597.3,442.7v22.7c0,0.8,0.6,1.4,1.4,1.4h12.5c5.6,0,11,2.5,14.7,7v0c0.3,0.3,0.6,0.5,1,0.5H784
		c0.8,0,1.4-0.6,1.4-1.4v-30.1c0-0.8-0.6-1.4-1.4-1.4H598.7C597.9,441.3,597.3,441.9,597.3,442.7z"/>
	<path class="st14" d="M1376.4,442.7v22.7c0,0.8-0.6,1.4-1.4,1.4h-12.5c-5.6,0-11,2.5-14.7,7v0c-0.3,0.3-0.6,0.5-1,0.5h-157.2
		c-0.8,0-1.4-0.6-1.4-1.4v-30.1c0-0.8,0.6-1.4,1.4-1.4h185.3C1375.8,441.3,1376.4,441.9,1376.4,442.7z"/>
	<g>
		<path class="st14" d="M360.4,461.2h-77.8c-3.3,0-5.9-2.7-5.9-5.9v-51.9c0-3.3,2.7-5.9,5.9-5.9h77.8c3.3,0,5.9,2.7,5.9,5.9v51.9
			C366.4,458.5,363.7,461.2,360.4,461.2z"/>
		<path class="st0" d="M355.1,457.4h-26.5c-1.9,0-3.4-1.5-3.4-3.4v-48.8c0-1.9,1.5-3.4,3.4-3.4h26.5c1.9,0,3.4,1.5,3.4,3.4V454
			C358.5,455.9,357,457.4,355.1,457.4z"/>
		<path class="st0" d="M314.6,457.4h-26.7c-1.9,0-3.4-1.5-3.4-3.4v-48.8c0-1.9,1.5-3.4,3.4-3.4h26.7c1.9,0,3.4,1.5,3.4,3.4V454
			C318,455.9,316.5,457.4,314.6,457.4z"/>
	</g>
	<g>
		<path class="st14" d="M472.3,461.2h-77.8c-3.3,0-5.9-2.7-5.9-5.9v-51.9c0-3.3,2.7-5.9,5.9-5.9h77.8c3.3,0,5.9,2.7,5.9,5.9v51.9
			C478.2,458.5,475.5,461.2,472.3,461.2z"/>
		<path class="st0" d="M467,457.4h-26.5c-1.9,0-3.4-1.5-3.4-3.4v-48.8c0-1.9,1.5-3.4,3.4-3.4H467c1.9,0,3.4,1.5,3.4,3.4V454
			C470.3,455.9,468.8,457.4,467,457.4z"/>
		<path class="st0" d="M426.4,457.4h-26.7c-1.9,0-3.4-1.5-3.4-3.4v-48.8c0-1.9,1.5-3.4,3.4-3.4h26.7c1.9,0,3.4,1.5,3.4,3.4V454
			C429.8,455.9,428.3,457.4,426.4,457.4z"/>
	</g>
	<g>
		<path class="st14" d="M584.1,461.2h-77.8c-3.3,0-5.9-2.7-5.9-5.9v-51.9c0-3.3,2.7-5.9,5.9-5.9h77.8c3.3,0,5.9,2.7,5.9,5.9v51.9
			C590,458.5,587.3,461.2,584.1,461.2z"/>
		<path class="st0" d="M578.8,457.4h-26.5c-1.9,0-3.4-1.5-3.4-3.4v-48.8c0-1.9,1.5-3.4,3.4-3.4h26.5c1.9,0,3.4,1.5,3.4,3.4V454
			C582.1,455.9,580.6,457.4,578.8,457.4z"/>
		<path class="st0" d="M538.2,457.4h-26.7c-1.9,0-3.4-1.5-3.4-3.4v-48.8c0-1.9,1.5-3.4,3.4-3.4h26.7c1.9,0,3.4,1.5,3.4,3.4V454
			C541.6,455.9,540.1,457.4,538.2,457.4z"/>
	</g>
	<g>
		<path class="st0" d="M890.1,529.5H860c-2.8,0-5,2.2-5,5v73.6c0,2.8,2.2,5,5,5h30.1c2.8,0,5-2.2,5-5v-73.6
			C895.1,531.7,892.8,529.5,890.1,529.5z"/>
		<path class="st14" d="M900,516.1h-57c-0.1,0-1,0.9-1,2v6.8c0,1.1,0.9,2,2,2h3.1v84c0,2.6,2.1,4.7,4.7,4.7h41.4
			c2.6,0,4.7-2.1,4.7-4.7v-84h3.1c1.1,0,2-0.9,2-2v-6.8C903,517,902.1,516.1,900,516.1z M895.1,608.1c0,2.8-2.2,5-5,5H860
			c-2.8,0-5-2.2-5-5v-73.6c0-2.8,2.2-5,5-5h30.1c2.8,0,5,2.2,5,5V608.1z"/>
	</g>
	<g>
		<path class="st0" d="M890.1,651.6H860c-2.8,0-5,2.2-5,5v73.6c0,2.8,2.2,5,5,5h30.1c2.8,0,5-2.2,5-5v-73.6
			C895.1,653.9,892.8,651.6,890.1,651.6z"/>
		<path class="st14" d="M900,638.3h-57c-0.1,0-1,0.9-1,2v6.8c0,1.1,0.9,2,2,2h3.1v84c0,2.6,2.1,4.7,4.7,4.7h41.4
			c2.6,0,4.7-2.1,4.7-4.7v-84h3.1c1.1,0,2-0.9,2-2v-6.8C903,639.2,902.1,638.3,900,638.3z M895.1,730.2c0,2.8-2.2,5-5,5H860
			c-2.8,0-5-2.2-5-5v-73.6c0-2.8,2.2-5,5-5h30.1c2.8,0,5,2.2,5,5V730.2z"/>
	</g>
	<g>
		<path class="st0" d="M1089,529.5h30.1c2.8,0,5,2.2,5,5v73.6c0,2.8-2.2,5-5,5H1089c-2.8,0-5-2.2-5-5v-73.6
			C1084,531.7,1086.3,529.5,1089,529.5z"/>
		<path class="st14" d="M1076.1,518.1v6.8c0,1.1,0.9,2,2,2h3.1v84c0,2.6,2.1,4.7,4.7,4.7h41.4c2.6,0,4.7-2.1,4.7-4.7v-84h3.1
			c1.1,0,2-0.9,2-2v-6.8c0-1.1-0.9-2-1-2h-57C1077,516.1,1076.1,517,1076.1,518.1z M1084,534.5c0-2.8,2.2-5,5-5h30.1
			c2.8,0,5,2.2,5,5v73.6c0,2.8-2.2,5-5,5H1089c-2.8,0-5-2.2-5-5V534.5z"/>
	</g>
	<g>
		<path class="st0" d="M1089,651.6h30.1c2.8,0,5,2.2,5,5v73.6c0,2.8-2.2,5-5,5H1089c-2.8,0-5-2.2-5-5v-73.6
			C1084,653.9,1086.3,651.6,1089,651.6z"/>
		<path class="st14" d="M1076.1,640.3v6.8c0,1.1,0.9,2,2,2h3.1v84c0,2.6,2.1,4.7,4.7,4.7h41.4c2.6,0,4.7-2.1,4.7-4.7v-84h3.1
			c1.1,0,2-0.9,2-2v-6.8c0-1.1-0.9-2-1-2h-57C1077,638.3,1076.1,639.2,1076.1,640.3z M1084,656.6c0-2.8,2.2-5,5-5h30.1
			c2.8,0,5,2.2,5,5v73.6c0,2.8-2.2,5-5,5H1089c-2.8,0-5-2.2-5-5V656.6z"/>
	</g>
	<g>
		<g>
			<path class="st14" d="M1027.2,516.1h-77.2c-0.1,0-1.4,0.9-1.4,2v6.8c0,1.1,1.2,2,2.7,2h4.2v84c0,2.6,2.8,4.7,6.3,4.7h56.1
				c3.5,0,6.3-2.1,6.3-4.7v-84h4.2c1.5,0,2.7-0.9,2.7-2v-6.8C1031.2,517,1030,516.1,1027.2,516.1z"/>
		</g>
		<path class="st0" d="M984.2,529.5h-21.2c-1.9,0-3.5,2.2-3.5,5v73.6c0,2.8,1.6,5,3.5,5h21.2c1.9,0,3.5-2.2,3.5-5v-73.6
			C987.7,531.7,986.1,529.5,984.2,529.5z"/>
		<path class="st0" d="M1016.9,529.5h-22.1c-2,0-3.7,2.2-3.7,5v73.6c0,2.8,1.6,5,3.7,5h22.1c2,0,3.7-2.2,3.7-5v-73.6
			C1020.6,531.7,1018.9,529.5,1016.9,529.5z"/>
	</g>
	<g>
		<g>
			<path class="st14" d="M1027.2,638.3h-77.2c-0.1,0-1.4,0.9-1.4,2v6.8c0,1.1,1.2,2,2.7,2h4.2v84c0,2.6,2.8,4.7,6.3,4.7h56.1
				c3.5,0,6.3-2.1,6.3-4.7v-84h4.2c1.5,0,2.7-0.9,2.7-2v-6.8C1031.2,639.2,1030,638.3,1027.2,638.3z"/>
		</g>
		<path class="st0" d="M984.2,651.6h-21.2c-1.9,0-3.5,2.2-3.5,5v73.6c0,2.8,1.6,5,3.5,5h21.2c1.9,0,3.5-2.2,3.5-5v-73.6
			C987.7,653.9,986.1,651.6,984.2,651.6z"/>
		<path class="st0" d="M1016.9,651.6h-22.1c-2,0-3.7,2.2-3.7,5v73.6c0,2.8,1.6,5,3.7,5h22.1c2,0,3.7-2.2,3.7-5v-73.6
			C1020.6,653.9,1018.9,651.6,1016.9,651.6z"/>
	</g>
	<rect x="894.8" y="240.5" class="st3" width="176.4" height="3.8"/>
	<rect x="893.3" y="255" class="st3" width="176.4" height="3.8"/>
	<path class="st3" d="M902.2,271H755.3c-1,0-1.8-0.8-1.8-1.8v-26.9c0-1,0.8-1.8,1.8-1.8h146.9c1,0,1.8,0.8,1.8,1.8v26.9
		C904.1,270.2,903.3,271,902.2,271z"/>
	<path class="st3" d="M1212.2,271h-146.9c-1,0-1.8-0.8-1.8-1.8v-26.9c0-1,0.8-1.8,1.8-1.8h146.9c1,0,1.8,0.8,1.8,1.8v26.9
		C1214,270.2,1213.2,271,1212.2,271z"/>
	<rect x="893.3" y="267.3" class="st3" width="176.4" height="3.8"/>
	<g>
		<path class="st3" d="M931.2,269.1h-1.6c-0.5,0-1-0.4-1-1v-25.8c0-0.5,0.4-1,1-1h1.6c0.5,0,1,0.4,1,1v25.8
			C932.2,268.7,931.8,269.1,931.2,269.1z"/>
		<path class="st3" d="M917.2,269.1h-1.6c-0.5,0-1-0.4-1-1v-25.8c0-0.5,0.4-1,1-1h1.6c0.5,0,1,0.4,1,1v25.8
			C918.1,268.7,917.7,269.1,917.2,269.1z"/>
		<path class="st3" d="M903.1,269.1h-1.6c-0.5,0-1-0.4-1-1v-25.8c0-0.5,0.4-1,1-1h1.6c0.5,0,1,0.4,1,1v25.8
			C904.1,268.7,903.6,269.1,903.1,269.1z"/>
		<path class="st3" d="M945,269.1h-1.6c-0.5,0-1-0.4-1-1v-25.8c0-0.5,0.4-1,1-1h1.6c0.5,0,1,0.4,1,1v25.8
			C945.9,268.7,945.5,269.1,945,269.1z"/>
		<path class="st3" d="M958.7,269.1h-1.6c-0.5,0-1-0.4-1-1v-25.8c0-0.5,0.4-1,1-1h1.6c0.5,0,1,0.4,1,1v25.8
			C959.7,268.7,959.3,269.1,958.7,269.1z"/>
		<path class="st3" d="M972.5,269.1h-1.6c-0.5,0-1-0.4-1-1v-25.8c0-0.5,0.4-1,1-1h1.6c0.5,0,1,0.4,1,1v25.8
			C973.5,268.7,973,269.1,972.5,269.1z"/>
		<path class="st3" d="M986.3,269.1h-1.6c-0.5,0-1-0.4-1-1v-25.8c0-0.5,0.4-1,1-1h1.6c0.5,0,1,0.4,1,1v25.8
			C987.2,268.7,986.8,269.1,986.3,269.1z"/>
		<path class="st3" d="M1000,269.1h-1.6c-0.5,0-1-0.4-1-1v-25.8c0-0.5,0.4-1,1-1h1.6c0.5,0,1,0.4,1,1v25.8
			C1001,268.7,1000.5,269.1,1000,269.1z"/>
		<path class="st3" d="M1013.8,269.1h-1.6c-0.5,0-1-0.4-1-1v-25.8c0-0.5,0.4-1,1-1h1.6c0.5,0,1,0.4,1,1v25.8
			C1014.7,268.7,1014.3,269.1,1013.8,269.1z"/>
		<path class="st3" d="M1027.5,269.1h-1.6c-0.5,0-1-0.4-1-1v-25.8c0-0.5,0.4-1,1-1h1.6c0.5,0,1,0.4,1,1v25.8
			C1028.5,268.7,1028.1,269.1,1027.5,269.1z"/>
		<path class="st3" d="M1041.3,269.1h-1.6c-0.5,0-1-0.4-1-1v-25.8c0-0.5,0.4-1,1-1h1.6c0.5,0,1,0.4,1,1v25.8
			C1042.2,268.7,1041.8,269.1,1041.3,269.1z"/>
		<path class="st3" d="M1055.1,269.1h-1.6c-0.5,0-1-0.4-1-1v-25.8c0-0.5,0.4-1,1-1h1.6c0.5,0,1,0.4,1,1v25.8
			C1056,268.7,1055.6,269.1,1055.1,269.1z"/>
	</g>
	<path class="st4" d="M1246.8,270.8h-9.7V258c0-1.5-1.1-2.6-2.4-2.6h-104.2c-1.3,0-2.4,1.2-2.4,2.6v12.8H840.4V258
		c0-1.5-1.1-2.6-2.4-2.6H733.8c-1.3,0-2.4,1.2-2.4,2.6v12.8h-9.2c-0.8,0-1.5,0.7-1.5,1.7v10c0,0.9,0.7,1.7,1.5,1.7h9.2v37.3
		c0,1.5,1.1,2.6,2.4,2.6H838c0.2,0,0.5,0,0.7-0.1h291.1c0.2,0.1,0.4,0.1,0.7,0.1h104.2c1.3,0,2.4-1.2,2.4-2.6v-37.3h9.7
		c0.8,0,1.5-0.7,1.5-1.7v-10C1248.4,271.5,1247.7,270.8,1246.8,270.8z"/>
	<rect x="731.4" y="314" class="st14" width="505.7" height="10.8"/>
	<path class="st3" d="M1193.5,794.9h-46.7H825.6h-46.7h-14.2v9.2c0,0.6,0.4,1.1,1,1.1h1.1c1.8,0,3.6,1,4.6,2.7l3.6,5.7
		c0.9,1.4,1.6,3,2.2,4.6v226.5c0,1,0.8,1.9,1.7,1.9h414.7c1,0,1.7-0.8,1.7-1.9V818.4c0.5-1.7,1.3-3.3,2.2-4.8l3.6-5.7
		c1-1.7,2.8-2.7,4.6-2.7h1.1c0.6,0,1-0.5,1-1.1v-9.2H1193.5z"/>
	<g>
		<path class="st14" d="M1045.1,1028.1H934.7c-2.4,0-4.4-2-4.4-4.4V891.8c0-32.9,26.7-59.5,59.5-59.5h0c32.9,0,59.5,26.7,59.5,59.5
			v131.9C1049.4,1026.1,1047.5,1028.1,1045.1,1028.1z"/>
		<path class="st0" d="M1032.4,1026.8h-85c-2.4,0-4.4-2-4.4-4.4V894.1c0-25.9,21-46.9,46.9-46.9h0c25.9,0,46.9,21,46.9,46.9v128.3
			C1036.8,1024.8,1034.8,1026.8,1032.4,1026.8z"/>
	</g>
	<g>
		<path class="st14" d="M915.8,1028.1h-99.1c-2.2,0-3.9-1.8-3.9-3.9V885.7c0-29.5,23.9-53.5,53.5-53.5h0c29.5,0,53.5,23.9,53.5,53.5
			v138.5C919.8,1026.3,918,1028.1,915.8,1028.1z"/>
		<path class="st0" d="M912.2,1026.8h-76.3c-2.2,0-4-1.8-4-4V889.3c0-23.3,18.9-42.1,42.1-42.1h0c23.3,0,42.1,18.9,42.1,42.1v133.6
			C916.2,1025,914.4,1026.8,912.2,1026.8z"/>
	</g>
	<g>
		<path class="st14" d="M1063.5,1028.1h97.4c2.1,0,3.9-1.7,3.9-3.9V884.8c0-29-23.5-52.6-52.6-52.6h0c-29,0-52.6,23.5-52.6,52.6
			v139.4C1059.6,1026.4,1061.4,1028.1,1063.5,1028.1z"/>
		<path class="st0" d="M1067.1,1026.8h75c2.2,0,3.9-1.7,3.9-3.9V888.6c0-22.9-18.5-41.4-41.4-41.4l0,0c-22.9,0-41.4,18.5-41.4,41.4
			v134.3C1063.2,1025.1,1065,1026.8,1067.1,1026.8z"/>
	</g>
</g>
<g id="Layer_17">
</g>
<g id="Layer_16">
</g>
<g id="Menu">
</g>
<g id="Layer_18">
</g>
</svg>
