<svg width="64" height="113" viewBox="0 0 64 113" fill="none" xmlns="http://www.w3.org/2000/svg">
<rect width="64" height="113" fill="black" fill-opacity="0"/>
<rect width="64" height="113" fill="black" fill-opacity="0"/>
<rect width="64" height="113" fill="black" fill-opacity="0"/>
<path d="M3.56468 43.9769C3.56468 43.5482 4.4701 43.3626 5.07426 43.3626H59.1798C59.7839 43.3626 59.9077 43.5499 59.9077 43.9769V102.165C59.9061 102.413 59.8297 102.655 59.6886 102.858C59.5475 103.061 59.3484 103.216 59.1179 103.302L33.2254 112.853C32.6041 113.049 31.9382 113.049 31.3168 112.853L4.72414 103.303C4.18512 103.108 3.56305 102.599 3.56305 102.172L3.56468 43.9769Z" fill="#353535"/>
<rect width="63.9251" height="29.7987" fill="black" fill-opacity="0" transform="translate(0.039093 34.3715)"/>
<path opacity="0.42" d="M57.9731 64.1701V57.4916H5.59375L57.9731 64.1701Z" fill="#282828"/>
<path d="M61.4222 54.6156C61.4222 54.6156 35.4043 63.2914 2.57623 54.6156V37.7337C32.8655 45.6852 61.4222 37.7337 61.4222 37.7337V54.6156Z" fill="white"/>
<path d="M61.4222 37.7337V54.6156C61.4222 54.6156 49.8569 58.4739 32.4242 58.4739C22.3523 58.4798 12.3212 57.1831 2.57623 54.6156V37.7337C12.6727 40.3848 22.5737 41.2684 31.2908 41.2684C48.7267 41.2684 61.4173 37.7337 61.4173 37.7337H61.4222ZM63.9544 34.3731L60.7431 35.2667C60.6063 35.3044 48.1274 38.716 31.2876 38.716C21.38 38.716 11.9333 37.5547 3.21133 35.2667L0.039093 34.4224V56.5965L1.93299 57.0892C11.8874 59.7123 22.1341 61.0371 32.4226 61.0313C50.062 61.0313 61.7348 57.2091 62.2234 57.0465L63.9642 56.4667V34.3715L63.9544 34.3731Z" fill="#353535"/>
<rect width="54.0942" height="10.5617" fill="black" fill-opacity="0" transform="translate(5.59656 43.4955)"/>
<path d="M12.303 44.3334C12.4778 44.3646 12.6442 44.4323 12.7915 44.5321C12.9311 44.6258 13.0525 44.7444 13.1498 44.882C13.2427 45.0191 13.3101 45.1722 13.3485 45.3337C13.391 45.5034 13.3972 45.6804 13.3664 45.8527L12.4675 50.9774C12.4381 51.1509 12.3701 51.3154 12.2688 51.4587C12.1712 51.6018 12.0481 51.7255 11.9057 51.8233C11.7575 51.9207 11.5913 51.9866 11.4171 52.0171C11.2337 52.0524 11.0453 52.0524 10.8618 52.0171C9.47003 51.7499 8.08096 51.4581 6.6946 51.1416C6.51344 51.0997 6.34166 51.024 6.18815 50.9183C6.0404 50.8184 5.91321 50.6907 5.8136 50.5421C5.71674 50.398 5.65023 50.2353 5.61819 50.0641C5.58547 49.8922 5.58991 49.7152 5.63122 49.5451L6.83628 44.4845C6.87667 44.3164 6.95034 44.1583 7.05286 44.0197C7.15288 43.8862 7.27861 43.7744 7.42252 43.6912C7.56922 43.6057 7.72959 43.5468 7.8964 43.517C8.06905 43.4848 8.24642 43.4887 8.41751 43.5285C9.70833 43.8165 11.0035 44.0848 12.303 44.3334ZM11.282 46.0679C10.4059 45.8949 9.53137 45.7109 8.65852 45.516L7.79707 49.44C8.7014 49.6415 9.60737 49.832 10.515 50.0116L11.282 46.0679Z" fill="#353535"/>
<path d="M21.1879 45.7099C21.2067 45.7323 21.2205 45.7586 21.2284 45.787C21.2362 45.8153 21.238 45.845 21.2334 45.8741L21.082 47.3409C21.0795 47.3689 21.0713 47.396 21.0579 47.4206C21.0444 47.4452 21.026 47.4667 21.0038 47.4838C20.9812 47.502 20.955 47.5154 20.927 47.523C20.899 47.5306 20.8697 47.5324 20.841 47.5281C19.5795 47.3934 18.3201 47.2363 17.063 47.0567C17.0255 47.0567 17.0043 47.0567 17.0011 47.0929L16.8382 48.2985C16.8359 48.306 16.8354 48.3141 16.8367 48.3219C16.8381 48.3297 16.8413 48.3371 16.8461 48.3433C16.8509 48.3496 16.8571 48.3547 16.8643 48.358C16.8714 48.3613 16.8792 48.3629 16.8871 48.3625C17.8522 48.4994 18.8179 48.6242 19.7841 48.737C19.8119 48.7393 19.8389 48.7475 19.8634 48.7611C19.8878 48.7747 19.9091 48.7934 19.9258 48.8159C19.9434 48.8389 19.9561 48.8654 19.9631 48.8937C19.9701 48.922 19.9713 48.9514 19.9665 48.9801L19.8037 50.368C19.8012 50.3957 19.7934 50.4226 19.7805 50.4471C19.7676 50.4717 19.75 50.4934 19.7288 50.5109C19.7064 50.5298 19.6803 50.5436 19.6522 50.5513C19.6241 50.5589 19.5946 50.5603 19.5659 50.5553C18.5834 50.4458 17.602 50.3193 16.6217 50.1759C16.6142 50.1736 16.6063 50.1731 16.5986 50.1744C16.5909 50.1757 16.5837 50.1788 16.5774 50.1834C16.571 50.188 16.5659 50.194 16.5623 50.201C16.5587 50.2079 16.5567 50.2156 16.5565 50.2235L16.2113 52.6922C16.1917 52.8324 16.1071 52.8915 15.9572 52.8696C15.4144 52.7908 14.8716 52.7075 14.3288 52.6199C14.179 52.5959 14.1149 52.5137 14.1366 52.3736L15.2961 45.0726C15.2968 45.0434 15.3042 45.0147 15.3178 44.9889C15.3313 44.9631 15.3506 44.9408 15.3741 44.9238C15.3976 44.9068 15.4247 44.8955 15.4533 44.8908C15.4818 44.8861 15.5111 44.8882 15.5387 44.8968C17.3691 45.1892 19.2044 45.4339 21.0445 45.631C21.0725 45.6337 21.0996 45.642 21.1242 45.6556C21.1489 45.6691 21.1705 45.6876 21.1879 45.7099Z" fill="#353535"/>
<path d="M28.2521 46.2239C28.2712 46.2442 28.2859 46.2683 28.2954 46.2945C28.305 46.3208 28.3091 46.3488 28.3075 46.3767L28.2505 47.8549C28.2499 47.883 28.2435 47.9107 28.2317 47.9361C28.22 47.9616 28.2031 47.9843 28.1821 48.0028C28.1604 48.0231 28.1347 48.0387 28.1066 48.0483C28.0785 48.0579 28.0488 48.0614 28.0192 48.0586C26.7534 48.0072 25.4881 47.9332 24.2233 47.8369C24.1859 47.8369 24.1663 47.8484 24.1631 47.8763L24.0719 49.0901C24.0703 49.0979 24.0706 49.1059 24.0726 49.1135C24.0747 49.1211 24.0785 49.1282 24.0837 49.1341C24.0889 49.14 24.0954 49.1445 24.1027 49.1475C24.1099 49.1504 24.1178 49.1516 24.1256 49.1509C25.0951 49.2243 26.0656 49.285 27.0373 49.3332C27.0652 49.3336 27.0926 49.34 27.1179 49.3518C27.1432 49.3637 27.1656 49.3809 27.1838 49.4022C27.2199 49.4444 27.2381 49.4993 27.2343 49.555L27.1692 50.9495C27.1686 50.9772 27.1626 51.0046 27.1514 51.03C27.1402 51.0554 27.1241 51.0783 27.1041 51.0973C27.0835 51.1168 27.0591 51.1317 27.0324 51.1411C27.0058 51.1504 26.9775 51.154 26.9493 51.1515C25.9625 51.1022 24.9767 51.0404 23.9921 50.9659C23.953 50.9659 23.9318 50.9807 23.9302 51.0168L23.7413 53.5233C23.7304 53.6646 23.6496 53.7292 23.4986 53.7171C22.9504 53.6744 22.4022 53.6273 21.8539 53.5759C21.703 53.5616 21.6341 53.4839 21.6471 53.3426L22.3327 45.9808C22.3313 45.9515 22.3368 45.9223 22.3486 45.8955C22.3604 45.8687 22.3782 45.8451 22.4007 45.8264C22.4231 45.8078 22.4495 45.7947 22.4779 45.7881C22.5062 45.7816 22.5357 45.7817 22.5639 45.7887C24.4095 45.9595 26.2551 46.0827 28.1007 46.1582C28.129 46.158 28.1572 46.1637 28.1832 46.1751C28.2093 46.1864 28.2327 46.203 28.2521 46.2239Z" fill="#353535"/>
<path d="M31.3136 53.8469C31.3136 53.9881 31.2371 54.0582 31.084 54.0571C30.5347 54.0506 29.9853 54.0396 29.436 54.0243C29.2851 54.0243 29.2113 53.9515 29.2145 53.8058L29.423 46.4145C29.4198 46.3853 29.4233 46.3558 29.4333 46.3283C29.4434 46.3008 29.4596 46.2761 29.4808 46.256C29.502 46.2359 29.5275 46.2211 29.5553 46.2127C29.5832 46.2042 29.6125 46.2025 29.6412 46.2075C30.1536 46.2217 30.6666 46.2316 31.1801 46.2371C31.2089 46.2332 31.2381 46.2361 31.2656 46.2456C31.2931 46.2551 31.318 46.2709 31.3384 46.2918C31.3587 46.3126 31.374 46.338 31.383 46.3658C31.392 46.3937 31.3944 46.4233 31.3901 46.4522L31.3136 53.8469Z" fill="#353535"/>
<path d="M35.1796 48.1703C35.1598 48.1889 35.1442 48.2116 35.1341 48.2368C35.124 48.2621 35.1195 48.2893 35.1209 48.3165L35.204 51.9301C35.2039 51.9576 35.21 51.9847 35.2218 52.0095C35.2337 52.0343 35.251 52.056 35.2724 52.073C35.3182 52.1105 35.3763 52.1293 35.4352 52.1255C36.6924 52.0938 37.949 52.039 39.2051 51.9613C39.2344 51.9588 39.2638 51.9622 39.2917 51.9712C39.3197 51.9802 39.3456 51.9947 39.368 52.0138C39.3897 52.0316 39.4075 52.0538 39.4201 52.079C39.4327 52.1042 39.4399 52.1318 39.4412 52.16L39.5292 53.6383C39.5313 53.6667 39.5273 53.6951 39.5174 53.7218C39.5076 53.7484 39.4922 53.7726 39.4722 53.7927C39.4511 53.8148 39.4258 53.8325 39.3978 53.8446C39.3699 53.8567 39.3398 53.8631 39.3093 53.8633C38.4777 53.9126 37.6461 53.9526 36.8145 53.9832C36.1295 54.0084 35.445 54.0276 34.7611 54.0407H34.5461C34.3607 54.045 34.1761 54.0138 34.0022 53.9487C33.8362 53.8874 33.6836 53.7943 33.5527 53.6744C33.4256 53.5575 33.3236 53.4155 33.2531 53.2572C33.1812 53.0979 33.144 52.9248 33.144 52.7497V52.5608V51.7395L33.131 49.1378V48.4118V47.5511C33.129 47.3764 33.1623 47.2032 33.2287 47.0419C33.2919 46.8858 33.3861 46.7444 33.5055 46.6264C33.6269 46.5077 33.768 46.4115 33.9224 46.3422C34.0816 46.2695 34.2541 46.2309 34.4289 46.2289H34.6292C36.0405 46.2015 37.4556 46.1467 38.8745 46.0646C38.9025 46.0623 38.9307 46.0658 38.9573 46.0748C38.9838 46.0839 39.0083 46.0983 39.0292 46.1172C39.0502 46.1355 39.0672 46.1579 39.0792 46.183C39.0912 46.2081 39.0981 46.2355 39.0993 46.2634L39.1872 47.7416C39.1894 47.7697 39.1858 47.798 39.1765 47.8246C39.1673 47.8512 39.1526 47.8755 39.1335 47.896C39.1145 47.9174 39.0915 47.9347 39.0657 47.9468C39.04 47.959 39.0121 47.9657 38.9836 47.9667C37.771 48.0378 36.5578 48.0887 35.344 48.1194C35.3147 48.1165 35.285 48.1195 35.2567 48.1282C35.2285 48.137 35.2023 48.1513 35.1796 48.1703Z" fill="#353535"/>
<path d="M43.5124 53.3295C43.5254 53.4707 43.4565 53.5485 43.3056 53.5627C42.7627 53.6142 42.215 53.6618 41.6624 53.7056C41.5115 53.7177 41.4307 53.6531 41.4198 53.5118L40.8596 46.1385C40.8535 46.1099 40.8541 46.0803 40.8612 46.052C40.8684 46.0236 40.882 45.9974 40.9009 45.9753C40.9199 45.9531 40.9436 45.9357 40.9704 45.9244C40.9971 45.9131 41.0261 45.9083 41.055 45.9102C41.5664 45.8697 42.0777 45.8253 42.589 45.7772C42.6172 45.7703 42.6465 45.7701 42.6747 45.7766C42.7029 45.783 42.7292 45.796 42.7516 45.8145C42.774 45.8329 42.7919 45.8564 42.8038 45.8829C42.8157 45.9095 42.8213 45.9385 42.8203 45.9677L43.5124 53.3295Z" fill="#353535"/>
<path d="M49.7477 44.8639C49.9206 44.8355 50.0974 44.8434 50.2672 44.8869C50.4299 44.9274 50.5838 44.9976 50.7215 45.0938C50.8582 45.1911 50.9758 45.3131 51.0684 45.4536C51.1659 45.5989 51.2314 45.7635 51.2606 45.9365L52.324 52.1436C52.3299 52.1721 52.3295 52.2017 52.3227 52.2301C52.316 52.2585 52.303 52.2851 52.2849 52.3078C52.2484 52.356 52.1946 52.3879 52.1351 52.3965C51.5922 52.4907 51.0445 52.581 50.4919 52.6675C50.4351 52.6767 50.3769 52.6637 50.3291 52.6314C50.3053 52.6159 50.2851 52.5954 50.2699 52.5713C50.2547 52.5472 50.2449 52.5201 50.2412 52.4918L49.9399 50.5207C49.9361 50.4932 49.927 50.4667 49.913 50.4427C49.8991 50.4187 49.8805 50.3978 49.8585 50.3811C49.8355 50.3636 49.8091 50.3511 49.7811 50.3446C49.753 50.3381 49.7239 50.3377 49.6956 50.3434C48.9302 50.4605 48.1638 50.57 47.3962 50.6719C47.3671 50.6749 47.3389 50.6837 47.3132 50.6978C47.2875 50.7119 47.2648 50.731 47.2464 50.754C47.2272 50.7762 47.2132 50.8025 47.2053 50.8309C47.1974 50.8593 47.1959 50.8892 47.2008 50.9182L47.4516 52.8893C47.4701 53.0294 47.4038 53.1094 47.2529 53.1291C46.7101 53.1992 46.1635 53.2654 45.6131 53.3278C45.4622 53.3453 45.3791 53.2835 45.3639 53.1422L44.6751 46.8809C44.6556 46.7077 44.6711 46.5322 44.7207 46.3652C44.7677 46.2035 44.847 46.0531 44.9536 45.9233C45.0616 45.792 45.1917 45.6808 45.3379 45.5948C45.4879 45.507 45.6542 45.4511 45.8264 45.4306C47.1379 45.263 48.445 45.0741 49.7477 44.8639ZM49.6468 48.6417L49.3504 46.6986C48.471 46.8355 47.59 46.9614 46.7074 47.0764L46.9582 49.0261C47.8549 48.9111 48.7511 48.7841 49.6468 48.645V48.6417Z" fill="#353535"/>
<path d="M59.0853 49.0212C59.1129 49.0137 59.1416 49.012 59.1698 49.0164C59.198 49.0207 59.225 49.031 59.2491 49.0464C59.2731 49.0619 59.2937 49.0822 59.3096 49.1061C59.3254 49.1301 59.3361 49.1571 59.341 49.1854L59.683 50.6193C59.6907 50.6468 59.6927 50.6756 59.6887 50.7039C59.6848 50.7322 59.6751 50.7593 59.6602 50.7836C59.645 50.8085 59.6248 50.83 59.601 50.8467C59.5772 50.8633 59.5502 50.8749 59.5217 50.8805C57.8368 51.2857 56.146 51.6519 54.4491 51.9794C54.2993 52.0078 54.2113 51.9531 54.1853 51.8151L52.8206 44.5502C52.8117 44.523 52.8089 44.4941 52.8127 44.4657C52.8164 44.4373 52.8265 44.4101 52.8422 44.3862C52.8579 44.3623 52.8787 44.3423 52.9032 44.3278C52.9277 44.3132 52.9552 44.3045 52.9835 44.3022C53.4894 44.2047 53.9948 44.1035 54.4996 43.9983C54.5268 43.9883 54.556 43.9849 54.5848 43.9882C54.6136 43.9915 54.6412 44.0015 54.6655 44.0174C54.6899 44.0334 54.7102 44.0548 54.7249 44.0799C54.7396 44.1051 54.7483 44.1334 54.7504 44.1626L55.874 49.5386C55.8788 49.5656 55.8896 49.5912 55.9057 49.6135C55.9218 49.6357 55.9427 49.6539 55.9668 49.6667C56.0168 49.6932 56.0746 49.7008 56.1297 49.688C57.1176 49.48 58.1028 49.2577 59.0853 49.0212Z" fill="#353535"/>
<rect width="64" height="40.402" fill="black" fill-opacity="0"/>
<path d="M64 34.3682L60.7594 32.747L60.7235 0H2.91331L2.97519 33.0147L0 34.493L2.97519 36.5774V36.6283H3.04196L3.22435 36.7564L3.23737 36.6283H4.2405C4.2405 36.6283 31.9927 45.0331 60.3376 36.7564H60.7594V36.6283H60.7773L64 34.3682Z" fill="#353535"/>
<rect width="45.5111" height="25.6539" fill="black" fill-opacity="0" transform="translate(9.24417 71.1392)"/>
<rect width="45.5111" height="7.77183" fill="black" fill-opacity="0" transform="translate(9.24417 89.0212)"/>
<path d="M14.3386 92.2162C14.4917 92.2797 14.6302 92.3742 14.7457 92.4938C14.8604 92.6135 14.9535 92.7525 15.0209 92.9044C15.0899 93.0594 15.1254 93.2273 15.1251 93.3972V95.4816C15.1259 95.6552 15.0903 95.827 15.0209 95.9858C14.9544 96.1398 14.8612 96.2805 14.7457 96.4014C14.6302 96.521 14.4917 96.6155 14.3386 96.679C14.1803 96.7458 14.0103 96.7799 13.8386 96.7792H9.4532C9.42594 96.7829 9.39818 96.7805 9.37197 96.772C9.34576 96.7635 9.32178 96.7492 9.30178 96.7301C9.28178 96.7111 9.26627 96.6877 9.2564 96.6618C9.24654 96.6359 9.24256 96.6081 9.24476 96.5804V95.2385C9.24455 95.2108 9.24979 95.1834 9.26019 95.1578C9.27059 95.1321 9.28593 95.1089 9.30533 95.0893C9.32473 95.0697 9.34779 95.0543 9.37318 95.0438C9.39857 95.0333 9.42577 95.028 9.4532 95.0282H13.1905C13.2452 95.0296 13.2983 95.0096 13.3387 94.9724C13.3586 94.9542 13.3743 94.9318 13.3847 94.9068C13.3951 94.8819 13.4 94.8549 13.399 94.8278V93.908C13.3992 93.8803 13.3939 93.8529 13.3835 93.8273C13.3731 93.8017 13.3578 93.7784 13.3384 93.7589C13.319 93.7393 13.2959 93.7238 13.2705 93.7133C13.2452 93.7028 13.2179 93.6976 13.1905 93.6978H10.5296C10.358 93.6984 10.188 93.6644 10.0297 93.5976C9.87795 93.5304 9.74075 93.4338 9.62582 93.3134C9.50875 93.1957 9.4153 93.0563 9.35061 92.9028C9.28479 92.747 9.251 92.5794 9.25128 92.41V90.3207C9.25058 90.1476 9.28436 89.9762 9.35061 89.8165C9.41354 89.6621 9.5072 89.5223 9.62582 89.4059C9.74571 89.2894 9.88522 89.1954 10.0378 89.1283C10.1953 89.0582 10.3656 89.0224 10.5378 89.0231H14.674C14.7024 89.019 14.7313 89.0216 14.7584 89.0307C14.7856 89.0398 14.8102 89.0552 14.8305 89.0756C14.8507 89.096 14.8659 89.1209 14.875 89.1483C14.884 89.1757 14.8866 89.2048 14.8825 89.2334V90.5967C14.8835 90.6238 14.8786 90.6507 14.8682 90.6757C14.8578 90.7007 14.8421 90.723 14.8222 90.7412C14.7818 90.7785 14.7287 90.7985 14.674 90.7971H11.168C11.1411 90.796 11.1144 90.8009 11.0896 90.8114C11.0649 90.8219 11.0427 90.8378 11.0247 90.8578C10.9878 90.8986 10.9679 90.9522 10.9693 91.0073V91.9058C10.9679 91.9609 10.9878 92.0145 11.0247 92.0553C11.0427 92.0753 11.0649 92.0911 11.0896 92.1016C11.1144 92.1121 11.1411 92.1171 11.168 92.116H13.8386C14.0103 92.1153 14.1803 92.1494 14.3386 92.2162Z" fill="white"/>
<path d="M22.6144 89.0856C22.634 89.105 22.6495 89.1283 22.6598 89.154C22.6702 89.1797 22.6752 89.2073 22.6746 89.235V90.6312C22.6757 90.6583 22.6708 90.6852 22.6604 90.7102C22.65 90.7352 22.6343 90.7575 22.6144 90.7757C22.574 90.8129 22.5209 90.833 22.4662 90.8316H18.7843C18.7767 90.8305 18.7691 90.8311 18.7618 90.8336C18.7546 90.836 18.7481 90.8401 18.7427 90.8455C18.7373 90.8509 18.7333 90.8575 18.7309 90.8648C18.7285 90.8721 18.7278 90.8798 18.7289 90.8874V92.0963C18.7289 92.1259 18.7468 92.1407 18.7843 92.1407H21.9272C21.954 92.1397 21.9807 92.1447 22.0054 92.1552C22.0302 92.1657 22.0524 92.1815 22.0705 92.2014C22.1073 92.2423 22.1271 92.2958 22.1259 92.3509V93.4596C22.1272 93.5148 22.1074 93.5683 22.0705 93.6091C22.0524 93.6291 22.0303 93.645 22.0055 93.6555C21.9808 93.666 21.954 93.6709 21.9272 93.6699H18.7843C18.7767 93.6688 18.7691 93.6694 18.7618 93.6718C18.7546 93.6743 18.7481 93.6783 18.7427 93.6838C18.7373 93.6892 18.7333 93.6958 18.7309 93.7031C18.7285 93.7104 18.7278 93.7181 18.7289 93.7257V94.9231C18.7278 94.9307 18.7285 94.9384 18.7309 94.9457C18.7333 94.953 18.7373 94.9596 18.7427 94.965C18.7481 94.9704 18.7546 94.9745 18.7618 94.9769C18.7691 94.9794 18.7767 94.98 18.7843 94.9789H22.4662C22.4936 94.9787 22.5208 94.984 22.5462 94.9945C22.5716 95.005 22.5947 95.0205 22.6141 95.04C22.6335 95.0596 22.6488 95.0829 22.6592 95.1085C22.6696 95.1341 22.6749 95.1615 22.6746 95.1892V96.5804C22.6749 96.6081 22.6696 96.6355 22.6592 96.6611C22.6488 96.6867 22.6335 96.71 22.6141 96.7296C22.5947 96.7491 22.5716 96.7646 22.5462 96.7751C22.5208 96.7856 22.4936 96.7909 22.4662 96.7906H17.0027C16.9742 96.7954 16.9449 96.7932 16.9173 96.7843C16.8897 96.7755 16.8646 96.7602 16.844 96.7397C16.8233 96.7192 16.8078 96.6941 16.7986 96.6664C16.7894 96.6388 16.7868 96.6093 16.791 96.5804V89.235C16.7908 89.2071 16.7961 89.1794 16.8067 89.1535C16.8173 89.1277 16.833 89.1043 16.8527 89.0847C16.8725 89.0651 16.8959 89.0497 16.9217 89.0394C16.9475 89.0291 16.975 89.0241 17.0027 89.0248H22.4646C22.4923 89.024 22.52 89.029 22.5458 89.0394C22.5715 89.0499 22.5949 89.0656 22.6144 89.0856Z" fill="white"/>
<path d="M29.5874 89.0248C29.7596 89.0241 29.9299 89.0599 30.0874 89.1299C30.3935 89.2617 30.6374 89.5077 30.7681 89.8165C30.8375 89.9753 30.873 90.1472 30.8723 90.3208V96.5804C30.8725 96.6081 30.8673 96.6355 30.8569 96.6611C30.8465 96.6867 30.8311 96.71 30.8117 96.7296C30.7923 96.7491 30.7693 96.7646 30.7439 96.7751C30.7185 96.7856 30.6913 96.7909 30.6639 96.7907H29.1364C29.1089 96.7909 29.0817 96.7856 29.0563 96.7751C29.0309 96.7646 29.0079 96.7491 28.9885 96.7296C28.9691 96.71 28.9537 96.6867 28.9433 96.6611C28.9329 96.6355 28.9277 96.6081 28.9279 96.5804V94.5897C28.9291 94.5345 28.9093 94.481 28.8726 94.4402C28.8544 94.4202 28.8322 94.4045 28.8075 94.394C28.7828 94.3835 28.7561 94.3785 28.7292 94.3794H26.5618C26.5343 94.3792 26.5071 94.3845 26.4817 94.395C26.4564 94.4055 26.4333 94.421 26.4139 94.4405C26.3945 94.4601 26.3792 94.4834 26.3688 94.509C26.3584 94.5346 26.3531 94.562 26.3533 94.5897V96.5804C26.3574 96.609 26.3549 96.6381 26.3458 96.6655C26.3368 96.6929 26.3216 96.7178 26.3013 96.7382C26.2811 96.7586 26.2564 96.774 26.2293 96.7831C26.2021 96.7922 26.1732 96.7948 26.1449 96.7907H24.6288C24.6005 96.7948 24.5716 96.7922 24.5444 96.7831C24.5173 96.774 24.4926 96.7586 24.4724 96.7382C24.4521 96.7178 24.4369 96.6929 24.4279 96.6655C24.4188 96.6381 24.4163 96.609 24.4203 96.5804V90.3208C24.4197 90.1477 24.4535 89.9762 24.5197 89.8165C24.5826 89.6621 24.6763 89.5223 24.7949 89.4059C24.9148 89.2894 25.0543 89.1954 25.2069 89.1283C25.3644 89.0582 25.5347 89.0224 25.7068 89.0232L29.5874 89.0248ZM28.9361 92.7156V90.7642H26.3452V92.7156H28.9361Z" fill="white"/>
<path d="M37.6711 92.2162C37.8242 92.2796 37.9628 92.3741 38.0782 92.4938C38.1929 92.6135 38.2861 92.7525 38.3534 92.9044C38.4225 93.0593 38.4581 93.2273 38.4577 93.3972V95.4816C38.4585 95.6552 38.423 95.827 38.3534 95.9858C38.287 96.1398 38.1938 96.2805 38.0782 96.4014C37.9628 96.5211 37.8243 96.6156 37.6711 96.679C37.5128 96.7458 37.3428 96.7799 37.1712 96.7792H32.7857C32.7574 96.7833 32.7285 96.7807 32.7014 96.7716C32.6742 96.7625 32.6495 96.7471 32.6293 96.7267C32.6091 96.7063 32.5938 96.6814 32.5848 96.654C32.5758 96.6266 32.5732 96.5975 32.5773 96.5689V95.227C32.5771 95.1993 32.5823 95.1719 32.5927 95.1463C32.6031 95.1206 32.6185 95.0974 32.6379 95.0778C32.6573 95.0582 32.6803 95.0428 32.7057 95.0323C32.7311 95.0218 32.7583 95.0165 32.7857 95.0167H36.5231C36.5777 95.0181 36.6309 94.9981 36.6712 94.9609C36.6911 94.9427 36.7068 94.9203 36.7172 94.8953C36.7277 94.8704 36.7325 94.8434 36.7315 94.8163V93.8965C36.7317 93.8688 36.7265 93.8414 36.7161 93.8158C36.7057 93.7902 36.6903 93.7669 36.6709 93.7474C36.6515 93.7278 36.6285 93.7123 36.6031 93.7018C36.5777 93.6913 36.5505 93.6861 36.5231 93.6863H33.8622C33.6094 93.688 33.3617 93.6143 33.1504 93.4742C32.9392 93.3342 32.7737 93.1342 32.675 92.8995C32.6092 92.7437 32.5754 92.5761 32.5757 92.4068V90.3207C32.575 90.1476 32.6088 89.9762 32.675 89.8165C32.7379 89.6621 32.8316 89.5223 32.9502 89.4059C33.0701 89.2894 33.2096 89.1954 33.3622 89.1283C33.5197 89.0582 33.69 89.0224 33.8622 89.0231H38.0049C38.0333 89.019 38.0622 89.0216 38.0893 89.0307C38.1165 89.0398 38.1412 89.0552 38.1614 89.0756C38.1816 89.096 38.1969 89.1209 38.2059 89.1483C38.2149 89.1757 38.2175 89.2048 38.2134 89.2334V90.5967C38.2143 90.6237 38.2094 90.6507 38.199 90.6756C38.1886 90.7006 38.1729 90.723 38.1531 90.7412C38.1128 90.7785 38.0596 90.7985 38.0049 90.7971H34.5005C34.4737 90.796 34.4469 90.8009 34.4222 90.8114C34.3974 90.8219 34.3752 90.8378 34.3572 90.8578C34.3204 90.8987 34.3006 90.9522 34.3018 91.0073V91.9058C34.3004 91.9609 34.3203 92.0145 34.3572 92.0553C34.3752 92.0753 34.3974 92.0911 34.4222 92.1016C34.4469 92.1121 34.4737 92.1171 34.5005 92.116H37.1712C37.3428 92.1153 37.5128 92.1493 37.6711 92.2162Z" fill="white"/>
<path d="M45.289 89.0248C45.4611 89.024 45.6315 89.0598 45.789 89.1299C46.0951 89.2617 46.339 89.5077 46.4697 89.8165C46.5391 89.9753 46.5746 90.1472 46.5739 90.3208V95.4865C46.5746 95.6601 46.5391 95.8319 46.4697 95.9907C46.4032 96.1447 46.31 96.2855 46.1944 96.4063C46.0791 96.526 45.9405 96.6205 45.7873 96.6839C45.629 96.7508 45.459 96.7848 45.2874 96.7841H41.3905C41.2189 96.7848 41.0489 96.7508 40.8906 96.6839C40.7363 96.6198 40.5962 96.5256 40.4782 96.4066C40.3603 96.2877 40.2669 96.1463 40.2033 95.9907C40.1372 95.831 40.1034 95.6596 40.104 95.4865V90.3208C40.1034 90.1477 40.1371 89.9762 40.2033 89.8165C40.2663 89.6621 40.36 89.5223 40.4786 89.4059C40.5985 89.2894 40.738 89.1954 40.8906 89.1283C41.048 89.0582 41.2184 89.0224 41.3905 89.0232L45.289 89.0248ZM44.6376 90.9088H42.0321V94.9001H44.6214L44.6376 90.9088Z" fill="white"/>
<path d="M54.695 89.0856C54.7146 89.105 54.7301 89.1283 54.7404 89.154C54.7508 89.1797 54.7558 89.2073 54.7552 89.2351V96.5804C54.7555 96.6081 54.7502 96.6355 54.7398 96.6611C54.7294 96.6867 54.7141 96.71 54.6947 96.7296C54.6753 96.7491 54.6522 96.7646 54.6268 96.7751C54.6014 96.7856 54.5742 96.7909 54.5468 96.7907H52.9639C52.9021 96.7899 52.8415 96.7729 52.7881 96.7414C52.7332 96.7118 52.6875 96.6675 52.6562 96.6133L50.2265 92.0898V96.5804C50.2306 96.609 50.228 96.6381 50.219 96.6655C50.21 96.6929 50.1947 96.7178 50.1745 96.7382C50.1543 96.7586 50.1296 96.774 50.1024 96.7831C50.0753 96.7922 50.0464 96.7948 50.0181 96.7907H48.502C48.4736 96.7948 48.4447 96.7922 48.4176 96.7831C48.3904 96.774 48.3658 96.7586 48.3455 96.7382C48.3253 96.7178 48.31 96.6929 48.301 96.6655C48.292 96.6381 48.2894 96.609 48.2935 96.5804V89.2351C48.2894 89.2065 48.292 89.1773 48.301 89.15C48.31 89.1226 48.3253 89.0977 48.3455 89.0773C48.3658 89.0569 48.3904 89.0415 48.4176 89.0324C48.4447 89.0233 48.4736 89.0207 48.502 89.0248H50.062C50.1239 89.0255 50.1845 89.0425 50.2379 89.0741C50.2927 89.1038 50.3383 89.1481 50.3698 89.2022L52.8125 93.7356V89.2351C52.8123 89.2074 52.8175 89.1799 52.8279 89.1543C52.8383 89.1287 52.8537 89.1055 52.8731 89.0859C52.8925 89.0663 52.9155 89.0509 52.9409 89.0404C52.9663 89.0299 52.9935 89.0246 53.0209 89.0248H54.5484C54.5756 89.0245 54.6027 89.0296 54.6279 89.0401C54.653 89.0505 54.6759 89.066 54.695 89.0856Z" fill="white"/>
<rect width="44.2089" height="13.9636" fill="black" fill-opacity="0" transform="translate(9.87384 71.1392)"/>
<path d="M12.9772 79.8538V81.6327C12.9809 81.6759 12.993 81.7179 13.0128 81.7564C13.0327 81.7948 13.0599 81.8289 13.0929 81.8567C13.1259 81.8845 13.1641 81.9055 13.2051 81.9183C13.2462 81.9312 13.2894 81.9357 13.3322 81.9316H19.9633C20.0116 81.9296 20.0597 81.9384 20.1042 81.9574C20.1487 81.9764 20.1884 82.0052 20.2206 82.0417C20.2868 82.1152 20.3224 82.2117 20.3199 82.3111V84.719C20.3226 84.8184 20.287 84.9149 20.2206 84.9884C20.1884 85.0248 20.1487 85.0536 20.1042 85.0726C20.0597 85.0917 20.0116 85.1005 19.9633 85.0984H10.2528C10.2017 85.1069 10.1493 85.1031 10.1 85.0871C10.0507 85.0711 10.0059 85.0436 9.96923 85.0066C9.93261 84.9697 9.90525 84.9245 9.88943 84.8747C9.8736 84.825 9.86976 84.7722 9.87822 84.7206V79.0178C9.87613 78.7103 9.93654 78.4056 10.0557 78.1226C10.1704 77.8481 10.3362 77.5982 10.5443 77.3868C10.7564 77.1753 11.0076 77.0079 11.2836 76.894C11.5691 76.7702 11.8766 76.7059 12.1874 76.7051H16.8643C16.9136 76.7056 16.9625 76.6961 17.0081 76.6773C17.0538 76.6584 17.0952 76.6306 17.1301 76.5954C17.165 76.5603 17.1926 76.5185 17.2112 76.4724C17.2299 76.4264 17.2393 76.3771 17.2388 76.3273V74.7177C17.2393 74.6679 17.2299 74.6186 17.2112 74.5726C17.1926 74.5265 17.165 74.4847 17.1301 74.4496C17.0952 74.4144 17.0538 74.3866 17.0081 74.3677C16.9625 74.3489 16.9136 74.3394 16.8643 74.3399H10.668C10.6208 74.3422 10.5736 74.3346 10.5295 74.3174C10.4853 74.3003 10.4453 74.274 10.4118 74.2402C10.3784 74.2065 10.3523 74.1661 10.3353 74.1216C10.3183 74.0771 10.3107 74.0295 10.313 73.9818V71.5328C10.3103 71.4334 10.346 71.3369 10.4124 71.2634C10.4445 71.227 10.4842 71.1982 10.5287 71.1792C10.5732 71.1601 10.6214 71.1513 10.6697 71.1534H18.0303C18.3361 71.1514 18.6388 71.2158 18.9178 71.3423C19.1873 71.4629 19.4341 71.6296 19.6473 71.835C19.8581 72.0443 20.0243 72.2947 20.1359 72.5709C20.2544 72.8575 20.3148 73.1653 20.3134 73.4759V74.0327C20.3273 74.0491 20.3344 74.0703 20.3329 74.0919V79.1689C20.335 79.2176 20.3262 79.2662 20.3074 79.3111C20.2885 79.356 20.26 79.396 20.2238 79.4284C20.151 79.4954 20.0553 79.5313 19.9567 79.5286H13.3322C13.2432 79.5275 13.1571 79.5604 13.0912 79.6207C13.0253 79.6811 12.9846 79.7644 12.9772 79.8538Z" fill="white"/>
<path d="M31.6263 71.1558C31.9352 71.1545 32.2409 71.2189 32.5236 71.3447C33.0737 71.5814 33.5118 72.0234 33.7465 72.5782C33.8713 72.8633 33.9351 73.1717 33.9338 73.4833V82.7586C33.9352 83.0702 33.8714 83.3786 33.7465 83.6636C33.6288 83.9394 33.4634 84.1919 33.258 84.4093C33.0506 84.622 32.8023 84.7896 32.5284 84.9021C32.2428 85.0229 31.936 85.0843 31.6263 85.0828H25.6857C25.3777 85.0843 25.0726 85.0234 24.7884 84.9037C24.5117 84.7888 24.2603 84.6197 24.0488 84.4063C23.8372 84.1929 23.6696 83.9394 23.5556 83.6603C23.437 83.3737 23.3767 83.0659 23.3781 82.7553V73.4849C23.3767 73.1743 23.437 72.8665 23.5556 72.5799C23.6671 72.3036 23.8333 72.0532 24.0442 71.844C24.2597 71.6369 24.51 71.47 24.7835 71.3513C25.0661 71.2254 25.3718 71.161 25.6808 71.1624H31.6263V71.1558ZM30.5808 74.5394H26.7246V81.7057H30.5727L30.5808 74.5394Z" fill="white"/>
<path d="M41.2765 71.5336V84.7115C41.285 84.7631 41.2812 84.8159 41.2653 84.8656C41.2495 84.9154 41.2221 84.9606 41.1855 84.9975C41.1489 85.0344 41.1041 85.062 41.0548 85.078C41.0054 85.094 40.9531 85.0978 40.902 85.0893H38.1776C38.1265 85.0978 38.0741 85.094 38.0248 85.078C37.9755 85.062 37.9307 85.0344 37.894 84.9975C37.8574 84.9606 37.8301 84.9154 37.8142 84.8656C37.7984 84.8159 37.7946 84.7631 37.803 84.7115V74.8777C37.803 74.8252 37.7737 74.8022 37.7135 74.8087C37.6357 74.8252 37.564 74.8633 37.5066 74.9188L36.5393 75.6744C36.4601 75.7412 36.3912 75.7576 36.3325 75.7236C36.3004 75.7003 36.2751 75.6685 36.2596 75.6317C36.2441 75.595 36.2389 75.5546 36.2446 75.515V72.7227C36.2467 72.6076 36.2769 72.4948 36.3325 72.3942C36.3836 72.2918 36.4538 72.2003 36.5393 72.1249L37.5066 71.3677C37.5999 71.2919 37.7073 71.2361 37.8226 71.2034C37.9374 71.1664 38.057 71.1465 38.1776 71.1443H40.9004C40.9527 71.1349 41.0065 71.1385 41.0571 71.1549C41.1077 71.1714 41.1536 71.2 41.1907 71.2384C41.2278 71.2768 41.255 71.3238 41.27 71.3752C41.2849 71.4267 41.2872 71.481 41.2765 71.5336Z" fill="white"/>
<path d="M51.7752 71.1558C52.0841 71.1545 52.3898 71.2189 52.6725 71.3447C53.2226 71.5814 53.6607 72.0234 53.8954 72.5782C54.0202 72.8633 54.084 73.1717 54.0827 73.4833V84.7099C54.0831 84.7596 54.0738 84.809 54.0551 84.855C54.0364 84.901 54.0088 84.9428 53.974 84.978C53.9391 85.0132 53.8976 85.041 53.852 85.0598C53.8064 85.0787 53.7575 85.0881 53.7082 85.0877H50.9658C50.9175 85.0898 50.8694 85.081 50.8249 85.0619C50.7804 85.0429 50.7406 85.0141 50.7085 84.9776C50.642 84.9043 50.6064 84.8077 50.6092 84.7083V81.4479C50.6113 81.3991 50.6025 81.3506 50.5837 81.3057C50.5648 81.2608 50.5362 81.2207 50.5001 81.1883C50.4272 81.1215 50.3315 81.0856 50.233 81.0881H45.8362C45.5273 81.0896 45.2215 81.0252 44.9389 80.8993C44.6654 80.7807 44.415 80.6138 44.1996 80.4065C43.9886 80.1975 43.8224 79.947 43.7111 79.6706C43.5925 79.384 43.5321 79.0762 43.5336 78.7656V73.4849C43.5322 73.1743 43.5925 72.8665 43.7111 72.5799C43.8225 72.3036 43.9888 72.0532 44.1996 71.844C44.4151 71.6368 44.6655 71.47 44.9389 71.3513C45.2216 71.2254 45.5273 71.1611 45.8362 71.1624H51.7768L51.7752 71.1558ZM50.7297 74.3209H46.88V77.8244H50.7281L50.7297 74.3209Z" fill="white"/>
<rect width="41.93" height="17.8093" fill="black" fill-opacity="0" transform="translate(11.0307 10.2713)"/>
<path d="M13.1498 25.8698C13.2377 25.9077 13.3077 25.9783 13.3452 26.0669C13.3649 26.1125 13.3749 26.1617 13.3745 26.2114V28.0182C13.3745 28.0343 13.3682 28.0498 13.3569 28.0612C13.3456 28.0726 13.3303 28.079 13.3143 28.079H12.8827C12.8751 28.0792 12.8674 28.0777 12.8604 28.0745C12.8533 28.0714 12.8471 28.0668 12.842 28.0609C12.8314 28.0493 12.8256 28.034 12.8257 28.0182V26.3888H12.4659V28.0182C12.466 28.034 12.4602 28.0493 12.4496 28.0609C12.4445 28.0668 12.4383 28.0714 12.4312 28.0745C12.4242 28.0777 12.4165 28.0792 12.4089 28.079H12.0099C11.9939 28.079 11.9786 28.0726 11.9673 28.0612C11.956 28.0498 11.9496 28.0343 11.9496 28.0182V26.3888H11.5963V28.0182C11.5973 28.0264 11.5965 28.0348 11.5939 28.0427C11.5912 28.0505 11.5868 28.0577 11.581 28.0635C11.5752 28.0694 11.5681 28.0739 11.5603 28.0765C11.5525 28.0792 11.5442 28.08 11.536 28.079H11.0914C11.0833 28.08 11.075 28.0792 11.0672 28.0765C11.0594 28.0739 11.0523 28.0694 11.0465 28.0635C11.0406 28.0577 11.0362 28.0505 11.0336 28.0427C11.0309 28.0348 11.0301 28.0264 11.0312 28.0182V25.901C11.0301 25.8927 11.0309 25.8844 11.0336 25.8765C11.0362 25.8686 11.0406 25.8615 11.0465 25.8556C11.0523 25.8498 11.0594 25.8453 11.0672 25.8426C11.075 25.84 11.0833 25.8391 11.0914 25.8402H13.0065C13.0558 25.8399 13.1046 25.8499 13.1498 25.8698Z" fill="white"/>
<path d="M15.3629 25.8402C15.4127 25.8397 15.4621 25.8498 15.5078 25.8698C15.5956 25.9078 15.6655 25.9784 15.7032 26.0669C15.7229 26.1125 15.7329 26.1617 15.7325 26.2114V28.0182C15.7328 28.0262 15.7313 28.0342 15.7284 28.0417C15.7255 28.0492 15.721 28.056 15.7154 28.0617C15.7097 28.0674 15.703 28.0718 15.6956 28.0748C15.6882 28.0778 15.6802 28.0792 15.6723 28.079H15.2326C15.2166 28.079 15.2013 28.0726 15.19 28.0612C15.1787 28.0498 15.1723 28.0343 15.1723 28.0182V27.4466C15.1725 27.4308 15.1666 27.4155 15.1561 27.4039C15.1509 27.3981 15.1447 27.3935 15.1376 27.3904C15.1306 27.3873 15.123 27.3857 15.1153 27.3858H14.49C14.4821 27.3858 14.4743 27.3874 14.467 27.3905C14.4596 27.3935 14.453 27.398 14.4474 27.4036C14.4418 27.4093 14.4374 27.416 14.4343 27.4233C14.4313 27.4307 14.4298 27.4386 14.4298 27.4466V28.0182C14.4308 28.0264 14.43 28.0348 14.4274 28.0427C14.4247 28.0505 14.4203 28.0577 14.4145 28.0636C14.4087 28.0694 14.4016 28.0739 14.3938 28.0765C14.386 28.0792 14.3777 28.08 14.3695 28.079H13.9331C13.9249 28.08 13.9166 28.0792 13.9088 28.0765C13.901 28.0739 13.8939 28.0694 13.8881 28.0636C13.8823 28.0577 13.8779 28.0505 13.8752 28.0427C13.8726 28.0348 13.8718 28.0264 13.8728 28.0182V26.2114C13.8725 26.1619 13.8819 26.1127 13.9005 26.0669C13.9188 26.0223 13.9459 25.9821 13.9803 25.9486C14.0148 25.9148 14.0551 25.8875 14.0992 25.8681C14.1444 25.8483 14.1932 25.8382 14.2425 25.8386L15.3629 25.8402ZM15.174 26.9029V26.3412H14.4298V26.9029H15.174Z" fill="white"/>
<path d="M17.7241 25.8583C17.7298 25.8638 17.7343 25.8704 17.7374 25.8778C17.7405 25.8851 17.7421 25.893 17.742 25.901V27.7078C17.7423 27.7575 17.7323 27.8067 17.7127 27.8523C17.6935 27.8968 17.6664 27.9374 17.6329 27.9722C17.5998 28.0069 17.5598 28.0343 17.5157 28.0527C17.4702 28.0715 17.4215 28.081 17.3724 28.0806H16.4197C16.3706 28.081 16.3219 28.0715 16.2764 28.0527C16.209 28.0243 16.1515 27.9764 16.1112 27.915C16.0709 27.8535 16.0496 27.7814 16.0501 27.7078V27.0245C16.049 27.0162 16.0498 27.0079 16.0525 27C16.0551 26.9921 16.0595 26.985 16.0654 26.9791C16.0712 26.9732 16.0783 26.9688 16.0861 26.9661C16.0939 26.9634 16.1022 26.9626 16.1103 26.9637H16.5468C16.5549 26.9626 16.5632 26.9634 16.571 26.9661C16.5788 26.9688 16.5859 26.9732 16.5917 26.9791C16.5975 26.985 16.602 26.9921 16.6046 27C16.6073 27.0079 16.6081 27.0162 16.607 27.0245V27.4811C16.6068 27.4888 16.6083 27.4965 16.6114 27.5036C16.6145 27.5107 16.6191 27.5171 16.6249 27.5222C16.6364 27.533 16.6516 27.5389 16.6673 27.5386H17.1167C17.1324 27.5389 17.1476 27.533 17.1591 27.5222C17.1648 27.517 17.1693 27.5107 17.1724 27.5036C17.1755 27.4965 17.1771 27.4888 17.177 27.4811V25.9076C17.1768 25.8918 17.1827 25.8765 17.1933 25.8648C17.1984 25.8591 17.2046 25.8545 17.2117 25.8514C17.2187 25.8482 17.2263 25.8467 17.234 25.8468H17.6736C17.6824 25.8447 17.6915 25.8446 17.7002 25.8466C17.709 25.8486 17.7171 25.8526 17.7241 25.8583Z" fill="white"/>
<path d="M19.7222 25.8402C19.7715 25.8399 19.8203 25.85 19.8655 25.8698C19.9534 25.9077 20.0234 25.9783 20.061 26.0669C20.0807 26.1125 20.0906 26.1617 20.0903 26.2114V27.6979C20.0906 27.7476 20.0807 27.7969 20.061 27.8424C20.0417 27.8869 20.0147 27.9275 19.9812 27.9624C19.948 27.997 19.9081 28.0244 19.8639 28.0428C19.8185 28.0617 19.7697 28.0712 19.7206 28.0708H18.6002C18.5511 28.0712 18.5024 28.0617 18.4569 28.0428C18.3895 28.0145 18.332 27.9665 18.2917 27.9051C18.2514 27.8437 18.2301 27.7716 18.2306 27.6979V26.2114C18.2307 26.1618 18.2406 26.1126 18.2599 26.0669C18.2782 26.0224 18.3053 25.9821 18.3397 25.9486C18.3742 25.9149 18.4145 25.8876 18.4586 25.8681C18.5038 25.8483 18.5526 25.8382 18.6019 25.8386L19.7222 25.8402ZM19.5333 26.3822H18.7908V27.532H19.5333V26.3822Z" fill="white"/>
<path d="M22.5199 28.0215C22.5232 28.0269 22.525 28.0332 22.525 28.0395C22.525 28.0459 22.5232 28.0522 22.5199 28.0576C22.5159 28.0628 22.5107 28.0668 22.5047 28.0694C22.4987 28.072 22.4922 28.073 22.4857 28.0724H21.9858C21.968 28.072 21.9506 28.0669 21.9353 28.0576C21.9198 28.0492 21.9069 28.0367 21.8979 28.0215L21.5624 27.4154C21.5604 27.4111 21.5571 27.4075 21.5531 27.4052C21.549 27.4028 21.5443 27.4018 21.5396 27.4022H21.1634C21.1612 27.402 21.159 27.4022 21.1569 27.403C21.1548 27.4037 21.1529 27.4049 21.1513 27.4065C21.1498 27.4081 21.1486 27.41 21.1478 27.4121C21.1471 27.4142 21.1469 27.4165 21.1471 27.4187V28.0116C21.1482 28.0199 21.1474 28.0282 21.1447 28.0361C21.1421 28.044 21.1377 28.0511 21.1319 28.057C21.126 28.0629 21.1189 28.0673 21.1111 28.07C21.1034 28.0726 21.0951 28.0735 21.0869 28.0724H20.6505C20.6423 28.0735 20.634 28.0726 20.6262 28.07C20.6184 28.0673 20.6113 28.0629 20.6055 28.057C20.5997 28.0511 20.5953 28.044 20.5926 28.0361C20.59 28.0282 20.5891 28.0199 20.5902 28.0116V25.901C20.5891 25.8927 20.59 25.8844 20.5926 25.8765C20.5953 25.8686 20.5997 25.8615 20.6055 25.8556C20.6113 25.8498 20.6184 25.8453 20.6262 25.8426C20.634 25.84 20.6423 25.8391 20.6505 25.8402H22.0802C22.1295 25.8399 22.1783 25.8499 22.2235 25.8698C22.3112 25.9079 22.3811 25.9785 22.419 26.0669C22.4386 26.1125 22.4486 26.1617 22.4483 26.2114V27.0507C22.4488 27.1295 22.4236 27.2063 22.3766 27.2692C22.3319 27.3325 22.2678 27.3792 22.1942 27.4022H22.1845C22.1693 27.4022 22.166 27.4088 22.1747 27.422L22.5199 28.0215ZM21.8897 26.3592H21.1276V26.9013H21.8897V26.3592Z" fill="white"/>
<path d="M25.5033 27.5304C25.5109 27.5303 25.5185 27.5318 25.5256 27.535C25.5326 27.5381 25.5389 27.5427 25.544 27.5484C25.5546 27.5601 25.5604 27.5753 25.5603 27.5911V28.0116C25.5604 28.0274 25.5546 28.0427 25.544 28.0543C25.5389 28.0601 25.5326 28.0647 25.5256 28.0678C25.5185 28.0709 25.5109 28.0725 25.5033 28.0724H24.137C24.1288 28.0735 24.1205 28.0726 24.1127 28.07C24.1049 28.0673 24.0979 28.0629 24.092 28.057C24.0862 28.0511 24.0818 28.044 24.0792 28.0361C24.0765 28.0282 24.0757 28.0199 24.0767 28.0116V25.901C24.0757 25.8927 24.0765 25.8844 24.0792 25.8765C24.0818 25.8686 24.0862 25.8615 24.092 25.8556C24.0979 25.8498 24.1049 25.8453 24.1127 25.8426C24.1205 25.84 24.1288 25.8391 24.137 25.8402H24.5734C24.5816 25.8391 24.5899 25.84 24.5977 25.8426C24.6055 25.8453 24.6126 25.8498 24.6184 25.8556C24.6242 25.8615 24.6286 25.8686 24.6313 25.8765C24.6339 25.8844 24.6347 25.8927 24.6337 25.901V27.4745C24.6335 27.4823 24.635 27.49 24.6381 27.4971C24.6412 27.5042 24.6458 27.5105 24.6516 27.5156C24.6631 27.5263 24.6783 27.5321 24.6939 27.532L25.5033 27.5304Z" fill="white"/>
<path d="M27.5389 25.8582C27.5445 25.8638 27.5491 25.8704 27.5521 25.8778C27.5552 25.8851 27.5568 25.893 27.5568 25.901V26.3034C27.5569 26.3111 27.5553 26.3188 27.5522 26.3259C27.5491 26.3329 27.5446 26.3393 27.5389 26.3444C27.5273 26.3551 27.5122 26.361 27.4965 26.3609H26.4364C26.4342 26.3606 26.432 26.3608 26.4299 26.3616C26.4278 26.3623 26.4259 26.3635 26.4243 26.3651C26.4227 26.3667 26.4215 26.3686 26.4208 26.3707C26.4201 26.3728 26.4198 26.3751 26.4201 26.3773V26.7255C26.4201 26.7337 26.4201 26.7386 26.4364 26.7386H27.3418C27.3495 26.7384 27.3571 26.7399 27.3642 26.7431C27.3712 26.7462 27.3775 26.7509 27.3825 26.7567C27.3931 26.7683 27.3989 26.7836 27.3988 26.7994V27.1181C27.3991 27.1339 27.3933 27.1492 27.3825 27.1608C27.3775 27.1666 27.3712 27.1713 27.3642 27.1744C27.3571 27.1775 27.3495 27.179 27.3418 27.1788H26.4364C26.4342 27.1786 26.432 27.1788 26.4299 27.1795C26.4278 27.1803 26.4259 27.1815 26.4243 27.1831C26.4227 27.1846 26.4215 27.1866 26.4208 27.1887C26.4201 27.1908 26.4198 27.193 26.4201 27.1953V27.5402C26.4198 27.5424 26.4201 27.5447 26.4208 27.5468C26.4215 27.5489 26.4227 27.5508 26.4243 27.5524C26.4259 27.554 26.4278 27.5552 26.4299 27.5559C26.432 27.5566 26.4342 27.5569 26.4364 27.5566H27.4965C27.5045 27.5564 27.5124 27.5578 27.5198 27.5608C27.5273 27.5638 27.534 27.5682 27.5396 27.5739C27.5453 27.5796 27.5497 27.5864 27.5526 27.5939C27.5556 27.6013 27.557 27.6093 27.5568 27.6174V28.0165C27.557 28.0246 27.5556 28.0326 27.5526 28.04C27.5497 28.0475 27.5453 28.0543 27.5396 28.06C27.534 28.0657 27.5273 28.0702 27.5198 28.0731C27.5124 28.0761 27.5045 28.0775 27.4965 28.0773H25.9251C25.9169 28.0784 25.9086 28.0775 25.9008 28.0749C25.893 28.0722 25.8859 28.0678 25.8801 28.0619C25.8743 28.056 25.8699 28.0489 25.8672 28.041C25.8646 28.0331 25.8637 28.0248 25.8648 28.0165V25.901C25.8648 25.8848 25.8712 25.8694 25.8825 25.858C25.8937 25.8466 25.9091 25.8402 25.9251 25.8402H27.4965C27.5044 25.8402 27.5122 25.8417 27.5195 25.8449C27.5268 25.848 27.5334 25.8525 27.5389 25.8582Z" fill="white"/>
<path d="M29.5516 25.8402C29.6014 25.8397 29.6508 25.8498 29.6965 25.8698C29.7843 25.9078 29.8542 25.9784 29.8919 26.0669C29.9116 26.1125 29.9216 26.1617 29.9212 26.2114V28.0182C29.9215 28.0262 29.9201 28.0342 29.9171 28.0417C29.9142 28.0492 29.9097 28.056 29.9041 28.0617C29.8985 28.0674 29.8917 28.0718 29.8843 28.0748C29.8769 28.0778 29.869 28.0792 29.861 28.079H29.4213C29.4053 28.079 29.39 28.0726 29.3787 28.0612C29.3674 28.0498 29.3611 28.0343 29.3611 28.0182V27.4466C29.3612 27.4308 29.3554 27.4155 29.3448 27.4039C29.3397 27.3981 29.3334 27.3935 29.3264 27.3904C29.3193 27.3873 29.3117 27.3857 29.3041 27.3858H28.6787C28.6708 27.3858 28.663 27.3874 28.6557 27.3905C28.6484 27.3935 28.6417 27.398 28.6361 27.4036C28.6305 27.4093 28.6261 27.416 28.6231 27.4233C28.62 27.4307 28.6185 27.4386 28.6185 27.4466V28.0182C28.6195 28.0264 28.6187 28.0348 28.6161 28.0427C28.6134 28.0505 28.609 28.0577 28.6032 28.0636C28.5974 28.0694 28.5903 28.0739 28.5825 28.0765C28.5747 28.0792 28.5664 28.08 28.5582 28.079H28.1218C28.1136 28.08 28.1053 28.0792 28.0975 28.0765C28.0897 28.0739 28.0827 28.0694 28.0768 28.0636C28.071 28.0577 28.0666 28.0505 28.064 28.0427C28.0613 28.0348 28.0605 28.0264 28.0615 28.0182V26.2114C28.0612 26.1619 28.0706 26.1127 28.0892 26.0669C28.1075 26.0223 28.1346 25.9821 28.169 25.9486C28.2035 25.9148 28.2438 25.8875 28.2879 25.8681C28.3331 25.8483 28.3819 25.8382 28.4312 25.8386L29.5516 25.8402ZM29.3627 26.9029V26.3412H28.6201V26.9029H29.3627Z" fill="white"/>
<path d="M32.2613 26.8717C32.267 26.8772 32.2715 26.8839 32.2746 26.8912C32.2777 26.8985 32.2793 26.9064 32.2793 26.9144V27.6995C32.2796 27.7492 32.2697 27.7985 32.2499 27.8441C32.2307 27.8885 32.2037 27.9292 32.1702 27.964C32.137 27.9986 32.097 28.026 32.0529 28.0445C32.0075 28.0633 31.9587 28.0728 31.9096 28.0724H30.7892C30.7401 28.0728 30.6914 28.0633 30.6459 28.0445C30.5785 28.0161 30.521 27.9682 30.4807 27.9067C30.4404 27.8453 30.4191 27.7732 30.4196 27.6995V26.213C30.4196 26.1634 30.4296 26.1142 30.4489 26.0685C30.4672 26.024 30.4943 25.9837 30.5287 25.9502C30.5632 25.9165 30.6035 25.8892 30.6475 25.8698C30.6927 25.8499 30.7416 25.8399 30.7909 25.8402H32.0936C32.1015 25.8402 32.1094 25.8418 32.1167 25.8448C32.124 25.8479 32.1306 25.8523 32.1362 25.858C32.1418 25.8636 32.1463 25.8703 32.1493 25.8777C32.1523 25.8851 32.1539 25.893 32.1539 25.901V26.3214C32.1539 26.3294 32.1523 26.3373 32.1493 26.3447C32.1463 26.3521 32.1418 26.3588 32.1362 26.3644C32.1306 26.3701 32.124 26.3745 32.1167 26.3776C32.1094 26.3806 32.1015 26.3822 32.0936 26.3822H31.0335C31.0178 26.3819 31.0026 26.3878 30.9912 26.3986C30.9854 26.4038 30.9809 26.4101 30.9778 26.4172C30.9747 26.4243 30.9731 26.432 30.9732 26.4397V27.4729C30.9731 27.4806 30.9747 27.4883 30.9778 27.4953C30.9809 27.5024 30.9854 27.5088 30.9912 27.5139C31.0026 27.5247 31.0178 27.5306 31.0335 27.5303H31.6604C31.6681 27.5308 31.6757 27.5297 31.6828 27.5269C31.6899 27.5242 31.6964 27.52 31.7018 27.5146C31.7072 27.5091 31.7114 27.5026 31.7141 27.4954C31.7168 27.4882 31.7179 27.4805 31.7174 27.4729V26.9144C31.7172 26.9064 31.7186 26.8984 31.7216 26.8909C31.7245 26.8834 31.729 26.8766 31.7346 26.8709C31.7402 26.8652 31.747 26.8608 31.7544 26.8578C31.7618 26.8548 31.7697 26.8534 31.7777 26.8536H32.2174C32.2256 26.8534 32.2337 26.8549 32.2413 26.858C32.2488 26.8611 32.2557 26.8658 32.2613 26.8717Z" fill="white"/>
<path d="M34.5917 25.8582C34.5974 25.8638 34.6019 25.8704 34.605 25.8778C34.608 25.8851 34.6096 25.893 34.6096 25.901V27.7077C34.61 27.7575 34.6 27.8067 34.5803 27.8523C34.561 27.8968 34.534 27.9374 34.5005 27.9722C34.4673 28.0069 34.4274 28.0343 34.3832 28.0527C34.3373 28.0717 34.288 28.0812 34.2383 28.0806H33.1179C33.0688 28.081 33.0201 28.0715 32.9746 28.0527C32.8856 28.0152 32.8148 27.9438 32.7776 27.8539C32.759 27.8081 32.7496 27.7589 32.7499 27.7094V25.9026C32.7488 25.8944 32.7497 25.886 32.7523 25.8781C32.755 25.8703 32.7594 25.8631 32.7652 25.8572C32.771 25.8514 32.7781 25.8469 32.7859 25.8443C32.7937 25.8416 32.802 25.8407 32.8102 25.8418H33.2384C33.2466 25.8407 33.2549 25.8416 33.2627 25.8443C33.2705 25.8469 33.2776 25.8514 33.2834 25.8572C33.2892 25.8631 33.2936 25.8703 33.2963 25.8781C33.2989 25.886 33.2998 25.8944 33.2987 25.9026V27.4761C33.2986 27.4839 33.3002 27.4915 33.3032 27.4986C33.3063 27.5057 33.3109 27.512 33.3166 27.5172C33.3281 27.528 33.3433 27.5339 33.3589 27.5336H33.9859C33.9934 27.5338 34.0009 27.5325 34.0079 27.5297C34.0149 27.5268 34.0213 27.5226 34.0266 27.5172C34.032 27.5118 34.0362 27.5054 34.039 27.4984C34.0418 27.4913 34.0431 27.4837 34.0429 27.4761V25.9026C34.0429 25.8946 34.0445 25.8867 34.0475 25.8793C34.0505 25.872 34.055 25.8653 34.0605 25.8596C34.0661 25.854 34.0728 25.8495 34.0801 25.8465C34.0874 25.8434 34.0952 25.8418 34.1032 25.8418H34.5412C34.5503 25.8404 34.5596 25.8411 34.5684 25.844C34.5772 25.8468 34.5851 25.8517 34.5917 25.8582Z" fill="white"/>
<path d="M36.7836 25.8582C36.7893 25.8638 36.7938 25.8704 36.7969 25.8778C36.8 25.8851 36.8015 25.893 36.8015 25.901V26.3034C36.8016 26.3111 36.8001 26.3188 36.797 26.3259C36.7939 26.3329 36.7893 26.3393 36.7836 26.3444C36.7721 26.3551 36.7569 26.361 36.7413 26.3609H35.6811C35.6789 26.3606 35.6767 26.3608 35.6746 26.3616C35.6725 26.3623 35.6706 26.3635 35.669 26.3651C35.6675 26.3667 35.6663 26.3686 35.6656 26.3707C35.6648 26.3728 35.6646 26.3751 35.6649 26.3773V26.7255C35.6649 26.7337 35.6649 26.7386 35.6811 26.7386H36.5866C36.5943 26.7384 36.6019 26.7399 36.6089 26.7431C36.616 26.7462 36.6222 26.7509 36.6273 26.7567C36.6379 26.7683 36.6437 26.7836 36.6436 26.7994V27.1181C36.6439 27.1339 36.638 27.1492 36.6273 27.1608C36.6222 27.1666 36.616 27.1713 36.6089 27.1744C36.6019 27.1775 36.5943 27.179 36.5866 27.1788H35.6811C35.6789 27.1786 35.6767 27.1788 35.6746 27.1795C35.6725 27.1803 35.6706 27.1815 35.669 27.1831C35.6675 27.1846 35.6663 27.1866 35.6656 27.1887C35.6648 27.1908 35.6646 27.193 35.6649 27.1953V27.5402C35.6646 27.5424 35.6648 27.5447 35.6656 27.5468C35.6663 27.5489 35.6675 27.5508 35.669 27.5524C35.6706 27.554 35.6725 27.5552 35.6746 27.5559C35.6767 27.5566 35.6789 27.5569 35.6811 27.5566H36.7413C36.7492 27.5564 36.7572 27.5578 36.7646 27.5608C36.772 27.5638 36.7787 27.5682 36.7844 27.5739C36.79 27.5796 36.7944 27.5864 36.7974 27.5939C36.8003 27.6013 36.8017 27.6093 36.8015 27.6174V28.0165C36.8017 28.0246 36.8003 28.0326 36.7974 28.04C36.7944 28.0475 36.79 28.0543 36.7844 28.06C36.7787 28.0657 36.772 28.0702 36.7646 28.0731C36.7572 28.0761 36.7492 28.0775 36.7413 28.0773H35.1698C35.1616 28.0784 35.1533 28.0775 35.1455 28.0749C35.1377 28.0722 35.1307 28.0678 35.1248 28.0619C35.119 28.056 35.1146 28.0489 35.112 28.041C35.1093 28.0331 35.1085 28.0248 35.1096 28.0165V25.901C35.1096 25.8848 35.1159 25.8694 35.1272 25.858C35.1385 25.8466 35.1538 25.8402 35.1698 25.8402H36.7413C36.7492 25.8402 36.757 25.8417 36.7643 25.8449C36.7715 25.848 36.7781 25.8525 36.7836 25.8582Z" fill="white"/>
<path d="M40.1789 25.8402C40.1869 25.84 40.1948 25.8414 40.2023 25.8444C40.2097 25.8473 40.2164 25.8518 40.222 25.8575C40.2277 25.8632 40.2321 25.87 40.2351 25.8774C40.238 25.8849 40.2394 25.8929 40.2392 25.901V28.0132C40.2394 28.0213 40.238 28.0293 40.2351 28.0368C40.2321 28.0442 40.2277 28.051 40.222 28.0567C40.2164 28.0624 40.2097 28.0669 40.2023 28.0699C40.1948 28.0728 40.1869 28.0742 40.1789 28.074H39.7393C39.7233 28.074 39.7079 28.0676 39.6967 28.0562C39.6854 28.0448 39.679 28.0294 39.679 28.0132V27.2758C39.6795 27.2681 39.6783 27.2604 39.6756 27.2532C39.6729 27.246 39.6688 27.2395 39.6634 27.234C39.658 27.2286 39.6515 27.2244 39.6444 27.2217C39.6372 27.2189 39.6296 27.2178 39.622 27.2183H38.9951C38.9794 27.2181 38.9643 27.224 38.9527 27.2347C38.9469 27.2398 38.9423 27.2461 38.9392 27.2532C38.9361 27.2603 38.9346 27.268 38.9348 27.2758V28.0132C38.9359 28.0215 38.935 28.0299 38.9324 28.0377C38.9297 28.0456 38.9253 28.0527 38.9195 28.0586C38.9137 28.0645 38.9066 28.0689 38.8988 28.0716C38.891 28.0743 38.8827 28.0751 38.8745 28.074H38.4381C38.43 28.0751 38.4217 28.0743 38.4139 28.0716C38.4061 28.0689 38.399 28.0645 38.3932 28.0586C38.3873 28.0527 38.3829 28.0456 38.3803 28.0377C38.3776 28.0299 38.3768 28.0215 38.3779 28.0132V25.901C38.3768 25.8927 38.3776 25.8844 38.3803 25.8765C38.3829 25.8686 38.3873 25.8615 38.3932 25.8556C38.399 25.8497 38.4061 25.8453 38.4139 25.8426C38.4217 25.8399 38.43 25.8391 38.4381 25.8402H38.8745C38.8827 25.8391 38.891 25.8399 38.8988 25.8426C38.9066 25.8453 38.9137 25.8497 38.9195 25.8556C38.9253 25.8615 38.9297 25.8686 38.9324 25.8765C38.935 25.8844 38.9359 25.8927 38.9348 25.901V26.6089C38.9337 26.6171 38.9346 26.6255 38.9372 26.6334C38.9399 26.6412 38.9443 26.6484 38.9501 26.6542C38.9559 26.6601 38.963 26.6646 38.9708 26.6672C38.9786 26.6699 38.9869 26.6707 38.9951 26.6697H39.622C39.6297 26.6698 39.6373 26.6682 39.6443 26.6651C39.6513 26.662 39.6576 26.6574 39.6627 26.6516C39.6733 26.64 39.6791 26.6247 39.679 26.6089V25.8944C39.679 25.8783 39.6854 25.8628 39.6967 25.8514C39.7079 25.84 39.7233 25.8336 39.7393 25.8336L40.1789 25.8402Z" fill="white"/>
<path d="M42.2276 25.8402C42.2774 25.8397 42.3268 25.8498 42.3725 25.8698C42.4603 25.9078 42.5302 25.9784 42.5679 26.0669C42.5876 26.1125 42.5976 26.1617 42.5972 26.2114V28.0182C42.5974 28.0262 42.596 28.0342 42.5931 28.0417C42.5901 28.0492 42.5857 28.056 42.5801 28.0617C42.5744 28.0674 42.5677 28.0718 42.5603 28.0748C42.5529 28.0778 42.5449 28.0792 42.537 28.079H42.0973C42.0813 28.079 42.066 28.0726 42.0547 28.0612C42.0434 28.0498 42.037 28.0343 42.037 28.0182V27.4466C42.0372 27.4308 42.0313 27.4155 42.0207 27.4039C42.0156 27.3981 42.0094 27.3935 42.0023 27.3904C41.9953 27.3873 41.9877 27.3857 41.98 27.3858H41.3531C41.3452 27.3858 41.3373 27.3874 41.33 27.3905C41.3227 27.3935 41.3161 27.398 41.3105 27.4036C41.3049 27.4093 41.3004 27.416 41.2974 27.4233C41.2944 27.4307 41.2928 27.4386 41.2928 27.4466V28.0182C41.2939 28.0264 41.2931 28.0348 41.2904 28.0427C41.2878 28.0505 41.2834 28.0577 41.2775 28.0636C41.2717 28.0694 41.2646 28.0739 41.2568 28.0765C41.249 28.0792 41.2407 28.08 41.2326 28.079H40.7962C40.788 28.08 40.7797 28.0792 40.7719 28.0765C40.7641 28.0739 40.757 28.0694 40.7512 28.0636C40.7454 28.0577 40.741 28.0505 40.7383 28.0427C40.7357 28.0348 40.7348 28.0264 40.7359 28.0182V26.2114C40.7356 26.1619 40.745 26.1127 40.7636 26.0669C40.7818 26.0223 40.809 25.9821 40.8434 25.9486C40.8779 25.9148 40.9181 25.8875 40.9623 25.8681C41.0075 25.8483 41.0563 25.8382 41.1056 25.8386L42.2276 25.8402ZM42.0321 26.9029V26.3412H41.2896V26.9029H42.0321Z" fill="white"/>
<path d="M43.6606 26.3986C43.6548 26.4037 43.6501 26.41 43.6471 26.4171C43.644 26.4242 43.6425 26.4319 43.6427 26.4397V27.4728C43.6425 27.4806 43.644 27.4883 43.6471 27.4954C43.6501 27.5025 43.6548 27.5088 43.6606 27.5139C43.6721 27.5246 43.6872 27.5305 43.7029 27.5303H44.7191C44.727 27.5301 44.735 27.5315 44.7424 27.5345C44.7498 27.5375 44.7565 27.5419 44.7622 27.5476C44.7678 27.5533 44.7722 27.5601 44.7752 27.5676C44.7781 27.5751 44.7795 27.5831 44.7793 27.5911V28.0116C44.7795 28.0196 44.7781 28.0276 44.7752 28.0351C44.7722 28.0426 44.7678 28.0494 44.7622 28.0551C44.7565 28.0608 44.7498 28.0652 44.7424 28.0682C44.735 28.0712 44.727 28.0726 44.7191 28.0724H43.457C43.4079 28.0728 43.3592 28.0633 43.3137 28.0444C43.2692 28.0258 43.2288 27.9984 43.1948 27.964C43.1606 27.9298 43.1334 27.889 43.115 27.8441C43.0958 27.7983 43.0858 27.7492 43.0857 27.6995V26.213C43.0858 26.1633 43.0958 26.1142 43.115 26.0685C43.1332 26.0239 43.1604 25.9836 43.1948 25.9502C43.2294 25.9165 43.2696 25.8892 43.3137 25.8697C43.3589 25.8499 43.4077 25.8398 43.457 25.8402H44.7191C44.727 25.8399 44.735 25.8414 44.7424 25.8443C44.7498 25.8473 44.7565 25.8518 44.7622 25.8575C44.7678 25.8632 44.7722 25.8699 44.7752 25.8774C44.7781 25.8849 44.7795 25.8929 44.7793 25.9009V26.3214C44.7795 26.3295 44.7781 26.3375 44.7752 26.345C44.7722 26.3524 44.7678 26.3592 44.7622 26.3649C44.7565 26.3706 44.7498 26.3751 44.7424 26.378C44.735 26.381 44.727 26.3824 44.7191 26.3822H43.7029C43.6872 26.3821 43.6721 26.3879 43.6606 26.3986Z" fill="white"/>
<path d="M46.5429 26.7732C46.5403 26.7764 46.5388 26.7805 46.5388 26.7847C46.5388 26.7889 46.5403 26.7929 46.5429 26.7962L47.2839 28.0149C47.2872 28.0203 47.289 28.0266 47.289 28.033C47.289 28.0394 47.2872 28.0456 47.2839 28.051C47.2799 28.0562 47.2746 28.0602 47.2686 28.0628C47.2627 28.0654 47.2562 28.0664 47.2497 28.0658H46.7253C46.7075 28.0654 46.6901 28.0603 46.6748 28.051C46.6594 28.0426 46.6464 28.0301 46.6374 28.0149L46.1603 27.1444C46.1603 27.1345 46.1489 27.1329 46.144 27.1444L45.8785 27.4302C45.8667 27.4434 45.8578 27.4591 45.8525 27.4762C45.8455 27.494 45.8416 27.5129 45.8411 27.532V28.0034C45.8421 28.0116 45.8413 28.02 45.8387 28.0279C45.836 28.0357 45.8316 28.0429 45.8258 28.0488C45.82 28.0546 45.8129 28.0591 45.8051 28.0618C45.7973 28.0644 45.789 28.0653 45.7808 28.0642H45.3444C45.3362 28.0653 45.3279 28.0644 45.3201 28.0618C45.3123 28.0591 45.3053 28.0546 45.2994 28.0488C45.2936 28.0429 45.2892 28.0357 45.2866 28.0279C45.2839 28.02 45.2831 28.0116 45.2841 28.0034V25.901C45.2831 25.8927 45.2839 25.8844 45.2866 25.8765C45.2892 25.8686 45.2936 25.8615 45.2994 25.8556C45.3053 25.8498 45.3123 25.8453 45.3201 25.8426C45.3279 25.84 45.3362 25.8391 45.3444 25.8402H45.7776C45.7857 25.8391 45.794 25.84 45.8018 25.8426C45.8096 25.8453 45.8167 25.8498 45.8225 25.8556C45.8284 25.8615 45.8328 25.8686 45.8354 25.8765C45.8381 25.8844 45.8389 25.8927 45.8378 25.901V26.8487L46.652 25.8846C46.6642 25.8709 46.6792 25.8603 46.696 25.8533C46.7128 25.8452 46.7311 25.8408 46.7498 25.8402H47.2741C47.2904 25.8402 47.3002 25.8402 47.3034 25.8533C47.3067 25.8665 47.3034 25.8731 47.292 25.8846L46.5429 26.7732Z" fill="white"/>
<path d="M48.2479 28.0133C48.249 28.0215 48.2482 28.0299 48.2455 28.0377C48.2429 28.0456 48.2385 28.0527 48.2327 28.0586C48.2268 28.0645 48.2197 28.0689 48.2119 28.0716C48.2042 28.0743 48.1958 28.0751 48.1877 28.074H47.7513C47.7431 28.0751 47.7348 28.0743 47.727 28.0716C47.7192 28.0689 47.7121 28.0645 47.7063 28.0586C47.7005 28.0527 47.6961 28.0456 47.6934 28.0377C47.6908 28.0299 47.6899 28.0215 47.691 28.0133V25.901C47.6899 25.8927 47.6908 25.8844 47.6934 25.8765C47.6961 25.8686 47.7005 25.8615 47.7063 25.8556C47.7121 25.8498 47.7192 25.8453 47.727 25.8426C47.7348 25.84 47.7431 25.8391 47.7513 25.8402H48.1877C48.1958 25.8391 48.2042 25.84 48.2119 25.8426C48.2197 25.8453 48.2268 25.8498 48.2327 25.8556C48.2385 25.8615 48.2429 25.8686 48.2455 25.8765C48.2482 25.8844 48.249 25.8927 48.2479 25.901V28.0133Z" fill="white"/>
<path d="M50.378 25.8698C50.4656 25.9079 50.5355 25.9785 50.5734 26.0669C50.593 26.1125 50.603 26.1617 50.6027 26.2114V28.0182C50.6029 28.0262 50.6015 28.0342 50.5986 28.0417C50.5956 28.0492 50.5912 28.056 50.5856 28.0617C50.5799 28.0674 50.5732 28.0718 50.5658 28.0748C50.5584 28.0778 50.5504 28.0792 50.5425 28.079H50.1028C50.0951 28.0791 50.0875 28.0775 50.0805 28.0744C50.0735 28.0713 50.0672 28.0667 50.0621 28.0609C50.0515 28.0493 50.0456 28.034 50.0458 28.0182V26.4447C50.0459 26.4369 50.0443 26.4293 50.0412 26.4222C50.0381 26.4151 50.0336 26.4088 50.0279 26.4036C50.0164 26.3928 50.0012 26.3869 49.9855 26.3872H49.3602C49.3445 26.387 49.3294 26.3929 49.3179 26.4036C49.312 26.4087 49.3074 26.415 49.3043 26.4221C49.3012 26.4292 49.2997 26.4369 49.2999 26.4447V28.0182C49.301 28.0264 49.3002 28.0348 49.2975 28.0427C49.2949 28.0505 49.2905 28.0577 49.2847 28.0635C49.2788 28.0694 49.2717 28.0739 49.264 28.0765C49.2562 28.0792 49.2479 28.08 49.2397 28.079H48.8033C48.7951 28.08 48.7868 28.0792 48.779 28.0765C48.7712 28.0739 48.7641 28.0694 48.7583 28.0635C48.7525 28.0577 48.7481 28.0505 48.7454 28.0427C48.7428 28.0348 48.7419 28.0264 48.743 28.0182V25.901C48.7419 25.8927 48.7428 25.8844 48.7454 25.8765C48.7481 25.8686 48.7525 25.8615 48.7583 25.8556C48.7641 25.8498 48.7712 25.8453 48.779 25.8426C48.7868 25.84 48.7951 25.8391 48.8033 25.8402H50.233C50.2829 25.8396 50.3323 25.8497 50.378 25.8698Z" fill="white"/>
<path d="M52.9428 26.8717C52.9485 26.8772 52.953 26.8839 52.9561 26.8912C52.9591 26.8985 52.9607 26.9064 52.9607 26.9144V27.6995C52.9611 27.7492 52.9511 27.7985 52.9314 27.8441C52.9121 27.8885 52.8851 27.9292 52.8516 27.964C52.8184 27.9986 52.7785 28.026 52.7343 28.0445C52.6889 28.0633 52.6402 28.0728 52.591 28.0724H51.4706C51.4215 28.0728 51.3728 28.0633 51.3273 28.0445C51.2599 28.0161 51.2024 27.9682 51.1621 27.9067C51.1218 27.8453 51.1005 27.7732 51.101 27.6995V26.213C51.1011 26.1634 51.111 26.1142 51.1303 26.0685C51.1486 26.024 51.1757 25.9837 51.2101 25.9502C51.2447 25.9165 51.2849 25.8892 51.329 25.8698C51.3742 25.8499 51.423 25.8399 51.4723 25.8402H52.775C52.791 25.8402 52.8063 25.8466 52.8176 25.858C52.8289 25.8694 52.8353 25.8848 52.8353 25.901V26.3214C52.8353 26.3376 52.8289 26.353 52.8176 26.3644C52.8063 26.3758 52.791 26.3822 52.775 26.3822H51.7149C51.6992 26.3819 51.684 26.3878 51.6726 26.3986C51.6669 26.4038 51.6623 26.4101 51.6592 26.4172C51.6561 26.4243 51.6546 26.432 51.6547 26.4397V27.4729C51.6546 27.4806 51.6561 27.4883 51.6592 27.4953C51.6623 27.5024 51.6669 27.5088 51.6726 27.5139C51.684 27.5247 51.6992 27.5306 51.7149 27.5303H52.3419C52.3495 27.5308 52.3571 27.5297 52.3642 27.5269C52.3714 27.5242 52.3778 27.52 52.3832 27.5146C52.3886 27.5091 52.3928 27.5026 52.3955 27.4954C52.3982 27.4882 52.3993 27.4805 52.3989 27.4729V26.9144C52.3986 26.9064 52.4001 26.8984 52.403 26.8909C52.4059 26.8834 52.4104 26.8766 52.416 26.8709C52.4217 26.8652 52.4284 26.8608 52.4358 26.8578C52.4432 26.8548 52.4511 26.8534 52.4591 26.8536H52.8988C52.907 26.8534 52.9151 26.8549 52.9227 26.858C52.9303 26.8611 52.9371 26.8658 52.9428 26.8717Z" fill="white"/>
<path d="M24.3817 10.4663C24.9388 10.7051 25.3828 11.1518 25.621 11.713C25.7477 12.001 25.8126 12.3128 25.8115 12.6278V24.344C25.8122 24.3944 25.8028 24.4445 25.784 24.4912C25.7651 24.5379 25.7372 24.5804 25.7018 24.6161C25.6665 24.6517 25.6244 24.6799 25.5781 24.6989C25.5317 24.7179 25.4821 24.7273 25.4321 24.7267H22.6539C22.6052 24.7287 22.5566 24.7198 22.5115 24.7008C22.4665 24.6818 22.4262 24.6531 22.3934 24.6166C22.3267 24.5427 22.2911 24.4455 22.294 24.3456V13.6955H20.0484V24.3456C20.0512 24.4455 20.0156 24.5426 19.9491 24.6166C19.9162 24.653 19.8758 24.6817 19.8308 24.7007C19.7858 24.7197 19.7373 24.7285 19.6885 24.7267H17.1758C17.1258 24.7273 17.0762 24.7179 17.0298 24.6989C16.9835 24.6799 16.9414 24.6517 16.906 24.6161C16.8707 24.5804 16.8428 24.5379 16.8239 24.4912C16.8051 24.4445 16.7957 24.3944 16.7964 24.344V13.6955H14.5572V24.3456C14.5646 24.3976 14.5598 24.4506 14.5434 24.5004C14.5269 24.5502 14.4992 24.5955 14.4623 24.6326C14.4255 24.6697 14.3807 24.6977 14.3313 24.7143C14.2819 24.7309 14.2293 24.7357 14.1778 24.7283H11.4176C11.366 24.7357 11.3135 24.7309 11.2641 24.7143C11.2147 24.6977 11.1699 24.6697 11.133 24.6326C11.0962 24.5955 11.0685 24.5502 11.052 24.5004C11.0356 24.4506 11.0308 24.3976 11.0381 24.3456V10.6585C11.0308 10.6065 11.0356 10.5535 11.052 10.5037C11.0685 10.4539 11.0962 10.4086 11.133 10.3715C11.1699 10.3343 11.2147 10.3064 11.2641 10.2898C11.3135 10.2731 11.366 10.2683 11.4176 10.2758H23.4682C23.7826 10.2737 24.0939 10.3386 24.3817 10.4663Z" fill="white"/>
<path d="M24.3814 10.4662C24.9384 10.705 25.3824 11.1517 25.6206 11.7129C25.7473 12.0009 25.8122 12.3127 25.8112 12.6278V13.6724L22.2937 13.6938H14.5569L11.0394 13.6724V10.6584C11.0321 10.6066 11.0369 10.5537 11.0533 10.5041C11.0696 10.4544 11.0972 10.4092 11.1338 10.3721C11.1705 10.335 11.2151 10.307 11.2643 10.2903C11.3135 10.2735 11.3658 10.2685 11.4172 10.2757H23.4678C23.7822 10.2736 24.0936 10.3385 24.3814 10.4662Z" fill="white"/>
<path d="M37.9251 21.2198C37.9763 21.2179 38.0274 21.2271 38.0748 21.2466C38.1223 21.2661 38.1651 21.2956 38.2003 21.3331C38.2708 21.4085 38.3088 21.5088 38.3062 21.6124V24.3373C38.309 24.4408 38.2709 24.5413 38.2003 24.6165C38.1651 24.654 38.1223 24.6835 38.0748 24.7031C38.0274 24.7226 37.9763 24.7317 37.9251 24.7299H28.4101C28.3564 24.7384 28.3016 24.7343 28.2498 24.7178C28.198 24.7013 28.1508 24.6729 28.1118 24.6349C28.0728 24.5968 28.0431 24.5501 28.025 24.4984C28.007 24.4468 28.0011 24.3916 28.0078 24.3373V10.6682C28.0011 10.6139 28.007 10.5587 28.025 10.5071C28.0431 10.4554 28.0728 10.4087 28.1118 10.3707C28.1508 10.3326 28.198 10.3042 28.2498 10.2877C28.3016 10.2712 28.3564 10.2671 28.4101 10.2757H31.3315C31.3851 10.2671 31.44 10.2712 31.4917 10.2877C31.5435 10.3042 31.5908 10.3326 31.6298 10.3707C31.6688 10.4087 31.6985 10.4554 31.7165 10.5071C31.7346 10.5587 31.7405 10.6139 31.7337 10.6682V20.8519C31.7323 20.9025 31.7421 20.9528 31.7623 20.9991C31.7826 21.0454 31.8129 21.0866 31.851 21.1196C31.9301 21.1894 32.0325 21.2264 32.1376 21.2231L37.9251 21.2198Z" fill="white"/>
<path d="M31.7028 24.7298H28.4085C28.355 24.7381 28.3003 24.7338 28.2487 24.7172C28.1972 24.7005 28.1502 24.6721 28.1113 24.6341C28.0725 24.596 28.043 24.5494 28.025 24.4979C28.0071 24.4464 28.0012 24.3914 28.0079 24.3373V10.6682C28.0012 10.614 28.0071 10.559 28.025 10.5075C28.043 10.456 28.0725 10.4094 28.1113 10.3714C28.1502 10.3333 28.1972 10.3049 28.2487 10.2883C28.3003 10.2717 28.355 10.2673 28.4085 10.2756H31.3234C31.3769 10.2673 31.4316 10.2717 31.4831 10.2883C31.5347 10.3049 31.5817 10.3333 31.6205 10.3714C31.6593 10.4094 31.6889 10.456 31.7068 10.5075C31.7248 10.559 31.7307 10.614 31.724 10.6682V20.8518C31.7256 20.9586 31.7028 24.7298 31.7028 24.7298Z" fill="white"/>
<path d="M52.552 10.2757C52.6051 10.2742 52.6579 10.2835 52.7074 10.303C52.7569 10.3225 52.802 10.3517 52.8402 10.389C52.878 10.4247 52.9079 10.468 52.9281 10.5161C52.9483 10.5642 52.9583 10.616 52.9574 10.6682V24.3767C52.9584 24.429 52.9484 24.4808 52.9282 24.5289C52.908 24.577 52.878 24.6203 52.8402 24.656C52.802 24.6932 52.7569 24.7225 52.7074 24.7419C52.6579 24.7614 52.6051 24.7707 52.552 24.7693H49.593C49.5399 24.7708 49.4871 24.7615 49.4375 24.7421C49.388 24.7226 49.3429 24.6933 49.3048 24.656C49.267 24.6203 49.237 24.577 49.2168 24.5289C49.1966 24.4808 49.1866 24.429 49.1876 24.3767V19.5937C49.1895 19.5438 49.1811 19.4941 49.1629 19.4477C49.1446 19.4013 49.117 19.3593 49.0817 19.3243C49.0447 19.2894 49.0011 19.2623 48.9536 19.2446C48.9061 19.2268 48.8555 19.2187 48.8049 19.2208H44.6523C44.5467 19.2176 44.4438 19.2545 44.3641 19.3243C44.3259 19.3576 44.2955 19.399 44.2752 19.4456C44.2549 19.4922 44.2452 19.5428 44.2468 19.5937V24.3767C44.2468 24.6395 44.1122 24.7709 43.843 24.7709H40.9117C40.6414 24.7709 40.5068 24.6395 40.5079 24.3767V10.6764C40.5079 10.4147 40.6425 10.2833 40.9117 10.2822H43.843C44.1122 10.2822 44.2468 10.4136 44.2468 10.6764V15.3067C44.2468 15.5695 44.3814 15.7009 44.6507 15.7009H48.8032C48.8547 15.7029 48.906 15.6938 48.9538 15.6743C49.0015 15.6547 49.0445 15.6252 49.0801 15.5876C49.1505 15.5122 49.1885 15.4119 49.1859 15.3083V10.6764C49.185 10.6242 49.1949 10.5724 49.2151 10.5242C49.2353 10.4761 49.2653 10.4329 49.3032 10.3972C49.3413 10.3599 49.3865 10.3307 49.436 10.3112C49.4855 10.2917 49.5383 10.2824 49.5914 10.2839L52.552 10.2757Z" fill="white"/>
<path d="M44.2485 19.5937V24.3767C44.2485 24.6395 44.1138 24.7709 43.8446 24.7709H40.9134C40.6431 24.7709 40.5084 24.6395 40.5095 24.3767V10.6764C40.5095 10.4147 40.6441 10.2833 40.9134 10.2822H43.8446C44.1138 10.2822 44.2485 10.4136 44.2485 10.6764V19.6019V19.5937Z" fill="white"/>
<path d="M52.552 10.2757C52.6051 10.2742 52.6579 10.2835 52.7074 10.303C52.7569 10.3225 52.802 10.3517 52.8402 10.389C52.878 10.4247 52.9079 10.468 52.9281 10.5161C52.9483 10.5642 52.9583 10.616 52.9574 10.6682V24.3767C52.9584 24.429 52.9484 24.4808 52.9282 24.5289C52.908 24.577 52.878 24.6203 52.8402 24.656C52.802 24.6932 52.7569 24.7225 52.7074 24.7419C52.6579 24.7614 52.6051 24.7707 52.552 24.7693H49.593C49.5399 24.7708 49.4871 24.7615 49.4375 24.7421C49.388 24.7226 49.3429 24.6933 49.3048 24.656C49.267 24.6203 49.237 24.577 49.2168 24.5289C49.1966 24.4808 49.1866 24.429 49.1876 24.3767V10.6764C49.1866 10.6242 49.1966 10.5724 49.2168 10.5242C49.237 10.4761 49.267 10.4329 49.3048 10.3972C49.343 10.3599 49.3881 10.3307 49.4376 10.3112C49.4871 10.2917 49.5399 10.2824 49.593 10.2839L52.552 10.2757Z" fill="white"/>
</svg>
