<svg id="Layer_1" data-name="Layer 1" xmlns="http://www.w3.org/2000/svg" viewBox="0 0 1155.95 1155.95"><defs><style>.cls-1{fill:#fff;}.cls-2{fill:#00b1e1;}.cls-3{fill:#f06589;}</style></defs><title>th_logo_color_fill</title><polygon class="cls-1" points="1042.97 204.88 1042.97 168.92 961.97 168.92 961.97 257.83 922.97 257.83 922.97 105.98 872.97 105.98 872.97 205.88 831.97 205.88 831.97 131.96 718.97 131.96 718.97 294.79 666.97 294.79 666.97 194.89 609.97 194.89 609.97 268.82 496.97 268.82 496.97 95 449.97 95 449.97 251.84 401.97 251.84 401.97 167.92 292.97 167.92 292.97 294.79 196.97 294.79 196.97 128.96 155.97 128.96 155.97 205.38 66.47 205.38 66 566.95 65.97 566.95 65.97 951.06 112.97 951.06 112.97 987.03 193.97 987.03 193.97 898.12 232.97 898.12 232.97 1049.96 282.97 1049.96 282.97 950.07 323.97 950.07 323.97 1023.99 436.97 1023.99 436.97 861.15 488.97 861.15 488.97 961.05 545.97 961.05 545.97 887.13 658.97 887.13 658.97 1060.95 705.97 1060.95 705.97 904.11 753.97 904.11 753.97 988.03 862.97 988.03 862.97 861.15 958.97 861.15 958.97 1026.99 999.97 1026.99 999.97 950.56 1089.47 950.56 1089.94 589 1089.97 589 1089.97 204.88 1042.97 204.88"/><rect class="cls-1" x="100.97" y="96.99" width="30" height="30"/><rect class="cls-1" x="237.97" y="172.99" width="32" height="32"/><rect class="cls-1" x="373.97" y="85.99" width="39" height="39"/><rect class="cls-1" x="551.97" y="172.99" width="32" height="32"/><rect class="cls-1" x="622.97" y="45.99" width="61" height="61"/><rect class="cls-1" x="955.97" y="84.99" width="48" height="48"/><rect class="cls-1" x="1053.97" y="132.99" width="15" height="15"/><rect class="cls-1" x="567.97" y="116.99" width="16" height="16"/><rect class="cls-1" x="1024.97" y="1028.95" width="30" height="30"/><rect class="cls-1" x="885.97" y="950.95" width="32" height="32"/><rect class="cls-1" x="742.97" y="1030.95" width="39" height="39"/><rect class="cls-1" x="571.97" y="950.95" width="32" height="32"/><rect class="cls-1" x="471.97" y="1048.95" width="61" height="61"/><rect class="cls-1" x="151.97" y="1022.95" width="48" height="48"/><rect class="cls-1" x="86.97" y="1007.95" width="15" height="15"/><rect class="cls-1" x="571.97" y="1022.95" width="16" height="16"/><path class="cls-2" d="M190.24,564V636.5H168.88V564H152.5V544h16.38v-33.9h21.36V544h16.62V564Z"/><path class="cls-2" d="M291.26,544h21.46V636.5H291.26v-9.69q-13.2,12.34-28.39,12.34-19.18,0-31.71-13.86Q218.72,611.15,218.72,590q0-20.79,12.44-34.66a40.09,40.09,0,0,1,31.14-13.86q16.14,0,29,13.29Zm-50.7,46q0,13.29,7.12,21.65a23.32,23.32,0,0,0,18.42,8.45q11.87,0,19.18-8.17,7.31-8.45,7.31-21.46T285.28,569q-7.31-8.26-19-8.26a23.62,23.62,0,0,0-18.42,8.35Q240.56,577.54,240.56,590Z"/><path class="cls-2" d="M339.68,544H361v8.54q6.17-6.46,10.54-8.74a25.58,25.58,0,0,1,11.68-2.37q15.67,0,24.78,13.67,10.06-13.67,27.25-13.67,31.24,0,31.24,37.88V636.5H445.07V585.14q0-13.29-3.23-18.8t-10.92-5.6q-8.83,0-12.87,6.65t-4,21.36V636.5H392.57V585.42q0-24.68-14.24-24.69-9,0-13.15,6.74T361,588.74V636.5H339.68Z"/><path class="cls-2" d="M514.86,544V597.1q0,23,18.13,23t18.13-23V544h21.36v53.55a59.6,59.6,0,0,1-2.75,19.18,32.2,32.2,0,0,1-9.21,13q-10.82,9.4-27.53,9.4t-27.44-9.4a32.71,32.71,0,0,1-9.4-13q-2.66-6.46-2.66-19.18V544Z"/><path class="cls-3" d="M599.45,476.14h21.36v75.58q11.39-10.25,25.16-10.25,15.67,0,25.07,10.16,8,8.83,8,28.2V636.5H657.66V581.81q0-11.11-3.94-16.09t-12.67-5q-11.2,0-15.76,6.93t-4.46,24.12V636.5H599.45Z"/><path class="cls-3" d="M774.25,544h21.46V636.5H774.25v-9.69q-13.2,12.34-28.39,12.34-19.18,0-31.71-13.86Q701.71,611.15,701.71,590q0-20.79,12.44-34.66a40.09,40.09,0,0,1,31.14-13.86q16.14,0,29,13.29Zm-50.7,46q0,13.29,7.12,21.65a23.32,23.32,0,0,0,18.42,8.45q11.87,0,19.18-8.17,7.31-8.45,7.31-21.46T768.27,569q-7.31-8.26-19-8.26a23.62,23.62,0,0,0-18.42,8.35Q723.55,577.54,723.55,590Z"/><path class="cls-3" d="M894.64,548v21.91a2.43,2.43,0,0,1-4.2,1.68,40.81,40.81,0,0,0-8.91-7.45,25.53,25.53,0,0,0-13.39-3.42,26.39,26.39,0,0,0-20,8.45q-8,8.45-8,21.17,0,13,7.69,21.36t19.84,8.36a27.14,27.14,0,0,0,13.58-3.32q4.61-2.61,10.51-9.19a1.64,1.64,0,0,1,2.87,1.09v23.77a56.12,56.12,0,0,1-26,6.74q-21.46,0-35.89-13.86T818.3,590.64q0-20.7,14.62-34.94t35.89-14.24A53.62,53.62,0,0,1,894.64,548Z"/><path class="cls-3" d="M941.73,476.14v97.79L971.83,544h28.67l-40.16,38.83,43.1,53.64H975.72l-30.57-39-3.42,3.42V636.5H920.37V476.14Z"/></svg>