<?xml version="1.0" encoding="utf-8"?>
<!-- Generator: Adobe Illustrator 19.1.0, SVG Export Plug-In . SVG Version: 6.00 Build 0)  -->
<svg version="1.1" id="Layer_1" xmlns="http://www.w3.org/2000/svg" xmlns:xlink="http://www.w3.org/1999/xlink" x="0px" y="0px"
	 viewBox="47 90 394.1 121" style="enable-background:new 47 90 394.1 121;" xml:space="preserve">
<style type="text/css">
	.st0{clip-path:url(#SVGID_2_);}
	.st1{fill:#00C0EF;}
	.st2{fill:#9BE7FF;}
	.st3{fill:none;stroke:#00C0EF;stroke-miterlimit:10;}
	.st4{clip-path:url(#SVGID_4_);}
	.st5{clip-path:url(#SVGID_6_);}
	.st6{fill:#F16991;}
	.st7{fill:#F99DA9;}
	.st8{fill:#EC1C24;}
	.st9{fill:#F3888F;}
	.st10{fill:#F9B8A4;}
	.st11{fill:none;stroke:#F3888F;stroke-miterlimit:10;}
	.st12{clip-path:url(#SVGID_8_);}
	.st13{fill:none;stroke:#F4B2D2;stroke-miterlimit:10;}
	.st14{fill:none;stroke:#A992F4;stroke-miterlimit:10;}
	.st15{clip-path:url(#SVGID_10_);}
	.st16{clip-path:url(#SVGID_12_);}
	.st17{clip-path:url(#SVGID_14_);}
	.st18{clip-path:url(#SVGID_16_);}
</style>
<g>
	<g>
		<defs>
			<rect id="SVGID_1_" x="65.2" y="146.6" width="23" height="8.6"/>
		</defs>
		<clipPath id="SVGID_2_">
			<use xlink:href="#SVGID_1_"  style="overflow:visible;"/>
		</clipPath>
		<g class="st0">
			<rect x="69.4" y="146.6" class="st1" width="12.2" height="8.6"/>
			
				<rect x="78.6" y="147.9" transform="matrix(-0.7071 0.7071 -0.7071 -0.7071 246.1542 199.858)" class="st1" width="6.1" height="6.1"/>
			
				<rect x="66.4" y="147.8" transform="matrix(-0.7071 0.7071 -0.7071 -0.7071 225.2925 208.4385)" class="st1" width="6.1" height="6.1"/>
			<rect x="71.5" y="146.6" class="st2" width="12.2" height="8.6"/>
			
				<rect x="80.7" y="147.8" transform="matrix(-0.7071 0.7071 -0.7071 -0.7071 249.7028 198.33)" class="st2" width="6.1" height="6.1"/>
			
				<rect x="68.4" y="147.9" transform="matrix(-0.7071 0.7071 -0.7071 -0.7071 228.7775 207.0948)" class="st2" width="6.1" height="6.1"/>
			<rect x="69.5" y="146.6" class="st1" width="12.2" height="8.6"/>
			
				<rect x="78.7" y="147.8" transform="matrix(-0.7071 0.7071 -0.7071 -0.7071 246.3015 199.7614)" class="st1" width="6.1" height="6.1"/>
			
				<rect x="66.5" y="147.8" transform="matrix(-0.7071 0.7071 -0.7071 -0.7071 225.4468 208.359)" class="st1" width="6.1" height="6.1"/>
			<rect x="71.6" y="146.6" class="st2" width="12.2" height="8.6"/>
			
				<rect x="80.8" y="147.8" transform="matrix(-0.7071 0.7071 -0.7071 -0.7071 249.8601 198.2576)" class="st2" width="6.1" height="6.1"/>
			
				<rect x="68.5" y="147.9" transform="matrix(-0.7071 0.7071 -0.7071 -0.7071 228.9247 207.0324)" class="st2" width="6.1" height="6.1"/>
			<line class="st3" x1="67.4" y1="152.8" x2="73.9" y2="146.3"/>
			<line class="st3" x1="69.3" y1="153.8" x2="76.6" y2="146.4"/>
			<line class="st3" x1="71.2" y1="155" x2="79.8" y2="146.4"/>
			<line class="st3" x1="73.6" y1="155.7" x2="82.9" y2="146.4"/>
			<line class="st3" x1="76.9" y1="155.6" x2="84.8" y2="147.6"/>
			<line class="st3" x1="80" y1="155.6" x2="86.4" y2="149.2"/>
			<line class="st3" x1="82.8" y1="155.7" x2="87.8" y2="150.6"/>
		</g>
	</g>
	<g>
		<defs>
			<rect id="SVGID_3_" x="84.5" y="152.2" width="10.7" height="33.8"/>
		</defs>
		<clipPath id="SVGID_4_">
			<use xlink:href="#SVGID_3_"  style="overflow:visible;"/>
		</clipPath>
		<g class="st4">
			<rect x="84.5" y="156.5" class="st1" width="8.6" height="25.1"/>
			
				<rect x="85.8" y="178.6" transform="matrix(-0.7071 0.7071 -0.7071 -0.7071 280.083 247.2662)" class="st1" width="6.1" height="6.1"/>
			
				<rect x="85.8" y="153.5" transform="matrix(-0.7071 0.7071 -0.7071 -0.7071 262.3456 204.4024)" class="st1" width="6.1" height="6.1"/>
			<polygon class="st2" points="95.2,156.5 95.2,158.3 95.2,181.7 86.6,181.7 86.6,156.5 			"/>
			
				<rect x="87.9" y="178.6" transform="matrix(-0.7071 0.7071 -0.7071 -0.7071 283.6558 245.7623)" class="st2" width="6.1" height="6.1"/>
			
				<rect x="87.9" y="153.5" transform="matrix(-0.7071 0.7071 -0.7071 -0.7071 265.9013 202.8914)" class="st2" width="6.1" height="6.1"/>
			<polyline class="st1" points="90.9,186 88.8,186 89.9,184.9 			"/>
			<polygon class="st1" points="90.9,152.2 88.8,152.2 89.9,153.3 			"/>
			<line class="st3" x1="85" y1="160.7" x2="92.2" y2="153.5"/>
			<line class="st3" x1="86.3" y1="162.1" x2="93.5" y2="154.9"/>
			<line class="st3" x1="85.9" y1="165.3" x2="94.9" y2="156.2"/>
			<line class="st3" x1="86.3" y1="167.6" x2="95.4" y2="158.5"/>
			<line class="st3" x1="86.3" y1="170.5" x2="95.4" y2="161.4"/>
			<line class="st3" x1="86.4" y1="173.4" x2="95.5" y2="164.3"/>
			<line class="st3" x1="86.3" y1="176.6" x2="95.4" y2="167.5"/>
			<line class="st3" x1="86.3" y1="179.7" x2="95.4" y2="170.6"/>
			<line class="st3" x1="86.4" y1="182.8" x2="95.5" y2="173.7"/>
			<line class="st3" x1="87.9" y1="184.3" x2="95.5" y2="176.7"/>
			<line class="st3" x1="89.5" y1="185.6" x2="95.5" y2="179.6"/>
		</g>
	</g>
	<g>
		<defs>
			<rect id="SVGID_5_" x="137.1" y="151.9" width="10.7" height="33.8"/>
		</defs>
		<clipPath id="SVGID_6_">
			<use xlink:href="#SVGID_5_"  style="overflow:visible;"/>
		</clipPath>
		<g class="st5">
			<rect x="137" y="156.3" class="st6" width="8.6" height="25.1"/>
			
				<rect x="138.3" y="178.3" transform="matrix(-0.7071 0.7071 -0.7071 -0.7071 369.5647 209.6789)" class="st6" width="6.1" height="6.1"/>
			
				<rect x="138.3" y="153.2" transform="matrix(-0.7071 0.7071 -0.7071 -0.7071 351.8344 166.8321)" class="st6" width="6.1" height="6.1"/>
			<rect x="139.1" y="156.3" class="st7" width="8.6" height="25.1"/>
			
				<rect x="140.4" y="178.3" transform="matrix(-0.7071 0.7071 -0.7071 -0.7071 373.1375 208.175)" class="st7" width="6.1" height="6.1"/>
			
				<rect x="140.4" y="153.2" transform="matrix(-0.7071 0.7071 -0.7071 -0.7071 355.383 165.3041)" class="st7" width="6.1" height="6.1"/>
			<polyline class="st6" points="143.4,185.7 141.3,185.7 142.4,184.6 			"/>
			<polygon class="st6" points="143.4,152 141.3,152 142.4,153 			"/>
			<rect x="139" y="156.3" class="st8" width="8.6" height="25.1"/>
			
				<rect x="140.3" y="178.3" transform="matrix(-0.7071 0.7071 -0.7071 -0.7071 372.966 208.2474)" class="st8" width="6.1" height="6.1"/>
			
				<rect x="140.2" y="153.3" transform="matrix(-0.7071 0.7071 -0.7071 -0.7071 355.1579 165.5367)" class="st8" width="6.1" height="6.1"/>
			<rect x="137" y="156.3" class="st9" width="8.6" height="25.1"/>
			
				<rect x="138.3" y="178.3" transform="matrix(-0.7071 0.7071 -0.7071 -0.7071 369.5647 209.6789)" class="st9" width="6.1" height="6.1"/>
			
				<rect x="138.3" y="153.2" transform="matrix(-0.7071 0.7071 -0.7071 -0.7071 351.8344 166.8321)" class="st9" width="6.1" height="6.1"/>
			<polygon class="st10" points="147.7,156.3 147.7,158 147.7,181.4 139.1,181.4 139.1,156.3 			"/>
			
				<rect x="140.4" y="178.3" transform="matrix(-0.7071 0.7071 -0.7071 -0.7071 373.1375 208.175)" class="st10" width="6.1" height="6.1"/>
			
				<rect x="140.4" y="153.2" transform="matrix(-0.7071 0.7071 -0.7071 -0.7071 355.383 165.3041)" class="st10" width="6.1" height="6.1"/>
			<polyline class="st9" points="143.4,185.7 141.3,185.7 142.4,184.6 			"/>
			<polygon class="st9" points="143.4,152 141.3,152 142.4,153 			"/>
			<line class="st11" x1="137.6" y1="160.4" x2="144.7" y2="153.3"/>
			<line class="st11" x1="138.8" y1="161.8" x2="146" y2="154.6"/>
			<line class="st11" x1="138.3" y1="165" x2="147.4" y2="156"/>
			<line class="st11" x1="138.8" y1="167.3" x2="147.9" y2="158.2"/>
			<line class="st11" x1="138.8" y1="170.2" x2="147.9" y2="161.1"/>
			<line class="st11" x1="138.8" y1="173.1" x2="148" y2="164"/>
			<line class="st11" x1="138.7" y1="176.3" x2="147.8" y2="167.2"/>
			<line class="st11" x1="138.8" y1="179.4" x2="147.9" y2="170.3"/>
			<line class="st11" x1="138.8" y1="182.5" x2="148" y2="173.4"/>
			<line class="st11" x1="140.4" y1="184.1" x2="148" y2="176.4"/>
			<line class="st11" x1="142" y1="185.3" x2="147.9" y2="179.3"/>
		</g>
	</g>
	<g>
		<defs>
			<rect id="SVGID_7_" x="110.6" y="151.9" width="10.7" height="33.8"/>
		</defs>
		<clipPath id="SVGID_8_">
			<use xlink:href="#SVGID_7_"  style="overflow:visible;"/>
		</clipPath>
		<g class="st12">
			<rect x="110.6" y="156.3" class="st6" width="8.6" height="25.1"/>
			
				<rect x="111.9" y="178.3" transform="matrix(-0.7071 0.7071 -0.7071 -0.7071 324.4091 228.3756)" class="st6" width="6.1" height="6.1"/>
			
				<rect x="111.9" y="153.2" transform="matrix(-0.7071 0.7071 -0.7071 -0.7071 306.6788 185.5288)" class="st6" width="6.1" height="6.1"/>
			<rect x="112.7" y="156.3" class="st7" width="8.6" height="25.1"/>
			
				<rect x="114" y="178.3" transform="matrix(-0.7071 0.7071 -0.7071 -0.7071 327.9819 226.8717)" class="st7" width="6.1" height="6.1"/>
			
				<rect x="114" y="153.2" transform="matrix(-0.7071 0.7071 -0.7071 -0.7071 310.2274 184.0008)" class="st7" width="6.1" height="6.1"/>
			<polyline class="st6" points="117,185.7 114.9,185.7 116,184.6 			"/>
			<polygon class="st6" points="117,152 114.9,152 116,153 			"/>
			<rect x="112.6" y="156.3" class="st8" width="8.6" height="25.1"/>
			
				<rect x="113.9" y="178.3" transform="matrix(-0.7071 0.7071 -0.7071 -0.7071 327.8105 226.9441)" class="st8" width="6.1" height="6.1"/>
			
				<rect x="113.8" y="153.3" transform="matrix(-0.7071 0.7071 -0.7071 -0.7071 310.0024 184.2334)" class="st8" width="6.1" height="6.1"/>
			<rect x="110.6" y="156.3" class="st9" width="8.6" height="25.1"/>
			
				<rect x="111.9" y="178.3" transform="matrix(-0.7071 0.7071 -0.7071 -0.7071 324.4091 228.3756)" class="st9" width="6.1" height="6.1"/>
			
				<rect x="111.9" y="153.2" transform="matrix(-0.7071 0.7071 -0.7071 -0.7071 306.6788 185.5288)" class="st9" width="6.1" height="6.1"/>
			<polygon class="st10" points="121.3,156.3 121.3,158 121.3,181.4 112.7,181.4 112.7,156.3 			"/>
			
				<rect x="114" y="178.3" transform="matrix(-0.7071 0.7071 -0.7071 -0.7071 327.9819 226.8717)" class="st10" width="6.1" height="6.1"/>
			
				<rect x="114" y="153.2" transform="matrix(-0.7071 0.7071 -0.7071 -0.7071 310.2274 184.0008)" class="st10" width="6.1" height="6.1"/>
			<polyline class="st9" points="117,185.7 114.9,185.7 116,184.6 			"/>
			<polygon class="st9" points="117,152 114.9,152 116,153 			"/>
			<line class="st11" x1="111.2" y1="160.4" x2="118.3" y2="153.3"/>
			<line class="st11" x1="112.4" y1="161.8" x2="119.6" y2="154.6"/>
			<line class="st11" x1="111.9" y1="165" x2="121" y2="156"/>
			<line class="st11" x1="112.4" y1="167.3" x2="121.5" y2="158.2"/>
			<line class="st11" x1="112.4" y1="170.2" x2="121.5" y2="161.1"/>
			<line class="st11" x1="112.4" y1="173.1" x2="121.6" y2="164"/>
			<line class="st11" x1="112.3" y1="176.3" x2="121.4" y2="167.2"/>
			<line class="st11" x1="112.4" y1="179.4" x2="121.5" y2="170.3"/>
			<line class="st11" x1="112.4" y1="182.5" x2="121.6" y2="173.4"/>
			<line class="st11" x1="114" y1="184.1" x2="121.6" y2="176.4"/>
			<line class="st11" x1="115.6" y1="185.3" x2="121.5" y2="179.3"/>
		</g>
	</g>
	<g>
		<path class="st1" d="M189.9,166.2c0,1,0.1,2,0.4,2.9c0.2,0.6,0.6,1.1,1.1,1.6c0.4,0.3,0.9,0.6,1.4,0.6c0.5,0.1,1,0.1,1.6,0.1
			c0.7,0,1.3,0,1.8,0c0.4,0,0.8-0.1,1.1-0.2v1.3l-1.1,0.1c-0.4,0-1.1,0.1-2.1,0.1c-1.4,0-2.8-0.4-3.9-1.3c-1.1-0.9-1.6-2.5-1.6-4.9
			v-26h-6.1v-1.4h6.1v-10.6h1.3v10.6h7.6v1.3h-7.6V166.2z"/>
		<path class="st1" d="M202.9,145.1c0.6-1.3,1.4-2.6,2.4-3.6c1.1-1,2.5-1.8,3.9-2.4c1.8-0.6,3.6-0.9,5.5-0.8c1.4,0,2.8,0.1,4.2,0.5
			c1.3,0.3,2.5,0.8,3.5,1.6c1,0.8,1.9,1.8,2.4,3c0.7,1.4,1,3,1,4.6v21.4c0,0.5,0.1,1,0.4,1.4c0.3,0.3,0.6,0.5,1,0.6
			c0.5,0.1,0.9,0.2,1.4,0.1c0.5,0,1,0,1.4-0.1v1.3h-2c-0.9,0-1.8-0.2-2.5-0.7c-0.8-0.6-1.2-1.6-1.1-2.6v-4.4h-0.1
			c-0.4,1.1-0.9,2.2-1.6,3.1c-0.8,1-1.8,1.9-2.9,2.7c-1.2,0.8-2.6,1.4-4,1.9c-1.6,0.5-3.2,0.7-4.8,0.7c-2.9,0.1-5.8-0.6-8.2-2.3
			c-2.1-1.6-3.2-4.1-3.1-6.8c-0.1-1.7,0.3-3.4,1-5c0.6-1.2,1.5-2.2,2.6-3c1.1-0.7,2.4-1.2,3.7-1.5c1.4-0.3,2.8-0.5,4.2-0.6l5.9-0.4
			c1.4-0.1,2.7-0.3,4.1-0.6c0.9-0.2,1.7-0.8,2.4-1.5c0.6-0.9,0.8-1.9,0.8-2.9c0-1-0.1-2.1-0.3-3.1c-0.2-1.1-0.6-2.1-1.3-3
			c-0.8-1-1.8-1.8-3-2.3c-1.7-0.7-3.5-1-5.3-0.9c-3.5,0-6.3,0.9-8.2,2.6c-2,1.9-3.2,4.5-3.3,7.3h-1.3
			C202,148,202.3,146.5,202.9,145.1z M224.4,153c-0.5,0.7-1.2,1.1-2,1.4c-1,0.4-2.1,0.6-3.1,0.8c-1.3,0.2-2.5,0.3-3.8,0.3
			c-1.4,0-2.7,0.1-4,0.2c-1.3,0.1-2.6,0.2-3.8,0.5c-1.2,0.2-2.3,0.7-3.3,1.3c-1,0.7-1.8,1.6-2.3,2.6c-0.6,1.4-0.9,2.8-0.9,4.3
			c0,1,0.2,1.9,0.5,2.8c0.3,1,0.9,1.8,1.7,2.5c0.9,0.8,1.9,1.4,3,1.8c1.5,0.5,3,0.7,4.6,0.7c2,0,4-0.3,5.8-1.1
			c1.6-0.7,3.1-1.7,4.3-2.9c1.1-1.2,2-2.6,2.6-4.1c0.6-1.5,0.9-3.2,0.9-4.8V153H224.4z"/>
		<path class="st1" d="M234.7,139.1v8.3h0.1c0.3-1.3,0.8-2.5,1.4-3.6c0.7-1.1,1.5-2,2.4-2.9c0.9-0.8,2-1.5,3.2-1.9
			c1.2-0.5,2.4-0.7,3.7-0.7c2.4-0.2,4.7,0.6,6.6,2c1.8,1.5,3,3.5,3.5,5.8h0.1c0.6-2.3,2-4.3,3.9-5.7c2-1.4,4.4-2.2,6.8-2.2
			c1.7-0.1,3.5,0.3,5.1,0.9c1.3,0.6,2.4,1.4,3.3,2.5c0.9,1.1,1.5,2.5,1.8,3.9c0.4,1.6,0.5,3.3,0.5,5v22.1h-1.3v-22.1
			c0-1.5-0.1-3-0.4-4.5c-0.2-1.2-0.8-2.4-1.5-3.5c-0.7-1-1.7-1.7-2.9-2.2c-1.4-0.6-3-0.8-4.5-0.8c-3,0-5.8,1.3-7.7,3.5
			c-0.9,1.1-1.6,2.4-2.1,3.8c-0.5,1.4-0.7,3-0.7,4.5v21.3h-1.3v-21.5c0-1.5-0.1-3-0.4-4.4c-0.2-1.3-0.7-2.5-1.3-3.7
			c-0.7-1.1-1.6-1.9-2.7-2.5c-1.4-0.7-3-1-4.6-0.9c-1.6,0-3.1,0.4-4.5,1.1c-1.4,0.8-2.5,1.8-3.4,3.1c-1,1.4-1.7,2.9-2.2,4.5
			c-0.5,1.7-0.8,3.5-0.8,5.4v19h-1.3v-33.6H234.7z"/>
		<path class="st1" d="M308.4,172.7v-8.3h-0.1c-0.6,2.5-2,4.8-4,6.5c-2.3,1.8-5.2,2.7-8.1,2.6c-1.6,0-3.3-0.2-4.8-0.8
			c-1.4-0.5-2.7-1.3-3.8-2.3c-1.1-1.1-1.9-2.4-2.5-3.8c-0.6-1.7-0.9-3.4-0.9-5.2v-22.3h1.3v22.1c0,1.7,0.2,3.4,0.9,5
			c0.5,1.3,1.3,2.5,2.3,3.4c1,0.9,2.1,1.6,3.4,2c1.3,0.4,2.7,0.6,4.1,0.6c1.8,0,3.6-0.4,5.3-1.1c1.5-0.7,2.8-1.8,3.8-3.1
			c1-1.3,1.8-2.8,2.3-4.5c0.5-1.7,0.8-3.5,0.8-5.4v-19h1.3v33.6L308.4,172.7z"/>
	</g>
	<g>
		<path class="st9" d="M318.2,126.1v21.3h0.1c0.3-1.3,0.8-2.5,1.4-3.6c1.4-2.3,3.6-4,6.1-4.8c1.5-0.5,3-0.7,4.5-0.7
			c1.6,0,3.3,0.2,4.8,0.8c1.4,0.5,2.7,1.3,3.8,2.3c1.1,1.1,2,2.3,2.5,3.8c0.6,1.7,0.9,3.4,0.9,5.2v22.3H341v-22c0-1.7-0.2-3.4-0.9-5
			c-0.5-1.3-1.3-2.5-2.3-3.4c-1-0.9-2.1-1.6-3.4-2c-1.3-0.4-2.7-0.6-4.1-0.6c-1.8,0-3.6,0.4-5.3,1.1c-1.5,0.7-2.8,1.8-3.8,3.1
			c-1,1.3-1.8,2.8-2.3,4.5c-0.5,1.7-0.8,3.5-0.8,5.3v19h-1.3v-46.6H318.2z"/>
		<path class="st9" d="M350.4,145.1c0.6-1.3,1.4-2.6,2.5-3.6c1.1-1,2.5-1.8,3.9-2.4c1.8-0.6,3.6-0.9,5.5-0.8c1.4,0,2.8,0.1,4.2,0.5
			c1.3,0.3,2.5,0.8,3.5,1.6c1,0.8,1.9,1.8,2.4,3c0.7,1.4,1,3,1,4.6v21.4c0,0.5,0.1,1,0.4,1.4c0.3,0.3,0.6,0.5,1,0.6
			c0.5,0.1,0.9,0.2,1.4,0.1c0.5,0,1,0,1.4-0.1v1.3h-2c-0.9,0-1.8-0.2-2.5-0.7c-0.8-0.6-1.2-1.6-1.1-2.6v-4.4h-0.1
			c-0.4,1.1-0.9,2.2-1.7,3.1c-0.8,1-1.8,1.9-2.9,2.7c-1.2,0.8-2.6,1.4-4,1.9c-1.6,0.5-3.2,0.7-4.8,0.7c-2.9,0.1-5.8-0.6-8.2-2.3
			c-2.1-1.6-3.2-4.1-3.1-6.8c-0.1-1.7,0.3-3.4,1-5c0.6-1.2,1.5-2.2,2.6-3c1.1-0.7,2.4-1.2,3.7-1.5c1.4-0.3,2.8-0.5,4.2-0.6l5.9-0.4
			c1.4-0.1,2.7-0.3,4.1-0.6c0.9-0.2,1.7-0.8,2.4-1.5c0.6-0.9,0.8-1.9,0.8-2.9c0-1-0.1-2.1-0.3-3.1c-0.2-1.1-0.6-2.1-1.3-3
			c-0.8-1-1.8-1.8-3-2.3c-1.7-0.7-3.5-1-5.3-0.9c-3.5,0-6.3,0.9-8.2,2.6c-2,1.9-3.2,4.5-3.3,7.3h-1.3
			C349.4,148,349.8,146.5,350.4,145.1z M371.9,153c-0.5,0.7-1.2,1.1-2,1.4c-1,0.4-2.1,0.6-3.1,0.8c-1.3,0.2-2.5,0.3-3.8,0.3
			c-1.4,0-2.7,0.1-4,0.2c-1.3,0.1-2.6,0.2-3.8,0.5c-1.2,0.2-2.3,0.7-3.3,1.3c-1,0.7-1.8,1.6-2.3,2.6c-0.6,1.4-0.9,2.8-0.9,4.3
			c0,1,0.2,1.9,0.5,2.8c0.3,1,0.9,1.8,1.7,2.5c0.9,0.8,1.9,1.4,3,1.8c1.5,0.5,3,0.7,4.6,0.7c2,0,4-0.3,5.8-1.1
			c1.6-0.7,3.1-1.7,4.3-2.9c1.1-1.2,2-2.6,2.6-4.1c0.6-1.5,0.9-3.2,0.9-4.8V153H371.9z"/>
		<path class="st9" d="M406.6,166.3c-0.7,1.5-1.7,2.8-2.9,3.9c-1.2,1.1-2.6,1.9-4.2,2.4c-1.7,0.6-3.5,0.9-5.3,0.9
			c-2.2,0-4.4-0.4-6.4-1.3c-1.8-0.9-3.4-2.1-4.7-3.6c-1.3-1.6-2.3-3.4-2.9-5.3c-0.7-2.1-1-4.3-1-6.5c0-2.4,0.3-4.7,1-7
			c0.6-2.1,1.6-4.1,2.9-5.8c1.3-1.7,3-3.1,4.9-4c2.2-1,4.6-1.6,7-1.5c1.5,0,3.1,0.2,4.5,0.7c1.4,0.5,2.7,1.2,3.8,2.1
			c1.2,0.9,2.1,2.1,2.8,3.4c0.8,1.5,1.3,3.1,1.5,4.7h-1.3c-0.2-1.5-0.7-3-1.4-4.3c-0.7-1.1-1.5-2.2-2.5-3c-1-0.8-2.2-1.4-3.4-1.8
			c-1.3-0.4-2.6-0.6-4-0.6c-2.3-0.1-4.6,0.4-6.7,1.5c-1.8,1-3.3,2.3-4.4,4c-1.1,1.7-1.9,3.5-2.4,5.5c-0.5,2-0.7,4-0.8,6
			c0,2,0.3,4,0.9,5.9c0.5,1.8,1.4,3.5,2.6,5c1.1,1.4,2.6,2.6,4.2,3.4c1.8,0.9,3.8,1.3,5.9,1.3c1.6,0,3.1-0.2,4.6-0.8
			c4.4-1.5,7.5-5.5,7.8-10.1h1.3C407.8,163.1,407.4,164.7,406.6,166.3z"/>
		<path class="st9" d="M414.9,172.7h-1.3v-46.6h1.3v32.3l23.2-19.3h1.9l-15.4,12.8l16.5,20.8h-1.8l-15.7-19.8l-8.7,7.2V172.7z"/>
	</g>
	<rect x="52" y="95.2" class="st13" width="110.9" height="110.9"/>
	
		<rect x="52" y="95.1" transform="matrix(-0.9964 8.454742e-002 -8.454742e-002 -0.9964 227.3003 291.4282)" class="st14" width="110.9" height="110.9"/>
	<g>
		<defs>
			<rect id="SVGID_9_" x="110.4" y="115.8" width="10.7" height="33.8"/>
		</defs>
		<clipPath id="SVGID_10_">
			<use xlink:href="#SVGID_9_"  style="overflow:visible;"/>
		</clipPath>
		<g class="st15">
			<rect x="110.3" y="120.2" class="st6" width="8.6" height="25.1"/>
			
				<rect x="111.6" y="142.2" transform="matrix(-0.7071 0.7071 -0.7071 -0.7071 298.4066 166.7987)" class="st6" width="6.1" height="6.1"/>
			
				<rect x="111.6" y="117.1" transform="matrix(-0.7071 0.7071 -0.7071 -0.7071 280.6763 123.9519)" class="st6" width="6.1" height="6.1"/>
			<rect x="112.4" y="120.2" class="st7" width="8.6" height="25.1"/>
			
				<rect x="113.7" y="142.1" transform="matrix(-0.7071 0.7071 -0.7071 -0.7071 301.9794 165.2948)" class="st7" width="6.1" height="6.1"/>
			
				<rect x="113.7" y="117" transform="matrix(-0.7071 0.7071 -0.7071 -0.7071 284.2249 122.4239)" class="st7" width="6.1" height="6.1"/>
			<polyline class="st6" points="116.7,149.6 114.6,149.6 115.7,148.5 			"/>
			<polygon class="st6" points="116.7,115.9 114.6,115.9 115.7,116.9 			"/>
			<rect x="112.3" y="120.2" class="st8" width="8.6" height="25.1"/>
			
				<rect x="113.6" y="142.1" transform="matrix(-0.7071 0.7071 -0.7071 -0.7071 301.808 165.3672)" class="st8" width="6.1" height="6.1"/>
			
				<rect x="113.5" y="117.1" transform="matrix(-0.7071 0.7071 -0.7071 -0.7071 283.9999 122.6565)" class="st8" width="6.1" height="6.1"/>
			<rect x="110.3" y="120.2" class="st9" width="8.6" height="25.1"/>
			
				<rect x="111.6" y="142.2" transform="matrix(-0.7071 0.7071 -0.7071 -0.7071 298.4066 166.7987)" class="st9" width="6.1" height="6.1"/>
			
				<rect x="111.6" y="117.1" transform="matrix(-0.7071 0.7071 -0.7071 -0.7071 280.6763 123.9519)" class="st9" width="6.1" height="6.1"/>
			<polygon class="st10" points="121,120.2 121,121.9 121,145.3 112.4,145.3 112.4,120.2 			"/>
			
				<rect x="113.7" y="142.1" transform="matrix(-0.7071 0.7071 -0.7071 -0.7071 301.9794 165.2948)" class="st10" width="6.1" height="6.1"/>
			
				<rect x="113.7" y="117" transform="matrix(-0.7071 0.7071 -0.7071 -0.7071 284.2249 122.4239)" class="st10" width="6.1" height="6.1"/>
			<polyline class="st9" points="116.7,149.6 114.6,149.6 115.7,148.5 			"/>
			<polygon class="st9" points="116.7,115.9 114.6,115.9 115.7,116.9 			"/>
			<line class="st11" x1="110.9" y1="124.3" x2="118" y2="117.2"/>
			<line class="st11" x1="112.1" y1="125.7" x2="119.3" y2="118.5"/>
			<line class="st11" x1="111.6" y1="128.9" x2="120.7" y2="119.9"/>
			<line class="st11" x1="112.1" y1="131.2" x2="121.2" y2="122.1"/>
			<line class="st11" x1="112.1" y1="134.1" x2="121.2" y2="125"/>
			<line class="st11" x1="112.1" y1="137" x2="121.3" y2="127.9"/>
			<line class="st11" x1="112" y1="140.2" x2="121.1" y2="131.1"/>
			<line class="st11" x1="112.1" y1="143.3" x2="121.2" y2="134.2"/>
			<line class="st11" x1="112.1" y1="146.4" x2="121.3" y2="137.3"/>
			<line class="st11" x1="113.7" y1="148" x2="121.3" y2="140.3"/>
			<line class="st11" x1="115.3" y1="149.2" x2="121.2" y2="143.2"/>
		</g>
	</g>
	<g>
		<defs>
			<rect id="SVGID_11_" x="117.6" y="146.6" width="22.9" height="8.6"/>
		</defs>
		<clipPath id="SVGID_12_">
			<use xlink:href="#SVGID_11_"  style="overflow:visible;"/>
		</clipPath>
		<g class="st16">
			<rect x="121.8" y="146.6" class="st9" width="12.2" height="8.6"/>
			
				<rect x="131" y="147.8" transform="matrix(-0.7071 0.7071 -0.7071 -0.7071 335.6207 162.7787)" class="st9" width="6.1" height="6.1"/>
			
				<rect x="118.8" y="147.9" transform="matrix(-0.7071 0.7071 -0.7071 -0.7071 314.6954 171.5435)" class="st9" width="6.1" height="6.1"/>
			<rect x="123.9" y="146.6" class="st10" width="12.2" height="8.6"/>
			
				<rect x="133.1" y="147.8" transform="matrix(-0.7071 0.7071 -0.7071 -0.7071 339.1864 161.2577)" class="st10" width="6.1" height="6.1"/>
			
				<rect x="120.9" y="147.9" transform="matrix(-0.7071 0.7071 -0.7071 -0.7071 318.2369 170.0325)" class="st10" width="6.1" height="6.1"/>
			<line class="st11" x1="119.7" y1="152.8" x2="126.1" y2="146.4"/>
			<line class="st11" x1="121.6" y1="153.8" x2="128.9" y2="146.4"/>
			<line class="st11" x1="123.5" y1="155" x2="132.1" y2="146.4"/>
			<line class="st11" x1="126.1" y1="155.6" x2="135.2" y2="146.4"/>
			<line class="st11" x1="128.9" y1="155.7" x2="137.1" y2="147.7"/>
			<line class="st11" x1="132.1" y1="155.7" x2="138.7" y2="149.2"/>
			<line class="st11" x1="135.2" y1="155.6" x2="140.1" y2="150.6"/>
		</g>
	</g>
	<g>
		<defs>
			<rect id="SVGID_13_" x="84.2" y="115.8" width="10.7" height="33.8"/>
		</defs>
		<clipPath id="SVGID_14_">
			<use xlink:href="#SVGID_13_"  style="overflow:visible;"/>
		</clipPath>
		<g class="st17">
			<rect x="84.2" y="120.1" class="st1" width="8.6" height="25.1"/>
			
				<rect x="85.5" y="142.2" transform="matrix(-0.7071 0.7071 -0.7071 -0.7071 253.9081 185.2816)" class="st1" width="6.1" height="6.1"/>
			
				<rect x="85.5" y="117.1" transform="matrix(-0.7071 0.7071 -0.7071 -0.7071 236.1707 142.4177)" class="st1" width="6.1" height="6.1"/>
			<polygon class="st2" points="94.9,120.1 94.9,121.9 94.9,145.3 86.3,145.3 86.3,120.1 			"/>
			
				<rect x="87.6" y="142.2" transform="matrix(-0.7071 0.7071 -0.7071 -0.7071 257.4809 183.7776)" class="st2" width="6.1" height="6.1"/>
			
				<rect x="87.6" y="117.1" transform="matrix(-0.7071 0.7071 -0.7071 -0.7071 239.7264 140.9068)" class="st2" width="6.1" height="6.1"/>
			<polyline class="st1" points="90.6,149.6 88.5,149.6 89.6,148.5 			"/>
			<polygon class="st1" points="90.6,115.8 88.5,115.8 89.6,116.9 			"/>
			<line class="st3" x1="84.7" y1="124.3" x2="91.9" y2="117.1"/>
			<line class="st3" x1="86" y1="125.7" x2="93.2" y2="118.5"/>
			<line class="st3" x1="85.6" y1="128.9" x2="94.6" y2="119.8"/>
			<line class="st3" x1="86" y1="131.2" x2="95.1" y2="122.1"/>
			<line class="st3" x1="86" y1="134.1" x2="95.1" y2="125"/>
			<line class="st3" x1="86.1" y1="137" x2="95.2" y2="127.9"/>
			<line class="st3" x1="86" y1="140.2" x2="95.1" y2="131.1"/>
			<line class="st3" x1="86" y1="143.3" x2="95.1" y2="134.2"/>
			<line class="st3" x1="86.1" y1="146.4" x2="95.2" y2="137.3"/>
			<line class="st3" x1="87.6" y1="147.9" x2="95.2" y2="140.3"/>
			<line class="st3" x1="89.2" y1="149.2" x2="95.2" y2="143.2"/>
		</g>
	</g>
	<g>
		<defs>
			<rect id="SVGID_15_" x="91.2" y="146.6" width="23" height="8.6"/>
		</defs>
		<clipPath id="SVGID_16_">
			<use xlink:href="#SVGID_15_"  style="overflow:visible;"/>
		</clipPath>
		<g class="st18">
			<rect x="95.4" y="146.6" class="st1" width="12.2" height="8.6"/>
			
				<rect x="104.7" y="147.9" transform="matrix(-0.7071 0.7071 -0.7071 -0.7071 290.6008 181.4476)" class="st1" width="6.1" height="6.1"/>
			
				<rect x="92.5" y="147.8" transform="matrix(-0.7071 0.7071 -0.7071 -0.7071 269.7391 190.0281)" class="st1" width="6.1" height="6.1"/>
			<rect x="97.5" y="146.6" class="st2" width="12.2" height="8.6"/>
			
				<rect x="106.8" y="147.8" transform="matrix(-0.7071 0.7071 -0.7071 -0.7071 294.1494 179.9196)" class="st2" width="6.1" height="6.1"/>
			
				<rect x="94.5" y="147.9" transform="matrix(-0.7071 0.7071 -0.7071 -0.7071 273.2241 188.6844)" class="st2" width="6.1" height="6.1"/>
			<rect x="95.5" y="146.6" class="st1" width="12.2" height="8.6"/>
			
				<rect x="104.8" y="147.8" transform="matrix(-0.7071 0.7071 -0.7071 -0.7071 290.7481 181.351)" class="st1" width="6.1" height="6.1"/>
			
				<rect x="92.6" y="147.8" transform="matrix(-0.7071 0.7071 -0.7071 -0.7071 269.8935 189.9485)" class="st1" width="6.1" height="6.1"/>
			<rect x="97.6" y="146.6" class="st2" width="12.2" height="8.6"/>
			
				<rect x="106.9" y="147.8" transform="matrix(-0.7071 0.7071 -0.7071 -0.7071 294.3067 179.8472)" class="st2" width="6.1" height="6.1"/>
			
				<rect x="94.6" y="147.9" transform="matrix(-0.7071 0.7071 -0.7071 -0.7071 273.3714 188.622)" class="st2" width="6.1" height="6.1"/>
			<line class="st3" x1="93.4" y1="152.8" x2="99.9" y2="146.3"/>
			<line class="st3" x1="95.3" y1="153.8" x2="102.6" y2="146.4"/>
			<line class="st3" x1="97.2" y1="155" x2="105.8" y2="146.4"/>
			<line class="st3" x1="99.6" y1="155.7" x2="108.9" y2="146.4"/>
			<line class="st3" x1="102.9" y1="155.6" x2="110.8" y2="147.6"/>
			<line class="st3" x1="106" y1="155.6" x2="112.4" y2="149.2"/>
			<line class="st3" x1="108.8" y1="155.7" x2="113.8" y2="150.6"/>
		</g>
	</g>
</g>
<title>th_logo_path_e</title>
</svg>
