<?xml version="1.0" encoding="UTF-8" standalone="no"?>
<!-- Created with Inkscape (http://www.inkscape.org/) -->

<svg
   version="1.1"
   id="svg2"
   xml:space="preserve"
   width="298.35999"
   height="144"
   viewBox="0 0 298.35999 144"
   sodipodi:docname="aa.eps"
   xmlns:inkscape="http://www.inkscape.org/namespaces/inkscape"
   xmlns:sodipodi="http://sodipodi.sourceforge.net/DTD/sodipodi-0.dtd"
   xmlns="http://www.w3.org/2000/svg"
   xmlns:svg="http://www.w3.org/2000/svg"><defs
     id="defs6"><clipPath
       clipPathUnits="userSpaceOnUse"
       id="clipPath20"><path
         d="M 1721.31,246.426 C 1762.53,178.652 1828.37,180 1845.89,180 h 211.8 l -249.88,303.379 c -115.27,-4.766 -176.29,-78.691 -163.77,-109.707 z"
         id="path18" /></clipPath><linearGradient
       x1="0"
       y1="0"
       x2="1"
       y2="0"
       gradientUnits="userSpaceOnUse"
       gradientTransform="matrix(0,-467.462,-467.462,0,1850.06,491.365)"
       spreadMethod="pad"
       id="linearGradient30"><stop
         style="stop-opacity:1;stop-color:#ed1c24"
         offset="0"
         id="stop22" /><stop
         style="stop-opacity:1;stop-color:#ed1c24"
         offset="0.39319611"
         id="stop24" /><stop
         style="stop-opacity:1;stop-color:#751317"
         offset="0.81"
         id="stop26" /><stop
         style="stop-opacity:1;stop-color:#751317"
         offset="1"
         id="stop28" /></linearGradient><clipPath
       clipPathUnits="userSpaceOnUse"
       id="clipPath40"><path
         d="m 1644.04,373.672 c -0.3,0.527 -6.84,15.82 -6.84,34.316 0,69.258 61.38,108.946 131.15,123.282 l 39.46,-47.891 c -115.27,-4.766 -176.29,-78.691 -163.77,-109.707 z"
         id="path38" /></clipPath><linearGradient
       x1="0"
       y1="0"
       x2="1"
       y2="0"
       gradientUnits="userSpaceOnUse"
       gradientTransform="matrix(170.606,0,0,-170.606,1637.2,452.471)"
       spreadMethod="pad"
       id="linearGradient48"><stop
         style="stop-opacity:1;stop-color:#641f1f"
         offset="0"
         id="stop42" /><stop
         style="stop-opacity:1;stop-color:#d32828"
         offset="0.73696312"
         id="stop44" /><stop
         style="stop-opacity:1;stop-color:#d32828"
         offset="1"
         id="stop46" /></linearGradient><clipPath
       clipPathUnits="userSpaceOnUse"
       id="clipPath58"><path
         d="m 1740.41,598.832 c -105.34,0 -184,-17.348 -184,-58.582 0,-15.152 4.75,-28.316 17.62,-51.48 l 70.01,-115.098 c -0.3,0.527 -6.84,15.82 -6.84,34.316 0,69.258 61.38,108.946 131.15,123.282 20.26,4.16 41.03,6.152 61.36,6.152 17.12,0 33.15,-0.899 45.49,-5.371 -7.28,26.512 -26.53,66.781 -134.79,66.781 z"
         id="path56" /></clipPath><linearGradient
       x1="0"
       y1="0"
       x2="1"
       y2="0"
       gradientUnits="userSpaceOnUse"
       gradientTransform="matrix(190.106,114.227,114.227,-190.106,1618.46,477.402)"
       spreadMethod="pad"
       id="linearGradient68"><stop
         style="stop-opacity:1;stop-color:#f2f6f7"
         offset="0"
         id="stop60" /><stop
         style="stop-opacity:1;stop-color:#f2f6f7"
         offset="0.1"
         id="stop62" /><stop
         style="stop-opacity:1;stop-color:#f2f6f7"
         offset="0.2237565"
         id="stop64" /><stop
         style="stop-opacity:1;stop-color:#97a7ad"
         offset="1"
         id="stop66" /></linearGradient><clipPath
       clipPathUnits="userSpaceOnUse"
       id="clipPath78"><path
         d="m 1463.29,670.629 c 28.97,-47.488 39.69,-59.34 108.65,-59.43 50.62,0 131.74,0 131.74,0 l -181.62,229.387 c -40.1,49.559 -63.19,58.648 -99.99,59.414 h -98.42 z"
         id="path76" /></clipPath><linearGradient
       x1="0"
       y1="0"
       x2="1"
       y2="0"
       gradientUnits="userSpaceOnUse"
       gradientTransform="matrix(0,322.964,322.964,0,1513.66,573.594)"
       spreadMethod="pad"
       id="linearGradient86"><stop
         style="stop-opacity:1;stop-color:#202f6e"
         offset="0"
         id="stop80" /><stop
         style="stop-opacity:1;stop-color:#25b3ed"
         offset="0.56704129"
         id="stop82" /><stop
         style="stop-opacity:1;stop-color:#25b3ed"
         offset="1"
         id="stop84" /></linearGradient></defs><sodipodi:namedview
     id="namedview4"
     pagecolor="#ffffff"
     bordercolor="#666666"
     borderopacity="1.0"
     inkscape:pageshadow="2"
     inkscape:pageopacity="0.0"
     inkscape:pagecheckerboard="0" /><g
     id="g8"
     inkscape:groupmode="layer"
     inkscape:label="ink_ext_XXXXXX"
     transform="matrix(1.3333333,0,0,-1.3333333,0,144)"><g
       id="g10"
       transform="scale(0.1)"><path
         d="m 501.266,456.309 h -0.547 L 469.77,368.848 h 62.519 z M 556.598,300 541.52,342.988 H 460.543 L 445.387,300 h -34.543 l 72.453,191.152 h 38.516 L 593.246,300 Z m 293.3,166.855 v 31.954 h 33.758 V 466.855 Z M 850.289,300 v 145.586 h 32.977 V 300 Z M 606.383,466.855 v 31.954 h 33.828 V 466.855 Z M 606.773,300 V 445.586 H 639.82 V 300 Z m 207.403,0 V 498.574 H 781.207 V 300 Z M 708.91,371.035 V 300 h -33.133 c 0,0 0,98.086 0,108.164 0,10.391 -1.172,30.234 -1.562,37.422 0,0 14.453,0 26.648,0 2.891,0 3.75,-1.25 3.828,-4.063 0,-4.296 0.235,-18.046 0.235,-18.046 h 0.781 c 2.578,6.25 11.965,25.156 39.465,25.156 9.141,0 15.945,-2.969 17.117,-3.438 0,-6.25 -0.703,-20 -1.016,-23.672 -0.234,-2.343 -1.25,-3.125 -2.421,-3.125 -1.094,0 -1.641,0.235 -2.274,0.469 -2.109,0.86 -6.875,2.344 -13.515,2.344 -17.657,0 -34.153,-12.734 -34.153,-50.176 z M 1009.8,300 v 94.023 c 0,17.969 -8.21,28.907 -23.612,28.907 -20.313,0 -33.829,-21.641 -33.829,-50.801 V 300 h -32.988 c 0,0 0,104.023 0,106.992 0,11.719 -1.094,28.906 -1.641,38.594 0,0 15.555,0 26.571,0 2.98,0 3.84,-1.25 3.84,-3.984 0.078,-3.047 0.39,-18.125 0.39,-18.125 h 0.703 c 3.985,6.875 14.141,25.156 44.618,25.156 31.418,0 48.918,-21.485 48.918,-45.547 V 300 Z m 91.35,87.754 h 61.21 c 1.25,23.457 -11.12,36.582 -29.71,36.582 -19.38,0 -30.57,-14.063 -31.5,-36.582 z m 81.52,-55.801 c 1.88,0 2.42,-1.562 2.58,-3.203 0.55,-6.25 1.01,-20.312 1.01,-23.828 -3.59,-1.172 -21.32,-7.656 -45.17,-7.656 -46.35,0 -74.24,23.906 -74.24,75.566 0,44.316 23.75,75.801 66.5,75.801 41.98,0 61.9,-28.047 61.9,-62.91 0,-4.063 -0.39,-11.016 -1.17,-20.157 h -93.32 c 0,-24.843 15.87,-42.753 45.09,-42.753 16.1,0 29.01,5.781 34.09,8.281 1.01,0.469 1.56,0.859 2.73,0.859 z m 77.44,-34.687 c 42.99,0 63.54,17.578 63.54,43.691 0,25.781 -18.28,36.563 -37.66,42.969 -5.55,1.797 -10.96,3.672 -16.03,5.312 -13.29,4.395 -20.16,10.176 -20.16,18.77 0,9.062 8.28,15.39 25.47,15.39 15.25,0 27.75,-6.171 32.75,-8.593 0.78,-0.391 1.56,-0.86 2.89,-0.86 1.02,0 2.27,0.625 2.5,3.203 0.32,4.844 0.86,13.672 0.86,22.188 -3.98,1.875 -18.44,9.297 -41.74,9.297 -35.46,0 -57.36,-18.516 -57.36,-42.891 0,-23.613 16.19,-34.394 34,-40.332 4.07,-1.406 11.65,-3.906 16.1,-5.39 18.61,-6.172 23.85,-11.797 23.85,-20.469 0,-11.348 -12.05,-16.895 -32.84,-16.895 -17.03,0 -28.75,6.172 -33.43,8.438 -0.94,0.39 -1.49,0.859 -2.84,0.859 -2.42,0 -2.5,-3.203 -2.5,-3.75 -0.15,-1.562 -0.93,-16.64 -0.93,-21.719 3.92,-1.64 20.8,-9.218 43.53,-9.218 z M 270.484,694.895 h -0.625 L 238.91,607.441 h 62.52 z m 55.332,-156.301 -15.156,42.898 h -80.976 l -15.157,-42.898 h -34.543 l 72.532,191.074 h 38.437 L 362.387,538.594 Z M 865.68,705.449 v 31.887 h 33.769 v -31.887 z m 0.39,-166.855 v 145.594 h 32.989 V 538.594 Z m -70.957,71.035 v -71.035 h -33.058 c 0,0 0,98.078 0,108.164 0,10.39 -1.172,30.168 -1.641,37.43 0,0 14.543,0 26.731,0 2.89,0 3.75,-1.25 3.75,-4.059 0.078,-4.301 0.312,-18.059 0.312,-18.059 h 0.781 c 2.578,6.25 11.953,25.086 39.473,25.086 9.141,0 16.016,-2.886 17.109,-3.355 0,-6.25 -0.703,-20.012 -1.015,-23.684 -0.157,-2.344 -1.25,-3.125 -2.422,-3.125 -1.172,0 -1.641,0.235 -2.266,0.469 -2.109,0.859 -6.875,2.344 -13.515,2.344 -17.676,0 -34.239,-12.735 -34.239,-50.176 z M 551.129,538.594 v 93.156 c 0,16.727 -7.031,29.773 -24.231,29.773 -19.226,0 -30.398,-21.101 -30.398,-50.644 v -72.285 h -32.988 v 93.469 c 0,15.242 -6.407,29.46 -24.063,29.46 -19.543,0 -30.48,-21.101 -30.48,-51.738 v -71.191 h -33.133 c 0,0 0,91.98 0,106.047 0,13.679 -1.25,33.062 -1.563,39.547 0,0 17.188,0 26.407,0 2.968,0 3.906,-1.012 4.062,-4.059 0,-3.906 0.235,-18.059 0.235,-18.059 h 0.781 c 2.031,4.141 12.898,25.164 43.222,25.164 28.29,0 39.083,-20.32 41.739,-26.57 2.656,5.469 15.156,26.57 43.679,26.57 29.622,0 49.786,-15.945 49.786,-47.91 v -100.73 z m 91.434,87.761 h 61.113 c 1.25,23.45 -11.024,36.575 -29.617,36.575 -19.465,0 -30.637,-14.063 -31.496,-36.575 z m 81.515,-55.796 c 1.797,0 2.344,-1.641 2.5,-3.286 0.547,-6.168 1.094,-20.242 1.016,-23.835 -3.516,-1.094 -21.262,-7.579 -45.098,-7.579 -46.426,0 -74.238,23.996 -74.238,75.567 0,44.238 23.75,75.73 66.504,75.73 41.894,0 61.894,-27.976 61.894,-62.832 0,-4.136 -0.468,-11.023 -1.172,-20.164 h -93.312 c 0,-24.93 15.793,-42.742 45.012,-42.742 16.179,0 29.004,5.777 34.16,8.277 1.015,0.473 1.562,0.864 2.734,0.864 z m 414.432,41.882 c 0,0 -5,0 -5.62,0 -41.51,0 -49.63,-14.453 -49.63,-29.074 0,-12.027 7.89,-23.355 23.37,-23.355 20.63,0 31.88,19.922 31.88,40.867 z m 7.97,-73.847 c -2.66,0 -4.84,0.937 -5.16,4.765 -0.31,4.688 -1.01,13.907 -1.01,13.907 h -0.39 c -1.96,-2.657 -13.99,-21.407 -44.32,-21.407 -28.91,0 -45.48,22.266 -45.48,46.809 0,33.914 32.98,51.031 81.91,51.031 0.39,0 6.48,0 6.48,0 v 5.317 c 0,15.242 -10.86,23.445 -31.1,23.445 -18.22,0 -33.37,-6.406 -39.23,-9.453 -0.39,-0.156 -1.49,-0.781 -2.5,-0.781 -1.49,0 -2.42,0.937 -2.5,2.734 -0.24,5.469 -0.86,15.937 -0.94,22.59 5.94,2.344 25.78,9.683 47.51,9.683 43.21,0 61.83,-20.164 61.83,-52.129 v -56.812 c 0,-20.715 1.95,-34.23 2.58,-39.699 0,0 -25.34,0 -27.68,0 z m -114.18,31.965 c 0.86,0 2.11,-0.547 2.34,-3.125 0.63,-6.954 0.94,-18.293 0.94,-21.809 -6.56,-3.281 -20.86,-9.766 -38.447,-9.766 -44.07,0 -71.121,25.559 -71.121,75.645 0,46.894 24.082,75.652 71.121,75.652 15.637,0 30.007,-5.386 38.447,-9.761 0,-5.168 -0.47,-16.887 -0.94,-21.887 -0.15,-2.031 -1.17,-3.047 -2.34,-3.047 -1.33,0 -1.8,0.312 -2.58,0.703 -10.62,5.234 -20.62,7.734 -29.62,7.734 -28.053,0 -39.616,-18.371 -39.616,-49.394 0,-27.742 9.219,-49.387 39.616,-49.387 11.57,0 22.2,4.145 28.76,7.27 1.72,0.855 2.03,1.172 3.44,1.172 z m 258.3,-31.965 v 94.011 c 0,17.981 -8.2,28.918 -23.53,28.918 -20.32,0 -33.83,-21.648 -33.83,-50.878 v -72.051 h -33.07 c 0,0 0,104.011 0,106.906 0,11.805 -1.09,28.914 -1.56,38.688 0,0 15.47,0 26.5,0 3.05,0 3.91,-1.25 3.91,-3.985 0.08,-3.047 0.31,-18.133 0.31,-18.133 h 0.7 c 4.07,6.797 14.22,25.164 44.61,25.164 31.51,0 49.01,-21.492 49.01,-45.562 V 538.594 h -33.05"
         style="fill:#435061;fill-opacity:1;fill-rule:nonzero;stroke:none"
         id="path12" /><g
         id="g14"><g
           id="g16"
           clip-path="url(#clipPath20)"><path
             d="M 1721.31,246.426 C 1762.53,178.652 1828.37,180 1845.89,180 h 211.8 l -249.88,303.379 c -115.27,-4.766 -176.29,-78.691 -163.77,-109.707 l 77.27,-127.246"
             style="fill:url(#linearGradient30);fill-opacity:1;fill-rule:nonzero;stroke:none"
             id="path32" /></g></g><g
         id="g34"><g
           id="g36"
           clip-path="url(#clipPath40)"><path
             d="m 1644.04,373.672 c -0.3,0.527 -6.84,15.82 -6.84,34.316 0,69.258 61.38,108.946 131.15,123.282 l 39.46,-47.891 c -115.27,-4.766 -176.29,-78.691 -163.77,-109.707"
             style="fill:url(#linearGradient48);fill-opacity:1;fill-rule:nonzero;stroke:none"
             id="path50" /></g></g><g
         id="g52"><g
           id="g54"
           clip-path="url(#clipPath58)"><path
             d="m 1740.41,598.832 c -105.34,0 -184,-17.348 -184,-58.582 0,-15.152 4.75,-28.316 17.62,-51.48 l 70.01,-115.098 c -0.3,0.527 -6.84,15.82 -6.84,34.316 0,69.258 61.38,108.946 131.15,123.282 20.26,4.16 41.03,6.152 61.36,6.152 17.12,0 33.15,-0.899 45.49,-5.371 -7.28,26.512 -26.53,66.781 -134.79,66.781"
             style="fill:url(#linearGradient68);fill-opacity:1;fill-rule:nonzero;stroke:none"
             id="path70" /></g></g><g
         id="g72"><g
           id="g74"
           clip-path="url(#clipPath78)"><path
             d="m 1463.29,670.629 c 28.97,-47.488 39.69,-59.34 108.65,-59.43 50.62,0 131.74,0 131.74,0 l -181.62,229.387 c -40.1,49.559 -63.19,58.648 -99.99,59.414 h -98.42 l 139.64,-229.371"
             style="fill:url(#linearGradient86);fill-opacity:1;fill-rule:nonzero;stroke:none"
             id="path88" /></g></g><path
         d="m 2097.13,197.258 c 2.45,0 3.62,1.062 3.62,2.765 0,1.59 -1.28,2.665 -3.62,2.665 -0.74,0 -1.06,-0.114 -1.17,-0.114 v -5.215 c 0.11,0 0.64,-0.101 1.17,-0.101 z m 0.32,-2.028 h -1.49 v -6.699 h -2.87 v 16.172 c 0,0 2.45,0 4.78,0 3.73,0 5.75,-1.914 5.75,-4.789 0,-3.297 -2.66,-4.148 -3.19,-4.254 l 3.94,-7.129 h -3.3 z m -12.66,1.071 c 0,-7.235 5.85,-13.09 13.08,-13.09 7.24,0 13.09,5.855 13.09,13.09 0,7.234 -5.85,13.086 -13.09,13.086 -7.23,0 -13.08,-5.852 -13.08,-13.086 z m 29.36,0 c 0,-9.047 -7.23,-16.281 -16.28,-16.281 -9.04,0 -16.27,7.234 -16.27,16.281 0,8.937 7.23,16.277 16.27,16.277 9.05,0 16.28,-7.34 16.28,-16.277"
         style="fill:#435061;fill-opacity:1;fill-rule:nonzero;stroke:none"
         id="path90" /></g></g></svg>
