<svg width="61" height="61" viewBox="0 0 61 61" fill="none" xmlns="http://www.w3.org/2000/svg">
<circle cx="30.5" cy="30.5" r="30.5" fill="#192F6D"/>
<path d="M23.625 21.6406V26.7734H8.57812V21.6406H23.625ZM12.0234 15.3594H19.3594V39.0547C19.3594 39.7578 19.4453 40.2969 19.6172 40.6719C19.7891 41.0469 20.0703 41.3125 20.4609 41.4688C20.8516 41.6094 21.3516 41.6797 21.9609 41.6797C22.3984 41.6797 22.7734 41.6641 23.0859 41.6328C23.3984 41.6016 23.6875 41.5625 23.9531 41.5156V46.8125C23.3281 47.0156 22.6641 47.1719 21.9609 47.2812C21.2578 47.4062 20.4922 47.4688 19.6641 47.4688C18.0859 47.4688 16.7188 47.2109 15.5625 46.6953C14.4219 46.1797 13.5469 45.3672 12.9375 44.2578C12.3281 43.1328 12.0234 41.6719 12.0234 39.875V15.3594ZM34.2891 11V47H26.9766V11H34.2891ZM33.3281 33.4297L31.5 33.4766C31.5 31.6953 31.7188 30.0625 32.1562 28.5781C32.6094 27.0781 33.25 25.7734 34.0781 24.6641C34.9062 23.5547 35.8984 22.6953 37.0547 22.0859C38.2266 21.4766 39.5156 21.1719 40.9219 21.1719C42.1719 21.1719 43.3125 21.3516 44.3438 21.7109C45.375 22.0703 46.2656 22.6406 47.0156 23.4219C47.7656 24.2031 48.3438 25.2266 48.75 26.4922C49.1562 27.7578 49.3594 29.2969 49.3594 31.1094V47H42V31.0625C42 29.9844 41.8438 29.1406 41.5312 28.5312C41.2344 27.9219 40.7969 27.4922 40.2188 27.2422C39.6562 26.9922 38.9688 26.8672 38.1562 26.8672C37.2031 26.8672 36.4141 27.0391 35.7891 27.3828C35.1641 27.7109 34.6719 28.1719 34.3125 28.7656C33.9531 29.3594 33.6953 30.0547 33.5391 30.8516C33.3984 31.6484 33.3281 32.5078 33.3281 33.4297Z" fill="white"/>
</svg>
