<svg width="287" height="59" viewBox="0 0 287 59" fill="none" xmlns="http://www.w3.org/2000/svg">
<path d="M66.4155 2.5H65.2554V55.7H66.4155V2.5Z" fill="#192F6D"/>
<path d="M84.9769 8.2H83.8168V2H81.7866V1H87.0071V2H84.9769V8.2Z" fill="#192F6D"/>
<path d="M92.4212 8.2H88.5542V1H92.4212V2H89.6176V4H92.2278V5H89.6176V7.2H92.4212V8.2Z" fill="#192F6D"/>
<path d="M99.4782 8.2H98.2214L96.4813 5.3L94.7411 8.2H93.5811L95.9012 4.5L93.6777 1H94.9345L96.578 3.7L98.1248 1H99.3815L97.2547 4.4L99.4782 8.2Z" fill="#192F6D"/>
<path d="M105.182 8.2L104.505 6.2H101.895L101.218 8.2H100.058L102.668 1H103.925L106.535 8.2H105.182ZM104.215 5.2L103.538 3.2C103.538 3.1 103.442 2.9 103.345 2.6C103.248 2.3 103.152 2.1 103.152 2C103.055 2.4 102.958 2.8 102.765 3.3L102.088 5.2H104.215Z" fill="#192F6D"/>
<path d="M111.756 6.20009C111.756 6.80009 111.563 7.30009 111.079 7.70009C110.499 8.10009 109.919 8.30009 109.243 8.20009C108.566 8.20009 107.889 8.10009 107.309 7.80009V6.80009C107.599 7.00009 107.986 7.10009 108.276 7.20009C108.566 7.30009 108.953 7.30009 109.243 7.30009C109.629 7.30009 109.919 7.20009 110.209 7.00009C110.403 6.80009 110.499 6.60009 110.499 6.30009C110.499 6.00009 110.403 5.80009 110.209 5.60009C109.919 5.30009 109.533 5.10009 109.146 5.00009C108.663 4.80009 108.179 4.50009 107.792 4.10009C107.502 3.80009 107.406 3.30009 107.406 2.90009C107.406 2.40009 107.599 1.80009 107.986 1.50009C108.469 1.10009 109.049 0.900093 109.629 1.00009C110.306 1.00009 110.983 1.20009 111.563 1.40009L111.176 2.40009C110.789 2.20009 110.209 2.00009 109.629 2.00009C109.339 2.00009 109.049 2.10009 108.759 2.20009C108.566 2.40009 108.469 2.60009 108.469 2.90009C108.469 3.10009 108.469 3.20009 108.566 3.40009C108.663 3.50009 108.759 3.70009 108.953 3.80009C109.243 4.00009 109.629 4.10009 109.919 4.30009C110.306 4.50009 110.693 4.70009 111.079 4.90009C111.273 5.10009 111.466 5.30009 111.563 5.50009C111.756 5.70009 111.756 6.00009 111.756 6.20009Z" fill="#192F6D"/>
<path d="M120.843 8.2L120.167 6.2H117.557L116.88 8.2H115.72L118.33 1H119.587L122.197 8.2H120.843ZM119.877 5.2L119.2 3.2C119.2 3.1 119.103 2.9 119.007 2.6C118.91 2.3 118.91 2.1 118.91 2C118.813 2.4 118.717 2.9 118.523 3.3L117.943 5.2H119.877Z" fill="#192F6D"/>
<path d="M122.97 6.30004C122.97 5.90004 123.067 5.50004 123.26 5.20004C123.55 4.80004 123.937 4.40004 124.324 4.20004C124.034 3.90004 123.84 3.60004 123.744 3.30004C123.647 3.10004 123.55 2.80004 123.55 2.50004C123.55 2.00004 123.744 1.60004 124.034 1.30004C124.42 1.00004 124.904 0.800036 125.387 0.900036C125.87 0.900036 126.354 1.00004 126.741 1.30004C127.031 1.60004 127.224 2.00004 127.224 2.40004C127.224 2.80004 127.127 3.10004 126.934 3.40004C126.644 3.80004 126.257 4.10004 125.87 4.30004L127.611 6.00004C127.901 5.50004 128.094 5.00004 128.287 4.50004H129.447C129.254 5.30004 128.867 6.10004 128.384 6.80004L129.834 8.20004H128.384L127.611 7.40004C127.321 7.70004 126.934 7.90004 126.547 8.00004C126.16 8.10004 125.774 8.20004 125.387 8.20004C124.807 8.20004 124.13 8.00004 123.647 7.70004C123.26 7.40004 122.97 6.80004 122.97 6.30004ZM125.387 7.30004C125.967 7.30004 126.451 7.10004 126.837 6.80004L125 5.00004C124.71 5.20004 124.517 5.40004 124.324 5.60004C124.227 5.80004 124.13 6.00004 124.13 6.30004C124.13 6.60004 124.227 6.90004 124.42 7.10004C124.71 7.20004 125.097 7.30004 125.387 7.30004ZM124.71 2.60004C124.71 2.80004 124.807 3.00004 124.904 3.20004C125 3.40004 125.194 3.60004 125.387 3.80004C125.677 3.70004 125.967 3.50004 126.16 3.20004C126.257 3.00004 126.354 2.80004 126.354 2.60004C126.354 2.40004 126.257 2.20004 126.16 2.10004C125.967 2.00004 125.774 1.90004 125.58 1.90004C125.387 1.90004 125.194 2.00004 125 2.10004C124.807 2.20004 124.71 2.40004 124.71 2.60004Z" fill="#192F6D"/>
<path d="M134.088 8.2L132.058 2.2C132.154 3.1 132.154 3.9 132.154 4.7V8.2H131.091V1H132.638L134.571 6.7L136.505 1H138.148V8.2H137.085V4.6C137.085 4.3 137.085 3.8 137.085 3.2C137.085 2.6 137.085 2.3 137.085 2.2L135.054 8.1L134.088 8.2Z" fill="#192F6D"/>
<path d="M148.976 1V5.7C148.976 6.2 148.879 6.6 148.686 7C148.492 7.4 148.106 7.7 147.719 7.9C147.236 8.1 146.752 8.2 146.269 8.2C145.495 8.2 144.819 8 144.239 7.5C143.755 7 143.465 6.3 143.562 5.6V1H144.722V5.6C144.722 6.1 144.819 6.5 145.109 6.9C145.399 7.2 145.882 7.4 146.366 7.3C147.429 7.3 147.912 6.7 147.912 5.6V1H148.976Z" fill="#192F6D"/>
<path d="M156.903 8.2H155.55L152.166 2.5V2.8C152.166 3.4 152.263 4 152.263 4.5V8.2H151.199V1H152.553L155.936 6.7C155.936 6.6 155.936 6.4 155.936 5.9C155.936 5.4 155.936 5.1 155.936 4.8V1H157L156.903 8.2Z" fill="#192F6D"/>
<path d="M159.223 8.2V1H160.383V8.2H159.223Z" fill="#192F6D"/>
<path d="M166.571 1H167.731L165.314 8.2H164.154L161.737 1H162.897L164.347 5.5C164.444 5.7 164.54 6 164.54 6.3C164.637 6.5 164.637 6.8 164.734 7.1C164.83 6.9 164.83 6.6 164.927 6.2C165.024 5.8 165.12 5.6 165.12 5.5L166.571 1Z" fill="#192F6D"/>
<path d="M173.048 8.2H169.181V1H173.048V2H170.244V4H172.854V5H170.244V7.2H173.048V8.2Z" fill="#192F6D"/>
<path d="M176.141 5.30009V8.10009H174.981V1.00009H176.914C177.591 0.900093 178.268 1.10009 178.945 1.50009C179.428 1.90009 179.621 2.50009 179.621 3.10009C179.621 4.00009 179.138 4.80009 178.268 5.00009L180.201 8.20009H178.945L177.301 5.40009L176.141 5.30009ZM176.141 4.30009H176.914C177.301 4.30009 177.688 4.20009 178.075 4.00009C178.365 3.80009 178.461 3.40009 178.461 3.10009C178.461 2.80009 178.365 2.40009 178.075 2.20009C177.688 2.10009 177.301 2.00009 176.914 2.00009H176.141V4.30009Z" fill="#192F6D"/>
<path d="M185.712 6.20009C185.712 6.80009 185.519 7.30009 185.035 7.70009C184.455 8.10009 183.875 8.30009 183.199 8.20009C182.522 8.20009 181.845 8.10009 181.265 7.80009V6.80009C181.555 7.00009 181.942 7.10009 182.232 7.20009C182.522 7.30009 182.909 7.30009 183.199 7.30009C183.585 7.30009 183.875 7.20009 184.165 7.00009C184.359 6.80009 184.455 6.60009 184.455 6.30009C184.455 6.00009 184.359 5.80009 184.165 5.60009C183.875 5.30009 183.489 5.10009 183.005 5.00009C182.522 4.80009 182.039 4.50009 181.652 4.10009C181.362 3.80009 181.265 3.30009 181.265 2.90009C181.265 2.40009 181.458 1.80009 181.845 1.50009C182.329 1.10009 182.909 0.900093 183.489 1.00009C184.165 1.00009 184.842 1.20009 185.422 1.40009L185.035 2.40009C184.649 2.10009 184.165 2.00009 183.585 2.00009C183.295 2.00009 183.005 2.10009 182.715 2.20009C182.522 2.40009 182.425 2.60009 182.425 2.90009C182.425 3.10009 182.425 3.20009 182.522 3.40009C182.619 3.50009 182.715 3.70009 182.909 3.80009C183.199 4.00009 183.585 4.10009 183.875 4.30009C184.262 4.50009 184.649 4.70009 185.035 4.90009C185.229 5.10009 185.422 5.30009 185.519 5.50009C185.615 5.70009 185.712 6.00009 185.712 6.20009Z" fill="#192F6D"/>
<path d="M187.549 8.2V1H188.709V8.2H187.549Z" fill="#192F6D"/>
<path d="M193.349 8.2H192.189V2H190.159V1H195.38V2H193.349V8.2Z" fill="#192F6D"/>
<path d="M198.86 4.3L200.503 1H201.76L199.44 5.4V8.2H198.28V5.4L195.959 1H197.216L198.86 4.3Z" fill="#192F6D"/>
<path d="M93.581 23.5996C93.6777 25.3996 93.0976 27.2996 91.8409 28.5996C90.4874 29.7996 88.7473 30.3996 86.9105 30.2996H83.4302V17.0996H87.2972C89.0373 16.9996 90.6808 17.5996 91.9375 18.7996C93.0976 20.0996 93.6777 21.7996 93.581 23.5996ZM92.0342 23.5996C92.1309 22.1996 91.6475 20.7996 90.7774 19.6996C89.8107 18.7996 88.4573 18.2996 87.1038 18.3996H84.977V28.9996H86.8138C88.2639 29.0996 89.714 28.5996 90.7774 27.6996C91.6475 26.5996 92.1309 25.0996 92.0342 23.5996Z" fill="#192F6D"/>
<path d="M99.8649 30.4998C98.6081 30.5998 97.448 30.0998 96.5779 29.1998C95.7078 28.1998 95.3211 26.8998 95.3211 25.4998C95.2245 24.0998 95.6112 22.7998 96.4812 21.6998C97.2546 20.7998 98.3181 20.2998 99.5748 20.2998C100.638 20.2998 101.702 20.6998 102.378 21.4998C103.055 22.3998 103.442 23.4998 103.442 24.6998V25.5998H96.8679C96.8679 26.5998 97.158 27.4998 97.738 28.1998C98.3181 28.7998 99.1881 29.1998 99.9615 29.0998C101.025 29.0998 101.992 28.8998 102.958 28.3998V29.6998C102.475 29.8998 101.992 30.0998 101.508 30.1998C101.025 30.3998 100.445 30.4998 99.8649 30.4998ZM99.4782 21.4998C98.8014 21.4998 98.1247 21.7998 97.6413 22.2998C97.158 22.8998 96.8679 23.6998 96.8679 24.3998H101.798C101.798 23.5998 101.605 22.8998 101.218 22.1998C100.832 21.6998 100.155 21.4998 99.4782 21.4998Z" fill="#192F6D"/>
<path d="M109.919 30.5001C109.339 30.5001 108.759 30.4001 108.276 30.1001C107.792 29.9001 107.309 29.5001 106.922 29.0001H106.826C106.922 29.5001 106.922 30.1001 106.922 30.6001V34.6001H105.472V20.4001H106.632L106.826 21.8001H106.922C107.212 21.3001 107.696 20.9001 108.276 20.6001C108.759 20.4001 109.339 20.2001 110.016 20.2001C111.176 20.1001 112.239 20.6001 112.916 21.5001C113.69 22.6001 113.98 23.9001 113.98 25.3001C114.076 26.6001 113.69 28.0001 112.916 29.1001C112.143 30.0001 111.079 30.5001 109.919 30.5001ZM109.726 21.5001C108.952 21.4001 108.179 21.7001 107.599 22.3001C107.116 23.1001 106.826 24.0001 106.922 25.0001V25.3001C106.826 26.3001 107.116 27.4001 107.599 28.3001C108.179 28.9001 108.952 29.3001 109.726 29.2001C110.499 29.2001 111.273 28.9001 111.659 28.2001C112.143 27.3001 112.433 26.4001 112.336 25.3001C112.433 24.3001 112.143 23.3001 111.659 22.5001C111.273 21.9001 110.499 21.5001 109.726 21.5001Z" fill="#192F6D"/>
<path d="M121.907 30.2998L121.617 28.8998H121.52C121.133 29.3998 120.65 29.8998 120.07 30.0998C119.49 30.2998 118.91 30.3998 118.33 30.3998C117.556 30.4998 116.783 30.1998 116.106 29.5998C115.526 28.9998 115.236 28.2998 115.333 27.4998C115.333 25.4998 116.88 24.4998 119.973 24.3998L121.617 24.2998V23.6998C121.713 23.0998 121.52 22.4998 121.133 21.9998C120.747 21.5998 120.167 21.3998 119.586 21.4998C118.62 21.4998 117.75 21.7998 116.88 22.2998L116.396 21.1998C116.88 20.8998 117.363 20.6998 117.943 20.5998C118.523 20.4998 119.103 20.3998 119.586 20.3998C120.457 20.2998 121.423 20.5998 122.1 21.1998C122.68 21.8998 122.97 22.7998 122.873 23.6998V30.3998H121.907V30.2998ZM118.716 29.1998C119.49 29.1998 120.263 28.9998 120.843 28.3998C121.423 27.7998 121.617 27.0998 121.617 26.2998V25.3998L120.167 25.4998C119.296 25.4998 118.426 25.6998 117.653 25.9998C117.17 26.2998 116.88 26.8998 116.88 27.4998C116.88 27.9998 116.976 28.3998 117.363 28.6998C117.75 29.0998 118.233 29.2998 118.716 29.1998Z" fill="#192F6D"/>
<path d="M130.028 20.2002C130.414 20.2002 130.801 20.2002 131.188 20.3002L130.994 21.7002C130.608 21.6002 130.318 21.6002 129.931 21.6002C129.158 21.6002 128.481 22.0002 127.997 22.6002C127.417 23.3002 127.127 24.1002 127.127 25.0002V30.3002H125.677V20.4002H126.837L127.031 22.2002H127.127C127.417 21.6002 127.901 21.1002 128.384 20.7002C128.868 20.4002 129.448 20.3002 130.028 20.2002Z" fill="#192F6D"/>
<path d="M135.635 29.1996C135.925 29.1996 136.118 29.1996 136.408 29.0996C136.601 29.0996 136.795 28.9996 136.988 28.9996V30.0996C136.795 30.1996 136.505 30.2996 136.311 30.2996C136.021 30.2996 135.731 30.3996 135.441 30.3996C133.604 30.3996 132.638 29.3996 132.638 27.3996V21.4996H131.284V20.7996L132.638 20.1996L133.218 18.0996H134.088V20.3996H136.891V21.5996H134.088V27.3996C134.088 27.8996 134.184 28.3996 134.474 28.7996C134.861 29.0996 135.248 29.1996 135.635 29.1996Z" fill="#192F6D"/>
<path d="M150.716 30.2996V23.8996C150.812 23.2996 150.619 22.5996 150.232 22.0996C149.846 21.6996 149.266 21.4996 148.686 21.4996C147.912 21.3996 147.235 21.6996 146.655 22.2996C146.172 22.9996 145.979 23.8996 145.979 24.7996V30.2996H144.528V23.8996C144.528 23.2996 144.432 22.5996 144.045 22.0996C143.658 21.6996 143.078 21.4996 142.498 21.4996C141.725 21.4996 141.048 21.7996 140.565 22.2996C140.081 23.0996 139.888 24.0996 139.985 25.0996V30.2996H138.535V20.4996H139.695L139.888 21.8996H139.985C140.275 21.3996 140.565 20.9996 141.048 20.7996C141.532 20.4996 142.112 20.3996 142.692 20.3996C143.948 20.2996 145.109 20.8996 145.592 22.0996H145.689C145.979 21.5996 146.365 21.1996 146.945 20.8996C147.525 20.5996 148.105 20.3996 148.782 20.3996C149.652 20.2996 150.522 20.5996 151.199 21.2996C151.779 22.0996 152.069 23.0996 151.972 23.9996V30.3996H150.716V30.2996Z" fill="#192F6D"/>
<path d="M158.74 30.4998C157.483 30.5998 156.323 30.0998 155.453 29.1998C154.583 28.1998 154.196 26.8998 154.196 25.4998C154.099 24.0998 154.486 22.7998 155.356 21.6998C156.13 20.7998 157.193 20.2998 158.353 20.2998C159.417 20.2998 160.48 20.6998 161.157 21.4998C161.93 22.3998 162.22 23.4998 162.22 24.6998V25.5998H155.646C155.646 26.5998 155.936 27.4998 156.516 28.1998C157.096 28.7998 157.966 29.1998 158.74 29.0998C159.803 29.0998 160.77 28.8998 161.737 28.3998V29.6998C161.253 29.8998 160.77 30.0998 160.287 30.1998C159.9 30.3998 159.32 30.4998 158.74 30.4998ZM158.45 21.4998C157.773 21.4998 157.096 21.7998 156.613 22.2998C156.13 22.8998 155.84 23.6998 155.84 24.3998H160.77C160.867 23.5998 160.577 22.8998 160.19 22.1998C159.707 21.6998 159.03 21.4998 158.45 21.4998Z" fill="#192F6D"/>
<path d="M170.921 30.2996V23.8996C170.921 23.2996 170.824 22.5996 170.341 22.0996C169.858 21.6996 169.278 21.4996 168.698 21.4996C167.924 21.3996 167.054 21.6996 166.474 22.2996C165.894 23.0996 165.701 24.0996 165.797 25.0996V30.2996H164.347V20.4996H165.507L165.701 21.8996H165.797C166.087 21.3996 166.571 20.9996 167.054 20.7996C167.634 20.4996 168.214 20.3996 168.794 20.3996C169.761 20.2996 170.631 20.5996 171.404 21.2996C172.081 22.0996 172.371 22.9996 172.274 23.9996V30.3996L170.921 30.2996Z" fill="#192F6D"/>
<path d="M178.075 29.1996C178.365 29.1996 178.558 29.1996 178.848 29.0996C179.042 29.0996 179.235 28.9996 179.428 28.9996V30.0996C179.235 30.1996 178.945 30.2996 178.752 30.2996C178.462 30.2996 178.172 30.3996 177.882 30.3996C176.045 30.3996 175.078 29.3996 175.078 27.3996V21.4996H173.725V20.7996L175.078 20.1996L175.658 18.0996H176.528V20.3996H179.332V21.5996H176.528V27.3996C176.528 27.8996 176.625 28.3996 176.915 28.7996C177.302 29.0996 177.688 29.1996 178.075 29.1996Z" fill="#192F6D"/>
<path d="M193.446 25.2997C193.543 26.6997 193.156 27.9997 192.286 29.0997C191.416 29.9997 190.256 30.4997 188.999 30.4997C188.226 30.4997 187.452 30.2997 186.776 29.8997C186.099 29.4997 185.616 28.8997 185.229 28.0997C184.842 27.1997 184.649 26.2997 184.649 25.3997C184.552 23.9997 184.939 22.6997 185.809 21.5997C186.679 20.6997 187.839 20.1997 188.999 20.2997C190.159 20.1997 191.416 20.6997 192.189 21.6997C193.156 22.6997 193.543 23.9997 193.446 25.2997ZM186.196 25.2997C186.099 26.2997 186.389 27.2997 186.969 28.1997C188.032 29.3997 189.869 29.4997 191.029 28.3997C191.126 28.2997 191.126 28.2997 191.223 28.1997C191.803 27.2997 191.996 26.2997 191.996 25.2997C192.093 24.2997 191.803 23.2997 191.223 22.3997C190.739 21.6997 189.869 21.3997 189.096 21.3997C188.226 21.2997 187.452 21.6997 186.969 22.3997C186.389 23.2997 186.196 24.2997 186.196 25.2997Z" fill="#192F6D"/>
<path d="M200.02 21.5998H197.603V30.2998H196.153V21.5998H194.413V20.8998L196.153 20.3998V19.8998C196.153 17.4998 197.216 16.2998 199.246 16.2998C199.826 16.2998 200.406 16.3998 200.986 16.5998L200.6 17.7998C200.116 17.5998 199.633 17.4998 199.15 17.4998C198.666 17.4998 198.183 17.6998 197.99 18.0998C197.7 18.5998 197.506 19.2998 197.603 19.8998V20.4998H200.02V21.5998Z" fill="#192F6D"/>
<path d="M211.331 18.2998C210.074 18.1998 208.817 18.7998 208.044 19.6998C207.174 20.7998 206.787 22.1998 206.884 23.5998C206.787 24.9998 207.174 26.4998 208.044 27.5998C208.914 28.5998 210.074 29.0998 211.331 28.9998C212.394 28.9998 213.361 28.7998 214.328 28.4998V29.9998C213.264 30.3998 212.201 30.4998 211.041 30.4998C209.397 30.5998 207.851 29.9998 206.691 28.6998C205.627 27.2998 205.047 25.4998 205.144 23.6998C205.144 22.4998 205.337 21.2998 205.917 20.0998C206.401 19.0998 207.077 18.2998 208.044 17.6998C209.011 17.0998 210.171 16.7998 211.331 16.8998C212.491 16.8998 213.748 17.0998 214.811 17.6998L214.134 18.9998C213.361 18.5998 212.394 18.2998 211.331 18.2998Z" fill="#192F6D"/>
<path d="M224.768 25.2997C224.865 26.6997 224.382 27.9997 223.608 29.0997C222.738 29.9997 221.578 30.4997 220.418 30.4997C219.645 30.4997 218.871 30.2997 218.195 29.8997C217.518 29.4997 217.034 28.8997 216.648 28.0997C216.261 27.1997 216.068 26.2997 216.068 25.3997C215.971 23.9997 216.358 22.6997 217.228 21.5997C218.001 20.6997 219.161 20.1997 220.418 20.2997C221.578 20.1997 222.738 20.7997 223.608 21.6997C224.478 22.6997 224.865 23.9997 224.768 25.2997ZM217.518 25.2997C217.421 26.2997 217.711 27.2997 218.291 28.1997C219.355 29.3997 221.191 29.4997 222.352 28.3997C222.448 28.2997 222.448 28.2997 222.545 28.1997C223.125 27.3997 223.318 26.2997 223.318 25.2997C223.415 24.2997 223.125 23.2997 222.545 22.3997C221.482 21.1997 219.645 21.0997 218.485 22.1997C218.388 22.2997 218.388 22.2997 218.291 22.3997C217.711 23.2997 217.421 24.2997 217.518 25.2997Z" fill="#192F6D"/>
<path d="M239.173 30.3001V23.9001C239.173 23.3001 239.077 22.6001 238.69 22.1001C238.303 21.7001 237.723 21.5001 237.143 21.5001C236.37 21.4001 235.693 21.7001 235.113 22.3001C234.629 23.0001 234.436 23.9001 234.436 24.8001V30.3001H232.986V23.9001C232.986 23.3001 232.889 22.6001 232.503 22.1001C232.116 21.7001 231.536 21.5001 230.956 21.5001C230.182 21.5001 229.506 21.8001 229.022 22.3001C228.539 23.1001 228.346 24.1001 228.442 25.1001V30.3001H226.992V20.5001H228.056L228.249 21.9001H228.346C228.636 21.4001 229.022 21.0001 229.506 20.8001C229.989 20.5001 230.569 20.4001 231.149 20.4001C232.406 20.2001 233.566 20.9001 234.049 22.1001H234.146C234.436 21.6001 234.823 21.2001 235.403 20.9001C235.983 20.6001 236.563 20.4001 237.24 20.4001C238.11 20.3001 238.98 20.6001 239.657 21.3001C240.237 22.1001 240.527 23.1001 240.43 24.0001V30.4001L239.173 30.3001Z" fill="#192F6D"/>
<path d="M247.68 30.5001C247.1 30.5001 246.52 30.4001 245.94 30.1001C245.457 29.9001 244.974 29.5001 244.684 29.0001H244.587C244.684 29.5001 244.684 30.1001 244.684 30.6001V34.6001H243.233V20.4001H244.393L244.587 21.8001H244.684C244.974 21.3001 245.457 20.9001 245.94 20.6001C246.52 20.4001 247.1 20.2001 247.68 20.2001C248.841 20.1001 249.904 20.6001 250.581 21.5001C251.354 22.6001 251.644 23.9001 251.644 25.3001C251.741 26.6001 251.354 28.0001 250.581 29.1001C249.807 30.0001 248.744 30.5001 247.68 30.5001ZM247.487 21.5001C246.714 21.4001 245.94 21.7001 245.36 22.3001C244.877 23.1001 244.587 24.0001 244.684 25.0001V25.3001C244.587 26.3001 244.78 27.4001 245.36 28.3001C245.94 28.9001 246.714 29.3001 247.487 29.2001C248.26 29.2001 249.034 28.9001 249.421 28.2001C249.904 27.3001 250.194 26.4001 250.097 25.3001C250.194 24.3001 249.904 23.3001 249.324 22.4001C248.937 21.9001 248.26 21.5001 247.487 21.5001Z" fill="#192F6D"/>
<path d="M255.124 20.3998V26.7998C255.028 27.3998 255.221 28.0998 255.608 28.5998C256.091 28.9998 256.671 29.1998 257.251 29.1998C258.025 29.2998 258.895 28.9998 259.475 28.3998C259.958 27.5998 260.248 26.5998 260.152 25.5998V20.3998H261.602V30.1998H260.442L260.248 28.8998H260.152C259.862 29.3998 259.378 29.7998 258.895 29.9998C258.315 30.2998 257.735 30.3998 257.058 30.3998C256.091 30.4998 255.221 30.1998 254.448 29.4998C253.771 28.7998 253.481 27.7998 253.578 26.7998V20.2998H255.124V20.3998Z" fill="#192F6D"/>
<path d="M267.499 29.1996C267.789 29.1996 267.982 29.1996 268.272 29.0996C268.466 29.0996 268.659 28.9996 268.852 28.8996V29.9996C268.659 30.0996 268.369 30.1996 268.176 30.1996C267.886 30.1996 267.595 30.2996 267.402 30.2996C265.565 30.2996 264.599 29.2996 264.599 27.2996V21.4996H263.245V20.7996L264.599 20.1996L265.179 18.0996H266.049V20.3996H268.852V21.5996H266.049V27.3996C266.049 27.8996 266.145 28.3996 266.435 28.7996C266.629 29.0996 267.112 29.1996 267.499 29.1996Z" fill="#192F6D"/>
<path d="M274.363 30.4998C273.106 30.5998 271.946 30.0998 271.076 29.1998C270.206 28.1998 269.819 26.8998 269.819 25.4998C269.723 24.0998 270.109 22.7998 270.979 21.6998C271.753 20.7998 272.816 20.2998 273.976 20.2998C275.04 20.1998 276.103 20.6998 276.78 21.4998C277.553 22.3998 277.843 23.4998 277.843 24.6998V25.5998H271.269C271.269 26.5998 271.559 27.4998 272.139 28.1998C272.719 28.7998 273.589 29.1998 274.363 29.0998C275.426 29.0998 276.393 28.8998 277.36 28.3998V29.6998C276.876 29.8998 276.393 30.0998 275.91 30.1998C275.426 30.3998 274.943 30.4998 274.363 30.4998ZM273.976 21.4998C273.299 21.4998 272.623 21.7998 272.139 22.2998C271.656 22.8998 271.366 23.6998 271.366 24.3998H276.296C276.393 23.5998 276.103 22.8998 275.716 22.1998C275.33 21.6998 274.653 21.4998 273.976 21.4998Z" fill="#192F6D"/>
<path d="M284.32 20.2002C284.707 20.2002 285.093 20.2002 285.48 20.3002L285.287 21.7002C284.9 21.6002 284.61 21.6002 284.223 21.6002C283.45 21.6002 282.773 22.0002 282.29 22.6002C281.71 23.3002 281.42 24.1002 281.42 25.0002V30.3002H279.97V20.4002H281.13L281.323 22.2002H281.42C281.71 21.6002 282.193 21.1002 282.677 20.7002C283.257 20.4002 283.74 20.3002 284.32 20.2002Z" fill="#192F6D"/>
<path d="M90.5841 50.2C90.5841 51.3 90.1974 52.3 89.424 52.9C88.4572 53.6 87.2971 54 86.137 53.9C84.9769 54 83.7202 53.8 82.6567 53.3V51.8C83.2368 52 83.8168 52.2 84.3969 52.3C84.9769 52.4 85.6537 52.5 86.2337 52.5C87.0071 52.6 87.7805 52.4 88.4572 52C88.9406 51.6 89.2306 51 89.2306 50.4C89.2306 50 89.1339 49.6 88.9406 49.3C88.7472 49 88.3605 48.7 88.0705 48.5C87.4905 48.2 86.8137 47.9 86.137 47.7C85.1703 47.4 84.3002 46.8 83.6235 46.1C83.1401 45.4 82.8501 44.6 82.8501 43.8C82.8501 42.9 83.2368 42 83.9135 41.4C84.7836 40.8 85.7503 40.5 86.8138 40.5C87.9738 40.5 89.2306 40.7 90.294 41.2L89.8107 42.5C88.8439 42.1 87.7805 41.8 86.7171 41.8C86.0403 41.8 85.4603 41.9 84.8803 42.3C84.3969 42.6 84.2035 43.2 84.2035 43.8C84.2035 44.2 84.3002 44.6 84.3969 44.9C84.5902 45.2 84.8803 45.5 85.1703 45.7C85.7503 46 86.3304 46.3 86.9104 46.5C87.9738 46.8 88.8439 47.4 89.714 48.1C90.3907 48.6 90.5841 49.4 90.5841 50.2Z" fill="#192F6D"/>
<path d="M96.4816 53.8997C95.3215 53.9997 94.0647 53.4997 93.2913 52.5997C92.5179 51.4997 92.0345 50.1997 92.1312 48.8997C92.0345 47.4997 92.4212 46.1997 93.2913 45.0997C94.1614 44.1997 95.3215 43.6997 96.5782 43.7997C97.0616 43.7997 97.545 43.8997 97.9317 43.9997C98.3184 44.0997 98.7051 44.1997 98.9951 44.3997L98.6084 45.6997C98.2217 45.5997 97.9317 45.4997 97.545 45.3997C97.255 45.2997 96.8683 45.2997 96.5782 45.2997C94.6447 45.2997 93.678 46.5997 93.678 49.0997C93.5813 50.0997 93.8713 51.0997 94.3547 51.8997C94.8381 52.5997 95.6115 52.8997 96.4816 52.8997C97.3516 52.8997 98.125 52.6997 98.8984 52.3997V53.6997C98.125 53.7997 97.3516 53.8997 96.4816 53.8997Z" fill="#192F6D"/>
<path d="M100.638 41.1998C100.638 40.8998 100.735 40.6998 100.832 40.3998C101.218 40.0998 101.702 40.0998 101.992 40.3998C102.185 40.5998 102.282 40.8998 102.282 41.1998C102.282 41.4998 102.185 41.6998 101.992 41.9998C101.605 42.2998 101.122 42.2998 100.832 41.9998C100.735 41.6998 100.638 41.4998 100.638 41.1998ZM102.282 53.6998H100.832V43.7998H102.282V53.6998Z" fill="#192F6D"/>
<path d="M109.049 53.9002C107.792 54.0002 106.632 53.5002 105.762 52.6002C104.892 51.6002 104.409 50.3002 104.505 48.9002C104.409 47.5002 104.795 46.2002 105.665 45.1002C106.439 44.2002 107.502 43.7002 108.759 43.7002C109.822 43.7002 110.886 44.1002 111.562 44.9002C112.336 45.8002 112.626 46.9002 112.626 48.1002V49.0002H106.052C106.052 50.0002 106.342 50.9002 106.922 51.6002C107.502 52.2002 108.372 52.5002 109.146 52.5002C110.209 52.5002 111.176 52.3002 112.143 51.8002V53.1002C111.659 53.3002 111.176 53.5002 110.692 53.6002C110.112 53.8002 109.532 53.9002 109.049 53.9002ZM108.566 44.9002C107.889 44.9002 107.212 45.2002 106.729 45.7002C106.245 46.3002 105.955 47.1002 105.955 47.8002H110.982C111.079 47.0002 110.789 46.3002 110.402 45.6002C109.919 45.1002 109.242 44.9002 108.566 44.9002Z" fill="#192F6D"/>
<path d="M121.133 53.6998V47.2998C121.23 46.6998 121.037 45.9998 120.553 45.4998C120.07 45.0998 119.49 44.8998 118.91 44.8998C118.137 44.7998 117.266 45.0998 116.686 45.6998C116.203 46.4998 115.913 47.4998 116.01 48.4998V53.6998H114.56V43.7998H115.72L115.913 45.0998H116.01C116.3 44.5998 116.783 44.1998 117.266 43.9998C117.847 43.6998 118.427 43.5998 119.007 43.5998C119.973 43.4998 120.843 43.7998 121.617 44.4998C122.294 45.2998 122.584 46.1998 122.487 47.1998V53.5998H121.133V53.6998Z" fill="#192F6D"/>
<path d="M129.061 53.8997C127.901 53.9997 126.644 53.4997 125.87 52.5997C125.097 51.4997 124.71 50.1997 124.71 48.8997C124.614 47.4997 125 46.1997 125.87 45.0997C126.74 44.1997 127.901 43.6997 129.157 43.7997C129.641 43.7997 130.124 43.8997 130.511 43.9997C130.897 44.0997 131.284 44.1997 131.574 44.3997L131.091 45.6997C130.704 45.5997 130.414 45.4997 130.027 45.3997C129.737 45.2997 129.351 45.2997 129.061 45.2997C127.127 45.2997 126.16 46.5997 126.16 49.0997C126.064 50.0997 126.354 51.0997 126.837 51.8997C127.321 52.5997 128.094 52.8997 128.964 52.8997C129.834 52.8997 130.607 52.6997 131.381 52.2997V53.5997C130.704 53.6997 129.834 53.8997 129.061 53.8997Z" fill="#192F6D"/>
<path d="M146.752 50.2998C146.752 49.5998 146.945 48.7998 147.332 48.1998C147.912 47.3998 148.685 46.7998 149.459 46.3998C149.072 45.9998 148.782 45.5998 148.492 45.0998C148.299 44.7998 148.202 44.4998 148.105 44.1998C148.009 43.8998 147.912 43.4998 147.912 43.1998C147.912 42.3998 148.202 41.5998 148.782 41.0998C149.459 40.5998 150.329 40.2998 151.199 40.2998C151.972 40.2998 152.746 40.4998 153.423 41.0998C154.003 41.5998 154.293 42.3998 154.196 43.1998C154.196 43.8998 154.003 44.4998 153.519 44.9998C152.939 45.6998 152.359 46.1998 151.586 46.6998L155.066 50.1998C155.356 49.7998 155.646 49.3998 155.839 48.8998C156.033 48.3998 156.226 47.7998 156.323 47.2998H157.773C157.483 48.6998 156.903 50.0998 156.033 51.1998L158.643 53.7998H156.613L154.969 52.1998C154.389 52.7998 153.616 53.1998 152.939 53.5998C152.166 53.8998 151.392 53.9998 150.619 53.9998C149.556 54.0998 148.492 53.6998 147.719 52.9998C147.139 52.1998 146.752 51.2998 146.752 50.2998ZM150.716 52.4998C151.972 52.4998 153.229 51.9998 154.196 51.0998L150.426 47.2998C149.942 47.5998 149.459 47.8998 149.072 48.2998C148.589 48.7998 148.299 49.4998 148.299 50.1998C148.299 50.7998 148.492 51.3998 148.975 51.8998C149.459 52.2998 150.039 52.5998 150.716 52.4998ZM149.362 43.1998C149.362 43.5998 149.459 43.9998 149.652 44.3998C149.942 44.8998 150.329 45.2998 150.716 45.7998C151.296 45.4998 151.876 45.0998 152.262 44.5998C152.552 44.1998 152.746 43.7998 152.649 43.2998C152.649 42.8998 152.456 42.4998 152.166 42.1998C151.876 41.8998 151.392 41.6998 151.006 41.7998C150.522 41.7998 150.039 41.8998 149.652 42.1998C149.556 42.2998 149.362 42.6998 149.362 43.1998Z" fill="#192F6D"/>
<path d="M171.598 53.6996H164.541V40.5996H171.598V41.8996H165.991V46.0996H171.211V47.3996H165.991V52.1996H171.598V53.6996Z" fill="#192F6D"/>
<path d="M180.395 53.6998V47.2998C180.395 46.6998 180.299 45.9998 179.912 45.4998C179.428 45.0998 178.848 44.8998 178.268 44.8998C177.495 44.7998 176.625 45.0998 176.045 45.6998C175.465 46.4998 175.271 47.4998 175.368 48.4998V53.6998H173.918V43.7998H175.078L175.271 45.0998H175.368C175.658 44.5998 176.141 44.1998 176.625 43.9998C177.205 43.6998 177.785 43.5998 178.365 43.5998C179.332 43.4998 180.202 43.7998 180.975 44.4998C181.652 45.2998 181.942 46.1998 181.845 47.1998V53.5998H180.395V53.6998Z" fill="#192F6D"/>
<path d="M192.189 43.7998V44.7998L190.449 44.9998C190.643 45.2998 190.739 45.4998 190.836 45.7998C190.933 46.1998 191.029 46.5998 191.029 46.9998C191.029 47.8998 190.739 48.6998 190.063 49.2998C189.289 49.8998 188.419 50.1998 187.452 50.1998C187.162 50.1998 186.969 50.1998 186.679 50.0998C186.196 50.2998 185.809 50.7998 185.809 51.3998C185.809 51.5998 185.906 51.8998 186.099 51.9998C186.486 52.1998 186.872 52.1998 187.162 52.1998H188.806C189.676 52.0998 190.449 52.3998 191.223 52.8998C191.803 53.3998 192.093 54.0998 192.093 54.8998C192.093 55.8998 191.609 56.8998 190.836 57.3998C189.676 57.9998 188.419 58.2998 187.162 58.1998C186.196 58.2998 185.132 57.9998 184.262 57.4998C183.199 56.6998 182.909 55.1998 183.682 54.0998L183.779 53.9998C184.165 53.4998 184.745 53.1998 185.326 53.0998C185.036 52.9998 184.842 52.7998 184.745 52.5998C184.552 52.3998 184.455 52.0998 184.552 51.7998C184.552 51.4998 184.649 51.0998 184.842 50.8998C185.132 50.5998 185.422 50.2998 185.712 50.0998C185.229 49.8998 184.842 49.4998 184.552 48.9998C183.779 47.5998 183.972 45.8998 185.036 44.7998C185.809 44.1998 186.679 43.8998 187.646 43.8998C188.129 43.8998 188.516 43.9998 188.999 44.0998L192.189 43.7998ZM184.649 55.2998C184.649 55.7998 184.842 56.2998 185.326 56.4998C185.906 56.7998 186.582 56.9998 187.162 56.8998C188.129 56.9998 188.999 56.7998 189.869 56.2998C190.449 55.9998 190.739 55.3998 190.739 54.7998C190.739 54.3998 190.643 53.8998 190.256 53.6998C189.676 53.3998 189.096 53.2998 188.419 53.3998H186.679C186.099 53.3998 185.616 53.4998 185.132 53.8998C184.842 54.2998 184.649 54.7998 184.649 55.2998ZM185.422 46.9998C185.422 47.5998 185.616 48.0998 186.002 48.5998C186.486 48.9998 186.969 49.1998 187.549 49.0998C188.516 49.2998 189.483 48.5998 189.676 47.4998C189.676 47.2998 189.676 47.1998 189.676 46.9998C189.773 45.8998 189.096 44.8998 188.032 44.7998C187.839 44.7998 187.742 44.7998 187.549 44.7998C186.969 44.7998 186.389 44.9998 186.002 45.3998C185.616 45.7998 185.422 46.3998 185.422 46.9998Z" fill="#192F6D"/>
<path d="M193.736 41.1998C193.736 40.8998 193.833 40.6998 193.929 40.3998C194.316 40.0998 194.799 40.0998 195.089 40.3998C195.283 40.5998 195.379 40.8998 195.379 41.1998C195.379 41.4998 195.283 41.6998 195.089 41.9998C194.703 42.2998 194.219 42.2998 193.929 41.9998C193.833 41.6998 193.736 41.4998 193.736 41.1998ZM195.283 53.6998H193.833V43.8998H195.283V53.6998Z" fill="#192F6D"/>
<path d="M204.564 53.6998V47.2998C204.564 46.6998 204.37 45.9998 203.984 45.4998C203.5 45.0998 202.92 44.8998 202.34 44.8998C201.567 44.7998 200.697 45.0998 200.117 45.6998C199.537 46.4998 199.343 47.4998 199.44 48.4998V53.6998H197.99V43.7998H199.15L199.343 45.0998H199.44C199.73 44.5998 200.213 44.1998 200.697 43.9998C201.277 43.6998 201.857 43.5998 202.437 43.5998C203.404 43.4998 204.274 43.7998 205.047 44.4998C205.724 45.2998 206.014 46.1998 205.917 47.1998V53.5998H204.564V53.6998Z" fill="#192F6D"/>
<path d="M212.684 53.9002C211.427 54.0002 210.267 53.5002 209.397 52.6002C208.527 51.6002 208.14 50.3002 208.14 48.9002C208.044 47.5002 208.43 46.2002 209.301 45.1002C210.074 44.2002 211.137 43.7002 212.297 43.7002C213.361 43.7002 214.424 44.1002 215.101 44.9002C215.778 45.8002 216.164 46.9002 216.164 48.1002V49.0002H209.591C209.591 50.0002 209.881 50.9002 210.461 51.6002C211.041 52.2002 211.911 52.5002 212.684 52.5002C213.748 52.5002 214.714 52.3002 215.681 51.8002V53.1002C215.198 53.3002 214.714 53.5002 214.231 53.6002C213.748 53.8002 213.264 53.9002 212.684 53.9002ZM212.297 44.9002C211.621 44.9002 210.944 45.2002 210.461 45.7002C209.977 46.3002 209.687 47.1002 209.687 47.8002H214.618C214.714 47.0002 214.424 46.3002 214.038 45.6002C213.554 45.1002 212.878 44.9002 212.297 44.9002Z" fill="#192F6D"/>
<path d="M222.352 53.9002C221.095 54.0002 219.935 53.5002 219.065 52.6002C218.195 51.6002 217.808 50.3002 217.808 48.9002C217.711 47.5002 218.098 46.2002 218.968 45.1002C219.741 44.2002 220.805 43.7002 221.965 43.7002C223.028 43.6002 224.092 44.1002 224.769 44.9002C225.542 45.8002 225.832 46.9002 225.832 48.1002V49.0002H219.258C219.258 50.0002 219.548 50.9002 220.128 51.6002C220.708 52.2002 221.578 52.5002 222.352 52.5002C223.415 52.5002 224.382 52.3002 225.349 51.8002V53.1002C224.865 53.3002 224.382 53.5002 223.898 53.6002C223.415 53.8002 222.932 53.9002 222.352 53.9002ZM221.965 44.9002C221.288 44.9002 220.612 45.2002 220.128 45.7002C219.645 46.3002 219.355 47.1002 219.355 47.8002H224.285C224.382 47.0002 224.092 46.3002 223.705 45.6002C223.222 45.1002 222.545 44.8002 221.965 44.9002Z" fill="#192F6D"/>
<path d="M232.309 43.7002C232.696 43.7002 233.083 43.7002 233.469 43.8002L233.276 45.2002C232.889 45.1002 232.599 45.1002 232.213 45.1002C231.439 45.1002 230.763 45.5002 230.279 46.1002C229.699 46.8002 229.409 47.6002 229.409 48.5002V53.8002H227.959V43.9002H229.119L229.312 45.7002H229.409C229.699 45.1002 230.183 44.6002 230.666 44.2002C231.149 43.8002 231.729 43.7002 232.309 43.7002Z" fill="#192F6D"/>
<path d="M234.726 41.1998C234.726 40.8998 234.823 40.6998 234.919 40.3998C235.306 40.0998 235.789 40.0998 236.08 40.3998C236.273 40.5998 236.37 40.8998 236.37 41.1998C236.37 41.4998 236.273 41.6998 236.08 41.9998C235.693 42.2998 235.209 42.2998 234.919 41.9998C234.823 41.6998 234.726 41.4998 234.726 41.1998ZM236.273 53.6998H234.919V43.7998H236.37L236.273 53.6998Z" fill="#192F6D"/>
<path d="M245.554 53.6998V47.2998C245.554 46.6998 245.457 45.9998 245.07 45.4998C244.587 45.0998 244.007 44.8998 243.427 44.8998C242.654 44.7998 241.784 45.0998 241.204 45.6998C240.623 46.4998 240.43 47.4998 240.527 48.4998V53.6998H239.077V43.7998H240.237L240.43 45.0998H240.527C240.817 44.5998 241.3 44.1998 241.784 43.9998C242.364 43.6998 242.944 43.5998 243.524 43.5998C244.49 43.4998 245.361 43.7998 246.134 44.4998C246.811 45.2998 247.101 46.1998 247.004 47.1998V53.5998H245.554V53.6998Z" fill="#192F6D"/>
<path d="M257.445 43.7998V44.7998L255.705 44.9998C255.898 45.1998 255.995 45.4998 256.188 45.7998C256.285 46.1998 256.381 46.5998 256.381 46.9998C256.381 47.8998 256.091 48.6998 255.415 49.2998C254.641 49.8998 253.771 50.1998 252.804 50.1998C252.514 50.1998 252.321 50.1998 252.031 50.0998C251.548 50.2998 251.161 50.7998 251.064 51.3998C251.064 51.5998 251.161 51.8998 251.354 51.9998C251.741 52.1998 252.128 52.1998 252.418 52.1998H254.061C254.931 52.0998 255.705 52.3998 256.478 52.8998C257.058 53.3998 257.348 54.0998 257.348 54.8998C257.348 55.8998 256.865 56.8998 256.091 57.3998C254.931 57.9998 253.675 58.2998 252.418 58.1998C251.451 58.2998 250.388 57.9998 249.517 57.4998C248.454 56.6998 248.164 55.1998 248.937 54.0998L249.034 53.9998C249.421 53.4998 250.001 53.1998 250.581 53.0998C250.291 52.9998 250.098 52.7998 250.001 52.5998C249.808 52.3998 249.711 52.0998 249.808 51.7998C249.808 51.4998 249.904 51.0998 250.098 50.8998C250.388 50.5998 250.678 50.2998 250.968 50.0998C250.484 49.8998 250.098 49.4998 249.808 48.9998C249.034 47.5998 249.227 45.8998 250.291 44.7998C251.064 44.1998 251.934 43.8998 252.901 43.8998C253.384 43.8998 253.771 43.9998 254.255 44.0998L257.445 43.7998ZM249.808 55.2998C249.808 55.7998 250.001 56.2998 250.484 56.4998C251.064 56.7998 251.741 56.9998 252.321 56.8998C253.288 56.9998 254.158 56.7998 255.028 56.2998C255.608 55.9998 255.898 55.3998 255.898 54.7998C255.898 54.3998 255.801 53.8998 255.415 53.6998C254.835 53.3998 254.255 53.2998 253.578 53.3998H251.838C251.258 53.3998 250.774 53.5998 250.291 53.8998C250.001 54.2998 249.808 54.7998 249.808 55.2998ZM250.581 46.9998C250.581 47.5998 250.774 48.0998 251.161 48.5998C251.644 48.9998 252.128 49.1998 252.708 49.0998C253.674 49.2998 254.641 48.5998 254.835 47.4998C254.835 47.2998 254.835 47.1998 254.835 46.9998C254.931 45.8998 254.158 44.8998 253.094 44.7998C252.901 44.7998 252.804 44.7998 252.611 44.7998C252.031 44.7998 251.451 44.9998 251.064 45.3998C250.774 45.7998 250.581 46.3998 250.581 46.9998Z" fill="#192F6D"/>
<path d="M37.0264 49.4002C37.0264 48.5002 37.7031 47.7002 38.5732 47.7002C39.4432 47.7002 40.2166 48.4002 40.2166 49.3002C40.2166 50.2002 39.5399 51.0002 38.6698 51.0002C37.7031 51.0002 37.0264 50.3002 37.0264 49.4002ZM39.8299 49.4002C39.9266 48.7002 39.4432 48.1002 38.7665 48.0002C38.0898 47.9002 37.5097 48.4002 37.4131 49.1002C37.4131 49.2002 37.4131 49.2002 37.4131 49.3002C37.3164 50.0002 37.7998 50.6002 38.4765 50.7002C39.1532 50.8002 39.7333 50.3002 39.8299 49.6002C39.8299 49.5002 39.8299 49.4002 39.8299 49.4002ZM37.9931 48.4002H38.6698C39.1532 48.4002 39.3466 48.6002 39.3466 48.9002C39.3466 49.2002 39.1532 49.4002 38.9599 49.4002C38.9599 49.4002 38.9599 49.4002 38.8632 49.4002L39.3466 50.2002H39.0565L38.5732 49.4002H38.3798V50.2002H38.0898L37.9931 48.4002ZM38.2831 49.2002H38.5732C38.7665 49.2002 38.9599 49.2002 38.9599 48.9002C38.9599 48.6002 38.7665 48.6002 38.5732 48.6002H38.2831V49.2002Z" fill="#192F6D"/>
<path d="M52.2041 21.5996H47.0803H46.7903L46.597 21.8996L42.9233 29.8996L39.153 21.8996L39.0563 21.5996H38.7663H33.8359H33.3525V22.0996V24.7996V25.2996H33.8359H34.706V36.6996H33.7392H33.2559V37.1996V39.9996V40.4996H33.7392H39.3464H39.7331V39.9996V37.1996V36.6996H39.3464H38.3796V28.5996L42.5366 37.4996L42.9233 38.3996L43.31 37.4996L47.5637 28.5996V36.6996H46.597H46.1136V37.1996V39.9996V40.4996H46.597H52.2041H52.6875V39.9996V37.1996V36.6996H52.2041H51.2373V25.2996H52.2041H52.6875V24.7996V22.0996V21.5996H52.2041Z" fill="#192F6D"/>
<path d="M19.915 36.7H18.4649L13.6312 25.2H14.5979V21.5H6.86396V25.2H7.92738L3.09364 36.7H1.06348V40.4H8.02405V36.7H7.05731L7.8307 34.8H13.6312L14.4046 36.7H13.3412V40.4H20.3017V36.7H19.915ZM12.0844 31.1H9.3775L10.7309 27.9L12.0844 31.1Z" fill="#192F6D"/>
<path d="M46.307 7.2002H7.34714H6.76709V7.8002V18.6002V19.2002H7.34714H14.1144H14.6944V18.6002V14.6002H23.0084V43.0002H19.1414H18.5614V43.6002V50.6002V51.0002H19.1414H34.7061H35.2861V50.5002V43.5002V42.9002H34.7061H30.8391V14.6002H39.0564V18.6002V19.2002H39.6365H46.4037H46.8871V18.6002V7.8002V7.2002H46.307ZM31.9025 46.3002L33.546 44.5002V49.3002L31.9025 47.7002V46.3002ZM29.0989 44.6002L27.4555 46.3002V11.2002L29.0989 12.9002V44.6002ZM10.054 10.6002L8.41056 8.9002H44.4702L42.3434 10.6002H10.054ZM45.2436 17.5002L43.6001 15.9002V11.6002L45.2436 9.8002V17.5002Z" fill="#192F6D"/>
<path d="M138.761 54.2C137.505 54.3 136.344 53.8 135.474 52.9C134.604 51.9 134.218 50.6 134.218 49.2C134.121 47.8 134.508 46.5 135.378 45.4C136.151 44.5 137.215 44 138.375 44C139.438 44 140.501 44.4 141.178 45.2C141.855 46.1 142.242 47.2 142.242 48.4V49.3H135.764C135.764 50.3 136.054 51.2 136.634 51.9C137.215 52.5 138.085 52.8 138.858 52.8C139.921 52.8 140.888 52.6 141.855 52.1V53.4C141.372 53.6 140.888 53.8 140.405 53.9C139.921 54.1 139.341 54.2 138.761 54.2ZM138.375 45.2C137.698 45.2 137.021 45.5 136.538 46C136.054 46.6 135.764 47.4 135.764 48.1H140.695C140.792 47.3 140.501 46.6 140.115 45.9C139.728 45.4 139.051 45.2 138.375 45.2Z" fill="#192F6D"/>
</svg>
