<svg width="228" height="66" viewBox="0 0 228 66" fill="none" xmlns="http://www.w3.org/2000/svg">
<path d="M212.601 42.6461C212.006 42.4768 210.73 42.1384 210.134 41.5461C209.624 40.9538 209.454 40.2768 209.454 39.6845C209.454 38.5845 210.134 37.1461 212.091 37.1461C213.112 37.1461 213.877 37.4845 214.473 38.0768C215.324 39.0076 215.664 39.8538 215.834 40.4461C215.834 40.5307 215.919 40.5307 216.004 40.5307L216.26 40.4461C216.345 40.4461 216.345 40.3614 216.345 40.2768C216.345 39.7691 216.004 37.5691 216.004 36.8922C216.004 36.723 215.919 36.5538 215.834 36.5538C215.749 36.5538 215.664 36.5538 215.579 36.723L215.324 36.9768C215.239 37.0614 215.069 37.1461 214.898 36.9768C214.558 36.8076 213.622 36.4691 212.346 36.4691C211.155 36.4691 209.539 36.8076 208.773 37.4845C208.092 38.0768 207.412 39.1768 207.412 40.2768C207.412 41.7153 207.752 42.7307 208.518 43.4076C209.454 44.3384 211.58 45.2691 212.176 45.523C213.877 46.1153 214.983 46.623 214.983 48.823C214.983 50.7691 213.877 51.5307 212.601 51.5307C211.41 51.5307 210.219 50.9384 209.539 49.923C208.858 48.823 208.773 48.1461 208.773 47.4691C208.773 47.2999 208.688 47.2999 208.603 47.2999L207.922 47.2153C207.837 47.2153 207.752 47.2153 207.752 47.3845C207.667 47.9768 207.497 50.7691 207.412 51.2768C207.327 51.5307 207.497 51.6153 207.582 51.6153C207.752 51.6153 208.177 51.6153 208.263 51.3614C208.433 51.1076 208.518 51.023 208.603 51.023C208.688 51.023 208.858 51.1076 209.113 51.2768C209.964 51.9538 211.07 52.3768 212.516 52.3768C215.409 52.3768 216.94 50.1768 216.94 47.6384C216.94 46.1999 216.515 45.3538 216.004 44.6768C215.239 43.6614 214.133 43.1538 212.601 42.6461ZM211.07 55.5922C211.07 55.5922 211.155 55.5922 211.24 55.5922C211.41 55.5922 211.58 55.5922 211.751 55.5922H211.07ZM3.40283 4.3999V61.6845H224.597V4.3999H3.40283ZM4.5088 60.5845V5.41529H223.576V60.5845H4.5088ZM7.65656 57.3691H219.748V8.96913H7.65656V57.3691ZM11.3148 34.4384C11.1446 32.9999 12.5909 33.2538 12.5909 33.2538C13.0163 33.2538 13.0163 33.5922 13.0163 33.5922C11.3998 40.1922 12.5058 45.9461 12.5058 45.9461C12.761 47.1307 12.5909 47.1307 12.5909 47.1307C12.3357 47.1307 12.4207 46.7922 12.4207 46.7922C12.3357 46.1999 12.0804 46.7076 12.0804 46.7076C12.1655 47.2999 11.9103 47.2999 11.9103 47.2999C11.7401 47.2999 11.7401 47.0461 11.7401 47.0461C11.6551 46.4538 11.3998 46.8768 11.3998 46.8768C11.4849 47.4691 11.3998 47.3845 11.3998 47.3845C11.0595 47.4691 11.1446 46.623 11.1446 46.623C11.0595 45.8614 10.8043 45.6076 10.8043 45.6076C9.78343 41.6307 11.2297 34.8614 11.2297 34.8614C11.6551 34.7768 11.3148 34.4384 11.3148 34.4384ZM15.4834 20.1384C15.4834 20.1384 15.8237 20.0538 15.7387 20.6461C15.7387 20.6461 15.8237 21.6614 16.079 21.9153C16.079 21.9153 15.1431 23.0153 15.4834 23.6076C15.4834 23.6076 15.6536 23.7768 15.7387 23.4384C15.7387 23.4384 15.9088 21.9999 16.9297 21.7461C16.9297 21.7461 17.5252 20.9845 17.8655 20.7307C17.8655 20.7307 17.7804 25.2999 16.2491 25.2999C16.2491 25.2999 16.4192 25.8076 16.079 25.8922C16.079 25.8922 15.8237 25.8922 15.9088 25.3845C15.9088 25.3845 15.7387 25.1307 15.6536 25.5538C15.6536 25.5538 15.4834 25.5538 15.4834 25.2153C15.4834 25.2153 14.8028 25.8076 14.8028 23.523C14.8879 23.6922 14.7178 20.3922 15.4834 20.1384ZM14.8879 19.2922V17.1768C14.973 16.7537 15.1431 16.8384 15.1431 16.8384C15.5685 16.7537 15.4834 17.1768 15.4834 17.1768L15.3984 19.2922C15.3133 19.6307 15.2282 19.5461 15.2282 19.5461C14.973 19.5461 14.8879 19.2922 14.8879 19.2922ZM14.8879 25.6384C15.0581 26.3999 14.8028 26.3153 14.8028 26.3153L14.973 26.3999C15.1431 26.7384 15.8237 26.9076 15.8237 26.9076C15.9939 28.4307 15.7387 28.5999 15.7387 28.5999C15.5685 28.4307 15.4834 27.5845 15.4834 27.5845C15.6536 27.0768 15.3133 27.0768 15.3133 27.0768C14.8028 26.9922 14.7178 26.3153 14.7178 26.3153C14.1222 25.8076 14.4625 25.1307 14.4625 25.1307C14.8879 25.2999 14.8879 25.6384 14.8879 25.6384ZM14.3775 23.9461C14.3775 23.9461 13.7819 24.2845 13.6969 21.9153C13.6969 21.9153 13.6118 21.323 14.1222 21.2384C14.1222 21.2384 14.4625 21.0691 14.4625 21.6614C14.5476 21.5768 14.0372 23.3538 14.3775 23.9461ZM16.8446 30.3768C16.8446 30.3768 17.9506 30.9691 18.8013 29.2768C18.8013 29.2768 21.6088 24.2845 21.6939 22.423C21.6939 22.423 21.779 21.9153 22.4595 22.1691C22.4595 22.1691 22.5446 22.5076 22.2894 23.0153C22.2894 23.0153 19.8222 29.6999 18.2909 30.7999C18.2909 30.7999 17.8655 31.1384 18.2909 31.223C18.2909 31.223 19.2267 31.0538 18.7163 32.0691C18.7163 32.0691 18.461 33.0845 17.6103 32.4922C17.6103 32.4922 13.9521 30.2076 12.4207 24.7922L11.4849 22.2537C11.4849 22.2537 11.1446 21.5768 12.5909 21.4922C12.5909 21.4922 13.3566 21.323 13.3566 21.9999C13.2715 21.9153 14.2924 28.2614 16.8446 30.3768ZM20.2476 15.3153C23.3103 15.4845 24.161 17.0922 24.161 17.0922C25.4372 19.3768 24.5013 20.7307 24.5013 20.7307C22.97 22.6768 21.1834 21.6614 21.1834 21.6614C19.0566 20.3922 19.9073 18.6153 19.9073 18.6153C20.2476 18.1076 20.1625 17.1768 20.1625 17.1768C19.9924 16.1614 19.0566 15.6538 19.0566 15.6538C19.3969 15.3999 20.4178 15.9922 20.4178 15.9922C20.1625 15.6538 20.2476 15.3153 20.2476 15.3153ZM22.97 14.9768C22.8849 15.5691 22.5446 15.2307 22.5446 15.2307C22.4595 13.5384 23.6506 13.5384 23.6506 13.5384C23.9058 13.5384 23.6506 13.9614 23.6506 13.9614C23.4804 14.3845 23.4804 15.5691 23.4804 15.5691C23.1401 15.9076 23.2252 15.0614 23.2252 15.0614C23.2252 14.5537 22.97 14.9768 22.97 14.9768ZM26.0327 30.2922C25.6924 28.9384 26.5431 29.2768 26.5431 29.2768C27.479 29.3614 26.8834 30.5461 26.8834 30.5461C26.8834 31.1384 27.1387 30.9691 27.1387 30.9691C27.3939 28.5153 28.5849 28.1768 28.5849 28.1768C29.0103 29.4461 27.9043 30.4614 27.9043 30.4614C27.479 30.9691 27.8193 31.6461 27.8193 31.6461C28.4998 32.5768 29.3506 33.7614 29.3506 33.7614C30.2864 35.3691 29.776 37.0614 29.776 37.0614C29.1804 39.0922 26.373 38.923 26.373 38.923C24.2461 39.0076 23.0551 37.9076 23.0551 37.9076C20.9282 34.9461 23.4804 33.0845 23.4804 33.0845C24.3312 32.4076 25.0118 31.1384 25.0118 31.1384C24.5864 30.6307 23.9909 30.7999 23.9909 30.7999C22.3745 31.3922 22.3745 32.9153 22.3745 32.9153C22.5446 34.0153 21.9491 34.523 21.9491 34.523C20.8431 35.0307 19.9924 34.1845 19.9924 34.1845C18.376 33.1691 19.3118 31.1384 19.3118 31.1384C20.673 28.8538 23.3954 29.5307 23.3954 29.5307C24.076 29.6999 23.7357 29.7845 23.7357 29.7845C22.5446 29.5307 21.3536 30.0384 21.3536 30.0384C20.7581 30.3768 21.1834 30.4614 21.1834 30.4614C23.4804 29.8691 24.5864 30.7153 24.5864 30.7153C25.0118 31.1384 24.9267 30.7153 24.9267 30.7153C23.9058 29.6999 24.4163 27.7537 24.4163 27.7537C25.6924 28.9384 25.6924 30.7999 25.6924 30.7999C26.1178 31.1384 26.0327 30.2922 26.0327 30.2922ZM26.4581 27.3307C27.3088 27.7537 27.2237 28.5999 27.2237 28.5999C27.3088 29.1076 26.8834 29.023 26.8834 29.023H25.8625C25.3521 28.8538 26.4581 27.3307 26.4581 27.3307ZM38.1984 21.2384C38.1984 21.2384 38.7939 23.6076 37.2625 25.2153C37.2625 25.2153 36.9222 28.3461 36.5819 28.8538C36.5819 28.8538 36.4969 29.1076 36.4118 28.5999C36.4118 28.5999 36.0715 26.1461 36.1566 25.0461C36.1566 25.0461 35.2207 24.623 35.476 21.1537C35.476 21.1537 35.476 20.6461 35.9864 20.9845C35.9864 20.9845 37.0073 21.9999 37.0924 23.0153C37.0924 23.0153 37.4327 23.7768 37.5178 22.9307C37.5178 22.9307 37.2625 21.7461 38.1984 21.2384ZM38.3685 25.5538C38.7088 25.8076 38.4536 26.0614 38.4536 26.0614C38.1984 26.1461 38.1133 26.4845 38.1133 26.4845C38.0282 26.9076 37.9431 26.823 37.9431 26.823C37.1775 25.8922 38.3685 25.5538 38.3685 25.5538ZM35.1357 20.1384C34.5401 19.9691 34.4551 19.2922 34.4551 19.2922C34.4551 18.3614 35.0506 18.4461 35.0506 18.4461C35.0506 18.4461 35.7312 18.3614 35.6461 19.3768C35.561 20.3076 35.1357 20.1384 35.1357 20.1384ZM35.3058 29.3614C35.3058 29.3614 35.3909 28.8538 35.6461 29.1922L35.9864 29.6153C35.9864 29.6153 35.0506 30.3768 34.7954 31.3076C34.7954 31.3076 34.6252 31.7307 35.1357 31.3922C35.1357 31.3922 35.6461 30.2922 36.8372 29.1076C36.8372 29.1076 38.6237 27.1614 39.9849 22.9307C39.9849 22.9307 40.07 21.6614 41.176 21.8307C41.176 21.8307 41.9416 21.7461 41.4312 23.3538C41.4312 23.3538 39.2192 30.9691 34.2849 32.8307C34.2849 32.8307 33.7745 32.2384 34.7103 30.7153C34.7103 30.7153 34.7954 30.123 34.37 29.6153C34.37 29.6153 32.4133 27.923 30.6267 22.9307C30.6267 22.9307 31.0521 22.6768 30.967 23.0999C30.967 23.0999 31.3073 22.8461 31.3924 23.4384C31.3924 23.4384 31.5625 24.0307 31.9879 24.8768C31.9879 24.8768 32.1581 25.1307 32.1581 25.3845C32.1581 25.3845 32.3282 25.8076 32.5834 25.8076C32.5834 25.8076 32.7536 26.0614 32.8387 26.7384C32.8387 26.7384 33.0939 27.4153 33.4342 27.7537C33.6043 27.7537 34.4551 29.1076 35.3058 29.3614ZM41.7715 50.8538C41.9416 50.5999 42.0267 50.9384 42.0267 50.9384C42.367 51.1076 42.6222 51.6153 42.6222 51.6153C42.7924 52.0384 42.7073 51.9538 42.7073 51.9538C42.1118 51.6999 41.7715 50.8538 41.7715 50.8538ZM42.1118 53.1384C41.9416 53.8999 41.7715 53.8153 41.7715 53.8153C41.4312 53.3922 42.0267 52.5461 42.0267 52.5461C42.1969 52.5461 42.1118 53.1384 42.1118 53.1384ZM42.4521 49.5845C42.0267 49.1614 42.6222 48.0614 42.6222 48.0614C43.0476 49.8384 42.4521 49.5845 42.4521 49.5845ZM41.8566 48.5691C41.5163 48.5691 41.6013 47.9768 41.6013 47.9768C40.6655 48.3999 40.4103 47.0461 40.4103 47.0461C40.5804 42.8153 40.7506 37.5691 40.7506 37.5691C40.8357 35.623 40.3252 35.1153 40.3252 35.1153C39.8148 34.3538 39.8998 33.7614 39.8998 33.7614C40.2401 33.5076 40.4954 34.7768 40.4954 34.7768C40.1551 33.1691 40.4954 33.1691 40.4954 33.1691C40.8357 33.5922 40.7506 34.4384 40.7506 34.4384C41.6864 34.4384 41.6864 35.5384 41.6864 35.5384C42.9625 46.9614 41.8566 48.5691 41.8566 48.5691ZM35.9864 37.0614C36.0715 37.9922 35.8163 46.1999 35.8163 46.1999C35.8163 46.623 35.2207 46.5384 35.2207 46.5384C34.8804 46.5384 34.7103 46.2845 34.7103 46.2845C34.7954 42.8999 34.7954 37.6538 34.7954 37.6538C34.7954 36.5538 35.2207 36.8922 35.2207 36.8922C35.561 36.8076 35.7312 36.3845 35.7312 36.3845C35.9013 36.6384 35.8163 36.9768 35.8163 36.9768C35.9013 36.8076 35.9864 37.0614 35.9864 37.0614ZM27.9043 47.5538C27.7342 48.5691 27.3939 48.3153 27.3939 48.3153C26.9685 48.3999 26.9685 47.8922 26.9685 47.8922C26.0327 47.9768 26.7133 47.1307 26.7133 47.1307C30.3715 31.9845 38.1984 31.9845 38.1984 31.9845C38.1133 32.2384 37.4327 32.4922 37.4327 32.4922C37.0073 32.8307 37.5178 32.7461 37.5178 32.7461C38.1133 32.323 39.6446 31.8999 39.6446 31.8999C40.1551 31.8153 40.07 32.0691 40.07 32.0691L39.3894 32.4076C39.0491 32.7461 39.5595 32.7461 39.5595 32.7461C39.7297 32.4922 40.6655 32.323 40.6655 32.323C41.261 32.2384 41.0909 32.4922 41.0909 32.4922C30.8819 37.0614 27.9043 47.5538 27.9043 47.5538ZM25.8625 51.5307C25.6073 51.8691 25.6073 51.2768 25.6073 51.2768C25.4372 50.7691 25.3521 51.4461 25.3521 51.4461C25.267 52.2076 25.0118 51.2768 25.0118 51.2768C24.8416 51.023 24.8416 50.8538 24.8416 50.8538C24.8416 50.1768 24.5864 50.5153 24.5864 50.5153C24.4163 50.9384 24.3312 50.0922 24.3312 50.0922C22.1193 39.7691 17.6103 35.4538 17.6103 35.4538C16.9297 35.1153 17.0148 34.9461 17.0148 34.9461C17.0998 34.3538 16.5894 33.9307 16.5894 33.9307C15.6536 33.5076 15.0581 32.9999 15.0581 32.9999C14.8028 32.6614 13.6118 32.5768 13.6118 32.5768C13.2715 32.323 13.6118 32.1538 13.6118 32.1538C14.973 32.323 15.0581 32.4922 15.0581 32.4922C14.8879 32.0691 15.2282 31.9845 15.2282 31.9845C16.2491 32.1538 17.27 32.6614 17.27 32.6614C18.1207 32.9999 18.0357 33.3384 18.0357 33.3384C19.1416 33.9307 19.9924 34.7768 19.9924 34.7768C26.5431 42.8153 26.373 49.923 26.373 49.923C26.7984 49.923 26.7133 50.2614 26.7133 50.2614C26.7984 50.7691 26.2879 50.5999 26.2879 50.5999C25.9476 50.1768 25.9476 50.5153 25.9476 50.5153C26.1178 51.2768 25.8625 51.5307 25.8625 51.5307ZM17.9506 45.6922C18.2058 46.623 17.27 46.5384 17.27 46.5384C16.5894 46.5384 16.8446 45.9461 16.8446 45.9461C17.0148 45.6922 16.7595 45.523 16.7595 45.523C16.5043 43.9999 16.9297 35.4538 16.9297 35.4538C17.0148 35.1153 17.1849 35.3691 17.1849 35.3691C17.3551 35.5384 17.0998 35.9614 17.0998 35.9614C17.7804 35.5384 17.9506 36.3845 17.9506 36.3845C17.6103 40.6999 17.9506 45.6922 17.9506 45.6922ZM12.0804 29.6999C12.0804 29.6999 12.5909 29.2768 12.5909 29.023C12.5909 29.023 12.5058 28.1768 13.0163 27.923C13.0163 27.923 13.6969 28.2614 13.7819 29.2768C13.7819 29.2768 13.6118 29.8691 13.3566 29.9538C13.3566 29.9538 13.1864 30.123 13.4416 30.4614C13.4416 30.4614 13.867 31.3076 13.0163 31.7307C13.0163 31.7307 12.5058 31.8999 12.3357 31.6461C12.3357 31.6461 12.1655 32.0691 11.9954 32.0691C11.9954 32.0691 11.7401 31.8999 12.0804 31.3922C11.9954 31.4768 11.2297 31.0538 12.0804 29.6999ZM14.8028 33.2538C14.8028 33.2538 13.5267 32.9153 13.3566 32.7461C13.3566 32.7461 14.6327 32.5768 15.0581 33.2538C15.0581 33.2538 15.1431 33.423 14.8028 33.2538ZM14.7178 30.5461C14.7178 30.5461 15.1431 30.8845 15.2282 31.223C15.2282 31.223 14.5476 31.6461 14.2924 31.1384C14.2924 31.1384 14.0372 30.3768 14.7178 30.5461ZM21.4387 35.8768V35.5384C21.4387 35.5384 22.1193 35.3691 21.779 36.2153C21.779 36.2999 21.5237 36.2999 21.4387 35.8768ZM23.7357 39.3461C23.7357 39.3461 24.4163 38.923 24.5013 40.8691C24.5013 40.8691 24.076 41.123 23.9909 40.2768C23.9909 40.2768 23.7357 39.5999 23.7357 39.3461ZM26.7133 42.3922C26.9685 44.2538 26.4581 47.2153 26.4581 47.2153C26.2028 46.4538 25.4372 43.9153 25.4372 43.9153L25.267 42.3922C24.6715 41.6307 25.1819 39.2614 25.1819 39.2614C25.4372 39.0922 25.5222 39.2614 25.5222 39.2614C25.5222 39.4307 25.6073 39.4307 25.6073 39.4307C26.0327 39.0076 26.7133 39.3461 26.7133 39.3461C26.9685 39.3461 27.0536 39.5153 27.0536 39.5153C27.1387 39.2614 27.3939 39.2614 27.3939 39.2614C27.6491 42.223 26.7133 42.3922 26.7133 42.3922ZM27.9043 41.123C28.0745 39.1768 29.0954 38.6691 29.0954 38.6691C29.5207 38.923 28.67 40.2768 28.67 40.2768C28.1595 41.0384 27.6491 42.6461 27.6491 42.6461C27.3088 43.1538 27.479 42.4768 27.479 42.4768C27.564 42.223 27.9043 41.123 27.9043 41.123ZM30.6267 36.4691C30.8819 36.3845 30.7969 36.9768 30.7969 36.9768C30.6267 37.2307 30.3715 37.0614 30.3715 37.0614C30.1163 36.6384 30.6267 36.4691 30.6267 36.4691ZM39.8998 28.5153C39.8998 28.5153 39.9849 30.0384 40.4954 30.7999C40.4954 30.7999 40.6655 31.3922 39.8148 31.223C39.8148 31.223 39.5596 30.2922 39.3043 30.0384C39.2192 30.0384 38.7088 29.023 39.8998 28.5153ZM31.7327 28.1768C32.4133 27.5845 32.5834 27.6691 32.5834 27.6691L32.8387 27.923C33.264 28.8538 32.2431 29.1076 32.2431 29.1076C31.2222 29.6153 28.9252 29.6153 28.9252 29.6153L29.0103 29.2768C29.0954 28.1768 30.3715 28.5153 30.3715 28.5153C31.0521 28.5153 31.7327 28.1768 31.7327 28.1768ZM32.2431 30.4614C34.5401 31.9845 33.4342 33.6768 33.4342 33.6768C31.7327 36.4691 30.6267 35.7922 30.6267 35.7922C29.5207 34.9461 30.0312 33.5922 30.0312 33.5922C30.2864 32.4922 29.861 31.8153 29.861 31.8153C29.2655 30.7153 28.67 31.1384 28.67 31.1384C28.2446 31.7307 28.1595 31.4768 28.1595 31.4768C27.7342 31.0538 28.4148 30.8845 28.4148 30.8845C30.3715 29.3614 32.2431 30.4614 32.2431 30.4614ZM22.8849 28.8538C22.8849 28.8538 22.5446 28.6845 21.6939 28.8538C21.6939 28.8538 20.2476 28.3461 20.7581 27.2461C20.7581 27.2461 21.3536 26.4845 22.0342 27.4153C22.0342 27.4153 22.4595 28.0922 23.2252 28.2614C23.2252 28.2614 24.2461 27.923 23.9058 29.1922C23.9058 29.1076 23.9909 29.2768 22.8849 28.8538ZM10.6342 35.7922C10.6342 35.7922 10.9745 36.1307 10.464 37.3153C10.464 37.3153 9.95358 37.5691 9.69835 37.1461C9.69835 37.1461 9.44313 34.9461 9.8685 34.8614C9.8685 34.8614 10.379 33.3384 11.1446 33.423C11.1446 33.423 11.4849 33.9307 10.464 35.3691C10.379 35.3691 10.2939 35.7076 10.6342 35.7922ZM9.95358 54.323L9.78343 53.3076C9.78343 53.3076 9.95358 53.223 10.2088 53.4768C10.2088 53.4768 11.1446 54.6614 12.3357 54.4922L12.5909 55.423C12.5909 55.423 10.5491 56.0153 9.95358 54.323ZM11.6551 50.9384L11.9103 50.8538C11.9954 51.4461 12.5058 53.8153 12.5058 53.8153C11.9954 53.3922 11.6551 50.9384 11.6551 50.9384ZM13.1013 55.6768C12.8461 55.5922 12.5058 54.323 12.5058 54.323C13.1864 54.6614 13.1013 55.6768 13.1013 55.6768ZM13.6118 55.5076C12.676 54.7461 12.2506 51.023 12.2506 51.023C12.3357 50.7691 12.4207 51.023 12.4207 51.023C13.1864 54.323 13.6118 55.1691 13.6118 55.1691C13.6118 55.5922 13.6118 55.5076 13.6118 55.5076ZM12.5909 50.7691C12.676 50.5153 12.9312 50.8538 12.9312 50.8538C13.1013 51.6153 13.2715 53.3076 13.2715 53.3076C12.9312 52.5461 12.5909 50.7691 12.5909 50.7691ZM14.3775 55.1691C13.7819 55.0845 13.6969 53.1384 13.6969 53.1384C14.1222 54.6614 14.2924 54.8307 14.2924 54.8307C14.5476 55.2538 14.3775 55.1691 14.3775 55.1691ZM14.7178 54.8307C14.7178 54.8307 14.1222 54.6614 14.2924 53.8153C14.2924 53.8153 14.973 53.3922 14.973 53.0538C14.973 53.0538 15.3984 52.4614 15.4834 53.3076C15.3984 53.3922 15.5685 54.9153 14.7178 54.8307ZM15.9088 54.7461C15.6536 54.4922 15.8237 52.6307 15.8237 52.6307C16.079 52.3768 16.079 52.7153 16.079 52.7153L16.164 53.9845C16.079 54.9999 15.9088 54.7461 15.9088 54.7461ZM17.0148 55.1691C16.8446 55.5076 16.6745 55.2538 16.6745 55.2538L16.8446 50.0922L17.0998 50.1768L17.0148 55.1691ZM17.6103 55.1691C17.4401 55.423 17.27 55.1691 17.27 55.1691L17.4401 50.2614L17.6954 50.4307L17.6103 55.1691ZM24.076 55.8461C24.076 55.8461 23.3954 49.6691 14.1222 49.5845C14.1222 49.5845 10.8043 49.8384 9.78343 52.8845C9.78343 52.8845 9.44313 50.5153 9.8685 49.7538C9.8685 49.7538 13.7819 43.4076 22.3745 48.9922C22.3745 48.9922 25.6073 51.1922 26.8834 55.7614L24.076 55.8461ZM27.2237 55.5076C27.2237 55.5076 26.8834 55.5076 27.1387 55.0845C27.1387 55.0845 27.0536 54.8307 26.7984 54.9153C26.7984 54.9153 26.5431 53.6461 25.6073 52.4614C25.6073 52.4614 28.0745 47.8922 35.1357 46.8768C35.1357 46.8768 40.3252 46.3691 42.0267 49.7538C42.0267 49.7538 42.2819 50.7691 41.4312 50.5999C41.4312 50.5999 37.6879 47.8076 32.3282 50.7691C32.4133 50.6845 30.8819 51.1076 27.2237 55.5076ZM35.476 55.2538C34.7954 55.7615 34.2849 55.0845 34.2849 55.0845C34.1148 54.2384 34.6252 50.1768 34.6252 50.1768C34.7103 50.0076 35.0506 50.0922 35.0506 50.0922C35.2207 49.6691 35.561 49.6691 35.561 49.6691C35.8163 51.4461 35.476 55.2538 35.476 55.2538ZM36.2416 53.3922C36.2416 53.3922 36.5819 53.4768 36.667 53.9845C36.667 53.9845 36.5819 54.2384 36.2416 53.6461C36.1566 53.6461 36.0715 53.3922 36.2416 53.3922ZM37.0073 55.5076C37.0073 55.5076 36.4969 55.423 36.3267 54.8307C36.3267 54.8307 36.4118 54.5768 36.5819 54.5768C36.5819 54.5768 36.8372 55.1691 37.3476 55.0845C37.2625 55.0845 37.6028 55.5076 37.0073 55.5076ZM38.0282 54.9153C37.5178 55.1691 37.1775 54.4922 37.1775 54.4922C38.3685 54.4076 38.0282 54.9153 38.0282 54.9153ZM38.4536 55.8461C39.3894 54.323 40.07 50.4307 40.07 50.4307C40.4103 50.3461 40.4103 50.7691 40.4103 50.7691C40.4954 51.2768 40.5804 51.023 40.5804 51.023C40.8357 50.7691 40.8357 51.1076 40.8357 51.1076C40.6655 51.5307 41.0909 51.3614 41.0909 51.3614C41.176 51.023 41.261 51.1922 41.261 51.1922C41.3461 52.7999 40.1551 56.0999 40.1551 56.0999C39.3043 56.2691 38.4536 55.8461 38.4536 55.8461ZM41.9416 55.423C42.4521 55.423 42.367 55.7614 42.367 55.7614C42.1118 56.0153 41.8566 55.6768 41.8566 55.6768C40.8357 55.6768 41.261 55.2538 41.261 55.2538C42.8775 54.9153 42.5372 54.323 42.5372 54.323C41.6013 55.2538 41.5163 54.8307 41.5163 54.8307C41.6013 54.4076 42.367 53.7307 42.367 53.7307C42.4521 53.223 42.7924 53.223 42.7924 53.223C43.2178 55.1691 41.9416 55.423 41.9416 55.423ZM43.0476 35.4538C42.7924 37.3999 42.2819 36.8076 42.2819 36.8076C42.1969 36.5538 42.6222 36.2153 42.6222 36.2153C41.6013 36.3845 42.0267 35.623 42.0267 35.623C42.1118 34.6922 41.7715 34.3538 41.7715 34.3538C41.3461 33.9307 41.5163 32.9999 41.5163 32.9999C41.6864 32.7461 42.0267 32.9153 42.0267 32.9153C43.3028 33.5922 43.0476 35.4538 43.0476 35.4538ZM42.2819 21.5768C40.3252 21.5768 40.6655 20.5614 40.6655 20.5614C40.7506 20.0537 40.9207 18.6999 40.9207 18.6999C40.9207 17.0922 39.8998 17.0076 39.8998 17.0076C39.2192 16.923 39.3894 17.0922 39.3894 17.0922C40.4103 17.7691 40.2401 17.8538 40.2401 17.8538C39.9849 17.7691 39.3043 17.6845 39.3043 17.6845C38.1984 17.7691 38.1984 19.123 38.1984 19.123C38.2834 19.7153 38.1133 20.3076 38.1133 20.3076C37.6028 21.7461 37.0924 21.6614 37.0924 21.6614C36.667 21.6614 36.5819 21.1537 36.5819 21.1537C36.7521 20.7307 36.4118 20.5614 36.4118 20.5614C36.0715 20.4768 36.0715 19.9691 36.0715 19.9691C36.1566 19.2922 35.9013 18.5307 35.9013 18.5307C35.561 17.1768 35.0506 17.2614 35.0506 17.2614C34.0297 17.6845 33.7745 18.9538 33.7745 18.9538C33.6043 19.6307 34.1148 19.7153 34.1148 19.7153C34.5401 20.1384 34.4551 20.6461 34.4551 20.6461C34.4551 22.7614 31.9028 22.6768 31.9028 22.6768C29.0954 22.1691 29.0954 19.6307 29.0954 19.6307C29.0103 16.0768 33.5193 15.823 33.5193 15.823C32.8387 16.2461 32.7536 16.6691 32.7536 16.6691C35.9864 15.2307 37.2625 18.6999 37.2625 18.6999C37.6028 18.6999 37.8581 18.023 37.8581 18.023C38.1133 17.4307 38.7088 16.8384 38.7088 16.8384C40.1551 15.5691 41.6013 16.5845 41.6013 16.5845C41.9416 16.1614 42.6222 16.4999 42.6222 16.4999C43.8133 17.1768 43.473 20.1384 43.473 20.1384C43.5581 21.7461 42.2819 21.5768 42.2819 21.5768ZM41.176 15.3999C41.3461 14.6384 42.367 14.4691 42.367 14.4691C42.5372 14.3845 42.6222 14.6384 42.6222 14.6384C42.7924 15.5691 42.5372 15.9076 42.5372 15.9076L41.8566 15.823C41.0909 15.9076 41.176 15.3999 41.176 15.3999ZM54.3625 27.7537V23.2691V21.5768L55.2133 21.4922C56.7446 21.4922 57.7655 21.4922 59.1267 22.0845C61.0834 22.8461 61.9342 24.2845 61.9342 26.9076C61.9342 30.7999 59.8073 32.0691 57.0849 32.0691C54.3625 31.9845 54.3625 30.7153 54.3625 27.7537ZM58.0207 34.8614C59.9775 35.0307 62.9551 35.8768 62.9551 40.1076C62.9551 41.2076 62.7849 42.3922 62.1043 43.323C61.2536 44.423 60.4028 45.4384 58.4461 45.4384C57.17 45.4384 56.4894 45.3538 55.8088 45.1845V35.0307C56.4043 34.7768 57.4252 34.8614 58.0207 34.8614ZM74.6103 55.5076H74.0148C73.8446 55.5076 73.7595 55.5076 73.7595 55.6768V56.2691H68.57C68.57 56.2691 68.57 56.2691 68.57 56.1845V55.5922C68.57 55.5076 68.4849 55.423 68.3148 55.423H67.2088C66.6984 55.423 66.3581 55.2538 66.3581 54.9153C66.3581 54.8307 66.4431 54.5768 66.4431 54.4076C66.5282 53.8999 67.8894 50.4307 68.1446 49.8384H73.7595C74.0998 50.7691 75.0357 53.7307 75.2909 54.5768C75.461 55.2538 75.2909 55.5076 74.6103 55.5076ZM68.4849 48.7384C68.6551 48.1461 70.9521 41.8845 71.0372 41.6307C71.1222 41.4614 71.1222 41.4614 71.2073 41.4614C71.2924 41.4614 71.2924 41.4614 71.3775 41.6307C71.4625 41.9691 73.4193 48.0614 73.6745 48.823L68.4849 48.7384ZM82.7775 45.3538C82.7775 49.0768 82.6924 54.0691 82.6073 54.4076C82.5222 55.2538 82.267 55.423 81.161 55.423H79.7999C79.7148 55.423 79.6297 55.423 79.6297 55.5076C79.2043 55.423 79.0342 55.0845 78.6939 54.4076C78.3536 53.7307 76.8222 49.1614 76.2267 47.2999C75.8013 45.7768 73.9297 40.2768 73.4193 38.7538C73.3342 38.4999 72.9088 38.3307 72.7387 38.3307C72.6536 38.3307 72.5685 38.4153 72.3984 38.5845C72.3133 38.923 70.9521 39.5999 70.3566 39.7691C70.1864 39.8538 70.1013 39.9384 70.1013 40.023C70.1013 40.1076 70.1864 40.2768 70.2715 40.3614C70.4416 40.6153 70.3566 40.9538 70.2715 41.2076C70.0163 41.8845 68.1446 47.1307 67.9745 47.5538C67.2939 49.5845 65.3372 53.9845 65.167 54.4076C64.8267 55.1691 64.6566 55.5922 63.976 55.5922H62.6148C62.5297 55.5922 62.4446 55.6768 62.4446 55.7614V56.3538H58.9566V55.7614C58.9566 55.5922 58.9566 55.5076 58.7013 55.5076L56.9148 55.5922C56.2342 55.5922 55.8939 55.2538 55.8088 54.5768C55.8088 54.1538 55.7237 49.7538 55.7237 48.2307L55.8088 46.7922C56.8297 46.9614 57.8506 46.8768 59.0416 46.8768C64.1461 46.8768 67.2088 44.3384 67.2088 40.3614C67.2088 38.4999 66.1879 36.5538 64.6566 35.5384C63.8058 34.9461 62.9551 34.523 61.9342 34.3538H79.3745V34.9461C79.3745 35.1153 79.3745 35.1999 79.5446 35.1999H81.4163C82.267 35.1999 82.6073 35.2845 82.6924 35.8768C82.6924 36.2153 82.7775 39.6845 82.7775 41.7999V45.3538ZM123.188 56.2691V55.9307C123.188 55.8461 123.188 55.7614 123.018 55.7614H121.997C121.657 55.7614 121.401 55.3384 121.401 54.8307C121.401 54.4922 121.316 51.7845 121.316 50.3461V48.9922C121.657 48.9076 121.912 48.9076 122.082 48.9076C123.528 48.9076 123.528 49.5845 124.209 50.3461C124.464 50.6845 125.655 52.4614 125.74 52.6307C125.825 52.7999 127.186 55.0845 127.357 55.423C127.527 55.5922 127.782 56.0153 128.037 56.3538H123.188V56.2691ZM121.316 47.9768L121.401 41.2922C121.401 40.8691 121.486 40.6153 121.657 40.5307C121.912 40.3614 122.167 40.3614 122.507 40.3614C124.549 40.3614 124.974 40.5307 125.91 41.2922C126.591 41.8845 127.101 42.8999 127.101 44.0845C127.101 45.0999 126.251 48.1461 121.827 48.1461C121.486 48.1461 121.742 48.0614 121.316 47.9768ZM133.057 56.2691V55.9307C133.057 55.8461 133.057 55.7614 132.886 55.7614C132.206 55.7614 131.61 55.6768 131.1 55.3384C130.674 54.9999 129.058 52.7999 128.973 52.5461C128.803 52.2076 127.101 49.7538 126.761 49.4153C126.251 48.9076 126.251 48.823 125.655 48.5691L125.06 48.3999C128.207 47.723 130.164 46.7076 130.164 43.6614C130.164 42.7307 129.739 41.7153 128.888 40.8691C127.952 40.023 125.825 39.2614 123.783 39.2614C123.358 39.2614 121.061 39.3461 119.7 39.3461C117.658 39.3461 116.892 39.2614 116.722 39.2614C116.637 39.2614 116.552 39.3461 116.552 39.4307V40.023C116.552 40.1076 116.552 40.1922 116.722 40.1922H117.658C118.254 40.1922 118.594 40.6153 118.594 41.3768C118.594 42.0538 118.594 43.6614 118.594 45.4384V47.8076C118.594 50.0922 118.594 52.3768 118.509 54.7461C118.509 55.423 118.083 55.5922 117.573 55.5922H116.552C116.467 55.5922 116.467 55.6768 116.467 55.7614V56.0999H115.616L117.233 51.6153C117.318 51.3614 117.318 51.2768 117.148 51.1922L116.637 50.9384C116.467 50.8538 116.382 50.9384 116.212 51.1076C115.786 51.8691 114 53.9845 113.574 54.323C112.724 54.9999 111.277 55.423 110.682 55.5076C110.001 55.5922 108.385 55.5922 107.789 55.5922C106.939 55.5922 106.513 55.5076 105.918 55.3384C104.897 55.1691 104.046 54.6614 103.961 52.9691C103.961 52.2922 103.876 49.1614 103.876 47.3845V45.3538C104.386 45.3538 106.088 45.3538 107.704 45.523C108.555 45.6076 109.491 46.1153 109.661 46.7922C109.746 47.1307 109.916 47.8922 110.001 48.3153C110.001 48.5691 110.086 48.6538 110.257 48.5691L110.937 48.4845C111.107 48.4845 111.107 48.3999 111.107 48.2307C111.022 47.5538 110.937 45.9461 110.937 44.8461C110.937 44.3384 110.937 41.7153 111.022 41.123C111.022 40.9538 110.427 40.8691 110.257 40.8691H110.001C109.831 40.8691 109.746 40.9538 109.746 41.123C109.746 41.7153 109.576 42.3922 109.491 42.7307C109.236 43.7461 108.385 43.9999 107.449 44.1691C107.024 44.2538 104.046 44.3384 103.791 44.3384V34.8614L109.066 35.0307C109.916 35.0307 110.852 35.4538 111.533 35.8768C112.298 36.3845 114.766 39.4307 114.851 39.5999C114.851 39.6845 115.021 39.7691 115.106 39.6845L115.871 39.5153C116.042 39.4307 116.042 39.3461 115.957 39.2614C115.871 38.923 114.595 35.1153 114.34 34.1845H126.251V34.9461C126.251 35.0307 126.251 35.1999 126.421 35.1999H127.442C128.037 35.1999 128.463 35.4538 128.718 36.2999L135.269 56.1845C135.269 56.2691 135.354 56.3538 135.354 56.3538L133.057 56.2691ZM119.104 32.9153H112.298C112.383 32.9153 112.468 32.8307 112.468 32.7461V31.9845C112.468 31.8153 112.383 31.7307 112.128 31.7307H110.597C109.916 31.7307 109.491 31.4768 109.491 30.9691C109.491 30.7999 109.576 30.4614 109.576 30.2076C109.746 29.5307 111.363 24.8768 111.703 24.1153H119.104C119.53 25.3845 120.721 29.1922 120.976 30.3768C121.231 31.3076 120.891 31.6461 120.04 31.6461H119.189C119.019 31.6461 118.934 31.6461 118.934 31.8999V32.6614C118.934 32.8307 119.019 32.9153 119.104 32.9153ZM134.248 35.1153C134.418 35.1153 134.503 35.0307 134.503 34.8614V34.0999H139.437V34.8614C139.437 35.0307 139.437 35.1153 139.607 35.1153H140.373C140.883 35.1153 141.309 35.2845 141.564 35.7076C141.819 36.0461 142.074 36.5538 141.989 36.8076C141.904 38.0768 137.566 50.2614 137.48 50.7691L132.801 36.2153C132.631 35.5384 133.482 35.1153 134.248 35.1153ZM136.715 56.2691C136.8 56.1845 136.885 56.0153 136.97 55.9307C137.14 55.5922 142.415 40.2768 142.67 39.4307H142.755L148.37 55.9307C148.455 56.0999 148.455 56.1845 148.625 56.2691H136.715ZM179.337 56.2691V55.6768C179.337 55.5076 179.337 55.423 179.082 55.423H177.21C176.7 55.423 176.445 54.8307 176.445 54.1538C176.445 53.6461 176.36 50.0922 176.36 48.2307V46.4538C176.785 46.3691 177.125 46.3691 177.38 46.3691C179.252 46.3691 179.337 47.2153 180.103 48.2307C180.528 48.6538 182.06 50.9384 182.145 51.1922C182.315 51.4461 184.016 54.4922 184.271 54.8307C184.527 55.1691 184.952 55.8461 185.292 56.2691H179.337ZM188.866 32.9153H182.06C182.145 32.9153 182.23 32.8307 182.23 32.7461V31.9845C182.23 31.8153 182.145 31.7307 181.889 31.7307H180.358C179.677 31.7307 179.252 31.4768 179.252 30.9691C179.252 30.7999 179.337 30.4614 179.337 30.2076C179.507 29.5307 181.124 24.8768 181.464 24.1153H188.866C189.291 25.3845 190.482 29.1922 190.737 30.3768C190.992 31.3076 190.652 31.6461 189.801 31.6461H188.951C188.78 31.6461 188.695 31.6461 188.695 31.8999V32.6614C188.695 32.8307 188.78 32.9153 188.866 32.9153ZM182.485 36.2999C183.421 37.0614 184.101 38.4999 184.101 39.9384C184.101 41.2922 182.995 45.2691 177.125 45.2691C176.53 45.2691 176.87 45.2691 176.36 45.0999V36.1307C176.36 35.623 176.53 35.2845 176.785 35.1153C177.04 34.9461 177.466 34.8614 177.891 34.8614C180.528 34.8614 181.209 35.3691 182.485 36.2999ZM192.098 44.9307C192.098 48.9076 192.013 54.7461 192.013 55.0845C192.013 55.2538 191.928 55.3384 191.758 55.5076C191.758 55.5076 191.673 55.423 191.588 55.423C190.652 55.423 189.971 55.3384 189.291 54.9153C188.695 54.4922 186.654 51.5307 186.483 51.2768C186.228 50.8538 183.931 47.6384 183.591 47.2153C182.91 46.4538 182.74 46.2845 181.974 46.0307L181.379 45.9461C185.463 45.0153 188.1 43.5768 188.1 39.5999C188.1 38.4153 187.249 36.9768 186.228 35.8768C185.463 35.1153 184.016 34.523 182.485 34.1845H189.971V35.0307C189.971 35.1999 190.057 35.2845 190.227 35.2845L191.077 35.3691C191.843 35.3691 192.013 35.7922 192.013 36.1307C192.013 36.3845 192.098 42.6461 192.098 43.2384V44.9307ZM203.158 55.5922H202.648C202.477 55.5922 202.477 55.6768 202.477 55.7614V56.1845H198.309V55.6768C198.309 55.5076 198.224 55.5076 198.054 55.5076H196.607C196.182 55.5076 195.927 55.2538 195.842 54.8307C195.842 54.4076 195.757 49.6691 195.757 48.0614V45.7768H196.352C196.863 45.7768 197.288 45.8614 197.798 46.2845C198.224 46.623 203.583 54.1538 203.924 54.8307C204.094 55.1691 203.839 55.5922 203.158 55.5922ZM211.921 56.2691V55.8461C211.921 55.7614 211.495 55.5922 211.24 55.5922C210.389 55.5076 209.198 55.3384 208.773 54.7461C208.518 54.4076 200.351 43.8307 200.095 43.4922C201.457 41.7153 205.966 36.6384 207.157 35.7922C207.752 35.3691 208.518 35.1999 208.943 35.1999H209.624C209.794 35.1999 209.879 35.1153 209.879 34.9461V34.0999H218.727V56.2691H211.921ZM204.689 19.8845C204.689 17.5999 204.774 12.6922 204.774 12.2691C204.774 11.3384 204.945 11.5076 205.88 11.5076H207.412C207.667 11.5076 207.752 11.423 207.752 11.2537V10.0691H218.557V32.9999H215.579C215.834 31.9845 217.11 26.823 217.195 26.5691C217.195 26.3999 217.195 26.3153 217.11 26.3153L216.6 26.1461C216.43 26.0614 216.43 26.1461 216.345 26.3153C215.919 27.5845 213.877 31.4768 212.006 31.8153C210.985 31.9845 205.455 31.8999 204.689 31.8153C204.604 30.4614 204.604 23.4384 204.604 22.8461V19.8845H204.689ZM203.413 35.1153H203.839C204.264 35.1153 204.434 35.4538 204.094 35.8768C203.839 36.2999 197.798 43.9153 197.118 44.423C196.692 44.7614 196.863 44.6768 196.352 44.6768H195.927V43.2384C195.927 41.6307 196.012 36.6384 196.012 36.1307C196.012 35.3691 196.097 35.1153 196.692 35.1153H198.054C198.224 35.1153 198.309 35.0307 198.309 34.8614V34.0153H203.158V34.7768C203.243 35.0307 203.243 35.1153 203.413 35.1153ZM197.628 10.0691V11.1691C197.628 11.3384 197.628 11.5076 197.883 11.5076H199.415C200.436 11.5076 200.606 11.3384 200.606 12.1845C200.606 12.7768 200.691 16.2461 200.691 18.3614V20.223C200.691 22.2538 200.606 30.3768 200.606 30.9691C200.606 31.3922 200.946 31.8153 199.755 31.8153H198.224C198.139 31.8153 198.139 31.8153 198.054 31.8153C198.054 31.8153 197.969 31.8153 197.883 31.8153H196.777C195.927 31.8153 195.671 31.3922 195.076 30.3768C194.651 29.4461 192.524 23.3538 191.758 20.8153C191.163 18.8691 188.951 12.7768 188.185 10.2384H197.628V10.0691ZM185.803 13.5384C185.973 14.0461 188.27 21.6614 188.61 22.5922H182.06C182.315 21.7461 185.122 13.9614 185.292 13.5384C185.377 13.2845 185.548 13.0307 185.633 13.0307C185.633 13.1153 185.718 13.3691 185.803 13.5384ZM160.366 19.7153C160.366 19.2922 160.451 12.6076 160.451 12.2691C160.451 11.5922 160.961 11.3384 161.642 11.3384H163.173C163.343 11.3384 163.428 11.2537 163.428 11.0845V9.98452H185.463C185.037 10.2384 184.527 10.4076 184.101 10.4922C183.846 10.5768 183.846 10.6614 183.846 10.7461C183.846 10.9153 184.016 10.9999 184.101 11.1691C184.357 11.5076 184.186 11.9307 184.101 12.2691C183.846 13.1153 181.209 20.223 180.954 20.8153C180.018 23.523 177.636 29.5307 177.466 30.0384C177.04 31.0538 176.53 31.5614 175.594 31.5614H174.488C174.318 31.5614 174.233 31.6461 174.233 31.8153V32.5768C174.233 32.6614 174.233 32.7461 174.318 32.7461H163.769C163.854 32.7461 163.854 32.6614 163.854 32.5768V31.7307C163.854 31.5614 163.769 31.4768 163.598 31.4768H162.237C161.216 31.4768 160.706 31.3076 160.706 30.2922C160.706 29.9538 160.621 22.3384 160.621 21.9999V19.7153H160.366ZM158.239 35.1153H159.004C159.26 35.1153 159.26 35.0307 159.26 34.9461V34.1845H170.149V34.9461C170.149 35.1153 170.149 35.1999 170.319 35.1999H171.595C172.361 35.1999 172.786 35.7076 172.786 36.8076C172.786 37.7384 172.786 39.7691 172.786 42.1384V45.2691C172.786 48.3153 172.786 51.2768 172.701 54.4922C172.701 55.3384 172.191 55.5922 171.425 55.5922H170.149C169.979 55.5922 169.979 55.6768 169.979 55.8461V56.4384H163.769C166.236 56.0999 168.107 54.9153 169.298 53.3076C170.489 51.6999 171 50.0076 171 48.3999C171 45.2691 169.554 43.0691 167.852 41.7153C166.066 40.1922 163.939 39.9384 162.492 39.9384C160.621 39.9384 158.069 40.4461 156.112 42.8153C154.325 44.9307 153.985 47.0461 153.985 48.3999C153.985 51.6999 155.686 54.0691 157.303 55.0845C158.664 55.9307 160.195 56.2691 161.386 56.4384H149.476C149.561 56.2691 149.646 56.0999 149.731 55.8461C150.327 54.4076 156.707 36.4691 156.877 36.0461C157.303 35.4538 157.728 35.1153 158.239 35.1153ZM162.663 55.5076C160.706 55.5076 156.963 53.3922 156.963 47.5538C156.963 45.6922 157.303 43.8307 158.834 42.3922C160.536 40.7845 162.067 41.0384 162.407 41.0384C164.96 41.0384 168.107 43.5768 168.107 48.4845C168.192 50.4307 167.682 55.5076 162.663 55.5076ZM148.455 20.8153C148.455 18.6999 148.71 15.3999 148.795 13.1999C148.88 11.9307 149.051 11.3384 149.986 11.3384H150.922C151.092 11.3384 151.092 11.2537 151.092 11.0845V10.2384C151.092 10.1537 150.922 10.0691 150.837 9.98452H152.879V11.0845C152.879 11.2537 152.964 11.2537 153.134 11.2537H155.091C156.367 11.2537 156.282 11.5922 156.367 12.3538C156.367 12.8614 156.537 18.1922 156.537 19.0384V21.323C156.537 23.0999 156.452 30.123 156.367 30.6307C156.197 31.4768 155.942 31.5614 155.261 31.5614H153.389C153.219 31.5614 153.134 31.6461 153.134 31.7307V32.5768C153.134 32.6614 153.134 32.6614 153.219 32.7461H148.37L148.455 20.8153ZM147.519 34.8614V34.0999H152.709V34.7768C152.709 34.9461 152.709 35.0307 152.964 35.0307H153.815C154.666 35.0307 154.836 35.4538 154.836 35.9614C154.836 37.6538 150.667 49.5845 150.327 50.5153H150.242L145.818 36.2153C145.648 35.7076 145.392 35.0307 146.158 35.0307H147.349C147.519 35.1153 147.519 35.0307 147.519 34.8614ZM143.521 10.0691C143.521 10.0691 143.436 10.1537 143.436 10.2384V11.0845C143.436 11.2537 143.521 11.3384 143.606 11.3384H144.712C145.648 11.3384 146.243 11.7614 146.583 12.6076C146.754 13.1999 146.924 16.4153 147.009 17.6845C147.094 19.3768 147.094 20.9845 147.094 23.9461V27.4153C145.563 25.4691 141.054 19.9691 140.713 19.5461C140.373 19.123 133.907 10.7461 133.737 10.4922C133.567 10.2384 133.057 10.1537 132.631 10.0691H143.521ZM138.076 22.5076C138.246 22.6768 140.713 25.723 143.01 28.6845C144.542 30.5461 146.073 32.1538 146.839 32.9999H134.503C134.503 32.9999 134.503 32.9999 134.503 32.9153V32.1538C134.503 31.9845 134.503 31.8153 134.248 31.8153H133.227C132.291 31.8153 131.951 31.7307 131.78 30.4614C131.695 29.7845 131.27 24.3691 131.27 21.323L131.355 14.3845L131.27 14.2153C131.525 14.4691 137.736 22.1691 138.076 22.5076ZM126.421 10.0691C126.421 10.0691 126.421 10.1537 126.421 10.2384V11.3384C126.421 11.423 126.421 11.5922 126.591 11.5922H127.952C129.143 11.5922 130.164 12.4384 130.164 14.3845V20.0538C130.164 25.9768 129.994 29.6999 129.909 30.2922C129.739 31.8999 129.483 31.8999 128.548 31.8999H128.377C128.377 31.8153 128.292 31.7307 128.122 31.7307H127.016C126.166 31.7307 125.91 31.3076 125.315 30.2922C124.889 29.3614 122.763 23.2691 121.997 20.7307C121.401 18.7845 119.189 12.6922 118.424 10.1537H126.421V10.0691ZM115.957 13.5384C116.127 14.0461 118.424 21.6614 118.764 22.5922H112.213C112.468 21.7461 115.276 13.9614 115.446 13.5384C115.531 13.2845 115.701 13.0307 115.786 13.0307C115.871 13.1153 115.871 13.3691 115.957 13.5384ZM100.983 11.423H101.324C102.94 11.423 105.918 11.5076 106.854 11.9307C107.874 12.4384 108.895 14.8922 109.151 15.4845C109.236 15.7384 109.321 15.7384 109.406 15.7384L110.342 15.5691C110.512 15.5691 110.597 15.4845 110.512 15.3153C110.257 14.1307 109.831 11.0845 109.661 9.98452H115.531C115.106 10.2384 114.595 10.4076 114.17 10.4922C113.915 10.5768 113.915 10.6614 113.915 10.7461C113.915 10.9153 114.085 10.9999 114.17 11.1691C114.425 11.5076 114.255 11.9307 114.17 12.2691C113.915 13.1153 111.277 20.223 111.022 20.8153C110.086 23.523 107.704 29.5307 107.534 30.0384C107.109 31.0538 106.598 31.5614 105.663 31.5614H104.557C104.471 31.5614 104.471 31.5614 104.386 31.5614H101.579C100.813 31.5614 101.069 31.0538 100.983 30.2922C100.983 29.7845 100.983 20.8153 100.983 20.3922V11.423ZM97.4954 35.0307H98.6864C99.8775 35.0307 100.048 35.2845 100.133 36.2999C100.133 36.6384 100.218 40.6999 100.218 43.4076V54.323C100.218 55.5076 100.303 55.5076 98.7715 55.5076H97.4954C97.2401 55.5076 97.1551 55.5076 97.1551 55.6768V56.2691H89.6685V55.6768C89.6685 55.5076 89.6685 55.423 89.4133 55.423H87.7118C87.0312 55.423 86.6909 55.0845 86.6058 54.4076C86.6058 53.9845 86.5207 49.5845 86.5207 48.0614L86.6058 46.623C87.6267 46.7922 88.5625 46.7922 89.7536 46.7922C94.8581 46.7922 97.9207 44.2538 97.9207 40.2768C97.9207 38.4153 96.8998 36.3845 95.3685 35.3691C94.5178 34.7768 93.667 34.3538 92.6461 34.1845H97.1551V34.8614C97.2401 34.9461 97.3252 35.0307 97.4954 35.0307ZM86.6909 45.2691V35.0307C87.3715 34.7768 88.2222 34.9461 88.7327 34.9461C90.6043 34.9461 93.667 35.8768 93.667 40.1076C93.667 41.2076 93.4969 42.3922 92.8163 43.323C91.9655 44.423 91.1999 45.523 89.2431 45.523C87.967 45.523 87.2864 45.4384 86.6909 45.2691ZM91.6252 11.8461C92.9013 11.423 95.7088 11.423 96.7297 11.423H96.9849V19.6307C96.9849 20.223 96.9849 30.0384 96.8998 30.9691C96.8998 31.3922 96.9849 31.7307 96.3894 31.7307H94.1775C94.0073 31.7307 93.9222 31.8153 93.9222 32.0691V32.6614C93.9222 32.7461 93.9222 32.9153 94.0073 32.9153H80.9058C83.9685 32.4076 86.1804 30.9691 87.7118 28.9384C89.3282 26.7384 90.179 24.1153 90.179 21.8307C90.179 19.3768 89.4133 17.2614 88.3924 15.5691L88.5625 15.6538C88.7327 15.6538 88.8178 15.6537 88.9028 15.4845C89.2431 14.4691 90.1789 12.2691 91.6252 11.8461ZM88.8178 10.0691C88.5625 11.1691 87.967 13.3691 87.6267 14.5538C87.0312 13.7922 86.3506 13.0307 85.67 12.523C83.5431 10.7461 81.4163 10.2384 79.6297 10.0691H88.8178ZM78.0133 11.6768C81.5013 11.6768 85.8401 15.1461 85.8401 22.0845C85.8401 24.8768 85.5849 31.9845 78.6939 31.9845C76.0566 31.9845 71.1222 29.1922 71.1222 20.9845C71.1222 18.4461 71.6327 15.823 73.7595 13.7922C76.0566 11.5076 77.5879 11.6768 78.0133 11.6768ZM77.5028 10.0691C75.1207 10.2384 72.3984 11.0845 70.0163 14.0461C67.5491 16.923 66.9536 19.9691 66.9536 21.9153C66.9536 26.4845 69.4207 29.9538 71.6327 31.3076C73.164 32.2384 74.8655 32.7461 76.2267 32.9999H59.8073C61.679 32.9153 63.0401 32.6614 64.061 31.9845C65.5924 31.0538 66.4431 28.5999 66.4431 26.9922C66.4431 23.523 64.3163 21.5768 61.0834 20.5614L60.9984 20.4768C63.5506 19.123 64.9969 18.3614 64.9969 15.1461C64.9969 13.1999 64.3163 11.7614 62.4446 10.7461C61.9342 10.4076 61.1685 10.2384 60.3178 10.0691H77.5028ZM54.2775 17.6845C54.2775 14.9768 54.3625 12.6922 54.3625 12.0153C54.3625 11.7614 54.4476 11.423 54.7028 11.423C54.9581 11.3384 55.2984 11.423 55.8088 11.423C57.5103 11.423 58.7864 11.5076 59.8073 12.523C60.8282 13.5384 61.0834 14.2153 61.0834 15.3999C61.0834 16.8384 60.9133 18.2768 59.5521 19.2922C58.7864 19.8845 57.8506 20.1384 55.979 20.1384C55.3834 20.1384 54.9581 20.1384 54.3625 20.1384L54.2775 17.6845ZM51.8954 35.7076C51.8954 36.0461 51.9804 39.5153 51.9804 41.6307V45.3538C51.9804 49.0768 51.8954 54.0691 51.8103 54.4076C51.7252 55.2538 51.47 55.423 50.364 55.423H49.0028C48.8327 55.423 48.8327 55.5076 48.8327 55.6768V56.2691H43.2178C43.7282 52.7999 43.3879 37.1461 43.3879 37.1461C43.473 36.4691 43.473 35.3691 43.5581 34.0999H48.6625V34.6922C48.6625 34.8614 48.6625 34.9461 48.8327 34.9461H50.7043C51.5551 35.0307 51.8954 35.0307 51.8954 35.7076ZM47.3864 10.0691C47.3013 10.1537 47.3013 10.323 47.3013 10.4076V11.2537C47.3013 11.423 47.3864 11.5076 47.5566 11.5076H48.4924C50.0237 11.5076 50.1088 11.1691 50.1939 13.0307C50.1939 13.623 50.2789 17.5999 50.2789 18.7845V22.5922C50.2789 25.2153 50.1939 29.5307 50.1088 30.2922C49.9387 31.3076 50.364 31.7307 49.3431 31.7307L47.6416 31.8153C47.3864 31.8153 47.3864 31.8999 47.3864 32.0691V32.9153V32.9999H43.5581C43.6431 28.0922 43.6431 21.2384 43.6431 21.2384C44.579 18.8691 43.6431 16.923 43.6431 16.923V10.0691H47.3864ZM39.2192 13.623C39.2192 13.623 41.176 12.9461 41.9416 12.6922C41.9416 12.6922 42.7073 12.3537 42.7924 12.0153C42.7924 12.0153 42.8775 11.6768 42.6222 11.7614C42.6222 11.7614 42.2819 12.0999 42.1118 12.0999C42.1118 12.0999 41.7715 12.3538 41.6864 11.9307C41.6864 11.9307 42.0267 11.0845 43.3879 11.3384C43.3879 11.3384 43.9834 11.6768 43.3879 13.0307C43.3879 13.0307 43.0476 14.2153 39.8148 14.9768C39.8148 14.9768 38.964 15.3153 38.7088 15.823C38.7088 15.823 38.4536 14.8076 39.1342 14.2999C38.964 14.2999 38.6237 13.7922 39.2192 13.623ZM37.2625 12.7768C37.3476 12.6922 37.4327 13.1999 37.4327 13.1999C37.4327 13.7076 37.9431 14.2999 37.9431 14.2999C38.2834 15.3153 37.9431 16.1614 37.9431 16.1614C37.8581 16.7538 37.773 16.4999 37.773 16.4999V15.9076C37.6879 15.3999 37.5178 15.823 37.5178 15.823C37.5178 16.2461 37.4327 17.1768 37.4327 17.1768C37.4327 17.7691 37.0924 17.5999 37.0924 17.5999C36.7521 17.4307 36.9222 15.823 36.9222 15.823C36.9222 14.9768 36.5819 15.5691 36.5819 15.5691C36.667 15.9922 36.4969 15.9922 36.4969 15.9922C35.6461 13.3691 37.2625 12.7768 37.2625 12.7768ZM30.967 11.0845C30.967 11.0845 32.073 10.9999 32.5834 12.1845C32.5834 12.1845 32.6685 12.4384 32.2431 12.3538C32.2431 12.3538 31.7327 12.3537 31.4775 12.0153C31.4775 12.0153 31.1372 12.0153 31.3073 12.3538C31.3073 12.3538 31.4775 12.8614 32.8387 12.9461C32.8387 12.9461 35.3909 12.6076 35.7312 14.3845C35.7312 14.3845 35.7312 14.6384 35.3058 14.2153C35.3058 14.2153 34.8804 13.623 34.1148 13.4537C34.1148 13.4537 33.7745 13.4537 34.0297 13.8768C34.0297 13.8768 34.1148 13.9614 34.37 13.9614C34.37 13.9614 35.6461 14.2999 35.9013 15.6538C35.9013 15.6538 35.3909 14.8922 33.3491 14.6384C33.3491 14.6384 30.967 14.6384 30.4566 12.9461C30.4566 12.8614 30.0312 11.423 30.967 11.0845ZM30.7118 14.4691C30.6267 14.9768 30.8819 15.5691 30.8819 15.5691C31.2222 16.3307 30.6267 16.3307 30.6267 16.3307C30.7118 14.723 29.776 13.2845 29.776 13.2845C30.5416 12.7768 30.7118 14.4691 30.7118 14.4691ZM29.861 11.9307C30.1163 12.523 29.861 13.1153 29.861 13.1153C29.6909 12.523 28.2446 10.8307 28.2446 10.8307C28.9252 10.8307 29.861 11.9307 29.861 11.9307ZM27.9043 10.9999C30.4566 13.9614 30.2864 15.3999 30.2864 15.3999C30.1163 17.9384 29.0103 17.6845 29.0103 17.6845C26.373 16.6691 27.9043 10.9999 27.9043 10.9999ZM26.9685 11.6768L27.7342 28.0922C27.9043 28.6845 27.6491 28.5153 27.6491 28.5153C27.3088 28.2614 27.2237 26.9922 27.2237 26.9922C26.6282 27.4153 25.8625 27.0768 25.8625 27.0768L25.5222 28.2614C25.3521 28.6845 25.267 28.4307 25.267 28.4307L26.7984 11.5922C26.8834 11.423 26.9685 11.6768 26.9685 11.6768ZM25.4372 17.5999C25.8625 18.4461 25.5222 19.0384 25.5222 19.0384C25.0118 18.3614 25.4372 17.5999 25.4372 17.5999ZM25.6924 10.7461C26.4581 10.8307 26.2879 12.1845 26.2879 12.1845C26.4581 14.6384 25.1819 17.0922 25.1819 17.0922C24.5013 17.4307 24.4163 16.923 24.4163 16.923C24.076 16.3307 23.3103 15.9076 23.3103 15.9076C23.5655 15.9076 23.6506 15.5691 23.6506 15.5691C23.7357 15.3153 24.076 13.1999 24.076 13.1999C24.6715 10.8307 25.6924 10.7461 25.6924 10.7461ZM19.8222 12.4384C20.7581 12.2691 21.5237 12.0153 21.5237 12.0153C22.5446 11.7614 22.4595 11.0845 22.4595 11.0845C22.5446 10.5768 23.6506 10.6614 24.076 10.9153C24.4163 11.0845 24.4163 11.2537 24.4163 11.2537C23.9058 14.0461 20.8431 13.7076 20.8431 13.7076C19.2267 13.4538 18.8864 14.3845 18.8864 14.3845C18.7163 14.723 18.6312 14.4691 18.6312 14.4691C18.5461 13.623 19.6521 13.1999 19.6521 13.1999C19.9924 13.0307 19.7372 12.9461 19.7372 12.9461C19.4819 12.9461 18.9715 13.1999 18.9715 13.1999C18.8013 13.4538 18.6312 13.3691 18.6312 13.3691C18.6312 12.6076 19.8222 12.4384 19.8222 12.4384ZM18.461 15.9922C19.3118 15.9922 18.9715 16.3307 18.9715 16.3307C18.2058 16.7537 18.1207 18.2768 18.1207 18.2768C18.1207 19.2076 17.27 19.9691 17.27 19.9691C17.3551 21.6614 16.5894 21.5768 16.5894 21.5768C15.9939 21.4076 16.5043 20.223 16.5043 20.223C16.6745 19.7999 16.3342 19.8845 16.3342 19.8845C15.7387 20.0538 15.9939 19.2922 15.9939 19.2922C16.2491 19.2076 16.164 18.8691 16.164 18.8691C15.7387 18.5307 15.9939 17.0076 15.9939 17.0076C16.079 16.2461 15.6536 16.1614 15.6536 16.1614C15.4834 15.9076 15.8237 15.823 15.8237 15.823C17.27 15.9922 17.0998 17.4307 17.0998 17.4307C17.1849 17.8538 17.4401 17.6845 17.4401 17.6845C17.7804 15.9076 18.461 15.9922 18.461 15.9922ZM17.27 11.9307C17.1849 12.3538 17.9506 12.9461 17.9506 12.9461C18.6312 13.7076 17.9506 15.6538 17.9506 15.6538C17.3551 15.9922 17.27 16.6691 17.27 16.6691C16.8446 16.4999 16.7595 15.9922 16.7595 15.9922C16.8446 15.2307 16.4192 13.9614 16.4192 13.9614C16.2491 12.3537 17.27 11.9307 17.27 11.9307ZM16.3342 14.723C16.6745 15.7384 16.2491 15.823 16.2491 15.823C15.8237 15.7384 15.9939 14.723 15.9939 14.723C16.164 14.4691 16.3342 14.723 16.3342 14.723ZM10.9745 11.3384C10.9745 11.3384 11.3148 10.4076 12.676 11.0845C12.676 11.0845 13.1864 11.2537 13.1864 11.7614C13.1864 11.7614 12.676 11.6768 12.3357 11.5076C12.3357 11.5076 11.8252 11.5922 12.4207 12.0999C12.4207 12.0999 13.1864 12.4384 14.2924 12.3538C14.2924 12.3538 16.3342 12.2691 16.3342 14.5538C16.3342 14.5538 16.2491 14.8076 16.079 14.2153C16.079 14.2153 15.6536 13.4537 14.8879 13.0307C14.8879 13.0307 14.3775 12.9461 14.5476 13.3691C14.5476 13.3691 15.5685 13.7076 15.8237 14.4691C15.8237 14.4691 15.5685 14.723 15.2282 14.3845C15.2282 14.3845 14.7178 14.0461 13.7819 13.7922C13.7819 13.7922 12.761 13.8768 12.0804 13.1999C11.9103 13.1153 10.6342 12.2691 10.9745 11.3384ZM10.2088 10.6614C10.2088 10.6614 10.6342 10.9999 10.5491 11.9307C10.5491 11.9307 10.7192 12.4384 10.9745 12.523C10.9745 12.523 12.0804 13.2845 12.1655 14.4691C12.1655 14.4691 11.1446 14.6384 11.0595 14.9768C11.0595 14.9768 10.7192 15.2307 10.5491 14.4691C10.5491 14.4691 10.2088 11.5922 10.0387 11.3384C10.1237 11.3384 9.69835 10.7461 10.2088 10.6614ZM9.69835 17.0922C10.464 14.4691 13.1013 14.8922 13.1013 14.8922C13.7819 15.1461 13.2715 15.3153 13.2715 15.3153C12.8461 15.9076 13.4416 15.7384 13.4416 15.7384C14.0372 14.9768 15.3133 15.4845 15.3133 15.4845L15.0581 15.823C14.0372 16.5845 14.3775 17.6845 14.3775 17.6845C14.4625 18.2768 14.5476 19.5461 14.5476 19.5461C14.4625 20.8999 13.7819 20.8153 13.7819 20.8153C9.8685 20.8999 9.69835 19.7999 9.69835 19.7999C9.35806 18.8691 9.69835 17.0922 9.69835 17.0922ZM171.17 27.6691C174.488 27.6691 176.7 25.8076 178.146 23.7768C178.231 23.6922 178.231 23.2691 178.146 23.1845L177.806 22.9307C177.721 22.8461 177.721 22.8461 177.636 23.0153C176.53 24.5384 174.488 25.9768 171.851 25.9768C170.319 25.9768 169.469 25.8076 167.937 24.0307C166.151 21.9999 165.725 19.3768 165.725 18.023C165.725 14.6384 167.427 11.423 171.595 11.423C173.467 11.423 173.977 11.8461 174.998 12.8614C176.019 13.8768 176.785 15.2307 177.04 15.9922C177.125 16.1614 177.125 16.1614 177.295 16.1614L177.636 16.0768C177.721 16.0768 177.721 15.9922 177.721 15.823C177.636 15.1461 177.04 11.3384 177.04 10.9153C177.04 10.5768 176.955 10.5768 176.785 10.5768C176.615 10.5768 176.53 10.5768 176.445 10.7461L176.274 11.423C176.189 11.5922 176.104 11.5922 175.849 11.423C174.998 10.9153 173.212 10.1537 171.085 10.1537C168.533 10.1537 166.406 11.2537 165.215 12.523C163.513 14.2999 162.577 16.5845 162.577 18.6999C162.577 20.8999 163.598 23.9461 165.215 25.5538C166.661 26.823 168.448 27.6691 171.17 27.6691ZM161.301 48.3153L162.918 50.0922L164.449 48.3153L162.833 46.4538L161.301 48.3153ZM80.3954 21.9999L78.1834 19.4614L75.9715 21.9153L78.1834 24.4538L80.3954 21.9999Z" fill="#231F1B"/>
</svg>
