<svg width="297" height="59" viewBox="0 0 297 59" fill="none" xmlns="http://www.w3.org/2000/svg">
<path d="M68.7 2.5H67.5V55.7H68.7V2.5Z" fill="#231F1B"/>
<path d="M87.9001 8.2H86.7001V2H84.6001V1H90.0001V2H87.9001V8.2Z" fill="#231F1B"/>
<path d="M95.6001 8.2H91.6001V1H95.6001V2H92.7001V4H95.4001V5H92.7001V7.2H95.6001V8.2Z" fill="#231F1B"/>
<path d="M102.9 8.2H101.6L99.7998 5.3L97.9998 8.2H96.7998L99.1998 4.5L96.8998 1H98.1998L99.8998 3.7L101.5 1H102.8L100.6 4.4L102.9 8.2Z" fill="#231F1B"/>
<path d="M108.8 8.2L108.1 6.2H105.4L104.7 8.2H103.5L106.2 1H107.5L110.2 8.2H108.8ZM107.8 5.2L107.1 3.2C107.1 3.1 107 2.9 106.9 2.6C106.8 2.3 106.7 2.1 106.7 2C106.6 2.4 106.5 2.8 106.3 3.3L105.6 5.2H107.8Z" fill="#231F1B"/>
<path d="M115.6 6.20009C115.6 6.80009 115.4 7.30009 114.9 7.70009C114.3 8.10009 113.7 8.30009 113 8.20009C112.3 8.20009 111.6 8.10009 111 7.80009V6.80009C111.3 7.00009 111.7 7.10009 112 7.20009C112.3 7.30009 112.7 7.30009 113 7.30009C113.4 7.30009 113.7 7.20009 114 7.00009C114.2 6.80009 114.3 6.60009 114.3 6.30009C114.3 6.00009 114.2 5.80009 114 5.60009C113.7 5.30009 113.3 5.10009 112.9 5.00009C112.4 4.80009 111.9 4.50009 111.5 4.10009C111.2 3.80009 111.1 3.30009 111.1 2.90009C111.1 2.40009 111.3 1.80009 111.7 1.50009C112.2 1.10009 112.8 0.900093 113.4 1.00009C114.1 1.00009 114.8 1.20009 115.4 1.40009L115 2.40009C114.6 2.20009 114 2.00009 113.4 2.00009C113.1 2.00009 112.8 2.10009 112.5 2.20009C112.3 2.40009 112.2 2.60009 112.2 2.90009C112.2 3.10009 112.2 3.20009 112.3 3.40009C112.4 3.50009 112.5 3.70009 112.7 3.80009C113 4.00009 113.4 4.10009 113.7 4.30009C114.1 4.50009 114.5 4.70009 114.9 4.90009C115.1 5.10009 115.3 5.30009 115.4 5.50009C115.6 5.70009 115.6 6.00009 115.6 6.20009Z" fill="#231F1B"/>
<path d="M125 8.2L124.3 6.2H121.6L120.9 8.2H119.7L122.4 1H123.7L126.4 8.2H125ZM124 5.2L123.3 3.2C123.3 3.1 123.2 2.9 123.1 2.6C123 2.3 123 2.1 123 2C122.9 2.4 122.8 2.9 122.6 3.3L122 5.2H124Z" fill="#231F1B"/>
<path d="M127.2 6.30004C127.2 5.90004 127.3 5.50004 127.5 5.20004C127.8 4.80004 128.2 4.40004 128.6 4.20004C128.3 3.90004 128.1 3.60004 128 3.30004C127.9 3.10004 127.8 2.80004 127.8 2.50004C127.8 2.00004 128 1.60004 128.3 1.30004C128.7 1.00004 129.2 0.800036 129.7 0.900036C130.2 0.900036 130.7 1.00004 131.1 1.30004C131.4 1.60004 131.6 2.00004 131.6 2.40004C131.6 2.80004 131.5 3.10004 131.3 3.40004C131 3.80004 130.6 4.10004 130.2 4.30004L132 6.00004C132.3 5.50004 132.5 5.00004 132.7 4.50004H133.9C133.7 5.30004 133.3 6.10004 132.8 6.80004L134.3 8.20004H132.8L132 7.40004C131.7 7.70004 131.3 7.90004 130.9 8.00004C130.5 8.10004 130.1 8.20004 129.7 8.20004C129.1 8.20004 128.4 8.00004 127.9 7.70004C127.5 7.40004 127.2 6.80004 127.2 6.30004ZM129.7 7.30004C130.3 7.30004 130.8 7.10004 131.2 6.80004L129.3 5.00004C129 5.20004 128.8 5.40004 128.6 5.60004C128.5 5.80004 128.4 6.00004 128.4 6.30004C128.4 6.60004 128.5 6.90004 128.7 7.10004C129 7.20004 129.4 7.30004 129.7 7.30004ZM129 2.60004C129 2.80004 129.1 3.00004 129.2 3.20004C129.3 3.40004 129.5 3.60004 129.7 3.80004C130 3.70004 130.3 3.50004 130.5 3.20004C130.6 3.00004 130.7 2.80004 130.7 2.60004C130.7 2.40004 130.6 2.20004 130.5 2.10004C130.3 2.00004 130.1 1.90004 129.9 1.90004C129.7 1.90004 129.5 2.00004 129.3 2.10004C129.1 2.20004 129 2.40004 129 2.60004Z" fill="#231F1B"/>
<path d="M138.7 8.2L136.6 2.2C136.7 3.1 136.7 3.9 136.7 4.7V8.2H135.6V1H137.2L139.2 6.7L141.2 1H142.9V8.2H141.8V4.6C141.8 4.3 141.8 3.8 141.8 3.2C141.8 2.6 141.8 2.3 141.8 2.2L139.7 8.1L138.7 8.2Z" fill="#231F1B"/>
<path d="M154.1 1V5.7C154.1 6.2 154 6.6 153.8 7C153.6 7.4 153.2 7.7 152.8 7.9C152.3 8.1 151.8 8.2 151.3 8.2C150.5 8.2 149.8 8 149.2 7.5C148.7 7 148.4 6.3 148.5 5.6V1H149.7V5.6C149.7 6.1 149.8 6.5 150.1 6.9C150.4 7.2 150.9 7.4 151.4 7.3C152.5 7.3 153 6.7 153 5.6V1H154.1Z" fill="#231F1B"/>
<path d="M162.3 8.2H160.9L157.4 2.5V2.8C157.4 3.4 157.5 4 157.5 4.5V8.2H156.4V1H157.8L161.3 6.7C161.3 6.6 161.3 6.4 161.3 5.9C161.3 5.4 161.3 5.1 161.3 4.8V1H162.4L162.3 8.2Z" fill="#231F1B"/>
<path d="M164.7 8.2V1H165.9V8.2H164.7Z" fill="#231F1B"/>
<path d="M172.3 1H173.5L171 8.2H169.8L167.3 1H168.5L170 5.5C170.1 5.7 170.2 6 170.2 6.3C170.3 6.5 170.3 6.8 170.4 7.1C170.5 6.9 170.5 6.6 170.6 6.2C170.7 5.8 170.8 5.6 170.8 5.5L172.3 1Z" fill="#231F1B"/>
<path d="M179 8.2H175V1H179V2H176.1V4H178.8V5H176.1V7.2H179V8.2Z" fill="#231F1B"/>
<path d="M182.2 5.30009V8.10009H181V1.00009H183C183.7 0.900093 184.4 1.10009 185.1 1.50009C185.6 1.90009 185.8 2.50009 185.8 3.10009C185.8 4.00009 185.3 4.80009 184.4 5.00009L186.4 8.20009H185.1L183.4 5.40009L182.2 5.30009ZM182.2 4.30009H183C183.4 4.30009 183.8 4.20009 184.2 4.00009C184.5 3.80009 184.6 3.40009 184.6 3.10009C184.6 2.80009 184.5 2.40009 184.2 2.20009C183.8 2.10009 183.4 2.00009 183 2.00009H182.2V4.30009Z" fill="#231F1B"/>
<path d="M192.1 6.20009C192.1 6.80009 191.9 7.30009 191.4 7.70009C190.8 8.10009 190.2 8.30009 189.5 8.20009C188.8 8.20009 188.1 8.10009 187.5 7.80009V6.80009C187.8 7.00009 188.2 7.10009 188.5 7.20009C188.8 7.30009 189.2 7.30009 189.5 7.30009C189.9 7.30009 190.2 7.20009 190.5 7.00009C190.7 6.80009 190.8 6.60009 190.8 6.30009C190.8 6.00009 190.7 5.80009 190.5 5.60009C190.2 5.30009 189.8 5.10009 189.3 5.00009C188.8 4.80009 188.3 4.50009 187.9 4.10009C187.6 3.80009 187.5 3.30009 187.5 2.90009C187.5 2.40009 187.7 1.80009 188.1 1.50009C188.6 1.10009 189.2 0.900093 189.8 1.00009C190.5 1.00009 191.2 1.20009 191.8 1.40009L191.4 2.40009C191 2.10009 190.5 2.00009 189.9 2.00009C189.6 2.00009 189.3 2.10009 189 2.20009C188.8 2.40009 188.7 2.60009 188.7 2.90009C188.7 3.10009 188.7 3.20009 188.8 3.40009C188.9 3.50009 189 3.70009 189.2 3.80009C189.5 4.00009 189.9 4.10009 190.2 4.30009C190.6 4.50009 191 4.70009 191.4 4.90009C191.6 5.10009 191.8 5.30009 191.9 5.50009C192 5.70009 192.1 6.00009 192.1 6.20009Z" fill="#231F1B"/>
<path d="M194 8.2V1H195.2V8.2H194Z" fill="#231F1B"/>
<path d="M200 8.2H198.8V2H196.7V1H202.1V2H200V8.2Z" fill="#231F1B"/>
<path d="M205.7 4.3L207.4 1H208.7L206.3 5.4V8.2H205.1V5.4L202.7 1H204L205.7 4.3Z" fill="#231F1B"/>
<path d="M96.7998 23.6001C96.8998 25.4001 96.2998 27.3001 94.9998 28.6001C93.5998 29.8001 91.7998 30.4001 89.8998 30.3001H86.2998V17.1001H90.2998C92.0998 17.0001 93.7998 17.6001 95.0998 18.8001C96.2998 20.1001 96.8998 21.8001 96.7998 23.6001ZM95.1998 23.6001C95.2998 22.2001 94.7998 20.8001 93.8998 19.7001C92.8998 18.8001 91.4998 18.3001 90.0998 18.4001H87.8998V29.0001H89.7998C91.2998 29.1001 92.7998 28.6001 93.8998 27.7001C94.7998 26.6001 95.2998 25.1001 95.1998 23.6001Z" fill="#231F1B"/>
<path d="M103.3 30.5C102 30.6 100.8 30.1 99.9 29.2001C99 28.2001 98.6 26.9 98.6 25.5C98.5 24.1 98.9 22.8001 99.8 21.7001C100.6 20.8001 101.7 20.3 103 20.3C104.1 20.3 105.2 20.7 105.9 21.5C106.6 22.4 107 23.5001 107 24.7001V25.6H100.2C100.2 26.6 100.5 27.5001 101.1 28.2001C101.7 28.8001 102.6 29.2001 103.4 29.1C104.5 29.1 105.5 28.9 106.5 28.4V29.7001C106 29.9001 105.5 30.1 105 30.2001C104.5 30.4001 103.9 30.5 103.3 30.5ZM102.9 21.5C102.2 21.5 101.5 21.8 101 22.3C100.5 22.9 100.2 23.7 100.2 24.4H105.3C105.3 23.6 105.1 22.9001 104.7 22.2001C104.3 21.7001 103.6 21.5 102.9 21.5Z" fill="#231F1B"/>
<path d="M113.7 30.5001C113.1 30.5001 112.5 30.4001 112 30.1001C111.5 29.9001 111 29.5001 110.6 29.0001H110.5C110.6 29.5001 110.6 30.1001 110.6 30.6001V34.6001H109.1V20.4001H110.3L110.5 21.8001H110.6C110.9 21.3001 111.4 20.9001 112 20.6001C112.5 20.4001 113.1 20.2001 113.8 20.2001C115 20.1001 116.1 20.6001 116.8 21.5001C117.6 22.6001 117.9 23.9001 117.9 25.3001C118 26.6001 117.6 28.0001 116.8 29.1001C116 30.0001 114.9 30.5001 113.7 30.5001ZM113.5 21.5001C112.7 21.4001 111.9 21.7001 111.3 22.3001C110.8 23.1001 110.5 24.0001 110.6 25.0001V25.3001C110.5 26.3001 110.8 27.4001 111.3 28.3001C111.9 28.9001 112.7 29.3001 113.5 29.2001C114.3 29.2001 115.1 28.9001 115.5 28.2001C116 27.3001 116.3 26.4001 116.2 25.3001C116.3 24.3001 116 23.3001 115.5 22.5001C115.1 21.9001 114.3 21.5001 113.5 21.5001Z" fill="#231F1B"/>
<path d="M126.1 30.3001L125.8 28.9001H125.7C125.3 29.4001 124.8 29.9001 124.2 30.1001C123.6 30.3001 123 30.4001 122.4 30.4001C121.6 30.5001 120.8 30.2001 120.1 29.6001C119.5 29.0001 119.2 28.3001 119.3 27.5001C119.3 25.5001 120.9 24.5001 124.1 24.4001L125.8 24.3001V23.7001C125.9 23.1001 125.7 22.5001 125.3 22.0001C124.9 21.6001 124.3 21.4001 123.7 21.5001C122.7 21.5001 121.8 21.8001 120.9 22.3001L120.4 21.2001C120.9 20.9001 121.4 20.7001 122 20.6001C122.6 20.5001 123.2 20.4001 123.7 20.4001C124.6 20.3001 125.6 20.6001 126.3 21.2001C126.9 21.9001 127.2 22.8001 127.1 23.7001V30.4001H126.1V30.3001ZM122.8 29.2001C123.6 29.2001 124.4 29.0001 125 28.4001C125.6 27.8001 125.8 27.1001 125.8 26.3001V25.4001L124.3 25.5001C123.4 25.5001 122.5 25.7001 121.7 26.0001C121.2 26.3001 120.9 26.9001 120.9 27.5001C120.9 28.0001 121 28.4001 121.4 28.7001C121.8 29.1001 122.3 29.3001 122.8 29.2001Z" fill="#231F1B"/>
<path d="M134.5 20.2C134.9 20.2 135.3 20.1999 135.7 20.2999L135.5 21.7C135.1 21.6 134.8 21.6 134.4 21.6C133.6 21.6 132.9 22 132.4 22.6C131.8 23.3 131.5 24.1 131.5 25V30.2999H130V20.4H131.2L131.4 22.2H131.5C131.8 21.6 132.3 21.1 132.8 20.7C133.3 20.4 133.9 20.3 134.5 20.2Z" fill="#231F1B"/>
<path d="M140.3 29.2001C140.6 29.2001 140.8 29.2001 141.1 29.1001C141.3 29.1001 141.5 29.0001 141.7 29.0001V30.1001C141.5 30.2001 141.2 30.3001 141 30.3001C140.7 30.3001 140.4 30.4001 140.1 30.4001C138.2 30.4001 137.2 29.4001 137.2 27.4001V21.5001H135.8V20.8001L137.2 20.2001L137.8 18.1001H138.7V20.4001H141.6V21.6001H138.7V27.4001C138.7 27.9001 138.8 28.4001 139.1 28.8001C139.5 29.1001 139.9 29.2001 140.3 29.2001Z" fill="#231F1B"/>
<path d="M155.9 30.3001V23.9001C156 23.3001 155.8 22.6001 155.4 22.1001C155 21.7001 154.4 21.5001 153.8 21.5001C153 21.4001 152.3 21.7001 151.7 22.3001C151.2 23.0001 151 23.9001 151 24.8001V30.3001H149.5V23.9001C149.5 23.3001 149.4 22.6001 149 22.1001C148.6 21.7001 148 21.5001 147.4 21.5001C146.6 21.5001 145.9 21.8001 145.4 22.3001C144.9 23.1001 144.7 24.1001 144.8 25.1001V30.3001H143.3V20.5001H144.5L144.7 21.9001H144.8C145.1 21.4001 145.4 21.0001 145.9 20.8001C146.4 20.5001 147 20.4001 147.6 20.4001C148.9 20.3001 150.1 20.9001 150.6 22.1001H150.7C151 21.6001 151.4 21.2001 152 20.9001C152.6 20.6001 153.2 20.4001 153.9 20.4001C154.8 20.3001 155.7 20.6001 156.4 21.3001C157 22.1001 157.3 23.1001 157.2 24.0001V30.4001H155.9V30.3001Z" fill="#231F1B"/>
<path d="M164.2 30.5C162.9 30.6 161.7 30.1 160.8 29.2001C159.9 28.2001 159.5 26.9 159.5 25.5C159.4 24.1 159.8 22.8001 160.7 21.7001C161.5 20.8001 162.6 20.3 163.8 20.3C164.9 20.3 166 20.7 166.7 21.5C167.5 22.4 167.8 23.5001 167.8 24.7001V25.6H161C161 26.6 161.3 27.5001 161.9 28.2001C162.5 28.8001 163.4 29.2001 164.2 29.1C165.3 29.1 166.3 28.9 167.3 28.4V29.7001C166.8 29.9001 166.3 30.1 165.8 30.2001C165.4 30.4001 164.8 30.5 164.2 30.5ZM163.9 21.5C163.2 21.5 162.5 21.8 162 22.3C161.5 22.9 161.2 23.7 161.2 24.4H166.3C166.4 23.6 166.1 22.9001 165.7 22.2001C165.2 21.7001 164.5 21.5 163.9 21.5Z" fill="#231F1B"/>
<path d="M176.8 30.3001V23.9001C176.8 23.3001 176.7 22.6001 176.2 22.1001C175.7 21.7001 175.1 21.5001 174.5 21.5001C173.7 21.4001 172.8 21.7001 172.2 22.3001C171.6 23.1001 171.4 24.1001 171.5 25.1001V30.3001H170V20.5001H171.2L171.4 21.9001H171.5C171.8 21.4001 172.3 21.0001 172.8 20.8001C173.4 20.5001 174 20.4001 174.6 20.4001C175.6 20.3001 176.5 20.6001 177.3 21.3001C178 22.1001 178.3 23.0001 178.2 24.0001V30.4001L176.8 30.3001Z" fill="#231F1B"/>
<path d="M184.2 29.2001C184.5 29.2001 184.7 29.2001 185 29.1001C185.2 29.1001 185.4 29.0001 185.6 29.0001V30.1001C185.4 30.2001 185.1 30.3001 184.9 30.3001C184.6 30.3001 184.3 30.4001 184 30.4001C182.1 30.4001 181.1 29.4001 181.1 27.4001V21.5001H179.7V20.8001L181.1 20.2001L181.7 18.1001H182.6V20.4001H185.5V21.6001H182.6V27.4001C182.6 27.9001 182.7 28.4001 183 28.8001C183.4 29.1001 183.8 29.2001 184.2 29.2001Z" fill="#231F1B"/>
<path d="M200.1 25.3C200.2 26.7 199.8 28 198.9 29.1C198 30 196.8 30.5 195.5 30.5C194.7 30.5 193.9 30.3 193.2 29.9C192.5 29.5 192 28.9 191.6 28.1C191.2 27.2 191 26.3 191 25.4C190.9 24 191.3 22.7 192.2 21.6C193.1 20.7 194.3 20.2 195.5 20.3C196.7 20.2 198 20.7 198.8 21.7C199.8 22.7 200.2 24 200.1 25.3ZM192.6 25.3C192.5 26.3 192.8 27.3 193.4 28.2C194.5 29.4 196.4 29.5 197.6 28.4C197.7 28.3 197.7 28.3 197.8 28.2C198.4 27.3 198.6 26.3 198.6 25.3C198.7 24.3 198.4 23.3 197.8 22.4C197.3 21.7 196.4 21.4 195.6 21.4C194.7 21.3 193.9 21.7 193.4 22.4C192.8 23.3 192.6 24.3 192.6 25.3Z" fill="#231F1B"/>
<path d="M206.9 21.6H204.4V30.3H202.9V21.6H201.1V20.9L202.9 20.4V19.9C202.9 17.5 204 16.3 206.1 16.3C206.7 16.3 207.3 16.4 207.9 16.6L207.5 17.8C207 17.6 206.5 17.5 206 17.5C205.5 17.5 205 17.7 204.8 18.1C204.5 18.6 204.3 19.3 204.4 19.9V20.5H206.9V21.6Z" fill="#231F1B"/>
<path d="M218.6 18.3001C217.3 18.2001 216 18.8001 215.2 19.7001C214.3 20.8001 213.9 22.2001 214 23.6001C213.9 25.0001 214.3 26.5001 215.2 27.6001C216.1 28.6001 217.3 29.1001 218.6 29.0001C219.7 29.0001 220.7 28.8001 221.7 28.5001V30.0001C220.6 30.4001 219.5 30.5001 218.3 30.5001C216.6 30.6001 215 30.0001 213.8 28.7001C212.7 27.3001 212.1 25.5001 212.2 23.7001C212.2 22.5001 212.4 21.3001 213 20.1001C213.5 19.1001 214.2 18.3001 215.2 17.7001C216.2 17.1001 217.4 16.8001 218.6 16.9001C219.8 16.9001 221.1 17.1001 222.2 17.7001L221.5 19.0001C220.7 18.6001 219.7 18.3001 218.6 18.3001Z" fill="#231F1B"/>
<path d="M232.5 25.3C232.6 26.7 232.1 28 231.3 29.1C230.4 30 229.2 30.5 228 30.5C227.2 30.5 226.4 30.3 225.7 29.9C225 29.5 224.5 28.9 224.1 28.1C223.7 27.2 223.5 26.3 223.5 25.4C223.4 24 223.8 22.7 224.7 21.6C225.5 20.7 226.7 20.2 228 20.3C229.2 20.2 230.4 20.8 231.3 21.7C232.2 22.7 232.6 24 232.5 25.3ZM225 25.3C224.9 26.3 225.2 27.3 225.8 28.2C226.9 29.4 228.8 29.5 230 28.4C230.1 28.3 230.1 28.3 230.2 28.2C230.8 27.4 231 26.3 231 25.3C231.1 24.3 230.8 23.3 230.2 22.4C229.1 21.2 227.2 21.1 226 22.2C225.9 22.3 225.9 22.3 225.8 22.4C225.2 23.3 224.9 24.3 225 25.3Z" fill="#231F1B"/>
<path d="M247.4 30.3001V23.9001C247.4 23.3001 247.3 22.6001 246.9 22.1001C246.5 21.7001 245.9 21.5001 245.3 21.5001C244.5 21.4001 243.8 21.7001 243.2 22.3001C242.7 23.0001 242.5 23.9001 242.5 24.8001V30.3001H241V23.9001C241 23.3001 240.9 22.6001 240.5 22.1001C240.1 21.7001 239.5 21.5001 238.9 21.5001C238.1 21.5001 237.4 21.8001 236.9 22.3001C236.4 23.1001 236.2 24.1001 236.3 25.1001V30.3001H234.8V20.5001H235.9L236.1 21.9001H236.2C236.5 21.4001 236.9 21.0001 237.4 20.8001C237.9 20.5001 238.5 20.4001 239.1 20.4001C240.4 20.2001 241.6 20.9001 242.1 22.1001H242.2C242.5 21.6001 242.9 21.2001 243.5 20.9001C244.1 20.6001 244.7 20.4001 245.4 20.4001C246.3 20.3001 247.2 20.6001 247.9 21.3001C248.5 22.1001 248.8 23.1001 248.7 24.0001V30.4001L247.4 30.3001Z" fill="#231F1B"/>
<path d="M256.2 30.5001C255.6 30.5001 255 30.4001 254.4 30.1001C253.9 29.9001 253.4 29.5001 253.1 29.0001H253C253.1 29.5001 253.1 30.1001 253.1 30.6001V34.6001H251.6V20.4001H252.8L253 21.8001H253.1C253.4 21.3001 253.9 20.9001 254.4 20.6001C255 20.4001 255.6 20.2001 256.2 20.2001C257.4 20.1001 258.5 20.6001 259.2 21.5001C260 22.6001 260.3 23.9001 260.3 25.3001C260.4 26.6001 260 28.0001 259.2 29.1001C258.4 30.0001 257.3 30.5001 256.2 30.5001ZM256 21.5001C255.2 21.4001 254.4 21.7001 253.8 22.3001C253.3 23.1001 253 24.0001 253.1 25.0001V25.3001C253 26.3001 253.2 27.4001 253.8 28.3001C254.4 28.9001 255.2 29.3001 256 29.2001C256.8 29.2001 257.6 28.9001 258 28.2001C258.5 27.3001 258.8 26.4001 258.7 25.3001C258.8 24.3001 258.5 23.3001 257.9 22.4001C257.5 21.9001 256.8 21.5001 256 21.5001Z" fill="#231F1B"/>
<path d="M263.9 20.4V26.8C263.8 27.4 264 28.1 264.4 28.6C264.9 29 265.5 29.2001 266.1 29.2001C266.9 29.3001 267.8 29 268.4 28.4C268.9 27.6 269.2 26.6 269.1 25.6V20.4H270.6V30.2001H269.4L269.2 28.9H269.1C268.8 29.4 268.3 29.8 267.8 30C267.2 30.3 266.6 30.4 265.9 30.4C264.9 30.5 264 30.2 263.2 29.5C262.5 28.8 262.2 27.8 262.3 26.8V20.3H263.9V20.4Z" fill="#231F1B"/>
<path d="M276.7 29.2001C277 29.2001 277.2 29.2001 277.5 29.1001C277.7 29.1001 277.9 29.0001 278.1 28.9001V30.0001C277.9 30.1001 277.6 30.2001 277.4 30.2001C277.1 30.2001 276.8 30.3001 276.6 30.3001C274.7 30.3001 273.7 29.3001 273.7 27.3001V21.5001H272.3V20.8001L273.7 20.2001L274.3 18.1001H275.2V20.4001H278.1V21.6001H275.2V27.4001C275.2 27.9001 275.3 28.4001 275.6 28.8001C275.8 29.1001 276.3 29.2001 276.7 29.2001Z" fill="#231F1B"/>
<path d="M283.8 30.5C282.5 30.6 281.3 30.1 280.4 29.2C279.5 28.2 279.1 26.9 279.1 25.5C279 24.1 279.4 22.8 280.3 21.7C281.1 20.8 282.2 20.3 283.4 20.3C284.5 20.2 285.6 20.7 286.3 21.5C287.1 22.4 287.4 23.5 287.4 24.7V25.6H280.6C280.6 26.6 280.9 27.5 281.5 28.2C282.1 28.8 283 29.2 283.8 29.1C284.9 29.1 285.9 28.9 286.9 28.4V29.7C286.4 29.9 285.9 30.1 285.4 30.2C284.9 30.4 284.4 30.5 283.8 30.5ZM283.4 21.5C282.7 21.5 282 21.8 281.5 22.3C281 22.9 280.7 23.7 280.7 24.4H285.8C285.9 23.6 285.6 22.9 285.2 22.2C284.8 21.7 284.1 21.5 283.4 21.5Z" fill="#231F1B"/>
<path d="M294.1 20.2C294.5 20.2 294.9 20.1999 295.3 20.2999L295.1 21.7C294.7 21.6 294.4 21.6 294 21.6C293.2 21.6 292.5 22 292 22.6C291.4 23.3 291.1 24.1 291.1 25V30.2999H289.6V20.4H290.8L291 22.2H291.1C291.4 21.6 291.9 21.1 292.4 20.7C293 20.4 293.5 20.3 294.1 20.2Z" fill="#231F1B"/>
<path d="M93.7 50.2C93.7 51.3 93.3 52.3 92.5 52.9C91.5 53.6 90.3 54 89.1 53.9C87.9 54 86.6 53.8 85.5 53.3V51.8C86.1 52 86.7 52.2 87.3 52.3C87.9 52.4 88.6 52.5 89.2 52.5C90 52.6 90.8 52.4 91.5 52C92 51.6 92.3 51 92.3 50.4C92.3 50 92.2 49.6 92 49.3C91.8 49 91.4 48.7 91.1 48.5C90.5 48.2 89.8 47.9 89.1 47.7C88.1 47.4 87.2 46.8 86.5 46.1C86 45.4 85.7 44.6 85.7 43.8C85.7 42.9 86.1 42 86.8 41.4C87.7 40.8 88.7 40.5 89.8 40.5C91 40.5 92.3 40.7 93.4 41.2L92.9 42.5C91.9 42.1 90.8 41.8 89.7 41.8C89 41.8 88.4 41.9 87.8 42.3C87.3 42.6 87.1 43.2 87.1 43.8C87.1 44.2 87.2 44.6 87.3 44.9C87.5 45.2 87.8 45.5 88.1 45.7C88.7 46 89.3 46.3 89.9 46.5C91 46.8 91.9 47.4 92.8 48.1C93.5 48.6 93.7 49.4 93.7 50.2Z" fill="#231F1B"/>
<path d="M99.8002 53.9C98.6002 54 97.3002 53.5 96.5002 52.6C95.7002 51.5 95.2002 50.2 95.3002 48.9C95.2002 47.5 95.6002 46.2 96.5002 45.1C97.4002 44.2 98.6002 43.7 99.9002 43.8C100.4 43.8 100.9 43.9 101.3 44C101.7 44.1 102.1 44.2 102.4 44.4L102 45.7C101.6 45.6 101.3 45.5 100.9 45.4C100.6 45.3 100.2 45.3 99.9002 45.3C97.9002 45.3 96.9002 46.6 96.9002 49.1C96.8002 50.1 97.1002 51.1 97.6002 51.9C98.1002 52.6 98.9002 52.9 99.8002 52.9C100.7 52.9 101.5 52.7 102.3 52.4V53.7C101.5 53.8 100.7 53.9 99.8002 53.9Z" fill="#231F1B"/>
<path d="M104.1 41.2C104.1 40.9 104.2 40.7 104.3 40.4C104.7 40.1 105.2 40.1 105.5 40.4C105.7 40.6 105.8 40.9 105.8 41.2C105.8 41.5 105.7 41.7 105.5 42C105.1 42.3 104.6 42.3 104.3 42C104.2 41.7 104.1 41.5 104.1 41.2ZM105.8 53.7H104.3V43.8H105.8V53.7Z" fill="#231F1B"/>
<path d="M112.8 53.9C111.5 54 110.3 53.4999 109.4 52.5999C108.5 51.5999 108 50.3 108.1 48.9C108 47.5 108.4 46.1999 109.3 45.0999C110.1 44.1999 111.2 43.7 112.5 43.7C113.6 43.7 114.7 44.1 115.4 44.9C116.2 45.8 116.5 46.8999 116.5 48.0999V49H109.7C109.7 50 110 50.8999 110.6 51.5999C111.2 52.1999 112.1 52.5 112.9 52.5C114 52.5 115 52.2999 116 51.7999V53.0999C115.5 53.2999 115 53.4999 114.5 53.5999C113.9 53.7999 113.3 53.9 112.8 53.9ZM112.3 44.9C111.6 44.9 110.9 45.2 110.4 45.7C109.9 46.3 109.6 47.0999 109.6 47.7999H114.8C114.9 46.9999 114.6 46.2999 114.2 45.5999C113.7 45.0999 113 44.9 112.3 44.9Z" fill="#231F1B"/>
<path d="M125.3 53.7001V47.3C125.4 46.7 125.2 46.0001 124.7 45.5001C124.2 45.1001 123.6 44.9001 123 44.9001C122.2 44.8001 121.3 45.1001 120.7 45.7001C120.2 46.5001 119.9 47.5001 120 48.5001V53.7001H118.5V43.8H119.7L119.9 45.1H120C120.3 44.6 120.8 44.2001 121.3 44.0001C121.9 43.7001 122.5 43.6 123.1 43.6C124.1 43.5 125 43.8001 125.8 44.5001C126.5 45.3001 126.8 46.2001 126.7 47.2001V53.6H125.3V53.7001Z" fill="#231F1B"/>
<path d="M133.5 53.9C132.3 54 131 53.5 130.2 52.6C129.4 51.5 129 50.2 129 48.9C128.9 47.5 129.3 46.2 130.2 45.1C131.1 44.2 132.3 43.7 133.6 43.8C134.1 43.8 134.6 43.9 135 44C135.4 44.1 135.8 44.2 136.1 44.4L135.6 45.7C135.2 45.6 134.9 45.5 134.5 45.4C134.2 45.3 133.8 45.3 133.5 45.3C131.5 45.3 130.5 46.6 130.5 49.1C130.4 50.1 130.7 51.1 131.2 51.9C131.7 52.6 132.5 52.9 133.4 52.9C134.3 52.9 135.1 52.7 135.9 52.3V53.6C135.2 53.7 134.3 53.9 133.5 53.9Z" fill="#231F1B"/>
<path d="M142.1 53.9C140.8 54 139.6 53.4999 138.7 52.5999C137.8 51.5999 137.4 50.3 137.4 48.9C137.3 47.5 137.7 46.1999 138.6 45.0999C139.4 44.1999 140.5 43.7 141.7 43.7C142.8 43.7 143.9 44.1 144.6 44.9C145.3 45.8 145.7 46.8999 145.7 48.0999V49H139C139 50 139.3 50.8999 139.9 51.5999C140.5 52.1999 141.4 52.5 142.2 52.5C143.3 52.5 144.3 52.2999 145.3 51.7999V53.0999C144.8 53.2999 144.3 53.4999 143.8 53.5999C143.3 53.7999 142.7 53.9 142.1 53.9ZM141.7 44.9C141 44.9 140.3 45.2 139.8 45.7C139.3 46.3 139 47.0999 139 47.7999H144.1C144.2 46.9999 143.9 46.2999 143.5 45.5999C143.1 45.0999 142.4 44.9 141.7 44.9Z" fill="#231F1B"/>
<path d="M151.8 50.3C151.8 49.6 152 48.8001 152.4 48.2001C153 47.4001 153.8 46.8001 154.6 46.4001C154.2 46.0001 153.9 45.6 153.6 45.1C153.4 44.8 153.3 44.5001 153.2 44.2001C153.1 43.9001 153 43.5001 153 43.2001C153 42.4001 153.3 41.6 153.9 41.1C154.6 40.6 155.5 40.3 156.4 40.3C157.2 40.3 158 40.5 158.7 41.1C159.3 41.6 159.6 42.4001 159.5 43.2001C159.5 43.9001 159.3 44.5 158.8 45C158.2 45.7 157.6 46.2001 156.8 46.7001L160.4 50.2001C160.7 49.8001 161 49.4001 161.2 48.9001C161.4 48.4001 161.6 47.8 161.7 47.3H163.2C162.9 48.7 162.3 50.1 161.4 51.2001L164.1 53.8H162L160.3 52.2001C159.7 52.8001 158.9 53.2 158.2 53.6C157.4 53.9 156.6 54 155.8 54C154.7 54.1 153.6 53.7 152.8 53C152.2 52.2 151.8 51.3 151.8 50.3ZM155.9 52.5C157.2 52.5 158.5 52 159.5 51.1L155.6 47.3C155.1 47.6 154.6 47.9 154.2 48.3C153.7 48.8 153.4 49.5001 153.4 50.2001C153.4 50.8001 153.6 51.4001 154.1 51.9001C154.6 52.3001 155.2 52.6 155.9 52.5ZM154.5 43.2001C154.5 43.6001 154.6 44.0001 154.8 44.4001C155.1 44.9001 155.5 45.3 155.9 45.8C156.5 45.5 157.1 45.1 157.5 44.6C157.8 44.2 158 43.8 157.9 43.3C157.9 42.9 157.7 42.5001 157.4 42.2001C157.1 41.9001 156.6 41.7 156.2 41.8C155.7 41.8 155.2 41.9001 154.8 42.2001C154.7 42.3001 154.5 42.7001 154.5 43.2001Z" fill="#231F1B"/>
<path d="M177.5 53.7001H170.2V40.6001H177.5V41.9001H171.7V46.1001H177.1V47.4001H171.7V52.2001H177.5V53.7001Z" fill="#231F1B"/>
<path d="M186.6 53.7001V47.3C186.6 46.7 186.5 46.0001 186.1 45.5001C185.6 45.1001 185 44.9001 184.4 44.9001C183.6 44.8001 182.7 45.1001 182.1 45.7001C181.5 46.5001 181.3 47.5001 181.4 48.5001V53.7001H179.9V43.8H181.1L181.3 45.1H181.4C181.7 44.6 182.2 44.2001 182.7 44.0001C183.3 43.7001 183.9 43.6 184.5 43.6C185.5 43.5 186.4 43.8001 187.2 44.5001C187.9 45.3001 188.2 46.2001 188.1 47.2001V53.6H186.6V53.7001Z" fill="#231F1B"/>
<path d="M198.8 43.8V44.8L197 45C197.2 45.3 197.3 45.5 197.4 45.8C197.5 46.2 197.6 46.6 197.6 47C197.6 47.9 197.3 48.7 196.6 49.3C195.8 49.9 194.9 50.2001 193.9 50.2001C193.6 50.2001 193.4 50.2 193.1 50.1C192.6 50.3 192.2 50.8001 192.2 51.4001C192.2 51.6001 192.3 51.9 192.5 52C192.9 52.2 193.3 52.2001 193.6 52.2001H195.3C196.2 52.1 197 52.4001 197.8 52.9001C198.4 53.4001 198.7 54.1001 198.7 54.9001C198.7 55.9001 198.2 56.9001 197.4 57.4001C196.2 58.0001 194.9 58.3001 193.6 58.2001C192.6 58.3001 191.5 58 190.6 57.5C189.5 56.7 189.2 55.2 190 54.1L190.1 54C190.5 53.5 191.1 53.2 191.7 53.1C191.4 53 191.2 52.8 191.1 52.6C190.9 52.4 190.8 52.1 190.9 51.8C190.9 51.5 191 51.1001 191.2 50.9001C191.5 50.6001 191.8 50.3 192.1 50.1C191.6 49.9 191.2 49.5 190.9 49C190.1 47.6 190.3 45.9 191.4 44.8C192.2 44.2 193.1 43.9001 194.1 43.9001C194.6 43.9001 195 44 195.5 44.1L198.8 43.8ZM191 55.3C191 55.8 191.2 56.3 191.7 56.5C192.3 56.8 193 57.0001 193.6 56.9001C194.6 57.0001 195.5 56.8 196.4 56.3C197 56 197.3 55.4 197.3 54.8C197.3 54.4 197.2 53.9001 196.8 53.7001C196.2 53.4001 195.6 53.3001 194.9 53.4001H193.1C192.5 53.4001 192 53.5001 191.5 53.9001C191.2 54.3001 191 54.8 191 55.3ZM191.8 47C191.8 47.6 192 48.1 192.4 48.6C192.9 49 193.4 49.2 194 49.1C195 49.3 196 48.6 196.2 47.5C196.2 47.3 196.2 47.2 196.2 47C196.3 45.9 195.6 44.9 194.5 44.8C194.3 44.8 194.2 44.8 194 44.8C193.4 44.8 192.8 45.0001 192.4 45.4001C192 45.8001 191.8 46.4 191.8 47Z" fill="#231F1B"/>
<path d="M200.4 41.2C200.4 40.9 200.5 40.7 200.6 40.4C201 40.1 201.5 40.1 201.8 40.4C202 40.6 202.1 40.9 202.1 41.2C202.1 41.5 202 41.7 201.8 42C201.4 42.3 200.9 42.3 200.6 42C200.5 41.7 200.4 41.5 200.4 41.2ZM202 53.7H200.5V43.9H202V53.7Z" fill="#231F1B"/>
<path d="M211.6 53.7001V47.3C211.6 46.7 211.4 46.0001 211 45.5001C210.5 45.1001 209.9 44.9001 209.3 44.9001C208.5 44.8001 207.6 45.1001 207 45.7001C206.4 46.5001 206.2 47.5001 206.3 48.5001V53.7001H204.8V43.8H206L206.2 45.1H206.3C206.6 44.6 207.1 44.2001 207.6 44.0001C208.2 43.7001 208.8 43.6 209.4 43.6C210.4 43.5 211.3 43.8001 212.1 44.5001C212.8 45.3001 213.1 46.2001 213 47.2001V53.6H211.6V53.7001Z" fill="#231F1B"/>
<path d="M220 53.9C218.7 54 217.5 53.4999 216.6 52.5999C215.7 51.5999 215.3 50.3 215.3 48.9C215.2 47.5 215.6 46.1999 216.5 45.0999C217.3 44.1999 218.4 43.7 219.6 43.7C220.7 43.7 221.8 44.1 222.5 44.9C223.2 45.8 223.6 46.8999 223.6 48.0999V49H216.8C216.8 50 217.1 50.8999 217.7 51.5999C218.3 52.1999 219.2 52.5 220 52.5C221.1 52.5 222.1 52.2999 223.1 51.7999V53.0999C222.6 53.2999 222.1 53.4999 221.6 53.5999C221.1 53.7999 220.6 53.9 220 53.9ZM219.6 44.9C218.9 44.9 218.2 45.2 217.7 45.7C217.2 46.3 216.9 47.0999 216.9 47.7999H222C222.1 46.9999 221.8 46.2999 221.4 45.5999C220.9 45.0999 220.2 44.9 219.6 44.9Z" fill="#231F1B"/>
<path d="M230 53.8999C228.7 53.9999 227.5 53.4999 226.6 52.5999C225.7 51.5999 225.3 50.2999 225.3 48.8999C225.2 47.4999 225.6 46.1999 226.5 45.0999C227.3 44.1999 228.4 43.6999 229.6 43.6999C230.7 43.5999 231.8 44.0999 232.5 44.8999C233.3 45.7999 233.6 46.8999 233.6 48.0999V48.9999H226.8C226.8 49.9999 227.1 50.8999 227.7 51.5999C228.3 52.1999 229.2 52.4999 230 52.4999C231.1 52.4999 232.1 52.2999 233.1 51.7999V53.0999C232.6 53.2999 232.1 53.4999 231.6 53.5999C231.1 53.7999 230.6 53.8999 230 53.8999ZM229.6 44.8999C228.9 44.8999 228.2 45.1999 227.7 45.6999C227.2 46.2999 226.9 47.0999 226.9 47.7999H232C232.1 46.9999 231.8 46.2999 231.4 45.5999C230.9 45.0999 230.2 44.7999 229.6 44.8999Z" fill="#231F1B"/>
<path d="M240.3 43.7C240.7 43.7 241.1 43.6999 241.5 43.7999L241.3 45.2C240.9 45.1 240.6 45.0999 240.2 45.0999C239.4 45.0999 238.7 45.4999 238.2 46.0999C237.6 46.7999 237.3 47.6 237.3 48.5V53.7999H235.8V43.9H237L237.2 45.7H237.3C237.6 45.1 238.1 44.6 238.6 44.2C239.1 43.8 239.7 43.7 240.3 43.7Z" fill="#231F1B"/>
<path d="M242.8 41.2C242.8 40.9 242.9 40.7 243 40.4C243.4 40.1 243.9 40.1 244.2 40.4C244.4 40.6 244.5 40.9 244.5 41.2C244.5 41.5 244.4 41.7 244.2 42C243.8 42.3 243.3 42.3 243 42C242.9 41.7 242.8 41.5 242.8 41.2ZM244.4 53.7H243V43.8H244.5L244.4 53.7Z" fill="#231F1B"/>
<path d="M254 53.7001V47.3C254 46.7 253.9 46.0001 253.5 45.5001C253 45.1001 252.4 44.9001 251.8 44.9001C251 44.8001 250.1 45.1001 249.5 45.7001C248.9 46.5001 248.7 47.5001 248.8 48.5001V53.7001H247.3V43.8H248.5L248.7 45.1H248.8C249.1 44.6 249.6 44.2001 250.1 44.0001C250.7 43.7001 251.3 43.6 251.9 43.6C252.9 43.5 253.8 43.8001 254.6 44.5001C255.3 45.3001 255.6 46.2001 255.5 47.2001V53.6H254V53.7001Z" fill="#231F1B"/>
<path d="M266.3 43.8V44.8L264.5 45C264.7 45.2 264.8 45.5 265 45.8C265.1 46.2 265.2 46.6 265.2 47C265.2 47.9 264.9 48.7 264.2 49.3C263.4 49.9 262.5 50.2001 261.5 50.2001C261.2 50.2001 261 50.2 260.7 50.1C260.2 50.3 259.8 50.8001 259.7 51.4001C259.7 51.6001 259.8 51.9 260 52C260.4 52.2 260.8 52.2001 261.1 52.2001H262.8C263.7 52.1 264.5 52.4001 265.3 52.9001C265.9 53.4001 266.2 54.1001 266.2 54.9001C266.2 55.9001 265.7 56.9001 264.9 57.4001C263.7 58.0001 262.4 58.3001 261.1 58.2001C260.1 58.3001 259 58 258.1 57.5C257 56.7 256.7 55.2 257.5 54.1L257.6 54C258 53.5 258.6 53.2 259.2 53.1C258.9 53 258.7 52.8 258.6 52.6C258.4 52.4 258.3 52.1 258.4 51.8C258.4 51.5 258.5 51.1001 258.7 50.9001C259 50.6001 259.3 50.3 259.6 50.1C259.1 49.9 258.7 49.5 258.4 49C257.6 47.6 257.8 45.9 258.9 44.8C259.7 44.2 260.6 43.9001 261.6 43.9001C262.1 43.9001 262.5 44 263 44.1L266.3 43.8ZM258.4 55.3C258.4 55.8 258.6 56.3 259.1 56.5C259.7 56.8 260.4 57.0001 261 56.9001C262 57.0001 262.9 56.8 263.8 56.3C264.4 56 264.7 55.4 264.7 54.8C264.7 54.4 264.6 53.9001 264.2 53.7001C263.6 53.4001 263 53.3001 262.3 53.4001H260.5C259.9 53.4001 259.4 53.6001 258.9 53.9001C258.6 54.3001 258.4 54.8 258.4 55.3ZM259.2 47C259.2 47.6 259.4 48.1 259.8 48.6C260.3 49 260.8 49.2 261.4 49.1C262.4 49.3 263.4 48.6 263.6 47.5C263.6 47.3 263.6 47.2 263.6 47C263.7 45.9 262.9 44.9 261.8 44.8C261.6 44.8 261.5 44.8 261.3 44.8C260.7 44.8 260.1 45.0001 259.7 45.4001C259.4 45.8001 259.2 46.4 259.2 47Z" fill="#231F1B"/>
<path d="M38.2998 49.4C38.2998 48.5 38.9998 47.7 39.8998 47.7C40.7998 47.7 41.5998 48.3999 41.5998 49.2999C41.5998 50.1999 40.8998 51 39.9998 51C38.9998 51 38.2998 50.3 38.2998 49.4ZM41.1998 49.4C41.2998 48.7 40.7998 48.1 40.0998 48C39.3998 47.9 38.7998 48.3999 38.6998 49.0999C38.6998 49.1999 38.6998 49.1999 38.6998 49.2999C38.5998 49.9999 39.0998 50.6 39.7998 50.7C40.4998 50.8 41.0998 50.2999 41.1998 49.5999C41.1998 49.4999 41.1998 49.4 41.1998 49.4ZM39.2998 48.4H39.9998C40.4998 48.4 40.6998 48.6 40.6998 48.9C40.6998 49.2 40.4998 49.4 40.2998 49.4C40.2998 49.4 40.2998 49.4 40.1998 49.4L40.6998 50.2H40.3998L39.8998 49.4H39.6998V50.2H39.3998L39.2998 48.4ZM39.5998 49.2H39.8998C40.0998 49.2 40.2998 49.2 40.2998 48.9C40.2998 48.6 40.0998 48.5999 39.8998 48.5999H39.5998V49.2Z" fill="#231F1B"/>
<path d="M53.9999 21.6001H48.6999H48.3999L48.1999 21.9001L44.3999 29.9001L40.4999 21.9001L40.3999 21.6001H40.0999H34.9999H34.4999V22.1001V24.8001V25.3001H34.9999H35.8999V36.7001H34.8999H34.3999V37.2001V40.0001V40.5001H34.8999H40.6999H41.0999V40.0001V37.2001V36.7001H40.6999H39.6999V28.6001L43.9999 37.5001L44.3999 38.4001L44.7999 37.5001L49.1999 28.6001V36.7001H48.1999H47.6999V37.2001V40.0001V40.5001H48.1999H53.9999H54.4999V40.0001V37.2001V36.7001H53.9999H52.9999V25.3001H53.9999H54.4999V24.8001V22.1001V21.6001H53.9999Z" fill="#231F1B"/>
<path d="M20.6001 36.7H19.1001L14.1001 25.2H15.1001V21.5H7.1001V25.2H8.2001L3.2001 36.7H1.1001V40.4H8.3001V36.7H7.3001L8.1001 34.8H14.1001L14.9001 36.7H13.8001V40.4H21.0001V36.7H20.6001ZM12.5001 31.1H9.7001L11.1001 27.9L12.5001 31.1Z" fill="#231F1B"/>
<path d="M47.9 7.19995H7.6H7V7.79995V18.6V19.2H7.6H14.6H15.2V18.6V14.6H23.8V43H19.8H19.2V43.5999V50.5999V51H19.8H35.9H36.5V50.5V43.5V42.9H35.9H31.9V14.6H40.4V18.6V19.2H41H48H48.5V18.6V7.79995V7.19995H47.9ZM33 46.2999L34.7 44.5V49.2999L33 47.7V46.2999ZM30.1 44.5999L28.4 46.2999V11.2L30.1 12.9V44.5999ZM10.4 10.6L8.7 8.89995H46L43.8 10.6H10.4ZM46.8 17.5L45.1 15.9V11.6L46.8 9.79995V17.5Z" fill="#231F1B"/>
</svg>
